<svg width="360" height="361" viewBox="0 0 360 361" fill="none" xmlns="http://www.w3.org/2000/svg">
<rect y="0.250977" width="360" height="360" fill="#F2F2F2"/>
<path fill-rule="evenodd" clip-rule="evenodd" d="M140.398 137.051H131.398C126.428 137.051 122.398 141.08 122.398 146.051V189.251C122.398 194.222 126.428 198.251 131.398 198.251H149.398H210.598H228.598C233.569 198.251 237.598 194.222 237.598 189.251V146.051C237.598 141.08 233.569 137.051 228.598 137.051H219.598V135.251C219.598 130.28 215.569 126.251 210.598 126.251H192.598H167.398H149.398C144.428 126.251 140.398 130.28 140.398 135.251V137.051Z" fill="black"/>
<path fill-rule="evenodd" clip-rule="evenodd" d="M149.398 129.851C146.416 129.851 143.998 132.269 143.998 135.251V138.851H197.998V135.251C197.998 132.269 195.58 129.851 192.598 129.851H149.398ZM131.398 140.651C128.416 140.651 125.998 143.069 125.998 146.051V189.251C125.998 192.233 128.416 194.651 131.398 194.651H210.598C213.58 194.651 215.998 192.233 215.998 189.251V146.051C215.998 143.069 213.58 140.651 210.598 140.651H131.398ZM148.318 167.471C148.318 155.045 158.392 144.971 170.818 144.971C183.244 144.971 193.318 155.045 193.318 167.471C193.318 179.897 183.244 189.971 170.818 189.971C158.392 189.971 148.318 179.897 148.318 167.471ZM150.118 167.471C150.118 156.039 159.386 146.771 170.818 146.771C182.25 146.771 191.518 156.039 191.518 167.471C191.518 178.903 182.25 188.171 170.818 188.171C159.386 188.171 150.118 178.903 150.118 167.471ZM159.118 167.471C159.118 161.009 164.356 155.771 170.818 155.771C177.28 155.771 182.518 161.009 182.518 167.471C182.518 173.933 177.28 179.171 170.818 179.171C164.356 179.171 159.118 173.933 159.118 167.471Z" fill="#F2F2F2"/>
<circle cx="180" cy="162.251" r="92.7" stroke="black" stroke-width="5.4"/>
<rect x="243.359" y="95.291" width="5.4" height="184.32" transform="rotate(45 243.359 95.291)" fill="black"/>
<path d="M142.424 279.047C142.424 278.887 142.371 278.733 142.264 278.586C142.164 278.439 142.014 278.312 141.813 278.205C141.613 278.092 141.366 278.002 141.072 277.935C140.785 277.868 140.457 277.835 140.09 277.835C139.95 277.835 139.799 277.848 139.639 277.875C139.479 277.895 139.328 277.935 139.188 277.995C139.055 278.055 138.941 278.138 138.848 278.245C138.761 278.346 138.717 278.476 138.717 278.636C138.717 278.716 138.727 278.793 138.747 278.867C138.774 278.94 138.821 279.01 138.888 279.077C138.954 279.144 139.045 279.207 139.158 279.267C139.278 279.321 139.432 279.364 139.619 279.398L141.503 279.768C142.184 279.902 142.755 280.069 143.216 280.269C143.677 280.47 144.048 280.703 144.328 280.971C144.609 281.238 144.809 281.535 144.929 281.862C145.056 282.19 145.12 282.544 145.12 282.924C145.12 283.519 144.979 284.04 144.699 284.488C144.425 284.935 144.061 285.309 143.607 285.61C143.159 285.904 142.652 286.124 142.084 286.271C141.523 286.425 140.955 286.501 140.38 286.501C140.006 286.501 139.666 286.478 139.358 286.431C139.058 286.385 138.784 286.321 138.537 286.241C138.296 286.161 138.079 286.067 137.886 285.96C137.699 285.847 137.525 285.723 137.365 285.59H135.551V282.804H138.387V282.864C138.393 283.058 138.453 283.228 138.567 283.375C138.681 283.516 138.827 283.636 139.008 283.736C139.195 283.836 139.405 283.913 139.639 283.967C139.873 284.013 140.12 284.037 140.38 284.037C140.982 284.037 141.419 283.96 141.693 283.806C141.967 283.646 142.104 283.442 142.104 283.195C142.104 283.001 142.037 282.838 141.903 282.704C141.77 282.564 141.533 282.454 141.192 282.373L139.268 281.963C138.059 281.729 137.148 281.341 136.533 280.8C135.918 280.253 135.611 279.551 135.611 278.696C135.611 278.195 135.728 277.741 135.962 277.334C136.196 276.919 136.513 276.569 136.914 276.282C137.315 275.988 137.782 275.761 138.316 275.6C138.858 275.44 139.435 275.36 140.05 275.36C140.471 275.36 140.845 275.386 141.172 275.44C141.499 275.487 141.793 275.55 142.054 275.63C142.314 275.71 142.541 275.807 142.735 275.921C142.935 276.028 143.112 276.141 143.266 276.262H145.01V279.047H142.424ZM149.538 281.712L149.568 282.023C149.642 282.323 149.765 282.587 149.939 282.814C150.119 283.041 150.33 283.232 150.57 283.385C150.811 283.539 151.078 283.656 151.372 283.736C151.666 283.81 151.963 283.846 152.264 283.846C152.564 283.846 152.848 283.83 153.115 283.796C153.389 283.756 153.653 283.706 153.907 283.646C154.161 283.579 154.408 283.506 154.648 283.425C154.889 283.339 155.133 283.248 155.38 283.155L156.482 285.209C156.101 285.443 155.75 285.643 155.43 285.81C155.116 285.97 154.799 286.104 154.478 286.211C154.157 286.318 153.817 286.395 153.456 286.441C153.095 286.495 152.674 286.522 152.194 286.522C151.292 286.522 150.49 286.375 149.789 286.081C149.087 285.78 148.496 285.376 148.015 284.868C147.541 284.361 147.177 283.766 146.923 283.085C146.676 282.403 146.553 281.682 146.553 280.921C146.553 280.159 146.683 279.444 146.943 278.776C147.21 278.108 147.585 277.527 148.065 277.033C148.546 276.532 149.121 276.138 149.789 275.851C150.457 275.563 151.198 275.42 152.013 275.42C152.828 275.42 153.549 275.557 154.177 275.831C154.812 276.098 155.346 276.472 155.781 276.953C156.215 277.427 156.549 277.988 156.782 278.636C157.016 279.277 157.143 279.969 157.163 280.71C157.183 280.877 157.193 281.044 157.193 281.211C157.2 281.371 157.197 281.538 157.183 281.712H149.538ZM151.933 277.925C151.559 277.925 151.238 277.972 150.971 278.065C150.711 278.152 150.49 278.275 150.31 278.436C150.129 278.589 149.986 278.766 149.879 278.967C149.772 279.167 149.689 279.378 149.629 279.598H153.967C153.92 279.371 153.853 279.157 153.767 278.957C153.68 278.756 153.56 278.579 153.406 278.426C153.252 278.272 153.055 278.152 152.815 278.065C152.581 277.972 152.287 277.925 151.933 277.925ZM158.746 275.871H163.496V276.772C163.923 276.432 164.404 276.161 164.938 275.961C165.473 275.761 166.024 275.66 166.592 275.66C167.38 275.66 168.054 275.801 168.616 276.081C169.183 276.355 169.628 276.776 169.948 277.344C170.169 277.096 170.416 276.873 170.69 276.672C170.97 276.465 171.267 276.288 171.581 276.141C171.895 275.988 172.223 275.871 172.563 275.791C172.911 275.704 173.265 275.66 173.625 275.66C174.894 275.66 175.87 276.011 176.551 276.712C177.232 277.414 177.573 278.439 177.573 279.788V283.506H179.046V286.251H174.307V280.299C174.307 279.712 174.153 279.251 173.846 278.917C173.545 278.583 173.124 278.416 172.583 278.416C172.209 278.416 171.855 278.506 171.521 278.686C171.194 278.86 170.867 279.164 170.539 279.598C170.546 279.671 170.549 279.748 170.549 279.828C170.549 279.902 170.549 279.979 170.549 280.059V283.506H172.052V286.251H167.313V280.279C167.313 279.999 167.27 279.745 167.183 279.518C167.096 279.291 166.976 279.097 166.822 278.937C166.668 278.776 166.485 278.653 166.271 278.566C166.064 278.472 165.833 278.422 165.58 278.416C165.246 278.409 164.898 278.482 164.538 278.636C164.184 278.79 163.843 279.074 163.516 279.488V283.506H165.179V286.251H158.726V283.506H160.269V278.616H158.746V275.871ZM188.945 275.871H190.839V278.496H188.945V283.506H190.859V286.251H184.416V283.506H185.969V278.496H184.396V275.871H185.969V274.147C185.969 273.54 186.076 273.005 186.29 272.544C186.504 272.083 186.788 271.696 187.142 271.382C187.502 271.068 187.916 270.831 188.384 270.671C188.852 270.51 189.343 270.43 189.857 270.43C190.238 270.43 190.578 270.46 190.879 270.52C191.18 270.574 191.443 270.644 191.67 270.731C191.898 270.818 192.088 270.911 192.242 271.011C192.402 271.111 192.529 271.205 192.622 271.292L191.47 273.406C191.316 273.292 191.143 273.202 190.949 273.135C190.755 273.069 190.518 273.035 190.238 273.035C190.057 273.035 189.887 273.065 189.727 273.125C189.573 273.186 189.436 273.272 189.316 273.386C189.202 273.499 189.112 273.643 189.045 273.817C188.979 273.984 188.945 274.181 188.945 274.408V275.871ZM192.532 281.021C192.532 280.266 192.669 279.558 192.943 278.897C193.217 278.235 193.598 277.658 194.085 277.163C194.573 276.669 195.154 276.278 195.829 275.991C196.503 275.704 197.245 275.56 198.053 275.56C198.861 275.56 199.603 275.704 200.277 275.991C200.959 276.278 201.543 276.669 202.031 277.163C202.518 277.658 202.896 278.235 203.163 278.897C203.437 279.558 203.574 280.266 203.574 281.021C203.574 281.776 203.44 282.487 203.173 283.155C202.912 283.816 202.538 284.397 202.051 284.898C201.57 285.393 200.989 285.783 200.307 286.071C199.633 286.358 198.881 286.501 198.053 286.501C197.218 286.501 196.46 286.358 195.778 286.071C195.104 285.783 194.526 285.393 194.045 284.898C193.564 284.404 193.19 283.826 192.923 283.165C192.662 282.497 192.532 281.782 192.532 281.021ZM195.528 281.021C195.528 281.415 195.595 281.779 195.728 282.113C195.862 282.44 196.042 282.724 196.269 282.965C196.503 283.205 196.77 283.392 197.071 283.526C197.378 283.659 197.706 283.726 198.053 283.726C198.407 283.726 198.734 283.663 199.035 283.536C199.342 283.402 199.606 283.215 199.826 282.975C200.053 282.734 200.23 282.45 200.357 282.123C200.484 281.789 200.548 281.422 200.548 281.021C200.548 280.607 200.484 280.233 200.357 279.899C200.23 279.565 200.053 279.281 199.826 279.047C199.606 278.813 199.342 278.636 199.035 278.516C198.734 278.389 198.407 278.329 198.053 278.336C197.706 278.329 197.378 278.389 197.071 278.516C196.77 278.636 196.503 278.813 196.269 279.047C196.042 279.281 195.862 279.565 195.728 279.899C195.595 280.233 195.528 280.607 195.528 281.021ZM209.014 275.871H211.088V278.496H208.994L208.974 282.884C208.974 283.138 208.994 283.345 209.034 283.506C209.074 283.659 209.131 283.783 209.205 283.876C209.285 283.97 209.378 284.033 209.485 284.067C209.592 284.1 209.716 284.117 209.856 284.117C210.11 284.117 210.334 284.093 210.527 284.047C210.721 283.993 210.915 283.933 211.108 283.866L211.539 285.8C211.199 286.014 210.818 286.184 210.397 286.311C209.983 286.438 209.489 286.501 208.914 286.501C208.507 286.501 208.116 286.431 207.742 286.291C207.374 286.151 207.05 285.94 206.77 285.66C206.489 285.373 206.266 285.015 206.099 284.588C205.932 284.16 205.851 283.663 205.858 283.095L205.888 278.496H204.395V275.871H205.898L205.918 273.386L209.034 271.903L209.014 275.871ZM213.032 281.021C213.032 280.266 213.169 279.558 213.443 278.897C213.717 278.235 214.098 277.658 214.585 277.163C215.073 276.669 215.654 276.278 216.329 275.991C217.003 275.704 217.745 275.56 218.553 275.56C219.361 275.56 220.103 275.704 220.777 275.991C221.459 276.278 222.043 276.669 222.531 277.163C223.018 277.658 223.396 278.235 223.663 278.897C223.937 279.558 224.074 280.266 224.074 281.021C224.074 281.776 223.94 282.487 223.673 283.155C223.412 283.816 223.038 284.397 222.551 284.898C222.07 285.393 221.489 285.783 220.807 286.071C220.133 286.358 219.381 286.501 218.553 286.501C217.718 286.501 216.96 286.358 216.278 286.071C215.604 285.783 215.026 285.393 214.545 284.898C214.064 284.404 213.69 283.826 213.423 283.165C213.162 282.497 213.032 281.782 213.032 281.021ZM216.028 281.021C216.028 281.415 216.095 281.779 216.228 282.113C216.362 282.44 216.542 282.724 216.769 282.965C217.003 283.205 217.27 283.392 217.571 283.526C217.878 283.659 218.206 283.726 218.553 283.726C218.907 283.726 219.234 283.663 219.535 283.536C219.842 283.402 220.106 283.215 220.326 282.975C220.553 282.734 220.73 282.45 220.857 282.123C220.984 281.789 221.048 281.422 221.048 281.021C221.048 280.607 220.984 280.233 220.857 279.899C220.73 279.565 220.553 279.281 220.326 279.047C220.106 278.813 219.842 278.636 219.535 278.516C219.234 278.389 218.907 278.329 218.553 278.336C218.206 278.329 217.878 278.389 217.571 278.516C217.27 278.636 217.003 278.813 216.769 279.047C216.542 279.281 216.362 279.565 216.228 279.899C216.095 280.233 216.028 280.607 216.028 281.021Z" fill="black"/>
</svg>
