<svg width="246" height="145" viewBox="0 0 246 145" fill="none" xmlns="http://www.w3.org/2000/svg">
<path d="M10.3926 22.585C10.3926 22.4756 10.3561 22.3708 10.2832 22.2705C10.2148 22.1702 10.1123 22.0837 9.97559 22.0107C9.83887 21.9333 9.67025 21.8717 9.46973 21.8262C9.27376 21.7806 9.05046 21.7578 8.7998 21.7578C8.7041 21.7578 8.60156 21.7669 8.49219 21.7852C8.38281 21.7988 8.28027 21.8262 8.18457 21.8672C8.09342 21.9082 8.01595 21.9652 7.95215 22.0381C7.8929 22.1064 7.86328 22.1953 7.86328 22.3047C7.86328 22.3594 7.87012 22.4118 7.88379 22.4619C7.90202 22.512 7.93392 22.5599 7.97949 22.6055C8.02507 22.651 8.08659 22.6943 8.16406 22.7354C8.24609 22.7718 8.35091 22.8014 8.47852 22.8242L9.76367 23.0771C10.2285 23.1683 10.6182 23.2822 10.9326 23.4189C11.2471 23.5557 11.5 23.7152 11.6914 23.8975C11.8828 24.0798 12.0195 24.2826 12.1016 24.5059C12.1882 24.7292 12.2314 24.9707 12.2314 25.2305C12.2314 25.6361 12.1357 25.9915 11.9443 26.2969C11.7575 26.6022 11.5091 26.8574 11.1992 27.0625C10.8939 27.263 10.5475 27.4134 10.1602 27.5137C9.77734 27.6185 9.38997 27.6709 8.99805 27.6709C8.74284 27.6709 8.51042 27.6549 8.30078 27.623C8.0957 27.5911 7.90885 27.5479 7.74023 27.4932C7.57617 27.4385 7.42806 27.3747 7.2959 27.3018C7.16829 27.2243 7.0498 27.14 6.94043 27.0488H5.70312L5.70312 25.1484H7.6377V25.1895C7.64225 25.3216 7.68327 25.4378 7.76074 25.5381C7.83822 25.6338 7.93848 25.7158 8.06152 25.7842C8.18913 25.8525 8.33268 25.9049 8.49219 25.9414C8.65169 25.9733 8.82031 25.9893 8.99805 25.9893C9.4082 25.9893 9.70671 25.9368 9.89355 25.832C10.0804 25.7227 10.1738 25.5837 10.1738 25.415C10.1738 25.2829 10.1283 25.1712 10.0371 25.0801C9.94596 24.9844 9.78418 24.9092 9.55176 24.8545L8.23926 24.5742C7.41439 24.4147 6.79232 24.1504 6.37305 23.7812C5.95378 23.4076 5.74414 22.929 5.74414 22.3457C5.74414 22.0039 5.82389 21.694 5.9834 21.416C6.1429 21.1335 6.35938 20.8942 6.63281 20.6982C6.90625 20.4977 7.22526 20.3428 7.58984 20.2334C7.95898 20.124 8.35319 20.0693 8.77246 20.0693C9.05957 20.0693 9.31478 20.0876 9.53809 20.124C9.76139 20.1559 9.96191 20.1992 10.1396 20.2539C10.3174 20.3086 10.4723 20.3747 10.6045 20.4521C10.7412 20.5251 10.862 20.6025 10.9668 20.6846H12.1562V22.585H10.3926ZM15.2461 24.4033L15.2666 24.6152C15.3167 24.8203 15.401 25.0003 15.5195 25.1553C15.6426 25.3102 15.7861 25.4401 15.9502 25.5449C16.1143 25.6497 16.2965 25.7295 16.4971 25.7842C16.6976 25.8343 16.9004 25.8594 17.1055 25.8594C17.3105 25.8594 17.5042 25.848 17.6865 25.8252C17.8734 25.7979 18.0534 25.7637 18.2266 25.7227C18.3997 25.6771 18.5684 25.627 18.7324 25.5723C18.8965 25.513 19.0628 25.4515 19.2314 25.3877L19.9834 26.7891C19.7236 26.9486 19.4844 27.0853 19.2656 27.1992C19.0514 27.3086 18.835 27.3997 18.6162 27.4727C18.3975 27.5456 18.165 27.598 17.9189 27.6299C17.6729 27.6663 17.3857 27.6846 17.0576 27.6846C16.4424 27.6846 15.8955 27.5843 15.417 27.3838C14.9385 27.1787 14.5352 26.903 14.207 26.5566C13.8835 26.2103 13.6351 25.8047 13.4619 25.3398C13.2933 24.875 13.209 24.3828 13.209 23.8633C13.209 23.3438 13.2979 22.8561 13.4756 22.4004C13.6579 21.9447 13.9131 21.5482 14.2412 21.2109C14.5693 20.8691 14.9613 20.6003 15.417 20.4043C15.8727 20.2083 16.3786 20.1104 16.9346 20.1104C17.4906 20.1104 17.9827 20.2038 18.4111 20.3906C18.8441 20.5729 19.2087 20.8281 19.5049 21.1562C19.8011 21.4798 20.029 21.8626 20.1885 22.3047C20.348 22.7422 20.4346 23.2139 20.4482 23.7197C20.4619 23.8337 20.4688 23.9476 20.4688 24.0615C20.4733 24.1709 20.471 24.2848 20.4619 24.4033H15.2461ZM16.8799 21.8193C16.6247 21.8193 16.4059 21.8512 16.2236 21.915C16.0459 21.9743 15.8955 22.0586 15.7725 22.168C15.6494 22.2728 15.5514 22.3936 15.4785 22.5303C15.4056 22.667 15.3486 22.8105 15.3076 22.9609H18.2676C18.2357 22.806 18.1901 22.6602 18.1309 22.5234C18.0716 22.3867 17.9896 22.266 17.8848 22.1611C17.7799 22.0563 17.6455 21.9743 17.4814 21.915C17.3219 21.8512 17.1214 21.8193 16.8799 21.8193ZM27.9404 22.9951H26.0195V22.2637C25.8327 22.2637 25.6618 22.2773 25.5068 22.3047C25.3519 22.3275 25.2152 22.3685 25.0967 22.4277C24.9827 22.487 24.8848 22.569 24.8027 22.6738C24.7253 22.7786 24.6706 22.9085 24.6387 23.0635V25.627H26.0811V27.5H21.46V25.627H22.5195V22.291H21.4736V20.418H24.625V20.917C24.8255 20.7575 25.0511 20.6344 25.3018 20.5479C25.5524 20.4613 25.8258 20.418 26.1221 20.418C26.4229 20.418 26.7327 20.4202 27.0518 20.4248C27.3708 20.4294 27.667 20.4316 27.9404 20.4316V22.9951ZM28.8359 20.418H32.5342V22.291H31.6729L32.8281 25.333L33.9424 22.291H33.1768V20.418L36.875 20.418V22.291H35.9316L33.8193 27.5273H31.7344L29.6221 22.291H28.8359V20.418ZM37.7021 20.418H40.8809V25.627H41.8652V27.5H37.7021V25.627H38.7686V22.291H37.7021V20.418ZM38.6592 18.1348C38.6592 17.9661 38.6888 17.8089 38.748 17.6631C38.8118 17.5127 38.8984 17.3828 39.0078 17.2734C39.1172 17.1641 39.2448 17.0775 39.3906 17.0137C39.541 16.9499 39.7028 16.918 39.876 16.918C40.04 16.918 40.195 16.9499 40.3408 17.0137C40.4867 17.0775 40.6143 17.1641 40.7236 17.2734C40.833 17.3828 40.9196 17.5127 40.9834 17.6631C41.0472 17.8089 41.0791 17.9661 41.0791 18.1348C41.0791 18.3034 41.0472 18.4629 40.9834 18.6133C40.9196 18.7591 40.833 18.8867 40.7236 18.9961C40.6143 19.1055 40.4867 19.1921 40.3408 19.2559C40.195 19.3197 40.04 19.3516 39.876 19.3516C39.7028 19.3516 39.541 19.3197 39.3906 19.2559C39.2448 19.1921 39.1172 19.1055 39.0078 18.9961C38.8984 18.8867 38.8118 18.7591 38.748 18.6133C38.6888 18.4629 38.6592 18.3034 38.6592 18.1348ZM48.4072 22.8652C48.2113 22.6191 47.9925 22.4346 47.751 22.3115C47.5094 22.1839 47.2246 22.1292 46.8965 22.1475C46.6322 22.1292 46.3906 22.1657 46.1719 22.2568C45.9577 22.348 45.7708 22.4756 45.6113 22.6396C45.4564 22.8037 45.3356 22.9997 45.249 23.2275C45.1624 23.4508 45.1191 23.7038 45.1191 23.9863C45.1191 24.237 45.1647 24.474 45.2559 24.6973C45.347 24.9206 45.4701 25.1143 45.625 25.2783C45.7845 25.4378 45.9714 25.5632 46.1855 25.6543C46.4043 25.7454 46.6413 25.8001 46.8965 25.8184C47.1107 25.8001 47.3044 25.7568 47.4775 25.6885C47.6553 25.6156 47.8125 25.5244 47.9492 25.415C48.0859 25.3011 48.2021 25.1758 48.2979 25.0391C48.3981 24.8978 48.4756 24.7656 48.5303 24.6426L50.4102 25.1621C50.3327 25.4355 50.1982 25.7204 50.0068 26.0166C49.82 26.3128 49.5739 26.584 49.2686 26.8301C48.9678 27.0716 48.6077 27.2721 48.1885 27.4316C47.7738 27.5911 47.2998 27.6709 46.7666 27.6709C46.2243 27.6709 45.7253 27.5729 45.2695 27.377C44.8138 27.1764 44.4219 26.9053 44.0938 26.5635C43.7656 26.2217 43.5081 25.8206 43.3213 25.3604C43.139 24.9001 43.0479 24.4056 43.0479 23.877C43.0479 23.3529 43.1413 22.8675 43.3281 22.4209C43.5195 21.9697 43.7816 21.5778 44.1143 21.2451C44.4469 20.9079 44.8411 20.6458 45.2969 20.459C45.7572 20.2721 46.2562 20.1878 46.7939 20.2061C47.1768 20.1878 47.5482 20.2311 47.9082 20.3359C48.2682 20.4408 48.61 20.598 48.9336 20.8076H50.2939V22.8652H48.4072ZM44.9824 29.5029C45.1693 29.4893 45.3447 29.4437 45.5088 29.3662C45.6774 29.2933 45.8278 29.1885 45.96 29.0518C46.0967 28.915 46.2129 28.7464 46.3086 28.5459C46.4089 28.3499 46.4818 28.1221 46.5273 27.8623L48.1885 28.4502C48.0837 28.8102 47.9355 29.1247 47.7441 29.3936C47.5527 29.6624 47.3249 29.8857 47.0605 30.0635C46.7962 30.2412 46.5023 30.3757 46.1787 30.4668C45.8597 30.5579 45.5179 30.6058 45.1533 30.6104L44.9824 29.5029ZM51.1143 23.9316C51.1143 23.4167 51.2077 22.9336 51.3945 22.4824C51.5814 22.0313 51.8411 21.637 52.1738 21.2998C52.5065 20.9626 52.903 20.696 53.3633 20.5C53.8236 20.304 54.3294 20.2061 54.8809 20.2061C55.4323 20.2061 55.9382 20.304 56.3984 20.5C56.8633 20.696 57.262 20.9626 57.5947 21.2998C57.9274 21.637 58.1849 22.0313 58.3672 22.4824C58.554 22.9336 58.6475 23.4167 58.6475 23.9316C58.6475 24.4466 58.5563 24.932 58.374 25.3877C58.1963 25.8389 57.9411 26.2354 57.6084 26.5771C57.2803 26.9144 56.8838 27.181 56.4189 27.377C55.9587 27.5729 55.446 27.6709 54.8809 27.6709C54.3112 27.6709 53.7939 27.5729 53.3291 27.377C52.8688 27.181 52.4746 26.9144 52.1465 26.5771C51.8184 26.2399 51.5632 25.8457 51.3809 25.3945C51.2031 24.9388 51.1143 24.4512 51.1143 23.9316ZM53.1582 23.9316C53.1582 24.2005 53.2038 24.4489 53.2949 24.6768C53.3861 24.9001 53.5091 25.0938 53.6641 25.2578C53.8236 25.4219 54.0059 25.5495 54.2109 25.6406C54.4206 25.7318 54.6439 25.7773 54.8809 25.7773C55.1224 25.7773 55.3457 25.734 55.5508 25.6475C55.7604 25.5563 55.9404 25.4287 56.0908 25.2646C56.2458 25.1006 56.3665 24.9069 56.4531 24.6836C56.5397 24.4557 56.583 24.2051 56.583 23.9316C56.583 23.6491 56.5397 23.3939 56.4531 23.166C56.3665 22.9382 56.2458 22.7445 56.0908 22.585C55.9404 22.4255 55.7604 22.3047 55.5508 22.2227C55.3457 22.1361 55.1224 22.0951 54.8809 22.0996C54.6439 22.0951 54.4206 22.1361 54.2109 22.2227C54.0059 22.3047 53.8236 22.4255 53.6641 22.585C53.5091 22.7445 53.3861 22.9382 53.2949 23.166C53.2038 23.3939 53.1582 23.6491 53.1582 23.9316ZM64.2051 22.585C64.2051 22.4756 64.1686 22.3708 64.0957 22.2705C64.0273 22.1702 63.9248 22.0837 63.7881 22.0107C63.6514 21.9333 63.4827 21.8717 63.2822 21.8262C63.0863 21.7806 62.863 21.7578 62.6123 21.7578C62.5166 21.7578 62.4141 21.7669 62.3047 21.7852C62.1953 21.7988 62.0928 21.8262 61.9971 21.8672C61.9059 21.9082 61.8285 21.9652 61.7646 22.0381C61.7054 22.1064 61.6758 22.1953 61.6758 22.3047C61.6758 22.3594 61.6826 22.4118 61.6963 22.4619C61.7145 22.512 61.7464 22.5599 61.792 22.6055C61.8376 22.651 61.8991 22.6943 61.9766 22.7354C62.0586 22.7718 62.1634 22.8014 62.291 22.8242L63.5762 23.0771C64.041 23.1683 64.4307 23.2822 64.7451 23.4189C65.0596 23.5557 65.3125 23.7152 65.5039 23.8975C65.6953 24.0798 65.832 24.2826 65.9141 24.5059C66.0007 24.7292 66.0439 24.9707 66.0439 25.2305C66.0439 25.6361 65.9482 25.9915 65.7568 26.2969C65.57 26.6022 65.3216 26.8574 65.0117 27.0625C64.7064 27.263 64.36 27.4134 63.9727 27.5137C63.5898 27.6185 63.2025 27.6709 62.8105 27.6709C62.5553 27.6709 62.3229 27.6549 62.1133 27.623C61.9082 27.5911 61.7214 27.5479 61.5527 27.4932C61.3887 27.4385 61.2406 27.3747 61.1084 27.3018C60.9808 27.2243 60.8623 27.14 60.7529 27.0488H59.5156V25.1484H61.4502V25.1895C61.4548 25.3216 61.4958 25.4378 61.5732 25.5381C61.6507 25.6338 61.751 25.7158 61.874 25.7842C62.0016 25.8525 62.1452 25.9049 62.3047 25.9414C62.4642 25.9733 62.6328 25.9893 62.8105 25.9893C63.2207 25.9893 63.5192 25.9368 63.7061 25.832C63.8929 25.7227 63.9863 25.5837 63.9863 25.415C63.9863 25.2829 63.9408 25.1712 63.8496 25.0801C63.7585 24.9844 63.5967 24.9092 63.3643 24.8545L62.0518 24.5742C61.2269 24.4147 60.6048 24.1504 60.1855 23.7813C59.7663 23.4076 59.5566 22.929 59.5566 22.3457C59.5566 22.0039 59.6364 21.694 59.7959 21.416C59.9554 21.1335 60.1719 20.8942 60.4453 20.6982C60.7188 20.4977 61.0378 20.3428 61.4023 20.2334C61.7715 20.124 62.1657 20.0693 62.585 20.0693C62.8721 20.0693 63.1273 20.0876 63.3506 20.124C63.5739 20.1559 63.7744 20.1992 63.9521 20.2539C64.1299 20.3086 64.2848 20.3747 64.417 20.4521C64.5537 20.5251 64.6745 20.6025 64.7793 20.6846H65.9688V22.585H64.2051Z" fill="black"/>
<rect x="81.5" width="52.5" height="45" rx="22.5" fill="black"/>
<rect x="84.5" y="3" width="39" height="39" rx="19.5" fill="#9947EB"/>
<path d="M117.376 17.7645C116.908 16.9845 116.043 16.5 115.119 16.5C114.738 16.5 114.362 16.5882 114.021 16.7485C113.917 16.5982 113.783 16.4695 113.621 16.3752L112.808 15.9062C112.619 15.797 112.404 15.739 112.186 15.738C112.159 15.7192 112.131 15.7017 112.102 15.685L110.97 15.031C110.793 14.9292 110.593 14.8755 110.389 14.8755C110.372 14.8755 110.354 14.8757 110.337 14.8765C109.8 14.6322 109.246 14.5 108.742 14.5H106.243C105.597 14.5 105.046 14.722 104.692 15.1247C104.448 15.4025 104.365 15.7792 104.47 16.133C104.574 16.4845 104.847 16.7532 105.2 16.8517C105.278 16.8762 105.56 17.002 106.02 17.2457L105.865 17.5H101.25C101.061 17.5 100.877 17.5202 100.698 17.5542L100.466 17.322C100.526 16.5652 100.255 15.806 99.7102 15.2612C99.2647 14.8157 98.6722 14.5462 98.042 14.5033C98.0107 14.501 97.9792 14.5 97.9477 14.5H95.4488C95.085 14.5 94.7445 14.64 94.49 14.8947L94.4298 14.9547C94.2068 15.178 94.0645 15.4607 94.0183 15.767C93.712 15.8132 93.4293 15.9555 93.206 16.1785L93.1448 16.2397C92.8763 16.5085 92.733 16.8745 92.7518 17.2445C92.7633 17.472 92.8063 17.6917 92.8728 17.9027C92.8668 17.9005 92.861 17.8972 92.855 17.8952L91.8958 17.5567C91.7863 17.5182 91.674 17.4997 91.5633 17.4997C91.214 17.4997 90.8798 17.6835 90.697 18.0002L90.3838 18.543C90.1433 18.96 90.234 19.489 90.5995 19.8022L91.372 20.4637C91.5103 20.5822 91.678 20.6604 91.8575 20.6907L92.205 20.7487L92.649 21.0049C91.869 21.0574 91.25 21.7069 91.25 22.4999V22.9999C91.25 23.4427 91.444 23.8399 91.75 24.1147V27.4999C91.75 28.6026 92.6473 29.4999 93.75 29.4999H114.249C115.352 29.4999 116.249 28.6026 116.249 27.4999V24.1147C116.555 23.8399 116.749 23.4427 116.749 22.9999V22.4999C116.749 22.0864 116.581 21.7117 116.309 21.4399C116.353 21.4179 116.398 21.3997 116.441 21.3752C117.053 21.0217 117.488 20.4502 117.665 19.766C117.842 19.082 117.74 18.371 117.376 17.7645Z" fill="black"/>
<path fill-rule="evenodd" clip-rule="evenodd" d="M104.25 24.5033H101.25C100.974 24.5033 100.75 24.2793 100.75 24.0033V23.4998C100.75 23.2236 100.974 22.9998 101.25 22.9998H104.25C104.526 22.9998 104.75 23.2236 104.75 23.4998V24.0033C104.75 24.2793 104.526 24.5033 104.25 24.5033ZM105.25 23.9998H112.75V27.4998C112.75 28.0521 112.302 28.4998 111.75 28.4998H93.75C93.1977 28.4998 92.75 28.0521 92.75 27.4998V23.9998H100.25V24.0033C100.25 24.5548 100.698 25.0033 101.25 25.0033H104.25C104.801 25.0033 105.25 24.5548 105.25 24.0033V23.9998ZM112.75 21.9999C113.026 21.9999 113.25 22.2239 113.25 22.4999V22.9998C113.25 23.2758 113.026 23.4998 112.75 23.4998H105.25C105.25 22.9483 104.801 22.4999 104.25 22.4999H101.25C100.698 22.4999 100.25 22.9483 100.25 23.4998H92.75C92.474 23.4998 92.25 23.2758 92.25 22.9998V22.4999C92.25 22.2239 92.474 21.9999 92.75 21.9999H99.25V20.4999C99.25 19.3954 100.145 18.4999 101.25 18.4999H104.25C105.354 18.4999 106.25 19.3954 106.25 20.4999V21.9999H112.75ZM100.125 21.9999H105.375V20.4999C105.375 19.8796 104.87 19.3749 104.25 19.3749H101.25C100.63 19.3749 100.125 19.8796 100.125 20.4999V21.9999ZM110.622 17.2414C110.744 17.3121 110.786 17.4691 110.715 17.5919L110.166 18.5439C110.095 18.6666 109.938 18.7086 109.815 18.6376L109.003 18.1686C108.88 18.0979 108.838 17.9409 108.909 17.8184L108.942 17.7614C108.964 17.7229 108.951 17.6734 108.913 17.6511C108.874 17.6289 108.812 17.5926 108.773 17.5704C108.734 17.5481 108.685 17.5616 108.663 17.6001C108.618 17.6771 108.52 17.7036 108.443 17.6589L107.325 17.0141C107.261 16.9769 107.232 16.9024 107.25 16.8339C107.257 16.8066 107.239 16.7781 107.215 16.7641C106.414 16.3039 105.72 15.9586 105.469 15.8886C105.424 15.8761 105.412 15.8204 105.443 15.7851C105.816 15.3604 106.777 15.4126 107.699 15.9261C107.724 15.9399 107.757 15.9414 107.777 15.9214C107.828 15.8721 107.906 15.8601 107.971 15.8971L109.103 16.5509C109.18 16.5951 109.184 16.6874 109.144 16.7661C109.125 16.8039 109.139 16.8509 109.176 16.8724C109.215 16.8946 109.277 16.9306 109.316 16.9529C109.354 16.9751 109.404 16.9619 109.426 16.9234L109.459 16.8664C109.53 16.7436 109.687 16.7014 109.809 16.7724L110.622 17.2414ZM92.5485 19.7924L92.0225 19.7044L91.25 19.0426L91.5632 18.5001L92.5225 18.8384L92.8612 19.2496L96.759 21.5001H95.5062L92.5485 19.7924ZM94.4505 18.4454C94.0062 18.1369 93.7745 17.6699 93.7505 17.1941C93.7457 17.1016 93.7865 17.0126 93.852 16.9469L93.9132 16.8856C94.0935 16.7056 94.3857 16.7056 94.5657 16.8856L95.0765 17.3961C95.1785 17.4981 95.3272 17.5381 95.4665 17.5009C95.606 17.4634 95.7147 17.3546 95.7522 17.2151C95.7895 17.0759 95.7495 16.9271 95.6475 16.8251L95.137 16.3146C94.9567 16.1344 94.9567 15.8421 95.137 15.6619L95.1972 15.6016C95.2702 15.5286 95.3717 15.4939 95.4747 15.5009C95.8497 15.5266 96.2175 15.6816 96.5042 15.9684C96.9247 16.3889 97.0632 16.9829 96.923 17.5194C96.9012 17.6019 96.9197 17.6894 96.98 17.7496L98.8962 19.6659C98.8032 19.9271 98.75 20.2071 98.75 20.4999V21.4779L96.0015 18.7291C95.941 18.6689 95.8537 18.6504 95.7712 18.6721C95.326 18.7889 94.8377 18.7144 94.4505 18.4454ZM106.75 20.4999C106.75 19.8959 106.535 19.3414 106.177 18.9089L107.075 17.4471L108.193 18.0919L106.75 20.7486V20.4999ZM114.019 18.2789C114.485 19.0549 114.223 20.0586 113.442 20.5091C112.927 20.8064 112.317 20.7866 111.835 20.5121C111.761 20.4701 111.672 20.4654 111.598 20.5079L109.88 21.4999H107.11L110.905 19.3089C110.979 19.2661 111.02 19.1861 111.021 19.1009C111.024 18.5281 111.331 17.9729 111.879 17.6824C112.624 17.2874 113.586 17.5554 114.019 18.2789ZM113.096 19.9096L113.557 19.1101L113.096 18.3106H112.173L111.711 19.1101L112.173 19.9096H113.096Z" fill="white"/>
<path d="M10.0098 70.418H13.708V72.291H12.8467L14.002 75.333L15.1162 72.291H14.3506V70.418H18.0488V72.291H17.1055L14.9932 77.5273H12.9082L10.7959 72.291H10.0098V70.418ZM20.7148 74.4033L20.7354 74.6152C20.7855 74.8203 20.8698 75.0003 20.9883 75.1553C21.1113 75.3102 21.2549 75.4401 21.4189 75.5449C21.583 75.6497 21.7653 75.7295 21.9658 75.7842C22.1663 75.8343 22.3691 75.8594 22.5742 75.8594C22.7793 75.8594 22.973 75.848 23.1553 75.8252C23.3421 75.7979 23.5221 75.7637 23.6953 75.7227C23.8685 75.6771 24.0371 75.627 24.2012 75.5723C24.3652 75.513 24.5316 75.4515 24.7002 75.3877L25.4521 76.7891C25.1924 76.9486 24.9531 77.0853 24.7344 77.1992C24.5202 77.3086 24.3037 77.3997 24.085 77.4727C23.8662 77.5456 23.6338 77.598 23.3877 77.6299C23.1416 77.6663 22.8545 77.6846 22.5264 77.6846C21.9111 77.6846 21.3643 77.5843 20.8857 77.3838C20.4072 77.1787 20.0039 76.903 19.6758 76.5566C19.3522 76.2103 19.1038 75.8047 18.9307 75.3398C18.762 74.875 18.6777 74.3828 18.6777 73.8633C18.6777 73.3438 18.7666 72.8561 18.9443 72.4004C19.1266 71.9447 19.3818 71.5482 19.71 71.2109C20.0381 70.8691 20.43 70.6003 20.8857 70.4043C21.3415 70.2083 21.8473 70.1104 22.4033 70.1104C22.9593 70.1104 23.4515 70.2038 23.8799 70.3906C24.3128 70.5729 24.6774 70.8281 24.9736 71.1562C25.2699 71.4798 25.4977 71.8626 25.6572 72.3047C25.8167 72.7422 25.9033 73.2139 25.917 73.7197C25.9307 73.8337 25.9375 73.9476 25.9375 74.0615C25.9421 74.1709 25.9398 74.2848 25.9307 74.4033H20.7148ZM22.3486 71.8193C22.0934 71.8193 21.8747 71.8512 21.6924 71.915C21.5146 71.9743 21.3643 72.0586 21.2412 72.168C21.1182 72.2728 21.0202 72.3936 20.9473 72.5303C20.8743 72.667 20.8174 72.8105 20.7764 72.9609H23.7363C23.7044 72.806 23.6589 72.6602 23.5996 72.5234C23.5404 72.3867 23.4583 72.266 23.3535 72.1611C23.2487 72.0563 23.1143 71.9743 22.9502 71.915C22.7907 71.8512 22.5902 71.8193 22.3486 71.8193ZM32.8076 73.4258C32.8076 73.0293 32.7028 72.7194 32.4932 72.4961C32.2835 72.2682 32.0055 72.1543 31.6592 72.1543C31.4222 72.1543 31.1829 72.2067 30.9414 72.3115C30.6999 72.4163 30.4652 72.6123 30.2373 72.8994V75.627H31.3857V77.5H26.9834V75.627H28.0225V72.291H26.9971V70.418H30.2236V71.04C30.5199 70.8076 30.8503 70.6253 31.2148 70.4932C31.584 70.3564 31.9714 70.2881 32.377 70.2881C33.2292 70.2881 33.8854 70.5273 34.3457 71.0059C34.806 71.4798 35.0361 72.1748 35.0361 73.0908V75.627H36.041V77.5H32.8076V73.4258ZM41.1543 66.8633H44.251V75.627H45.6318V77.5H42.1455V77.2266C41.8994 77.3542 41.6465 77.4544 41.3867 77.5273C41.1315 77.6003 40.8717 77.6367 40.6074 77.6367C40.0651 77.6367 39.5661 77.541 39.1104 77.3496C38.6592 77.1536 38.2695 76.887 37.9414 76.5498C37.6178 76.2126 37.3649 75.8184 37.1826 75.3672C37.0003 74.9115 36.9092 74.4238 36.9092 73.9043C36.9092 73.3848 36.998 72.9017 37.1758 72.4551C37.3581 72.0039 37.6087 71.612 37.9277 71.2793C38.2513 70.9466 38.6364 70.6846 39.083 70.4932C39.5342 70.3018 40.0286 70.2061 40.5664 70.2061C40.8626 70.2061 41.1406 70.2357 41.4004 70.2949C41.6602 70.3496 41.9085 70.4294 42.1455 70.5342V68.7363H41.1543V66.8633ZM40.7236 75.75C41.0244 75.7409 41.2956 75.6634 41.5371 75.5176C41.7832 75.3717 41.986 75.1803 42.1455 74.9434V72.8584C41.986 72.6169 41.7786 72.43 41.5234 72.2979C41.2728 72.1611 41.0062 72.0951 40.7236 72.0996C40.4867 72.0951 40.2633 72.1361 40.0537 72.2227C39.8486 72.3092 39.6663 72.4323 39.5068 72.5918C39.3519 72.7513 39.2288 72.9427 39.1377 73.166C39.0465 73.3893 39.001 73.6423 39.001 73.9248C39.001 74.2028 39.0465 74.4557 39.1377 74.6836C39.2288 74.9069 39.3519 75.0983 39.5068 75.2578C39.6663 75.4128 39.8486 75.5312 40.0537 75.6133C40.2633 75.6953 40.4867 75.7409 40.7236 75.75ZM50.8887 77.1172C50.7292 77.2174 50.5833 77.304 50.4512 77.377C50.319 77.4453 50.1868 77.5 50.0547 77.541C49.9225 77.5866 49.7858 77.6185 49.6445 77.6367C49.5033 77.6595 49.3483 77.6709 49.1797 77.6709C48.7559 77.6709 48.3753 77.6139 48.0381 77.5C47.7054 77.3815 47.4229 77.222 47.1904 77.0215C46.9626 76.8164 46.7871 76.5771 46.6641 76.3037C46.541 76.0257 46.4795 75.7249 46.4795 75.4014C46.4795 75.0732 46.541 74.7702 46.6641 74.4922C46.7917 74.2142 46.974 73.9772 47.2109 73.7812C47.4479 73.5807 47.7373 73.4258 48.0791 73.3164C48.4255 73.2025 48.8197 73.1455 49.2617 73.1455C49.5853 73.1455 49.8792 73.1637 50.1436 73.2002C50.4124 73.2321 50.6608 73.2731 50.8887 73.3232V73.1045C50.8887 72.9268 50.8545 72.7741 50.7861 72.6465C50.7178 72.5143 50.6221 72.4072 50.499 72.3252C50.376 72.2386 50.2279 72.1771 50.0547 72.1406C49.8815 72.0996 49.6924 72.0791 49.4873 72.0791C49.0589 72.0791 48.6807 72.1224 48.3525 72.209C48.029 72.291 47.7168 72.4118 47.416 72.5713L46.7598 71.2451C47.2246 70.9261 47.71 70.6823 48.2158 70.5137C48.7262 70.3451 49.2663 70.2607 49.8359 70.2607C50.278 70.2607 50.6859 70.3109 51.0596 70.4111C51.4378 70.5068 51.7614 70.6663 52.0303 70.8896C52.2992 71.1084 52.5088 71.3955 52.6592 71.751C52.8141 72.1064 52.8916 72.5394 52.8916 73.0498V75.627H53.8418V77.5H50.8887V77.1172ZM49.3301 76.0576C49.6536 76.0576 49.9476 76.0052 50.2119 75.9004C50.4762 75.7956 50.7018 75.668 50.8887 75.5176V74.6152H49.248C49.1432 74.6152 49.0407 74.6312 48.9404 74.6631C48.8402 74.695 48.749 74.7406 48.667 74.7998C48.5895 74.859 48.5257 74.932 48.4756 75.0186C48.43 75.1051 48.4072 75.2054 48.4072 75.3193C48.4072 75.529 48.4824 75.7044 48.6328 75.8457C48.7878 75.987 49.0202 76.0576 49.3301 76.0576ZM59.8027 72.585C59.8027 72.4756 59.7663 72.3708 59.6934 72.2705C59.625 72.1702 59.5225 72.0837 59.3857 72.0107C59.249 71.9333 59.0804 71.8717 58.8799 71.8262C58.6839 71.7806 58.4606 71.7578 58.21 71.7578C58.1143 71.7578 58.0117 71.7669 57.9023 71.7852C57.793 71.7988 57.6904 71.8262 57.5947 71.8672C57.5036 71.9082 57.4261 71.9652 57.3623 72.0381C57.3031 72.1064 57.2734 72.1953 57.2734 72.3047C57.2734 72.3594 57.2803 72.4118 57.2939 72.4619C57.3122 72.512 57.3441 72.5599 57.3896 72.6055C57.4352 72.651 57.4967 72.6943 57.5742 72.7354C57.6562 72.7718 57.7611 72.8014 57.8887 72.8242L59.1738 73.0771C59.6387 73.1683 60.0283 73.2822 60.3428 73.4189C60.6572 73.5557 60.9102 73.7152 61.1016 73.8975C61.293 74.0798 61.4297 74.2826 61.5117 74.5059C61.5983 74.7292 61.6416 74.9707 61.6416 75.2305C61.6416 75.6361 61.5459 75.9915 61.3545 76.2969C61.1676 76.6022 60.9193 76.8574 60.6094 77.0625C60.304 77.263 59.9577 77.4134 59.5703 77.5137C59.1875 77.6185 58.8001 77.6709 58.4082 77.6709C58.153 77.6709 57.9206 77.6549 57.7109 77.623C57.5059 77.5911 57.319 77.5479 57.1504 77.4932C56.9863 77.4385 56.8382 77.3747 56.7061 77.3018C56.5785 77.2243 56.46 77.14 56.3506 77.0488H55.1133V75.1484H57.0479V75.1895C57.0524 75.3216 57.0934 75.4378 57.1709 75.5381C57.2484 75.6338 57.3486 75.7158 57.4717 75.7842C57.5993 75.8525 57.7428 75.9049 57.9023 75.9414C58.0618 75.9733 58.2305 75.9893 58.4082 75.9893C58.8184 75.9893 59.1169 75.9368 59.3037 75.832C59.4906 75.7227 59.584 75.5837 59.584 75.415C59.584 75.2829 59.5384 75.1712 59.4473 75.0801C59.3561 74.9844 59.1943 74.9092 58.9619 74.8545L57.6494 74.5742C56.8245 74.4147 56.2025 74.1504 55.7832 73.7812C55.3639 73.4076 55.1543 72.929 55.1543 72.3457C55.1543 72.0039 55.234 71.694 55.3936 71.416C55.5531 71.1335 55.7695 70.8942 56.043 70.6982C56.3164 70.4977 56.6354 70.3428 57 70.2334C57.3691 70.124 57.7633 70.0693 58.1826 70.0693C58.4697 70.0693 58.7249 70.0876 58.9482 70.124C59.1715 70.1559 59.3721 70.1992 59.5498 70.2539C59.7275 70.3086 59.8825 70.3747 60.0146 70.4521C60.1514 70.5251 60.2721 70.6025 60.377 70.6846H61.5664V72.585H59.8027Z" fill="black"/>
<rect x="81.5" y="50" width="52.5" height="45" rx="22.5" fill="black"/>
<rect x="84.5" y="53" width="39" height="39" rx="19.5" fill="#12A159"/>
<path d="M113.03 71.2194C112.767 70.7882 112.291 70.4999 111.75 70.4999V70.4837C112.608 70.3822 113.25 69.7679 113.25 68.9999C113.25 68.8752 113.226 68.5987 113.224 68.5832C113.21 68.461 113.159 68.2057 113.157 68.1982C112.666 66.0705 110.248 64.5 107.25 64.5H104.75C101.751 64.5 99.3324 66.0712 98.8424 68.2C98.8407 68.2075 98.7897 68.4617 98.7754 68.584C98.7737 68.5995 98.7499 68.8754 98.7499 68.9999V69.7559C98.5342 69.5927 98.2752 69.4999 98 69.4999H95.5C95.166 69.4999 94.8522 69.6299 94.616 69.8659C94.38 70.1022 94.25 70.4162 94.25 70.7499C94.25 71.0592 94.3615 71.3514 94.5657 71.5804C94.368 71.8344 94.25 72.1537 94.25 72.4999V72.9999C94.25 73.3691 94.4522 73.6881 94.75 73.8611V76.4999C94.75 77.1516 95.1682 77.7058 95.75 77.9123V78.0623C95.75 78.8551 96.395 79.4998 97.1875 79.4998H99.6874C100.48 79.4998 101.125 78.8551 101.125 78.0623V77.9998H104.46C104.847 78.8816 105.727 79.4998 106.75 79.4998H109.25C110.273 79.4998 111.153 78.8816 111.54 77.9998H111.75C112.577 77.9998 113.25 77.3271 113.25 76.4999V73.8611C113.548 73.6881 113.75 73.3691 113.75 72.9999V72.4999C113.75 71.9587 113.462 71.4832 113.03 71.2194Z" fill="black"/>
<path fill-rule="evenodd" clip-rule="evenodd" d="M105 72H105.25C105.25 71.724 105.474 71.5 105.75 71.5H109.25C109.526 71.5 109.75 71.724 109.75 72C110.026 72 110.25 72.224 110.25 72.4999V72.9999H95.2501V72.4999C95.2501 72.224 95.4741 72 95.7501 72H96.3966L95.3233 70.9267C95.2256 70.829 95.2256 70.671 95.3233 70.5732C95.4211 70.4755 95.5793 70.4755 95.6768 70.5732L96.6038 71.5H99.75C100.026 71.5 100.25 71.724 100.25 72H100.75C100.75 71.724 100.974 71.5 101.25 71.5H103.75C104.026 71.5 104.25 71.724 104.25 72H104.5V69.3702C104.367 69.45 104.193 69.5 104 69.5C103.586 69.5 103.25 69.276 103.25 69C103.25 67.067 103.922 65.5 104.75 65.5C104.905 65.5 105.055 65.555 105.196 65.6572C105.29 65.7255 105.38 65.8147 105.465 65.9225C105.592 66.084 105.709 66.2875 105.811 66.5252C106.082 67.1585 106.25 68.0335 106.25 69C106.25 69.276 105.914 69.5 105.5 69.5C105.307 69.5 105.133 69.45 105 69.3702V72ZM100.5 69.5C100.086 69.5 99.75 69.276 99.75 69C99.75 67.3295 101.423 65.9347 103.66 65.586C103.06 66.327 102.75 67.6675 102.75 69C102.75 69.276 102.414 69.5 102 69.5C101.722 69.5 101.479 69.399 101.35 69.2492C101.295 69.1862 101.205 69.1862 101.151 69.2492C101.021 69.399 100.778 69.5 100.5 69.5ZM106.75 69C106.75 67.6675 106.44 66.327 105.841 65.586C108.077 65.9347 109.75 67.3295 109.75 69C109.75 69.276 109.414 69.5 109 69.5C108.722 69.5 108.479 69.399 108.349 69.2492C108.295 69.1862 108.205 69.1862 108.15 69.2492C108.021 69.399 107.778 69.5 107.5 69.5C107.086 69.5 106.75 69.276 106.75 69ZM106.75 75.4999C107.578 75.4999 108.25 76.1717 108.25 76.9999C108.25 77.8284 107.578 78.4997 106.75 78.4997C105.922 78.4997 105.25 77.8284 105.25 76.9999C105.25 76.1717 105.922 75.4999 106.75 75.4999ZM106.75 77.4999C107.026 77.4999 107.25 77.2759 107.25 76.9999C107.25 76.7239 107.026 76.4999 106.75 76.4999C106.474 76.4999 106.25 76.7239 106.25 76.9999C106.25 77.2759 106.474 77.4999 106.75 77.4999ZM95.7501 73.4999H109.75V76.4999C109.75 76.7759 109.526 76.9999 109.25 76.9999H108.75C108.75 75.8972 107.853 74.9999 106.75 74.9999C105.647 74.9999 104.75 75.8972 104.75 76.9999H97.625V78.0624C97.625 78.3039 97.4293 78.4997 97.1875 78.4997C96.946 78.4997 96.7501 78.3039 96.7501 78.0624V76.9999H96.2501C95.9741 76.9999 95.7501 76.7759 95.7501 76.4999V73.4999Z" fill="white"/>
<path d="M15.0342 120.418H18.7324V122.291H17.8711L19.0264 125.333L20.1406 122.291H19.375V120.418H23.0732V122.291H22.1299L20.0176 127.527H17.9326L15.8203 122.291H15.0342V120.418ZM28.2549 127.117C28.0954 127.217 27.9495 127.304 27.8174 127.377C27.6852 127.445 27.5531 127.5 27.4209 127.541C27.2887 127.587 27.152 127.618 27.0107 127.637C26.8695 127.66 26.7145 127.671 26.5459 127.671C26.1221 127.671 25.7415 127.614 25.4043 127.5C25.0716 127.382 24.7891 127.222 24.5566 127.021C24.3288 126.816 24.1533 126.577 24.0303 126.304C23.9072 126.026 23.8457 125.725 23.8457 125.401C23.8457 125.073 23.9072 124.77 24.0303 124.492C24.1579 124.214 24.3402 123.977 24.5771 123.781C24.8141 123.581 25.1035 123.426 25.4453 123.316C25.7917 123.202 26.1859 123.146 26.6279 123.146C26.9515 123.146 27.2454 123.164 27.5098 123.2C27.7786 123.232 28.027 123.273 28.2549 123.323V123.104C28.2549 122.927 28.2207 122.774 28.1523 122.646C28.084 122.514 27.9883 122.407 27.8652 122.325C27.7422 122.239 27.5941 122.177 27.4209 122.141C27.2477 122.1 27.0586 122.079 26.8535 122.079C26.4251 122.079 26.0469 122.122 25.7188 122.209C25.3952 122.291 25.083 122.412 24.7822 122.571L24.126 121.245C24.5908 120.926 25.0762 120.682 25.582 120.514C26.0924 120.345 26.6325 120.261 27.2021 120.261C27.6442 120.261 28.0521 120.311 28.4258 120.411C28.804 120.507 29.1276 120.666 29.3965 120.89C29.6654 121.108 29.875 121.396 30.0254 121.751C30.1803 122.106 30.2578 122.539 30.2578 123.05V125.627H31.208V127.5H28.2549V127.117ZM26.6963 126.058C27.0199 126.058 27.3138 126.005 27.5781 125.9C27.8424 125.796 28.068 125.668 28.2549 125.518V124.615H26.6143C26.5094 124.615 26.4069 124.631 26.3066 124.663C26.2064 124.695 26.1152 124.741 26.0332 124.8C25.9557 124.859 25.8919 124.932 25.8418 125.019C25.7962 125.105 25.7734 125.205 25.7734 125.319C25.7734 125.529 25.8486 125.704 25.999 125.846C26.154 125.987 26.3864 126.058 26.6963 126.058ZM37.9072 127.131C37.652 127.277 37.3968 127.382 37.1416 127.445C36.8864 127.509 36.6266 127.541 36.3623 127.541C35.8154 127.541 35.3118 127.448 34.8516 127.261C34.3913 127.074 33.9925 126.816 33.6553 126.488C33.3226 126.156 33.0628 125.764 32.876 125.312C32.6891 124.861 32.5957 124.371 32.5957 123.843C32.5957 123.346 32.6846 122.879 32.8623 122.441C33.0446 121.999 33.2975 121.614 33.6211 121.286C33.9447 120.953 34.332 120.691 34.7832 120.5C35.2344 120.309 35.7243 120.211 36.2529 120.206C36.5765 120.211 36.8727 120.245 37.1416 120.309C37.415 120.372 37.6702 120.459 37.9072 120.568V120.418H39.9785V127.206C39.9785 127.803 39.876 128.318 39.6709 128.751C39.4658 129.188 39.1901 129.549 38.8438 129.831C38.502 130.118 38.1032 130.33 37.6475 130.467C37.1917 130.608 36.7132 130.679 36.2119 130.679C35.5921 130.679 35.0179 130.594 34.4893 130.426C33.9652 130.257 33.498 130.029 33.0879 129.742L33.9424 128.225C34.2568 128.425 34.5986 128.582 34.9678 128.696C35.3369 128.815 35.7471 128.874 36.1982 128.874C36.4443 128.874 36.6699 128.847 36.875 128.792C37.0846 128.737 37.2646 128.644 37.415 128.512C37.57 128.384 37.6908 128.211 37.7773 127.992C37.8639 127.773 37.9072 127.498 37.9072 127.165V127.131ZM36.4307 125.647C36.7497 125.647 37.0368 125.568 37.292 125.408C37.5518 125.244 37.7568 125.03 37.9072 124.766L37.9209 123.043C37.766 122.756 37.554 122.528 37.2852 122.359C37.0163 122.191 36.7246 122.104 36.4102 122.1C36.1868 122.104 35.9681 122.15 35.7539 122.236C35.5397 122.318 35.3529 122.437 35.1934 122.592C35.0384 122.747 34.9154 122.931 34.8242 123.146C34.7331 123.355 34.6875 123.59 34.6875 123.85C34.6875 124.123 34.7331 124.371 34.8242 124.595C34.9154 124.818 35.0384 125.007 35.1934 125.162C35.3483 125.317 35.5306 125.438 35.7402 125.524C35.9544 125.606 36.1846 125.647 36.4307 125.647ZM45.8643 127.117C45.7048 127.217 45.5589 127.304 45.4268 127.377C45.2946 127.445 45.1624 127.5 45.0303 127.541C44.8981 127.587 44.7614 127.618 44.6201 127.637C44.4788 127.66 44.3239 127.671 44.1553 127.671C43.7314 127.671 43.3509 127.614 43.0137 127.5C42.681 127.382 42.3984 127.222 42.166 127.021C41.9382 126.816 41.7627 126.577 41.6396 126.304C41.5166 126.026 41.4551 125.725 41.4551 125.401C41.4551 125.073 41.5166 124.77 41.6396 124.492C41.7673 124.214 41.9495 123.977 42.1865 123.781C42.4235 123.581 42.7129 123.426 43.0547 123.316C43.401 123.202 43.7952 123.146 44.2373 123.146C44.5609 123.146 44.8548 123.164 45.1191 123.2C45.388 123.232 45.6364 123.273 45.8643 123.323V123.104C45.8643 122.927 45.8301 122.774 45.7617 122.646C45.6934 122.514 45.5977 122.407 45.4746 122.325C45.3516 122.239 45.2035 122.177 45.0303 122.141C44.8571 122.1 44.668 122.079 44.4629 122.079C44.0345 122.079 43.6562 122.122 43.3281 122.209C43.0046 122.291 42.6924 122.412 42.3916 122.571L41.7354 121.245C42.2002 120.926 42.6855 120.682 43.1914 120.514C43.7018 120.345 44.2419 120.261 44.8115 120.261C45.2536 120.261 45.6615 120.311 46.0352 120.411C46.4134 120.507 46.737 120.666 47.0059 120.89C47.2747 121.108 47.4844 121.396 47.6348 121.751C47.7897 122.106 47.8672 122.539 47.8672 123.05V125.627H48.8174V127.5H45.8643V127.117ZM44.3057 126.058C44.6292 126.058 44.9232 126.005 45.1875 125.9C45.4518 125.796 45.6774 125.668 45.8643 125.518V124.615H44.2236C44.1188 124.615 44.0163 124.631 43.916 124.663C43.8158 124.695 43.7246 124.741 43.6426 124.8C43.5651 124.859 43.5013 124.932 43.4512 125.019C43.4056 125.105 43.3828 125.205 43.3828 125.319C43.3828 125.529 43.458 125.704 43.6084 125.846C43.7633 125.987 43.9958 126.058 44.3057 126.058ZM54.7783 122.585C54.7783 122.476 54.7419 122.371 54.6689 122.271C54.6006 122.17 54.498 122.084 54.3613 122.011C54.2246 121.933 54.056 121.872 53.8555 121.826C53.6595 121.781 53.4362 121.758 53.1855 121.758C53.0898 121.758 52.9873 121.767 52.8779 121.785C52.7686 121.799 52.666 121.826 52.5703 121.867C52.4792 121.908 52.4017 121.965 52.3379 122.038C52.2786 122.106 52.249 122.195 52.249 122.305C52.249 122.359 52.2559 122.412 52.2695 122.462C52.2878 122.512 52.3197 122.56 52.3652 122.605C52.4108 122.651 52.4723 122.694 52.5498 122.735C52.6318 122.772 52.7367 122.801 52.8643 122.824L54.1494 123.077C54.6143 123.168 55.0039 123.282 55.3184 123.419C55.6328 123.556 55.8857 123.715 56.0771 123.897C56.2686 124.08 56.4053 124.283 56.4873 124.506C56.5739 124.729 56.6172 124.971 56.6172 125.23C56.6172 125.636 56.5215 125.992 56.3301 126.297C56.1432 126.602 55.8949 126.857 55.585 127.062C55.2796 127.263 54.9333 127.413 54.5459 127.514C54.1631 127.618 53.7757 127.671 53.3838 127.671C53.1286 127.671 52.8962 127.655 52.6865 127.623C52.4814 127.591 52.2946 127.548 52.126 127.493C51.9619 127.438 51.8138 127.375 51.6816 127.302C51.554 127.224 51.4355 127.14 51.3262 127.049H50.0889V125.148H52.0234V125.189C52.028 125.322 52.069 125.438 52.1465 125.538C52.224 125.634 52.3242 125.716 52.4473 125.784C52.5749 125.853 52.7184 125.905 52.8779 125.941C53.0374 125.973 53.2061 125.989 53.3838 125.989C53.7939 125.989 54.0924 125.937 54.2793 125.832C54.4661 125.723 54.5596 125.584 54.5596 125.415C54.5596 125.283 54.514 125.171 54.4229 125.08C54.3317 124.984 54.1699 124.909 53.9375 124.854L52.625 124.574C51.8001 124.415 51.1781 124.15 50.7588 123.781C50.3395 123.408 50.1299 122.929 50.1299 122.346C50.1299 122.004 50.2096 121.694 50.3691 121.416C50.5286 121.133 50.7451 120.894 51.0186 120.698C51.292 120.498 51.611 120.343 51.9756 120.233C52.3447 120.124 52.7389 120.069 53.1582 120.069C53.4453 120.069 53.7005 120.088 53.9238 120.124C54.1471 120.156 54.3477 120.199 54.5254 120.254C54.7031 120.309 54.8581 120.375 54.9902 120.452C55.127 120.525 55.2477 120.603 55.3525 120.685H56.542V122.585H54.7783Z" fill="black"/>
<rect x="81.5" y="100" width="52.5" height="45" rx="22.5" fill="black"/>
<rect x="84.5" y="103" width="39" height="39" rx="19.5" fill="#FBCE37"/>
<path d="M101.319 114.5C101.292 114.5 101.266 114.5 101.24 114.5H101.207C100.415 114.497 99.6537 114.807 99.0887 115.363C98.5229 115.92 98.1999 116.679 98.1899 117.474C98.1898 117.478 98.1898 117.482 98.1898 117.486V118.111H95.1884C94.5417 118.111 93.9215 118.369 93.4642 118.827C93.0069 119.286 92.75 119.907 92.75 120.556V122C92.75 122.014 92.7503 122.027 92.7508 122.041C92.7614 122.674 93.017 123.28 93.4647 123.728C93.4902 123.754 93.5163 123.779 93.5428 123.803C93.4964 123.919 93.4709 124.045 93.4709 124.177V127.055C93.4709 127.704 93.7278 128.325 94.1851 128.784C94.6424 129.242 95.2626 129.5 95.9093 129.5H112.09C112.737 129.5 113.357 129.242 113.815 128.784C114.272 128.325 114.529 127.704 114.529 127.055V124.177C114.529 124.045 114.503 123.919 114.457 123.803C114.483 123.779 114.51 123.754 114.535 123.728C114.983 123.28 115.238 122.674 115.249 122.041C115.249 122.027 115.25 122.014 115.25 122V120.556C115.25 119.907 114.993 119.286 114.536 118.827C114.078 118.369 113.457 118.111 112.811 118.111H109.81V117.486C109.81 117.482 109.81 117.478 109.81 117.474C109.8 116.679 109.477 115.92 108.911 115.363C108.346 114.807 107.585 114.497 106.793 114.5H106.76C106.734 114.5 106.707 114.5 106.681 114.5H104.326C104.317 114.5 104.308 114.5 104.299 114.5H104.266C104.24 114.5 104.213 114.5 104.187 114.5H103.813C103.786 114.5 103.76 114.5 103.733 114.5H103.701C103.692 114.5 103.683 114.5 103.674 114.5H101.319Z" fill="black"/>
<path d="M100.486 116.697C100.695 116.487 100.978 116.369 101.273 116.367H104.226C104.522 116.369 104.804 116.487 105.013 116.697C105.222 116.906 105.34 117.19 105.342 117.486V118.389H106.313V117.486C106.307 116.955 106.091 116.449 105.713 116.077C105.336 115.705 104.827 115.497 104.297 115.5H104.255C104.234 115.5 104.212 115.5 104.19 115.5H101.309C101.288 115.5 101.266 115.5 101.245 115.5H101.202C100.673 115.497 100.164 115.705 99.7864 116.077C99.4088 116.449 99.1931 116.955 99.1865 117.486V118.389H100.158V117.486C100.159 117.19 100.278 116.906 100.486 116.697Z" fill="white"/>
<path d="M104.19 124.961C104.381 124.961 104.564 124.885 104.699 124.749C104.834 124.614 104.91 124.43 104.91 124.239V123.516C104.91 123.325 104.834 123.141 104.699 123.006C104.564 122.87 104.381 122.794 104.19 122.794H101.31C101.119 122.794 100.936 122.87 100.801 123.006C100.666 123.141 100.59 123.325 100.59 123.516V124.239C100.59 124.43 100.666 124.614 100.801 124.749C100.936 124.885 101.119 124.961 101.31 124.961H104.19Z" fill="white"/>
<path d="M93.7505 122.011C93.7503 122.008 93.7502 122.004 93.75 122V120.556C93.75 120.173 93.9017 119.805 94.1717 119.534C94.4418 119.263 94.808 119.111 95.1899 119.111H110.309C110.691 119.111 111.058 119.263 111.328 119.534C111.598 119.805 111.75 120.173 111.75 120.556V122C111.75 122.004 111.749 122.008 111.749 122.011C111.746 122.39 111.595 122.753 111.328 123.021C111.058 123.292 110.691 123.444 110.309 123.444H105.63C105.612 123.074 105.451 122.725 105.183 122.469C104.916 122.215 104.561 122.072 104.192 122.072L104.19 122.072H101.31L101.308 122.072C100.939 122.072 100.584 122.215 100.317 122.469C100.049 122.725 99.8887 123.074 99.8703 123.444H95.1904C94.8085 123.444 94.4423 123.292 94.1722 123.021C93.9048 122.753 93.7535 122.39 93.7505 122.011Z" fill="white"/>
<path d="M95.9104 128.5C95.5285 128.5 95.1623 128.348 94.8922 128.077C94.6222 127.806 94.4705 127.439 94.4705 127.055V124.177C96.4358 124.177 97.9765 124.177 99.8698 124.177V124.167L99.8702 124.203C99.8702 124.586 100.022 124.953 100.292 125.224C100.562 125.495 100.928 125.647 101.31 125.647H104.19C104.571 125.647 104.938 125.495 105.208 125.224C105.478 124.953 105.63 124.586 105.63 124.203V124.167L105.63 124.177C107.523 124.177 109.064 124.177 111.029 124.177V127.055C111.029 127.439 110.878 127.806 110.608 128.077C110.338 128.348 109.971 128.5 109.589 128.5H95.9104Z" fill="white"/>
<rect x="147.613" y="42.5361" width="39" height="4" rx="2" transform="rotate(30 147.613 42.5361)" fill="black"/>
<rect x="144" y="70.5" width="39" height="4" rx="2" fill="black"/>
<rect x="145.613" y="99" width="39" height="4" rx="2" transform="rotate(-30 145.613 99)" fill="black"/>
<rect x="193" y="50" width="52.5" height="45" rx="22.5" fill="black"/>
<rect x="196" y="53" width="39" height="39" rx="19.5" fill="#12A159"/>
<path d="M221.61 82.4531C222.117 82.4429 222.621 82.2446 223.009 81.8583L228.483 76.3974C229.279 75.6037 229.279 74.3172 228.483 73.5235L218.032 63.0982C217.635 62.702 217.114 62.5036 216.594 62.5029C213.481 62.4991 212.368 62.4989 209.255 62.5029C208.735 62.5036 208.215 62.702 207.817 63.0982L202.343 68.5591C201.547 69.3528 201.547 70.6392 202.343 71.4329L212.794 81.8583C213.182 82.2447 213.686 82.443 214.193 82.4531C217.322 82.5159 218.481 82.5162 221.61 82.4531Z" fill="black"/>
<path fill-rule="evenodd" clip-rule="evenodd" d="M208.045 66.7456C208.165 66.6261 208.353 66.6085 208.493 66.7041C208.716 66.8591 208.983 66.9398 209.258 66.94C209.534 66.94 209.802 66.859 210.029 66.7104C210.165 66.617 210.349 66.6341 210.466 66.7511C211.562 67.8357 216.411 72.6848 217.501 73.7749C217.621 73.8946 217.638 74.0824 217.543 74.2223C217.388 74.4451 217.307 74.7125 217.307 74.9882C217.307 75.2638 217.388 75.5312 217.536 75.7585C217.63 75.8951 217.613 76.0789 217.495 76.196C217.03 76.6727 215.921 77.7812 215.45 78.253L215.449 78.2539C215.329 78.3736 215.141 78.391 215.001 78.2954C214.778 78.1405 214.511 78.0596 214.235 78.0596C213.96 78.0596 213.692 78.1405 213.465 78.2891C213.328 78.3825 213.144 78.3653 213.028 78.2484C211.932 77.1641 207.084 72.3163 205.993 71.2253L205.993 71.2248C205.873 71.1049 205.856 70.9171 205.951 70.7773C206.106 70.5544 206.187 70.2871 206.187 70.0114C206.187 69.7357 206.106 69.4684 205.958 69.241C205.864 69.1045 205.881 68.9206 205.998 68.8035C206.464 68.3266 207.574 67.217 208.045 66.7456ZM209.795 73.7833L210.555 74.5428L210.926 74.1715C211.056 74.2457 211.187 74.2999 211.317 74.3343C211.448 74.3686 211.575 74.3815 211.699 74.3731C211.824 74.3646 211.942 74.3354 212.055 74.2855C212.167 74.2353 212.271 74.1631 212.365 74.0685C212.544 73.8897 212.64 73.6959 212.654 73.4867C212.668 73.2777 212.604 73.04 212.462 72.7735L212.181 72.24C212.15 72.1825 212.121 72.1268 212.096 72.073C212.07 72.0194 212.051 71.9697 212.04 71.9237C212.027 71.8778 212.023 71.8364 212.026 71.7996C212.029 71.763 212.044 71.7314 212.071 71.7049C212.118 71.6576 212.175 71.6407 212.242 71.6545C212.309 71.6683 212.38 71.7129 212.455 71.7874C212.514 71.847 212.559 71.9077 212.588 71.9697C212.618 72.0317 212.634 72.0927 212.638 72.1529C212.642 72.2129 212.633 72.2709 212.611 72.3266C212.588 72.3826 212.551 72.4386 212.498 72.4948L213.28 73.2773L213.947 72.6105L213.535 72.1987C213.525 72.1264 213.506 72.0504 213.48 71.9704C213.453 71.8904 213.418 71.808 213.374 71.7233L213.79 71.3079L213.03 70.5484L212.653 70.9263C212.533 70.8448 212.411 70.7812 212.287 70.7357C212.163 70.6902 212.041 70.6672 211.919 70.6667C211.797 70.6664 211.679 70.6902 211.563 70.7386C211.448 70.7872 211.338 70.8631 211.235 70.9665C211.13 71.0713 211.055 71.1797 211.008 71.2914C210.962 71.4033 210.938 71.5161 210.937 71.6302C210.936 71.7443 210.954 71.8585 210.99 71.9731C211.026 72.0879 211.075 72.2005 211.135 72.3111L211.434 72.8627C211.456 72.9022 211.476 72.9439 211.495 72.9875C211.514 73.0315 211.527 73.0736 211.535 73.1143C211.543 73.1549 211.545 73.193 211.54 73.228C211.535 73.2631 211.522 73.2927 211.498 73.3164C211.448 73.3665 211.386 73.3864 211.314 73.3765C211.242 73.3663 211.166 73.3215 211.087 73.2422C211.02 73.175 210.97 73.1072 210.936 73.0383C210.903 72.9696 210.884 72.9016 210.881 72.8347C210.878 72.7681 210.889 72.7036 210.914 72.6418C210.939 72.5799 210.979 72.5224 211.032 72.4693L210.249 71.6867L209.582 72.3536L209.985 72.7562C209.984 72.8673 210 72.9776 210.032 73.0868C210.065 73.1961 210.11 73.3037 210.169 73.4099L209.795 73.7833Z" fill="white"/>
<path fill-rule="evenodd" clip-rule="evenodd" d="M220.207 74.4905C220.482 74.7655 220.482 75.2109 220.207 75.4859L214.733 80.9604C214.458 81.2353 214.013 81.2353 213.738 80.9604L203.286 70.5091C203.011 70.2341 203.011 69.7887 203.286 69.5137L208.761 64.0392C209.036 63.7643 209.481 63.7643 209.756 64.0392L220.207 74.4905ZM207.672 66.3722C207.2 66.8442 206.09 67.9541 205.622 68.433C205.33 68.728 205.286 69.1885 205.518 69.5331C205.609 69.674 205.659 69.8401 205.659 70.0114C205.659 70.1784 205.612 70.3409 205.518 70.4761C205.518 70.4761 205.516 70.4782 205.516 70.4793C205.277 70.8287 205.32 71.2987 205.619 71.598C206.71 72.6887 211.56 77.5389 212.656 78.6235C212.949 78.9165 213.411 78.9612 213.757 78.7288C213.898 78.6375 214.064 78.5874 214.235 78.5874C214.402 78.5876 214.565 78.6351 214.7 78.7289L214.703 78.7311C215.053 78.97 215.523 78.9264 215.822 78.6273C216.294 78.1553 217.404 77.0454 217.871 76.5665C218.164 76.2715 218.208 75.8111 217.976 75.4664C217.885 75.3256 217.835 75.1595 217.835 74.9881C217.835 74.8211 217.882 74.6586 217.976 74.5235C217.977 74.5224 217.978 74.5214 217.978 74.5201C218.217 74.1709 218.173 73.701 217.874 73.4016C216.784 72.3113 211.934 67.4608 210.838 66.376C210.545 66.083 210.082 66.0384 209.737 66.2707C209.596 66.362 209.43 66.4121 209.259 66.4121C209.091 66.4121 208.929 66.3645 208.794 66.2706L208.791 66.2683C208.441 66.0295 207.971 66.0731 207.672 66.3722Z" fill="white"/>
<path d="M220.679 74.0191C221.214 74.5544 221.214 75.422 220.679 75.9573L215.707 80.9295L215.738 80.9604C216.013 81.2353 216.458 81.2353 216.733 80.9604L222.208 75.4859C222.482 75.2109 222.482 74.7655 222.208 74.4905L211.756 64.0392C211.481 63.7643 211.036 63.7643 210.761 64.0392L210.73 64.0702L220.679 74.0191Z" fill="white"/>
<path d="M222.679 75.9573C223.214 75.422 223.214 74.5544 222.679 74.0191L212.73 64.0702L212.761 64.0392C213.036 63.7643 213.481 63.7643 213.756 64.0392L224.208 74.4905C224.483 74.7655 224.483 75.2109 224.208 75.4859L218.733 80.9604C218.458 81.2353 218.013 81.2353 217.738 80.9604L217.707 80.9295L222.679 75.9573Z" fill="white"/>
<path d="M204.225 110.495H202.304V109.764C202.117 109.764 201.946 109.777 201.791 109.805C201.636 109.827 201.499 109.868 201.381 109.928C201.267 109.987 201.169 110.069 201.087 110.174C201.009 110.279 200.955 110.409 200.923 110.563V113.127H202.365V115H197.744V113.127H198.804V109.791H197.758V107.918H200.909V108.417C201.11 108.257 201.335 108.134 201.586 108.048C201.837 107.961 202.11 107.918 202.406 107.918C202.707 107.918 203.017 107.92 203.336 107.925C203.655 107.929 203.951 107.932 204.225 107.932V110.495ZM207.226 111.903L207.246 112.115C207.296 112.32 207.381 112.5 207.499 112.655C207.622 112.81 207.766 112.94 207.93 113.045C208.094 113.15 208.276 113.229 208.477 113.284C208.677 113.334 208.88 113.359 209.085 113.359C209.29 113.359 209.484 113.348 209.666 113.325C209.853 113.298 210.033 113.264 210.206 113.223C210.379 113.177 210.548 113.127 210.712 113.072C210.876 113.013 211.042 112.951 211.211 112.888L211.963 114.289C211.703 114.449 211.464 114.585 211.245 114.699C211.031 114.809 210.814 114.9 210.596 114.973C210.377 115.046 210.145 115.098 209.898 115.13C209.652 115.166 209.365 115.185 209.037 115.185C208.422 115.185 207.875 115.084 207.396 114.884C206.918 114.679 206.515 114.403 206.187 114.057C205.863 113.71 205.615 113.305 205.441 112.84C205.273 112.375 205.188 111.883 205.188 111.363C205.188 110.844 205.277 110.356 205.455 109.9C205.637 109.445 205.893 109.048 206.221 108.711C206.549 108.369 206.941 108.1 207.396 107.904C207.852 107.708 208.358 107.61 208.914 107.61C209.47 107.61 209.962 107.704 210.391 107.891C210.824 108.073 211.188 108.328 211.484 108.656C211.781 108.98 212.008 109.363 212.168 109.805C212.327 110.242 212.414 110.714 212.428 111.22C212.441 111.334 212.448 111.448 212.448 111.562C212.453 111.671 212.451 111.785 212.441 111.903H207.226ZM208.859 109.319C208.604 109.319 208.385 109.351 208.203 109.415C208.025 109.474 207.875 109.559 207.752 109.668C207.629 109.773 207.531 109.894 207.458 110.03C207.385 110.167 207.328 110.311 207.287 110.461H210.247C210.215 110.306 210.17 110.16 210.11 110.023C210.051 109.887 209.969 109.766 209.864 109.661C209.759 109.556 209.625 109.474 209.461 109.415C209.301 109.351 209.101 109.319 208.859 109.319ZM219.318 110.926C219.318 110.529 219.214 110.219 219.004 109.996C218.794 109.768 218.516 109.654 218.17 109.654C217.933 109.654 217.694 109.707 217.452 109.812C217.211 109.916 216.976 110.112 216.748 110.399V113.127H217.896V115H213.494V113.127H214.533V109.791H213.508V107.918H216.734V108.54C217.031 108.308 217.361 108.125 217.726 107.993C218.095 107.856 218.482 107.788 218.888 107.788C219.74 107.788 220.396 108.027 220.856 108.506C221.317 108.98 221.547 109.675 221.547 110.591V113.127H222.552V115H219.318V110.926ZM227.665 104.363H230.762V113.127H232.143V115H228.656V114.727C228.41 114.854 228.157 114.954 227.897 115.027C227.642 115.1 227.382 115.137 227.118 115.137C226.576 115.137 226.077 115.041 225.621 114.85C225.17 114.654 224.78 114.387 224.452 114.05C224.129 113.713 223.876 113.318 223.693 112.867C223.511 112.411 223.42 111.924 223.42 111.404C223.42 110.885 223.509 110.402 223.687 109.955C223.869 109.504 224.119 109.112 224.438 108.779C224.762 108.447 225.147 108.185 225.594 107.993C226.045 107.802 226.539 107.706 227.077 107.706C227.373 107.706 227.651 107.736 227.911 107.795C228.171 107.85 228.419 107.929 228.656 108.034V106.236H227.665V104.363ZM227.234 113.25C227.535 113.241 227.806 113.163 228.048 113.018C228.294 112.872 228.497 112.68 228.656 112.443V110.358C228.497 110.117 228.289 109.93 228.034 109.798C227.784 109.661 227.517 109.595 227.234 109.6C226.997 109.595 226.774 109.636 226.564 109.723C226.359 109.809 226.177 109.932 226.018 110.092C225.863 110.251 225.74 110.443 225.648 110.666C225.557 110.889 225.512 111.142 225.512 111.425C225.512 111.703 225.557 111.956 225.648 112.184C225.74 112.407 225.863 112.598 226.018 112.758C226.177 112.913 226.359 113.031 226.564 113.113C226.774 113.195 226.997 113.241 227.234 113.25ZM237.399 114.617C237.24 114.717 237.094 114.804 236.962 114.877C236.83 114.945 236.698 115 236.565 115.041C236.433 115.087 236.297 115.118 236.155 115.137C236.014 115.16 235.859 115.171 235.69 115.171C235.267 115.171 234.886 115.114 234.549 115C234.216 114.882 233.934 114.722 233.701 114.521C233.473 114.316 233.298 114.077 233.175 113.804C233.052 113.526 232.99 113.225 232.99 112.901C232.99 112.573 233.052 112.27 233.175 111.992C233.302 111.714 233.485 111.477 233.722 111.281C233.959 111.081 234.248 110.926 234.59 110.816C234.936 110.702 235.33 110.646 235.772 110.646C236.096 110.646 236.39 110.664 236.654 110.7C236.923 110.732 237.172 110.773 237.399 110.823V110.604C237.399 110.427 237.365 110.274 237.297 110.146C237.229 110.014 237.133 109.907 237.01 109.825C236.887 109.739 236.739 109.677 236.565 109.641C236.392 109.6 236.203 109.579 235.998 109.579C235.57 109.579 235.191 109.622 234.863 109.709C234.54 109.791 234.228 109.912 233.927 110.071L233.271 108.745C233.735 108.426 234.221 108.182 234.727 108.014C235.237 107.845 235.777 107.761 236.347 107.761C236.789 107.761 237.197 107.811 237.57 107.911C237.949 108.007 238.272 108.166 238.541 108.39C238.81 108.608 239.02 108.896 239.17 109.251C239.325 109.606 239.402 110.039 239.402 110.55V113.127H240.353V115H237.399V114.617ZM235.841 113.558C236.164 113.558 236.458 113.505 236.723 113.4C236.987 113.296 237.213 113.168 237.399 113.018V112.115H235.759C235.654 112.115 235.551 112.131 235.451 112.163C235.351 112.195 235.26 112.241 235.178 112.3C235.1 112.359 235.036 112.432 234.986 112.519C234.941 112.605 234.918 112.705 234.918 112.819C234.918 113.029 234.993 113.204 235.144 113.346C235.299 113.487 235.531 113.558 235.841 113.558Z" fill="black"/>
</svg>
