<svg width="300" height="29" viewBox="0 0 300 29" fill="none" xmlns="http://www.w3.org/2000/svg">
<path fill-rule="evenodd" clip-rule="evenodd" d="M19.1765 23.9975H4.4434C3.44229 23.9975 2.49395 23.5499 1.85753 22.777C1.25712 22.0472 0.994175 21.1006 1.12816 20.1706C0.984964 20.0438 0.85182 19.9035 0.730398 19.7515C0.0948166 18.9543 -0.143003 17.9109 0.0843495 16.9174L0.763894 13.9434C0.881548 13.4288 1.11392 12.9649 1.43046 12.5759C1.02516 11.8574 0.896198 11.0083 1.08084 10.1914L1.76039 7.1856C2.04133 5.94417 2.99052 4.9954 4.1771 4.68431L4.33328 3.89632C4.64395 2.32788 6.0202 1.19741 7.61921 1.19741H22.3096C23.3103 1.19741 24.2586 1.645 24.895 2.41708C25.5315 3.18957 25.789 4.20616 25.5976 5.18801L25.5557 5.4028C25.7027 5.53176 25.8396 5.67411 25.964 5.82903C26 5.87425 26.0352 5.92032 26.0687 5.96721C26.0921 5.96763 26.1151 5.96804 26.1382 5.96846C26.2077 5.96679 26.2776 5.96637 26.3475 5.96637C26.4178 5.96637 26.4878 5.96679 26.5569 5.96846C26.6264 5.96679 26.6963 5.96637 26.7662 5.96637C26.8365 5.96637 26.9065 5.96679 26.9755 5.96846C27.0451 5.96679 27.115 5.96637 27.1849 5.96637C27.2552 5.96637 27.3252 5.96679 27.3942 5.96846C27.4637 5.96679 27.5337 5.96637 27.6036 5.96637C27.6739 5.96637 27.7439 5.96679 27.8129 5.96846C27.8824 5.96679 27.9524 5.96637 28.0223 5.96637C28.0855 5.96637 28.1479 5.96677 28.2103 5.96803C28.2463 5.96677 28.2823 5.96637 28.3187 5.96637H35.7661C36.2857 5.96637 36.7772 6.08444 37.216 6.29547H50.8371C51.1423 6.29547 51.4383 6.33647 51.7197 6.4131C52.7392 6.02371 53.8546 5.81771 55.0718 5.81771C55.1425 5.81771 55.2124 5.81814 55.2819 5.8194C55.351 5.81814 55.4205 5.81771 55.4905 5.81771C55.5612 5.81771 55.6316 5.81814 55.7015 5.8194C55.7701 5.81814 55.8397 5.81771 55.9092 5.81771C55.9799 5.81771 56.0503 5.81814 56.1202 5.8194C56.1888 5.81814 56.2583 5.81771 56.3279 5.81771C56.3986 5.81771 56.469 5.81814 56.5389 5.8194C56.6075 5.81814 56.677 5.81771 56.7465 5.81771C56.8173 5.81771 56.8876 5.81814 56.9576 5.8194C57.0262 5.81814 57.0957 5.81771 57.1652 5.81771C57.236 5.81771 57.3063 5.81814 57.3763 5.8194C57.4449 5.81814 57.5144 5.81771 57.5839 5.81771C57.6547 5.81771 57.725 5.81814 57.795 5.8194C57.8636 5.81814 57.9331 5.81771 58.0026 5.81771C58.0734 5.81771 58.1437 5.81814 58.2137 5.8194C58.2823 5.81814 58.3518 5.81771 58.4213 5.81771C58.4921 5.81771 58.5624 5.81814 58.6324 5.8194C58.701 5.81814 58.7705 5.81771 58.84 5.81771C58.9108 5.81771 58.9811 5.81814 59.0511 5.8194C59.1197 5.81814 59.1892 5.81771 59.2587 5.81771C60.3733 5.81771 61.3798 5.98605 62.283 6.29547H68.6078C69.2342 6.14683 69.8735 6.07229 70.5246 6.07229C70.5983 6.07229 70.6707 6.07312 70.7431 6.0748C70.8097 6.07312 70.8767 6.07229 70.9433 6.07229C71.017 6.07229 71.0898 6.07312 71.1623 6.0748C71.2288 6.07312 71.2954 6.07229 71.362 6.07229C71.4357 6.07229 71.5085 6.07312 71.581 6.0748C71.6475 6.07312 71.7141 6.07229 71.7807 6.07229C71.8544 6.07229 71.9272 6.07312 71.9997 6.0748C72.0662 6.07312 72.1328 6.07229 72.1994 6.07229C72.2731 6.07229 72.3459 6.07312 72.4184 6.0748C72.4849 6.07312 72.5515 6.07229 72.6181 6.07229C72.6918 6.07229 72.7646 6.07312 72.8371 6.0748C72.9036 6.07312 72.9702 6.07229 73.0368 6.07229C73.1105 6.07229 73.1833 6.07312 73.2557 6.0748C73.3223 6.07312 73.3889 6.07229 73.4555 6.07229C73.5292 6.07229 73.602 6.07312 73.6744 6.0748C73.741 6.07312 73.8076 6.07229 73.8742 6.07229C73.9478 6.07229 74.0207 6.07312 74.0931 6.0748C74.1597 6.07312 74.2263 6.07229 74.2929 6.07229C74.3665 6.07229 74.4394 6.07312 74.5118 6.0748C74.5784 6.07312 74.645 6.07229 74.7115 6.07229C75.3195 6.07229 75.8881 6.12589 76.4194 6.2268C76.9319 6.12547 77.4523 6.07229 77.9803 6.07229C78.0557 6.07229 78.1306 6.07312 78.2043 6.0748C78.2692 6.07312 78.3341 6.07229 78.399 6.07229C78.4744 6.07229 78.5493 6.07312 78.623 6.0748C78.6879 6.07312 78.7528 6.07229 78.8177 6.07229C78.8931 6.07229 78.968 6.07312 79.0417 6.0748C79.1066 6.07312 79.1715 6.07229 79.2364 6.07229C79.3118 6.07229 79.3867 6.07312 79.4604 6.0748C79.5253 6.07312 79.5902 6.07229 79.6551 6.07229C79.7305 6.07229 79.8054 6.07312 79.8791 6.0748C79.944 6.07312 80.0089 6.07229 80.0738 6.07229C80.1492 6.07229 80.2241 6.07312 80.2978 6.0748C80.3627 6.07312 80.4276 6.07229 80.4925 6.07229C80.5679 6.07229 80.6428 6.07312 80.7165 6.0748C80.7814 6.07312 80.8463 6.07229 80.9112 6.07229C80.9866 6.07229 81.0615 6.07312 81.1352 6.0748C81.2001 6.07312 81.265 6.07229 81.3299 6.07229C81.4053 6.07229 81.4802 6.07312 81.5539 6.0748C81.6188 6.07312 81.6837 6.07229 81.7486 6.07229C81.824 6.07229 81.8989 6.07312 81.9726 6.0748C82.0375 6.07312 82.1024 6.07229 82.1673 6.07229C83.7922 6.07229 85.1404 6.43613 86.2429 7.08134C86.5561 6.90674 86.8831 6.74933 87.2243 6.60949C87.2277 6.60823 87.2314 6.60655 87.2348 6.6053C88.3364 6.15813 89.5259 5.93746 90.7949 5.96468C90.9628 5.95924 91.1299 5.95841 91.2961 5.96217C91.436 5.95924 91.5754 5.95924 91.7144 5.96217C91.8542 5.95924 91.9941 5.95924 92.1331 5.96217C92.2729 5.95924 92.4128 5.95924 92.5518 5.96217C92.6916 5.95924 92.8315 5.95924 92.9705 5.96217C93.1103 5.95924 93.2502 5.95924 93.3892 5.96217C93.529 5.95924 93.6689 5.95924 93.8079 5.96217C93.9477 5.95924 94.0876 5.95924 94.2266 5.96217C94.3664 5.95924 94.5063 5.95924 94.6453 5.96217C94.7851 5.95924 94.9245 5.95924 95.0631 5.96217C95.9587 5.94124 96.8292 6.05511 97.6754 6.30173C98.2029 6.45497 98.7146 6.6547 99.2099 6.90089H99.2547C99.405 6.8272 99.5587 6.75728 99.7153 6.6907C100.829 6.21632 102.051 5.96637 103.385 5.96637C103.455 5.96637 103.525 5.96679 103.594 5.96846C103.664 5.96679 103.733 5.96637 103.804 5.96637C103.874 5.96637 103.944 5.96679 104.013 5.96846C104.082 5.96679 104.152 5.96637 104.223 5.96637C104.292 5.96637 104.362 5.96679 104.432 5.96846C104.501 5.96679 104.571 5.96637 104.641 5.96637C104.711 5.96637 104.781 5.96679 104.851 5.96846C104.92 5.96679 104.99 5.96637 105.06 5.96637C105.13 5.96637 105.2 5.96679 105.269 5.96846C105.338 5.96679 105.408 5.96637 105.479 5.96637C105.549 5.96637 105.618 5.96679 105.688 5.96846C105.757 5.96679 105.827 5.96637 105.897 5.96637C105.967 5.96637 106.037 5.96679 106.107 5.96846C106.176 5.96679 106.246 5.96637 106.316 5.96637C106.386 5.96637 106.456 5.96679 106.525 5.96846C106.594 5.96679 106.664 5.96637 106.735 5.96637C106.805 5.96637 106.875 5.96679 106.944 5.96846C107.013 5.96679 107.083 5.96637 107.153 5.96637C107.223 5.96637 107.293 5.96679 107.363 5.96846C107.432 5.96679 107.502 5.96637 107.572 5.96637C108.523 5.96637 109.416 6.09322 110.254 6.33773C110.428 6.3101 110.606 6.29547 110.787 6.29547H118.01C118.072 6.29547 118.134 6.29547 118.196 6.29547C118.196 6.29547 118.426 6.29547 118.428 6.29547C118.49 6.29547 118.552 6.29547 118.614 6.29547C118.614 6.29547 118.845 6.29547 118.847 6.29547C118.909 6.29547 118.971 6.29547 119.033 6.29547C119.033 6.29547 119.264 6.29547 119.266 6.29547C119.328 6.29547 119.39 6.29547 119.452 6.29547C119.452 6.29547 119.683 6.29547 119.685 6.29547C119.747 6.29547 119.809 6.29547 119.87 6.29547C119.875 6.29547 119.88 6.29547 119.884 6.29547C119.928 6.29588 119.971 6.29587 120.015 6.29587C120.045 6.29546 120.074 6.29547 120.103 6.29547C120.211 6.29547 120.319 6.29546 120.428 6.29587C120.459 6.29546 120.491 6.29547 120.522 6.29547C120.63 6.29547 120.738 6.29546 120.847 6.29587C120.878 6.29546 120.909 6.29547 120.941 6.29547C121.048 6.29547 121.156 6.29546 121.266 6.29587C121.297 6.29546 121.328 6.29547 121.359 6.29547C121.467 6.29547 121.575 6.29546 121.684 6.29587C121.715 6.29546 121.747 6.29547 121.778 6.29547C121.886 6.29547 121.994 6.29546 122.103 6.29587C122.134 6.29546 122.165 6.29547 122.197 6.29547C122.302 6.29547 122.409 6.29546 122.517 6.29587C122.536 6.29546 122.556 6.29547 122.576 6.29547H129.798C129.861 6.29547 129.923 6.29547 129.985 6.29547C129.985 6.29547 130.215 6.29547 130.217 6.29547C130.279 6.29547 130.341 6.29547 130.403 6.29547C130.403 6.29547 130.634 6.29547 130.636 6.29547C130.698 6.29547 130.76 6.29547 130.822 6.29547C130.822 6.29547 131.053 6.29547 131.054 6.29547C131.117 6.29547 131.179 6.29547 131.241 6.29547C131.241 6.29547 131.472 6.29547 131.473 6.29547C131.535 6.29547 131.597 6.29547 131.659 6.29547C131.664 6.29547 131.669 6.29547 131.673 6.29547C131.717 6.29588 131.76 6.29587 131.804 6.29587C131.833 6.29546 131.863 6.29547 131.892 6.29547C132 6.29547 132.108 6.29546 132.217 6.29587C132.248 6.29546 132.279 6.29547 132.31 6.29547C132.418 6.29547 132.526 6.29546 132.636 6.29587C132.667 6.29546 132.698 6.29547 132.729 6.29547C132.837 6.29547 132.945 6.29546 133.054 6.29587C133.085 6.29546 133.117 6.29547 133.148 6.29547C133.256 6.29547 133.364 6.29546 133.473 6.29587C133.504 6.29546 133.535 6.29547 133.566 6.29547C133.674 6.29547 133.783 6.29546 133.892 6.29587C133.923 6.29546 133.954 6.29547 133.985 6.29547C134.468 6.29547 134.966 6.29923 135.478 6.30635C135.956 6.31305 136.401 6.3168 136.81 6.3168C136.814 6.3168 136.818 6.3168 136.822 6.3168C137.768 5.9898 138.796 5.81771 139.909 5.81771C139.98 5.81771 140.049 5.81814 140.119 5.8194C140.188 5.81814 140.258 5.81771 140.328 5.81771C140.398 5.81771 140.469 5.81814 140.539 5.8194C140.607 5.81814 140.677 5.81771 140.747 5.81771C140.817 5.81771 140.887 5.81814 140.957 5.8194C141.026 5.81814 141.095 5.81771 141.165 5.81771C141.236 5.81771 141.306 5.81814 141.376 5.8194C141.445 5.81814 141.514 5.81771 141.584 5.81771C141.654 5.81771 141.725 5.81814 141.795 5.8194C141.863 5.81814 141.933 5.81771 142.003 5.81771C142.073 5.81771 142.143 5.81814 142.213 5.8194C142.282 5.81814 142.352 5.81771 142.421 5.81771C142.492 5.81771 142.562 5.81814 142.632 5.8194C142.701 5.81814 142.77 5.81771 142.84 5.81771C142.911 5.81771 142.981 5.81814 143.051 5.8194C143.119 5.81814 143.189 5.81771 143.259 5.81771C143.329 5.81771 143.4 5.81814 143.469 5.8194C143.538 5.81814 143.608 5.81771 143.678 5.81771C143.748 5.81771 143.818 5.81814 143.888 5.8194C143.957 5.81814 144.026 5.81771 144.096 5.81771C144.594 5.81771 145.071 5.85123 145.526 5.91612C145.633 5.48905 145.776 5.08751 145.951 4.70984C146.38 3.7841 146.959 3.01205 147.67 2.38107C147.677 2.37437 147.685 2.36725 147.693 2.36055C148.399 1.74632 149.208 1.2782 150.122 0.964599L150.123 0.96419C150.964 0.676127 151.846 0.52832 152.771 0.52832C152.844 0.52832 152.917 0.529175 152.988 0.53085C153.055 0.529175 153.122 0.52832 153.189 0.52832C153.264 0.52832 153.337 0.529175 153.41 0.53085C153.475 0.529175 153.542 0.52832 153.608 0.52832C153.682 0.52832 153.756 0.529175 153.828 0.53085C153.894 0.529175 153.96 0.52832 154.027 0.52832C154.101 0.52832 154.175 0.529175 154.247 0.53085C154.313 0.529175 154.379 0.52832 154.446 0.52832C154.52 0.52832 154.593 0.529175 154.666 0.53085C154.732 0.529175 154.798 0.52832 154.864 0.52832C154.938 0.52832 155.012 0.529175 155.085 0.53085C155.15 0.529175 155.216 0.52832 155.283 0.52832C155.357 0.52832 155.431 0.529175 155.503 0.53085C155.569 0.529175 155.635 0.52832 155.702 0.52832C155.776 0.52832 155.849 0.529175 155.922 0.53085C155.988 0.529175 156.054 0.52832 156.12 0.52832C156.194 0.52832 156.268 0.529175 156.341 0.53085C156.406 0.529175 156.473 0.52832 156.539 0.52832C156.613 0.52832 156.687 0.529175 156.759 0.53085C156.825 0.529175 156.891 0.52832 156.958 0.52832C157.592 0.52832 158.16 0.584013 158.656 0.680732C159.194 0.778288 159.667 0.911428 160.076 1.06802C160.558 1.25225 160.96 1.45951 161.286 1.66969C161.658 1.90458 161.947 2.13194 162.167 2.33543C163.196 3.29048 163.512 4.77434 162.992 6.05136C163.036 6.05178 163.08 6.05219 163.124 6.05302C163.194 6.05177 163.263 6.05136 163.334 6.05136C163.404 6.05136 163.474 6.05177 163.543 6.05302C163.613 6.05177 163.682 6.05136 163.752 6.05136C163.822 6.05136 163.892 6.05177 163.961 6.05302C164.031 6.05177 164.101 6.05136 164.171 6.05136C164.241 6.05136 164.311 6.05177 164.38 6.05302C164.45 6.05177 164.519 6.05136 164.59 6.05136C164.66 6.05136 164.73 6.05177 164.799 6.05302C164.869 6.05177 164.938 6.05136 165.008 6.05136C166.007 6.05136 166.927 6.17151 167.751 6.39217C167.843 6.41561 167.934 6.44074 168.023 6.46712C168.356 6.35575 168.713 6.29547 169.084 6.29547H182.914C183.191 6.29547 183.459 6.32894 183.716 6.39217C184.612 6.16649 185.548 6.05136 186.523 6.05136C186.593 6.05136 186.662 6.05177 186.73 6.05302C186.801 6.05177 186.871 6.05136 186.942 6.05136C187.012 6.05136 187.082 6.05177 187.151 6.05302C187.221 6.05177 187.29 6.05136 187.361 6.05136C187.431 6.05136 187.5 6.05177 187.57 6.05302C187.639 6.05177 187.709 6.05136 187.779 6.05136C187.849 6.05136 187.919 6.05177 187.988 6.05302C188.058 6.05177 188.128 6.05136 188.198 6.05136C188.268 6.05136 188.338 6.05177 188.407 6.05302C188.477 6.05177 188.546 6.05136 188.617 6.05136C188.687 6.05136 188.757 6.05177 188.826 6.05302C188.896 6.05177 188.965 6.05136 189.035 6.05136C189.105 6.05136 189.175 6.05177 189.244 6.05302C189.314 6.05177 189.384 6.05136 189.454 6.05136C189.524 6.05136 189.594 6.05177 189.663 6.05302C189.733 6.05177 189.802 6.05136 189.873 6.05136C189.943 6.05136 190.013 6.05177 190.082 6.05302C190.152 6.05177 190.221 6.05136 190.291 6.05136C190.361 6.05136 190.431 6.05177 190.5 6.05302C190.57 6.05177 190.64 6.05136 190.71 6.05136C191.708 6.05136 192.628 6.17151 193.453 6.39217C194.288 6.6057 195.027 6.93565 195.673 7.36398C196.125 7.0734 196.609 6.82135 197.126 6.60949C197.13 6.60823 197.133 6.60655 197.137 6.6053C198.238 6.15813 199.428 5.93746 200.697 5.96468C200.865 5.95924 201.032 5.95841 201.198 5.96217C201.338 5.95924 201.477 5.95924 201.616 5.96217C201.756 5.95924 201.896 5.95924 202.035 5.96217C202.175 5.95924 202.315 5.95924 202.454 5.96217C202.594 5.95924 202.733 5.95924 202.872 5.96217C203.012 5.95924 203.152 5.95924 203.291 5.96217C203.431 5.95924 203.571 5.95924 203.71 5.96217C203.85 5.95924 203.99 5.95924 204.129 5.96217C204.268 5.95924 204.408 5.95924 204.547 5.96217C204.687 5.95924 204.827 5.95924 204.965 5.96217C205.861 5.94124 206.731 6.05511 207.577 6.30173C208.105 6.45497 208.617 6.6547 209.112 6.90089H209.157C209.307 6.8272 209.461 6.75728 209.617 6.6907C210.731 6.21632 211.953 5.96637 213.287 5.96637C213.357 5.96637 213.427 5.96679 213.496 5.96846C213.566 5.96679 213.635 5.96637 213.705 5.96637C213.776 5.96637 213.846 5.96679 213.915 5.96846C213.984 5.96679 214.054 5.96637 214.124 5.96637C214.194 5.96637 214.264 5.96679 214.334 5.96846C214.403 5.96679 214.473 5.96637 214.543 5.96637C214.613 5.96637 214.683 5.96679 214.753 5.96846C214.822 5.96679 214.892 5.96637 214.961 5.96637C215.032 5.96637 215.102 5.96679 215.171 5.96846C215.24 5.96679 215.31 5.96637 215.38 5.96637C215.451 5.96637 215.52 5.96679 215.59 5.96846C215.659 5.96679 215.729 5.96637 215.799 5.96637C215.869 5.96637 215.939 5.96679 216.009 5.96846C216.078 5.96679 216.148 5.96637 216.218 5.96637C216.288 5.96637 216.358 5.96679 216.427 5.96846C216.496 5.96679 216.566 5.96637 216.636 5.96637C216.707 5.96637 216.777 5.96679 216.846 5.96846C216.915 5.96679 216.985 5.96637 217.055 5.96637C217.125 5.96637 217.195 5.96679 217.265 5.96846C217.334 5.96679 217.404 5.96637 217.474 5.96637C218.436 5.96637 219.34 6.09616 220.187 6.34696C220.378 6.31305 220.574 6.29547 220.774 6.29547H227.267C227.871 6.16148 228.493 6.09363 229.133 6.09363C229.206 6.09363 229.278 6.09447 229.35 6.09573C229.417 6.09447 229.484 6.09363 229.552 6.09363C229.625 6.09363 229.697 6.09447 229.769 6.09573C229.836 6.09447 229.903 6.09363 229.971 6.09363C230.043 6.09363 230.116 6.09447 230.188 6.09573C230.255 6.09447 230.322 6.09363 230.389 6.09363C230.462 6.09363 230.534 6.09447 230.606 6.09573C230.673 6.09447 230.74 6.09363 230.808 6.09363C230.881 6.09363 230.953 6.09447 231.025 6.09573C231.092 6.09447 231.159 6.09363 231.227 6.09363C231.299 6.09363 231.372 6.09447 231.444 6.09573C231.511 6.09447 231.578 6.09363 231.645 6.09363C231.718 6.09363 231.791 6.09447 231.863 6.09573C231.93 6.09447 231.997 6.09363 232.064 6.09363C232.137 6.09363 232.209 6.09447 232.281 6.09573C232.348 6.09447 232.415 6.09363 232.483 6.09363C232.556 6.09363 232.628 6.09447 232.7 6.09573C232.767 6.09447 232.834 6.09363 232.901 6.09363C232.974 6.09363 233.047 6.09447 233.119 6.09573C233.186 6.09447 233.253 6.09363 233.32 6.09363C233.519 6.09363 233.713 6.09907 233.904 6.10996C234.16 5.1905 234.804 4.40881 235.691 3.98635L238.994 2.41455C239.516 2.16626 240.083 2.06117 240.642 2.09634C240.782 2.08754 240.922 2.08754 241.061 2.09634C241.2 2.08754 241.34 2.08754 241.48 2.09634C241.619 2.08754 241.759 2.08754 241.898 2.09634C242.038 2.08754 242.178 2.08754 242.317 2.09634C242.456 2.08754 242.596 2.08754 242.736 2.09634C242.875 2.08754 243.015 2.08754 243.154 2.09634C243.294 2.08754 243.434 2.08754 243.573 2.09634C243.713 2.08754 243.852 2.08754 243.992 2.09634C244.131 2.08754 244.271 2.08754 244.411 2.09634C245.106 2.05279 245.809 2.22656 246.416 2.61176C247.389 3.22976 247.975 4.30413 247.969 5.45639L247.966 6.07814C248.68 5.90648 249.436 5.81771 250.236 5.81771C250.307 5.81771 250.376 5.81814 250.446 5.8194C250.515 5.81814 250.585 5.81771 250.655 5.81771C250.725 5.81771 250.796 5.81814 250.866 5.8194C250.934 5.81814 251.004 5.81771 251.074 5.81771C251.144 5.81771 251.214 5.81814 251.284 5.8194C251.353 5.81814 251.422 5.81771 251.492 5.81771C251.563 5.81771 251.633 5.81814 251.703 5.8194C251.772 5.81814 251.841 5.81771 251.911 5.81771C251.981 5.81771 252.052 5.81814 252.122 5.8194C252.19 5.81814 252.26 5.81771 252.33 5.81771C252.4 5.81771 252.47 5.81814 252.54 5.8194C252.609 5.81814 252.678 5.81771 252.748 5.81771C252.819 5.81771 252.889 5.81814 252.959 5.8194C253.028 5.81814 253.097 5.81771 253.167 5.81771C253.237 5.81771 253.308 5.81814 253.378 5.8194C253.446 5.81814 253.516 5.81771 253.586 5.81771C253.656 5.81771 253.726 5.81814 253.796 5.8194C253.865 5.81814 253.935 5.81771 254.005 5.81771C254.075 5.81771 254.145 5.81814 254.215 5.8194C254.284 5.81814 254.353 5.81771 254.423 5.81771C255.784 5.81771 256.985 6.06893 258.032 6.52196C258.31 6.63962 258.576 6.76858 258.832 6.90969C259.045 6.80208 259.265 6.70202 259.49 6.60949C259.494 6.60823 259.497 6.60655 259.501 6.6053C260.602 6.15813 261.792 5.93746 263.061 5.96468C263.229 5.95924 263.396 5.95841 263.562 5.96217C263.702 5.95924 263.841 5.95924 263.98 5.96217C264.12 5.95924 264.26 5.95924 264.399 5.96217C264.539 5.95924 264.679 5.95924 264.818 5.96217C264.958 5.95924 265.097 5.95924 265.236 5.96217C265.376 5.95924 265.516 5.95924 265.655 5.96217C265.795 5.95924 265.935 5.95924 266.074 5.96217C266.214 5.95924 266.354 5.95924 266.493 5.96217C266.632 5.95924 266.772 5.95924 266.911 5.96217C267.051 5.95924 267.191 5.95924 267.329 5.96217C268.225 5.94124 269.095 6.05511 269.941 6.30173C270.372 6.42692 270.792 6.58311 271.201 6.76985C271.359 6.69155 271.519 6.61701 271.683 6.54667C272.789 6.07103 274.014 5.81771 275.364 5.81771C275.435 5.81771 275.504 5.81814 275.574 5.8194C275.643 5.81814 275.713 5.81771 275.783 5.81771C275.853 5.81771 275.924 5.81814 275.994 5.8194C276.062 5.81814 276.132 5.81771 276.201 5.81771C276.272 5.81771 276.342 5.81814 276.412 5.8194C276.481 5.81814 276.55 5.81771 276.62 5.81771C276.691 5.81771 276.761 5.81814 276.831 5.8194C276.9 5.81814 276.969 5.81771 277.039 5.81771C277.109 5.81771 277.18 5.81814 277.25 5.8194C277.318 5.81814 277.388 5.81771 277.457 5.81771C277.528 5.81771 277.598 5.81814 277.668 5.8194C277.737 5.81814 277.807 5.81771 277.876 5.81771C277.947 5.81771 278.017 5.81814 278.087 5.8194C278.156 5.81814 278.225 5.81771 278.295 5.81771C278.366 5.81771 278.436 5.81814 278.506 5.8194C278.574 5.81814 278.644 5.81771 278.713 5.81771C278.784 5.81771 278.855 5.81814 278.924 5.8194C278.993 5.81814 279.063 5.81771 279.132 5.81771C279.203 5.81771 279.273 5.81814 279.343 5.8194C279.412 5.81814 279.481 5.81771 279.551 5.81771C280.665 5.81771 281.672 5.98605 282.575 6.29547H289.638C289.701 6.29547 289.762 6.29547 289.824 6.29547C289.824 6.29547 290.055 6.29547 290.057 6.29547C290.119 6.29547 290.181 6.29547 290.243 6.29547C290.243 6.29547 290.474 6.29547 290.475 6.29547C290.538 6.29547 290.6 6.29547 290.662 6.29547C290.662 6.29547 290.893 6.29547 290.894 6.29547C290.957 6.29547 291.019 6.29547 291.081 6.29547C291.081 6.29547 291.311 6.29547 291.313 6.29547C291.375 6.29547 291.437 6.29547 291.499 6.29547C291.504 6.29547 291.508 6.29547 291.513 6.29547C291.557 6.29588 291.6 6.29587 291.644 6.29587C291.673 6.29546 291.703 6.29547 291.732 6.29547C291.84 6.29547 291.948 6.29546 292.057 6.29587C292.088 6.29546 292.119 6.29547 292.15 6.29547C292.258 6.29547 292.366 6.29546 292.476 6.29587C292.507 6.29546 292.538 6.29547 292.569 6.29547C292.677 6.29547 292.785 6.29546 292.894 6.29587C292.925 6.29546 292.957 6.29547 292.988 6.29547C293.096 6.29547 293.204 6.29546 293.313 6.29587C293.344 6.29546 293.375 6.29547 293.406 6.29547C293.514 6.29547 293.622 6.29546 293.732 6.29587C293.763 6.29546 293.794 6.29547 293.825 6.29547C294.308 6.29547 294.806 6.29923 295.318 6.30635C295.796 6.31305 296.241 6.3168 296.65 6.3168C298.5 6.3168 300 7.81616 300 9.66638V13.649C300 15.3724 298.698 16.7918 297.025 16.9777C297.081 17.2222 297.111 17.4763 297.111 17.738V20.648C297.111 22.4978 295.612 23.9975 293.762 23.9975H282.468C282.169 24.0683 281.862 24.1248 281.548 24.1667C281.03 24.242 280.428 24.2843 279.742 24.2843C279.678 24.2843 279.613 24.2839 279.549 24.2826C279.475 24.2839 279.4 24.2843 279.324 24.2843C279.259 24.2843 279.195 24.2839 279.13 24.2826C279.056 24.2839 278.981 24.2843 278.905 24.2843C278.84 24.2843 278.776 24.2839 278.712 24.2826C278.638 24.2839 278.562 24.2843 278.486 24.2843C278.422 24.2843 278.357 24.2839 278.293 24.2826C278.219 24.2839 278.144 24.2843 278.067 24.2843C278.003 24.2843 277.938 24.2839 277.874 24.2826C277.8 24.2839 277.725 24.2843 277.649 24.2843C277.584 24.2843 277.52 24.2839 277.456 24.2826C277.382 24.2839 277.306 24.2843 277.23 24.2843C277.166 24.2843 277.101 24.2839 277.037 24.2826C276.963 24.2839 276.888 24.2843 276.811 24.2843C276.747 24.2843 276.682 24.2839 276.618 24.2826C276.544 24.2839 276.469 24.2843 276.393 24.2843C276.328 24.2843 276.264 24.2839 276.2 24.2826C276.126 24.2839 276.05 24.2843 275.974 24.2843C275.908 24.2843 275.842 24.2839 275.777 24.2826C275.704 24.2839 275.63 24.2843 275.555 24.2843C274.113 24.2843 272.835 24.0268 271.712 23.5571C271.704 23.5533 271.696 23.5499 271.687 23.5462C271.564 23.4934 271.443 23.4386 271.323 23.3816C271.104 23.4834 270.877 23.5788 270.643 23.668C269.647 24.0511 268.512 24.263 267.232 24.263C267.163 24.263 267.095 24.2626 267.027 24.2609C266.956 24.2626 266.884 24.263 266.813 24.263C266.744 24.263 266.676 24.2626 266.609 24.2609C266.537 24.2626 266.466 24.263 266.394 24.263C266.326 24.263 266.258 24.2626 266.19 24.2609C266.119 24.2626 266.047 24.263 265.975 24.263C265.907 24.263 265.839 24.2626 265.771 24.2609C265.7 24.2626 265.628 24.263 265.557 24.263C265.488 24.263 265.42 24.2626 265.352 24.2609C265.281 24.2626 265.21 24.263 265.138 24.263C265.069 24.263 265.002 24.2626 264.934 24.2609C264.863 24.2626 264.791 24.263 264.719 24.263C264.651 24.263 264.583 24.2626 264.515 24.2609C264.444 24.2626 264.372 24.263 264.301 24.263C264.232 24.263 264.164 24.2626 264.096 24.2609C264.025 24.2626 263.954 24.263 263.882 24.263C263.813 24.263 263.745 24.2626 263.678 24.2609C263.606 24.2626 263.535 24.263 263.463 24.263C263.395 24.263 263.326 24.2626 263.259 24.2609C263.188 24.2626 263.116 24.263 263.045 24.263C261.721 24.263 260.507 24.0118 259.395 23.534C259.386 23.5303 259.378 23.5265 259.369 23.5227C259.275 23.4808 259.181 23.4381 259.089 23.3938C258.76 23.542 258.429 23.6718 258.096 23.7827L258.095 23.7831C257.566 23.9594 257.005 24.0888 256.419 24.1667C255.902 24.242 255.3 24.2843 254.614 24.2843C254.549 24.2843 254.485 24.2839 254.421 24.2826C254.347 24.2839 254.271 24.2843 254.195 24.2843C254.131 24.2843 254.066 24.2839 254.002 24.2826C253.928 24.2839 253.853 24.2843 253.777 24.2843C253.712 24.2843 253.647 24.2839 253.583 24.2826C253.509 24.2839 253.434 24.2843 253.358 24.2843C253.293 24.2843 253.229 24.2839 253.165 24.2826C253.09 24.2839 253.015 24.2843 252.939 24.2843C252.874 24.2843 252.81 24.2839 252.746 24.2826C252.672 24.2839 252.596 24.2843 252.521 24.2843C252.456 24.2843 252.391 24.2839 252.327 24.2826C252.253 24.2839 252.178 24.2843 252.102 24.2843C252.037 24.2843 251.973 24.2839 251.909 24.2826C251.834 24.2839 251.759 24.2843 251.683 24.2843C251.618 24.2843 251.554 24.2839 251.49 24.2826C251.416 24.2839 251.34 24.2843 251.265 24.2843C251.2 24.2843 251.135 24.2839 251.071 24.2826C250.997 24.2839 250.922 24.2843 250.846 24.2843C250.78 24.2843 250.714 24.2839 250.649 24.2826C250.576 24.2839 250.502 24.2843 250.427 24.2843C249.29 24.2843 248.256 24.1248 247.319 23.8271C247.229 23.8573 247.138 23.8866 247.045 23.9142C246.331 24.1332 245.482 24.263 244.493 24.263C244.431 24.263 244.368 24.2621 244.306 24.2605C244.23 24.2621 244.152 24.263 244.074 24.263C244.012 24.263 243.95 24.2621 243.888 24.2605C243.811 24.2621 243.733 24.263 243.656 24.263C243.593 24.263 243.531 24.2621 243.469 24.2605C243.392 24.2621 243.315 24.263 243.237 24.263C243.175 24.263 243.112 24.2621 243.05 24.2605C242.974 24.2621 242.896 24.263 242.818 24.263C242.756 24.263 242.693 24.2621 242.631 24.2605C242.555 24.2621 242.477 24.263 242.4 24.263C242.337 24.263 242.275 24.2621 242.213 24.2605C242.136 24.2621 242.059 24.263 241.981 24.263C241.918 24.263 241.856 24.2621 241.794 24.2605C241.717 24.2621 241.64 24.263 241.562 24.263C241.5 24.263 241.437 24.2621 241.375 24.2605C241.299 24.2621 241.221 24.263 241.143 24.263C241.081 24.263 241.019 24.2621 240.957 24.2605C240.88 24.2621 240.803 24.263 240.725 24.263C240.662 24.263 240.6 24.2621 240.538 24.2605C240.461 24.2621 240.384 24.263 240.306 24.263C239.65 24.263 239.016 24.1738 238.403 23.9975H220.753C220.516 23.9975 220.285 23.9728 220.062 23.9263C219.258 24.1474 218.396 24.263 217.474 24.263C217.404 24.263 217.333 24.2626 217.264 24.2609C217.195 24.2626 217.125 24.263 217.055 24.263C216.985 24.263 216.915 24.2626 216.845 24.2609C216.776 24.2626 216.707 24.263 216.636 24.263C216.566 24.263 216.496 24.2626 216.426 24.2609C216.357 24.2626 216.288 24.263 216.218 24.263C216.148 24.263 216.077 24.2626 216.008 24.2609C215.939 24.2626 215.869 24.263 215.799 24.263C215.729 24.263 215.659 24.2626 215.589 24.2609C215.52 24.2626 215.451 24.263 215.38 24.263C215.31 24.263 215.24 24.2626 215.17 24.2609C215.101 24.2626 215.032 24.263 214.961 24.263C214.892 24.263 214.821 24.2626 214.752 24.2609C214.683 24.2626 214.613 24.263 214.543 24.263C214.473 24.263 214.403 24.2626 214.333 24.2609C214.264 24.2626 214.194 24.263 214.124 24.263C214.054 24.263 213.984 24.2626 213.914 24.2609C213.845 24.2626 213.776 24.263 213.705 24.263C213.635 24.263 213.565 24.2626 213.496 24.2609C213.426 24.2626 213.357 24.263 213.287 24.263C211.923 24.263 210.688 24.0126 209.575 23.5432C209.571 23.5416 209.567 23.5403 209.564 23.5386C209.402 23.4696 209.243 23.3971 209.088 23.3209C208.829 23.4453 208.56 23.5612 208.279 23.668C207.283 24.0511 206.148 24.263 204.868 24.263C204.799 24.263 204.731 24.2626 204.663 24.2609C204.592 24.2626 204.521 24.263 204.449 24.263C204.38 24.263 204.312 24.2626 204.245 24.2609C204.173 24.2626 204.102 24.263 204.03 24.263C203.961 24.263 203.894 24.2626 203.826 24.2609C203.755 24.2626 203.683 24.263 203.611 24.263C203.543 24.263 203.475 24.2626 203.407 24.2609C203.336 24.2626 203.265 24.263 203.193 24.263C203.124 24.263 203.056 24.2626 202.988 24.2609C202.917 24.2626 202.846 24.263 202.774 24.263C202.705 24.263 202.638 24.2626 202.57 24.2609C202.499 24.2626 202.427 24.263 202.355 24.263C202.287 24.263 202.219 24.2626 202.151 24.2609C202.08 24.2626 202.009 24.263 201.937 24.263C201.868 24.263 201.8 24.2626 201.732 24.2609C201.661 24.2626 201.59 24.263 201.518 24.263C201.449 24.263 201.382 24.2626 201.314 24.2609C201.242 24.2626 201.171 24.263 201.099 24.263C201.031 24.263 200.962 24.2626 200.895 24.2609C200.824 24.2626 200.752 24.263 200.681 24.263C199.695 24.263 198.77 24.1235 197.903 23.8552C197.596 23.9477 197.27 23.9975 196.933 23.9975H191.758C191.475 24.0762 191.188 24.1353 190.903 24.1742C190.532 24.2312 190.128 24.263 189.69 24.263C189.617 24.263 189.545 24.2621 189.473 24.2609C189.406 24.2621 189.339 24.263 189.272 24.263C189.199 24.263 189.126 24.2621 189.054 24.2609C188.988 24.2621 188.921 24.263 188.853 24.263C188.78 24.263 188.707 24.2621 188.635 24.2609C188.569 24.2621 188.502 24.263 188.434 24.263C188.361 24.263 188.288 24.2621 188.216 24.2609C188.15 24.2621 188.083 24.263 188.015 24.263C187.943 24.263 187.87 24.2621 187.798 24.2609C187.732 24.2621 187.665 24.263 187.597 24.263C187.524 24.263 187.451 24.2621 187.379 24.2609C187.313 24.2621 187.246 24.263 187.178 24.263C187.105 24.263 187.032 24.2621 186.96 24.2609C186.894 24.2621 186.827 24.263 186.759 24.263C186.686 24.263 186.614 24.2621 186.542 24.2609C186.475 24.2621 186.408 24.263 186.341 24.263C186.268 24.263 186.195 24.2621 186.123 24.2609C186.057 24.2621 185.99 24.263 185.922 24.263C185.847 24.263 185.773 24.2621 185.7 24.2605C185.635 24.2621 185.57 24.263 185.503 24.263C184.69 24.263 183.942 24.17 183.257 23.9975H166.056C165.773 24.0762 165.486 24.1353 165.2 24.1742C164.831 24.2312 164.427 24.263 163.989 24.263C163.915 24.263 163.842 24.2621 163.77 24.2609C163.704 24.2621 163.637 24.263 163.57 24.263C163.497 24.263 163.424 24.2621 163.352 24.2609C163.286 24.2621 163.219 24.263 163.151 24.263C163.078 24.263 163.005 24.2621 162.933 24.2609C162.867 24.2621 162.8 24.263 162.732 24.263C162.659 24.263 162.586 24.2621 162.514 24.2609C162.448 24.2621 162.381 24.263 162.314 24.263C162.24 24.263 162.168 24.2621 162.096 24.2609C162.029 24.2621 161.962 24.263 161.895 24.263C161.822 24.263 161.749 24.2621 161.677 24.2609C161.611 24.2621 161.544 24.263 161.476 24.263C161.403 24.263 161.33 24.2621 161.258 24.2609C161.192 24.2621 161.125 24.263 161.058 24.263C160.984 24.263 160.912 24.2621 160.84 24.2609C160.773 24.2621 160.706 24.263 160.639 24.263C160.566 24.263 160.493 24.2621 160.421 24.2609C160.355 24.2621 160.288 24.263 160.22 24.263C160.145 24.263 160.071 24.2621 159.998 24.2609C159.933 24.2621 159.868 24.263 159.802 24.263C158.988 24.263 158.241 24.17 157.555 23.9975H147.013C146.714 24.0683 146.407 24.1248 146.093 24.1667C145.575 24.242 144.973 24.2843 144.288 24.2843C144.223 24.2843 144.158 24.2839 144.094 24.2826C144.02 24.2839 143.945 24.2843 143.869 24.2843C143.804 24.2843 143.74 24.2839 143.675 24.2826C143.601 24.2839 143.526 24.2843 143.45 24.2843C143.385 24.2843 143.321 24.2839 143.257 24.2826C143.183 24.2839 143.107 24.2843 143.032 24.2843C142.967 24.2843 142.902 24.2839 142.838 24.2826C142.764 24.2839 142.689 24.2843 142.613 24.2843C142.548 24.2843 142.483 24.2839 142.419 24.2826C142.345 24.2839 142.27 24.2843 142.194 24.2843C142.129 24.2843 142.065 24.2839 142.001 24.2826C141.927 24.2839 141.851 24.2843 141.775 24.2843C141.711 24.2843 141.646 24.2839 141.582 24.2826C141.508 24.2839 141.433 24.2843 141.357 24.2843C141.292 24.2843 141.227 24.2839 141.163 24.2826C141.089 24.2839 141.014 24.2843 140.938 24.2843C140.873 24.2843 140.809 24.2839 140.745 24.2826C140.671 24.2839 140.595 24.2843 140.519 24.2843C140.453 24.2843 140.387 24.2839 140.322 24.2826C140.249 24.2839 140.175 24.2843 140.101 24.2843C138.658 24.2843 137.38 24.0268 136.257 23.5571C136.249 23.5533 136.241 23.5499 136.232 23.5462C136.107 23.4926 135.983 23.4365 135.862 23.3787C135.315 23.7685 134.645 23.9975 133.922 23.9975H122.555C122.484 23.9975 122.414 23.9954 122.344 23.9908C122.274 23.9954 122.204 23.9975 122.133 23.9975H110.766C110.547 23.9975 110.332 23.9766 110.124 23.936C109.33 24.1508 108.48 24.263 107.572 24.263C107.502 24.263 107.431 24.2626 107.362 24.2609C107.293 24.2626 107.223 24.263 107.153 24.263C107.083 24.263 107.013 24.2626 106.943 24.2609C106.874 24.2626 106.805 24.263 106.735 24.263C106.664 24.263 106.594 24.2626 106.525 24.2609C106.455 24.2626 106.386 24.263 106.316 24.263C106.246 24.263 106.175 24.2626 106.106 24.2609C106.037 24.2626 105.967 24.263 105.897 24.263C105.827 24.263 105.757 24.2626 105.687 24.2609C105.618 24.2626 105.549 24.263 105.479 24.263C105.408 24.263 105.338 24.2626 105.268 24.2609C105.199 24.2626 105.13 24.263 105.06 24.263C104.99 24.263 104.919 24.2626 104.85 24.2609C104.781 24.2626 104.711 24.263 104.641 24.263C104.571 24.263 104.501 24.2626 104.431 24.2609C104.362 24.2626 104.292 24.263 104.223 24.263C104.152 24.263 104.082 24.2626 104.012 24.2609C103.943 24.2626 103.874 24.263 103.804 24.263C103.733 24.263 103.663 24.2626 103.594 24.2609C103.524 24.2626 103.455 24.263 103.385 24.263C102.021 24.263 100.786 24.0126 99.673 23.5432C99.6692 23.5416 99.6654 23.5403 99.6621 23.5386C99.5001 23.4696 99.3418 23.3971 99.1865 23.3209C98.9277 23.4453 98.6576 23.5612 98.3767 23.668C97.3806 24.0511 96.2455 24.263 94.9656 24.263C94.8969 24.263 94.8291 24.2626 94.7613 24.2609C94.6901 24.2626 94.6185 24.263 94.5469 24.263C94.4782 24.263 94.4104 24.2626 94.3426 24.2609C94.2714 24.2626 94.1998 24.263 94.1282 24.263C94.0595 24.263 93.9917 24.2626 93.9239 24.2609C93.8527 24.2626 93.7811 24.263 93.7095 24.263C93.6408 24.263 93.573 24.2626 93.5052 24.2609C93.434 24.2626 93.3624 24.263 93.2908 24.263C93.2221 24.263 93.1543 24.2626 93.0865 24.2609C93.0153 24.2626 92.9437 24.263 92.8721 24.263C92.8034 24.263 92.7356 24.2626 92.6678 24.2609C92.5966 24.2626 92.525 24.263 92.4534 24.263C92.3847 24.263 92.3169 24.2626 92.2491 24.2609C92.1779 24.2626 92.1063 24.263 92.0347 24.263C91.966 24.263 91.8982 24.2626 91.8304 24.2609C91.7592 24.2626 91.6876 24.263 91.616 24.263C91.5473 24.263 91.4795 24.2626 91.4117 24.2609C91.3405 24.2626 91.2689 24.263 91.1973 24.263C91.1287 24.263 91.0604 24.2626 90.9926 24.2609C90.9218 24.2626 90.8502 24.263 90.7786 24.263C89.937 24.263 89.1394 24.1616 88.3845 23.9644C88.2304 23.9862 88.0734 23.9975 87.9135 23.9975H62.1875C62.1837 23.9975 62.18 23.9975 62.1762 23.9975C61.8773 24.0683 61.5695 24.1248 61.2547 24.1667C60.7376 24.242 60.1363 24.2843 59.4501 24.2843C59.3852 24.2843 59.3207 24.2839 59.2566 24.2826C59.1825 24.2839 59.1072 24.2843 59.0314 24.2843C58.9665 24.2843 58.902 24.2839 58.8379 24.2826C58.7638 24.2839 58.6885 24.2843 58.6127 24.2843C58.5478 24.2843 58.4833 24.2839 58.4192 24.2826C58.3451 24.2839 58.2698 24.2843 58.194 24.2843C58.1291 24.2843 58.0646 24.2839 58.0005 24.2826C57.9264 24.2839 57.8511 24.2843 57.7753 24.2843C57.7104 24.2843 57.6459 24.2839 57.5818 24.2826C57.5077 24.2839 57.4324 24.2843 57.3566 24.2843C57.2917 24.2843 57.2272 24.2839 57.1632 24.2826C57.089 24.2839 57.0137 24.2843 56.9379 24.2843C56.873 24.2843 56.8085 24.2839 56.7445 24.2826C56.6703 24.2839 56.595 24.2843 56.5192 24.2843C56.4543 24.2843 56.3898 24.2839 56.3258 24.2826C56.2516 24.2839 56.1763 24.2843 56.1005 24.2843C56.0356 24.2843 55.9711 24.2839 55.9071 24.2826C55.833 24.2839 55.7576 24.2843 55.6818 24.2843C55.6157 24.2843 55.5499 24.2839 55.4846 24.2826C55.4117 24.2839 55.3381 24.2843 55.2631 24.2843C54.3169 24.2843 53.4413 24.1738 52.6341 23.9649C52.4804 23.9862 52.3234 23.9975 52.1643 23.9975H45.999C45.5138 24.0809 44.9954 24.1248 44.4431 24.1248C44.3749 24.1248 44.3071 24.1244 44.2392 24.1227C44.1681 24.1244 44.0965 24.1248 44.0244 24.1248C43.9562 24.1248 43.8884 24.1244 43.8205 24.1227C43.7494 24.1244 43.6778 24.1248 43.6058 24.1248C43.5375 24.1248 43.4697 24.1244 43.4018 24.1227C43.3307 24.1244 43.2591 24.1248 43.1871 24.1248C43.1188 24.1248 43.051 24.1244 42.9832 24.1227C42.912 24.1244 42.8404 24.1248 42.7684 24.1248C42.7001 24.1248 42.6323 24.1244 42.5645 24.1227C42.4933 24.1244 42.4217 24.1248 42.3497 24.1248C42.2814 24.1248 42.2136 24.1244 42.1458 24.1227C42.0746 24.1244 42.003 24.1248 41.931 24.1248C41.8627 24.1248 41.7949 24.1244 41.7271 24.1227C41.6559 24.1244 41.5843 24.1248 41.5123 24.1248C41.444 24.1248 41.3762 24.1244 41.3084 24.1227C41.2372 24.1244 41.1656 24.1248 41.0936 24.1248C41.0253 24.1248 40.9575 24.1244 40.8897 24.1227C40.8436 24.1236 40.7976 24.1244 40.7511 24.1248V25.6501C40.7511 27.5003 39.2517 28.9997 37.4015 28.9997H26.0352C24.1854 28.9997 22.6856 27.5003 22.6856 25.6501V23.6282C22.5792 23.588 22.4741 23.5462 22.3695 23.5026C22.3573 23.4972 22.3448 23.4922 22.3326 23.4867C22.0412 23.3603 21.7603 23.2213 21.4902 23.0705C20.8839 23.6488 20.065 23.9975 19.1765 23.9975Z" fill="black"/>
<path fill-rule="evenodd" clip-rule="evenodd" d="M151.802 9.64408H153.81V12.4267H151.802V17.7366H153.831V20.647H147.002V17.7366H148.648V12.4267H146.981V9.64408H148.648V7.81731C148.648 7.17293 148.761 6.60644 148.988 6.11782C149.214 5.6292 149.515 5.21888 149.891 4.88601C150.273 4.55315 150.712 4.30193 151.207 4.13194C151.703 3.96195 152.224 3.87695 152.769 3.87695C153.172 3.87695 153.534 3.90877 153.852 3.97242C154.171 4.02936 154.45 4.10347 154.691 4.19558C154.932 4.28769 155.134 4.38693 155.296 4.49286C155.466 4.5992 155.601 4.69844 155.7 4.79013L154.479 7.03141C154.316 6.91083 154.132 6.81537 153.926 6.74461C153.721 6.67385 153.47 6.63826 153.172 6.63826C152.981 6.63826 152.801 6.67008 152.631 6.73372C152.468 6.79778 152.323 6.88947 152.195 7.01006C152.075 7.13022 151.98 7.28263 151.909 7.46686C151.838 7.64355 151.802 7.85248 151.802 8.09323V9.64408ZM6.94803 7.92359H5.02579L4.34583 10.9294H6.35348L5.60987 14.6889H4.0272L3.34766 17.6629H5.02579L4.44171 20.6474H8.0312L8.60481 17.6629H12.0247L11.4406 20.6474H14.9878L15.5615 17.6629H17.4623L18.1423 14.6889H16.1455L16.8783 10.9294H18.4927L19.1618 7.92359H17.4623L18.1209 4.54639H14.5947L13.9365 7.92359H10.4739L11.1325 4.54639H7.6171L6.94803 7.92359ZM12.6088 14.6889H9.17842L9.90068 10.9294H13.3415L12.6088 14.6889ZM28.317 22.7391H26.0338V25.6491H33.2132V22.7391H31.5774V9.31445H28.317V9.80307C27.9561 9.64732 27.5772 9.52715 27.1807 9.44216C26.7913 9.35716 26.3734 9.31445 25.9275 9.31445C25.0918 9.31445 24.3239 9.46686 23.6226 9.77125C22.9288 10.0685 22.3305 10.4793 21.828 11.0031C21.3323 11.5201 20.9429 12.1256 20.6595 12.8194C20.3835 13.5131 20.2454 14.253 20.2454 15.0393C20.2454 15.8461 20.3869 16.604 20.6703 17.312C20.9534 18.02 21.3465 18.6397 21.849 19.1706C22.3589 19.6944 22.9644 20.1089 23.6653 20.4133C24.3733 20.7105 25.1487 20.8592 25.9911 20.8592C26.3948 20.8592 26.7875 20.8026 27.1702 20.6892C27.5596 20.5833 27.9418 20.438 28.317 20.2537V22.7391ZM27.3929 17.6093C27.032 17.8077 26.6317 17.9065 26.1929 17.9065C25.8178 17.9065 25.4673 17.8429 25.1416 17.7156C24.8159 17.5879 24.529 17.4041 24.2812 17.1633C24.0404 16.9155 23.8495 16.6182 23.7076 16.2711C23.566 15.9169 23.4953 15.5204 23.4953 15.0816C23.4953 14.6495 23.566 14.2601 23.7076 13.9134C23.8495 13.5663 24.0404 13.269 24.2812 13.0212C24.5219 12.7733 24.8054 12.5824 25.1307 12.4476C25.4565 12.3132 25.7998 12.2457 26.1611 12.2457C26.5861 12.2457 26.9893 12.345 27.372 12.5434C27.7543 12.7415 28.0691 13.0141 28.317 13.3612V16.7702C28.0691 17.1244 27.7614 17.4041 27.3929 17.6093ZM41.4443 9.64404H46.6487V17.7366H47.976V20.647H43.3138V19.7124C42.9382 20.052 42.4994 20.3141 41.9966 20.4983C41.4941 20.6821 40.9134 20.7743 40.2548 20.7743C39.646 20.7743 39.0724 20.6788 38.5344 20.4874C37.9963 20.2965 37.5253 20.0097 37.1217 19.6274C36.7252 19.2381 36.4103 18.7528 36.1767 18.1721C35.9502 17.5917 35.8367 16.9084 35.8367 16.1225V12.554H34.4031V9.64404H39.2671V16.1225C39.2671 16.859 39.4547 17.4113 39.8302 17.7793C40.2054 18.1402 40.694 18.3211 41.2957 18.3211C41.7206 18.3211 42.1067 18.1901 42.4534 17.928C42.8005 17.6658 43.0517 17.312 43.2074 16.8657V12.554H41.4443V9.64404ZM52.4782 16.1654L52.4464 15.8363H60.5499C60.5641 15.6521 60.5679 15.4754 60.5608 15.3054C60.5608 15.1283 60.5499 14.9512 60.5289 14.7741C60.5076 13.9882 60.3732 13.2555 60.1253 12.5759C59.8774 11.8889 59.5232 11.2943 59.0631 10.7915C58.6029 10.2819 58.0364 9.88541 57.364 9.60195C56.6983 9.31179 55.9337 9.1665 55.07 9.1665C54.2062 9.1665 53.4203 9.31891 52.7119 9.6233C52.0039 9.92769 51.3951 10.3456 50.8855 10.8765C50.3755 11.4007 49.979 12.0166 49.696 12.7246C49.4197 13.4326 49.2815 14.19 49.2815 14.9973C49.2815 15.8045 49.4125 16.5691 49.6747 17.2913C49.9435 18.0136 50.3295 18.6437 50.8323 19.1817C51.3419 19.7197 51.9687 20.1485 52.7119 20.4671C53.4555 20.7786 54.305 20.9344 55.2609 20.9344C55.7709 20.9344 56.2168 20.9059 56.5991 20.8494C56.9817 20.7996 57.3427 20.7183 57.6826 20.6049C58.0222 20.4918 58.3588 20.3499 58.6913 20.1803C59.0313 20.0032 59.4031 19.7909 59.8067 19.5431L58.6385 17.3658C58.3764 17.4647 58.1181 17.5605 57.8631 17.6526C57.6081 17.7372 57.346 17.8155 57.0772 17.8863C56.808 17.9499 56.5283 18.0031 56.2381 18.0454C55.9551 18.081 55.6541 18.0986 55.3354 18.0986C55.0168 18.0986 54.7015 18.0596 54.39 17.9817C54.0785 17.8967 53.7955 17.7728 53.5405 17.6099C53.2855 17.4471 53.0627 17.2453 52.8714 17.0045C52.6872 16.7638 52.5561 16.4841 52.4782 16.1654ZM53.9655 11.9705C54.2485 11.8713 54.5885 11.8219 54.985 11.8219C55.3601 11.8219 55.6716 11.8713 55.9195 11.9705C56.1745 12.0626 56.3834 12.1899 56.5463 12.3528C56.7088 12.5157 56.8365 12.7032 56.9286 12.9155C57.0207 13.1282 57.0914 13.3547 57.1408 13.5955H52.5423C52.6059 13.3618 52.6943 13.1387 52.8078 12.9264C52.9208 12.7137 53.0732 12.5261 53.2646 12.3633C53.4555 12.1937 53.6891 12.0626 53.9655 11.9705ZM62.2074 9.64455H67.2414V10.6004C67.6944 10.2391 68.2044 9.95229 68.7709 9.74001C69.3374 9.52774 69.9215 9.42139 70.5231 9.42139C71.3584 9.42139 72.0736 9.57002 72.6685 9.8673C73.2702 10.1579 73.7412 10.6038 74.0812 11.2055C74.3148 10.9438 74.5765 10.7064 74.8671 10.4941C75.1644 10.2747 75.4792 10.0871 75.8121 9.93136C76.145 9.76849 76.4921 9.64455 76.853 9.55956C77.221 9.46744 77.5966 9.42139 77.9789 9.42139C79.3241 9.42139 80.3579 9.79319 81.0801 10.5364C81.8024 11.28 82.1633 12.3669 82.1633 13.7972V17.7371H83.7246V20.6475H78.7011V14.3386C78.7011 13.7155 78.5382 13.2269 78.2125 12.8731C77.8939 12.5189 77.4479 12.3422 76.8743 12.3422C76.4778 12.3422 76.1027 12.4377 75.7485 12.629C75.4014 12.8128 75.0547 13.1352 74.7076 13.5954C74.7147 13.6732 74.7185 13.7545 74.7185 13.8395V17.7371H76.3112V20.6475H71.2877V14.3176C71.2877 14.0199 71.2416 13.7511 71.1499 13.5104C71.0578 13.2696 70.9301 13.0645 70.7672 12.8945C70.6044 12.7245 70.4097 12.5934 70.1831 12.5013C69.9637 12.4021 69.7196 12.3493 69.4504 12.3422C69.0966 12.3351 68.7282 12.413 68.3459 12.5758C67.9707 12.7387 67.6094 13.0393 67.2627 13.4786V17.7371H69.0254V20.6475H62.186V17.7371H63.8215V12.5545H62.2074V9.64455ZM92.3062 12.5861C92.6818 12.7774 93.0213 13.0642 93.3261 13.4465H96.257V10.2498H94.1438C93.641 9.924 93.1101 9.67949 92.5507 9.51661C91.9913 9.35374 91.4144 9.28675 90.8194 9.3148C89.9841 9.28675 89.2087 9.4178 88.4935 9.70796C87.7855 9.99811 87.173 10.4055 86.6563 10.9293C86.1392 11.446 85.7322 12.0552 85.435 12.7561C85.1444 13.4498 84.9995 14.2039 84.9995 15.0183C84.9995 15.8393 85.141 16.6077 85.4241 17.3228C85.7146 18.0379 86.1145 18.6609 86.6245 19.1923C87.134 19.7232 87.7432 20.1444 88.4512 20.4559C89.1593 20.7603 89.9343 20.9127 90.7771 20.9127C91.6053 20.9127 92.3418 20.7888 92.9861 20.5409C93.6376 20.293 94.197 19.9815 94.6643 19.6064C95.1387 19.2241 95.5209 18.8029 95.8111 18.3423C96.1084 17.8822 96.3173 17.4396 96.4379 17.015L93.5171 16.2078C93.4321 16.3987 93.3119 16.6043 93.1561 16.8237C93.0075 17.036 92.8266 17.2307 92.6143 17.4078C92.4021 17.5778 92.1575 17.7193 91.8816 17.8328C91.6124 17.9387 91.3114 18.0061 90.9789 18.0346C90.5824 18.0061 90.214 17.9211 89.8744 17.7796C89.5415 17.6381 89.251 17.4434 89.0035 17.1955C88.7628 16.9405 88.5714 16.6395 88.4299 16.2928C88.2884 15.9457 88.2176 15.5777 88.2176 15.1883C88.2176 14.7491 88.2846 14.3563 88.419 14.0092C88.5538 13.6554 88.7414 13.3506 88.9821 13.096C89.23 12.8411 89.5202 12.6426 89.853 12.5011C90.193 12.3596 90.5682 12.303 90.9789 12.3311C91.4885 12.303 91.931 12.388 92.3062 12.5861ZM97.5312 15.1029C97.5312 14.3028 97.6765 13.5521 97.9667 12.8512C98.2573 12.1503 98.6609 11.5377 99.1776 11.0139C99.6947 10.4897 100.311 10.0756 101.026 9.77125C101.741 9.46686 102.527 9.31445 103.383 9.31445C104.24 9.31445 105.026 9.46686 105.741 9.77125C106.463 10.0756 107.083 10.4897 107.6 11.0139C108.117 11.5377 108.517 12.1503 108.8 12.8512C109.09 13.5521 109.235 14.3028 109.235 15.1029C109.235 15.9031 109.094 16.6571 108.811 17.3652C108.534 18.066 108.138 18.6819 107.621 19.2129C107.111 19.7371 106.495 20.1512 105.773 20.4555C105.058 20.7599 104.261 20.9123 103.383 20.9123C102.498 20.9123 101.695 20.7599 100.973 20.4555C100.257 20.1512 99.6448 19.7371 99.1353 19.2129C98.6253 18.6891 98.2288 18.0765 97.9458 17.3756C97.6694 16.6676 97.5312 15.9102 97.5312 15.1029ZM100.707 15.1029C100.707 15.5204 100.778 15.9064 100.919 16.2606C101.061 16.6073 101.252 16.9084 101.493 17.1633C101.741 17.4183 102.024 17.6164 102.342 17.7579C102.668 17.8994 103.015 17.9706 103.383 17.9706C103.759 17.9706 104.106 17.9032 104.424 17.7688C104.75 17.6268 105.03 17.4288 105.263 17.1738C105.504 16.9188 105.692 16.6182 105.826 16.2711C105.96 15.9169 106.028 15.5275 106.028 15.1029C106.028 14.6637 105.96 14.2672 105.826 13.9134C105.692 13.5592 105.504 13.2586 105.263 13.0107C105.03 12.7628 104.75 12.5753 104.424 12.4476C104.106 12.3132 103.759 12.2495 103.383 12.2566C103.015 12.2495 102.668 12.3132 102.342 12.4476C102.024 12.5753 101.741 12.7628 101.493 13.0107C101.252 13.2586 101.061 13.5592 100.919 13.9134C100.778 14.2672 100.707 14.6637 100.707 15.1029ZM117.849 13.648H120.833V9.66498C120.408 9.66498 119.948 9.66163 119.452 9.65451C118.957 9.64739 118.475 9.64404 118.008 9.64404C117.548 9.64404 117.123 9.71103 116.734 9.84585C116.344 9.98026 115.994 10.1716 115.682 10.4191V9.64404H110.786V12.554H112.411V17.7366H110.765V20.647H117.944V17.7366H115.703V13.754C115.753 13.5132 115.838 13.3114 115.958 13.1485C116.086 12.9857 116.238 12.8584 116.415 12.7663C116.599 12.6741 116.811 12.6105 117.052 12.5753C117.293 12.5326 117.558 12.5113 117.849 12.5113V13.648ZM132.621 13.648H129.637V12.5113C129.347 12.5113 129.081 12.5326 128.841 12.5753C128.6 12.6105 128.388 12.6741 128.203 12.7663C128.026 12.8584 127.874 12.9857 127.746 13.1485C127.626 13.3114 127.541 13.5132 127.492 13.754V17.7366H129.733V20.647H122.553V17.7366H124.199V12.554H122.574V9.64404H127.471V10.4191C127.782 10.1716 128.133 9.98026 128.522 9.84585C128.911 9.71103 129.336 9.64404 129.796 9.64404C130.264 9.64404 130.745 9.64739 131.241 9.65451C131.736 9.66163 132.197 9.66498 132.621 9.66498V13.648ZM137.316 16.1654L137.284 15.8363H145.388C145.402 15.6521 145.405 15.4754 145.398 15.3054C145.398 15.1283 145.388 14.9512 145.366 14.7741C145.345 13.9882 145.211 13.2555 144.963 12.5759C144.715 11.8889 144.361 11.2943 143.901 10.7915C143.441 10.2819 142.874 9.88541 142.201 9.60195C141.536 9.31179 140.771 9.1665 139.907 9.1665C139.044 9.1665 138.258 9.31891 137.55 9.6233C136.842 9.92769 136.233 10.3456 135.723 10.8765C135.213 11.4007 134.817 12.0166 134.533 12.7246C134.258 13.4326 134.119 14.19 134.119 14.9973C134.119 15.8045 134.25 16.5691 134.512 17.2913C134.781 18.0136 135.167 18.6437 135.67 19.1817C136.18 19.7197 136.806 20.1485 137.55 20.4671C138.293 20.7786 139.143 20.9344 140.099 20.9344C140.608 20.9344 141.055 20.9059 141.437 20.8494C141.819 20.7996 142.18 20.7183 142.52 20.6049C142.86 20.4918 143.196 20.3499 143.529 20.1803C143.869 20.0032 144.241 19.7909 144.644 19.5431L143.476 17.3658C143.214 17.4647 142.956 17.5605 142.701 17.6526C142.446 17.7372 142.184 17.8155 141.915 17.8863C141.646 17.9499 141.366 18.0031 141.076 18.0454C140.793 18.081 140.492 18.0986 140.173 18.0986C139.854 18.0986 139.539 18.0596 139.228 17.9817C138.916 17.8967 138.633 17.7728 138.378 17.6099C138.123 17.4471 137.9 17.2453 137.709 17.0045C137.525 16.7638 137.394 16.4841 137.316 16.1654ZM138.803 11.9705C139.086 11.8713 139.426 11.8219 139.822 11.8219C140.198 11.8219 140.51 11.8713 140.757 11.9705C141.012 12.0626 141.221 12.1899 141.384 12.3528C141.547 12.5157 141.674 12.7032 141.766 12.9155C141.858 13.1282 141.929 13.3547 141.978 13.5955H137.38C137.443 13.3618 137.532 13.1387 137.645 12.9264C137.759 12.7137 137.911 12.5261 138.102 12.3633C138.293 12.1937 138.527 12.0626 138.803 11.9705ZM161.775 20.4555C161.981 20.3425 162.207 20.2076 162.455 20.0519V20.6469H167.043V17.7365H165.567V13.7329C165.567 12.9395 165.447 12.2671 165.206 11.7148C164.972 11.1625 164.647 10.7166 164.229 10.3767C163.811 10.0296 163.309 9.78168 162.721 9.63305C162.14 9.47729 161.507 9.39941 160.82 9.39941C159.935 9.39941 159.096 9.53047 158.303 9.79257C157.517 10.0547 156.763 10.4332 156.04 10.9289L157.06 12.9893C157.527 12.7414 158.012 12.5539 158.515 12.4266C159.025 12.2918 159.612 12.2248 160.278 12.2248C160.597 12.2248 160.891 12.2566 161.159 12.3202C161.429 12.3768 161.658 12.4722 161.85 12.607C162.041 12.7343 162.19 12.9006 162.296 13.1061C162.402 13.3042 162.455 13.5416 162.455 13.8175V14.1575C162.101 14.0796 161.715 14.016 161.298 13.9666C160.887 13.9096 160.43 13.8816 159.928 13.8816C159.241 13.8816 158.628 13.9699 158.09 14.147C157.559 14.317 157.109 14.5578 156.741 14.8693C156.373 15.1737 156.09 15.5417 155.892 15.9738C155.7 16.4055 155.605 16.8765 155.605 17.3861C155.605 17.8889 155.7 18.3562 155.892 18.7883C156.083 19.2128 156.355 19.5846 156.71 19.9033C157.07 20.2148 157.51 20.4626 158.026 20.6469C158.551 20.8235 159.142 20.9123 159.8 20.9123C160.062 20.9123 160.303 20.8947 160.522 20.8591C160.742 20.8307 160.954 20.7813 161.159 20.7105C161.365 20.6469 161.57 20.5619 161.775 20.4555ZM161.404 18.1615C160.993 18.3243 160.536 18.406 160.034 18.406C159.552 18.406 159.191 18.2959 158.95 18.0765C158.717 17.8571 158.6 17.5845 158.6 17.2588C158.6 17.0817 158.636 16.9259 158.706 16.7915C158.784 16.6571 158.883 16.5436 159.004 16.4515C159.131 16.3594 159.273 16.2886 159.429 16.2392C159.584 16.1898 159.743 16.1647 159.906 16.1647H162.455V17.5669C162.165 17.8006 161.814 17.9986 161.404 18.1615ZM169.433 18.9052L173.989 12.469H171.854V14.1258H169.082V9.64404H178.726V11.5558L173.936 17.8007H176.378V15.6871H179.161V20.647H169.433V18.9052ZM187.477 20.4555C187.682 20.3425 187.909 20.2076 188.157 20.0519V20.6469H192.745V17.7365H191.268V13.7329C191.268 12.9395 191.148 12.2671 190.908 11.7148C190.674 11.1625 190.348 10.7166 189.93 10.3767C189.513 10.0296 189.01 9.78168 188.422 9.63305C187.842 9.47729 187.208 9.39941 186.521 9.39941C185.636 9.39941 184.797 9.53047 184.004 9.79257C183.218 10.0547 182.464 10.4332 181.742 10.9289L182.761 12.9893C183.229 12.7414 183.714 12.5539 184.216 12.4266C184.726 12.2918 185.314 12.2248 185.979 12.2248C186.298 12.2248 186.592 12.2566 186.861 12.3202C187.13 12.3768 187.36 12.4722 187.551 12.607C187.743 12.7343 187.891 12.9006 187.998 13.1061C188.104 13.3042 188.157 13.5416 188.157 13.8175V14.1575C187.803 14.0796 187.417 14.016 186.999 13.9666C186.589 13.9096 186.132 13.8816 185.629 13.8816C184.942 13.8816 184.33 13.9699 183.792 14.147C183.261 14.317 182.811 14.5578 182.443 14.8693C182.075 15.1737 181.792 15.5417 181.593 15.9738C181.402 16.4055 181.306 16.8765 181.306 17.3861C181.306 17.8889 181.402 18.3562 181.593 18.7883C181.785 19.2128 182.057 19.5846 182.411 19.9033C182.772 20.2148 183.211 20.4626 183.728 20.6469C184.252 20.8235 184.843 20.9123 185.502 20.9123C185.763 20.9123 186.004 20.8947 186.224 20.8591C186.443 20.8307 186.656 20.7813 186.861 20.7105C187.066 20.6469 187.272 20.5619 187.477 20.4555ZM187.105 18.1615C186.695 18.3243 186.238 18.406 185.735 18.406C185.254 18.406 184.893 18.2959 184.652 18.0765C184.418 17.8571 184.301 17.5845 184.301 17.2588C184.301 17.0817 184.337 16.9259 184.408 16.7915C184.486 16.6571 184.585 16.5436 184.705 16.4515C184.833 16.3594 184.974 16.2886 185.13 16.2392C185.286 16.1898 185.445 16.1647 185.608 16.1647H188.157V17.5669C187.867 17.8006 187.516 17.9986 187.105 18.1615ZM203.227 13.4465C202.923 13.0642 202.583 12.7774 202.208 12.5861C201.832 12.388 201.39 12.303 200.88 12.3311C200.47 12.303 200.094 12.3596 199.754 12.5011C199.422 12.6426 199.131 12.8411 198.884 13.096C198.643 13.3506 198.455 13.6554 198.32 14.0092C198.186 14.3563 198.119 14.7491 198.119 15.1883C198.119 15.5777 198.19 15.9457 198.331 16.2928C198.473 16.6395 198.664 16.9405 198.904 17.1955C199.152 17.4434 199.443 17.6381 199.775 17.7796C200.115 17.9211 200.484 18.0061 200.88 18.0346C201.213 18.0061 201.514 17.9387 201.783 17.8328C202.059 17.7193 202.303 17.5778 202.516 17.4078C202.728 17.2307 202.908 17.036 203.057 16.8237C203.213 16.6043 203.333 16.3987 203.418 16.2078L206.339 17.015C206.219 17.4396 206.01 17.8822 205.712 18.3423C205.422 18.8029 205.04 19.2241 204.565 19.6064C204.098 19.9815 203.539 20.293 202.888 20.5409C202.243 20.7888 201.507 20.9127 200.678 20.9127C199.836 20.9127 199.06 20.7603 198.352 20.4559C197.644 20.1444 197.035 19.7232 196.526 19.1923C196.016 18.6609 195.616 18.0379 195.325 17.3228C195.042 16.6077 194.901 15.8393 194.901 15.0183C194.901 14.2039 195.046 13.4498 195.336 12.7561C195.634 12.0552 196.041 11.446 196.558 10.9293C197.074 10.4055 197.687 9.99811 198.395 9.70796C199.11 9.4178 199.885 9.28675 200.721 9.3148C201.316 9.28675 201.893 9.35374 202.452 9.51661C203.011 9.67949 203.542 9.924 204.045 10.2498H206.158V13.4465H203.227ZM207.869 12.8512C207.579 13.5521 207.433 14.3028 207.433 15.1029C207.433 15.9102 207.572 16.6676 207.847 17.3756C208.131 18.0765 208.527 18.6891 209.037 19.2129C209.547 19.7371 210.159 20.1512 210.875 20.4555C211.597 20.7599 212.4 20.9123 213.285 20.9123C214.163 20.9123 214.96 20.7599 215.675 20.4555C216.397 20.1512 217.013 19.7371 217.523 19.2129C218.04 18.6819 218.436 18.066 218.713 17.3652C218.996 16.6571 219.137 15.9031 219.137 15.1029C219.137 14.3028 218.992 13.5521 218.702 12.8512C218.419 12.1503 218.019 11.5377 217.502 11.0139C216.985 10.4897 216.365 10.0756 215.643 9.77125C214.928 9.46686 214.142 9.31445 213.285 9.31445C212.429 9.31445 211.643 9.46686 210.928 9.77125C210.213 10.0756 209.596 10.4897 209.08 11.0139C208.563 11.5377 208.159 12.1503 207.869 12.8512ZM210.821 16.2606C210.68 15.9064 210.609 15.5204 210.609 15.1029C210.609 14.6637 210.68 14.2672 210.821 13.9134C210.963 13.5592 211.154 13.2586 211.395 13.0107C211.643 12.7628 211.926 12.5753 212.245 12.4476C212.57 12.3132 212.917 12.2495 213.285 12.2566C213.661 12.2495 214.008 12.3132 214.326 12.4476C214.652 12.5753 214.932 12.7628 215.165 13.0107C215.406 13.2586 215.594 13.5592 215.728 13.9134C215.863 14.2672 215.93 14.6637 215.93 15.1029C215.93 15.5275 215.863 15.9169 215.728 16.2711C215.594 16.6182 215.406 16.9188 215.165 17.1738C214.932 17.4288 214.652 17.6268 214.326 17.7688C214.008 17.9032 213.661 17.9706 213.285 17.9706C212.917 17.9706 212.57 17.8994 212.245 17.7579C211.926 17.6164 211.643 17.4183 211.395 17.1633C211.154 16.9084 210.963 16.6073 210.821 16.2606ZM229.8 14.3168C229.8 13.7005 229.637 13.2194 229.311 12.8723C228.985 12.5181 228.553 12.3414 228.015 12.3414C227.647 12.3414 227.276 12.4226 226.9 12.5855C226.525 12.7483 226.161 13.0527 225.806 13.4991V17.7363H227.591V20.6466H220.751V17.7363H222.365V12.5536H220.772V9.64371H225.785V10.6101C226.246 10.2491 226.759 9.96568 227.325 9.76052C227.899 9.54782 228.501 9.44189 229.131 9.44189C230.455 9.44189 231.474 9.8137 232.189 10.5569C232.904 11.2934 233.262 12.3732 233.262 13.7963V17.7363H234.823V20.6466H229.8V14.3168ZM242.608 9.64428H240.409L240.431 5.43848L237.128 7.01026L237.106 9.64428H235.514V12.4269H237.096L237.064 17.3014C237.057 17.9035 237.142 18.431 237.319 18.8841C237.496 19.3371 237.733 19.716 238.03 20.0204C238.328 20.3177 238.671 20.5409 239.061 20.6895C239.457 20.8381 239.871 20.9127 240.304 20.9127C240.912 20.9127 241.436 20.8453 241.875 20.7108C242.321 20.5764 242.725 20.3956 243.086 20.1691L242.629 18.1195C242.424 18.1903 242.219 18.2539 242.013 18.3105C241.808 18.3603 241.571 18.385 241.302 18.385C241.153 18.385 241.022 18.3674 240.909 18.3318C240.796 18.2962 240.696 18.2292 240.611 18.13C240.533 18.0308 240.473 17.8997 240.431 17.7368C240.388 17.5673 240.367 17.3475 240.367 17.0787L240.389 12.4269H242.608V9.64428ZM247.61 15.8363L247.642 16.1654C247.72 16.4841 247.851 16.7638 248.035 17.0045C248.226 17.2453 248.45 17.4471 248.705 17.6099C248.96 17.7728 249.243 17.8967 249.554 17.9817C249.866 18.0596 250.181 18.0986 250.499 18.0986C250.818 18.0986 251.119 18.081 251.402 18.0454C251.692 18.0031 251.972 17.9499 252.241 17.8863C252.51 17.8155 252.772 17.7372 253.027 17.6526C253.282 17.5605 253.54 17.4647 253.803 17.3658L254.971 19.5431C254.567 19.7909 254.195 20.0032 253.855 20.1803C253.523 20.3499 253.186 20.4918 252.847 20.6049C252.507 20.7183 252.145 20.7996 251.763 20.8494C251.381 20.9059 250.935 20.9344 250.425 20.9344C249.469 20.9344 248.62 20.7786 247.876 20.4671C247.133 20.1485 246.506 19.7197 245.996 19.1817C245.494 18.6437 245.107 18.0136 244.839 17.2913C244.577 16.5691 244.446 15.8045 244.446 14.9973C244.446 14.19 244.584 13.4326 244.86 12.7246C245.143 12.0166 245.54 11.4007 246.049 10.8765C246.559 10.3456 247.168 9.92769 247.876 9.6233C248.584 9.31891 249.37 9.1665 250.234 9.1665C251.098 9.1665 251.862 9.31179 252.528 9.60195C253.2 9.88541 253.767 10.2819 254.227 10.7915C254.687 11.2943 255.042 11.8889 255.289 12.5759C255.537 13.2555 255.672 13.9882 255.693 14.7741C255.714 14.9512 255.725 15.1283 255.725 15.3054C255.732 15.4754 255.728 15.6521 255.714 15.8363H247.61ZM250.149 11.8219C249.753 11.8219 249.413 11.8713 249.13 11.9705C248.853 12.0626 248.62 12.1937 248.428 12.3633C248.237 12.5261 248.085 12.7137 247.972 12.9264C247.858 13.1387 247.77 13.3618 247.706 13.5955H252.305C252.255 13.3547 252.184 13.1282 252.093 12.9155C252.001 12.7032 251.873 12.5157 251.71 12.3528C251.547 12.1899 251.339 12.0626 251.084 11.9705C250.836 11.8713 250.524 11.8219 250.149 11.8219ZM264.572 12.5861C264.947 12.7774 265.287 13.0642 265.592 13.4465H268.523V10.2498H266.409C265.907 9.924 265.376 9.67949 264.816 9.51661C264.257 9.35374 263.68 9.28675 263.085 9.3148C262.25 9.28675 261.474 9.4178 260.759 9.70796C260.051 9.99811 259.439 10.4055 258.922 10.9293C258.405 11.446 257.998 12.0552 257.701 12.7561C257.41 13.4498 257.265 14.2039 257.265 15.0183C257.265 15.8393 257.407 16.6077 257.69 17.3228C257.98 18.0379 258.38 18.6609 258.89 19.1923C259.4 19.7232 260.009 20.1444 260.717 20.4559C261.425 20.7603 262.2 20.9127 263.043 20.9127C263.871 20.9127 264.607 20.7888 265.252 20.5409C265.903 20.293 266.463 19.9815 266.93 19.6064C267.404 19.2241 267.787 18.8029 268.077 18.3423C268.374 17.8822 268.583 17.4396 268.703 17.015L265.783 16.2078C265.698 16.3987 265.578 16.6043 265.422 16.8237C265.273 17.036 265.092 17.2307 264.88 17.4078C264.668 17.5778 264.423 17.7193 264.147 17.8328C263.878 17.9387 263.577 18.0061 263.245 18.0346C262.848 18.0061 262.48 17.9211 262.14 17.7796C261.807 17.6381 261.517 17.4434 261.269 17.1955C261.028 16.9405 260.837 16.6395 260.696 16.2928C260.554 15.9457 260.483 15.5777 260.483 15.1883C260.483 14.7491 260.55 14.3563 260.685 14.0092C260.819 13.6554 261.007 13.3506 261.248 13.096C261.496 12.8411 261.786 12.6426 262.119 12.5011C262.459 12.3596 262.834 12.303 263.245 12.3311C263.754 12.303 264.197 12.388 264.572 12.5861ZM272.739 15.8363L272.771 16.1654C272.849 16.4841 272.98 16.7638 273.164 17.0045C273.355 17.2453 273.578 17.4471 273.833 17.6099C274.088 17.7728 274.371 17.8967 274.683 17.9817C274.994 18.0596 275.309 18.0986 275.628 18.0986C275.946 18.0986 276.247 18.081 276.53 18.0454C276.821 18.0031 277.101 17.9499 277.37 17.8863C277.639 17.8155 277.901 17.7372 278.155 17.6526C278.41 17.5605 278.669 17.4647 278.931 17.3658L280.099 19.5431C279.695 19.7909 279.324 20.0032 278.984 20.1803C278.651 20.3499 278.315 20.4918 277.975 20.6049C277.635 20.7183 277.274 20.7996 276.892 20.8494C276.509 20.9059 276.063 20.9344 275.554 20.9344C274.598 20.9344 273.748 20.7786 273.005 20.4671C272.261 20.1485 271.635 19.7197 271.125 19.1817C270.622 18.6437 270.236 18.0136 269.967 17.2913C269.705 16.5691 269.574 15.8045 269.574 14.9973C269.574 14.19 269.712 13.4326 269.988 12.7246C270.272 12.0166 270.668 11.4007 271.178 10.8765C271.688 10.3456 272.297 9.92769 273.005 9.6233C273.713 9.31891 274.499 9.1665 275.362 9.1665C276.226 9.1665 276.991 9.31179 277.656 9.60195C278.329 9.88541 278.896 10.2819 279.356 10.7915C279.816 11.2943 280.17 11.8889 280.418 12.5759C280.665 13.2555 280.8 13.9882 280.821 14.7741C280.843 14.9512 280.853 15.1283 280.853 15.3054C280.86 15.4754 280.857 15.6521 280.843 15.8363H272.739ZM275.277 11.8219C274.881 11.8219 274.541 11.8713 274.258 11.9705C273.982 12.0626 273.748 12.1937 273.557 12.3633C273.366 12.5261 273.214 12.7137 273.1 12.9264C272.987 13.1387 272.898 13.3618 272.835 13.5955H277.434C277.384 13.3547 277.313 13.1282 277.221 12.9155C277.129 12.7032 277.001 12.5157 276.839 12.3528C276.676 12.1899 276.467 12.0626 276.212 11.9705C275.964 11.8713 275.653 11.8219 275.277 11.8219ZM289.477 13.648H292.461V9.66498C292.037 9.66498 291.576 9.66163 291.081 9.65451C290.585 9.64739 290.104 9.64404 289.637 9.64404C289.176 9.64404 288.751 9.71103 288.362 9.84585C287.973 9.98026 287.622 10.1716 287.311 10.4191V9.64404H282.414V12.554H284.039V17.7366H282.393V20.647H289.573V17.7366H287.332V13.754C287.381 13.5132 287.466 13.3114 287.587 13.1485C287.714 12.9857 287.866 12.8584 288.043 12.7663C288.228 12.6741 288.44 12.6105 288.681 12.5753C288.921 12.5326 289.187 12.5113 289.477 12.5113V13.648Z" fill="white"/>
</svg>
