<svg width="39" height="34" viewBox="0 0 39 34" fill="none" xmlns="http://www.w3.org/2000/svg">
<path d="M22.5 1C20.567 1 19 2.567 19 4.5V6H6.44989C3.44 6 1 8.44 1 11.4499V27.5501C1 30.56 3.44 33 6.44989 33H27.5501C30.56 33 33 30.56 33 27.5501V15H34.5C36.433 15 38 13.433 38 11.5V9.5C38 7.567 36.433 6 34.5 6H33V4.5C33 2.567 31.433 1 29.5 1H22.5Z" fill="black" stroke="white" stroke-width="2" stroke-linejoin="round"/>
<path fill-rule="evenodd" clip-rule="evenodd" d="M22 16.5C22 16.7761 22.2239 17 22.5 17H24.5C24.7761 17 25 16.7761 25 16.5V12.5C25 12.2239 25.2239 12 25.5 12H29.5C29.7761 12 30 11.7761 30 11.5V9.5C30 9.22386 29.7761 9 29.5 9H25.5C25.2239 9 25 8.77614 25 8.5V4.5C25 4.22386 24.7761 4 24.5 4H22.5C22.2239 4 22 4.22386 22 4.5V8.5C22 8.77614 21.7761 9 21.5 9L17.5 9C17.2239 9 17 9.22386 17 9.5V11.5C17 11.7761 17.2239 12 17.5 12H21.5C21.7761 12 22 12.2239 22 12.5V16.5ZM17.4995 14C16.1188 14 14.9995 12.8807 14.9995 11.5V9.5C14.9995 9.32868 15.0167 9.16139 15.0496 8.99976H6.44989C5.09685 8.99976 4 10.0966 4 11.4496V27.5499C4 28.9029 5.09685 29.9998 6.44989 29.9998H22.5501C23.9031 29.9998 25 28.9029 25 27.5499V18.9499C24.8383 18.9827 24.6709 19 24.4995 19H22.4995C21.1188 19 19.9995 17.8807 19.9995 16.5V14H17.4995ZM14.5 18.175C14.5 19.2727 13.6102 20.1625 12.5125 20.1625C11.4148 20.1625 10.525 19.2727 10.525 18.175C10.525 17.0773 11.4148 16.1875 12.5125 16.1875C13.6102 16.1875 14.5 17.0773 14.5 18.175ZM18.52 21.2074C18.7062 21.1958 18.8874 21.2697 19.0125 21.4081L23.0703 25.9007C23.172 26.0133 23.2282 26.1596 23.2282 26.3113V27.6156C23.2282 27.9538 22.954 28.2281 22.6158 28.2281H6.38443C6.12812 28.2281 5.89892 28.0685 5.81 27.8281C5.72107 27.5877 5.79123 27.3174 5.98583 27.1506L10.0437 23.6724C10.273 23.4758 10.6115 23.4758 10.8409 23.6724L14.3858 26.7109L18.0562 21.4674C18.1631 21.3146 18.3339 21.2189 18.52 21.2074Z" fill="white"/>
</svg>
