<svg width="36" height="30" viewBox="0 0 36 30" fill="none" xmlns="http://www.w3.org/2000/svg">
<path d="M21 0C19.6193 0 18.5 1.11929 18.5 2.5V5H4.94989C2.49228 5 0.5 6.99228 0.5 9.44989V25.5501C0.5 28.0077 2.49228 30 4.94989 30H26.0501C28.5077 30 30.5 28.0077 30.5 25.5501V12H33C34.3807 12 35.5 10.8807 35.5 9.5V7.5C35.5 6.11929 34.3807 5 33 5H30.5V2.5C30.5 1.11929 29.3807 0 28 0H21Z" fill="black"/>
<path fill-rule="evenodd" clip-rule="evenodd" d="M20.4998 14.5C20.4998 14.7761 20.7236 15 20.9998 15H22.9998C23.2759 15 23.4998 14.7761 23.4998 14.5V10.5C23.4998 10.2239 23.7236 10 23.9998 10H27.9998C28.2759 10 28.4998 9.77614 28.4998 9.5V7.5C28.4998 7.22386 28.2759 7 27.9998 7H23.9998C23.7236 7 23.4998 6.77614 23.4998 6.5V2.5C23.4998 2.22386 23.2759 2 22.9998 2H20.9998C20.7236 2 20.4998 2.22386 20.4998 2.5V6.5C20.4998 6.77614 20.2759 7 19.9998 7L15.9998 7C15.7236 7 15.4998 7.22386 15.4998 7.5V9.5C15.4998 9.77614 15.7236 10 15.9998 10H19.9998C20.2759 10 20.4998 10.2239 20.4998 10.5V14.5ZM15.9993 12C14.6186 12 13.4993 10.8807 13.4993 9.5V7.5C13.4993 7.32868 13.5165 7.16139 13.5493 6.99976H4.94965C3.59661 6.99976 2.49976 8.09661 2.49976 9.44965V25.5499C2.49976 26.9029 3.59661 27.9998 4.94965 27.9998H21.0499C22.4029 27.9998 23.4998 26.9029 23.4998 25.5499V16.9499C23.338 16.9828 23.1707 17 22.9993 17H20.9993C19.6186 17 18.4993 15.8807 18.4993 14.5V12H15.9993ZM12.9997 16.175C12.9997 17.2727 12.1099 18.1625 11.0122 18.1625C9.91456 18.1625 9.02472 17.2727 9.02472 16.175C9.02472 15.0773 9.91456 14.1875 11.0122 14.1875C12.1099 14.1875 12.9997 15.0773 12.9997 16.175ZM17.0198 19.2074C17.2059 19.1958 17.3872 19.2697 17.5122 19.4081L21.57 23.9007C21.6717 24.0133 21.728 24.1596 21.728 24.3113V25.6156C21.728 25.9538 21.4538 26.2281 21.1155 26.2281H4.88418C4.62788 26.2281 4.39868 26.0685 4.30975 25.8281C4.22083 25.5877 4.29099 25.3174 4.48559 25.1506L8.54343 21.6724C8.77279 21.4758 9.11125 21.4758 9.34061 21.6724L12.8855 24.7109L16.5559 19.4674C16.6629 19.3146 16.8336 19.2189 17.0198 19.2074Z" fill="white"/>
</svg>
