<svg width="18" height="21" viewBox="0 0 18 21" fill="none" xmlns="http://www.w3.org/2000/svg">
<path d="M14.2268 0.393454C13.9776 0.143406 13.6396 0.00292969 13.2872 0.00292969C13.2314 0.00292969 13.1759 0.00645482 13.1211 0.0133822C13.0663 0.00645482 13.0109 0.00292969 12.955 0.00292969C12.8992 0.00292969 12.8438 0.00645482 12.789 0.0133822C12.7342 0.00645482 12.6787 0.00292969 12.6229 0.00292969C12.567 0.00292969 12.5116 0.00645482 12.4568 0.0133822C12.402 0.00645482 12.3465 0.00292969 12.2907 0.00292969C12.2349 0.00292969 12.1794 0.00645482 12.1246 0.0133822C12.0698 0.00645482 12.0143 0.00292969 11.9585 0.00292969C11.9027 0.00292969 11.8472 0.00645482 11.7924 0.0133822C11.7376 0.00645482 11.6821 0.00292969 11.6263 0.00292969C11.5705 0.00292969 11.515 0.00645483 11.4602 0.0133823C11.4054 0.00645483 11.3499 0.00292969 11.2941 0.00292969C11.2383 0.00292969 11.1828 0.00645483 11.128 0.0133823C11.0732 0.00645483 11.0178 0.00292969 10.9619 0.00292969C10.9061 0.00292969 10.8507 0.00645483 10.7958 0.0133823C10.741 0.00645483 10.6856 0.00292969 10.6298 0.00292969C10.5739 0.00292969 10.5185 0.00645483 10.4637 0.0133823C10.4089 0.00645483 10.3534 0.00292969 10.2976 0.00292969C10.2417 0.00292969 10.1863 0.00645483 10.1315 0.0133823C10.0767 0.00645483 10.0212 0.00292969 9.96538 0.00292969C9.61298 0.00292969 9.27501 0.143405 9.02582 0.393454L0.389015 9.06012C0.139828 9.31017 -0.000164032 9.64931 -0.000164032 10.0029C-0.000164032 10.3566 0.139828 10.6957 0.389015 10.9457L9.02582 19.6124C9.32761 19.9152 9.73843 20.0419 10.1315 19.9925C10.2417 20.0064 10.3534 20.0064 10.4637 19.9925C10.5739 20.0064 10.6856 20.0064 10.7958 19.9925C10.9061 20.0064 11.0178 20.0064 11.128 19.9925C11.2383 20.0064 11.3499 20.0064 11.4602 19.9925C11.5705 20.0064 11.6821 20.0064 11.7924 19.9925C11.9027 20.0064 12.0143 20.0064 12.1246 19.9925C12.2348 20.0064 12.3465 20.0064 12.4568 19.9925C12.567 20.0064 12.6787 20.0064 12.789 19.9925C12.8992 20.0064 13.0109 20.0064 13.1211 19.9925C13.5142 20.0419 13.925 19.9152 14.2268 19.6124L16.2773 17.5548C16.5265 17.3047 16.6665 16.9656 16.6665 16.612C16.6665 16.2584 16.5265 15.9192 16.2773 15.6692L10.6306 10.0029L16.2773 4.33669C16.7962 3.81599 16.7962 2.97177 16.2773 2.45107L14.2268 0.393454Z" fill="black"/>
<path d="M11.9997 3.39356L9.95311 1.33594L1.33301 10.0026L9.95311 18.6693L11.9997 16.6117L5.42613 10.0026L11.9997 3.39356Z" fill="white"/>
</svg>
