<svg width="19" height="15" viewBox="0 0 19 15" fill="none" xmlns="http://www.w3.org/2000/svg">
<path d="M2.83727 3.00342C2.28596 3.00333 1.73462 3.21036 1.31189 3.62451C0.451699 4.46725 0.4517 5.84484 1.31189 6.68759L7.46692 12.7177C7.66132 12.9082 7.91404 13.0034 8.16675 13.0034C8.99968 13.0034 9.83115 13.0012 10.6641 13.0034C10.9177 13.0041 11.1715 12.9089 11.3666 12.7177L17.5216 6.68758C18.3818 5.84484 18.3818 4.46725 17.5216 3.62451C17.099 3.21045 16.5478 3.00342 15.9966 3.00342C15.162 3.00342 14.3275 3.00204 13.4929 3.00342C12.9429 3.00434 12.3932 3.21137 11.9715 3.62451L9.41675 6.12747L6.86195 3.62451C6.44501 3.21603 5.90294 3.00903 5.35919 3.00353C4.51888 2.99503 3.67764 3.00355 2.83727 3.00342Z" fill="black"/>
<path d="M3.66213 4.33882C3.20566 3.89162 2.46818 3.89162 2.01172 4.33882C1.55176 4.78945 1.55176 5.52264 2.01172 5.97327L8.16675 12.0034L14.3218 5.97326C14.7817 5.52264 14.7817 4.78945 14.3218 4.33882C13.8653 3.89162 13.1278 3.89162 12.6714 4.33882L8.16675 8.75205L3.66213 4.33882Z" fill="white"/>
</svg>
