<svg width="168" height="31" viewBox="0 0 168 31" fill="none" xmlns="http://www.w3.org/2000/svg">
<path d="M19.1713 3.10742C19.7805 3.12695 20.3689 2.88476 20.7852 2.43946C21.9188 1.22461 23.4231 0.574219 24.9502 0.5H30.4502C30.938 0.515625 31.4245 0.589844 31.8979 0.722656C32.9395 1.01367 33.9188 1.58594 34.7152 2.43946C35.0846 2.83399 35.5897 3.07031 36.1246 3.10352L36.2801 3.10742H36.329C39.8647 2.98828 42.7628 5.88673 42.6434 9.42189C42.6227 10.0313 42.8665 10.6192 43.3119 11.0352C45.8965 13.4512 45.8965 17.5488 43.3119 19.9649C42.8665 20.3808 42.6227 20.9708 42.6434 21.5801C42.7626 25.1075 39.8759 28.002 36.3497 27.8925C36.3428 27.8925 36.3359 27.8925 36.329 27.8925H36.2801L36.1246 27.8966C35.912 27.9102 35.7043 27.9551 35.5079 28.0293C35.4295 28.0586 35.3527 28.0938 35.2783 28.1328C35.1446 28.2032 35.0164 28.2891 34.8997 28.3868C34.835 28.4414 34.7734 28.5 34.7152 28.5626C33.5596 29.7989 32.0077 30.4454 30.4502 30.5C28.6169 30.5 26.7836 30.5 24.9502 30.5C24.4318 30.4727 23.9167 30.379 23.4172 30.2207C22.4449 29.916 21.5341 29.3633 20.7852 28.5626C20.447 28.2012 19.9951 27.9707 19.5108 27.9083C19.399 27.8945 19.2855 27.8886 19.1713 27.8925C18.9503 27.9005 18.7318 27.8966 18.5164 27.8808C15.2852 27.6485 12.7449 24.8945 12.8569 21.5801C12.8775 20.9708 12.6338 20.3808 12.1884 19.9649C9.60386 17.5488 9.60386 13.4512 12.1884 11.0352C12.6338 10.6192 12.8775 10.0313 12.8569 9.42189C12.7374 5.88673 15.6357 2.98828 19.1713 3.10742Z" fill="black"/>
<path fill-rule="evenodd" clip-rule="evenodd" d="M28.2549 3.80503C26.6298 2.06629 23.8724 2.06629 22.2473 3.80503C21.4368 4.67224 20.291 5.14683 19.1047 5.10675C16.7261 5.02637 14.7764 6.9761 14.8568 9.35467C14.8969 10.541 14.4223 11.6868 13.555 12.4973C11.8163 14.1223 11.8163 16.8797 13.555 18.5048C14.4223 19.3152 14.8969 20.4609 14.8568 21.6473C14.7764 24.0258 16.7261 25.9757 19.1047 25.8953C20.291 25.8551 21.4368 26.3297 22.2473 27.197C23.8724 28.9356 26.6298 28.9356 28.2549 27.197C29.0653 26.3297 30.2112 25.8551 31.3975 25.8953C33.7761 25.9757 35.7258 24.0258 35.6454 21.6473C35.6053 20.4609 36.0799 19.3152 36.9471 18.5048C38.6859 16.8797 38.6859 14.1223 36.9471 12.4973C36.0799 11.6868 35.6053 10.541 35.6454 9.35467C35.7258 6.9761 33.7761 5.02637 31.3975 5.10675C30.2112 5.14683 29.0653 4.67224 28.2549 3.80503ZM26.0631 25.1484C26.9346 24.216 28.0302 23.546 29.2273 23.1891V20.3543C29.2273 20.1176 29.4192 19.9257 29.6559 19.9257C29.8926 19.9257 30.0844 20.1176 30.0844 20.3543V22.9904C30.5478 22.9128 31.0213 22.8807 31.4988 22.8969C32.1418 22.9187 32.6688 22.3916 32.647 21.7485C32.6395 21.5246 32.6425 21.3014 32.6559 21.0797V20.7828C32.6559 18.8892 31.1209 17.3543 29.2273 17.3543H22.3702C21.4234 17.3543 20.6559 16.5867 20.6559 15.6399V11.7828C20.6559 11.0727 20.0803 10.4971 19.3702 10.4971C18.6601 10.4971 18.0845 11.0727 18.0845 11.7828V15.6399C18.0845 17.8118 19.6999 19.6062 21.7947 19.8873C22.1105 19.9298 22.3702 20.184 22.3702 20.5026V23.6171C23.1388 23.9933 23.8416 24.5091 24.439 25.1484C24.8783 25.6184 25.6237 25.6184 26.0631 25.1484ZM25.7988 10.4971C27.219 10.4971 28.3702 11.6484 28.3702 13.0685C28.3702 14.4887 27.219 15.6399 25.7988 15.6399C24.3786 15.6399 23.2273 14.4887 23.2273 13.0685C23.2273 11.6484 24.3786 10.4971 25.7988 10.4971Z" fill="white"/>
<path fill-rule="evenodd" clip-rule="evenodd" d="M87.75 10.3039C87.75 8.76434 89.4167 7.8021 90.75 8.5719L99.75 13.768C101.083 14.5378 101.083 16.4623 99.75 17.2322L90.75 22.4283C89.4167 23.1981 87.75 22.2358 87.75 20.6962V17.0001H66.75C65.9216 17.0001 65.25 16.3285 65.25 15.5001C65.25 14.6717 65.9216 14.0001 66.75 14.0001H87.75V10.3039Z" fill="black"/>
<path d="M143.023 6.81555C143.023 7.01439 143.052 7.20645 143.107 7.38773L137.721 13.2746C137.467 12.462 136.708 11.8723 135.812 11.8723H121.75C120.646 11.8723 119.75 12.7677 119.75 13.8723V18.1879C119.75 19.2924 120.646 20.1879 121.75 20.1879H123.215L126.333 23.5889C126.276 23.7752 126.245 23.973 126.245 24.1781V28.4936C126.245 28.9114 126.373 29.2992 126.592 29.62C126.952 30.151 127.56 30.5 128.25 30.5H142.311C143.416 30.5 144.312 29.6046 144.312 28.5V24.1845C144.312 23.9711 144.278 23.7656 144.216 23.5728L157.626 8.81555H159.25C160.354 8.81555 161.25 7.92012 161.25 6.81555V2.5C161.25 1.39543 160.354 0.5 159.25 0.5H145.024C143.919 0.5 143.023 1.39543 143.023 2.5V6.81555Z" fill="black"/>
<path d="M137.307 24.1781H135.963L151.741 6.81555H154.25V2.5H145.024V6.81555H146.341L132.75 21.6721L129.494 18.1879H130.811V13.8723H121.75V18.1879H124.094L129.587 24.1781H128.245V28.4936H128.25V28.5H137.311V24.1845H137.307V24.1781Z" fill="white"/>
</svg>
