<svg width="27" height="21" viewBox="0 0 27 21" fill="none" xmlns="http://www.w3.org/2000/svg">
<path d="M26.3166 10.2416C25.7824 9.63216 24.9883 9.31239 24.1882 9.36354C24.0776 9.35649 23.9663 9.35641 23.8548 9.36354C23.7443 9.35649 23.633 9.35641 23.5215 9.36354C23.4522 9.35911 23.3826 9.35744 23.3128 9.35856C23.2939 9.06318 23.2622 8.77102 23.2182 8.48267C23.1227 7.85805 22.9694 7.25211 22.7639 6.67069C22.2612 5.24841 21.4469 3.97538 20.4044 2.93284C18.5962 1.12465 16.0944 0.00390625 13.3333 0.00390625C13.2777 0.00390625 13.2221 0.00436192 13.1667 0.00526997C13.1112 0.00436201 13.0557 0.00390625 13 0.00390625C12.9443 0.00390625 12.8888 0.00436192 12.8334 0.00526997C12.7779 0.00436201 12.7223 0.00390625 12.6666 0.00390625C12.611 0.00390625 12.5555 0.00436192 12.5 0.00526997C12.4446 0.00436201 12.389 0.00390625 12.3333 0.00390625C12.2777 0.00390625 12.2221 0.00436192 12.1667 0.00526997C12.1112 0.00436201 12.0557 0.00390625 12 0.00390625C11.9443 0.00390625 11.8888 0.00436192 11.8334 0.00526997C11.7779 0.00436201 11.7223 0.00390625 11.6666 0.00390625C11.611 0.00390625 11.5555 0.00436192 11.5 0.00526997C11.4446 0.00436201 11.389 0.00390625 11.3333 0.00390625C11.2777 0.00390625 11.2221 0.00436192 11.1667 0.00526997C11.1112 0.00436201 11.0557 0.00390625 11 0.00390625C10.9443 0.00390625 10.8888 0.00436192 10.8334 0.00526997C10.7779 0.00436201 10.7223 0.00390625 10.6666 0.00390625C10.611 0.00390625 10.5555 0.00436192 10.5 0.00526997C10.4446 0.00436201 10.389 0.00390625 10.3333 0.00390625C10.2777 0.00390625 10.2221 0.00436192 10.1667 0.00526997C10.1112 0.00436201 10.0557 0.00390625 9.99998 0.00390625C9.31137 0.00390625 8.63768 0.0737062 7.98604 0.20705C3.42867 1.13962 -2.28882e-05 5.16986 -2.28882e-05 10.0039C-2.28882e-05 15.5268 4.47713 20.0039 9.99998 20.0039C10.0555 20.0039 10.111 20.0035 10.1664 20.0025C10.2219 20.0035 10.2776 20.0039 10.3333 20.0039C10.3889 20.0039 10.4444 20.0035 10.4997 20.0025C10.5553 20.0035 10.6109 20.0039 10.6666 20.0039C10.7222 20.0039 10.7777 20.0035 10.8331 20.0025C10.8886 20.0035 10.9442 20.0039 11 20.0039C11.0555 20.0039 11.111 20.0035 11.1664 20.0025C11.2219 20.0035 11.2776 20.0039 11.3333 20.0039C11.3889 20.0039 11.4444 20.0035 11.4997 20.0025C11.5553 20.0035 11.6109 20.0039 11.6666 20.0039C11.7222 20.0039 11.7777 20.0035 11.8331 20.0025C11.8886 20.0035 11.9442 20.0039 12 20.0039C12.0555 20.0039 12.111 20.0035 12.1664 20.0025C12.2219 20.0035 12.2776 20.0039 12.3333 20.0039C12.3889 20.0039 12.4444 20.0035 12.4997 20.0025C12.5553 20.0035 12.6109 20.0039 12.6666 20.0039C12.7222 20.0039 12.7777 20.0035 12.8331 20.0025C12.8886 20.0035 12.9442 20.0039 13 20.0039C13.0555 20.0039 13.111 20.0035 13.1664 20.0025C13.2219 20.0035 13.2776 20.0039 13.3333 20.0039C14.0146 20.0039 14.6828 19.9354 15.3303 19.8039C16.6375 19.5386 17.5425 18.3956 17.5559 17.1136C17.5833 17.1127 17.6107 17.1114 17.6381 17.1097C17.7487 17.1167 17.8601 17.1167 17.9715 17.1097C18.082 17.1167 18.1934 17.1167 18.3048 17.1097C18.4154 17.1167 18.5267 17.1167 18.6381 17.1097C18.7487 17.1167 18.8601 17.1167 18.9715 17.1097C19.082 17.1167 19.1934 17.1167 19.3048 17.1097C19.7822 17.14 20.2737 17.0406 20.7232 16.7955L25.6119 14.13C26.0105 13.9127 26.3334 13.6032 26.5616 13.2376C27.0366 12.4768 27.086 11.4929 26.6176 10.6655C26.5308 10.5121 26.4296 10.3704 26.3166 10.2416Z" fill="black"/>
<path d="M10.0001 4.22678C13.191 4.22678 15.7778 6.81358 15.7778 10.0046C15.7778 10.4295 15.7322 10.8429 15.6456 11.2405L14.5195 9.1906C14.4782 9.1176 14.43 9.0502 14.3762 8.98878C13.9993 8.5589 13.344 8.42265 12.8042 8.71697C12.7285 8.75823 12.6592 8.80578 12.5963 8.85853C12.1563 9.22777 12.0362 9.85175 12.3205 10.354L15.0364 15.1518C15.367 15.7358 16.1348 15.9618 16.7517 15.6255L21.6404 12.96C21.8361 12.8532 21.9899 12.7043 22.0973 12.5323C22.3219 12.1724 22.3439 11.7113 22.124 11.323C22.0827 11.25 22.0346 11.1826 21.9807 11.1212C21.6039 10.6913 20.9486 10.555 20.4088 10.8494L18.4515 11.9312C18.4745 11.8299 18.4957 11.728 18.5152 11.6254C18.5552 11.4139 18.5876 11.1998 18.6119 10.9833C18.6242 10.8742 18.6345 10.7646 18.6427 10.6544C18.6526 10.5209 18.6595 10.3867 18.6633 10.2518C18.665 10.1913 18.666 10.1306 18.6665 10.0698C18.6666 10.0481 18.6667 10.0263 18.6667 10.0046C18.6667 9.55583 18.6326 9.11506 18.5669 8.68471C18.4842 8.14361 18.3515 7.61897 18.1736 7.11567C17.7384 5.88441 17.0329 4.78084 16.1283 3.8763C14.56 2.30794 12.3933 1.33789 10.0001 1.33789C9.40174 1.33789 8.8176 1.39852 8.25342 1.51397C4.30416 2.3221 1.33339 5.8164 1.33339 10.0046C1.33339 14.791 5.21358 18.6712 10.0001 18.6712C10.5918 18.6712 11.1711 18.6117 11.7318 18.4979C12.5136 18.3392 13.0188 17.5768 12.8601 16.795C12.8402 16.6972 12.811 16.6038 12.7734 16.5155C12.5105 15.8973 11.8412 15.5279 11.1572 15.6667C11.1106 15.6762 11.0638 15.6851 11.0167 15.6934C10.6876 15.7517 10.348 15.7823 10.0001 15.7823C9.98759 15.7823 9.97513 15.7823 9.96269 15.7822C6.78891 15.7621 4.22227 13.1831 4.22227 10.0046C4.22227 6.81358 6.80907 4.22678 10.0001 4.22678Z" fill="white"/>
</svg>
