<svg width="55" height="30" viewBox="0 0 55 30" fill="none" xmlns="http://www.w3.org/2000/svg">
<path fill-rule="evenodd" clip-rule="evenodd" d="M24.1646 1.68751C26.4717 1.6875 29.1804 2.47069 29.1804 5.20588V6.77842C29.6106 6.53035 30.1096 6.40888 30.6082 6.43004C30.2808 5.64147 30.2852 4.70925 30.8783 3.83722C31.7636 2.53553 33.2935 2.54012 34.9697 2.54012C36.1751 2.54012 37.2243 2.42216 38.091 2.9514C40.1361 4.20028 41.8715 5.81861 43.162 7.71609C44.758 10.0627 45.6125 12.7482 45.6125 15.5005C45.6125 18.2528 44.758 20.9383 43.162 23.2849C41.8715 25.1824 40.1361 26.8007 38.091 28.0496C37.2243 28.5789 36.2269 28.4609 34.9697 28.4609C33.2935 28.4609 31.7636 28.4655 30.8783 27.1638C30.2852 26.2918 30.2808 25.3596 30.6082 24.571C30.1096 24.5921 29.6106 24.4707 29.1804 24.2226V24.7961C29.1804 27.5313 26.5466 28.4609 24.1646 28.4609C22.6927 28.4609 21.4754 28.3275 20.472 27.5114L14.0548 22.2922C13.9656 22.2197 13.8542 22.1801 13.7393 22.1801H12.4688H11.4688H10.4688H9.46875C7.53576 22.1801 5.96875 20.6131 5.96875 18.6801V11.325C5.96875 9.39196 7.53576 7.82496 9.46875 7.82496H13.7368C13.8518 7.82496 13.9632 7.78536 14.0524 7.71283L20.4717 2.49079C21.4752 1.6745 22.6926 1.68752 24.1646 1.68751Z" fill="black"/>
<path fill-rule="evenodd" clip-rule="evenodd" d="M7.46875 11.324V15.0012V18.6791C7.46875 19.7837 8.36418 20.6791 9.46875 20.6791H13.7393C14.199 20.6791 14.6446 20.8375 15.0013 21.1275L21.4184 26.3468C22.7253 27.4097 24.6804 26.4797 24.6804 24.7952V5.20496C24.6804 3.52034 22.7251 2.59039 21.4183 3.65347L14.9989 8.87551C14.6423 9.16564 14.1966 9.32403 13.7368 9.32403H9.46875C8.36418 9.32403 7.46875 10.2195 7.46875 11.324ZM34.3092 26.7685C33.5761 27.2162 32.5702 26.9833 32.1186 26.3193C31.667 25.6554 31.9427 24.8129 32.6625 24.3498C34.0479 23.4583 35.2146 22.3384 36.0893 21.0523C37.2375 19.364 37.842 17.449 37.842 15.4996C37.842 13.5502 37.2375 11.6351 36.0893 9.9469C35.2146 8.6608 34.0479 7.54086 32.6625 6.64938C31.9427 6.18625 31.667 5.3438 32.1186 4.67985C32.5702 4.0159 33.5761 3.78295 34.3092 4.23066C36.1856 5.37649 37.7598 6.85033 38.9217 8.55872C40.3569 10.669 41.1125 13.0628 41.1125 15.4996C41.1125 17.9363 40.3569 20.3302 38.9217 22.4404C37.7598 24.1488 36.1856 25.6227 34.3092 26.7685ZM31.0485 22.9206C30.5657 23.2154 29.9033 23.062 29.6059 22.6248C29.3085 22.1875 29.4901 21.6328 29.964 21.3278C30.8764 20.7407 31.6448 20.0032 32.2208 19.1562C32.9769 18.0445 33.375 16.7833 33.375 15.4996C33.375 14.2158 32.9769 12.9547 32.2208 11.8429C31.6448 10.996 30.8764 10.2585 29.964 9.6714C29.4901 9.36642 29.3085 8.81163 29.6059 8.37439C29.9033 7.93716 30.5657 7.78376 31.0485 8.07858C32.2842 8.83316 33.3208 9.80374 34.086 10.9288C35.0311 12.3185 35.5287 13.8949 35.5287 15.4996C35.5287 17.1043 35.0311 18.6807 34.086 20.0704C33.3208 21.1954 32.2842 22.166 31.0485 22.9206ZM28.492 19.469C28.1046 19.7314 27.5504 19.6025 27.3026 19.2381C27.0548 18.8737 27.2105 18.413 27.5772 18.13C27.896 17.8839 28.1695 17.5965 28.3867 17.2771C28.7543 16.7367 28.9478 16.1236 28.9478 15.4996C28.9478 14.8755 28.7543 14.2625 28.3867 13.722C28.1695 13.4027 27.896 13.1153 27.5772 12.8692C27.2105 12.5862 27.0548 12.1254 27.3026 11.7611C27.5504 11.3967 28.1046 11.2677 28.492 11.5302C29.0739 11.9245 29.5662 12.409 29.9411 12.9602C30.4662 13.7323 30.7426 14.6081 30.7426 15.4996C30.7426 16.3911 30.4662 17.2669 29.9411 18.0389C29.5662 18.5902 29.0739 19.0747 28.492 19.469Z" fill="white"/>
</svg>
