<svg width="55" height="30" viewBox="0 0 55 30" fill="none" xmlns="http://www.w3.org/2000/svg">
<path fill-rule="evenodd" clip-rule="evenodd" d="M13.7393 22.1792C13.8542 22.1792 13.9656 22.2188 14.0548 22.2913L20.472 27.5105C21.4754 28.3266 22.6927 28.2654 24.1646 28.2654C26.543 28.2654 29.1804 27.5304 29.1804 24.7952V23.8322C30.3664 23.8222 31.7849 24.0149 32.8226 23.3541C33.3005 23.0498 33.6868 22.6196 34.0047 22.1658L34.2283 21.8552L34.4621 22.1801L34.4664 22.186C34.7901 22.6266 35.1609 22.9157 35.6339 23.3541C36.2895 23.9618 37.6679 23.9969 38.7901 23.9969C40.1591 23.9969 41.4227 23.8802 42.2813 23.1512L42.2866 23.1467C42.8203 22.6893 43.1772 22.0679 43.2456 21.3262C43.3342 20.5108 43.0331 19.798 42.6097 19.2399L39.3804 14.9035L42.4827 10.7622L42.4942 10.7459C42.883 10.197 43.1946 9.48542 43.1048 8.67344C43.038 7.93696 42.6921 7.29956 42.1259 6.83681C41.12 5.99436 39.8447 6.16689 38.6512 6.16801C37.5673 6.16903 36.4994 6.01852 35.5174 6.63087C34.9804 6.95166 34.5869 7.42756 34.2285 7.92985C33.8792 7.44309 33.4872 6.98382 32.9786 6.65594C32.169 6.11943 31.3555 6.16801 30.2927 6.16801C29.8583 6.16801 29.5507 6.15762 29.1804 6.16986V5.205C29.1804 2.46981 26.5718 1.70127 24.1646 1.70128C22.6926 1.70129 21.4752 1.67362 20.4717 2.4899L14.0524 7.71194C13.9632 7.78447 13.8518 7.82407 13.7368 7.82407H9.46875C7.53576 7.82407 5.96875 9.39107 5.96875 11.3241V18.6792C5.96875 20.6122 7.53576 22.1792 9.46875 22.1792H13.7393Z" fill="black"/>
<path fill-rule="evenodd" clip-rule="evenodd" d="M7.46875 15.0012V11.324C7.46875 10.2195 8.36418 9.32403 9.46875 9.32403H13.7368C14.1966 9.32403 14.6423 9.16564 14.9989 8.87551L21.4183 3.65347C22.7251 2.59039 24.6804 3.52034 24.6804 5.20496V24.7952C24.6804 26.4797 22.7253 27.4097 21.4184 26.3468L15.0013 21.1275C14.6446 20.8375 14.199 20.6791 13.7393 20.6791H9.46875C8.36418 20.6791 7.46875 19.7837 7.46875 18.6791V15.0012ZM28.1519 22.3323C27.7496 22.3323 27.4143 22.2241 27.1461 22.0077C26.8913 21.7779 26.7438 21.5007 26.7035 21.1761C26.6633 20.8381 26.7706 20.4933 27.0254 20.1417L30.9484 14.8975L27.2064 9.87877C26.9516 9.51368 26.8376 9.16888 26.8645 8.84436C26.9047 8.50631 27.0522 8.22912 27.307 8.01277C27.5752 7.7829 27.9038 7.66797 28.2927 7.66797C28.628 7.66797 28.9163 7.7491 29.1577 7.91136C29.4125 8.07362 29.6673 8.33053 29.9221 8.6821L32.7368 12.6037L35.5344 8.6821C35.7892 8.31701 36.044 8.0601 36.2988 7.91136C36.5536 7.7491 36.8487 7.66797 37.1839 7.66797C37.5863 7.66797 37.9148 7.77614 38.1696 7.99249C38.4378 8.20884 38.5854 8.48603 38.6122 8.82407C38.6524 9.1486 38.5384 9.50016 38.2702 9.87877L34.5081 14.9008L38.411 20.1417C38.6792 20.4933 38.7932 20.8381 38.753 21.1761C38.7262 21.5007 38.5786 21.7779 38.3104 22.0077C38.0556 22.2241 37.7204 22.3323 37.3046 22.3323C36.9828 22.3323 36.6945 22.2511 36.4397 22.0889C36.1983 21.9266 35.9435 21.6629 35.6752 21.2978L32.7283 17.2035L29.7813 21.2978C29.5265 21.6629 29.2717 21.9266 29.0169 22.0889C28.7621 22.2511 28.4737 22.3323 28.1519 22.3323Z" fill="white" fill-opacity="0.95"/>
</svg>
