<svg width="55" height="30" viewBox="0 0 55 30" fill="none" xmlns="http://www.w3.org/2000/svg">
<path d="M28.8293 28.0002C28.4175 29.165 27.3067 30.0002 26 30.0002H20C18.8898 30.0002 17.9202 29.3968 17.4014 28.5001H15.7001C15.245 29.3903 14.319 30.0001 13.25 30.0001H7.49997C6.43149 30.0001 5.50516 29.3905 5.04992 28.5001H4.49999C2.56705 28.5001 1 26.9331 1 25.0001V10.0002C1 8.06729 2.56705 6.50024 4.49999 6.50024C4.57265 6.50024 4.64441 6.50412 4.71507 6.51167C4.80905 6.5041 4.90407 6.50024 4.99999 6.50024C5.04197 6.50024 5.08365 6.50153 5.12499 6.50408C5.16632 6.50153 5.208 6.50024 5.24998 6.50024H12V4.00024C12 1.79117 13.7909 0.000244141 16 0.000244141C16.0699 0.000244141 16.1389 0.00382684 16.2069 0.0108185C16.3037 0.00380958 16.4014 0.000244141 16.5 0.000244141C16.5699 0.000244141 16.6389 0.00382697 16.7069 0.010819C16.8037 0.00380981 16.9014 0.000244141 17 0.000244141H40C41.6577 0.000244141 43 1.34433 43 3.00024V6.50024H51.2499C52.7695 6.50024 53.9999 7.73232 53.9999 9.25023V22.7501C53.9999 23.4185 53.7614 24.0314 53.3647 24.5081C53.759 24.9321 54.0002 25.5005 54.0002 26.1251C54.0002 27.4384 52.9355 28.5001 51.6252 28.5001H43.2C42.745 29.3903 41.819 30.0001 40.7499 30.0001H35C33.9315 30.0001 33.0051 29.3905 32.5499 28.5001H32C31.3403 28.5001 30.7232 28.3176 30.1964 28.0002H28.8293Z" fill="black"/>
<path fill-rule="evenodd" clip-rule="evenodd" d="M35 2.00024C35.5525 2.00024 36 2.44824 36 3.00024V21.0002C36 21.5522 35.5525 22.0002 35 22.0002H16C15.448 22.0002 15 22.4482 15 23.0002V24.0002C15 24.5522 15.448 25.0002 16 25.0002H18V26.0002H16C14.8955 26.0002 14 25.1047 14 24.0002V4.00024C14 2.89574 14.8955 2.00024 16 2.00024V20.5002C16 20.7767 16.224 21.0002 16.5 21.0002C16.7765 21.0002 17 20.7767 17 20.5002V2.00024H35ZM35 24.0002H22V27.0002C22 27.5522 21.5525 28.0002 21 28.0002H20C19.448 28.0002 19 27.5522 19 27.0002V24.0002H16.5C16.224 24.0002 16 23.7767 16 23.5002C16 23.2242 16.224 23.0002 16.5 23.0002H35V24.0002ZM35.5005 25.0002C35.7765 25.0002 36.0005 25.2242 36.0005 25.5002C36.0005 25.7767 35.7765 26.0002 35.5005 26.0002H23.0005V25.0002H35.5005ZM37.0005 23.5001L37.0001 23.4998V23.2363C37.6139 22.6869 38.0001 21.8884 38.0001 21.0002V8.50024H46.2499C46.6642 8.50024 46.9999 8.83623 46.9999 9.25023V22.7501C46.9999 23.1641 46.6642 23.5001 46.2499 23.5001H37.0005ZM35.527 28.0001H35.7499C35.8529 28.0001 35.9511 27.9793 36.0404 27.9418C35.8748 27.9782 35.7031 27.9983 35.527 28.0001ZM37.9505 25.0001C37.8961 24.7321 37.7987 24.4796 37.666 24.2501H46.2499V25.0001H37.9505ZM37.7927 26.5001C37.8947 26.2666 37.962 26.0145 37.9882 25.7501H46.6252C46.8322 25.7501 47.0002 25.9181 47.0002 26.1251C47.0002 26.3325 46.8322 26.5001 46.6252 26.5001H37.7927ZM12.8772 26.5001C12.6925 26.2696 12.5327 26.0183 12.4021 25.7501H9.75032V26.5001H12.8772ZM12.126 25.0001C12.0637 24.7582 12.0235 24.5075 12.0077 24.2501H4.87499C4.66799 24.2501 4.49999 24.4181 4.49999 24.6251C4.49999 24.8325 4.66799 25.0001 4.87499 25.0001H6.74997V27.2501C6.74997 27.6641 7.08597 28.0001 7.49997 28.0001H8.24996C8.66434 28.0001 8.99996 27.6641 8.99996 27.2501V25.0001H12.126ZM12 23.5001V8.50024H5.24998V22.3751C5.24998 22.5825 5.08236 22.7501 4.87499 22.7501C4.66799 22.7501 4.49999 22.5825 4.49999 22.3751V8.50024C3.67162 8.50024 3 9.17186 3 10.0002V25.0001C3 25.8285 3.67162 26.5001 4.49999 26.5001H5.99998V25.7501H4.49999C4.08599 25.7501 3.74999 25.4141 3.74999 25.0001V24.2501C3.74999 23.8361 4.08599 23.5001 4.49999 23.5001H12Z" fill="white"/>
</svg>
