<svg width="36" height="20" viewBox="0 0 36 20" fill="none" xmlns="http://www.w3.org/2000/svg">
<path d="M18.5528 18.6667C18.2783 19.4432 17.5378 20 16.6667 20H12.6667C11.9265 20 11.2801 19.5977 10.9343 18.9999H9.80004C9.49666 19.5934 8.87936 19.9999 8.16664 19.9999H4.33331C3.62099 19.9999 3.00344 19.5935 2.69995 18.9999H2.33333C1.0447 18.9999 0 17.9552 0 16.6666V6.66666C0 5.37803 1.0447 4.33333 2.33333 4.33333C2.38177 4.33333 2.42961 4.33591 2.47672 4.34095C2.53936 4.3359 2.60271 4.33333 2.66666 4.33333C2.69465 4.33333 2.72243 4.33419 2.74999 4.33589C2.77755 4.33419 2.80533 4.33333 2.83332 4.33333H7.33333V2.66667C7.33333 1.19395 8.52728 0 9.99999 0C10.0466 0 10.0926 0.00238847 10.1379 0.00704959C10.2025 0.00237696 10.2676 0 10.3333 0C10.3799 0 10.4259 0.00238855 10.4713 0.00704993C10.5358 0.00237711 10.6009 0 10.6667 0H26C27.1051 0 28 0.896054 28 2V4.33333H33.4999C34.513 4.33333 35.3332 5.15472 35.3332 6.16666V15.1666C35.3332 15.6121 35.1742 16.0207 34.9098 16.3386C35.1727 16.6212 35.3335 17.0001 35.3335 17.4166C35.3335 18.2921 34.6237 18.9999 33.7502 18.9999H28.1334C27.83 19.5934 27.2127 19.9999 26.5 19.9999H22.6666C21.9543 19.9999 21.3368 19.5935 21.0333 18.9999H20.6666C20.2268 18.9999 19.8154 18.8782 19.4643 18.6667H18.5528Z" fill="black"/>
<path fill-rule="evenodd" clip-rule="evenodd" d="M22.667 1.33057C23.0353 1.33057 23.3337 1.62923 23.3337 1.99723V13.9972C23.3337 14.3652 23.0353 14.6639 22.667 14.6639H10.0003C9.63233 14.6639 9.33366 14.9626 9.33366 15.3306V15.9972C9.33366 16.3652 9.63233 16.6639 10.0003 16.6639H11.3337V17.3306H10.0003C9.26399 17.3306 8.66699 16.7336 8.66699 15.9972V2.6639C8.66699 1.92757 9.26399 1.33057 10.0003 1.33057V13.6639C10.0003 13.8482 10.1497 13.9972 10.3337 13.9972C10.518 13.9972 10.667 13.8482 10.667 13.6639V1.33057H22.667ZM22.667 15.9972H14.0003V17.9972C14.0003 18.3652 13.702 18.6639 13.3337 18.6639H12.667C12.299 18.6639 12.0003 18.3652 12.0003 17.9972V15.9972H10.3337C10.1497 15.9972 10.0003 15.8482 10.0003 15.6639C10.0003 15.4799 10.1497 15.3306 10.3337 15.3306H22.667V15.9972ZM23.0007 16.6639C23.1847 16.6639 23.334 16.8132 23.334 16.9972C23.334 17.1816 23.1847 17.3306 23.0007 17.3306H14.6673V16.6639H23.0007ZM24.0011 15.6664L24.0008 15.6662V15.4906C24.41 15.1243 24.6674 14.5919 24.6674 13.9998V5.6665H30.1673C30.4436 5.6665 30.6673 5.8905 30.6673 6.1665V15.1664C30.6673 15.4424 30.4436 15.6664 30.1673 15.6664H24.0011ZM23.0184 18.6664H23.1674C23.2361 18.6664 23.3015 18.6526 23.3611 18.6275C23.2506 18.6518 23.136 18.6652 23.0184 18.6664ZM24.6344 16.6664C24.5981 16.4877 24.5332 16.3194 24.4447 16.1664H30.1673V16.6664H24.6344ZM24.5292 17.6664C24.5972 17.5108 24.6421 17.3427 24.6595 17.1664H30.4176C30.5556 17.1664 30.6676 17.2784 30.6676 17.4164C30.6676 17.5547 30.5556 17.6664 30.4176 17.6664H24.5292ZM7.91883 17.6664C7.79566 17.5128 7.68915 17.3452 7.60204 17.1664H5.8342V17.6664H7.91883ZM7.41798 16.6664C7.37648 16.5052 7.34968 16.338 7.3391 16.1664H2.58398C2.44598 16.1664 2.33398 16.2784 2.33398 16.4164C2.33398 16.5547 2.44598 16.6664 2.58398 16.6664H3.83397V18.1664C3.83397 18.4424 4.05797 18.6664 4.33396 18.6664H4.83396C5.11021 18.6664 5.33396 18.4424 5.33396 18.1664V16.6664H7.41798ZM7.33398 15.6664V5.6665H2.83397V14.9164C2.83397 15.0547 2.72222 15.1664 2.58398 15.1664C2.44598 15.1664 2.33398 15.0547 2.33398 14.9164V5.6665C1.78173 5.6665 1.33398 6.11425 1.33398 6.6665V16.6664C1.33398 17.2187 1.78173 17.6664 2.33398 17.6664H3.33397V17.1664H2.33398C2.05798 17.1664 1.83398 16.9424 1.83398 16.6664V16.1664C1.83398 15.8904 2.05798 15.6664 2.33398 15.6664H7.33398Z" fill="white"/>
</svg>
