<svg width="55" height="30" viewBox="0 0 55 30" fill="none" xmlns="http://www.w3.org/2000/svg">
<path fill-rule="evenodd" clip-rule="evenodd" d="M9.04969 9.90245C9.03912 9.96242 9.03385 9.9824 9.06557 9.83247C9.06028 9.85746 9.05498 9.87746 9.04969 9.90245ZM13.8756 14.8303C13.6853 14.8303 13.532 14.8253 13.4739 14.8203C12.8871 14.7403 12.4167 14.5054 12.0362 14.1506C11.9992 14.1156 11.9674 14.0856 11.9357 14.0506C11.2485 13.8707 10.6037 13.5108 10.3024 13.271C9.76855 12.8511 9.57827 12.4063 9.51484 12.2264C9.52013 12.2414 9.56241 12.3513 9.51484 12.2264C9.47784 12.1264 9.4461 12.0165 9.41967 11.8966C9.00738 11.2219 8.93341 10.5172 9.04969 9.90245C9.06026 9.84747 9.08138 9.75748 9.08666 9.74749C9.09724 9.70251 9.10784 9.65752 9.11841 9.61754C9.1977 9.35765 9.31398 9.11779 9.45141 8.89789C9.53599 8.35812 9.82143 7.76338 10.5244 7.20363C11.0424 6.78881 11.5023 6.52889 11.904 6.35897C11.904 6.35397 11.904 6.34902 11.8987 6.34402C11.6979 5.77427 11.7243 5.1945 11.9252 4.68472C11.9252 4.67473 11.9304 4.65976 11.9357 4.64977C11.941 4.21496 12.0837 3.76016 12.4008 3.33534C12.7338 2.89554 13.458 2.23583 14.7107 2.27081C14.7688 2.26581 14.827 2.26581 14.8852 2.27081C15.2076 2.18085 15.5089 2.14087 15.7837 2.14087C16.0057 1.6111 16.455 1.02633 17.4382 0.801431C17.5809 0.771444 17.861 0.741464 18.2046 0.746462C18.2627 0.746462 18.3262 0.746462 18.3896 0.746462C18.4478 0.746462 18.5112 0.746462 18.5693 0.746462C18.6063 0.746462 18.638 0.746462 18.675 0.746462C18.86 0.676493 19.0662 0.616537 19.2935 0.576555C19.785 0.191725 20.3506 -0.0181946 21.0219 0.00179654C21.0801 0.00179654 21.1435 0.00179654 21.2016 0.00179654C21.265 0.00179654 21.3232 0.00179654 21.3866 0.00179654C21.4447 0.00179654 21.5082 0.00179654 21.5664 0.00179654C21.6298 0.00179654 21.6879 0.00179654 21.7514 0.00179654C21.8095 0.00179654 21.8729 0.00179654 21.9311 0.00179654C21.9945 0.00179654 22.0526 0.00179654 22.116 0.00179654C22.1742 0.00179654 22.2377 0.00179654 22.2958 0.00179654C22.3592 0.00179654 22.4174 0.00179654 22.4808 0.00179654C22.5389 0.00179654 22.6023 0.00179654 22.6605 0.00179654C22.7239 0.00179654 22.782 0.00179654 22.8455 0.00179654C22.9036 0.00179654 22.9671 0.00179654 23.0252 0.00179654C23.0887 0.00179654 23.1468 0.00179654 23.2102 0.00179654C23.2684 0.00179654 23.3318 0.00179654 23.3899 0.00179654C23.4534 0.00179654 23.5115 0.00179654 23.5749 0.00179654C23.6331 0.00179654 23.6965 0.00179654 23.7546 0.00179654C23.818 0.00179654 23.8762 0.00179654 23.9397 0.00179654C23.9978 0.00179654 24.0612 0.00179654 24.1194 0.00179654C24.1828 0.00179654 24.2409 0.00179654 24.3043 0.00179654C24.3625 0.00179654 24.4206 0.00179654 24.484 0.00179654C24.5422 0.00179654 24.6057 0.00179654 24.6691 0.00179654C24.7272 0.00179654 24.7854 0.00179654 24.8488 0.00179654C24.9069 0.00179654 24.9704 0.00179654 25.0338 0.00179654C25.0919 0.00179654 25.1501 0.00179654 25.2135 0.00179654C25.2716 0.00179654 25.3351 0.00179654 25.3985 0.00179654C25.4567 0.00179654 25.5148 0.00179654 25.5782 0.00179654C25.6364 0.00179654 25.6998 0.00179654 25.7632 0.00179654C25.8214 0.00179654 25.8795 0.00179654 25.9429 0.00179654C26.0011 0.00179654 26.0645 0.00179654 26.1227 0.00179654C26.3024 -0.00320125 26.4874 0.0118263 26.6829 0.0368152C27.2855 0.126775 27.7137 0.361672 28.0308 0.661539C28.0467 0.661539 28.0572 0.661539 28.0731 0.661539C28.1312 0.661539 28.1946 0.661539 28.2528 0.661539C28.3162 0.661539 28.3744 0.661539 28.4378 0.661539C28.496 0.661539 28.5594 0.661539 28.6175 0.661539C28.681 0.661539 28.7391 0.661539 28.8025 0.661539C28.8607 0.661539 28.9241 0.661539 28.9822 0.661539C29.0456 0.661539 29.1038 0.661539 29.162 0.661539C29.2254 0.661539 29.2888 0.661539 29.347 0.661539C29.4104 0.661539 29.4685 0.661539 29.532 0.661539C29.5901 0.661539 29.6535 0.661539 29.7117 0.661539C29.7751 0.661539 29.8333 0.661539 29.8914 0.661539C29.9548 0.661539 30.0183 0.661539 30.0764 0.661539C30.1398 0.661539 30.198 0.661539 30.2561 0.661539C30.3195 0.661539 30.3829 0.661539 30.4411 0.661539C30.4992 0.661539 30.5627 0.661539 30.6209 0.661539C30.6843 0.661539 30.7424 0.661539 30.8058 0.661539C30.864 0.661539 30.9274 0.661539 30.9855 0.661539C31.049 0.661539 31.1071 0.661539 31.1705 0.661539C31.2287 0.661539 31.2921 0.661539 31.3503 0.661539C31.4137 0.661539 31.4718 0.661539 31.5353 0.661539C31.5934 0.661539 31.6568 0.661539 31.715 0.661539C31.7784 0.661539 31.8365 0.661539 31.9 0.661539C31.9581 0.661539 32.0215 0.661539 32.0797 0.661539C32.1431 0.661539 32.2013 0.661539 32.2647 0.661539C32.7246 0.646546 33.158 0.75647 33.5385 0.946386C33.5491 0.956382 33.5597 0.961399 33.5703 0.966397C34.0143 1.1963 34.6962 1.6511 34.9076 2.84557C34.9076 2.85557 34.9129 2.87053 34.9129 2.88053C35.2194 3.15541 35.4361 3.48029 35.5524 3.84513C35.9171 3.89511 36.3505 4.00006 36.8368 4.21996C36.8685 4.23496 36.895 4.24993 36.9214 4.26493C36.9584 4.27992 36.9902 4.29489 37.0166 4.30489C37.0166 4.30489 37.1276 4.32991 37.1751 4.34491C37.2491 4.3649 37.3232 4.38484 37.3972 4.41482L37.7989 4.56978C37.9892 4.63975 38.1636 4.73468 38.3274 4.85463C38.5019 4.88462 38.671 4.92961 38.8296 4.98958C38.8666 4.99458 38.967 4.99959 38.9882 4.99959C38.9935 4.99959 39.004 4.99959 39.0198 4.99959C39.0674 4.99959 39.1098 5.00459 39.1468 5.00459C39.2895 5.01458 39.522 5.0296 39.5484 5.0296C39.5537 5.0296 39.559 5.0296 39.5643 5.0296C39.5907 5.0296 40.7008 5.14953 41.1818 5.32445C41.8425 5.56935 42.3076 5.91416 42.852 6.41894L43.0424 6.59391C43.0741 6.59391 43.1375 6.60386 43.1428 6.60386C43.2168 6.61385 43.5762 6.66887 43.7295 6.70885C44.7338 6.97373 45.3522 7.51846 45.6059 8.55301L45.6165 8.61798C45.6535 8.77291 45.8966 9.51762 45.9019 9.53261C46.0552 10.1523 46.0341 10.7071 45.8015 11.3018C45.7962 11.3118 45.7328 11.4668 45.7063 11.5267C45.5742 11.8516 45.4103 12.2364 45.1249 12.6462C45.1143 12.6612 44.9928 12.8211 44.9875 12.8311C44.7073 13.196 44.3268 13.5808 43.7718 13.9506C43.6449 14.1855 43.2644 14.8453 43.1058 15.0202L43.1005 15.0252C43.0846 15.0452 43.0687 15.0602 43.0529 15.0751C43.0106 16.2996 42.7992 17.1942 42.5243 17.8139C42.5137 18.0288 42.4926 18.2687 42.4556 18.4286C42.445 18.4586 42.3658 18.6986 42.3605 18.7136C42.2706 18.9484 42.1384 19.2033 41.927 19.4632C41.8583 19.6032 41.7843 19.7481 41.6945 19.893C41.6786 19.948 41.6681 20.013 41.6522 20.0679C41.6469 20.0729 41.5412 20.3628 41.5201 20.4228C41.4355 20.6177 41.3351 20.7776 41.2505 20.8876C41.1025 21.0825 40.9228 21.2524 40.7219 21.3924C40.6955 21.4074 40.669 21.4273 40.6373 21.4423C40.595 21.4673 40.5527 21.4973 40.5105 21.5173C40.4735 21.5373 40.4259 21.5622 40.373 21.5922C40.299 21.6672 40.2251 21.7372 40.1352 21.8072C39.8498 22.042 39.374 22.4269 38.1794 22.4369C38.1266 22.4369 38.0685 22.4369 38.0156 22.4369C38.0103 22.4369 38.005 22.4369 37.9997 22.4369C37.9469 22.4369 37.894 22.4369 37.8464 22.4369C37.783 22.4769 37.7196 22.5168 37.6509 22.5568C37.6139 22.5768 37.1434 22.7967 36.9848 22.8417C36.8738 22.8817 36.7206 22.9667 36.5673 23.0766C36.7417 23.9862 36.5779 24.8008 35.6952 25.5905C35.6952 25.5855 35.6582 25.6555 35.6317 25.6954C35.5842 25.7854 35.5419 25.8803 35.5049 25.9753C35.1454 26.7849 34.7173 27.5146 33.9403 28.0544C33.8451 28.3942 33.6601 28.7491 33.2531 29.1639C32.5449 29.8786 31.863 30.0185 31.3344 29.9985C31.271 29.9985 31.2129 29.9985 31.1494 29.9985C31.0913 29.9985 31.0278 29.9985 30.9697 29.9985C30.9062 29.9985 30.8481 29.9985 30.79 29.9985C30.7265 29.9985 30.6631 29.9985 30.605 29.9985C30.5416 29.9985 30.4834 29.9985 30.4253 29.9985C30.3619 29.9985 30.2984 29.9985 30.2402 29.9985C30.1768 29.9985 30.1187 29.9985 30.0605 29.9985C29.9971 29.9985 29.9337 29.9985 29.8755 29.9985C29.8121 29.9985 29.754 29.9985 29.6958 29.9985C29.6324 29.9985 29.5689 29.9985 29.5108 29.9985C29.4474 29.9985 29.3892 29.9985 29.3311 29.9985C29.2677 29.9985 29.2043 29.9985 29.1461 29.9985C29.0827 29.9985 29.0246 29.9985 28.9664 29.9985C28.903 29.9985 28.8395 29.9985 28.7814 29.9985C28.7179 29.9985 28.6598 29.9985 28.6017 29.9985C28.5382 29.9985 28.4748 29.9985 28.4167 29.9985C28.3532 29.9985 28.2951 29.9985 28.237 29.9985C28.1735 29.9985 28.1101 29.9985 28.0519 29.9985C27.9885 29.9985 27.9304 29.9985 27.8722 29.9985C27.8088 29.9985 27.7454 29.9985 27.6872 29.9985C27.6238 29.9985 27.5657 29.9985 27.5075 29.9985C27.4441 29.9985 27.3806 29.9985 27.3225 29.9985C27.2643 29.9985 27.2009 29.9985 27.1428 29.9985C27.0794 29.9985 27.0212 29.9985 26.9578 29.9985C26.8944 29.9985 26.8362 29.9985 26.7781 29.9985C26.7147 29.9985 26.6513 29.9985 26.5931 29.9985C26.5297 29.9985 26.4715 29.9985 26.4134 29.9985C26.3499 29.9985 26.2918 29.9985 26.2284 29.9985C25.9799 30.0085 25.7632 29.9786 25.5782 29.9436C25.0708 29.8486 24.6004 29.6137 24.2092 29.1989C24.0084 28.984 23.7863 28.6541 23.6436 28.2243C23.6701 28.3043 23.6066 28.0494 23.5908 28.0444C23.1944 27.9094 22.8402 27.7245 22.4967 27.3747C21.9205 27.2398 21.5505 26.9499 21.2915 26.67C20.8052 26.1452 20.6255 25.4755 20.7418 24.8208C20.7682 24.6559 20.8634 24.281 21.1594 23.8412C21.4236 23.4464 22.0685 22.6868 22.2535 22.5119C22.338 22.4319 22.4226 22.3519 22.5019 22.2819C22.4332 22.202 22.3645 22.107 22.2958 22.0021C22.1108 21.9621 21.9522 21.9121 21.8148 21.8621C21.8042 21.8571 21.7989 21.8521 21.7883 21.8521C21.2386 21.6272 20.858 21.2874 20.6043 20.8976C20.3665 20.5277 20.2238 20.0929 20.2449 19.5931C20.2291 19.5481 20.1867 19.3882 20.1867 19.3882C20.0546 18.8835 19.9965 18.3787 20.0282 17.9339C19.8961 17.8839 19.7797 17.8289 19.6687 17.769C19.3622 17.594 18.8917 17.2492 18.6169 16.5545C18.564 16.4345 18.5164 16.2446 18.4689 16.0347C18.3896 15.9897 18.3103 15.9398 18.231 15.8848C18.083 15.7848 18.0249 15.7398 17.9615 15.7348C17.9562 15.7348 17.9562 15.7348 17.9509 15.7348C17.6284 15.6948 17.3378 15.6449 17.0101 15.525H17.0048C16.4973 15.34 16.1115 15.1001 15.8102 14.8303C15.7732 14.8303 15.7308 14.8303 15.6938 14.8303C15.6304 14.8303 15.567 14.8303 15.5141 14.8303C15.4454 14.8303 15.3873 14.8303 15.3292 14.8303C15.2657 14.8303 15.2023 14.8303 15.1495 14.8303C15.0807 14.8303 15.0226 14.8303 14.9645 14.8303C14.901 14.8303 14.8376 14.8303 14.7847 14.8303C14.716 14.8303 14.6579 14.8303 14.5997 14.8303C14.5363 14.8303 14.4729 14.8303 14.42 14.8303C14.3513 14.8303 14.2932 14.8303 14.235 14.8303C14.1716 14.8303 14.1081 14.8303 14.0553 14.8303C13.9866 14.8303 13.9284 14.8303 13.8756 14.8303Z" fill="black"/>
<path fill-rule="evenodd" clip-rule="evenodd" d="M35.461 17.5307C35.461 17.5258 35.4928 17.8201 35.4557 17.9525C35.4557 17.9624 35.4346 18.0212 35.4293 18.0359C35.387 18.1438 35.3129 18.2567 35.1913 18.3744C35.149 18.4137 35.1225 18.4922 35.0855 18.5707C34.9903 18.7718 34.8687 19.0171 34.6624 19.1839C34.6254 19.2182 34.6518 19.2525 34.6571 19.282L34.6677 19.3114C34.673 19.3458 34.6783 19.3801 34.6677 19.4144C34.6677 19.4193 34.6677 19.4635 34.6624 19.4782C34.6624 19.4929 34.6571 19.5273 34.6518 19.5518L34.5884 19.7038C34.5672 19.7382 34.5408 19.7676 34.509 19.7873C34.509 19.7873 34.3398 19.8952 34.16 19.9442C33.9907 19.9884 33.9537 20.0374 33.9273 20.0914C33.8955 20.1748 33.8532 20.2435 33.7792 20.3072C33.684 20.3808 33.5254 20.4544 33.1551 20.4544C32.7268 20.4642 32.5469 20.3857 32.3988 20.3269C32.3036 20.2876 32.2296 20.2631 32.0128 20.317C31.9863 20.322 31.944 20.4103 31.944 20.4103C31.8752 20.5575 31.7906 20.7193 31.5473 20.8567C31.5315 20.8665 31.3517 20.945 31.2882 20.9646C30.8916 21.0873 30.2569 21.4502 29.802 21.8427C29.802 21.8427 29.7809 21.8722 29.7703 21.882C29.7703 21.882 29.7703 21.8869 29.765 21.8869C29.5905 22.0439 29.4477 22.2008 29.3631 22.348C29.3314 22.4167 29.3049 22.4805 29.2943 22.5393C29.2943 22.5442 29.289 22.5736 29.289 22.5786C29.2573 22.7699 29.3155 22.9465 29.3631 23.1133C29.379 23.1673 29.4054 23.2703 29.4054 23.2703C29.4847 23.594 29.4847 23.8884 29.1621 24.168C28.9929 24.3152 28.866 24.4819 28.7655 24.6586C28.7602 24.6635 28.7285 24.7077 28.7285 24.7077C28.6333 24.8744 28.5592 25.0413 28.4851 25.208C28.2101 25.8311 27.9245 26.4148 27.0942 26.7091C27.0678 26.7141 27.0466 26.7239 27.0255 26.7288C27.0149 26.8416 26.9779 26.9838 26.8721 27.1752C26.851 27.2193 26.8509 27.2586 26.8457 27.2978C26.8298 27.4499 26.8034 27.6118 26.6077 27.808C26.4226 27.9944 26.2586 28.0141 26.1476 27.9944C26.0682 27.9797 25.9995 27.9405 25.936 27.8767C25.8725 27.8129 25.8196 27.6952 25.7826 27.5529C25.7403 27.3861 25.7985 27.2635 25.8778 27.1458C25.8831 27.1359 25.8937 27.1163 25.9042 27.1065C25.8831 27.0771 25.8038 26.9839 25.6927 26.8956C25.6081 26.8318 25.5288 26.768 25.4494 26.7042C25.259 26.5423 25.0845 26.3952 24.9258 26.3314C24.8359 26.2922 24.7566 26.2726 24.6773 26.248C24.4234 26.1843 24.2119 26.1155 24.0056 25.8359C23.7412 25.4729 23.4503 25.468 23.3022 25.4631C22.9743 25.4631 22.8897 25.2963 22.9162 25.1394C22.9267 25.1001 22.9637 25.0069 23.0378 24.899C23.2388 24.6046 23.7253 24.0356 23.8681 23.9031C24.4499 23.3537 24.9206 23.1575 25.2009 23.0446L25.3119 22.9956C25.3331 22.8975 25.3543 22.7159 25.349 22.5491V22.4903C25.3437 22.402 25.3278 22.3088 25.2961 22.2303C25.2696 22.2254 25.2432 22.2204 25.2167 22.2204C25.2062 22.2155 25.1797 22.2155 25.1744 22.2155C25.0369 22.1959 24.9311 22.142 24.873 22.0684C24.8095 21.9948 24.7566 21.8672 24.8465 21.6563C24.9311 21.4601 24.9629 21.3227 24.9523 21.2246C24.9523 21.2246 24.947 21.1854 24.947 21.1755C24.9364 21.1461 24.9047 21.1069 24.9047 21.1069C24.7037 21.2148 24.4869 21.2589 24.2912 21.0627C24.2383 21.0137 24.1854 20.9303 24.1431 20.8223C24.0955 20.7046 24.0532 20.5575 24.0162 20.4103L23.9263 20.0669C23.8364 20.0669 23.7253 20.0718 23.6037 20.0816C23.4503 20.0865 23.2916 20.0963 23.1488 20.0963C22.9796 20.0914 22.8315 20.0718 22.7257 20.0325C22.7204 20.0325 22.7204 20.0276 22.7204 20.0276C22.5142 19.9491 22.4137 19.8069 22.4455 19.6008C22.4719 19.4193 22.4031 19.1936 22.3396 18.968L22.3185 18.8944C22.2286 18.5657 22.1598 18.2321 22.2339 17.977C22.2921 17.7759 22.3767 17.6189 22.4455 17.4865L22.4983 17.3933C22.5301 17.3344 22.5565 17.2805 22.5565 17.2216C22.5565 17.2216 22.5565 17.2019 22.5618 17.1823C22.5512 17.1284 22.5142 17.0646 22.4507 16.991C22.3344 16.8439 22.255 16.7801 22.1915 16.731C22.0382 16.6084 21.9483 16.5642 21.8531 16.0884C21.832 16.0884 21.8055 16.0835 21.7791 16.0835C21.6944 16.0884 21.5992 16.0982 21.504 16.108C21.3348 16.1276 21.1656 16.1424 21.0386 16.1326C20.9487 16.1227 20.8747 16.0982 20.8165 16.0688C20.7636 16.0393 20.6949 15.9755 20.6473 15.8578C20.5679 15.6665 20.5044 15.2348 20.478 14.9159C20.4568 14.6265 20.4092 14.5235 20.2876 14.494C20.2823 14.494 20.166 14.4842 20.1343 14.4793C19.9333 14.4548 19.7164 14.4254 19.4996 14.2831C18.8438 13.8416 18.5106 13.8023 18.2303 13.7729L18.225 13.768C18.0716 13.7533 17.9341 13.7337 17.7755 13.6797C16.9663 13.3903 16.9557 12.7525 16.9769 12.2522C16.9769 12.2522 16.9927 12.0363 16.9769 11.9627C16.8499 11.9431 16.7283 11.948 16.612 11.9725C16.6067 11.9774 16.4797 12.0069 16.4692 12.0118C16.4321 12.0265 16.4216 12.0314 16.4216 12.0314C16.2153 12.1295 16.0196 12.2914 15.8292 12.517C15.7288 12.6348 15.5701 12.7182 15.3691 12.7623C15.147 12.8114 14.8402 12.8114 14.5758 12.8261C14.3008 12.8457 13.8195 12.8752 13.7243 12.8654C13.6133 12.8506 13.5234 12.8114 13.4546 12.7427C13.3858 12.6839 13.333 12.6004 13.3118 12.4729C13.2906 12.3601 13.2959 12.2031 13.3435 11.9676C13.1478 12.0804 12.9204 12.1884 12.6983 12.1884C12.2593 12.1884 11.7516 11.9088 11.5559 11.7567C11.4607 11.6831 11.4131 11.6095 11.4026 11.5801C11.3867 11.5261 11.3761 11.4526 11.4237 11.3495C11.429 11.3397 11.4396 11.32 11.4343 11.2955C11.429 11.2514 11.392 11.1974 11.3179 11.1287C11.0271 10.8393 10.9583 10.5107 11.0217 10.2359C11.0059 10.3046 11.0165 10.2359 11.0376 10.1623C11.1117 9.92687 11.2809 9.73552 11.4871 9.64231C11.4131 9.40193 11.3708 9.05363 11.7886 8.72495C12.6824 8.02835 13.2272 8.04798 13.5921 8.05779C13.682 8.05779 13.756 8.07249 13.8195 8.04306C13.8512 8.02834 13.8777 7.98911 13.9041 7.93515C13.9623 7.83703 14.0099 7.6899 14.068 7.48386C14.2108 6.93933 14.2743 6.60079 14.2902 6.38494C14.2955 6.30645 14.2849 6.22796 14.2796 6.20834L14.2584 6.19367C14.2003 6.16914 14.1421 6.13476 14.0892 6.0857C13.9887 6.0023 13.8883 5.86987 13.8407 5.73251C13.7984 5.61477 13.7984 5.49215 13.8407 5.38422C13.8936 5.24196 14.0417 5.09477 14.3801 5.06043H14.3695C14.1897 5.031 14.0892 4.94759 14.0364 4.85928C13.9729 4.74645 13.9729 4.614 14.068 4.48645C14.1632 4.36381 14.396 4.22648 14.7821 4.27063C15.0412 4.30497 15.2369 4.24118 15.3955 4.19703C15.6282 4.12835 15.8187 4.10386 15.972 4.17254C16.1201 4.23631 16.2047 4.33442 16.2999 4.47669C16.374 4.57971 16.4639 4.71702 16.6807 4.85928C16.8711 4.98193 17.0456 4.9525 17.2096 4.86911C17.3524 4.79061 17.4793 4.67288 17.601 4.56005C17.7702 4.40306 17.9976 4.27064 18.2092 4.16272C17.9818 4.09404 17.8812 3.98117 17.8336 3.87815C17.7702 3.73589 17.8072 3.55928 17.876 3.38758L17.9077 3.27476C17.8283 3.2208 17.786 3.17173 17.7649 3.13739C17.712 3.05399 17.7173 2.98044 17.7385 2.92157C17.7596 2.85289 17.8178 2.76949 17.9606 2.73515C18.0452 2.71553 18.262 2.73027 18.4947 2.7597C18.6269 2.77442 18.7645 2.78911 18.8809 2.79402C19.0395 2.79892 19.1506 2.74498 19.2722 2.69102C19.5102 2.588 19.7641 2.48009 20.1924 2.51933C20.2506 2.52914 20.2929 2.50457 20.3247 2.47514C20.3776 2.43589 20.4199 2.38682 20.4622 2.33776C20.6473 2.12682 20.8482 1.96007 21.1444 2.00912C21.4353 2.04837 21.504 2.24951 21.4882 2.51442C21.4882 2.53895 21.4882 2.61742 21.4882 2.61742C21.6151 2.64685 21.6944 2.7057 21.742 2.77438C21.7843 2.83815 21.8108 2.92155 21.8002 3.02457C21.7896 3.11287 21.742 3.23556 21.6838 3.37782C21.6362 3.48575 21.5834 3.61329 21.5516 3.74575C21.5199 3.90273 21.5252 4.07442 21.6627 4.22649C21.8689 4.44725 22.0805 4.50118 22.0858 4.50118C22.3344 4.50118 22.5142 4.36874 22.6675 4.27063C22.8368 4.1627 22.9849 4.07929 23.1224 4.06457C23.2599 4.04985 23.4873 4.07933 23.7147 4.11367C23.7359 4.11858 23.7623 4.12344 23.7887 4.12834C23.7517 4.03023 23.757 3.95175 23.7782 3.88797C23.8099 3.78986 23.884 3.70647 24.0109 3.65251C24.233 3.54949 24.6984 3.56423 24.9153 3.6182C24.9787 3.63782 25.0475 3.67214 25.1268 3.72611C25.148 3.73592 25.222 3.79479 25.222 3.79479C25.3278 3.88309 25.4547 4.00079 25.6504 4.00079C25.772 4.0057 25.8673 4.04989 25.9466 4.10876C26.0312 4.02046 26.3115 3.57891 26.3115 3.57891C26.3855 3.45136 26.687 2.96571 26.9514 2.7842C27.1312 2.65665 27.3164 2.64192 27.4592 2.7106C27.4592 2.7106 27.4592 2.7106 27.4645 2.7106C27.5702 2.76947 27.6918 2.89705 27.7447 3.17667C27.8135 3.56422 27.8822 3.81933 27.9722 3.99103C28.025 4.09896 28.0726 4.16268 28.1414 4.18721C28.4217 4.29513 28.5169 4.52084 28.4535 4.78084C28.4111 4.95744 28.2789 5.15856 28.0779 5.32045C28.0197 5.3695 27.9616 5.41853 27.914 5.47249C27.9616 5.46268 28.0197 5.4676 28.0938 5.48231C28.1625 5.49212 28.2736 5.51175 28.4851 5.48231C28.9347 5.41854 29.2415 5.55589 29.3896 5.72269C29.416 5.75212 29.4372 5.78159 29.4583 5.81593C29.5006 5.7963 29.7122 5.78646 29.7122 5.78646C29.9819 5.78646 30.3785 5.79135 30.8916 6.01701C30.9074 6.02192 31.0238 6.07594 31.0238 6.07594C31.2036 6.16424 31.4151 6.21815 31.5896 6.2623L32.0022 6.4144C32.0498 6.45365 32.1027 6.49291 32.1503 6.55669C32.2137 6.64008 32.2825 6.77745 32.3037 7.05707C32.3566 7.01783 32.4623 6.94419 32.4623 6.94419C32.6686 6.81174 32.8801 6.77251 33.0493 6.84119C33.4037 6.98346 33.996 6.98839 33.996 6.98839C34.0119 6.98839 34.435 7.01288 34.435 7.01288C34.4508 7.01288 35.1543 7.07179 35.461 7.17971C35.8577 7.32688 36.1168 7.55254 36.4447 7.84688L36.725 8.09707C37.0371 8.36688 37.328 8.47481 37.5818 8.52877C37.6083 8.53368 37.7088 8.54836 37.7246 8.54836C37.7405 8.54836 37.9573 8.57782 37.9573 8.57782C37.9573 8.57782 38.1636 8.59742 38.2482 8.62195C38.4703 8.68082 38.6078 8.78877 38.6554 9.01443C38.7083 9.25971 38.7824 9.46085 38.8405 9.63255C38.8828 9.74047 38.9145 9.83367 38.941 9.92688C38.941 9.92688 38.9569 9.98084 38.9569 9.98574C39.015 10.2114 39.0203 10.4076 38.9357 10.6185C38.9304 10.6283 38.867 10.7706 38.8458 10.8295C38.7559 11.0404 38.6554 11.2906 38.465 11.5604C38.465 11.5604 38.4016 11.6487 38.3857 11.6634C38.1953 11.9038 37.9308 12.1589 37.5395 12.4042C37.5342 12.4091 37.4919 12.4337 37.4919 12.4337C37.201 12.6348 36.9895 13.0174 36.9895 13.0174C36.9895 13.0174 36.7039 13.5914 36.5822 13.7189V13.7239C36.4923 13.8171 36.3971 13.8514 36.3019 13.8612C36.2226 13.8661 36.138 13.8514 36.0534 13.817C36.0269 13.9691 36.011 14.2193 36.011 14.6019C36.011 15.9853 35.8312 16.8537 35.4716 17.3197C35.4346 17.3737 35.461 17.4767 35.461 17.5307Z" fill="white"/>
</svg>
