<svg width="35" height="20" viewBox="0 0 35 20" fill="none" xmlns="http://www.w3.org/2000/svg">
<path d="M13.4921 0.000353932C13.4568 -0.000118295 13.4214 -0.00011766 13.3861 0.000353932H13.3427C12.2868 -0.00437295 11.2718 0.409076 10.5184 1.15084C9.764 1.89355 9.33321 2.90515 9.31994 3.965C9.31987 3.97058 9.31983 3.97616 9.31983 3.98174V4.81515H5.31783C4.45557 4.81515 3.62862 5.15853 3.0189 5.76974C2.40918 6.38096 2.06665 7.20995 2.06665 8.07434V10.0002C2.06665 10.0183 2.06702 10.0365 2.06776 10.0546C2.08181 10.8993 2.42264 11.7064 3.01956 12.3048C3.05361 12.3389 3.08834 12.3722 3.12372 12.4047C3.06189 12.5585 3.02787 12.7266 3.02787 12.9026V16.7408C3.02787 17.6052 3.3704 18.4342 3.98011 19.0454C4.58983 19.6566 5.41678 20 6.27905 20H27.8542C28.7165 20 29.5435 19.6566 30.1532 19.0454C30.7629 18.4342 31.1054 17.6052 31.1054 16.7408V12.9026C31.1054 12.7266 31.0714 12.5585 31.0096 12.4047C31.045 12.3722 31.0797 12.3389 31.1137 12.3048C31.7107 11.7064 32.0515 10.8993 32.0655 10.0546C32.0663 10.0365 32.0667 10.0183 32.0667 10.0002V8.07434C32.0667 7.20995 31.7241 6.38096 31.1144 5.76974C30.5043 5.15819 29.6766 4.81515 28.8148 4.81515H24.8135V3.98174C24.8135 3.97616 24.8134 3.97058 24.8134 3.965C24.8001 2.90515 24.3693 1.89355 23.615 1.15084C22.8615 0.409075 21.8465 -0.00437295 20.7906 0.000353932H20.7472C20.7119 -0.00011766 20.6765 -0.000118295 20.6412 0.000353932H17.5012C17.4893 0.000300502 17.4774 0.000300458 17.4654 0.000353932H17.422C17.3867 -0.00011766 17.3514 -0.000118295 17.316 0.000353932H16.8173C16.7819 -0.000118295 16.7466 -0.00011766 16.7113 0.000353932H16.6679C16.6559 0.000300458 16.644 0.000300502 16.6321 0.000353932H13.4921Z" fill="black"/>
<path d="M12.382 2.92882C12.6605 2.64946 13.0375 2.4914 13.4314 2.48887H17.3684C17.7623 2.4914 18.1393 2.64946 18.4178 2.92882C18.6963 3.20818 18.8539 3.58635 18.8564 3.98141V5.18507H20.1512V3.98141C20.1423 3.27352 19.8548 2.59785 19.3512 2.10178C18.8477 1.60571 18.169 1.32949 17.4632 1.33336H17.4069C17.3781 1.33289 17.3493 1.33289 17.3205 1.33336H13.4794C13.4505 1.33289 13.4217 1.33289 13.3929 1.33336H13.3366C12.6308 1.32949 11.9521 1.60571 11.4486 2.10178C10.945 2.59785 10.6575 3.27352 10.6486 3.98141V5.18507H11.9434V3.98141C11.9459 3.58635 12.1035 3.20818 12.382 2.92882Z" fill="white"/>
<path d="M17.3199 13.9474C17.5745 13.9474 17.8187 13.846 17.9987 13.6654C18.1788 13.4848 18.2799 13.2399 18.2799 12.9845V12.0216C18.2799 11.7662 18.1788 11.5213 17.9987 11.3407C17.8187 11.1601 17.5745 11.0587 17.3199 11.0587H13.48C13.2254 11.0587 12.9811 11.1601 12.8011 11.3407C12.621 11.5213 12.5199 11.7662 12.5199 12.0216V12.9845C12.5199 13.2399 12.621 13.4848 12.8011 13.6654C12.9811 13.846 13.2253 13.9474 13.4799 13.9474H17.3199Z" fill="white"/>
<path d="M3.40061 10.0148C3.40036 10.0098 3.40012 10.0048 3.3999 9.99986V8.07401C3.3999 7.56324 3.60218 7.07339 3.96224 6.71223C4.3223 6.35106 4.81065 6.14816 5.31985 6.14816H25.4793C25.9885 6.14816 26.4775 6.35106 26.8376 6.71223C27.1976 7.07339 27.3999 7.56324 27.3999 8.07401V9.99986C27.3997 10.0048 27.3994 10.0098 27.3992 10.0148C27.3953 10.5201 27.1935 11.004 26.8369 11.3616C26.4768 11.7228 25.9885 11.9257 25.4793 11.9257H19.2401C19.2155 11.4318 19.0017 10.9664 18.6443 10.6258C18.2876 10.2859 17.8146 10.0964 17.3227 10.0962H17.3202H13.4803L13.4771 10.0962C12.9852 10.0964 12.5122 10.2859 12.1555 10.6258C11.7981 10.9664 11.585 11.4318 11.5603 11.9257H5.3205C4.8113 11.9257 4.32296 11.7228 3.9629 11.3616C3.60634 11.004 3.40451 10.5201 3.40061 10.0148Z" fill="white"/>
<path d="M6.28048 18.6663C5.77128 18.6663 5.28293 18.4634 4.92287 18.1023C4.56281 17.7411 4.36053 17.2513 4.36053 16.7405V12.9023C6.98102 12.9023 9.03529 12.9023 11.5597 12.9023V12.8888L11.5603 12.9369C11.5603 13.4477 11.7626 13.9375 12.1227 14.2987C12.4827 14.6599 12.9711 14.8628 13.4803 14.8628H17.3195C17.8287 14.8628 18.3171 14.6599 18.6771 14.2987C19.0372 13.9375 19.2395 13.4477 19.2395 12.9369V12.8888L19.2401 12.9023C21.7645 12.9023 23.8188 12.9023 26.4393 12.9023V16.7405C26.4393 17.2513 26.237 17.7411 25.8769 18.1023C25.5169 18.4634 25.0285 18.6663 24.5193 18.6663H6.28048Z" fill="white"/>
</svg>
