<svg width="55" height="30" viewBox="0 0 55 30" fill="none" xmlns="http://www.w3.org/2000/svg">
<path d="M39.9655 3.07848C39.7345 1.40398 38.3765 0.0944779 36.6855 0.00547791C36.6235 0.00247791 31.5615 0.000976562 31.5 0.000976562C30.5655 0.000976562 29.686 0.364978 29.0255 1.02598C28.4835 1.56798 28.1415 2.25548 28.0355 3.00098H26.954C26.6925 1.36398 25.3505 0.0929779 23.6855 0.00547791C23.6235 0.00247791 18.5615 0.000976562 18.5 0.000976562C17.5655 0.000976562 16.6865 0.364978 16.0255 1.02598C15.4645 1.58698 15.1175 2.30448 15.025 3.07998C12.1785 3.54698 10 6.02448 10 9.00098V24.001C10 27.309 12.692 30.001 16 30.001H39C42.3085 30.001 45 27.309 45 24.001V9.00098C45 6.02098 42.8165 3.54148 39.9655 3.07848Z" fill="black"/>
<path fill-rule="evenodd" clip-rule="evenodd" d="M14.5 11.0011H35.5C35.776 11.0011 36 10.7771 36 10.5011V9.00107C36 7.89657 35.1045 7.00107 34 7.00107H16C14.8955 7.00107 14 7.89657 14 9.00107V10.5011C14 10.7771 14.224 11.0011 14.5 11.0011ZM33 5.00107H34C36.209 5.00107 38 6.79207 38 9.00107V24.0011C38 26.2101 36.209 28.0011 34 28.0011H16C13.791 28.0011 12 26.2101 12 24.0011V9.00107C12 6.79207 13.791 5.00107 16 5.00107H17V3.50107C17 2.64607 17.7155 1.95807 18.581 2.00307C19.392 2.04557 20 2.77357 20 3.58607V5.00107H30V3.50107C30 2.64607 30.7155 1.95807 31.5805 2.00307C32.392 2.04557 33 2.77357 33 3.58607V5.00107ZM23.9222 15.001H23.0531L20.0565 22.991H20.9255L23.9222 15.001ZM17.1647 21.476H16.3706V22.846H19.612V21.476H18.8129V15.256L18.0887 15.246L16.001 16.476V18.216L17.1647 17.521V21.476ZM24.6813 21.476H25.4754V17.521L24.3117 18.216V16.476L26.3994 15.246L27.1236 15.256V21.476H27.9227V22.846H24.6813V21.476ZM30.8745 18.066C30.6913 18.106 30.5198 18.156 30.36 18.216V16.796H33.7263V15.266H28.9166V19.301L30.2701 19.551C30.4333 19.4743 30.5931 19.416 30.7496 19.376C30.9094 19.3326 31.0975 19.311 31.314 19.311C31.4838 19.311 31.6386 19.341 31.7784 19.401C31.9183 19.461 32.0382 19.541 32.138 19.641C32.2379 19.741 32.3145 19.856 32.3678 19.986C32.4211 20.116 32.4477 20.2493 32.4477 20.386C32.4477 20.5493 32.4211 20.701 32.3678 20.841C32.3178 20.981 32.2463 21.1043 32.153 21.211C32.0598 21.3143 31.9466 21.396 31.8134 21.456C31.6802 21.516 31.5337 21.546 31.3739 21.546C31.2307 21.546 31.0959 21.5226 30.9693 21.476C30.8461 21.4293 30.7363 21.3626 30.6397 21.276C30.5465 21.1893 30.4682 21.0843 30.405 20.961C30.3417 20.8376 30.3001 20.6976 30.2801 20.541L28.7368 20.961C28.7968 21.301 28.9066 21.5993 29.0665 21.856C29.2296 22.1093 29.4277 22.321 29.6608 22.491C29.8939 22.661 30.1553 22.7876 30.4449 22.871C30.7379 22.9576 31.0476 23.001 31.3739 23.001C31.7035 23.001 32.0248 22.946 32.3378 22.836C32.6541 22.726 32.9355 22.5626 33.1819 22.346C33.4283 22.1293 33.6264 21.861 33.7762 21.541C33.9261 21.2176 34.001 20.8443 34.001 20.421C34.001 20.0276 33.9327 19.681 33.7962 19.381C33.6597 19.081 33.4749 18.8293 33.2418 18.626C33.0121 18.4193 32.744 18.2643 32.4377 18.161C32.1347 18.0543 31.8134 18.001 31.4738 18.001C31.2607 18.001 31.0609 18.0226 30.8745 18.066Z" fill="white"/>
</svg>
