<svg width="55" height="30" viewBox="0 0 55 30" fill="none" xmlns="http://www.w3.org/2000/svg">
<path d="M39.9655 3.07848C39.7345 1.40398 38.3765 0.0944779 36.6855 0.00547791C36.6235 0.00247791 31.5615 0.000976562 31.5 0.000976562C30.5655 0.000976562 29.686 0.364978 29.0255 1.02598C28.4835 1.56798 28.1415 2.25548 28.0355 3.00098H26.954C26.6925 1.36398 25.3505 0.0929779 23.6855 0.00547791C23.6235 0.00247791 18.5615 0.000976562 18.5 0.000976562C17.5655 0.000976562 16.6865 0.364978 16.0255 1.02598C15.4645 1.58698 15.1175 2.30448 15.025 3.07998C12.1785 3.54698 10 6.02448 10 9.00098V24.001C10 27.309 12.692 30.001 16 30.001H39C42.3085 30.001 45 27.309 45 24.001V9.00098C45 6.02098 42.8165 3.54148 39.9655 3.07848Z" fill="black"/>
<path fill-rule="evenodd" clip-rule="evenodd" d="M14.5 11.0011H35.5C35.776 11.0011 36 10.7771 36 10.5011V9.00107C36 7.89657 35.1045 7.00107 34 7.00107H16C14.8955 7.00107 14 7.89657 14 9.00107V10.5011C14 10.7771 14.224 11.0011 14.5 11.0011ZM33 5.00107H34C36.209 5.00107 38 6.79207 38 9.00107V24.0011C38 26.2101 36.209 28.0011 34 28.0011H16C13.791 28.0011 12 26.2101 12 24.0011V9.00107C12 6.79207 13.791 5.00107 16 5.00107H17V3.50107C17 2.64607 17.7155 1.95807 18.581 2.00307C19.392 2.04557 20 2.77357 20 3.58607V5.00107H30V3.50107C30 2.64607 30.7155 1.95807 31.5805 2.00307C32.392 2.04557 33 2.77357 33 3.58607V5.00107ZM18.3485 17.4268C18.1168 17.9135 18.001 18.4382 18.001 19.001C18.001 19.3761 18.0574 19.7361 18.1703 20.0808C18.2772 20.4256 18.4287 20.7475 18.6248 21.0466C18.8208 21.3406 19.0555 21.6093 19.3288 21.8527C19.6021 22.091 19.8962 22.2963 20.211 22.4687C20.5318 22.636 20.8705 22.7678 21.2269 22.8641C21.5834 22.9553 21.9458 23.001 22.3142 23.001C22.9439 23.001 23.5172 22.8742 24.0341 22.6207C24.3963 22.4451 24.7186 22.2269 25.001 21.9661C25.2833 22.2269 25.6056 22.4451 25.9679 22.6207C26.4847 22.8742 27.0581 23.001 27.6878 23.001C28.0561 23.001 28.4185 22.9553 28.775 22.8641C29.1315 22.7678 29.4701 22.636 29.7909 22.4687C30.1058 22.2963 30.3999 22.091 30.6732 21.8527C30.9464 21.6093 31.1811 21.3406 31.3772 21.0466C31.5732 20.7475 31.7247 20.4256 31.8317 20.0808C31.9445 19.7361 32.001 19.3761 32.001 19.001C32.001 18.4382 31.8851 17.9135 31.6534 17.4268C31.4158 16.9351 31.0979 16.5117 30.6999 16.1569C30.2959 15.7969 29.8325 15.5156 29.3097 15.3128C28.7869 15.1049 28.2344 15.001 27.6522 15.001C27.0402 15.001 26.4818 15.1252 25.9768 15.3736C25.6122 15.5509 25.2869 15.7733 25.001 16.0409C24.715 15.7733 24.3898 15.5509 24.0252 15.3736C23.5202 15.1252 22.9617 15.001 22.3498 15.001C21.7676 15.001 21.2151 15.1049 20.6923 15.3128C20.1694 15.5156 19.706 15.7969 19.3021 16.1569C18.904 16.5117 18.5862 16.9351 18.3485 17.4268ZM29.3008 18.4078C29.384 18.5903 29.4255 18.788 29.4255 19.001C29.4255 19.2139 29.384 19.4142 29.3008 19.6017C29.2176 19.7842 29.1047 19.9439 28.9621 20.0808C28.8196 20.2177 28.6532 20.3242 28.4631 20.4002C28.2789 20.4763 28.0829 20.5143 27.8749 20.5143C27.6729 20.5143 27.4799 20.4763 27.2957 20.4002C27.1175 20.3242 26.96 20.2177 26.8234 20.0808C26.6867 19.9439 26.5768 19.7842 26.4937 19.6017C26.4164 19.4142 26.3778 19.2139 26.3778 19.001C26.3778 18.788 26.4164 18.5903 26.4937 18.4078C26.5768 18.2202 26.6867 18.058 26.8234 17.9211C26.96 17.7842 27.1175 17.6752 27.2957 17.5941C27.4799 17.513 27.6729 17.4725 27.8749 17.4725C28.0829 17.4725 28.2789 17.513 28.4631 17.5941C28.6532 17.6752 28.8196 17.7842 28.9621 17.9211C29.1047 18.058 29.2176 18.2202 29.3008 18.4078ZM22.127 20.5143C22.329 20.5143 22.5221 20.4763 22.7063 20.4002C22.8845 20.3242 23.0419 20.2177 23.1786 20.0808C23.3152 19.9439 23.4251 19.7842 23.5083 19.6017C23.5855 19.4142 23.6241 19.2139 23.6241 19.001C23.6241 18.788 23.5855 18.5903 23.5083 18.4078C23.4251 18.2202 23.3152 18.058 23.1786 17.9211C23.0419 17.7842 22.8845 17.6752 22.7063 17.5941C22.5221 17.513 22.329 17.4725 22.127 17.4725C21.9191 17.4725 21.723 17.513 21.5388 17.5941C21.3487 17.6752 21.1824 17.7842 21.0398 17.9211C20.8972 18.058 20.7843 18.2202 20.7012 18.4078C20.6183 18.5896 20.5767 18.7865 20.5764 18.9985L20.5764 19.001L20.5764 19.0035C20.5767 19.2155 20.6183 19.4149 20.7012 19.6017C20.7843 19.7842 20.8972 19.9439 21.0398 20.0808C21.1824 20.2177 21.3487 20.3242 21.5388 20.4002C21.723 20.4763 21.9191 20.5143 22.127 20.5143Z" fill="white"/>
</svg>
