<svg width="55" height="30" viewBox="0 0 55 30" fill="none" xmlns="http://www.w3.org/2000/svg">
<path d="M39.9655 3.07848C39.7345 1.40398 38.3765 0.0944779 36.6855 0.00547791C36.6235 0.00247791 31.5615 0.000976562 31.5 0.000976562C30.5655 0.000976562 29.686 0.364978 29.0255 1.02598C28.4835 1.56798 28.1415 2.25548 28.0355 3.00098H26.954C26.6925 1.36398 25.3505 0.0929779 23.6855 0.00547791C23.6235 0.00247791 18.5615 0.000976562 18.5 0.000976562C17.5655 0.000976562 16.6865 0.364978 16.0255 1.02598C15.4645 1.58698 15.1175 2.30448 15.025 3.07998C12.1785 3.54698 10 6.02448 10 9.00098V24.001C10 27.309 12.692 30.001 16 30.001H39C42.3085 30.001 45 27.309 45 24.001V9.00098C45 6.02098 42.8165 3.54148 39.9655 3.07848Z" fill="black"/>
<path fill-rule="evenodd" clip-rule="evenodd" d="M14.5 11.0011H35.5C35.776 11.0011 36 10.7771 36 10.5011V9.00107C36 7.89657 35.1045 7.00107 34 7.00107H16C14.8955 7.00107 14 7.89657 14 9.00107V10.5011C14 10.7771 14.224 11.0011 14.5 11.0011ZM33 5.00107H34C36.209 5.00107 38 6.79207 38 9.00107V24.0011C38 26.2101 36.209 28.0011 34 28.0011H16C13.791 28.0011 12 26.2101 12 24.0011V9.00107C12 6.79207 13.791 5.00107 16 5.00107H17V3.50107C17 2.64607 17.7155 1.95807 18.581 2.00307C19.392 2.04557 20 2.77357 20 3.58607V5.00107H30V3.50107C30 2.64607 30.7155 1.95807 31.5805 2.00307C32.392 2.04557 33 2.77357 33 3.58607V5.00107ZM25.9174 20.8851H25.4933V23.001H29.001V20.8851H28.2606L26.4421 18.9469L28.16 17.1168H28.9794V15.001H25.479V17.1168H25.8743L25.0405 17.9431L24.1708 17.1168H24.5086V15.001H21.001V17.1168H21.8779L23.5886 18.9392L21.7413 20.8851H21.001V23.001H24.5086V20.8851H24.027L24.9902 19.9353L25.9174 20.8851Z" fill="white"/>
</svg>
