<svg width="55" height="30" viewBox="0 0 55 30" fill="none" xmlns="http://www.w3.org/2000/svg">
<path d="M39.9655 3.07799C39.7345 1.40349 38.3765 0.0939896 36.6855 0.00498962C36.6235 0.00198962 31.5615 0.000488281 31.5 0.000488281C30.5655 0.000488281 29.686 0.36449 29.0255 1.02549C28.4835 1.56749 28.1415 2.25499 28.0355 3.00049H26.954C26.6925 1.36349 25.3505 0.0924896 23.6855 0.00498962C23.6235 0.00198962 18.5615 0.000488281 18.5 0.000488281C17.5655 0.000488281 16.6865 0.36449 16.0255 1.02549C15.4645 1.58649 15.1175 2.30399 15.025 3.07949C12.1785 3.54649 10 6.02399 10 9.00049V24.0005C10 27.3085 12.692 30.0005 16 30.0005H39C42.3085 30.0005 45 27.3085 45 24.0005V9.00049C45 6.02049 42.8165 3.54099 39.9655 3.07799Z" fill="black"/>
<path d="M35.499 11.0006H14.499C14.223 11.0006 13.999 10.7766 13.999 10.5006V9.00058C13.999 7.89608 14.8945 7.00058 15.999 7.00058H33.999C35.1035 7.00058 35.999 7.89608 35.999 9.00058V10.5006C35.999 10.7766 35.775 11.0006 35.499 11.0006ZM33.999 15.2506C33.999 15.6651 33.6635 16.0006 33.249 16.0006H31.749C31.3345 16.0006 30.999 15.6651 30.999 15.2506V13.7506C30.999 13.3361 31.3345 13.0006 31.749 13.0006H33.249C33.6635 13.0006 33.999 13.3361 33.999 13.7506V15.2506ZM33.999 20.2506C33.999 20.6651 33.6635 21.0006 33.249 21.0006H31.749C31.3345 21.0006 30.999 20.6651 30.999 20.2506V18.7506C30.999 18.3361 31.3345 18.0006 31.749 18.0006H33.249C33.6635 18.0006 33.999 18.3361 33.999 18.7506V20.2506ZM23.999 20.2506C23.999 20.6651 23.6635 21.0006 23.249 21.0006H21.749C21.3345 21.0006 20.999 20.6651 20.999 20.2506V18.7506C20.999 18.3361 21.3345 18.0006 21.749 18.0006H23.249C23.6635 18.0006 23.999 18.3361 23.999 18.7506V20.2506ZM23.999 25.2506C23.999 25.6651 23.6635 26.0006 23.249 26.0006H21.749C21.3345 26.0006 20.999 25.6651 20.999 25.2506V23.7506C20.999 23.3361 21.3345 23.0006 21.749 23.0006H23.249C23.6635 23.0006 23.999 23.3361 23.999 23.7506V25.2506ZM18.954 25.2506C18.954 25.6651 18.6185 26.0006 18.204 26.0006H16.704C16.29 26.0006 15.954 25.6651 15.954 25.2506V23.7506C15.954 23.3361 16.29 23.0006 16.704 23.0006H18.204C18.6185 23.0006 18.954 23.3361 18.954 23.7506V25.2506ZM33.999 5.00058H32.999V3.58558C32.999 2.77308 32.391 2.04508 31.5795 2.00258C30.7145 1.95758 29.999 2.64558 29.999 3.50058V5.00058H19.999V3.58558C19.999 2.77308 19.391 2.04508 18.58 2.00258C17.7145 1.95758 16.999 2.64558 16.999 3.50058V5.00058H15.999C13.79 5.00058 11.999 6.79158 11.999 9.00058V24.0006C11.999 26.2096 13.79 28.0006 15.999 28.0006H33.999C36.208 28.0006 37.999 26.2096 37.999 24.0006V9.00058C37.999 6.79158 36.208 5.00058 33.999 5.00058Z" fill="white"/>
</svg>
