<svg width="55" height="30" viewBox="0 0 55 30" fill="none" xmlns="http://www.w3.org/2000/svg">
<path d="M39.9655 3.07848C39.7345 1.40448 38.3765 0.0944776 36.6855 0.00597763C36.6235 0.00247763 31.5615 0.000976562 31.5 0.000976562C30.5655 0.000976562 29.686 0.364978 29.0255 1.02648C28.4835 1.56798 28.1415 2.25548 28.0355 3.00098H26.954C26.6925 1.36398 25.3505 0.0929776 23.6855 0.00597763C23.6235 0.00247763 18.5615 0.000976562 18.5 0.000976562C17.5655 0.000976562 16.6865 0.364978 16.0255 1.02648C15.4645 1.58698 15.1175 2.30448 15.025 3.07998C12.1785 3.54748 10 6.02448 10 9.00098V24.001C10 27.3095 12.692 30.001 16 30.001H39C42.3085 30.001 45 27.3095 45 24.001V9.00098C45 6.02098 42.8165 3.54148 39.9655 3.07848Z" fill="black"/>
<path fill-rule="evenodd" clip-rule="evenodd" d="M14.5 11.0011H35.5C35.776 11.0011 36 10.7771 36 10.5011V9.00107C36 7.89657 35.1045 7.00107 34 7.00107H16C14.8955 7.00107 14 7.89657 14 9.00107V10.5011C14 10.7771 14.224 11.0011 14.5 11.0011ZM33 5.00107H34C36.209 5.00107 38 6.79207 38 9.00107V24.0011C38 26.2101 36.209 28.0011 34 28.0011H16C13.791 28.0011 12 26.2101 12 24.0011V9.00107C12 6.79207 13.791 5.00107 16 5.00107H17V3.50107C17 2.64607 17.7155 1.95807 18.581 2.00307C19.392 2.04557 20 2.77356 20 3.58556V5.00107H30V3.50107C30 2.64607 30.7155 1.95807 31.5805 2.00307C32.392 2.04557 33 2.77356 33 3.58556V5.00107ZM25.1323 15.001H26.0111L22.9808 23.001H22.102L25.1323 15.001ZM18.3747 21.4841H19.1777V17.5241L18.001 18.22V16.4778L20.1121 15.2463L20.8444 15.2563V21.4841H21.6525V22.8558H18.3747V21.4841ZM27.8899 21.4841H27.3545V22.8558H30.0868V21.4841H29.5868C29.974 20.6197 30.373 19.7586 30.7838 18.9009C31.1979 18.0398 31.6037 17.2054 32.001 16.3977V15.2663H26.405V17.6893H27.8545V16.8283H29.9909L29.4909 17.9146C29.3192 18.2918 29.1424 18.6789 28.9606 19.0761C28.7821 19.4732 28.602 19.8754 28.4202 20.2826C28.2383 20.6898 28.0616 21.0903 27.8899 21.4841Z" fill="white"/>
</svg>
