<svg width="35" height="31" viewBox="0 0 35 31" fill="none" xmlns="http://www.w3.org/2000/svg">
<path fill-rule="evenodd" clip-rule="evenodd" d="M26.6855 0.00793076C28.3765 0.0964308 29.7345 1.40643 29.9655 3.08043C32.8165 3.54343 35 6.02293 35 9.00293V24.0029C35 27.3114 32.3085 30.0029 29 30.0029H6C2.692 30.0029 0 27.3114 0 24.0029V9.00293C0 6.02643 2.1785 3.54943 5.025 3.08193C5.1175 2.30643 5.4645 1.58893 6.0255 1.02843C6.6865 0.366931 7.5655 0.00292969 8.5 0.00292969C8.5615 0.00292969 13.6235 0.00443076 13.6855 0.00793076C15.3505 0.0949308 16.6925 1.36593 16.954 3.00293H18.0355C18.1415 2.25743 18.4835 1.56993 19.0255 1.02843C19.686 0.366931 20.5655 0.00292969 21.5 0.00292969C21.5615 0.00292969 26.6235 0.00443076 26.6855 0.00793076ZM4.49879 11.003H25.4988C25.7748 11.003 25.9988 10.779 25.9988 10.503V9.00303C25.9988 7.89853 25.1033 7.00303 23.9988 7.00303H5.99879C4.89429 7.00303 3.99879 7.89853 3.99879 9.00303V10.503C3.99879 10.779 4.22279 11.003 4.49879 11.003ZM22.9988 5.00303H23.9988C26.2078 5.00303 27.9988 6.79402 27.9988 9.00303V24.003C27.9988 26.212 26.2078 28.003 23.9988 28.003H5.99879C3.78979 28.003 1.99879 26.212 1.99879 24.003V9.00303C1.99879 6.79402 3.78979 5.00303 5.99879 5.00303H6.99879V3.50303C6.99879 2.64803 7.71429 1.96002 8.57979 2.00502C9.39079 2.04752 9.99879 2.77552 9.99879 3.58752V5.00303H19.9988V3.50303C19.9988 2.64803 20.7143 1.96002 21.5793 2.00502C22.3908 2.04752 22.9988 2.77552 22.9988 3.58752V5.00303Z" fill="black"/>
</svg>
