<svg width="43" height="34" viewBox="0 0 43 34" fill="none" xmlns="http://www.w3.org/2000/svg">
<path d="M38.3755 5.17167C38.2984 5.07124 38.2139 4.97448 38.1219 4.88238L36.0006 2.75919C36.0005 2.75913 36.0005 2.75906 36.0004 2.759C34.8688 1.62586 33.3583 1 31.7575 1H19.243C18.0473 1 16.9075 1.35443 15.9362 2.00088H8.5C6.42023 2.00088 4.67193 3.41795 4.15623 5.33463C2.31153 6.06956 1 7.86947 1 9.98055V27.9965C1 30.7554 3.24138 33 6 33H37C39.7592 33 42 30.7553 42 27.9965V9.98055C42 7.69626 40.4655 5.7706 38.3755 5.17167Z" fill="black" stroke="white" stroke-width="2" stroke-linejoin="round"/>
<path fill-rule="evenodd" clip-rule="evenodd" d="M34 9.9792C34 8.87355 33.105 7.97712 32 7.97712H6C4.8955 7.97712 4 8.87355 4 9.9792V27.9979C4 29.1036 4.8955 30 6 30H32C33.105 30 34 29.1036 34 27.9979V9.9792ZM32 11.0408C32 11.5713 31.571 12.0013 31.041 12.0013H27.9595C27.43 12.0013 27 11.5713 27 11.0408C27 10.5102 27.43 10.0803 27.9595 10.0803H31.041C31.571 10.0803 32 10.5102 32 11.0408ZM12 6.5026C12 5.67324 11.3285 5.00104 10.5 5.00104H8.5C7.6715 5.00104 7 5.67324 7 6.5026V7.00312H12V6.5026ZM31 7.00312L28.879 4.87991C28.316 4.31633 27.553 4 26.7575 4H19.2425C18.447 4 17.684 4.31633 17.1215 4.87991L15 7.00312H31ZM27 5.50156C27 5.77835 26.7765 6.00208 26.5 6.00208H19.5C19.224 6.00208 19 5.77835 19 5.50156C19 5.22527 19.224 5.00104 19.5 5.00104H26.5C26.7765 5.00104 27 5.22527 27 5.50156ZM10.0201 20.1471C10.0339 20.343 10.2198 20.4874 10.4244 20.469L10.505 20.4617C10.7993 20.3243 11.1281 20.2454 11.476 20.2454C11.6425 20.2454 11.8069 20.27 11.9689 20.3056C12.1008 20.2437 12.1856 20.11 12.1763 19.9605C12.1683 19.8321 12.1638 19.7026 12.1638 19.5728C12.1638 17.8749 12.8544 16.2791 14.1078 15.079C14.984 14.2399 16.0619 13.6649 17.2368 13.3946C17.4618 13.343 17.6833 13.4898 17.7003 13.7106L17.7349 14.1631C17.757 14.4545 18.1198 14.5951 18.3483 14.4002L20.7835 12.3225C20.9645 12.1681 20.9431 11.8916 20.7399 11.7645L18.016 10.0583C17.7605 9.8984 17.4237 10.0877 17.4462 10.3789L17.487 10.9161C17.5009 11.0968 17.3679 11.2539 17.1817 11.2872C16.5631 11.3973 15.9594 11.571 15.3748 11.8078C14.3266 12.2325 13.3858 12.8397 12.5778 13.6134C11.7699 14.387 11.1354 15.2884 10.692 16.2919C10.2326 17.3318 10 18.4353 10 19.5728C10 19.7653 10.0066 19.9567 10.0201 20.1471ZM27.7921 23.0506L27.285 22.8153C27.1147 22.7363 27.0392 22.5484 27.1022 22.3777C27.4338 21.4794 27.6021 20.5379 27.6021 19.5725C27.6021 18.4353 27.3691 17.3314 26.9098 16.2923C26.4663 15.2884 25.8322 14.3874 25.0242 13.6137C24.3306 12.9494 23.5385 12.4077 22.6648 11.9989C22.5717 11.9553 22.4686 11.9553 22.3782 11.9885C22.4011 12.5174 22.1816 13.02 21.7662 13.3749L21.5471 13.5614C21.5481 13.6923 21.6257 13.8169 21.7572 13.8799C22.893 14.4216 23.8736 15.2829 24.5746 16.4176C24.8619 16.8828 25.0793 17.3879 25.2184 17.9119C25.5327 19.0993 25.5026 20.2824 25.1703 21.368C25.1052 21.5805 24.8602 21.6903 24.6518 21.5937L24.226 21.396C23.9508 21.2683 23.642 21.4981 23.7037 21.7844L24.2662 24.392C24.3645 24.8472 24.8882 25.0885 25.3219 24.8787L27.7977 23.6824C28.0701 23.5508 28.0666 23.178 27.7921 23.0506ZM23.8054 26.0716L23.7421 25.9861C23.3385 25.7206 23.0314 25.3325 22.8815 24.8694C22.7597 24.7922 22.5966 24.7897 22.4665 24.8728C21.3889 25.5592 20.1244 25.9279 18.801 25.9279C17.028 25.9279 15.3616 25.2667 14.1078 24.0666C14.0666 24.0268 14.0258 23.987 13.986 23.9465C13.8292 23.7883 13.8586 23.5332 14.0473 23.4106L14.4388 23.1569C14.6915 22.9928 14.6378 22.6228 14.3477 22.5304L11.7093 21.6923C11.2482 21.5456 10.7674 21.8578 10.7397 22.3216L10.5829 24.9736C10.5656 25.265 10.9055 25.4492 11.1582 25.2854L11.6217 24.9843C11.7796 24.8822 11.9901 24.9137 12.114 25.0521C12.2614 25.2169 12.4158 25.3768 12.5778 25.5319C13.3858 26.3052 14.3266 26.9131 15.3748 27.3375C16.4603 27.7771 17.613 28 18.801 28C19.9884 28 21.1411 27.7771 22.227 27.3375C22.7517 27.1249 23.2495 26.8663 23.7172 26.5641C23.8864 26.4551 23.9235 26.2308 23.8054 26.0716Z" fill="white"/>
</svg>
