<svg width="56" height="30" viewBox="0 0 56 30" fill="none" xmlns="http://www.w3.org/2000/svg">
<path d="M44.2891 4.05254C44.1985 3.8854 44.0844 3.72926 43.9458 3.59064L41.8224 1.46726C40.8776 0.521925 39.6205 0.00146484 38.2838 0.00146484H25.7582C24.6638 0.00146484 23.6264 0.356779 22.7661 1.00235H15.0057C13.2107 1.00235 11.7284 2.36105 11.5277 4.10359C9.79114 4.54148 8.5 6.11136 8.5 7.98202V25.9979C8.5 28.2054 10.2961 30.0015 12.5035 30.0015H43.5309C45.7389 30.0015 47.5345 28.2054 47.5345 25.9979V7.98202C47.5345 6.03329 46.1352 4.40786 44.2891 4.05254Z" fill="black"/>
<path fill-rule="evenodd" clip-rule="evenodd" d="M38.5263 5.98189C39.6323 5.98189 40.5281 6.87819 40.5281 7.98367V25.9997C40.5281 27.1051 39.6323 28.0014 38.5263 28.0014H12.5032C11.3978 28.0014 10.5015 27.1051 10.5015 25.9997V7.98367C10.5015 6.87819 11.3978 5.98189 12.5032 5.98189H38.5263ZM37.5665 10.0055C38.097 10.0055 38.5263 9.57557 38.5263 9.0451C38.5263 8.51463 38.097 8.08474 37.5665 8.08474H34.4823C33.9523 8.08474 33.5219 8.51463 33.5219 9.0451C33.5219 9.57557 33.9523 10.0055 34.4823 10.0055H37.5665ZM25.5148 25.7024C30.3186 25.7024 34.226 21.7949 34.226 16.9917C34.226 12.1884 30.3186 8.28093 25.5148 8.28093C20.712 8.28093 16.8041 12.1884 16.8041 16.9917C16.8041 21.7949 20.712 25.7024 25.5148 25.7024ZM25.5148 10.0325C29.3582 10.0325 32.4745 13.1478 32.4745 16.9917C32.4745 20.8351 29.3582 23.9508 25.5148 23.9508C21.6714 23.9508 18.5556 20.8351 18.5556 16.9917C18.5556 13.1478 21.6714 10.0325 25.5148 10.0325ZM26.4796 22.8944C29.0309 22.4955 31.0687 20.4202 31.4315 17.8634C31.6407 16.3901 31.3094 15.0044 30.6098 13.8699C30.4547 13.6187 30.0663 13.8063 30.1634 14.0851C30.4557 14.9268 30.5653 15.8541 30.4437 16.819C30.1149 19.4338 28.0295 21.5672 25.4227 21.9551C24.5164 22.0902 23.6436 22.0191 22.8414 21.7829C22.5642 21.7018 22.3975 22.1012 22.6508 22.2398C23.7602 22.8469 25.0834 23.1131 26.4796 22.8944ZM17.0072 3.00626C17.8365 3.00626 18.5086 3.67836 18.5086 4.50759V5.00804H13.5041V4.50759C13.5041 3.67836 14.1762 3.00626 15.0055 3.00626H17.0072ZM35.4026 2.88515L37.5254 5.00804H21.5112L23.6346 2.88515C24.1976 2.32165 24.9613 2.00537 25.7575 2.00537H33.2792C34.0754 2.00537 34.8391 2.32165 35.4026 2.88515ZM33.0215 4.00715C33.2982 4.00715 33.5219 3.78345 33.5219 3.5067C33.5219 3.23046 33.2982 3.00626 33.0215 3.00626H26.0152C25.739 3.00626 25.5148 3.23046 25.5148 3.5067C25.5148 3.78345 25.739 4.00715 26.0152 4.00715H33.0215Z" fill="white"/>
</svg>
