<svg width="55" height="31" viewBox="0 0 55 31" fill="none" xmlns="http://www.w3.org/2000/svg">
<path d="M36.6658 30.4302C37.4269 30.4149 38.1834 30.1174 38.7644 29.5379L46.976 21.3467C48.1695 20.1562 48.1695 18.2266 46.976 17.036L31.2993 1.39828C30.7035 0.803979 29.9231 0.506347 29.1423 0.505386C24.4733 0.499638 22.8036 0.499376 18.1346 0.505386C17.3539 0.506391 16.5736 0.804022 15.9778 1.39828L7.76622 9.58948C6.57272 10.78 6.57272 12.7097 7.76621 13.9002L23.4429 29.5379C24.0239 30.1175 24.7806 30.415 25.5419 30.4302C30.2341 30.5243 31.9736 30.5248 36.6658 30.4302Z" fill="black"/>
<path fill-rule="evenodd" clip-rule="evenodd" d="M16.3186 6.86983C16.4983 6.69048 16.7803 6.66417 16.9897 6.8075C17.3241 7.04004 17.7252 7.16116 18.1385 7.16135C18.5521 7.16135 18.9532 7.03985 19.294 6.81702C19.4991 6.67686 19.7749 6.70261 19.9503 6.87804C21.5936 8.50488 28.8672 15.7785 30.5022 17.4135C30.6818 17.5931 30.7079 17.8749 30.5646 18.0846C30.3322 18.4189 30.2107 18.82 30.2107 19.2335C30.2109 19.6469 30.332 20.048 30.5551 20.3889C30.695 20.5939 30.6695 20.8695 30.4938 21.0451C29.7955 21.7602 28.1328 23.423 27.4251 24.1306L27.4238 24.1319C27.2443 24.3115 26.9621 24.3376 26.7527 24.1943C26.4181 23.9619 26.0172 23.8406 25.6036 23.8406C25.1901 23.8406 24.7892 23.9619 24.4484 24.1847C24.2433 24.3249 23.9675 24.2992 23.792 24.1237C22.1489 22.4973 14.8772 15.2257 13.2407 13.5892L13.24 13.5884C13.0606 13.4087 13.0345 13.1269 13.1776 12.9173C13.4102 12.5829 13.5315 12.182 13.5315 11.7684C13.5315 11.3549 13.4102 10.954 13.1873 10.6128C13.0472 10.4081 13.0729 10.1323 13.2485 9.95665C13.9471 9.24131 15.6114 7.57696 16.3186 6.86983ZM18.944 17.4262L20.0832 18.5654L20.6401 18.0085C20.8353 18.1197 21.0309 18.2011 21.2265 18.2526C21.4221 18.3041 21.6132 18.3235 21.7998 18.3108C21.9864 18.2981 22.1639 18.2543 22.3328 18.1795C22.5017 18.1042 22.6568 17.9958 22.7986 17.854C23.0668 17.5858 23.2113 17.295 23.232 16.9813C23.2529 16.6678 23.1566 16.3113 22.9431 15.9116L22.5217 15.1113C22.4754 15.0251 22.4328 14.9415 22.3944 14.8608C22.3561 14.7804 22.3278 14.7058 22.31 14.6369C22.2919 14.568 22.285 14.5059 22.2899 14.4506C22.2947 14.3958 22.3171 14.3484 22.3569 14.3086C22.4278 14.2377 22.5133 14.2123 22.6139 14.233C22.7145 14.2537 22.8208 14.3206 22.9326 14.4324C23.022 14.5217 23.0888 14.6128 23.1333 14.7058C23.1775 14.7989 23.2025 14.8903 23.2085 14.9807C23.2144 15.0706 23.2006 15.1576 23.167 15.2412C23.1334 15.3252 23.0767 15.4092 22.9972 15.4935L24.1709 16.6672L25.171 15.6671L24.5533 15.0493C24.5382 14.9409 24.5104 14.8269 24.4703 14.7069C24.4301 14.5869 24.3775 14.4633 24.3124 14.3362L24.9355 13.7131L23.7963 12.5739L23.2296 13.1407C23.0498 13.0185 22.8671 12.9231 22.6812 12.8548C22.4956 12.7867 22.3117 12.7521 22.1292 12.7514C21.9469 12.7508 21.7692 12.7867 21.5958 12.8593C21.4226 12.932 21.2584 13.0459 21.1033 13.201C20.946 13.3583 20.8327 13.5209 20.7633 13.6885C20.694 13.8562 20.6584 14.0255 20.6567 14.1966C20.6547 14.3678 20.6812 14.5391 20.7358 14.711C20.7903 14.8831 20.8629 15.052 20.9535 15.2179L21.4021 16.0454C21.4348 16.1045 21.4648 16.1671 21.493 16.2326C21.5212 16.2984 21.5411 16.3617 21.5536 16.4227C21.5656 16.4836 21.5682 16.5407 21.5611 16.5933C21.554 16.6459 21.5331 16.6904 21.4977 16.7258C21.4224 16.801 21.3303 16.8309 21.222 16.816C21.1138 16.8007 21.0003 16.7335 20.8814 16.6146C20.7806 16.5138 20.705 16.4121 20.655 16.3087C20.605 16.2057 20.5772 16.1036 20.5725 16.0034C20.5677 15.9033 20.5841 15.8067 20.622 15.7139C20.6599 15.6212 20.7189 15.5349 20.7985 15.4553L19.6247 14.2814L18.6243 15.2817L19.2283 15.8856C19.2266 16.0523 19.2501 16.2176 19.299 16.3815C19.3479 16.5453 19.416 16.7068 19.5041 16.8662L18.944 17.4262Z" fill="white"/>
<path fill-rule="evenodd" clip-rule="evenodd" d="M34.5618 18.487C34.9742 18.8995 34.9742 19.5676 34.5618 19.98L26.3502 28.1916C25.9377 28.6041 25.2696 28.6041 24.8571 28.1916L9.18043 12.5149C8.76798 12.1025 8.76798 11.4344 9.18043 11.0219L17.392 2.81031C17.8045 2.39786 18.4726 2.39786 18.8851 2.81031L34.5618 18.487ZM15.7589 6.30976C15.051 7.01764 13.3861 8.68255 12.6845 9.40087C12.2458 9.84337 12.1803 10.5341 12.5278 11.051C12.6648 11.2623 12.7396 11.5114 12.7398 11.7684C12.7398 12.0189 12.6685 12.2626 12.5276 12.4655C12.5276 12.4655 12.5255 12.4687 12.5242 12.4703C12.1659 12.9944 12.2314 13.6993 12.6801 14.1483C14.316 15.7843 21.5912 23.0595 23.235 24.6864C23.6745 25.1259 24.3678 25.1929 24.8862 24.8443C25.0975 24.7073 25.3468 24.6323 25.6036 24.6323C25.8543 24.6325 26.098 24.7038 26.3007 24.8445L26.3055 24.8478C26.8296 25.2062 27.5345 25.1407 27.9835 24.692C28.6915 23.984 30.3563 22.3192 31.0578 21.6009C31.4966 21.1584 31.5619 20.4679 31.2146 19.9507C31.0774 19.7397 31.0026 19.4905 31.0026 19.2333C31.0026 18.9829 31.0739 18.7392 31.2146 18.5365C31.2159 18.5348 31.217 18.5333 31.2181 18.5314C31.5763 18.0076 31.5108 17.3027 31.0621 16.8537C29.4267 15.2182 22.151 7.94256 20.5074 6.31536C20.0679 5.87585 19.3744 5.80904 18.8561 6.15748C18.6449 6.29446 18.3955 6.36948 18.1387 6.36948C17.8879 6.36948 17.6442 6.29819 17.4417 6.15729L17.4368 6.15393C16.9128 5.7956 16.2079 5.86111 15.7589 6.30976Z" fill="white"/>
<path d="M35.2689 17.7799C36.0719 18.5829 36.0719 19.8842 35.2689 20.6871L27.8108 28.1453L27.8572 28.1916C28.2696 28.6041 28.9378 28.6041 29.3502 28.1916L37.5618 19.98C37.9743 19.5676 37.9743 18.8995 37.5618 18.487L21.8851 2.81031C21.4727 2.39786 20.8045 2.39786 20.3921 2.81031L20.3457 2.8567L35.2689 17.7799Z" fill="white"/>
<path d="M38.2689 20.6871C39.0719 19.8842 39.0719 18.5829 38.2689 17.7799L23.3457 2.8567L23.3921 2.81031C23.8045 2.39786 24.4727 2.39786 24.8851 2.81031L40.5618 18.487C40.9743 18.8995 40.9743 19.5676 40.5618 19.98L32.3502 28.1916C31.9378 28.6041 31.2696 28.6041 30.8572 28.1916L30.8108 28.1453L38.2689 20.6871Z" fill="white"/>
</svg>
