<svg width="24" height="20" viewBox="0 0 24 20" fill="none" xmlns="http://www.w3.org/2000/svg">
<path d="M10.666 20C5.14317 20 0.666016 15.5228 0.666016 10C0.666016 4.47715 5.14317 0 10.666 0H13.9993C19.5222 0 23.9993 4.47715 23.9993 10V20H10.666Z" fill="black"/>
<path fill-rule="evenodd" clip-rule="evenodd" d="M10.6662 1.33398C5.87971 1.33398 1.99951 5.21418 1.99951 10.0007C1.99951 14.7871 5.87971 18.6673 10.6662 18.6673H19.3328V10.0007C19.3328 5.21418 15.4526 1.33398 10.6662 1.33398ZM6.66618 5.33398C6.29799 5.33398 5.99951 5.63246 5.99951 6.00065C5.99951 6.36884 6.29799 6.66732 6.66618 6.66732H14.6662C15.0344 6.66732 15.3328 6.36884 15.3328 6.00065C15.3328 5.63246 15.0344 5.33398 14.6662 5.33398H6.66618ZM6.66618 9.33398C6.29799 9.33398 5.99951 9.63246 5.99951 10.0007C5.99951 10.3688 6.29799 10.6673 6.66618 10.6673H7.99951C8.3677 10.6673 8.66618 10.3688 8.66618 10.0007C8.66618 9.63246 8.3677 9.33398 7.99951 9.33398H6.66618ZM9.99951 10.0007C9.99951 9.63246 10.298 9.33398 10.6662 9.33398H14.6662C15.0344 9.33398 15.3328 9.63246 15.3328 10.0007C15.3328 10.3688 15.0344 10.6673 14.6662 10.6673H10.6662C10.298 10.6673 9.99951 10.3688 9.99951 10.0007ZM6.66618 13.334C6.29799 13.334 5.99951 13.6325 5.99951 14.0007C5.99951 14.3688 6.29799 14.6673 6.66618 14.6673H11.9995C12.3677 14.6673 12.6662 14.3688 12.6662 14.0007C12.6662 13.6325 12.3677 13.334 11.9995 13.334H6.66618ZM13.9995 14.0007C13.9995 13.6325 14.298 13.334 14.6662 13.334C15.0344 13.334 15.3328 13.6325 15.3328 14.0007C15.3328 14.3688 15.0344 14.6673 14.6662 14.6673C14.298 14.6673 13.9995 14.3688 13.9995 14.0007Z" fill="white"/>
</svg>
