<svg width="33" height="30" viewBox="0 0 33 30" fill="none" xmlns="http://www.w3.org/2000/svg">
<path d="M31.1667 28.3333C31.6269 28.3333 32 27.9602 32 27.5V15C32 7.6362 26.0305 1.66667 18.6667 1.66667H14.5C7.1362 1.66667 1.16667 7.6362 1.16667 15C1.16667 22.3638 7.1362 28.3333 14.5 28.3333H31.1667Z" fill="black" stroke="white" stroke-width="1.66667" stroke-linejoin="round"/>
<path fill-rule="evenodd" clip-rule="evenodd" d="M14.5003 4.16699C8.51724 4.16699 3.66699 9.01724 3.66699 15.0003C3.66699 20.9834 8.51724 25.8337 14.5003 25.8337H25.3337V15.0003C25.3337 9.01724 20.4834 4.16699 14.5003 4.16699ZM9.5013 9.16715C9.04106 9.16715 8.66797 9.54025 8.66797 10.0005C8.66797 10.4607 9.04107 10.8338 9.5013 10.8338H19.5013C19.9615 10.8338 20.3346 10.4607 20.3346 10.0005C20.3346 9.54025 19.9615 9.16715 19.5013 9.16715H9.5013ZM9.5013 14.1672C9.04106 14.1672 8.66797 14.5403 8.66797 15.0005C8.66797 15.4607 9.04106 15.8338 9.5013 15.8338H11.168C11.6282 15.8338 12.0013 15.4607 12.0013 15.0005C12.0013 14.5403 11.6282 14.1672 11.168 14.1672H9.5013ZM13.668 15.0005C13.668 14.5403 14.0411 14.1672 14.5013 14.1672H19.5013C19.9615 14.1672 20.3346 14.5403 20.3346 15.0005C20.3346 15.4607 19.9615 15.8338 19.5013 15.8338H14.5013C14.0411 15.8338 13.668 15.4607 13.668 15.0005ZM9.5013 19.1672C9.04106 19.1672 8.66797 19.5402 8.66797 20.0005C8.66797 20.4607 9.04106 20.8338 9.5013 20.8338H16.168C16.6282 20.8338 17.0013 20.4607 17.0013 20.0005C17.0013 19.5402 16.6282 19.1672 16.168 19.1672H9.5013ZM18.668 20.0005C18.668 19.5402 19.0411 19.1672 19.5013 19.1672C19.9615 19.1672 20.3346 19.5402 20.3346 20.0005C20.3346 20.4607 19.9615 20.8338 19.5013 20.8338C19.0411 20.8338 18.668 20.4607 18.668 20.0005Z" fill="white"/>
</svg>
