<svg width="55" height="30" viewBox="0 0 55 30" fill="none" xmlns="http://www.w3.org/2000/svg">
<path d="M25 30.0002C16.7157 30.0002 10 23.2845 10 15.0002C10 6.71597 16.7157 0.000244141 25 0.000244141H30C38.2843 0.000244141 45 6.71597 45 15.0002V30.0002H25Z" fill="black"/>
<path fill-rule="evenodd" clip-rule="evenodd" d="M25 2.00024C17.8203 2.00024 12 7.82054 12 15.0002C12 22.1799 17.8203 28.0002 25 28.0002H38V15.0002C38 7.82054 32.1797 2.00024 25 2.00024ZM19.0001 8.00024C18.4478 8.00024 18.0001 8.44796 18.0001 9.00024C18.0001 9.55253 18.4478 10.0002 19.0001 10.0002H31.0001C31.5524 10.0002 32.0001 9.55253 32.0001 9.00024C32.0001 8.44796 31.5524 8.00024 31.0001 8.00024H19.0001ZM19.0001 14.0002C18.4478 14.0002 18.0001 14.448 18.0001 15.0002C18.0001 15.5525 18.4478 16.0002 19.0001 16.0002H21.0001C21.5524 16.0002 22.0001 15.5525 22.0001 15.0002C22.0001 14.448 21.5524 14.0002 21.0001 14.0002H19.0001ZM24.0001 15.0002C24.0001 14.448 24.4478 14.0002 25.0001 14.0002H31.0001C31.5524 14.0002 32.0001 14.448 32.0001 15.0002C32.0001 15.5525 31.5524 16.0002 31.0001 16.0002H25.0001C24.4478 16.0002 24.0001 15.5525 24.0001 15.0002ZM19.0001 20.0002C18.4478 20.0002 18.0001 20.448 18.0001 21.0002C18.0001 21.5525 18.4478 22.0002 19.0001 22.0002H27.0001C27.5524 22.0002 28.0001 21.5525 28.0001 21.0002C28.0001 20.448 27.5524 20.0002 27.0001 20.0002H19.0001ZM30.0001 21.0002C30.0001 20.448 30.4478 20.0002 31.0001 20.0002C31.5524 20.0002 32.0001 20.448 32.0001 21.0002C32.0001 21.5525 31.5524 22.0002 31.0001 22.0002C30.4478 22.0002 30.0001 21.5525 30.0001 21.0002Z" fill="white"/>
</svg>
