<svg width="38" height="30" viewBox="0 0 38 30" fill="none" xmlns="http://www.w3.org/2000/svg">
<path d="M20.25 0.00507782C20.4166 -0.00169255 20.5834 -0.00169255 20.75 0.00507784C22.4608 -0.0644484 24.1953 0.579996 25.4649 1.93841C25.8343 2.3337 26.3394 2.57014 26.8743 2.60391C26.9263 2.60462 26.9782 2.60598 27.0299 2.60799C27.0462 2.60781 27.0625 2.60745 27.0788 2.6069C30.6144 2.48741 33.5126 5.38561 33.3931 8.92123C33.3725 9.53046 33.6162 10.1189 34.0616 10.5351C36.6461 12.9507 36.6461 17.0493 34.0616 19.4649C33.6162 19.8811 33.3725 20.4695 33.3931 21.0788C33.5126 24.6144 30.6144 27.5126 27.0788 27.3931C27.0664 27.3927 27.0539 27.3924 27.0415 27.3922L27.0299 27.392C26.9782 27.394 26.9263 27.3954 26.8743 27.3961C26.3394 27.4299 25.8343 27.6663 25.4649 28.0616C24.1953 29.42 22.4607 30.0645 20.75 29.9949C20.5834 30.0017 20.4166 30.0017 20.25 29.9949C20.0834 30.0017 19.9166 30.0017 19.75 29.9949C19.5834 30.0017 19.4166 30.0017 19.25 29.9949C19.0834 30.0017 18.9166 30.0017 18.75 29.9949C18.5834 30.0017 18.4166 30.0017 18.25 29.9949C18.0834 30.0017 17.9166 30.0017 17.75 29.9949C17.5834 30.0017 17.4166 30.0017 17.25 29.9949C17.0834 30.0017 16.9166 30.0017 16.75 29.9949C16.5834 30.0017 16.4166 30.0017 16.25 29.9949C14.5392 30.0644 12.8047 29.42 11.5351 28.0616C11.1657 27.6663 10.6606 27.4299 10.1257 27.3961C10.0737 27.3954 10.0218 27.394 9.97012 27.392C9.95609 27.3922 9.94206 27.3925 9.92801 27.3929C9.92575 27.393 9.92349 27.393 9.92123 27.3931C6.38561 27.5126 3.48741 24.6144 3.6069 21.0788C3.62749 20.4695 3.38376 19.8811 2.93841 19.4649C0.353862 17.0493 0.353864 12.9507 2.93841 10.5351C3.38376 10.1189 3.62749 9.53046 3.6069 8.92123C3.48741 5.38561 6.38561 2.48741 9.92123 2.6069C9.93525 2.60737 9.94926 2.60771 9.96325 2.6079C9.96555 2.60793 9.96784 2.60796 9.97013 2.60799C10.0218 2.60598 10.0737 2.60462 10.1257 2.60391C10.6606 2.57014 11.1657 2.3337 11.5351 1.93841C12.8047 0.579996 14.5392 -0.0644482 16.25 0.0050778C16.4166 -0.00169255 16.5834 -0.00169256 16.75 0.00507779C16.9166 -0.00169255 17.0834 -0.00169255 17.25 0.00507778C17.4166 -0.00169258 17.5834 -0.00169255 17.75 0.00507786C17.9166 -0.00169254 18.0834 -0.00169255 18.25 0.00507787C18.4166 -0.00169252 18.5834 -0.00169253 18.75 0.00507787C18.9166 -0.00169253 19.0834 -0.00169254 19.25 0.00507786C19.4166 -0.00169253 19.5834 -0.00169255 19.75 0.00507783C19.9166 -0.00169255 20.0834 -0.00169256 20.25 0.00507782Z" fill="black"/>
<path fill-rule="evenodd" clip-rule="evenodd" d="M19.0037 3.30405C17.3787 1.56532 14.6213 1.56532 12.9963 3.30405C12.1858 4.17126 11.04 4.64585 9.85367 4.60576C7.47511 4.52537 5.52537 6.47511 5.60576 8.85367C5.64585 10.04 5.17126 11.1858 4.30405 11.9963C2.56532 13.6213 2.56532 16.3787 4.30405 18.0037C5.17126 18.8142 5.64585 19.96 5.60576 21.1463C5.52537 23.5249 7.47511 25.4746 9.85367 25.3942C11.04 25.3541 12.1858 25.8287 12.9963 26.6959C14.6213 28.4347 17.3787 28.4347 19.0037 26.6959C19.8142 25.8287 20.96 25.3541 22.1463 25.3942C24.5249 25.4746 26.4746 23.5249 26.3942 21.1463C26.3541 19.96 26.8287 18.8142 27.6959 18.0037C29.4347 16.3787 29.4347 13.6213 27.6959 11.9963C26.8287 11.1858 26.3541 10.04 26.3942 8.85367C26.4746 6.47511 24.5249 4.52537 22.1463 4.60576C20.96 4.64585 19.8142 4.17126 19.0037 3.30405ZM15.4043 18.0852H15.8843V18.0875H15.8858V19.6205H12.6485V19.6183H12.647V18.0852H13.1264L11.164 15.9573H10.3264V14.4242H13.5637V15.9573H13.0932L14.2565 17.195L19.1121 11.9174H18.6416V10.3844H21.9376V11.9174H21.0413L15.4043 18.0852Z" fill="white"/>
</svg>
