<svg width="55" height="31" viewBox="0 0 55 31" fill="none" xmlns="http://www.w3.org/2000/svg">
<path d="M30 0.500488C31.1046 0.500488 32 1.39592 32 2.50049V4.99023C32 6.0948 31.1046 6.99023 30 6.99023H29.3029L29.2339 7.06144H34.7293L36.6071 5.03585C36.6067 5.02068 36.6066 5.00547 36.6066 4.99023V2.50049C36.6066 1.39592 37.502 0.500488 38.6066 0.500488H49C50.1046 0.500488 51 1.39592 51 2.50049V4.99023C51 6.0948 50.1046 6.99023 49 6.99023H48.4104L44.2571 11.5005H49C50.1046 11.5005 51 12.3959 51 13.5005V15.9902C51 17.0948 50.1046 17.9902 49 17.9902H48.4104L41.0956 25.9337C41.0966 25.9592 41.0971 25.9849 41.0971 26.0108V28.5005C41.0971 29.6051 40.2017 30.5005 39.0971 30.5005H28.7998C28.1162 30.5005 27.5127 30.1575 27.152 29.6343C26.9283 29.3113 26.7972 28.9194 26.7972 28.4968V26.0071C26.7972 25.9878 26.7975 25.9686 26.798 25.9495L25.4988 24.5512H25C24.4284 24.5512 23.9128 24.3114 23.5483 23.9269L21.5753 25.9623L21.5758 25.9914L21.5759 26.0108V28.5005C21.5759 29.6051 20.6805 30.5005 19.5759 30.5005H8.99975C8.33339 30.5005 7.74315 30.1746 7.3797 29.6735C7.13907 29.3433 6.99709 28.9367 6.99709 28.4968V26.0071L6.99729 25.9785L5.60123 24.5512H5C3.89543 24.5512 3 23.6558 3 22.5512V20.0614C3 18.9569 3.89543 18.0614 5 18.0614H7.0779C7.0253 17.8824 6.99709 17.6929 6.99709 17.4968V15.0071L6.99729 14.9785L5.60123 13.5512H5C3.89543 13.5512 3 12.6558 3 11.5512V9.06144C3 7.95687 3.89543 7.06144 5 7.06144H15.3177L17.3228 5.00663L17.3227 4.99023V2.50049C17.3227 1.39592 18.2181 0.500488 19.3227 0.500488H30Z" fill="black"/>
<path fill-rule="evenodd" clip-rule="evenodd" d="M13.7465 15.0071H14.5732V15.0108H14.5759V17.5005H8.99975V17.4968H8.99709V15.0071H9.82286L6.44267 11.5512H5V9.06144H10.5761V11.5512H9.76566L11.7695 13.5613L20.1332 4.99023H19.3227V2.50049H25V4.99023H23.4562L13.7465 15.0071ZM33.3092 15.0071H34.0946V15.0108H34.0971V17.5005H28.7998V17.4968H28.7972V15.0071H29.5817L26.3705 11.5512H25V9.06144H30.2973V11.5512H29.5274L31.431 13.5613L39.3765 4.99023H38.6066V2.50049H44V4.99023H42.5334L33.3092 15.0071ZM14.5732 26.0071H13.7465L23.4562 15.9902H25V13.5005H19.3227V15.9902H20.1332L11.7695 24.5613L9.76566 22.5512H10.5761V20.0614H5V22.5512H6.44267L9.82286 26.0071H8.99709V28.4968H8.99975V28.5005H14.5759V26.0108H14.5732V26.0071ZM33.3092 26.0071H34.0946V26.0108H34.0971V28.5005H28.7998V28.4968H28.7972V26.0071H29.5817L26.3705 22.5512H25V20.0614H30.2973V22.5512H29.5274L31.431 24.5613L39.3765 15.9902H38.6066V13.5005H44V15.9902H42.5334L33.3092 26.0071Z" fill="white"/>
</svg>
