<svg width="69" height="13" viewBox="0 0 69 13" fill="none" xmlns="http://www.w3.org/2000/svg">
<path d="M11.1568 0.133535C12.4902 0.133535 13.8234 0.133535 15.1568 0.133535C15.525 0.133535 15.8924 0.200653 16.2438 0.34005C16.5313 0.180026 16.8625 0.0888672 17.2149 0.0888672H23.7442C24.8488 0.0888672 25.7442 0.984298 25.7442 2.08887V2.8785C25.7645 2.87987 25.7847 2.88135 25.8049 2.88292C25.9711 2.87016 26.1381 2.86387 26.3059 2.86387C26.9727 2.86387 27.6392 2.86387 28.3059 2.86387C28.813 2.86387 29.3182 2.92083 29.8102 3.05143C29.8708 3.06698 29.9312 3.08383 29.9912 3.10201C30.0534 3.08017 30.1159 3.05966 30.1787 3.04046V2.08887C30.1787 0.984298 31.0741 0.0888672 32.1787 0.0888672H38.708C39.8126 0.0888672 40.708 0.984298 40.708 2.08887V2.8785C40.7282 2.87987 40.7485 2.88135 40.7687 2.88292C40.9349 2.87016 41.1019 2.86387 41.2697 2.86387C41.9365 2.86387 42.603 2.86387 43.2697 2.86387C43.6924 2.86387 44.1138 2.90345 44.5274 2.99229H47.1194C47.4495 2.92115 47.7857 2.8862 48.1252 2.8862C48.792 2.8862 49.4584 2.8862 50.1252 2.8862C50.2952 2.8862 50.4664 2.89401 50.6373 2.91066L50.661 2.90832C50.6825 2.60172 50.7501 2.29191 50.873 1.98938L50.8848 1.96104C50.8848 1.96104 51.2429 1.29072 51.5239 1.00966C51.7947 0.738837 52.1084 0.528497 52.4492 0.37939L52.4697 0.370541C52.8543 0.207399 53.2538 0.133535 53.6472 0.133535C54.9806 0.133535 56.3138 0.133535 57.6472 0.133535C58.0485 0.133535 58.4488 0.21326 58.8286 0.37939C59.1694 0.528497 59.483 0.738837 59.7538 1.00966C60.0322 1.28809 60.2422 1.6091 60.3888 1.95135C60.5191 2.25251 60.5935 2.56351 60.6194 2.87366C60.739 2.86711 60.859 2.86387 60.9795 2.86387C61.6462 2.86387 62.3127 2.86387 62.9795 2.86387C63.4866 2.86387 63.9917 2.92083 64.4837 3.05143C65.0395 3.194 65.5732 3.44548 66.0417 3.83241C66.5354 4.23634 66.8889 4.74206 67.1232 5.29184C67.3852 5.89753 67.4753 6.53613 67.4753 7.14194V7.665C67.9475 8.03084 68.2514 8.60338 68.2514 9.24692V10.7768C68.2514 11.8814 67.356 12.7768 66.2514 12.7768H63.5623C63.4134 12.8166 63.2627 12.8469 63.1107 12.8678C62.8839 12.9025 62.6598 12.9164 62.4435 12.9164C61.1101 12.9164 59.7768 12.9164 58.4435 12.9164C58.0416 12.9164 57.6345 12.875 57.2333 12.7768H43.8526C43.7036 12.8166 43.5529 12.8469 43.401 12.8678C43.1742 12.9025 42.95 12.9164 42.7337 12.9164C41.4003 12.9164 40.067 12.9164 38.7337 12.9164C38.3318 12.9164 37.9247 12.875 37.5235 12.7768H36.707C36.3875 12.851 36.0616 12.8885 35.732 12.8885C34.3986 12.8885 33.0653 12.8885 31.732 12.8885C31.3612 12.8885 30.993 12.8526 30.6314 12.7768H28.8888C28.7398 12.8166 28.5891 12.8469 28.4372 12.8678C28.2104 12.9025 27.9862 12.9164 27.7699 12.9164C26.4365 12.9164 25.1032 12.9164 23.7699 12.9164C23.368 12.9164 22.961 12.875 22.5597 12.7768H21.7432C21.4238 12.851 21.0978 12.8885 20.7682 12.8885C19.4348 12.8885 18.1015 12.8885 16.7682 12.8885C16.3974 12.8885 16.0292 12.8526 15.6677 12.7768H11.0483C10.632 12.8743 10.2077 12.9164 9.78547 12.9164C8.45215 12.9164 7.11884 12.9164 5.78547 12.9164C5.09637 12.9164 4.41686 12.7906 3.77263 12.5136L3.75721 12.5069C3.15781 12.2432 2.61793 11.8744 2.15955 11.3969C1.70742 10.926 1.36159 10.3809 1.11825 9.78142L1.1119 9.76559C0.864017 9.13967 0.748047 8.4842 0.748047 7.81754C0.748047 7.14652 0.868842 6.4852 1.13193 5.85635L1.13578 5.84714C1.38733 5.25422 1.74147 4.71833 2.20009 4.25846C2.66768 3.7858 3.2168 3.42518 3.82631 3.17528L3.83275 3.17264C4.4646 2.91615 5.1265 2.80536 5.79541 2.81822C6.45842 2.79778 7.13214 2.80547 7.79541 2.81822C7.92321 2.81428 8.05076 2.81534 8.17791 2.82144C8.20534 2.54331 8.27128 2.26337 8.38259 1.98938L8.39436 1.96104C8.54109 1.61516 8.75243 1.29072 9.03348 1.00966C9.30431 0.738837 9.61792 0.528497 9.95873 0.37939L9.97927 0.370541C10.3638 0.2074 10.7633 0.133535 11.1568 0.133535Z" fill="black"/>
<path d="M7.12551 6.99118C6.96545 6.79017 6.78678 6.63942 6.5895 6.53892C6.39221 6.43469 6.15957 6.39002 5.89156 6.40491C5.67566 6.39002 5.47838 6.4198 5.29971 6.49425C5.12476 6.5687 4.97214 6.67292 4.84186 6.80693C4.7153 6.94093 4.61666 7.10099 4.54593 7.28711C4.47521 7.4695 4.43985 7.67609 4.43985 7.90688C4.43985 8.1116 4.47707 8.30516 4.55152 8.48756C4.62596 8.66995 4.72647 8.82815 4.85303 8.96216C4.98331 9.09244 5.13592 9.1948 5.31087 9.26925C5.48955 9.3437 5.68311 9.38836 5.89156 9.40325C6.06651 9.38836 6.22471 9.353 6.36616 9.29717C6.51133 9.23761 6.63975 9.16316 6.75142 9.07383C6.86309 8.98077 6.95801 8.8784 7.03618 8.76673C7.11807 8.65134 7.18135 8.54339 7.22601 8.44289L8.76148 8.86724C8.6982 9.09058 8.58839 9.32322 8.43205 9.56518C8.27944 9.80713 8.07843 10.0286 7.82903 10.2296C7.58336 10.4269 7.28929 10.5907 6.94684 10.721C6.60811 10.8512 6.22098 10.9164 5.78547 10.9164C5.34251 10.9164 4.93492 10.8364 4.56268 10.6763C4.19045 10.5125 3.87033 10.291 3.60232 10.0119C3.33431 9.73268 3.124 9.40511 2.97139 9.02916C2.82249 8.6532 2.74805 8.24933 2.74805 7.81754C2.74805 7.38947 2.82435 6.99304 2.97697 6.62825C3.13331 6.25974 3.34734 5.93962 3.61907 5.66789C3.8908 5.39244 4.21279 5.1784 4.58502 5.02579C4.96097 4.87317 5.36857 4.80431 5.80781 4.8192C6.12048 4.80431 6.42385 4.83967 6.71792 4.92529C7.01198 5.0109 7.29116 5.13932 7.55544 5.31055H8.66656V6.99118H7.12551Z" fill="white"/>
<path d="M9.38125 4.99229H11.9776V9.24692H12.7816V10.7768H9.38125V9.24692H10.2523V6.52217H9.38125V4.99229ZM10.1629 3.1274C10.1629 2.98967 10.1871 2.86125 10.2355 2.74214C10.2876 2.6193 10.3584 2.51321 10.4477 2.42388C10.537 2.33454 10.6413 2.26382 10.7604 2.2117C10.8832 2.15959 11.0154 2.13354 11.1568 2.13354C11.2908 2.13354 11.4174 2.15959 11.5365 2.2117C11.6556 2.26382 11.7598 2.33454 11.8492 2.42388C11.9385 2.51321 12.0092 2.6193 12.0613 2.74214C12.1134 2.86125 12.1395 2.98967 12.1395 3.1274C12.1395 3.26512 12.1134 3.39541 12.0613 3.51824C12.0092 3.63736 11.9385 3.74158 11.8492 3.83092C11.7598 3.92026 11.6556 3.99098 11.5365 4.04309C11.4174 4.09521 11.2908 4.12126 11.1568 4.12126C11.0154 4.12126 10.8832 4.09521 10.7604 4.04309C10.6413 3.99098 10.537 3.92026 10.4477 3.83092C10.3584 3.74158 10.2876 3.63736 10.2355 3.51824C10.1871 3.39541 10.1629 3.26512 10.1629 3.1274Z" fill="white"/>
<path d="M17.2149 2.08887H19.7442V9.24692H20.8721V10.7768H18.0245V10.5535C17.8235 10.6577 17.6169 10.7396 17.4047 10.7991C17.1963 10.8587 16.9841 10.8885 16.7682 10.8885C16.3253 10.8885 15.9177 10.8103 15.5454 10.654C15.1769 10.4939 14.8587 10.2761 14.5907 10.0007C14.3264 9.72524 14.1198 9.40325 13.9709 9.03474C13.822 8.66251 13.7475 8.26422 13.7475 7.83987C13.7475 7.41553 13.8201 7.02096 13.9653 6.65617C14.1142 6.28766 14.3189 5.96754 14.5795 5.69581C14.8438 5.42408 15.1583 5.21004 15.5231 5.05371C15.8916 4.89737 16.2955 4.8192 16.7347 4.8192C16.9767 4.8192 17.2037 4.84339 17.4159 4.89178C17.6281 4.93645 17.8309 5.00159 18.0245 5.08721V3.61875H17.2149V2.08887ZM16.8631 9.34742C17.1088 9.33997 17.3303 9.27669 17.5276 9.15758C17.7286 9.03846 17.8942 8.88213 18.0245 8.68857V6.9856C17.8942 6.78831 17.7249 6.6357 17.5164 6.52775C17.3117 6.41608 17.0939 6.36211 16.8631 6.36583C16.6696 6.36211 16.4872 6.39561 16.316 6.46633C16.1484 6.53706 15.9996 6.63756 15.8693 6.76784C15.7427 6.89812 15.6422 7.05446 15.5678 7.23686C15.4933 7.41925 15.4561 7.62584 15.4561 7.85662C15.4561 8.08369 15.4933 8.29028 15.5678 8.47639C15.6422 8.65879 15.7427 8.81512 15.8693 8.94541C15.9996 9.07197 16.1484 9.16875 16.316 9.23575C16.4872 9.30275 16.6696 9.33997 16.8631 9.34742Z" fill="white"/>
<path d="M25.1658 10.4641C25.0355 10.546 24.9164 10.6167 24.8085 10.6763C24.7005 10.7321 24.5926 10.7768 24.4846 10.8103C24.3767 10.8475 24.265 10.8736 24.1496 10.8885C24.0342 10.9071 23.9077 10.9164 23.7699 10.9164C23.4238 10.9164 23.1129 10.8699 22.8375 10.7768C22.5658 10.68 22.335 10.5497 22.1451 10.3859C21.959 10.2184 21.8157 10.023 21.7152 9.79968C21.6147 9.57262 21.5644 9.32695 21.5644 9.06266C21.5644 8.79465 21.6147 8.54712 21.7152 8.32005C21.8194 8.09299 21.9683 7.89943 22.1619 7.73937C22.3554 7.57559 22.5918 7.44903 22.871 7.35969C23.1539 7.26663 23.4759 7.2201 23.8369 7.2201C24.1012 7.2201 24.3413 7.23499 24.5572 7.26477C24.7768 7.29083 24.9797 7.32433 25.1658 7.36528V7.1866C25.1658 7.04143 25.1379 6.91673 25.0821 6.81251C25.0262 6.70456 24.948 6.61709 24.8475 6.55008C24.747 6.47936 24.6261 6.42911 24.4846 6.39933C24.3432 6.36583 24.1887 6.34908 24.0212 6.34908C23.6713 6.34908 23.3623 6.38444 23.0943 6.45516C22.83 6.52217 22.5751 6.62081 22.3294 6.75109L21.7934 5.66789C22.173 5.40733 22.5695 5.20818 22.9827 5.07046C23.3996 4.93273 23.8407 4.86387 24.3059 4.86387C24.667 4.86387 25.0002 4.90481 25.3054 4.9867C25.6143 5.06487 25.8786 5.19515 26.0982 5.37755C26.3179 5.55622 26.4891 5.79073 26.6119 6.08107C26.7385 6.37141 26.8018 6.72503 26.8018 7.14194V9.24692H27.5779V10.7768H25.1658V10.4641ZM23.8928 9.59868C24.1571 9.59868 24.3971 9.55587 24.613 9.47026C24.8289 9.38464 25.0132 9.28042 25.1658 9.15758V8.42056H23.8258C23.7402 8.42056 23.6564 8.43359 23.5745 8.45964C23.4926 8.4857 23.4182 8.52292 23.3512 8.57131C23.2879 8.6197 23.2358 8.67926 23.1948 8.74998C23.1576 8.82071 23.139 8.9026 23.139 8.99566C23.139 9.16689 23.2004 9.3102 23.3232 9.42559C23.4498 9.54098 23.6396 9.59868 23.8928 9.59868Z" fill="white"/>
<path d="M32.1787 2.08887H34.708V9.24692H35.8359V10.7768H32.9883V10.5535C32.7873 10.6577 32.5807 10.7396 32.3685 10.7991C32.1601 10.8587 31.9479 10.8885 31.732 10.8885C31.289 10.8885 30.8814 10.8103 30.5092 10.654C30.1407 10.4939 29.8224 10.2761 29.5544 10.0007C29.2901 9.72524 29.0836 9.40325 28.9347 9.03474C28.7858 8.66251 28.7113 8.26422 28.7113 7.83987C28.7113 7.41553 28.7839 7.02096 28.9291 6.65617C29.078 6.28766 29.2827 5.96754 29.5433 5.69581C29.8076 5.42408 30.1221 5.21004 30.4869 5.05371C30.8554 4.89737 31.2593 4.8192 31.6985 4.8192C31.9405 4.8192 32.1675 4.84339 32.3797 4.89178C32.5919 4.93645 32.7947 5.00159 32.9883 5.08721V3.61875H32.1787V2.08887ZM31.8269 9.34742C32.0726 9.33997 32.2941 9.27669 32.4914 9.15758C32.6924 9.03846 32.858 8.88213 32.9883 8.68857V6.9856C32.858 6.78831 32.6886 6.6357 32.4802 6.52775C32.2755 6.41608 32.0577 6.36211 31.8269 6.36583C31.6334 6.36211 31.451 6.39561 31.2797 6.46633C31.1122 6.53706 30.9633 6.63756 30.8331 6.76784C30.7065 6.89812 30.606 7.05446 30.5315 7.23686C30.4571 7.41925 30.4199 7.62584 30.4199 7.85662C30.4199 8.08369 30.4571 8.29028 30.5315 8.47639C30.606 8.65879 30.7065 8.81512 30.8331 8.94541C30.9633 9.07197 31.1122 9.16875 31.2797 9.23575C31.451 9.30275 31.6334 9.33997 31.8269 9.34742Z" fill="white"/>
<path d="M40.1296 10.4641C39.9993 10.546 39.8802 10.6167 39.7722 10.6763C39.6643 10.7321 39.5563 10.7768 39.4484 10.8103C39.3405 10.8475 39.2288 10.8736 39.1134 10.8885C38.998 10.9071 38.8714 10.9164 38.7337 10.9164C38.3875 10.9164 38.0767 10.8699 37.8013 10.7768C37.5295 10.68 37.2987 10.5497 37.1089 10.3859C36.9228 10.2184 36.7795 10.023 36.679 9.79968C36.5785 9.57262 36.5282 9.32695 36.5282 9.06266C36.5282 8.79465 36.5785 8.54712 36.679 8.32005C36.7832 8.09299 36.9321 7.89943 37.1257 7.73937C37.3192 7.57559 37.5556 7.44903 37.8348 7.35969C38.1177 7.26663 38.4396 7.2201 38.8007 7.2201C39.065 7.2201 39.3051 7.23499 39.521 7.26477C39.7406 7.29083 39.9435 7.32433 40.1296 7.36528V7.1866C40.1296 7.04143 40.1017 6.91673 40.0458 6.81251C39.99 6.70456 39.9118 6.61709 39.8113 6.55008C39.7108 6.47936 39.5898 6.42911 39.4484 6.39933C39.3069 6.36583 39.1525 6.34908 38.985 6.34908C38.6351 6.34908 38.3261 6.38444 38.0581 6.45516C37.7938 6.52217 37.5388 6.62081 37.2932 6.75109L36.7571 5.66789C37.1368 5.40733 37.5333 5.20818 37.9464 5.07046C38.3633 4.93273 38.8044 4.86387 39.2697 4.86387C39.6308 4.86387 39.9639 4.90481 40.2692 4.9867C40.5781 5.06487 40.8424 5.19515 41.062 5.37755C41.2816 5.55622 41.4529 5.79073 41.5757 6.08107C41.7023 6.37141 41.7656 6.72503 41.7656 7.14194V9.24692H42.5417V10.7768H40.1296V10.4641ZM38.8565 9.59868C39.1208 9.59868 39.3609 9.55587 39.5768 9.47026C39.7927 9.38464 39.977 9.28042 40.1296 9.15758V8.42056H38.7895C38.7039 8.42056 38.6202 8.43359 38.5383 8.45964C38.4564 8.4857 38.382 8.52292 38.3149 8.57131C38.2517 8.6197 38.1996 8.67926 38.1586 8.74998C38.1214 8.82071 38.1028 8.9026 38.1028 8.99566C38.1028 9.16689 38.1642 9.3102 38.287 9.42559C38.4136 9.54098 38.6034 9.59868 38.8565 9.59868Z" fill="white"/>
<path d="M48.4769 7.44903C48.4769 7.12519 48.3913 6.87207 48.2201 6.68967C48.0489 6.50356 47.8218 6.4105 47.5389 6.4105C47.3453 6.4105 47.1499 6.4533 46.9526 6.53892C46.7553 6.62453 46.5636 6.78459 46.3775 7.0191V9.24692H47.3156V10.7768H43.7198V9.24692H44.5685V6.52217H43.7309V4.99229H46.3664V5.50039C46.6083 5.31055 46.8782 5.16165 47.176 5.05371C47.4775 4.94204 47.7939 4.8862 48.1252 4.8862C48.8212 4.8862 49.3573 5.08162 49.7332 5.47247C50.1092 5.85959 50.2971 6.42725 50.2971 7.17544V9.24692H51.1179V10.7768H48.4769V7.44903Z" fill="white"/>
<path d="M51.8717 4.99229H54.468V9.24692H55.272V10.7768H51.8717V9.24692H52.7427V6.52217H51.8717V4.99229ZM52.6534 3.1274C52.6534 2.98967 52.6776 2.86125 52.726 2.74214C52.7781 2.6193 52.8488 2.51321 52.9381 2.42388C53.0275 2.33454 53.1317 2.26382 53.2508 2.2117C53.3736 2.15959 53.5058 2.13354 53.6472 2.13354C53.7812 2.13354 53.9078 2.15959 54.0269 2.2117C54.146 2.26382 54.2503 2.33454 54.3396 2.42388C54.4289 2.51321 54.4997 2.6193 54.5518 2.74214C54.6039 2.86125 54.6299 2.98967 54.6299 3.1274C54.6299 3.26512 54.6039 3.39541 54.5518 3.51824C54.4997 3.63736 54.4289 3.74158 54.3396 3.83092C54.2503 3.92026 54.146 3.99098 54.0269 4.04309C53.9078 4.09521 53.7812 4.12126 53.6472 4.12126C53.5058 4.12126 53.3736 4.09521 53.2508 4.04309C53.1317 3.99098 53.0275 3.92026 52.9381 3.83092C52.8488 3.74158 52.7781 3.63736 52.726 3.51824C52.6776 3.39541 52.6534 3.26512 52.6534 3.1274Z" fill="white"/>
<path d="M59.8393 10.4641C59.7091 10.546 59.59 10.6167 59.482 10.6763C59.3741 10.7321 59.2661 10.7768 59.1582 10.8103C59.0502 10.8475 58.9385 10.8736 58.8232 10.8885C58.7078 10.9071 58.5812 10.9164 58.4435 10.9164C58.0973 10.9164 57.7865 10.8699 57.511 10.7768C57.2393 10.68 57.0085 10.5497 56.8187 10.3859C56.6326 10.2184 56.4892 10.023 56.3887 9.79968C56.2882 9.57262 56.238 9.32695 56.238 9.06266C56.238 8.79465 56.2882 8.54712 56.3887 8.32005C56.493 8.09299 56.6419 7.89943 56.8354 7.73937C57.029 7.57559 57.2654 7.44903 57.5445 7.35969C57.8274 7.26663 58.1494 7.2201 58.5105 7.2201C58.7748 7.2201 59.0149 7.23499 59.2307 7.26477C59.4504 7.29083 59.6532 7.32433 59.8393 7.36528V7.1866C59.8393 7.04143 59.8114 6.91673 59.7556 6.81251C59.6998 6.70456 59.6216 6.61709 59.5211 6.55008C59.4206 6.47936 59.2996 6.42911 59.1582 6.39933C59.0167 6.36583 58.8622 6.34908 58.6947 6.34908C58.3448 6.34908 58.0359 6.38444 57.7679 6.45516C57.5036 6.52217 57.2486 6.62081 57.0029 6.75109L56.4669 5.66789C56.8466 5.40733 57.243 5.20818 57.6562 5.07046C58.0731 4.93273 58.5142 4.86387 58.9795 4.86387C59.3406 4.86387 59.6737 4.90481 59.9789 4.9867C60.2879 5.06487 60.5522 5.19515 60.7718 5.37755C60.9914 5.55622 61.1626 5.79073 61.2855 6.08107C61.412 6.37141 61.4753 6.72503 61.4753 7.14194V9.24692H62.2514V10.7768H59.8393V10.4641ZM58.5663 9.59868C58.8306 9.59868 59.0707 9.55587 59.2866 9.47026C59.5025 9.38464 59.6867 9.28042 59.8393 9.15758V8.42056H58.4993C58.4137 8.42056 58.3299 8.43359 58.2481 8.45964C58.1662 8.4857 58.0917 8.52292 58.0247 8.57131C57.9614 8.6197 57.9093 8.67926 57.8684 8.74998C57.8311 8.82071 57.8125 8.9026 57.8125 8.99566C57.8125 9.16689 57.874 9.3102 57.9968 9.42559C58.1234 9.54098 58.3132 9.59868 58.5663 9.59868Z" fill="white"/>
</svg>
