<svg width="55" height="30" viewBox="0 0 55 30" fill="none" xmlns="http://www.w3.org/2000/svg">
<path fill-rule="evenodd" clip-rule="evenodd" d="M39.8964 7.75911H40.1972H40.498H40.7949H41.0957H41.3964H41.6972H41.998H42.2949H42.5957H43.1972H43.498H43.7949H44.0957H44.3964H44.8963C46.0009 7.75911 46.8963 8.65454 46.8963 9.75911V25.0005H47.1016H47.3984H47.6992H48H48.4999C49.6044 25.0005 50.4999 25.8959 50.4999 27.0005V28.0005C50.4999 29.1051 49.6044 30.0005 48.4999 30.0005H48H47.6992H47.3984H47.1016H46.8008H46.1992H45.8984H45.6016H45.3008H45H44.6992H44.3984H44.1016H43.8008H43.5H11.9999H11.5H11.1992H10.8984H10.6016H10.3008H9.69922H9.39844H9.10156H8.80078H8.5H8.19922H7.89844H7.60156H7.30078H7C5.89543 30.0005 5 29.1051 5 28.0005V27.0005C5 25.8959 5.89543 25.0005 7 25.0005H7.30078H7.60156H7.89844H8.19922H8.5H8.58643V15.7936C8.58643 15.2632 8.79714 14.7545 9.1722 14.3794L16.0687 7.48283C16.4881 7.06342 17.0625 6.85954 17.6337 6.90265C17.7335 6.89512 17.834 6.89507 17.9345 6.90265C18.0336 6.89517 18.1335 6.89507 18.2333 6.9025C18.3325 6.89512 18.4323 6.89511 18.5321 6.90265C18.6319 6.89512 18.7325 6.89507 18.8329 6.90265C18.8656 6.90018 18.8983 6.89852 18.9311 6.89766V4.5867C18.9311 3.48213 19.8266 2.5867 20.9311 2.5867H21.2319H21.5173V2.00049C21.5173 0.895919 22.4127 0.000488281 23.5173 0.000488281H23.8181H24.1189H24.4158H24.7165H25.0173H25.3181H25.6189H25.9158H26.2165H26.8181H27.1189H27.4158H27.7165H27.8276H28.0173H28.1284H28.4292H28.5172H28.7261H29.0268H29.3276H29.6284H29.9292H30.2261H30.5268H31.1284H31.4292H31.7261H32.0268H32.3276H32.8275C33.9321 0.000488281 34.8275 0.895919 34.8275 2.00049V7.75911H34.8774H35.1743H35.4751H35.7759H36.2757H39.8964Z" fill="black"/>
<path fill-rule="evenodd" clip-rule="evenodd" d="M27.8276 14.9315V2.00049H23.5173V4.5867H20.9311V14.9315H27.8276ZM25.2414 3.72463H26.1035V5.44876H25.2414V3.72463ZM23.5173 6.31083H22.6553V8.03497H23.5173V6.31083ZM22.6553 8.89704H23.5173V10.6212H22.6553V8.89704ZM23.5173 11.4832H22.6553V13.2074H23.5173V11.4832ZM26.1035 11.4832H25.2414V13.2074H26.1035V11.4832ZM25.2414 8.89704H26.1035V10.6212H25.2414V8.89704ZM26.1035 6.31083H25.2414V8.03497H26.1035V6.31083ZM10.5864 15.7936L17.4829 8.89704V27.0005H19.207V16.6557H29.5517V27.0005H31.2759V9.75911H39.8964V27.0005H43.5V28.0005H7V27.0005H10.5864V15.7936ZM12.3105 27.0005H15.7588V24.4143H12.3105V27.0005ZM36.4482 27.0005V24.4143H34.7241V27.0005H36.4482ZM25.2414 27.0005V25.2763C25.2414 24.8002 24.8555 24.4143 24.3794 24.4143C23.9033 24.4143 23.5173 24.8002 23.5173 25.2763V27.0005H25.2414ZM14.0347 14.0695H15.7588V15.7936H14.0347V14.0695ZM13.1726 17.5177H12.3105V19.2419H13.1726V17.5177ZM15.7588 17.5177H14.0347V19.2419H15.7588V17.5177ZM15.7588 20.966H14.0347V22.6901H15.7588V20.966ZM12.3105 20.966H13.1726V22.6901H12.3105V20.966ZM22.6553 18.3798H20.9311V20.1039H22.6553V18.3798ZM23.5173 18.3798H27.8276V20.1039H23.5173V18.3798ZM20.9311 20.966H25.2414V22.6901H20.9311V20.966ZM27.8276 20.966H26.1035V22.6901H27.8276V20.966ZM33 11.4832H38.1723V12.9919H33V11.4832ZM34.5086 11.6988H33.2155V12.7764H33.3232C33.6208 12.7764 33.862 12.5351 33.862 12.2376H33.9698C34.2674 12.2376 34.5086 11.9963 34.5086 11.6988ZM37.9568 11.6988H36.6637C36.6637 11.9963 36.9049 12.2376 37.2025 12.2376H37.3103C37.3103 12.5351 37.5515 12.7764 37.8491 12.7764H37.9568V11.6988ZM33.2155 16.4401C33.2155 16.0831 33.505 15.7936 33.862 15.7936C34.2191 15.7936 34.5086 16.0831 34.5086 16.4401V17.9488H33.2155V16.4401ZM33.2155 20.7505C33.2155 20.3934 33.505 20.1039 33.862 20.1039C34.2191 20.1039 34.5086 20.3934 34.5086 20.7505V22.2591H33.2155V20.7505ZM37.3103 15.7936C36.9532 15.7936 36.6637 16.0831 36.6637 16.4401V17.9488H37.9568V16.4401C37.9568 16.0831 37.6673 15.7936 37.3103 15.7936ZM36.6637 20.7505C36.6637 20.3934 36.9532 20.1039 37.3103 20.1039C37.6673 20.1039 37.9568 20.3934 37.9568 20.7505V22.2591H36.6637V20.7505Z" fill="white"/>
</svg>
