<svg width="35" height="31" viewBox="0 0 35 31" fill="none" xmlns="http://www.w3.org/2000/svg">
<path d="M19.5 30.0031C19.5835 30.0031 19.6668 30.0024 19.75 30.001C19.8332 30.0024 19.9165 30.0031 20 30.0031C28.2843 30.0031 35 23.2873 35 15.0031C35 6.71878 28.2843 0.00305176 20 0.00305176C19.9165 0.00305176 19.8332 0.00373394 19.75 0.00509303C19.6668 0.00373394 19.5835 0.00305176 19.5 0.00305176C19.4165 0.00305176 19.3332 0.00373394 19.25 0.00509303C19.1668 0.00373394 19.0835 0.00305176 19 0.00305176C18.9165 0.00305176 18.8332 0.00373394 18.75 0.00509304C18.6668 0.00373394 18.5835 0.00305176 18.5 0.00305176C18.4165 0.00305176 18.3332 0.00373394 18.25 0.00509304C18.1668 0.00373394 18.0835 0.00305176 18 0.00305176C17.9165 0.00305176 17.8332 0.00373393 17.75 0.00509302C17.6668 0.00373393 17.5835 0.00305176 17.5 0.00305176C17.4165 0.00305176 17.3332 0.00373393 17.25 0.00509302C17.1668 0.00373393 17.0835 0.00305176 17 0.00305176C16.9165 0.00305176 16.8332 0.00373394 16.75 0.00509303C16.6668 0.00373394 16.5835 0.00305176 16.5 0.00305176C16.4165 0.00305176 16.3332 0.00373394 16.25 0.00509303C16.1668 0.00373394 16.0835 0.00305176 16 0.00305176C15.9165 0.00305176 15.8332 0.00373394 15.75 0.00509303C15.6668 0.00373394 15.5835 0.00305176 15.5 0.00305176C15.4165 0.00305176 15.3332 0.00373394 15.25 0.00509304C15.1668 0.00373394 15.0835 0.00305176 15 0.00305176C6.71573 0.00305176 0 6.71878 0 15.0031C0 23.2873 6.71573 30.0031 15 30.0031C15.0835 30.0031 15.1668 30.0024 15.25 30.001C15.3332 30.0024 15.4165 30.0031 15.5 30.0031C15.5835 30.0031 15.6668 30.0024 15.75 30.001C15.8332 30.0024 15.9165 30.0031 16 30.0031C16.0835 30.0031 16.1668 30.0024 16.25 30.001C16.3332 30.0024 16.4165 30.0031 16.5 30.0031C16.5835 30.0031 16.6668 30.0024 16.75 30.001C16.8332 30.0024 16.9165 30.0031 17 30.0031C17.0835 30.0031 17.1668 30.0024 17.25 30.001C17.3332 30.0024 17.4165 30.0031 17.5 30.0031C17.5835 30.0031 17.6668 30.0024 17.75 30.001C17.8332 30.0024 17.9165 30.0031 18 30.0031C18.0835 30.0031 18.1668 30.0024 18.25 30.001C18.3332 30.0024 18.4165 30.0031 18.5 30.0031C18.5835 30.0031 18.6668 30.0024 18.75 30.001C18.8332 30.0024 18.9165 30.0031 19 30.0031C19.0835 30.0031 19.1668 30.0024 19.25 30.001C19.3332 30.0024 19.4165 30.0031 19.5 30.0031Z" fill="black"/>
<path fill-rule="evenodd" clip-rule="evenodd" d="M15 28.0031C22.1797 28.0031 28 22.1828 28 15.0031C28 7.82335 22.1797 2.00305 15 2.00305C7.8203 2.00305 2 7.82335 2 15.0031C2 22.1828 7.8203 28.0031 15 28.0031ZM15 16.0031C14.4477 16.0031 14 15.5553 14 15.0031V7.00305C14 6.45077 14.4477 6.00305 15 6.00305C15.5523 6.00305 16 6.45077 16 7.00305V14.0031H23C23.5523 14.0031 24 14.4508 24 15.0031C24 15.5553 23.5523 16.0031 23 16.0031H15Z" fill="white"/>
</svg>
