<svg width="55" height="30" viewBox="0 0 55 30" fill="none" xmlns="http://www.w3.org/2000/svg">
<path d="M30.0025 0.000244141H25.0005C16.7295 0.000244141 10 6.72924 10 15.0002C10 23.2712 16.7295 30.0002 25.0005 30.0002H30.0025C34.0035 30.0002 37.7685 28.4382 40.6045 25.6027C43.44 22.7667 45.002 19.0012 45.002 15.0002C45.002 6.72924 38.2735 0.000244141 30.0025 0.000244141Z" fill="black"/>
<path d="M25.001 2.00024C32.1691 2.00024 38.0006 7.83177 38.0006 15.0003C38.0006 22.1683 32.1691 28.0003 25.001 28.0003C17.8325 28.0003 12.0005 22.1683 12.0005 15.0003C12.0005 7.83177 17.8325 2.00024 25.001 2.00024ZM31.0421 16.6228V16.6218C31.1486 16.2223 30.9116 15.8108 30.5115 15.7033L26.161 14.5378C26.101 14.3863 26.0115 14.2438 25.8885 14.1208C25.8465 14.0783 25.8015 14.0408 25.7545 14.0068V7.50426C25.7545 7.09026 25.4185 6.75426 25.0045 6.75426C24.5905 6.75426 24.2545 7.09026 24.2545 7.50426V14.0068C24.248 14.0118 24.2415 14.0168 24.2345 14.0218L23.272 13.7638C22.872 13.6568 22.4605 13.8938 22.353 14.2943C22.2465 14.6943 22.4835 15.1053 22.884 15.2123L23.849 15.4708C23.9085 15.6228 23.998 15.7653 24.121 15.8883C24.1635 15.9308 24.208 15.9678 24.255 16.0018L24.2545 17.5033C24.2545 17.9183 24.5905 18.2533 25.0045 18.2533C25.4185 18.2533 25.7545 17.9183 25.7545 17.5033V16.0018C25.761 15.9973 25.768 15.9923 25.7745 15.9868L30.1231 17.1523C30.5231 17.2598 30.9341 17.0223 31.0421 16.6228ZM25.978 25.7503V25.2503C25.978 24.9743 25.754 24.7503 25.478 24.7503H24.478C24.202 24.7503 23.978 24.9743 23.978 25.2503V25.7503C23.978 26.0263 24.202 26.2503 24.478 26.2503H25.478C25.754 26.2503 25.978 26.0263 25.978 25.7503ZM33.2866 22.6018C33.4821 22.4068 33.4821 22.0898 33.2866 21.8948L32.9331 21.5413C32.7381 21.3458 32.4211 21.3458 32.2261 21.5413L31.5191 22.2483C31.3236 22.4433 31.3236 22.7603 31.5191 22.9553L31.8725 23.3088C32.0675 23.5043 32.3846 23.5043 32.5796 23.3088L33.2866 22.6018ZM18.437 22.9553C18.6325 22.7603 18.6325 22.4433 18.437 22.2483L17.73 21.5413C17.535 21.3458 17.218 21.3458 17.023 21.5413L16.6695 21.8948C16.4745 22.0898 16.4745 22.4068 16.6695 22.6018L17.3765 23.3088C17.572 23.5043 17.8885 23.5043 18.0835 23.3088L18.437 22.9553ZM33.2866 8.10577C33.4821 7.91077 33.4821 7.59427 33.2866 7.39876L32.5796 6.69176C32.3846 6.49676 32.0675 6.49676 31.8725 6.69176L31.5191 7.04526C31.3236 7.24076 31.3236 7.55727 31.5191 7.75227L32.2261 8.45977C32.4211 8.65477 32.7381 8.65477 32.9331 8.45977L33.2866 8.10577ZM18.437 7.75227C18.6325 7.55727 18.6325 7.24076 18.437 7.04526L18.0835 6.69176C17.8885 6.49676 17.572 6.49676 17.3765 6.69176L16.6695 7.39876C16.4745 7.59427 16.4745 7.91077 16.6695 8.10577L17.023 8.45927C17.218 8.65477 17.535 8.65477 17.73 8.45927L18.437 7.75227ZM35.7281 16.0003C36.0041 16.0003 36.2281 15.7763 36.2281 15.5003V14.5003C36.2281 14.2243 36.0041 14.0003 35.7281 14.0003H35.2281C34.9521 14.0003 34.7281 14.2243 34.7281 14.5003V15.5003C34.7281 15.7763 34.9521 16.0003 35.2281 16.0003H35.7281ZM15.228 15.5003V14.5003C15.228 14.2243 15.004 14.0003 14.728 14.0003H14.228C13.952 14.0003 13.728 14.2243 13.728 14.5003V15.5003C13.728 15.7763 13.952 16.0003 14.228 16.0003H14.728C15.004 16.0003 15.228 15.7763 15.228 15.5003ZM23.978 4.25025V4.75026C23.978 5.02626 24.202 5.25026 24.478 5.25026H25.478C25.754 5.25026 25.978 5.02626 25.978 4.75026V4.25025C25.978 3.97425 25.754 3.75025 25.478 3.75025H24.478C24.202 3.75025 23.978 3.97425 23.978 4.25025Z" fill="white"/>
</svg>
