<svg width="37" height="30" viewBox="0 0 37 30" fill="none" xmlns="http://www.w3.org/2000/svg">
<path d="M20.5 30C20.5835 30 20.6668 29.9993 20.75 29.998C20.8332 29.9993 20.9165 30 21 30C29.2843 30 36 23.2843 36 15C36 6.71573 29.2843 0 21 0C20.9165 0 20.8332 0.000682181 20.75 0.00204127C20.6668 0.000682181 20.5835 0 20.5 0C20.4165 0 20.3332 0.000682181 20.25 0.00204127C20.1668 0.000682181 20.0835 0 20 0C19.9165 0 19.8332 0.000682186 19.75 0.00204129C19.6668 0.000682185 19.5835 0 19.5 0C19.4165 0 19.3332 0.000682186 19.25 0.00204129C19.1668 0.000682185 19.0835 0 19 0C18.9165 0 18.8332 0.000682176 18.75 0.00204126C18.6668 0.000682177 18.5835 0 18.5 0C18.4165 0 18.3332 0.000682174 18.25 0.00204126C18.1668 0.000682176 18.0835 0 18 0C17.9165 0 17.8332 0.00068218 17.75 0.00204127C17.6668 0.000682181 17.5835 0 17.5 0C17.4165 0 17.3332 0.000682181 17.25 0.00204127C17.1668 0.000682181 17.0835 0 17 0C16.9165 0 16.8332 0.00068218 16.75 0.00204127C16.6668 0.00068218 16.5835 0 16.5 0C16.4165 0 16.3332 0.000682183 16.25 0.00204128C16.1668 0.000682183 16.0835 0 16 0C7.71573 0 1 6.71573 1 15C1 23.2843 7.71573 30 16 30C16.0835 30 16.1668 29.9993 16.25 29.998C16.3332 29.9993 16.4165 30 16.5 30C16.5835 30 16.6668 29.9993 16.75 29.998C16.8332 29.9993 16.9165 30 17 30C17.0835 30 17.1668 29.9993 17.25 29.998C17.3332 29.9993 17.4165 30 17.5 30C17.5835 30 17.6668 29.9993 17.75 29.998C17.8332 29.9993 17.9165 30 18 30C18.0835 30 18.1668 29.9993 18.25 29.998C18.3332 29.9993 18.4165 30 18.5 30C18.5835 30 18.6668 29.9993 18.75 29.998C18.8332 29.9993 18.9165 30 19 30C19.0835 30 19.1668 29.9993 19.25 29.998C19.3332 29.9993 19.4165 30 19.5 30C19.5835 30 19.6668 29.9993 19.75 29.998C19.8332 29.9993 19.9165 30 20 30C20.0835 30 20.1668 29.9993 20.25 29.998C20.3332 29.9993 20.4165 30 20.5 30Z" fill="black"/>
<path fill-rule="evenodd" clip-rule="evenodd" d="M16 28C23.1797 28 29 22.1797 29 15C29 7.8203 23.1797 2 16 2C8.8203 2 3 7.8203 3 15C3 22.1797 8.8203 28 16 28ZM16 16C15.4477 16 15 15.5523 15 15V7C15 6.44772 15.4477 6 16 6C16.5523 6 17 6.44772 17 7V14H24C24.5523 14 25 14.4477 25 15C25 15.5523 24.5523 16 24 16H16Z" fill="white"/>
</svg>
