<svg width="47" height="30" viewBox="0 0 47 30" fill="none" xmlns="http://www.w3.org/2000/svg">
<path d="M23.0891 18.7488C23.4897 19.3877 23.7604 20.1815 23.8124 21.0071C23.8745 21.0042 23.9371 21.0028 24 21.0028C24.9459 21.0028 25.8152 21.3312 26.5 21.8801C27.1848 21.3312 28.054 21.0028 29 21.0028C30.6667 21.0028 32.3333 21.0028 34 21.0028C36.2091 21.0028 38 22.7937 38 25.0028C38 27.2119 36.2091 29.0028 34 29.0028C33.3331 29.0028 32.6669 29.0028 32 29.0028C31.8861 29.0028 31.7732 28.998 31.6617 28.9887C30.9546 29.6194 30.0221 30.0028 29 30.0028C27.3333 30.0028 25.6667 30.0028 24 30.0028C22.9779 30.0028 22.0454 29.6194 21.3383 28.9887C21.2268 28.998 21.1139 29.0028 21 29.0028C20.3331 29.0028 19.6669 29.0028 19 29.0028C16.9082 29.0028 15.1914 27.3971 15.0149 25.351C13.8731 25.4091 12.7016 24.9641 11.8925 23.8577C10.0247 21.3039 9 18.2062 9 15.0028C9 11.0245 10.5804 7.20924 13.3934 4.39619C16.2064 1.58315 20.0217 0.00279455 24 0.00279277C25.6667 0.00279198 27.3333 0.00279352 29 0.00279277C30.283 0.00279216 31.549 0.167159 32.7699 0.484223C33.3839 0.159495 34.0501 0.00376272 34.7109 0.0015855C36.3777 -0.00390675 38.0441 0.00707754 39.7109 0.0015855C41.529 -0.0044051 43.3059 1.1522 43.8411 3.1497L45.853 10.6581C46.5984 13.4399 44.4427 16.0135 41.7596 16.0049C40.0928 15.9996 38.4265 16.0102 36.7597 16.0049C36.3992 16.0037 36.0291 15.956 35.6553 15.8558L32.9252 15.1243C33.8735 16.3023 33.8008 18.0304 32.7071 19.1241C32.1167 19.7145 31.3414 20.0074 30.5676 20.0027C28.9005 19.9927 27.2342 20.013 25.5671 20.0027C24.8056 19.998 24.0455 19.7052 23.4645 19.1241L23.0891 18.7488Z" fill="black"/>
<path fill-rule="evenodd" clip-rule="evenodd" d="M38.9213 11.1729C39.3684 12.8414 37.8416 14.3683 36.173 13.9212L28.6646 11.9093C26.9961 11.4622 26.4372 9.37657 27.6587 8.15512L28.5667 7.24709C27.1945 6.43887 25.6198 6.00215 24.0001 6.00215C21.6137 6.00215 19.325 6.95014 17.6376 8.63756C15.9502 10.325 15.0022 12.6136 15.0022 15C15.0022 16.7133 15.4908 18.3762 16.3909 19.8024C16.9807 20.737 17.0041 21.996 16.2226 22.7774C15.4411 23.5589 14.1592 23.5663 13.5068 22.6743C11.888 20.4609 11 17.7763 11 15C11 11.5522 12.3696 8.2456 14.8076 5.80762C17.2456 3.36964 20.5522 2 24.0001 2C26.6874 2 29.289 2.83207 31.4603 4.35355L33.1552 2.65861C34.3767 1.43717 36.4623 1.99602 36.9094 3.66455L38.9213 11.1729ZM19 27C20.1046 27 21 26.1046 21 25C21 23.8955 20.1046 23 19 23C17.8955 23 17 23.8955 17 25C17 26.1046 17.8955 27 19 27ZM26.0001 26C26.0001 27.1046 25.1046 28 24.0001 28C22.8955 28 22.0001 27.1046 22.0001 26C22.0001 24.8955 22.8955 24 24.0001 24C25.1046 24 26.0001 24.8955 26.0001 26ZM29.0001 27C30.1047 27 31.0001 26.1046 31.0001 25C31.0001 23.8955 30.1047 23 29.0001 23C27.8955 23 27.0001 23.8955 27.0001 25C27.0001 26.1046 27.8955 27 29.0001 27ZM23.0001 10C23.0001 9.44772 23.4478 9.00001 24.0001 9.00001C24.5523 9.00001 25.0001 9.44772 25.0001 10V15L26.293 16.2929C26.6835 16.6834 26.6835 17.3166 26.293 17.7071C25.9024 18.0977 25.2693 18.0977 24.8787 17.7071L23.293 16.1213C23.0906 15.9189 22.9931 15.6514 23.0004 15.3862C23.0002 15.3787 23.0001 15.3712 23.0001 15.3637V10Z" fill="white"/>
</svg>
