<svg width="24" height="21" viewBox="0 0 24 21" fill="none" xmlns="http://www.w3.org/2000/svg">
<path fill-rule="evenodd" clip-rule="evenodd" d="M10.0003 0.00292969H13.335C18.849 0.00292969 23.3347 4.48893 23.3347 10.0029C23.3347 12.6703 22.2933 15.1806 20.403 17.0713C18.5123 18.9616 16.0023 20.0029 13.335 20.0029H10.0003C4.48633 20.0029 0 15.5169 0 10.0029C0 4.48893 4.48633 0.00292969 10.0003 0.00292969ZM18.6671 10.003C18.6671 5.22395 14.7794 1.33627 10.0007 1.33627C5.22167 1.33627 1.33366 5.22395 1.33366 10.003C1.33366 14.7817 5.22167 18.6697 10.0007 18.6697C14.7794 18.6697 18.6671 14.7817 18.6671 10.003ZM14.028 11.084V11.0846C13.956 11.351 13.682 11.5093 13.4154 11.4376L10.5164 10.6606C10.512 10.6643 10.5074 10.6676 10.503 10.6706V11.6716C10.503 11.9483 10.279 12.1716 10.003 12.1716C9.72703 12.1716 9.50303 11.9483 9.50303 11.6716L9.50335 10.6706C9.47202 10.648 9.44235 10.6233 9.41401 10.595C9.33201 10.513 9.27235 10.418 9.23268 10.3166L8.58934 10.1443C8.32234 10.073 8.16434 9.79897 8.23534 9.53231C8.30701 9.26531 8.58135 9.1073 8.84801 9.17864L9.48968 9.35063C9.49434 9.3473 9.49869 9.34397 9.50303 9.34064V5.00562C9.50303 4.72961 9.72703 4.50561 10.003 4.50561C10.279 4.50561 10.503 4.72961 10.503 5.00562V9.34064C10.5344 9.3633 10.5644 9.3883 10.5924 9.41663C10.6744 9.49863 10.734 9.59364 10.774 9.69464L13.6744 10.4716C13.941 10.5433 14.099 10.8176 14.028 11.084ZM10.652 16.8363V17.1697C10.652 17.3537 10.5027 17.503 10.3187 17.503H9.65201C9.46801 17.503 9.31868 17.3537 9.31868 17.1697V16.8363C9.31868 16.6523 9.46801 16.503 9.65201 16.503H10.3187C10.5027 16.503 10.652 16.6523 10.652 16.8363ZM15.2887 14.3637L15.5244 14.5993C15.6547 14.7293 15.6547 14.9407 15.5244 15.0707L15.053 15.542C14.923 15.6723 14.7117 15.6723 14.5817 15.542L14.346 15.3063C14.2157 15.1763 14.2157 14.965 14.346 14.835L14.8174 14.3637C14.9474 14.2333 15.1587 14.2333 15.2887 14.3637ZM5.62467 14.835C5.75501 14.965 5.75501 15.1763 5.62467 15.3063L5.38899 15.542C5.25899 15.6723 5.04799 15.6723 4.91766 15.542L4.44632 15.0707C4.31632 14.9407 4.31632 14.7293 4.44632 14.5993L4.682 14.3637C4.812 14.2333 5.02334 14.2333 5.15334 14.3637L5.62467 14.835ZM15.5244 4.93528C15.6547 5.06562 15.6547 5.27662 15.5244 5.40662L15.2887 5.64262C15.1587 5.77262 14.9474 5.77262 14.8174 5.64262L14.346 5.17095C14.2157 5.04095 14.2157 4.82995 14.346 4.69961L14.5817 4.46395C14.7117 4.33395 14.923 4.33395 15.053 4.46395L15.5244 4.93528ZM5.62467 4.69961C5.75501 4.82995 5.75501 5.04095 5.62467 5.17095L5.15334 5.64229C5.02334 5.77262 4.812 5.77262 4.682 5.64229L4.44632 5.40662C4.31632 5.27662 4.31632 5.06562 4.44632 4.93528L4.91766 4.46395C5.04799 4.33395 5.25899 4.33395 5.38899 4.46395L5.62467 4.69961ZM17.4854 10.3363C17.4854 10.5203 17.336 10.6696 17.152 10.6696H16.8187C16.6347 10.6696 16.4854 10.5203 16.4854 10.3363V9.66964C16.4854 9.48564 16.6347 9.3363 16.8187 9.3363H17.152C17.336 9.3363 17.4854 9.48564 17.4854 9.66964V10.3363ZM3.15199 9.3363C3.33599 9.3363 3.48532 9.48564 3.48532 9.66964V10.3363C3.48532 10.5203 3.33599 10.6696 3.15199 10.6696H2.81865C2.63465 10.6696 2.48532 10.5203 2.48532 10.3363V9.66964C2.48532 9.48564 2.63465 9.3363 2.81865 9.3363H3.15199ZM9.31868 3.16961V2.83627C9.31868 2.65227 9.46801 2.50294 9.65201 2.50294H10.3187C10.5027 2.50294 10.652 2.65227 10.652 2.83627V3.16961C10.652 3.35361 10.5027 3.50294 10.3187 3.50294H9.65201C9.46801 3.50294 9.31868 3.35361 9.31868 3.16961Z" fill="black"/>
</svg>
