<svg width="39" height="30" viewBox="0 0 39 30" fill="none" xmlns="http://www.w3.org/2000/svg">
<path d="M38.0365 14.0755C37.2735 13.185 36.1635 12.674 34.9915 12.674H33.473C33.4305 12.671 33.387 12.6695 33.344 12.6695C33.2515 12.6695 33.118 12.6465 32.999 12.5355C32.9 12.4435 32.877 12.3115 32.8755 12.2165C32.872 12.0335 32.945 11.849 33.07 11.724L34.9445 9.84998C35.6515 9.14248 36.0415 8.20248 36.0415 7.20248C36.0415 6.20248 35.652 5.26198 34.9445 4.55498C32.0495 1.66048 28.05 0.000976562 23.971 0.000976562H18.971C15.4225 0.000976562 12.005 1.25298 9.34603 3.52648C9.18053 3.66848 9.02653 3.82098 8.87053 3.97198H2.63603C2.33153 3.97198 2.03253 4.02698 1.74753 4.13548L1.62703 4.18098C0.46753 4.62148 -0.194971 5.82348 0.0510294 7.03898L2.34903 17.7365C2.43603 18.1435 2.56053 18.5445 2.71803 18.93C2.81353 19.163 3.24053 19.956 3.35953 20.1435L4.64153 22.1595C4.67553 22.213 4.71203 22.2645 4.75053 22.3145C4.84753 22.4395 4.95553 22.551 5.06803 22.657C4.71753 23.5495 4.67203 24.565 5.00253 25.513C5.10303 25.802 5.21703 26.087 5.34053 26.361C5.88753 27.5705 6.93953 28.419 8.16153 28.639C8.34203 29.1415 8.71853 29.5575 9.20253 29.7835C9.47353 29.9095 9.76703 29.974 10.061 29.974C10.298 29.974 23.2785 30.001 24.12 30.001C27.4845 30.001 30.773 28.867 33.3795 26.8075C36.3905 24.429 38.37 21.0525 38.953 17.299C39.1335 16.141 38.799 14.966 38.0365 14.0755Z" fill="black"/>
<path fill-rule="evenodd" clip-rule="evenodd" d="M2.33809 6.05087L2.45859 6.00537C2.69559 5.91537 2.9576 6.01485 3.0721 6.23935L7.88912 15.9554C8.02112 16.2224 8.12962 16.5009 8.21262 16.7879L4.5696 18.1719C4.4566 17.8964 4.3681 17.6104 4.3051 17.3169L2.0121 6.64237C1.9621 6.39337 2.10108 6.14087 2.33809 6.05087ZM8.65862 20.2024C8.66562 20.6409 8.39461 21.0414 7.98661 21.1964L7.45711 21.3979C7.04911 21.5529 6.59511 21.4279 6.33011 21.0874L5.0481 19.0709L8.39912 17.7974L8.65862 20.2024ZM7.69962 22.4304C7.80962 22.3594 7.92862 22.2994 8.05462 22.2514C8.18062 22.2034 8.30862 22.1699 8.43662 22.1504C9.33213 22.0119 10.2266 22.5434 10.5486 23.4654C10.7781 24.1244 10.9141 24.7744 10.9621 25.3689C10.9811 25.6069 10.9861 25.8355 10.9776 26.0525C10.9641 26.3775 10.9201 26.6759 10.8456 26.9369C10.7471 27.2854 10.5951 27.5674 10.3926 27.7599C10.2911 27.8559 10.1771 27.9294 10.0511 27.9774C9.80161 27.2619 9.20762 26.7864 8.53562 26.6744C7.92662 26.5724 7.42711 26.1205 7.16411 25.538C7.06561 25.3205 6.9746 25.0919 6.8916 24.8549C6.5701 23.9324 6.92862 22.9249 7.69962 22.4304ZM29.9917 14.6744C31.2242 14.6744 32.1672 15.7749 31.9777 16.9919C31.4942 20.1029 29.8837 23.0714 27.1402 25.2385C22.8717 28.6105 16.9091 28.8855 12.3471 26.1194C12.3471 26.1154 12.3481 26.1119 12.3481 26.1079C12.3591 25.8354 12.3531 25.5494 12.3296 25.2584C12.2706 24.5224 12.1066 23.7669 11.8436 23.0114C11.5116 22.0599 10.7866 21.3359 9.90062 20.9869C9.98662 20.7309 10.0346 20.4604 10.0306 20.1809C10.0296 20.1384 10.0271 20.0964 10.0226 20.0544L9.89862 18.9044C10.1991 18.9689 10.5161 18.9729 10.8331 18.8879C11.9031 18.6014 12.5381 17.5019 12.2516 16.4319C11.9646 15.3624 10.8651 14.7274 9.79461 15.0139C9.54211 15.0819 9.31611 15.1979 9.11811 15.3449L9.11712 15.3434L6.79611 10.6614C7.53012 8.56536 8.81012 6.61785 10.6471 5.04684C15.8526 0.594323 23.6867 1.12634 28.5312 5.96936C29.2122 6.65086 29.2122 7.75486 28.5312 8.43586L26.6567 10.3099C25.6467 11.3194 25.5922 13.0279 26.6377 14.0004C27.1177 14.4474 27.7312 14.6704 28.3447 14.6704V14.6744H29.9917ZM10.2151 11.8234C11.1741 12.3769 12.4011 12.0484 12.9551 11.0894C13.5091 10.1304 13.1801 8.90387 12.2206 8.34986C11.2616 7.79586 10.0346 8.12487 9.48062 9.08388C8.92712 10.0429 9.25561 11.2699 10.2151 11.8234ZM17.2312 7.80888C18.3017 7.52238 18.9366 6.42285 18.6496 5.35284C18.3631 4.28284 17.2632 3.64784 16.1932 3.93484C15.1231 4.22134 14.4876 5.32087 14.7746 6.39087C15.0611 7.46088 16.1611 8.09538 17.2312 7.80888ZM22.5752 8.51237C23.5347 9.06587 24.7617 8.73736 25.3152 7.77836C25.8692 6.81885 25.5407 5.59285 24.5812 5.03885C23.6217 4.48484 22.3952 4.81335 21.8412 5.77286C21.2872 6.73186 21.6157 7.95837 22.5752 8.51237ZM21.9152 25.2844C22.9852 24.9979 23.6202 23.8984 23.3337 22.8284C23.0467 21.7589 21.9467 21.1239 20.8767 21.4104C19.8067 21.6974 19.1717 22.7969 19.4582 23.8664C19.7452 24.9364 20.8452 25.5714 21.9152 25.2844ZM28.6272 20.1354C29.1812 19.1764 28.8527 17.9499 27.8932 17.3959C26.9337 16.8424 25.7067 17.1709 25.1532 18.1299C24.5992 19.0894 24.9277 20.3154 25.8872 20.8694C26.8467 21.4234 28.0737 21.0944 28.6272 20.1354ZM16.2672 23.4464C16.8212 22.4874 16.4922 21.2609 15.5331 20.7074C14.5736 20.1534 13.3466 20.4819 12.7926 21.4409C12.2386 22.4004 12.5676 23.6269 13.5266 24.1804C14.4861 24.7344 15.7132 24.4059 16.2672 23.4464Z" fill="white"/>
</svg>
