<svg width="55" height="30" viewBox="0 0 55 30" fill="none" xmlns="http://www.w3.org/2000/svg">
<path d="M46.0365 14.0747C45.2735 13.1842 44.1635 12.6732 42.9915 12.6732H41.473C41.4305 12.6702 41.387 12.6687 41.344 12.6687C41.2515 12.6687 41.118 12.6457 40.999 12.5347C40.9 12.4427 40.877 12.3107 40.8755 12.2157C40.872 12.0327 40.945 11.8482 41.07 11.7232L42.9445 9.84924C43.6515 9.14174 44.0415 8.20174 44.0415 7.20174C44.0415 6.20174 43.652 5.26124 42.9445 4.55424C40.0495 1.65974 36.05 0.000244141 31.971 0.000244141H26.971C23.4225 0.000244141 20.005 1.25224 17.346 3.52574C17.1805 3.66774 17.0265 3.82024 16.8705 3.97124H10.636C10.3315 3.97124 10.0325 4.02624 9.74753 4.13474L9.62703 4.18024C8.46753 4.62074 7.80503 5.82274 8.05103 7.03824L10.349 17.7357C10.436 18.1427 10.5605 18.5437 10.718 18.9292C10.8135 19.1622 11.2405 19.9552 11.3595 20.1427L12.6415 22.1587C12.6755 22.2122 12.712 22.2637 12.7505 22.3137C12.8475 22.4387 12.9555 22.5502 13.068 22.6562C12.7175 23.5487 12.672 24.5642 13.0025 25.5122C13.103 25.8012 13.217 26.0862 13.3405 26.3602C13.8875 27.5697 14.9395 28.4182 16.1615 28.6382C16.342 29.1407 16.7185 29.5567 17.2025 29.7827C17.4735 29.9087 17.767 29.9732 18.061 29.9732C18.298 29.9732 31.2785 30.0002 32.12 30.0002C35.4845 30.0002 38.773 28.8662 41.3795 26.8067C44.3905 24.4282 46.37 21.0517 46.953 17.2982C47.1335 16.1402 46.799 14.9652 46.0365 14.0747Z" fill="black"/>
<path fill-rule="evenodd" clip-rule="evenodd" d="M10.3381 6.05014L10.4586 6.00464C10.6956 5.91464 10.9576 6.01412 11.0721 6.23862L15.8891 15.9547C16.0211 16.2217 16.1296 16.5002 16.2126 16.7872L12.5696 18.1712C12.4566 17.8957 12.3681 17.6097 12.3051 17.3162L10.0121 6.64164C9.9621 6.39263 10.1011 6.14014 10.3381 6.05014ZM16.6586 20.2017C16.6656 20.6402 16.3946 21.0407 15.9866 21.1957L15.4571 21.3972C15.0491 21.5522 14.5951 21.4272 14.3301 21.0867L13.0481 19.0702L16.3991 17.7967L16.6586 20.2017ZM15.6996 22.4297C15.8096 22.3587 15.9286 22.2987 16.0546 22.2507C16.1806 22.2027 16.3086 22.1692 16.4366 22.1497C17.3321 22.0112 18.2266 22.5427 18.5486 23.4647C18.7781 24.1237 18.9141 24.7737 18.9621 25.3682C18.9811 25.6062 18.9861 25.8347 18.9776 26.0517C18.9641 26.3767 18.9201 26.6752 18.8456 26.9362C18.7471 27.2847 18.5951 27.5667 18.3926 27.7592C18.2911 27.8552 18.1771 27.9287 18.0511 27.9767C17.8016 27.2612 17.2076 26.7857 16.5356 26.6737C15.9266 26.5717 15.4271 26.1197 15.1641 25.5372C15.0656 25.3197 14.9746 25.0912 14.8916 24.8542C14.5701 23.9317 14.9286 22.9242 15.6996 22.4297ZM37.9917 14.6737C39.2242 14.6737 40.1672 15.7742 39.9777 16.9912C39.4942 20.1022 37.8837 23.0707 35.1402 25.2377C30.8717 28.6097 24.9091 28.8847 20.3471 26.1187C20.3471 26.1147 20.3481 26.1112 20.3481 26.1072C20.3591 25.8347 20.3531 25.5487 20.3296 25.2577C20.2706 24.5217 20.1066 23.7662 19.8436 23.0107C19.5116 22.0592 18.7866 21.3352 17.9006 20.9862C17.9866 20.7302 18.0346 20.4597 18.0306 20.1802C18.0296 20.1377 18.0271 20.0957 18.0226 20.0537L17.8986 18.9037C18.1991 18.9682 18.5161 18.9722 18.8331 18.8872C19.9031 18.6007 20.5381 17.5012 20.2516 16.4312C19.9646 15.3617 18.8651 14.7267 17.7946 15.0132C17.5421 15.0812 17.3161 15.1972 17.1181 15.3442L17.1171 15.3427L14.7961 10.6606C15.5301 8.56463 16.8101 6.61712 18.6471 5.04611C23.8526 0.59359 31.6867 1.12561 36.5312 5.96863C37.2122 6.65013 37.2122 7.75413 36.5312 8.43513L34.6567 10.3091C33.6467 11.3186 33.5922 13.0272 34.6377 13.9997C35.1177 14.4467 35.7312 14.6697 36.3447 14.6697V14.6737H37.9917ZM18.2151 11.8227C19.1741 12.3762 20.4011 12.0476 20.9551 11.0886C21.5091 10.1296 21.1801 8.90313 20.2206 8.34913C19.2616 7.79513 18.0346 8.12414 17.4806 9.08314C16.9271 10.0421 17.2556 11.2692 18.2151 11.8227ZM25.2312 7.80814C26.3017 7.52164 26.9366 6.42211 26.6496 5.35211C26.3631 4.28211 25.2632 3.6471 24.1932 3.9341C23.1231 4.22061 22.4876 5.32013 22.7746 6.39014C23.0611 7.46014 24.1611 8.09465 25.2312 7.80814ZM30.5752 8.51164C31.5347 9.06514 32.7617 8.73663 33.3152 7.77763C33.8692 6.81812 33.5407 5.59212 32.5812 5.03811C31.6217 4.48411 30.3952 4.81262 29.8412 5.77213C29.2872 6.73113 29.6157 7.95764 30.5752 8.51164ZM29.9152 25.2837C30.9852 24.9972 31.6202 23.8977 31.3337 22.8277C31.0467 21.7582 29.9467 21.1232 28.8767 21.4097C27.8067 21.6967 27.1717 22.7962 27.4582 23.8657C27.7452 24.9357 28.8452 25.5707 29.9152 25.2837ZM36.6272 20.1347C37.1812 19.1757 36.8527 17.9492 35.8932 17.3952C34.9337 16.8417 33.7067 17.1702 33.1532 18.1292C32.5992 19.0887 32.9277 20.3147 33.8872 20.8687C34.8467 21.4227 36.0737 21.0937 36.6272 20.1347ZM24.2672 23.4457C24.8212 22.4867 24.4922 21.2602 23.5331 20.7067C22.5736 20.1527 21.3466 20.4812 20.7926 21.4402C20.2386 22.3997 20.5676 23.6262 21.5266 24.1797C22.4861 24.7337 23.7132 24.4052 24.2672 23.4457Z" fill="white"/>
</svg>
