<svg width="55" height="30" viewBox="0 0 55 30" fill="none" xmlns="http://www.w3.org/2000/svg">
<path fill-rule="evenodd" clip-rule="evenodd" d="M5.99272 4.00024V20.0502C5.67272 20.1152 5.36673 20.2452 5.09323 20.4302L5.09123 20.4352C4.68873 20.7102 4.37523 21.0952 4.18923 21.5452L4.18624 21.5502C4.08174 21.8052 4.02023 22.0802 4.00423 22.3552C3.99223 22.5602 4.00573 22.7702 4.04523 22.9752C4.13873 23.4552 4.37173 23.9002 4.71573 24.2502C4.72023 24.2552 6.68173 26.2153 6.68323 26.2153C7.24673 26.7753 7.91623 27.2203 8.65273 27.5153H8.65422C9.38422 27.8103 10.1652 27.9603 10.9527 27.9503H15.8048C15.8541 27.9509 15.9034 27.9509 15.9527 27.9503H30.5017C30.6787 28.2703 30.9012 28.5653 31.1637 28.8253C31.2787 28.9403 31.3997 29.0503 31.5262 29.1453L31.5302 29.1503C31.8162 29.3753 32.1297 29.5553 32.4622 29.6953C32.9432 29.8953 33.4622 30.0002 33.9927 30.0002H38.9927H41.9927H46.9927C47.1132 30.0002 47.2327 29.9952 47.3517 29.9852C47.3557 29.9802 47.3597 29.9802 47.3637 29.9802C47.5567 29.9652 47.7477 29.9303 47.9347 29.8853H47.9372C48.6447 29.7153 49.2977 29.3503 49.8212 28.8253C50.5712 28.0753 50.9927 27.0602 50.9927 26.0002V10.0002C50.9927 9.54024 50.9142 9.09023 50.7647 8.67023L50.7642 8.66522C50.5667 8.11022 50.2467 7.59523 49.8207 7.17023C49.0702 6.42023 48.0532 6.00024 46.9927 6.00024H45.9927V4.00024C45.9927 3.51024 45.9037 3.03027 45.7347 2.58527L45.7307 2.59027L45.7092 2.52527L45.6887 2.47522L45.6847 2.46027L45.6692 2.42523L45.6627 2.40521L45.6567 2.39526L45.6472 2.37024L45.6202 2.31525C45.5742 2.21525 45.5222 2.11526 45.4657 2.01526C45.2912 1.71026 45.0752 1.42523 44.8222 1.17023H44.8207C44.3947 0.745227 43.8832 0.425225 43.3267 0.230225L43.3237 0.22522C42.8997 0.0752198 42.4502 0.000244141 41.9927 0.000244141H36.9927H14.9927H9.99272C8.93172 0.000244141 7.91473 0.420227 7.16423 1.17023C6.41423 1.92023 5.99272 2.94024 5.99272 4.00024Z" fill="black"/>
<path fill-rule="evenodd" clip-rule="evenodd" d="M30.5929 22.4503V22.4003H30.6429L30.5929 22.4503ZM30.5929 22.4503V25.9503H10.9429C10.4154 25.9553 9.89136 25.8602 9.40186 25.6602C8.91236 25.4652 8.46735 25.1702 8.09285 24.8002L6.14286 22.8502C6.07436 22.7802 6.02786 22.6902 6.00936 22.5952C6.00136 22.5552 5.99836 22.5102 6.00086 22.4702C6.00386 22.4152 6.01636 22.3602 6.03736 22.3102C6.07486 22.2202 6.13786 22.1403 6.21886 22.0853C6.27886 22.0453 6.34685 22.0152 6.41835 22.0052C6.44285 22.0002 6.46785 22.0002 6.49285 22.0002H15.9928L17.4429 23.4503C17.6189 23.6453 17.8353 23.8003 18.0768 23.9003C18.3183 24.0053 18.5799 24.0552 18.8429 24.0502H28.1929C28.7204 24.0402 29.2234 23.8253 29.5929 23.4503L30.5929 22.4503ZM9.99285 19.0002H30.6429V21.0002H7.99285V4.00024C7.99285 3.47024 8.20336 2.96027 8.57836 2.58527C8.95386 2.21027 9.46235 2.00024 9.99285 2.00024H36.9928C37.2218 2.00024 37.4474 2.04023 37.6594 2.11523C37.9379 2.21023 38.1939 2.37027 38.4074 2.58527C38.5339 2.71027 38.6419 2.85525 38.7294 3.00525C38.7664 3.07025 38.7994 3.13526 38.8284 3.20526L38.8638 3.29022C38.9483 3.51522 38.9928 3.75524 38.9928 4.00024V6.65027H36.9928V5.00024C36.9928 4.93024 36.9854 4.85522 36.9704 4.78522C36.9549 4.71522 36.9313 4.64526 36.9003 4.58026C36.8513 4.47526 36.7838 4.37522 36.6998 4.29022C36.6558 4.24522 36.6078 4.21023 36.5573 4.17523C36.5308 4.15523 36.5033 4.14024 36.4753 4.12524C36.4193 4.09524 36.3609 4.06523 36.3004 4.05023C36.2019 4.01523 36.0983 4.00024 35.9928 4.00024H10.9928C10.8913 4.00024 10.7909 4.01523 10.6959 4.04523C10.6444 4.06023 10.5944 4.08022 10.5459 4.10522C10.4504 4.15022 10.3623 4.21522 10.2858 4.29022C10.0983 4.48022 9.99285 4.73524 9.99285 5.00024V19.0002ZM24.6384 10.2202C24.6414 10.2452 24.6429 10.2702 24.6429 10.3002V10.7502C24.6429 10.8202 24.6318 10.8802 24.6203 10.9352L24.6178 10.9503C24.6058 11.0103 24.5929 11.0753 24.5929 11.1503C24.5814 11.2003 24.5638 11.2552 24.5403 11.3002C24.5253 11.3352 24.5078 11.3653 24.4883 11.3903C24.4733 11.4153 24.4574 11.4353 24.4399 11.4553C24.4254 11.4753 24.4099 11.4902 24.3934 11.5052L24.3609 11.5352C24.3154 11.5752 24.2659 11.6052 24.2134 11.6302C24.1294 11.6702 24.0374 11.6953 23.9429 11.7003C23.8429 11.7403 23.7564 11.8103 23.6944 11.8953C23.6324 11.9853 23.5969 12.0903 23.5929 12.2003C23.5929 12.3003 23.5929 12.3503 23.6429 12.4003C23.6674 12.4303 23.6889 12.4602 23.7079 12.4952C23.7194 12.5152 23.7304 12.5352 23.7399 12.5602C23.7484 12.5802 23.7564 12.6002 23.7629 12.6252C23.7694 12.6452 23.7748 12.6652 23.7793 12.6852C23.7868 12.7202 23.7919 12.7602 23.7929 12.8002C23.7873 12.8652 23.7709 12.9302 23.7439 12.9902C23.7274 13.0302 23.7068 13.0652 23.6823 13.1002L23.6514 13.1403C23.6334 13.1603 23.6139 13.1803 23.5929 13.2003L23.4664 13.3052C23.1969 13.5302 22.8949 13.7852 22.5929 14.0002C22.4694 14.0802 22.3209 14.1152 22.1744 14.0952C22.0279 14.0802 21.8924 14.0103 21.7929 13.9003C21.7539 13.8303 21.6928 13.7802 21.6198 13.7502C21.5468 13.7252 21.4664 13.7252 21.3929 13.7502C21.3034 13.7502 21.2169 13.7803 21.1454 13.8353C21.0739 13.8903 21.0203 13.9652 20.9928 14.0502C20.9488 14.1702 20.8669 14.2752 20.7589 14.3502C20.6509 14.4202 20.5229 14.4553 20.3929 14.4503C20.1039 14.4053 19.8169 14.3502 19.5334 14.2802C19.3689 14.2402 19.2054 14.2003 19.0429 14.1503C18.9194 14.1253 18.8089 14.0553 18.7349 13.9503C18.6609 13.8503 18.6279 13.7252 18.6429 13.6002V13.4503C18.6469 13.3703 18.6304 13.2952 18.5954 13.2252C18.5604 13.1502 18.5079 13.0952 18.4429 13.0502C18.3204 12.9852 18.1779 12.9652 18.0429 13.0002C17.9099 13.0602 17.7574 13.0703 17.6174 13.0253C17.4779 12.9803 17.3614 12.8802 17.2929 12.7502C17.1739 12.5402 17.0618 12.3302 16.9563 12.1152C16.9203 12.0402 16.8854 11.9653 16.8514 11.8903L16.7929 11.7603L16.7428 11.6503C16.6973 11.5753 16.6799 11.4853 16.6929 11.4003C16.6919 11.3453 16.6978 11.2952 16.7103 11.2452C16.7258 11.1852 16.7509 11.1253 16.7849 11.0703C16.8069 11.0353 16.8328 11.0052 16.8613 10.9752C16.9128 10.9252 16.9744 10.8802 17.0429 10.8502C17.1344 10.7552 17.1859 10.6302 17.1859 10.5002C17.1859 10.3702 17.1344 10.2403 17.0429 10.1503C16.9369 10.1003 16.8469 10.0252 16.7849 9.92523C16.7229 9.83023 16.6904 9.71522 16.6929 9.60022C16.6849 9.49522 16.7018 9.39523 16.7428 9.30023C16.8623 8.95523 17.0134 8.62023 17.1929 8.30023L17.2099 8.26526L17.2258 8.24023C17.2403 8.21523 17.2558 8.19523 17.2733 8.17023C17.2969 8.14023 17.3229 8.11527 17.3514 8.09027C17.4179 8.03027 17.4953 7.98527 17.5793 7.96027C17.6168 7.94527 17.6554 7.93524 17.6944 7.93024C17.7424 7.92524 17.7914 7.92523 17.8404 7.92523C17.8779 7.93023 17.9153 7.93525 17.9518 7.94525C18.0008 7.95525 18.0479 7.97524 18.0929 8.00024C18.2174 8.00524 18.3414 7.97027 18.4429 7.90027C18.5079 7.86527 18.5643 7.81524 18.6073 7.75024C18.6503 7.69024 18.6799 7.62023 18.6929 7.55023V7.35022C18.6944 7.27522 18.7109 7.20025 18.7404 7.13025C18.7614 7.08525 18.7888 7.03524 18.8228 6.99524C18.9043 6.89524 19.0169 6.82523 19.1429 6.80023C19.2264 6.77523 19.3103 6.75523 19.3958 6.73523L19.5604 6.70026L19.8194 6.64526C19.9664 6.62026 20.1224 6.58523 20.2929 6.55023C20.3234 6.54023 20.3549 6.53027 20.3864 6.52527C20.4394 6.51527 20.4934 6.51526 20.5479 6.52026C20.6339 6.53026 20.7168 6.55521 20.7923 6.59521C20.8678 6.64021 20.9334 6.69526 20.9849 6.76526C21.0369 6.83526 21.0739 6.91524 21.0929 7.00024C21.0929 7.10024 21.2429 7.20024 21.3929 7.25024C21.5339 7.27024 21.6779 7.23527 21.7929 7.15027C21.8484 7.08527 21.9169 7.03024 21.9924 6.99524C22.0564 6.96024 22.1259 6.94024 22.1984 6.93024C22.3559 6.91524 22.5144 6.95523 22.6429 7.05023C22.8969 7.23023 23.1249 7.41021 23.3459 7.59521L23.5929 7.80023C23.6654 7.85023 23.7258 7.92024 23.7688 7.99524C23.8123 8.07524 23.8374 8.16024 23.8429 8.25024C23.8379 8.39524 23.7854 8.53527 23.6929 8.65027C23.6739 8.67027 23.6594 8.69521 23.6509 8.72021C23.6424 8.74521 23.6394 8.77023 23.6429 8.80023C23.6429 9.05023 23.7928 9.30023 23.9928 9.30023C24.1408 9.30523 24.2823 9.36527 24.3913 9.46527C24.5008 9.56527 24.5724 9.70022 24.5929 9.85022C24.5929 9.87522 24.5944 9.90024 24.5969 9.93024C24.6019 9.97524 24.6098 10.0253 24.6178 10.0753L24.6288 10.1403L24.6384 10.2202ZM19.4739 9.38025C19.1764 9.68025 19.0038 10.0802 18.9928 10.5002C18.9858 10.7002 19.0219 10.9052 19.0979 11.0952C19.1224 11.1552 19.1509 11.2103 19.1834 11.2653C19.2514 11.3853 19.3359 11.4952 19.4354 11.5952C19.4694 11.6252 19.5049 11.6552 19.5419 11.6852L19.5963 11.7252C19.6233 11.7452 19.6503 11.7652 19.6783 11.7802C19.7628 11.8352 19.8524 11.8802 19.9459 11.9152C20.1369 11.9852 20.3399 12.0102 20.5429 12.0002C20.7549 12.0052 20.9658 11.9703 21.1633 11.8903C21.3608 11.8153 21.5409 11.6952 21.6929 11.5502C21.8364 11.4052 21.9503 11.2352 22.0273 11.0452C22.1048 10.8552 22.1439 10.6553 22.1429 10.4503C22.1434 10.3303 22.1304 10.2102 22.1044 10.0952C22.0854 10.0152 22.0598 9.93522 22.0273 9.85522C22.0003 9.79022 21.9694 9.72522 21.9334 9.66022C21.8674 9.55022 21.7864 9.44522 21.6929 9.35022C21.6744 9.33022 21.6554 9.31023 21.6359 9.29523L21.5754 9.24023L21.5204 9.19525C21.4194 9.12025 21.3084 9.05525 21.1904 9.01025C21.0009 8.93025 20.7974 8.89527 20.5929 8.90027C20.1719 8.91027 19.7719 9.08525 19.4739 9.38025ZM27.3678 16.4252C27.3053 16.4102 27.2429 16.4003 27.1929 16.4003C27.0814 16.3903 26.9784 16.3352 26.9039 16.2552C26.8294 16.1702 26.7899 16.0603 26.7929 15.9503C26.7929 15.8003 26.5929 15.6503 26.4429 15.6503C26.4159 15.6453 26.3884 15.6502 26.3624 15.6552C26.3364 15.6652 26.3129 15.6803 26.2929 15.7003C26.2654 15.7153 26.2369 15.7302 26.2074 15.7452C26.1394 15.7752 26.0668 15.7902 25.9928 15.8002C25.9228 15.7952 25.8544 15.7752 25.7934 15.7402C25.7324 15.7052 25.6809 15.6602 25.6429 15.6002C25.4479 15.3752 25.2639 15.1403 25.0929 14.9003C25.0534 14.8503 25.0243 14.7952 25.0078 14.7352L25.0004 14.7053L24.9934 14.6602C24.9904 14.6252 24.9919 14.5852 24.9969 14.5502C25.0064 14.4902 25.0289 14.4302 25.0629 14.3802C25.0964 14.3252 25.1409 14.2802 25.1929 14.2502C25.2269 14.2102 25.2493 14.1602 25.2578 14.1052C25.2668 14.0552 25.2618 14.0003 25.2428 13.9503C25.2373 13.9203 25.2279 13.8952 25.2159 13.8652C25.2044 13.8452 25.1904 13.8202 25.1734 13.8002C25.1384 13.7552 25.0939 13.7203 25.0429 13.7003C24.9759 13.6803 24.9144 13.6452 24.8619 13.6052C24.8469 13.5902 24.8329 13.5802 24.8194 13.5652C24.8029 13.5502 24.7873 13.5303 24.7733 13.5103L24.7469 13.4702C24.6814 13.3602 24.6624 13.2252 24.6929 13.1002C24.7429 12.7502 24.8429 12.5002 24.8929 12.2502C24.9144 12.1452 24.9714 12.0552 25.0539 11.9902C25.1364 11.9252 25.2389 11.8953 25.3429 11.9003H25.4928C25.5928 11.9003 25.6929 11.8003 25.7929 11.7003C25.8504 11.6403 25.8749 11.5852 25.8759 11.5352C25.8769 11.5002 25.8644 11.4703 25.8429 11.4503C25.8229 11.4103 25.8084 11.3703 25.7994 11.3303L25.7934 11.3002L25.7894 11.2603C25.7854 11.1953 25.7954 11.1302 25.8194 11.0652C25.8429 11.0052 25.8794 10.9502 25.9269 10.9052C25.9739 10.8552 26.0309 10.8202 26.0929 10.8002C26.3329 10.6602 26.5839 10.5453 26.8429 10.4503C26.8429 10.5003 26.9428 10.5002 26.9928 10.5002C27.0888 10.5002 27.1824 10.5303 27.2619 10.5853C27.3044 10.6103 27.3419 10.6452 27.3734 10.6852C27.3839 10.6952 27.3939 10.7102 27.4029 10.7252C27.4119 10.7402 27.4199 10.7503 27.4279 10.7653L27.4429 10.8002C27.5114 10.8602 27.6004 10.8953 27.6929 10.9003C27.7524 10.9053 27.8123 10.8952 27.8658 10.8702C27.9193 10.8452 27.9633 10.8002 27.9928 10.7502C28.0258 10.6702 28.0819 10.6052 28.1534 10.5602C28.2249 10.5152 28.3089 10.4952 28.3929 10.5002C28.4634 10.4902 28.5344 10.5102 28.5929 10.5502C28.7559 10.6152 28.9193 10.7002 29.0963 10.7952L29.1174 10.8052L29.1523 10.8253L29.3929 10.9503C29.4914 10.9953 29.5669 11.0802 29.6044 11.1852C29.6214 11.2302 29.6299 11.2803 29.6294 11.3303C29.6294 11.3853 29.6174 11.4452 29.5929 11.5002C29.5764 11.5502 29.5728 11.6052 29.5813 11.6552C29.5898 11.7052 29.6114 11.7552 29.6429 11.8002C29.6634 11.8302 29.6879 11.8552 29.7154 11.8752C29.7334 11.8902 29.7534 11.9002 29.7739 11.9102C29.8264 11.9402 29.8844 11.9503 29.9429 11.9503H30.0929C30.1849 11.9403 30.2759 11.9703 30.3494 12.0253C30.4229 12.0803 30.4738 12.1602 30.4928 12.2502C30.5393 12.3902 30.5784 12.5402 30.6099 12.6852C30.6499 12.8702 30.6779 13.0602 30.6929 13.2502C30.7184 13.3502 30.6789 13.4552 30.6138 13.5352C30.5518 13.6152 30.4664 13.6753 30.3929 13.7003C30.3389 13.7153 30.2979 13.7403 30.2654 13.7703C30.2069 13.8253 30.1749 13.9002 30.1429 14.0002C30.1204 14.0552 30.1179 14.1152 30.1369 14.1702C30.1459 14.1952 30.1594 14.2202 30.1774 14.2402C30.1954 14.2652 30.2173 14.2852 30.2428 14.3002C30.2873 14.3352 30.3244 14.3752 30.3514 14.4252C30.3779 14.4752 30.3944 14.5303 30.3989 14.5903C30.4004 14.6053 30.4008 14.6203 30.4003 14.6353C30.3988 14.6753 30.3919 14.7152 30.3784 14.7552C30.3604 14.8102 30.3314 14.8553 30.2929 14.9003C30.1179 15.1703 29.9169 15.4203 29.6929 15.6503C29.6599 15.7003 29.6154 15.7353 29.5629 15.7653C29.5104 15.7903 29.4514 15.8002 29.3929 15.8002C29.2869 15.7902 29.1844 15.7553 29.0929 15.7003C29.0839 15.6903 29.0744 15.6802 29.0634 15.6752C29.0509 15.6702 29.0373 15.6602 29.0233 15.6552C28.9979 15.6502 28.9704 15.6453 28.9429 15.6503C28.8574 15.6453 28.7733 15.6752 28.7083 15.7302C28.6428 15.7852 28.6019 15.8653 28.5929 15.9503C28.5429 16.2003 28.3929 16.4003 28.1429 16.4003C28.0429 16.4003 27.9429 16.4503 27.8429 16.4503H27.5429L27.4993 16.4453L27.4608 16.4402L27.3678 16.4252ZM26.8489 12.6052C26.6243 12.8302 26.4968 13.1303 26.4928 13.4503C26.5123 13.7653 26.6354 14.0602 26.8429 14.3002C26.9534 14.4102 27.0858 14.5002 27.2318 14.5602C27.3033 14.5902 27.3773 14.6152 27.4524 14.6252C27.4964 14.6352 27.5408 14.6403 27.5858 14.6453C27.6213 14.6503 27.6574 14.6503 27.6929 14.6503C28.0074 14.6303 28.3064 14.5052 28.5429 14.3002C28.6594 14.1902 28.7514 14.0602 28.8114 13.9102C28.8349 13.8552 28.8534 13.8002 28.8669 13.7402C28.8884 13.6452 28.8974 13.5453 28.8929 13.4503C28.8939 13.3853 28.8894 13.3253 28.8804 13.2603C28.8754 13.2253 28.8689 13.1902 28.8604 13.1602C28.8464 13.1002 28.8283 13.0452 28.8053 12.9902C28.7848 12.9352 28.7609 12.8853 28.7334 12.8403C28.7119 12.8053 28.6894 12.7652 28.6644 12.7352L28.6393 12.7003L28.5929 12.6453L28.5459 12.5952C28.4344 12.4852 28.3008 12.3953 28.1543 12.3353C28.0938 12.3103 28.0319 12.2903 27.9684 12.2753L27.8879 12.2603C27.8239 12.2503 27.7584 12.2452 27.6929 12.2502C27.3759 12.2502 27.0729 12.3802 26.8489 12.6052ZM41.9928 8.00024C42.5233 8.00024 43.0319 8.21027 43.4074 8.58527C43.6204 8.80027 43.7803 9.05527 43.8788 9.33527C43.9534 9.54527 43.9928 9.77024 43.9928 10.0002V26.0002C43.9928 26.5302 43.7824 27.0402 43.4074 27.4152C43.1454 27.6752 42.8188 27.8552 42.4648 27.9402C42.3698 27.9652 42.2734 27.9802 42.1749 27.9902C42.1149 27.9952 42.0538 28.0002 41.9928 28.0002H33.9928C33.7273 28.0002 33.4679 27.9452 33.2274 27.8452C33.0609 27.7752 32.9038 27.6853 32.7603 27.5753C32.6968 27.5253 32.6364 27.4702 32.5784 27.4152C32.2034 27.0402 31.9928 26.5302 31.9928 26.0002V10.0002C31.9928 9.47024 32.2034 8.96027 32.5784 8.58527C32.8364 8.32527 33.1578 8.14524 33.5058 8.06024C33.6638 8.02024 33.8273 8.00024 33.9928 8.00024H41.9928ZM39.4928 26.5002V25.5002C39.4973 25.4302 39.4874 25.3652 39.4639 25.3052C39.4404 25.2402 39.4034 25.1853 39.3564 25.1353C39.3089 25.0903 39.2519 25.0503 39.1894 25.0253C39.1269 25.0053 39.0598 24.9952 38.9928 25.0002H36.9928C36.9258 24.9952 36.8589 25.0053 36.7964 25.0253C36.7339 25.0503 36.6769 25.0903 36.6294 25.1353C36.6054 25.1603 36.5839 25.1853 36.5654 25.2153C36.5479 25.2403 36.5334 25.2702 36.5219 25.3052C36.4984 25.3652 36.4883 25.4302 36.4928 25.5002V26.5002C36.4883 26.5652 36.4984 26.6303 36.5219 26.6953L36.5338 26.7252L36.5508 26.7603C36.5723 26.7953 36.5984 26.8302 36.6294 26.8602C36.6769 26.9102 36.7339 26.9452 36.7964 26.9702C36.8589 26.9952 36.9258 27.0052 36.9928 27.0002H38.9928C39.0598 27.0052 39.1269 26.9952 39.1894 26.9702C39.2519 26.9452 39.3089 26.9102 39.3564 26.8602C39.4034 26.8152 39.4404 26.7603 39.4639 26.6953C39.4819 26.6503 39.4919 26.6002 39.4934 26.5502L39.4928 26.5002ZM42.9928 23.0002V11.0002C42.9928 10.7352 42.8873 10.4802 42.6998 10.2902C42.6183 10.2102 42.5244 10.1452 42.4224 10.0952C42.3559 10.0652 42.2859 10.0403 42.2139 10.0253C42.1419 10.0053 42.0678 10.0002 41.9928 10.0002H33.9928C33.9133 10.0002 33.8349 10.0103 33.7589 10.0253C33.6949 10.0403 33.6329 10.0653 33.5739 10.0903C33.4679 10.1403 33.3698 10.2102 33.2858 10.2902C33.0983 10.4802 32.9928 10.7352 32.9928 11.0002V23.0002C32.9928 23.2652 33.0983 23.5203 33.2858 23.7053C33.4733 23.8953 33.7278 24.0002 33.9928 24.0002H41.9928C42.2578 24.0002 42.5123 23.8953 42.6998 23.7053C42.8873 23.5203 42.9928 23.2652 42.9928 23.0002ZM37.8929 19.5002C37.7904 19.5052 37.6874 19.4903 37.5929 19.4503C37.4984 19.4303 37.4118 19.3802 37.3483 19.3102C37.2848 19.2352 37.2478 19.1452 37.2428 19.0502C37.2363 19.0202 37.2259 18.9952 37.2124 18.9702C37.1929 18.9352 37.1668 18.9002 37.1348 18.8752C37.1123 18.8552 37.0874 18.8403 37.0614 18.8303C37.0244 18.8103 36.9839 18.8002 36.9429 18.8002H36.9124L36.8983 18.8052C36.8839 18.8102 36.8714 18.8202 36.8429 18.8502C36.7929 18.9002 36.6929 18.9503 36.5929 18.9503C36.5704 18.9503 36.5473 18.9503 36.5253 18.9453C36.4898 18.9403 36.4554 18.9302 36.4229 18.9152C36.3704 18.8852 36.3253 18.8452 36.2929 18.8002L35.8429 18.2003C35.7639 18.1203 35.7403 18.0252 35.7578 17.9252C35.7733 17.8402 35.8219 17.7453 35.8929 17.6503C35.9384 17.5753 35.9559 17.4853 35.9429 17.4003C35.9404 17.3553 35.9249 17.3103 35.8983 17.2753C35.8713 17.2403 35.8349 17.2153 35.7929 17.2003C35.7379 17.1903 35.6853 17.1703 35.6393 17.1403C35.6123 17.1203 35.5878 17.1003 35.5663 17.0753C35.5513 17.0553 35.5379 17.0403 35.5259 17.0203C35.4974 16.9703 35.4799 16.9202 35.4739 16.8652C35.4683 16.8052 35.4743 16.7503 35.4928 16.7003C35.5148 16.5653 35.5374 16.4502 35.5594 16.3502C35.5874 16.2202 35.6154 16.1102 35.6429 16.0002C35.6579 15.9152 35.7008 15.8402 35.7643 15.7852C35.7908 15.7652 35.8198 15.7452 35.8508 15.7302C35.8953 15.7102 35.9433 15.7003 35.9928 15.7003H36.0929C36.1904 15.6803 36.2784 15.6252 36.3429 15.5502C36.3669 15.5152 36.3829 15.4752 36.3899 15.4302C36.3934 15.4102 36.3949 15.3902 36.3944 15.3752L36.3929 15.3502C36.3684 15.3002 36.3549 15.2452 36.3519 15.1902C36.3484 15.1352 36.3569 15.0802 36.3754 15.0302C36.3939 14.9802 36.4228 14.9303 36.4603 14.8903C36.4793 14.8753 36.4999 14.8553 36.5224 14.8403C36.5444 14.8253 36.5679 14.8102 36.5929 14.8002L37.1929 14.5002C37.2519 14.4602 37.3224 14.4403 37.3929 14.4503C37.4264 14.4503 37.4593 14.4553 37.4908 14.4653C37.5313 14.4803 37.5698 14.4953 37.6048 14.5203C37.6228 14.5353 37.6394 14.5502 37.6549 14.5652L37.6789 14.5903C37.7054 14.6203 37.7273 14.6603 37.7428 14.7003C37.7533 14.7103 37.7654 14.7252 37.7784 14.7352C37.7944 14.7502 37.8123 14.7603 37.8313 14.7703L37.8609 14.7852C37.8874 14.7952 37.9149 14.8002 37.9429 14.8002C38.0354 14.7952 38.1244 14.7603 38.1929 14.7003C38.2354 14.6303 38.2949 14.5802 38.3654 14.5452C38.4359 14.5102 38.5144 14.4952 38.5929 14.5002C38.6054 14.4952 38.6174 14.4952 38.6299 14.5002C38.6449 14.5002 38.6594 14.5002 38.6734 14.5052C38.6994 14.5152 38.7228 14.5302 38.7428 14.5502L39.4429 14.9003C39.4879 14.9203 39.5284 14.9502 39.5609 14.9852C39.5819 15.0102 39.5993 15.0352 39.6133 15.0652C39.6208 15.0802 39.6274 15.0952 39.6324 15.1152C39.6379 15.1352 39.6419 15.1502 39.6444 15.1702C39.6479 15.2002 39.6479 15.2303 39.6434 15.2603C39.6369 15.3103 39.6194 15.3553 39.5929 15.4003C39.5429 15.5003 39.5929 15.5503 39.6429 15.6503C39.6569 15.6753 39.6759 15.7002 39.6984 15.7252C39.7129 15.7352 39.7289 15.7503 39.7464 15.7603L39.7699 15.7703L39.8008 15.7852C39.8188 15.7902 39.8378 15.7952 39.8573 15.7952L39.8929 15.8002H39.9928C40.0713 15.7952 40.1494 15.8152 40.2134 15.8602C40.2774 15.9052 40.3234 15.9702 40.3429 16.0502C40.4074 16.2752 40.4509 16.4602 40.4874 16.6302C40.5074 16.7202 40.5248 16.8103 40.5429 16.9003C40.5429 17.0503 40.3928 17.2502 40.2929 17.2502C40.2414 17.2702 40.1954 17.3052 40.1604 17.3502C40.1254 17.3902 40.1024 17.4452 40.0929 17.5002C40.0929 17.6002 40.0929 17.7002 40.1929 17.7502C40.2239 17.7802 40.2499 17.8152 40.2694 17.8502C40.2919 17.8952 40.3059 17.9402 40.3109 17.9902C40.3154 18.0402 40.3109 18.0853 40.2979 18.1353C40.2859 18.1753 40.2673 18.2152 40.2428 18.2502C40.0883 18.4752 39.9213 18.6903 39.7428 18.9003C39.6783 18.9753 39.5903 19.0252 39.4928 19.0502C39.3928 19.0502 39.3428 19.0003 39.2428 18.9503C39.2008 18.9303 39.1849 18.9152 39.1774 18.9102C39.1709 18.9002 39.1704 18.9003 39.1639 18.9003H39.1429C39.0704 18.8953 38.9984 18.9153 38.9419 18.9653C38.8864 19.0103 38.8504 19.0753 38.8429 19.1503C38.8389 19.2453 38.8018 19.3402 38.7383 19.4102C38.6743 19.4852 38.5878 19.5302 38.4928 19.5502C38.4593 19.5452 38.4254 19.5452 38.3924 19.5502C38.3404 19.5602 38.2898 19.5752 38.2428 19.6002H38.0929L37.8929 19.5002ZM37.9928 15.9503C37.7278 15.9503 37.4733 16.0552 37.2858 16.2402C37.1918 16.3352 37.1183 16.4452 37.0683 16.5652C37.0188 16.6852 36.9928 16.8153 36.9928 16.9503C36.9993 17.2103 37.1068 17.4653 37.2929 17.6503C37.3874 17.7453 37.4984 17.8152 37.6194 17.8702C37.7364 17.9202 37.8633 17.9453 37.9928 17.9503C38.2558 17.9403 38.5069 17.8353 38.6929 17.6503C38.8789 17.4653 38.9863 17.2103 38.9928 16.9503C38.9928 16.6853 38.8878 16.4302 38.6998 16.2402C38.6003 16.1402 38.4824 16.0653 38.3539 16.0153C38.2399 15.9703 38.1173 15.9503 37.9928 15.9503Z" fill="white"/>
</svg>
