<svg width="53" height="13" viewBox="0 0 53 13" fill="none" xmlns="http://www.w3.org/2000/svg">
<path d="M9.86377 2.81822C10.349 2.80326 10.8306 2.86032 11.3008 2.99229H15.2051V2.08887C15.2051 0.984298 16.1005 0.0888672 17.2051 0.0888672H23.8126C24.4462 0.0888672 25.011 0.383505 25.3774 0.843245C25.5449 0.800512 25.7163 0.779944 25.8873 0.781278C26.5568 0.786502 27.2179 0.776053 27.8873 0.781278C28.2561 0.784157 28.6228 0.888928 28.944 1.09294C29.5248 1.46181 29.8752 2.10331 29.8718 2.79132L29.8707 2.99229H40.5575C40.5877 2.99229 40.6176 2.99295 40.6475 2.99428C40.6918 2.99294 40.7361 2.99229 40.7803 2.99229C41.0326 2.99229 41.2916 2.99417 41.5573 2.99792C41.5771 2.99691 41.597 2.99604 41.6167 2.99531C42.0412 2.9067 42.4738 2.86387 42.9115 2.86387C44.2449 2.86387 45.5782 2.86387 46.9115 2.86387C47.4186 2.86387 47.9238 2.92083 48.4158 3.05143C48.9715 3.194 49.5052 3.44548 49.9737 3.83241C50.4674 4.23633 50.821 4.74205 51.0552 5.29185C51.3172 5.89754 51.4074 6.53615 51.4074 7.14194V7.665C51.8795 8.03083 52.1835 8.60338 52.1835 9.24692V10.7768C52.1835 11.8814 51.288 12.7768 50.1835 12.7768H47.4944C47.3454 12.8166 47.1947 12.8469 47.0428 12.8678C46.816 12.9025 46.5918 12.9164 46.3755 12.9164C45.0421 12.9164 43.7088 12.9164 42.3755 12.9164C41.9736 12.9164 41.5665 12.875 41.1653 12.7768H33.948C33.6669 12.8237 33.3857 12.8438 33.1091 12.8438C31.7758 12.8438 30.4425 12.8438 29.1091 12.8438C28.9956 12.8438 28.8822 12.84 28.7692 12.8322C28.4439 12.8932 28.1185 12.9164 27.8048 12.9164C26.4716 12.9164 25.1383 12.9164 23.8048 12.9164C23.4552 12.9164 23.1091 12.8703 22.7719 12.7768H17.2533C16.9722 12.8237 16.691 12.8438 16.4144 12.8438C15.0811 12.8438 13.7478 12.8438 12.4144 12.8438C12.0501 12.8438 11.6875 12.8044 11.3311 12.7214C10.8466 12.8585 10.3489 12.9164 9.85383 12.9164C8.5205 12.9164 7.1872 12.9164 5.85383 12.9164C5.16473 12.9164 4.48521 12.7906 3.84099 12.5136L3.82557 12.5069C3.22617 12.2432 2.68629 11.8744 2.22791 11.3969C1.77578 10.926 1.42995 10.3809 1.18661 9.78142L1.18026 9.76559C0.932377 9.13967 0.816406 8.4842 0.816406 7.81754C0.816406 7.14652 0.937201 6.4852 1.20029 5.85635L1.20414 5.84714C1.45569 5.25422 1.80982 4.71833 2.26845 4.25846C2.73604 3.7858 3.28516 3.42518 3.89467 3.17528L3.90111 3.17264C4.53296 2.91615 5.19486 2.80536 5.86377 2.81822C7.19042 2.77733 8.53664 2.79272 9.86377 2.81822Z" fill="black"/>
<path d="M7.19387 6.99118C7.03381 6.79017 6.85514 6.63942 6.65785 6.53892C6.46057 6.43469 6.22793 6.39002 5.95992 6.40491C5.74402 6.39002 5.54674 6.4198 5.36807 6.49425C5.19312 6.5687 5.0405 6.67292 4.91022 6.80693C4.78366 6.94093 4.68502 7.10099 4.61429 7.28711C4.54357 7.4695 4.50821 7.67609 4.50821 7.90688C4.50821 8.1116 4.54543 8.30516 4.61988 8.48756C4.69432 8.66995 4.79483 8.82815 4.92139 8.96216C5.05167 9.09244 5.20428 9.1948 5.37923 9.26925C5.55791 9.3437 5.75147 9.38836 5.95992 9.40325C6.13487 9.38836 6.29307 9.353 6.43451 9.29717C6.57969 9.23761 6.70811 9.16316 6.81978 9.07383C6.93145 8.98077 7.02637 8.8784 7.10454 8.76673C7.18643 8.65134 7.24971 8.54339 7.29437 8.44289L8.82984 8.86724C8.76656 9.09058 8.65675 9.32322 8.50041 9.56518C8.34779 9.80713 8.14679 10.0286 7.89739 10.2296C7.65172 10.4269 7.35765 10.5907 7.0152 10.721C6.67647 10.8512 6.28934 10.9164 5.85383 10.9164C5.41087 10.9164 5.00328 10.8364 4.63104 10.6763C4.25881 10.5125 3.93869 10.291 3.67068 10.0119C3.40267 9.73268 3.19236 9.40511 3.03975 9.02916C2.89085 8.6532 2.81641 8.24933 2.81641 7.81754C2.81641 7.38947 2.89271 6.99304 3.04533 6.62825C3.20167 6.25974 3.4157 5.93962 3.68743 5.66789C3.95916 5.39244 4.28114 5.1784 4.65338 5.02579C5.02933 4.87317 5.43693 4.80431 5.87616 4.8192C6.18884 4.80431 6.49221 4.83967 6.78628 4.92529C7.08034 5.0109 7.35952 5.13932 7.6238 5.31055H8.73492V6.99118H7.19387Z" fill="white"/>
<path d="M13.0398 4.99229H15.7757V9.24692H16.4736V10.7768H14.0225V10.2854C13.8252 10.4641 13.5944 10.6018 13.3301 10.6986C13.0659 10.7954 12.7606 10.8438 12.4144 10.8438C12.0943 10.8438 11.7928 10.7935 11.5099 10.693C11.227 10.5925 10.9795 10.4418 10.7673 10.2408C10.5589 10.0361 10.3932 9.78107 10.2704 9.47584C10.1513 9.17061 10.0917 8.8114 10.0917 8.39822V6.52217H9.33794V4.99229H11.8952V8.39822C11.8952 8.78535 11.9938 9.07569 12.1911 9.26925C12.3884 9.45909 12.6452 9.55401 12.9616 9.55401C13.185 9.55401 13.3878 9.48514 13.5702 9.34742C13.7526 9.20969 13.8848 9.02358 13.9667 8.78907V6.52217H13.0398V4.99229Z" fill="white"/>
<path d="M17.2051 2.08887H19.8126V9.24692H20.7059V10.7768H17.2051V9.24692H18.0984V3.61875H17.2051V2.08887Z" fill="white"/>
<path d="M23.8606 4.99229H25.0164V6.45516H23.8495L23.8383 8.90074C23.8383 9.04219 23.8495 9.15758 23.8718 9.24692C23.8941 9.33253 23.9258 9.40139 23.9667 9.45351C24.0114 9.50562 24.0635 9.54098 24.123 9.55959C24.1826 9.5782 24.2515 9.58751 24.3296 9.58751C24.4711 9.58751 24.5958 9.57448 24.7037 9.54842C24.8117 9.51865 24.9196 9.48514 25.0276 9.44792L25.2677 10.5255C25.0778 10.6447 24.8657 10.7396 24.6311 10.8103C24.4004 10.881 24.1249 10.9164 23.8048 10.9164C23.5777 10.9164 23.36 10.8773 23.1515 10.7991C22.9468 10.721 22.7663 10.6037 22.6099 10.4474C22.4536 10.2873 22.3289 10.0882 22.2358 9.84993C22.1428 9.6117 22.0981 9.33439 22.1018 9.01799L22.1186 6.45516H21.2866V4.99229H22.1242L22.1353 3.60758L23.8718 2.78122L23.8606 4.99229Z" fill="white"/>
<path d="M29.7345 4.99229H32.4704V9.24692H33.1683V10.7768H30.7172V10.2854C30.5199 10.4641 30.2891 10.6018 30.0248 10.6986C29.7605 10.7954 29.4553 10.8438 29.1091 10.8438C28.789 10.8438 28.4875 10.7935 28.2046 10.693C27.9217 10.5925 27.6742 10.4418 27.462 10.2408C27.2535 10.0361 27.0879 9.78107 26.965 9.47584C26.8459 9.17061 26.7864 8.8114 26.7864 8.39822V6.52217H26.0326V4.99229H28.5898V8.39822C28.5898 8.78535 28.6885 9.07569 28.8858 9.26925C29.0831 9.45909 29.3399 9.55401 29.6563 9.55401C29.8796 9.55401 30.0825 9.48514 30.2649 9.34742C30.4473 9.20969 30.5794 9.02358 30.6613 8.78907V6.52217H29.7345V4.99229Z" fill="white"/>
<path d="M39.2655 7.09727H37.6965V6.49983C37.5439 6.49983 37.4043 6.511 37.2778 6.53333C37.1512 6.55195 37.0395 6.58545 36.9428 6.63384C36.8497 6.68223 36.7697 6.74923 36.7027 6.83484C36.6394 6.92046 36.5947 7.02654 36.5687 7.1531V9.24692H37.7468V10.7768H33.9723V9.24692H34.8378V6.52217H33.9835V4.99229H36.5575V5.39988C36.7213 5.2696 36.9055 5.1691 37.1103 5.09837C37.315 5.02765 37.5383 4.99229 37.7803 4.99229C38.026 4.99229 38.2791 4.99415 38.5396 4.99787C38.8002 5.00159 39.0422 5.00345 39.2655 5.00345V7.09727Z" fill="white"/>
<path d="M43.7714 10.4641C43.6411 10.546 43.522 10.6167 43.414 10.6763C43.3061 10.7321 43.1981 10.7768 43.0902 10.8103C42.9823 10.8475 42.8706 10.8736 42.7552 10.8885C42.6398 10.9071 42.5132 10.9164 42.3755 10.9164C42.0293 10.9164 41.7185 10.8699 41.4431 10.7768C41.1713 10.68 40.9406 10.5497 40.7507 10.3859C40.5646 10.2184 40.4213 10.023 40.3208 9.79968C40.2203 9.57262 40.17 9.32695 40.17 9.06266C40.17 8.79465 40.2203 8.54712 40.3208 8.32005C40.425 8.09299 40.5739 7.89943 40.7675 7.73937C40.961 7.57559 41.1974 7.44903 41.4766 7.35969C41.7595 7.26663 42.0814 7.2201 42.4425 7.2201C42.7068 7.2201 42.9469 7.23499 43.1628 7.26477C43.3824 7.29083 43.5853 7.32433 43.7714 7.36528V7.1866C43.7714 7.04143 43.7435 6.91673 43.6876 6.81251C43.6318 6.70456 43.5536 6.61709 43.4531 6.55008C43.3526 6.47936 43.2316 6.42911 43.0902 6.39933C42.9487 6.36583 42.7943 6.34908 42.6268 6.34908C42.2769 6.34908 41.9679 6.38444 41.6999 6.45516C41.4356 6.52217 41.1806 6.62081 40.935 6.75109L40.399 5.66789C40.7786 5.40733 41.1751 5.20818 41.5882 5.07046C42.0051 4.93273 42.4462 4.86387 42.9115 4.86387C43.2726 4.86387 43.6057 4.90481 43.911 4.9867C44.2199 5.06487 44.4842 5.19515 44.7038 5.37755C44.9234 5.55622 45.0947 5.79073 45.2175 6.08107C45.3441 6.37141 45.4074 6.72503 45.4074 7.14194V9.24692H46.1835V10.7768H43.7714V10.4641ZM42.4983 9.59868C42.7626 9.59868 43.0027 9.55587 43.2186 9.47026C43.4345 9.38464 43.6188 9.28042 43.7714 9.15758V8.42056H42.4313C42.3457 8.42056 42.262 8.43359 42.1801 8.45964C42.0982 8.4857 42.0238 8.52292 41.9567 8.57131C41.8935 8.6197 41.8414 8.67926 41.8004 8.74998C41.7632 8.82071 41.7446 8.9026 41.7446 8.99566C41.7446 9.16689 41.806 9.3102 41.9288 9.42559C42.0554 9.54098 42.2452 9.59868 42.4983 9.59868Z" fill="white"/>
</svg>
