<svg width="43" height="35" viewBox="0 0 43 35" fill="none" xmlns="http://www.w3.org/2000/svg">
<path d="M31.5 5.00293C33.9853 5.00293 36 7.01765 36 9.50293V30.5029C36 32.9882 33.9853 35.0029 31.5 35.0029L5.5 35.0029C3.01472 35.0029 1 32.9882 1 30.5029L1 9.50293C1 7.01765 3.01472 5.00293 5.5 5.00293L31.5 5.00293Z" fill="black"/>
<path fill-rule="evenodd" clip-rule="evenodd" d="M29 9.50293C29 8.12222 27.8807 7.00293 26.5 7.00293H5.5C4.11929 7.00293 3 8.12222 3 9.50293L3 30.5029C3 31.8836 4.11929 33.0029 5.5 33.0029L26.5 33.0029C27.8807 33.0029 29 31.8836 29 30.5029L29 9.50293ZM10 13.0029C9.44772 13.0029 9 13.4506 9 14.0029C9 14.5552 9.44772 15.0029 10 15.0029H22C22.5523 15.0029 23 14.5552 23 14.0029C23 13.4506 22.5523 13.0029 22 13.0029H10ZM10 19.0029C9.44772 19.0029 9 19.4506 9 20.0029C9 20.5552 9.44772 21.0029 10 21.0029H12C12.5523 21.0029 13 20.5552 13 20.0029C13 19.4506 12.5523 19.0029 12 19.0029H10ZM15 20.0029C15 19.4506 15.4477 19.0029 16 19.0029H22C22.5523 19.0029 23 19.4506 23 20.0029C23 20.5552 22.5523 21.0029 22 21.0029H16C15.4477 21.0029 15 20.5552 15 20.0029ZM10 25.0029C9.44772 25.0029 9 25.4506 9 26.0029C9 26.5552 9.44772 27.0029 10 27.0029H18C18.5523 27.0029 19 26.5552 19 26.0029C19 25.4506 18.5523 25.0029 18 25.0029H10ZM21 26.0029C21 25.4506 21.4477 25.0029 22 25.0029C22.5523 25.0029 23 25.4506 23 26.0029C23 26.5552 22.5523 27.0029 22 27.0029C21.4477 27.0029 21 26.5552 21 26.0029Z" fill="white"/>
<rect x="24" width="17" height="17" rx="3.99999" fill="#FA9938"/>
<rect x="26" y="2" width="13" height="13" rx="2" fill="#E8306E"/>
<path d="M31.6836 10.9336C31.6836 10.8372 31.7005 10.7474 31.7344 10.6641C31.7708 10.5781 31.8203 10.5039 31.8828 10.4414C31.9453 10.3763 32.0182 10.3255 32.1016 10.2891C32.1875 10.2526 32.2799 10.2344 32.3789 10.2344C32.4727 10.2344 32.5612 10.2526 32.6445 10.2891C32.7305 10.3255 32.8047 10.3763 32.8672 10.4414C32.9297 10.5039 32.9792 10.5781 33.0156 10.6641C33.0521 10.7474 33.0703 10.8372 33.0703 10.9336C33.0703 11.0299 33.0521 11.1211 33.0156 11.207C32.9792 11.2904 32.9297 11.3633 32.8672 11.4258C32.8047 11.4883 32.7305 11.5378 32.6445 11.5742C32.5612 11.6107 32.4727 11.6289 32.3789 11.6289C32.2799 11.6289 32.1875 11.6107 32.1016 11.5742C32.0182 11.5378 31.9453 11.4883 31.8828 11.4258C31.8203 11.3633 31.7708 11.2904 31.7344 11.207C31.7005 11.1211 31.6836 11.0299 31.6836 10.9336ZM31.6836 5.33985H33.125L32.9648 9.50782H31.8438L31.6836 5.33985Z" fill="white"/>
</svg>
