<svg width="26" height="21" viewBox="0 0 26 21" fill="none" xmlns="http://www.w3.org/2000/svg">
<path d="M2.66667 20.501C1.1939 20.501 0 19.3071 0 17.8343V3.16764C0 1.69488 1.19391 0.500977 2.66667 0.500977H14.0445C14.2412 0.500977 14.428 0.543574 14.5961 0.620046C14.5961 0.620046 14.9011 0.617462 15.0698 0.620046C15.2501 0.622808 15.4305 0.662114 15.5997 0.738804C15.8872 0.86909 16.152 1.05064 16.38 1.27754L18.6255 3.5124C18.6548 3.51508 18.684 3.51824 18.7132 3.52187C18.8134 3.5094 18.9141 3.50257 19.0149 3.50138C19.9236 3.49072 20.8362 3.49072 21.7449 3.50138C22.4168 3.50927 23.0863 3.76816 23.5997 4.27808L23.6005 4.27882L24.5507 5.2218C25.5921 6.26359 25.597 7.95205 24.5493 8.99518L24.5476 8.99679L24.0767 9.46753C23.9637 9.58048 23.8462 9.66578 23.7252 9.72654C23.6972 9.80804 23.6549 9.87856 23.597 9.93626L19.6765 13.8374C19.9216 14.0827 20.0668 14.4195 20.0668 14.7801V17.8343C20.0668 19.3071 18.8729 20.501 17.4001 20.501H2.66667Z" fill="black"/>
<path fill-rule="evenodd" clip-rule="evenodd" d="M2.66732 1.83398H10.7119V3.83398C10.7119 5.30674 11.9058 6.50065 13.3785 6.50065H14.2536L10.0913 10.6447C10.0568 10.679 10.024 10.7145 9.99316 10.751C9.70782 10.6961 9.41312 10.6673 9.11166 10.6673H7.95803C5.40951 10.6673 3.34353 12.7235 3.34353 15.2599C3.34353 15.577 3.60178 15.834 3.92034 15.834H8.0514C7.97912 16.257 8.11591 16.6919 8.42371 16.999C8.75885 17.3333 9.24672 17.4663 9.70627 17.3485L13.5432 16.3652C13.9332 16.2652 14.2484 15.9993 14.4164 15.6521C14.5626 15.5759 14.7 15.4768 14.823 15.3547L15.4008 14.7797V17.834C15.4008 18.5704 14.8038 19.1673 14.0675 19.1673H2.66732C1.93094 19.1673 1.33398 18.5704 1.33398 17.834V3.16732C1.33398 2.43094 1.93094 1.83398 2.66732 1.83398ZM6.33852 7.68655C6.33852 6.47931 7.32185 5.50065 8.53485 5.50065C9.74784 5.50065 10.7312 6.47931 10.7312 7.68655C10.7312 8.89379 9.74784 9.87245 8.53485 9.87245C7.32185 9.87245 6.33852 8.89379 6.33852 7.68655Z" fill="white"/>
<path d="M15.258 5.50065L15.2732 5.48553C15.2078 5.34716 15.1186 5.21976 15.008 5.10975L12.1068 2.22227C11.9928 2.10881 11.8604 2.01805 11.7166 1.9529V4.16732C11.7166 4.9037 12.3136 5.50065 13.05 5.50065H15.258Z" fill="white"/>
<path d="M20.275 6.16413L19.3278 5.22415C18.8047 4.70415 17.9563 4.70415 17.4332 5.22415L16.9596 5.69416L19.8014 8.52416L20.275 8.05081C20.7981 7.53081 20.7981 6.68746 20.275 6.16413Z" fill="white"/>
<path d="M13.403 13.9408C13.2721 14.0708 13.2721 14.2808 13.403 14.4108C13.534 14.5408 13.746 14.5408 13.8769 14.4108L19.3238 8.99079L18.8502 8.51748L13.403 13.9408Z" fill="white"/>
<path d="M11.0388 11.5875C10.9078 11.7175 10.9078 11.9275 11.0388 12.0575C11.1697 12.1875 11.3817 12.1875 11.5127 12.0575L16.9596 6.63748L16.486 6.16413L11.0388 11.5875Z" fill="white"/>
<path d="M11.7261 12.7475C11.4645 13.0075 11.4645 13.4308 11.7261 13.6908C11.9876 13.9508 12.4116 13.9508 12.6735 13.6908L18.389 8.06082L17.4419 7.11746L11.7261 12.7475Z" fill="white"/>
<path d="M10.5652 12.5308C10.4805 12.4441 10.4172 12.3475 10.3689 12.2441L9.51541 15.5096C9.45114 15.7555 9.67585 15.9797 9.92307 15.9163L13.2091 15.0741C13.1083 15.0275 13.0128 14.9641 12.9294 14.8841C12.8417 14.7941 12.7777 14.6941 12.7315 14.5875C12.7007 14.5175 12.6126 14.4841 12.5382 14.5041C12.0938 14.6208 11.6008 14.5075 11.2525 14.1608C10.9105 13.8208 10.7953 13.3408 10.9018 12.9041C10.9206 12.8275 10.8918 12.7475 10.8201 12.7108C10.7283 12.6675 10.6419 12.6075 10.5652 12.5308Z" fill="white"/>
</svg>
