<svg width="37" height="20" viewBox="0 0 37 20" fill="none" xmlns="http://www.w3.org/2000/svg">
<path d="M28.1663 4H27.4997V1.66667C27.4997 0.747667 26.752 0 25.833 0H11.5C11.153 0 10.812 0.135334 10.5567 0.390667L8.55667 2.39067C8.30067 2.64667 8.16634 2.99 8.16801 3.33867H8.16734L8.16634 4.66667C6.69601 4.66667 5.49967 5.863 5.49967 7.33333V8.78367C5.49967 8.823 5.50334 8.862 5.50668 8.901C5.08901 9.37167 4.83301 9.98933 4.83301 10.6667V17.3333C4.83301 18.8037 6.02934 20 7.49967 20H28.1663C29.6367 20 30.833 18.8037 30.833 17.3333V6.66667C30.833 5.19633 29.6367 4 28.1663 4Z" fill="black"/>
<path fill-rule="evenodd" clip-rule="evenodd" d="M18.1666 7.33352C18.1666 6.22918 19.0619 5.33351 20.1666 5.33351H24.8332C25.5696 5.33351 26.1666 5.93052 26.1666 6.66685V17.3336C26.1666 18.0699 25.5696 18.6669 24.8332 18.6669H7.49984C6.76351 18.6669 6.1665 18.0699 6.1665 17.3336V10.6669C6.1665 9.93053 6.76351 9.33353 7.49984 9.33353H16.1665C17.2709 9.33353 18.1666 8.43786 18.1666 7.33352ZM7.49984 8.66686C7.26584 8.66686 7.04184 8.70953 6.83317 8.78386V7.33352C6.83317 6.59718 7.43018 6.00018 8.16651 6.00018H8.83318V8.66686H7.49984ZM11.4999 2.66683C11.4999 3.03484 11.2012 3.3335 10.8332 3.3335H9.49985L11.4999 1.3335V2.66683ZM22.4996 1.3335C22.6839 1.3335 22.8329 1.48283 22.8329 1.66683V4.33351C22.8329 4.51784 22.6839 4.66684 22.4996 4.66684H20.1662C18.6939 4.66684 17.4962 5.86651 17.4996 7.33985C17.5016 8.07418 16.9006 8.66686 16.1662 8.66686H9.49985V4.00017H10.8332C11.5695 4.00017 12.1662 3.40317 12.1662 2.66683V1.3335H22.4996ZM15.7772 5.34751C15.9602 5.34751 16.1082 5.19952 16.1082 5.01652C16.1082 4.83351 15.9602 4.68552 15.7772 4.68552H11.1645C10.9815 4.68552 10.8332 4.83351 10.8332 5.01652C10.8332 5.19952 10.9815 5.34751 11.1645 5.34751H15.7772ZM15.7772 7.99553C15.9602 7.99553 16.1082 7.84752 16.1082 7.66452C16.1082 7.48152 15.9602 7.33352 15.7772 7.33352H11.1645C10.9815 7.33352 10.8332 7.48152 10.8332 7.66452C10.8332 7.84752 10.9815 7.99553 11.1645 7.99553H15.7772ZM15.7772 6.67151C15.9602 6.67151 16.1082 6.52318 16.1082 6.34052C16.1082 6.15785 15.9602 6.00952 15.7772 6.00952H11.1645C10.9815 6.00952 10.8332 6.15785 10.8332 6.34052C10.8332 6.52318 10.9815 6.67151 11.1645 6.67151H15.7772Z" fill="white"/>
</svg>
