<svg width="33" height="35" viewBox="0 0 33 35" fill="none" xmlns="http://www.w3.org/2000/svg">
<path fill-rule="evenodd" clip-rule="evenodd" d="M23.7378 2.00293C23.7378 0.89836 22.8424 0.00292969 21.7378 0.00292969H10.7941C9.68951 0.00292969 8.79408 0.89836 8.79408 2.00293V2.96965C7.92294 3.14797 7.08805 3.40889 6.29358 3.75703C4.6227 4.48921 3.23312 5.54394 2.20169 6.94749L2.19611 6.95515C1.13599 8.41217 0.631818 10.1026 0.639982 11.9414C0.632164 14.2091 1.41164 16.1945 3.08188 17.6699C3.90279 18.395 4.85766 18.9892 5.92571 19.4678H2C1.46164 19.4678 0.946005 19.6848 0.569703 20.0698C0.193401 20.4548 -0.0117912 20.9753 0.000524026 21.5135C0.0470064 23.545 0.550546 25.3933 1.62024 26.9487L1.62901 26.9614C2.68428 28.4708 4.13455 29.5781 5.89806 30.3022L5.9016 30.3037C6.80663 30.6733 7.77309 30.9389 8.79408 31.109V32.0029C8.79408 33.1075 9.68951 34.0029 10.7941 34.0029H21.7378C22.8424 34.0029 23.7378 33.1075 23.7378 32.0029V31.1154C24.7597 30.947 25.7206 30.6817 26.6114 30.3085L26.6164 30.3064C28.3105 29.5912 29.7109 28.5405 30.7045 27.1092C31.7128 25.6604 32.1902 23.9816 32.2 22.1582L32.1999 22.1317C32.1902 20.8947 31.9596 19.7179 31.4567 18.6444C30.9828 17.6163 30.312 16.7211 29.4592 15.9704C28.6406 15.2498 27.6959 14.664 26.6462 14.2006C26.4113 14.0969 26.1723 13.9985 25.929 13.9053H29.8682C30.4043 13.9053 30.9181 13.69 31.294 13.3077C31.67 12.9255 31.8768 12.4082 31.8679 11.8721C31.8382 10.0818 31.3459 8.43266 30.3519 6.99463C29.3703 5.5745 28.0184 4.5067 26.3784 3.76663C25.5493 3.39072 24.6668 3.11717 23.7378 2.9379V2.00293ZM15.9496 11.9053C15.8548 10.96 15.4479 10.2256 14.7289 9.70215C14.2027 9.31909 13.539 9.0762 12.7378 8.97346V14.8125L13.923 15.0928C14.9817 15.3271 15.9536 15.6396 16.8385 16.0303C17.7235 16.4209 18.4899 16.9014 19.1378 17.4717C19.7857 18.042 20.2874 18.7139 20.643 19.4873C21.0064 20.2607 21.1921 21.1475 21.2 22.1475C21.1921 23.6162 20.8128 24.8896 20.0622 25.9678C19.3195 27.0381 18.2449 27.8701 16.8385 28.4639C15.6722 28.9525 14.3053 29.2374 12.7378 29.3185V32.0029H10.7941V29.3167C9.2416 29.2325 7.86283 28.9443 6.65778 28.4522C5.21185 27.8584 4.08198 26.9795 3.26815 25.8154C2.46222 24.6436 2.03951 23.1943 2 21.4678H6.96593C7.02123 22.2725 7.25432 22.9443 7.66519 23.4834C8.08395 24.0146 8.64099 24.417 9.3363 24.6904C9.7852 24.86 10.2711 24.9754 10.7941 25.0368V18.8621L9.25333 18.4795C7.20691 17.9873 5.59111 17.2178 4.40593 16.1709C3.22074 15.124 2.6321 13.7139 2.64 11.9404C2.6321 10.4873 3.02321 9.21777 3.81333 8.13184C4.61136 7.0459 5.70568 6.19824 7.0963 5.58887C8.20775 5.10182 9.44035 4.80941 10.7941 4.71164V2.00293H12.7378V4.70133C14.1676 4.78746 15.4397 5.0833 16.5541 5.58887C17.9052 6.19824 18.9561 7.0459 19.7067 8.13184C20.4573 9.21777 20.8444 10.4756 20.8682 11.9053H15.9496ZM9.68 9.26856C10.009 9.13489 10.3803 9.03934 10.7941 8.9819V14.3322C10.6078 14.2766 10.4261 14.2176 10.2489 14.1553C9.78272 13.9834 9.37185 13.7842 9.0163 13.5576C8.66074 13.3232 8.38025 13.0459 8.17482 12.7256C7.97728 12.4053 7.88642 12.0303 7.90222 11.6006C7.90222 11.085 8.05235 10.624 8.35259 10.2178C8.66074 9.81153 9.10321 9.49512 9.68 9.26856ZM12.7378 25.0248V19.3552C13.2652 19.5061 13.7314 19.6673 14.1363 19.8389C14.7526 20.0967 15.2188 20.4092 15.5348 20.7764C15.8588 21.1436 16.0207 21.5967 16.0207 22.1357C16.0207 22.7139 15.843 23.2256 15.4874 23.6709C15.1319 24.1162 14.6301 24.4639 13.9822 24.7139C13.6068 24.8605 13.192 24.9641 12.7378 25.0248Z" fill="black"/>
</svg>
