<svg width="37" height="20" viewBox="0 0 37 20" fill="none" xmlns="http://www.w3.org/2000/svg">
<path d="M21.5401 0C22.2765 0 22.8734 0.596954 22.8734 1.33333V7.94949H25.4592C25.8114 7.93887 26.167 8.06705 26.4371 8.33404L28.4371 10.3113C28.6904 10.5618 28.833 10.9032 28.833 11.2595C28.833 11.6158 28.6904 11.9572 28.4371 12.2077L25.4371 15.1736C25.125 15.4821 24.7923 15.7576 24.4433 16H28.833C29.5694 16 30.1663 16.597 30.1663 17.3333V18.6667C30.1663 19.403 29.5694 20 28.833 20H8.16634C7.42996 20 6.83301 19.403 6.83301 18.6667V17.3333C6.83301 16.597 7.42996 16 8.16634 16H12.5561C12.2071 15.7576 11.8743 15.4821 11.5623 15.1736L8.56226 12.2077C8.30891 11.9572 8.16634 11.6158 8.16634 11.2595C8.16634 10.9032 8.30891 10.5618 8.56226 10.3113L10.5623 8.33404C10.853 8.04658 11.243 7.92002 11.621 7.95438H14.045V1.33333C14.045 0.596954 14.642 0 15.3784 0H21.5401Z" fill="black"/>
<path d="M19.1665 12.2483C18.8803 12.5313 18.5546 12.7514 18.2069 12.9087V1.3335H15.3785V12.8707C15.0612 12.7167 14.7637 12.5092 14.4998 12.2483L11.4998 9.28238L9.49984 11.2597L12.4998 14.2256C14.8931 16.5917 18.7733 16.5917 21.1665 14.2256L24.1665 11.2597L22.1665 9.28238L19.1665 12.2483Z" fill="white"/>
<path d="M25.4998 17.3335H8.1665V18.6668H25.4998V17.3335Z" fill="white"/>
</svg>
