<svg width="24" height="21" viewBox="0 0 24 21" fill="none" xmlns="http://www.w3.org/2000/svg">
<path d="M18.333 10.5236C18.2465 10.5113 18.1586 10.5036 18.0693 10.501L20.6966 7.8737C21.1257 7.44459 21.3243 6.87227 21.2925 6.31059C21.8978 6.30365 22.5011 6.06922 22.963 5.6073C23.901 4.66936 23.901 3.14867 22.963 2.21074L21.9557 1.20345C21.4018 0.649488 20.6445 0.422707 19.9241 0.523107C19.7031 0.492298 19.4785 0.492298 19.2575 0.523107C19.0364 0.492298 18.8119 0.492298 18.5908 0.523107C18.3697 0.492298 18.1452 0.492298 17.9241 0.523108C17.7031 0.492298 17.4785 0.492298 17.2575 0.523107C16.6271 0.435257 15.9685 0.597904 15.4426 1.01105C15.3675 1.07007 15.2951 1.1342 15.2258 1.20345C14.7639 1.66537 14.5295 2.26864 14.5226 2.87402C14.2306 2.85745 13.9358 2.90315 13.6597 3.01113C13.6641 2.95244 13.6663 2.89315 13.6663 2.83333C13.6663 1.54467 12.6217 0.5 11.333 0.5H6.99967C3.31778 0.5 0.333008 3.48477 0.333008 7.16667V13.8333C0.333008 17.5152 3.31778 20.5 6.99967 20.5H16.9997C20.6816 20.5 23.6663 17.5152 23.6663 13.8333V12.8333C23.6663 11.5447 22.6217 10.5 21.333 10.5C21.2198 10.5 21.1085 10.5081 20.9997 10.5236C20.8908 10.5081 20.7795 10.5 20.6663 10.5C20.5532 10.5 20.4419 10.5081 20.333 10.5236C20.2241 10.5081 20.1129 10.5 19.9997 10.5C19.8865 10.5 19.7752 10.5081 19.6663 10.5236C19.5575 10.5081 19.4462 10.5 19.333 10.5C19.2198 10.5 19.1085 10.5081 18.9997 10.5236C18.8908 10.5081 18.7795 10.5 18.6663 10.5C18.5532 10.5 18.4419 10.5081 18.333 10.5236Z" fill="black"/>
<path fill-rule="evenodd" clip-rule="evenodd" d="M16.1692 2.1463C16.5864 1.72907 17.2629 1.72907 17.6801 2.1463L18.6874 3.15359C19.1046 3.57082 19.1046 4.24729 18.6874 4.66453C18.2702 5.08176 17.5937 5.08176 17.1765 4.66453L16.1692 3.65724C15.7519 3.24 15.7519 2.56353 16.1692 2.1463ZM13.9028 4.41271C14.1809 4.13455 14.6319 4.13455 14.9101 4.41271L16.421 5.92364C16.6991 6.2018 16.6991 6.65278 16.421 6.93094L9.8736 13.4783C9.59544 13.7565 9.14446 13.7565 8.86631 13.4783L7.35537 11.9674C7.07721 11.6892 7.07721 11.2383 7.35537 10.9601L13.9028 4.41271ZM5.77559 13.2283C5.80293 12.9276 6.16858 12.7952 6.38208 13.0087L7.82501 14.4516C8.03851 14.6651 7.90613 15.0308 7.60543 15.0581L6.44381 15.1637C6.00083 15.204 5.62972 14.8329 5.66999 14.3899L5.77559 13.2283ZM8.00033 1.83337C8.55261 1.83337 9.00033 2.28109 9.00033 2.83337C9.00033 3.38566 8.55261 3.83337 8.00033 3.83337H7.00033C5.15938 3.83337 3.66699 5.32576 3.66699 7.16671V13.8334C3.66699 15.6743 5.15938 17.1667 7.00033 17.1667H13.667C15.5079 17.1667 17.0003 15.6743 17.0003 13.8334V12.8334C17.0003 12.2811 17.448 11.8334 18.0003 11.8334C18.5526 11.8334 19.0003 12.2811 19.0003 12.8334V13.8334C19.0003 16.7789 16.6125 19.1667 13.667 19.1667H7.00033C4.05481 19.1667 1.66699 16.7789 1.66699 13.8334V7.16671C1.66699 4.22119 4.05481 1.83337 7.00033 1.83337H8.00033Z" fill="white"/>
</svg>
