<svg width="26" height="20" viewBox="0 0 26 20" fill="none" xmlns="http://www.w3.org/2000/svg">
<path d="M2.66667 20C1.1939 20 0 18.8061 0 17.3333V2.66667C0 1.19391 1.19391 0 2.66667 0H14.0445C14.2412 0 14.428 0.042597 14.5961 0.11907C14.5961 0.11907 14.9011 0.116485 15.0698 0.11907C15.2501 0.121831 15.4305 0.161137 15.5997 0.237827C15.8872 0.368114 16.152 0.549664 16.38 0.776566L18.6255 3.01143C18.6548 3.0141 18.684 3.01726 18.7132 3.0209C18.8134 3.00842 18.9141 3.00159 19.0149 3.00041C19.9236 2.98975 20.8362 2.98974 21.7449 3.00041C22.4168 3.00829 23.0863 3.26718 23.5997 3.77711L23.6005 3.77784L24.5507 4.72083C25.5921 5.76262 25.597 7.45107 24.5493 8.4942L24.5476 8.49581L24.0767 8.96655C23.9637 9.07951 23.8462 9.1648 23.7252 9.22556C23.6972 9.30706 23.6549 9.37758 23.597 9.43528L19.6765 13.3364C19.9216 13.5818 20.0668 13.9186 20.0668 14.2791V17.3333C20.0668 18.8061 18.8729 20 17.4001 20H2.66667Z" fill="black"/>
<path fill-rule="evenodd" clip-rule="evenodd" d="M2.66707 1.33337H10.7116V3.33337C10.7116 4.80613 11.9055 6.00004 13.3783 6.00004H14.2533L10.091 10.1441C10.0565 10.1784 10.0238 10.2139 9.99291 10.2504C9.70758 10.1955 9.41287 10.1667 9.11142 10.1667H7.95779C5.40927 10.1667 3.34328 12.2229 3.34328 14.7593C3.34328 15.0764 3.60153 15.3334 3.9201 15.3334H8.05116C7.97888 15.7564 8.11567 16.1913 8.42347 16.4984C8.75861 16.8327 9.24648 16.9657 9.70603 16.8479L13.5429 15.8646C13.933 15.7646 14.2482 15.4987 14.4161 15.1515C14.5624 15.0753 14.6997 14.9762 14.8228 14.854L15.4005 14.2791V17.3334C15.4005 18.0698 14.8036 18.6667 14.0672 18.6667H2.66707C1.93069 18.6667 1.33374 18.0698 1.33374 17.3334V2.66671C1.33374 1.93033 1.93069 1.33337 2.66707 1.33337ZM6.33827 7.18594C6.33827 5.9787 7.3216 5.00004 8.5346 5.00004C9.7476 5.00004 10.7309 5.9787 10.7309 7.18594C10.7309 8.39318 9.7476 9.37184 8.5346 9.37184C7.3216 9.37184 6.33827 8.39318 6.33827 7.18594Z" fill="white"/>
<path d="M15.2577 5.00004L15.2729 4.98492C15.2076 4.84655 15.1183 4.71915 15.0078 4.60913L12.1065 1.72166C11.9925 1.6082 11.8601 1.51744 11.7164 1.45229V3.66671C11.7164 4.40309 12.3133 5.00004 13.0497 5.00004H15.2577Z" fill="white"/>
<path d="M20.2748 5.66352L19.3276 4.72354C18.8044 4.20354 17.9561 4.20354 17.4329 4.72354L16.9593 5.19355L19.8012 8.02355L20.2748 7.5502C20.7979 7.0302 20.7979 6.18685 20.2748 5.66352Z" fill="white"/>
<path d="M13.4028 13.4402C13.2718 13.5702 13.2718 13.7802 13.4028 13.9102C13.5337 14.0402 13.7457 14.0402 13.8767 13.9102L19.3236 8.49018L18.85 8.01687L13.4028 13.4402Z" fill="white"/>
<path d="M11.0385 11.0869C10.9076 11.2169 10.9076 11.4269 11.0385 11.5569C11.1695 11.6869 11.3815 11.6869 11.5125 11.5569L16.9593 6.13687L16.4858 5.66352L11.0385 11.0869Z" fill="white"/>
<path d="M11.7258 12.2469C11.4642 12.5069 11.4642 12.9302 11.7258 13.1902C11.9874 13.4502 12.4114 13.4502 12.6733 13.1902L18.3888 7.56021L17.4416 6.61685L11.7258 12.2469Z" fill="white"/>
<path d="M10.565 12.0302C10.4802 11.9435 10.4169 11.8469 10.3687 11.7435L9.51517 15.009C9.4509 15.2549 9.6756 15.4791 9.92283 15.4157L13.2088 14.5735C13.108 14.5269 13.0126 14.4635 12.9292 14.3835C12.8414 14.2935 12.7775 14.1935 12.7313 14.0869C12.7004 14.0169 12.6123 13.9835 12.538 14.0035C12.0936 14.1202 11.6005 14.0069 11.2522 13.6602C10.9103 13.3202 10.7951 12.8402 10.9016 12.4035C10.9203 12.3268 10.8915 12.2469 10.8198 12.2102C10.7281 12.1669 10.6417 12.1068 10.565 12.0302Z" fill="white"/>
</svg>
