<svg width="55" height="30" viewBox="0 0 55 30" fill="none" xmlns="http://www.w3.org/2000/svg">
<path d="M24.9828 0C16.6901 0 10 6.73364 10 15C10 23.2664 16.6901 30 24.9828 30C25.0669 30 25.1508 29.9993 25.2345 29.9979C25.3183 29.9993 25.4022 30 25.4863 30C25.5704 30 25.6543 29.9993 25.7381 29.9979C25.8218 29.9993 25.9057 30 25.9898 30C26.0739 30 26.1579 29.9993 26.2416 29.9979C26.3254 29.9993 26.4093 30 26.4934 30C26.5775 30 26.6614 29.9993 26.7452 29.9979C26.8289 29.9993 26.9129 30 26.997 30C27.081 30 27.165 29.9993 27.2487 29.9979C27.3325 29.9993 27.4164 30 27.5005 30C27.5846 30 27.6685 29.9993 27.7523 29.9979C27.836 29.9993 27.9199 30 28.004 30C28.0881 30 28.172 29.9993 28.2558 29.9979C28.3395 29.9993 28.4235 30 28.5075 30C28.5917 30 28.6756 29.9993 28.7593 29.9979C28.8431 29.9993 28.927 30 29.0111 30C29.0952 30 29.1792 29.9993 29.2629 29.9979C29.3467 29.9993 29.4306 30 29.5147 30C29.5988 30 29.6827 29.9993 29.7664 29.9979C29.8502 29.9993 29.9341 30 30.0182 30C38.3109 30 45.001 23.2664 45.001 15C45.001 6.73364 38.3109 0 30.0182 0C29.9341 0 29.8502 0.000692356 29.7664 0.00207164C29.6827 0.000692356 29.5988 0 29.5147 0C29.4306 0 29.3467 0.000692357 29.2629 0.00207165C29.1792 0.000692357 29.0952 0 29.0111 0C28.927 0 28.8431 0.000692528 28.7593 0.00207216C28.6756 0.000692528 28.5917 0 28.5075 0C28.4235 0 28.3395 0.000692359 28.2558 0.00207165C28.172 0.000692359 28.0881 0 28.004 0C27.9199 0 27.836 0.000692347 27.7523 0.00207162C27.6685 0.000692348 27.5846 0 27.5005 0C27.4164 0 27.3325 0.000692356 27.2487 0.00207165C27.165 0.000692356 27.081 0 26.997 0C26.9129 0 26.8289 0.000692355 26.7452 0.00207164C26.6614 0.000692355 26.5775 0 26.4934 0C26.4093 0 26.3254 0.000692526 26.2416 0.00207215C26.1579 0.000692526 26.0739 0 25.9898 0C25.9057 0 25.8218 0.000692356 25.7381 0.00207164C25.6543 0.000692356 25.5704 0 25.4863 0C25.4022 0 25.3183 0.000692356 25.2345 0.00207165C25.1508 0.000692356 25.0669 0 24.9828 0Z" fill="black"/>
<path fill-rule="evenodd" clip-rule="evenodd" d="M12.001 15.0039C12.001 7.8242 17.8214 2.00391 25.0013 2.00391C32.1812 2.00391 38.0017 7.8242 38.0017 15.0039C38.0017 22.1836 32.1812 28.0039 25.0013 28.0039C17.8214 28.0039 12.001 22.1836 12.001 15.0039ZM22.8346 9.20328C22.8346 8.76159 22.2987 8.53684 21.9785 8.84423L17.7108 12.9412C17.3851 13.2538 17.6086 13.8002 18.0621 13.8002H32.4412C32.72 13.8002 32.946 13.5763 32.946 13.3002V12.8558C32.946 12.5796 32.72 12.3558 32.4412 12.3558H23.3394C23.0606 12.3558 22.8346 12.1319 22.8346 11.8558V9.20328ZM31.6998 16.2076C32.1534 16.2076 32.3768 16.754 32.0511 17.0667L27.7834 21.1636C27.4632 21.471 26.9273 21.2462 26.9273 20.8045V18.1521C26.9273 17.8759 26.7013 17.6521 26.4225 17.6521L17.3207 17.6521C17.0419 17.6521 16.8159 17.4282 16.8159 17.1521V16.7076C16.8159 16.4315 17.0419 16.2076 17.3207 16.2076L31.6998 16.2076Z" fill="white"/>
</svg>
