<svg width="35" height="30" viewBox="0 0 35 30" fill="none" xmlns="http://www.w3.org/2000/svg">
<path d="M14.9824 0.000976562C6.68987 0.000976562 0 6.73462 0 15.001C0 23.2673 6.68987 30.001 14.9824 30.001C15.0664 30.001 15.1504 30.0003 15.2341 29.9989C15.3179 30.0003 15.4018 30.001 15.4859 30.001C15.57 30.001 15.6539 30.0003 15.7376 29.9989C15.8214 30.0003 15.9053 30.001 15.9894 30.001C16.0735 30.001 16.1574 30.0003 16.2412 29.9989C16.3249 30.0003 16.4089 30.001 16.493 30.001C16.5771 30.001 16.661 30.0003 16.7447 29.9989C16.8285 30.0003 16.9124 30.001 16.9965 30.001C17.0806 30.001 17.1645 30.0003 17.2482 29.9989C17.332 30.0003 17.4159 30.001 17.5 30.001C17.5841 30.001 17.668 30.0003 17.7518 29.9989C17.8355 30.0003 17.9194 30.001 18.0035 30.001C18.0876 30.001 18.1715 30.0003 18.2553 29.9989C18.339 30.0003 18.423 30.001 18.507 30.001C18.5911 30.001 18.6751 30.0003 18.7588 29.9989C18.8426 30.0003 18.9265 30.001 19.0106 30.001C19.0947 30.001 19.1786 30.0003 19.2624 29.9989C19.3461 30.0003 19.43 30.001 19.5141 30.001C19.5982 30.001 19.6821 30.0003 19.7659 29.9989C19.8496 30.0003 19.9336 30.001 20.0177 30.001C28.3101 30.001 35 23.2673 35 15.001C35 6.73462 28.3101 0.000976562 20.0177 0.000976562C19.9336 0.000976562 19.8496 0.00166892 19.7659 0.00304821C19.6821 0.00166892 19.5982 0.000976562 19.5141 0.000976562C19.43 0.000976562 19.3461 0.00166892 19.2624 0.00304821C19.1786 0.00166892 19.0947 0.000976562 19.0106 0.000976562C18.9265 0.000976562 18.8426 0.00166909 18.7588 0.00304872C18.6751 0.00166909 18.5911 0.000976562 18.507 0.000976562C18.423 0.000976562 18.339 0.00166892 18.2553 0.00304822C18.1715 0.00166892 18.0876 0.000976562 18.0035 0.000976562C17.9194 0.000976562 17.8355 0.00166891 17.7518 0.00304819C17.668 0.00166891 17.5841 0.000976562 17.5 0.000976562C17.4159 0.000976562 17.332 0.00166892 17.2482 0.00304821C17.1645 0.00166892 17.0806 0.000976562 16.9965 0.000976562C16.9124 0.000976562 16.8285 0.00166892 16.7447 0.00304821C16.661 0.00166892 16.5771 0.000976562 16.493 0.000976562C16.4089 0.000976562 16.3249 0.00166909 16.2412 0.00304872C16.1574 0.00166909 16.0735 0.000976562 15.9894 0.000976562C15.9053 0.000976562 15.8214 0.00166892 15.7376 0.00304821C15.6539 0.00166892 15.57 0.000976562 15.4859 0.000976562C15.4018 0.000976562 15.3179 0.00166892 15.2341 0.00304821C15.1504 0.00166892 15.0664 0.000976562 14.9824 0.000976562Z" fill="black"/>
<path fill-rule="evenodd" clip-rule="evenodd" d="M2 15.001C2 7.82127 7.8203 2.00098 15 2.00098C22.1797 2.00098 28 7.82127 28 15.001C28 22.1807 22.1797 28.001 15 28.001C7.8203 28.001 2 22.1807 2 15.001ZM12.8333 9.20035C12.8333 8.75866 12.2975 8.53391 11.9773 8.8413L7.70966 12.9382C7.38399 13.2509 7.60742 13.7973 8.06094 13.7973H22.4397C22.7185 13.7973 22.9444 13.5734 22.9444 13.2973V12.8528C22.9444 12.5767 22.7185 12.3528 22.4397 12.3528H13.3381C13.0593 12.3528 12.8333 12.129 12.8333 11.8528V9.20035ZM21.6983 16.2047C22.1518 16.2047 22.3753 16.7511 22.0496 17.0637L17.782 21.1607C17.4618 21.468 16.9259 21.2433 16.9259 20.8016V18.1491C16.9259 17.873 16.6999 17.6491 16.4212 17.6491L7.31958 17.6491C7.0408 17.6491 6.81481 17.4253 6.81481 17.1491V16.7047C6.81481 16.4285 7.0408 16.2047 7.31958 16.2047L21.6983 16.2047Z" fill="white"/>
</svg>
