<svg width="55" height="31" viewBox="0 0 55 31" fill="none" xmlns="http://www.w3.org/2000/svg">
<g id="Eye - Color">
<path id="Union" d="M29.5004 30.5C29.5838 30.5 29.6671 30.4995 29.7504 30.4986C29.8336 30.4995 29.9169 30.5 30.0004 30.5C35.4941 30.5 40.4988 28.4591 44.5204 26.0339C48.5511 23.6033 51.7176 20.7124 53.5731 18.8323C54.4646 17.9287 55 16.7632 55 15.5007C55 14.2383 54.4648 13.0729 53.5743 12.1688L53.5729 12.1674C51.7174 10.2873 48.5511 7.39674 44.5204 4.96611C40.4988 2.54094 35.4941 0.5 30.0004 0.5C29.9169 0.5 29.8336 0.500471 29.7504 0.501407C29.6671 0.500471 29.5838 0.5 29.5004 0.5C29.4169 0.5 29.3336 0.500471 29.2504 0.501407C29.1671 0.500471 29.0838 0.5 29.0004 0.5C28.9169 0.5 28.8336 0.500471 28.7504 0.501407C28.6671 0.500471 28.5838 0.5 28.5004 0.5C28.4169 0.5 28.3336 0.500471 28.2504 0.501407C28.1671 0.500471 28.0838 0.5 28.0004 0.5C27.9169 0.5 27.8336 0.500471 27.7504 0.501407C27.6671 0.500471 27.5838 0.5 27.5004 0.5C27.4169 0.5 27.3336 0.500471 27.2504 0.501407C27.1671 0.500471 27.0838 0.5 27.0004 0.5C26.9169 0.5 26.8336 0.500471 26.7504 0.501407C26.6671 0.500471 26.5838 0.5 26.5004 0.5C26.4169 0.5 26.3336 0.500471 26.2504 0.501407C26.1671 0.500471 26.0838 0.5 26.0004 0.5C25.9169 0.5 25.8336 0.500471 25.7504 0.501407C25.6671 0.500471 25.5838 0.5 25.5004 0.5C25.4169 0.5 25.3336 0.500471 25.2504 0.501407C25.1671 0.500471 25.0838 0.5 25.0004 0.5C19.5066 0.5 14.5019 2.54094 10.4803 4.96611C6.4528 7.39485 3.28829 10.2828 1.43217 12.163C0.556305 13.0407 0 14.2094 0 15.5C0 16.7907 0.556386 17.9595 1.43236 18.8372C3.28851 20.7174 6.45294 23.6052 10.4803 26.0339C14.5019 28.4591 19.5066 30.5 25.0004 30.5C25.0838 30.5 25.1672 30.4995 25.2504 30.4986C25.3336 30.4995 25.4169 30.5 25.5004 30.5C25.5838 30.5 25.6671 30.4995 25.7503 30.4986C25.8336 30.4995 25.9169 30.5 26.0004 30.5C26.0838 30.5 26.1671 30.4995 26.2504 30.4986C26.3336 30.4995 26.4169 30.5 26.5004 30.5C26.5838 30.5 26.6672 30.4995 26.7504 30.4986C26.8336 30.4995 26.9169 30.5 27.0004 30.5C27.0838 30.5 27.1671 30.4995 27.2504 30.4986C27.3336 30.4995 27.4169 30.5 27.5004 30.5C27.5838 30.5 27.6671 30.4995 27.7504 30.4986C27.8336 30.4995 27.9169 30.5 28.0004 30.5C28.0838 30.5 28.1671 30.4995 28.2504 30.4986C28.3336 30.4995 28.4169 30.5 28.5004 30.5C28.5838 30.5 28.6671 30.4995 28.7504 30.4986C28.8336 30.4995 28.9169 30.5 29.0004 30.5C29.0838 30.5 29.1671 30.4995 29.2504 30.4986C29.3336 30.4995 29.4169 30.5 29.5004 30.5Z" fill="black"/>
<path id="Subtract" fill-rule="evenodd" clip-rule="evenodd" d="M47.1494 17.4277C48.2835 16.2781 48.2835 14.7237 47.1494 13.5723C43.5771 9.95271 35.0066 2.5 25.0004 2.5C14.9942 2.5 6.4236 9.95271 2.85133 13.5723C2.29953 14.1236 2 14.8019 2 15.5C2 16.1981 2.29953 16.8764 2.85133 17.4277C6.4236 21.0473 14.9942 28.5 25.0004 28.5C35.0066 28.5 43.5771 21.0473 47.1494 17.4277ZM30.75 15.4992C30.75 18.5762 28.1756 21.0706 25 21.0706C21.8244 21.0706 19.25 18.5762 19.25 15.4992C19.25 12.4221 21.8244 9.92773 25 9.92773C28.1756 9.92773 30.75 12.4221 30.75 15.4992Z" fill="white"/>
</g>
</svg>
