<svg width="35" height="20" viewBox="0 0 35 20" fill="none" xmlns="http://www.w3.org/2000/svg">
<path d="M29.1073 8.95933C28.7556 8.38433 28.122 8 27.4 8V7.97833C28.5446 7.843 29.4 7.024 29.4 6C29.4 5.83367 29.3683 5.465 29.366 5.44433C29.3466 5.28133 29.2786 4.941 29.276 4.931C28.6213 2.094 25.398 0 21.4 0H18.0666C14.0676 0 10.8433 2.095 10.19 4.93333C10.1877 4.94333 10.1197 5.28233 10.1007 5.44533C10.0983 5.466 10.0666 5.834 10.0666 6V7.008C9.77898 6.79033 9.43365 6.66667 9.06665 6.66667H5.73332C5.28798 6.66667 4.86965 6.84 4.55465 7.15467C4.23999 7.46967 4.06665 7.88833 4.06665 8.33333C4.06665 8.74567 4.21532 9.13533 4.48765 9.44067C4.22398 9.77933 4.06665 10.205 4.06665 10.6667V11.3333C4.06665 11.8257 4.33632 12.251 4.73332 12.4817V16C4.73332 16.869 5.29098 17.608 6.06665 17.8833V18.0833C6.06665 19.1403 6.92665 20 7.98332 20H11.3166C12.3736 20 13.2333 19.1403 13.2333 18.0833V18H17.6803C18.196 19.1757 19.3696 20 20.7333 20H24.0666C25.4306 20 26.6043 19.1757 27.1196 18H27.4C28.503 18 29.4 17.103 29.4 16V12.4817C29.797 12.251 30.0666 11.8257 30.0666 11.3333V10.6667C30.0666 9.945 29.6823 9.311 29.1073 8.95933Z" fill="black"/>
<path fill-rule="evenodd" clip-rule="evenodd" d="M18.4 10.0002H18.7334C18.7334 9.6322 19.032 9.33353 19.4 9.33353H24.0667C24.4347 9.33353 24.7334 9.6322 24.7334 10.0002C25.1014 10.0002 25.4001 10.2989 25.4001 10.6669V11.3335H5.39999V10.6669C5.39999 10.2989 5.69865 10.0002 6.06666 10.0002H6.92866L5.49765 8.56919C5.36732 8.43886 5.36732 8.22819 5.49765 8.09786C5.62799 7.96752 5.83899 7.96752 5.96899 8.09786L7.20499 9.33353H11.4C11.768 9.33353 12.0667 9.6322 12.0667 10.0002H12.7333C12.7333 9.6322 13.032 9.33353 13.4 9.33353H16.7334C17.1014 9.33353 17.4 9.6322 17.4 10.0002H17.7334V6.49385C17.5564 6.60018 17.324 6.66685 17.0667 6.66685C16.5144 6.66685 16.0667 6.36818 16.0667 6.00018C16.0667 3.42284 16.9624 1.3335 18.0667 1.3335C18.274 1.3335 18.4737 1.40683 18.6614 1.54316C18.7867 1.63416 18.9067 1.75317 19.02 1.89683C19.19 2.11217 19.345 2.3835 19.481 2.7005C19.843 3.54484 20.0667 4.71151 20.0667 6.00018C20.0667 6.36818 19.619 6.66685 19.0667 6.66685C18.8094 6.66685 18.5774 6.60018 18.4 6.49385V10.0002ZM12.4 6.66685C11.8477 6.66685 11.4 6.36818 11.4 6.00018C11.4 3.77284 13.6307 1.91316 16.6127 1.44816C15.8137 2.43617 15.4 4.22351 15.4 6.00018C15.4 6.36818 14.9524 6.66685 14.4 6.66685C14.0294 6.66685 13.7057 6.53219 13.5327 6.33252C13.4604 6.24852 13.3397 6.24852 13.2674 6.33252C13.0947 6.53219 12.771 6.66685 12.4 6.66685ZM20.7334 6.00018C20.7334 4.22351 20.3197 2.43617 19.521 1.44816C22.5027 1.91316 24.7334 3.77284 24.7334 6.00018C24.7334 6.36818 24.2857 6.66685 23.7334 6.66685C23.3627 6.66685 23.0391 6.53219 22.8661 6.33252C22.7937 6.24852 22.6731 6.24852 22.6007 6.33252C22.4281 6.53219 22.1044 6.66685 21.7334 6.66685C21.1811 6.66685 20.7334 6.36818 20.7334 6.00018ZM20.7334 14.6669C21.8381 14.6669 22.7334 15.5626 22.7334 16.6669C22.7334 17.7716 21.8381 18.6666 20.7334 18.6666C19.629 18.6666 18.7334 17.7716 18.7334 16.6669C18.7334 15.5626 19.629 14.6669 20.7334 14.6669ZM20.7334 17.3336C21.1014 17.3336 21.4001 17.0349 21.4001 16.6669C21.4001 16.2989 21.1014 16.0002 20.7334 16.0002C20.3654 16.0002 20.0667 16.2989 20.0667 16.6669C20.0667 17.0349 20.3654 17.3336 20.7334 17.3336ZM6.06666 12.0002H24.7334V16.0002C24.7334 16.3682 24.4347 16.6669 24.0667 16.6669H23.4001C23.4001 15.1966 22.2037 14.0002 20.7334 14.0002C19.263 14.0002 18.0667 15.1966 18.0667 16.6669H8.56667V18.0836C8.56667 18.4056 8.30567 18.6666 7.98333 18.6666C7.66133 18.6666 7.39999 18.4056 7.39999 18.0836V16.6669H6.73332C6.36532 16.6669 6.06666 16.3682 6.06666 16.0002V12.0002Z" fill="white"/>
</svg>
