<svg width="55" height="30" viewBox="0 0 55 30" fill="none" xmlns="http://www.w3.org/2000/svg">
<path d="M14 4.42623C14 3.33977 14.8808 2.45902 15.9672 2.45902H19.6958C20.2795 1.01713 21.6931 0 23.3443 0H32.1967C33.8479 0 35.2615 1.01713 35.8452 2.45902H39.5738C40.6602 2.45902 41.541 3.33977 41.541 4.42623V28.0328C41.541 29.1193 40.6602 30 39.5738 30H15.9672C14.8808 30 14 29.1193 14 28.0328V4.42623Z" fill="black"/>
<path d="M23.3438 1.96875C22.2574 1.96875 21.3766 2.8495 21.3766 3.93596C21.3766 5.02242 22.2574 5.90318 23.3438 5.90318H27.2783C28.3647 5.90318 29.2455 5.02242 29.2455 3.93596C29.2455 2.8495 28.3647 1.96875 27.2783 1.96875H23.3438Z" fill="white"/>
<path fill-rule="evenodd" clip-rule="evenodd" d="M23.3438 7.87039C21.3375 7.87039 19.6819 6.36858 19.4399 4.42777H15.9668V28.0343H34.6553V4.42777H31.1823C30.9402 6.36858 29.2846 7.87039 27.2783 7.87039H23.3438ZM18.6717 9.8376C18.2643 9.8376 17.934 10.1679 17.934 10.5753C17.934 10.9827 18.2643 11.313 18.6717 11.313C19.0791 11.313 19.4094 10.9827 19.4094 10.5753C19.4094 10.1679 19.0791 9.8376 18.6717 9.8376ZM20.6317 21.4182C18.895 19.7021 20.1084 16.7533 22.5542 16.7439C22.9625 16.7423 23.3491 16.8284 23.6975 16.9856C24.6457 17.4141 25.3066 18.3631 25.3108 19.4679C25.3082 18.7751 25.5639 18.1434 25.9867 17.6605C26.488 17.088 27.2244 16.726 28.0463 16.7229C30.4922 16.7135 31.7283 19.6529 30.0049 21.3823L25.3363 26.0671L20.6317 21.4182ZM17.934 14.0179C17.934 13.6105 18.2643 13.2802 18.6717 13.2802C19.0791 13.2802 19.4094 13.6105 19.4094 14.0179C19.4094 14.4254 19.0791 14.7556 18.6717 14.7556C18.2643 14.7556 17.934 14.4254 17.934 14.0179ZM22.1143 9.8376C21.7069 9.8376 21.3766 10.1679 21.3766 10.5753C21.3766 10.9827 21.7069 11.313 22.1143 11.313H31.9504C32.3578 11.313 32.6881 10.9827 32.6881 10.5753C32.6881 10.1679 32.3578 9.8376 31.9504 9.8376H22.1143ZM21.3766 14.0179C21.3766 13.6105 21.7069 13.2802 22.1143 13.2802H31.9504C32.3578 13.2802 32.6881 13.6105 32.6881 14.0179C32.6881 14.4254 32.3578 14.7556 31.9504 14.7556H22.1143C21.7069 14.7556 21.3766 14.4254 21.3766 14.0179Z" fill="white"/>
</svg>
