<svg width="37" height="24" viewBox="0 0 37 24" fill="none" xmlns="http://www.w3.org/2000/svg">
<path d="M9.33464 1.33333C7.49369 1.33333 6.0013 2.82572 6.0013 4.66667V9.44772C6.0013 11.5964 7.87516 12.9527 9.68644 12.7696C9.90623 12.7917 10.1296 12.7923 10.3532 12.7696C10.573 12.7917 10.7963 12.7923 11.0199 12.7696C11.2396 12.7917 11.463 12.7923 11.6865 12.7696C11.9063 12.7917 12.1297 12.7923 12.3532 12.7696C13.2786 12.8627 14.258 12.5717 15.025 11.8047L19.806 7.02369C21.9059 4.92381 20.4187 1.33333 17.449 1.33333H9.33464ZM16.8632 16.9763C14.7633 19.0762 16.2506 22.6667 19.2203 22.6667H27.3346C29.1756 22.6667 30.668 21.1743 30.668 19.3333V14.5523C30.668 12.4036 28.7941 11.0473 26.9828 11.2304C26.763 11.2083 26.5396 11.2077 26.3161 11.2304C26.0963 11.2083 25.873 11.2077 25.6494 11.2304C25.4297 11.2083 25.2063 11.2077 24.9828 11.2304C24.763 11.2083 24.5396 11.2077 24.3161 11.2304C23.3906 11.1373 22.4112 11.4283 21.6443 12.1953L16.8632 16.9763Z" fill="black" stroke="white" stroke-width="1.33333"/>
<path d="M9.33333 3.33301C8.59695 3.33301 8 3.92996 8 4.66634V9.44739C8 10.6353 9.43619 11.2302 10.2761 10.3902L15.0572 5.60915C15.8971 4.7692 15.3023 3.33301 14.1144 3.33301H9.33333Z" fill="white"/>
<path d="M25.3333 14.552C25.3333 13.3641 23.8971 12.7692 23.0572 13.6091L18.2761 18.3902C17.4362 19.2302 18.0311 20.6663 19.219 20.6663H24C24.7364 20.6663 25.3333 20.0694 25.3333 19.333V14.552Z" fill="white"/>
</svg>
