<svg width="43" height="31" viewBox="0 0 43 31" fill="none" xmlns="http://www.w3.org/2000/svg">
<path fill-rule="evenodd" clip-rule="evenodd" d="M25.3334 0.501953C25.2497 0.501953 25.1663 0.503496 25.0834 0.506554C25.0004 0.503496 24.9171 0.501953 24.8334 0.501953C23.6191 0.501953 22.4806 0.826606 21.5 1.39385C20.5194 0.826606 19.381 0.501953 18.1667 0.501953C18.083 0.501953 17.9996 0.503496 17.9167 0.506554C17.8337 0.503496 17.7504 0.501953 17.6667 0.501953C17.583 0.501953 17.4996 0.503496 17.4167 0.506554C17.3337 0.503496 17.2504 0.501953 17.1667 0.501953C17.083 0.501953 16.9996 0.503496 16.9167 0.506554C16.8337 0.503496 16.7504 0.501953 16.6667 0.501953C16.583 0.501953 16.4996 0.503496 16.4167 0.506554C16.3337 0.503496 16.2504 0.501953 16.1667 0.501953C16.083 0.501953 15.9996 0.503496 15.9167 0.506554C15.8337 0.503496 15.7504 0.501953 15.6667 0.501953C15.583 0.501953 15.4996 0.503496 15.4167 0.506554C15.3337 0.503496 15.2504 0.501953 15.1667 0.501953C15.083 0.501953 14.9996 0.503496 14.9167 0.506554C14.8337 0.503496 14.7504 0.501953 14.6667 0.501953C14.583 0.501953 14.4996 0.503496 14.4167 0.506554C14.3337 0.503496 14.2504 0.501953 14.1667 0.501953C14.083 0.501953 13.9996 0.503496 13.9167 0.506554C13.8337 0.503496 13.7504 0.501953 13.6667 0.501953C13.583 0.501953 13.4996 0.503496 13.4167 0.506554C13.3337 0.503496 13.2504 0.501953 13.1667 0.501953C9.48477 0.501953 6.5 3.48672 6.5 7.16862C6.5 7.62453 6.54602 8.07056 6.63375 8.50195H6.5H6H5.5H5H4.5C2.01472 8.50195 0 10.5167 0 13.002V15.502C0 16.6065 0.89543 17.502 2 17.502H2.5H3H3.5H4V21.502C4 21.6746 4.02188 21.8421 4.06301 22.002C4.02188 22.1618 4 22.3293 4 22.502V26.002C4 28.4872 6.01472 30.502 8.5 30.502H9H9.5H10H10.5H11H11.5H12H12.5H13H13.5H14H14.5H15H15.5H16H16.5H17H17.5H18H18.5H19H19.5H20H23H23.5H24H24.5H25H25.5H26H26.5H27H27.5H28H28.5H29H29.5H30H30.5H31H31.5H32H32.5H33H33.5H34H34.5C36.9853 30.502 39 28.4872 39 26.002V22.502C39 22.3293 38.9781 22.1618 38.937 22.002C38.9781 21.8421 39 21.6746 39 21.502V17.502H39.5H40H40.5H41C42.1046 17.502 43 16.6065 43 15.502V13.002C43 10.5167 40.9853 8.50195 38.5 8.50195H38H37.5H37H36.5H36.3663C36.454 8.07056 36.5 7.62453 36.5 7.16862C36.5 3.48672 33.5153 0.501953 29.8334 0.501953C29.7497 0.501953 29.6663 0.503496 29.5834 0.506554C29.5004 0.503496 29.4171 0.501953 29.3334 0.501953C29.2497 0.501953 29.1663 0.503496 29.0834 0.506554C29.0004 0.503496 28.9171 0.501953 28.8334 0.501953C28.7497 0.501953 28.6663 0.503496 28.5834 0.506554C28.5004 0.503496 28.4171 0.501953 28.3334 0.501953C28.2497 0.501953 28.1663 0.503496 28.0834 0.506554C28.0004 0.503496 27.9171 0.501953 27.8334 0.501953C27.7497 0.501953 27.6663 0.503496 27.5834 0.506554C27.5004 0.503496 27.4171 0.501953 27.3334 0.501953C27.2497 0.501953 27.1663 0.503496 27.0834 0.506554C27.0004 0.503496 26.9171 0.501953 26.8334 0.501953C26.7497 0.501953 26.6663 0.503496 26.5834 0.506554C26.5004 0.503496 26.4171 0.501953 26.3334 0.501953C26.2497 0.501953 26.1663 0.503496 26.0834 0.506554C26.0004 0.503496 25.9171 0.501953 25.8334 0.501953C25.7497 0.501953 25.6663 0.503496 25.5834 0.506554C25.5004 0.503496 25.4171 0.501953 25.3334 0.501953Z" fill="black"/>
<path fill-rule="evenodd" clip-rule="evenodd" d="M15.8343 7.16862V9.50195H17.8343V7.16862C17.8343 4.59129 15.745 2.50195 13.1676 2.50195C10.5903 2.50195 8.50098 4.59129 8.50098 7.16862C8.50098 8.01862 8.72823 8.81555 9.12529 9.50195H11.8756C11.0558 9.04704 10.501 8.17263 10.501 7.16862C10.501 5.69586 11.6949 4.50195 13.1676 4.50195C14.6404 4.50195 15.8343 5.69586 15.8343 7.16862ZM29.501 7.16862C29.501 8.01862 29.2738 8.81555 28.8767 9.50195H26.1264C26.9462 9.04704 27.501 8.17263 27.501 7.16862C27.501 5.69586 26.3071 4.50195 24.8343 4.50195C23.3616 4.50195 22.1677 5.69586 22.1677 7.16862V9.50195H20.1677V7.16862C20.1677 4.59129 22.257 2.50195 24.8343 2.50195C27.4117 2.50195 29.501 4.59129 29.501 7.16862ZM2.00098 13.002C2.00098 11.6212 3.12026 10.502 4.50098 10.502H12.501V15.502H2.00098V13.002ZM13.501 10.502H24.501V15.502H13.501V10.502ZM23.001 16.502H15.001V21.502H23.001V16.502ZM32.001 16.502H24.001V21.502H32.001V16.502ZM33.501 10.502H25.501V15.502H36.001V13.002C36.001 11.6212 34.8817 10.502 33.501 10.502ZM32.001 22.502H24.001V28.502H29.501C30.8817 28.502 32.001 27.3827 32.001 26.002V22.502ZM15.001 22.502H23.001V28.502H15.001V22.502ZM14.001 16.502H6.00098V21.502H14.001V16.502ZM6.00098 22.502H14.001V28.502H8.50098C7.12027 28.502 6.00098 27.3827 6.00098 26.002V22.502Z" fill="white"/>
</svg>
