<svg width="27" height="21" viewBox="0 0 27 21" fill="none" xmlns="http://www.w3.org/2000/svg">
<path d="M26.0198 11.1699C25.6042 10.4503 24.8295 10.0029 23.9982 10.0029H22.5458C22.0262 8.89593 21.0938 8.03926 19.9435 7.62126C20.6028 6.8166 20.9992 5.7886 20.9992 4.6696C20.9992 2.09626 18.9058 0.00292969 16.3325 0.00292969H13.0002C10.4268 0.00292969 8.3335 2.09626 8.3335 4.6696C8.3335 5.79126 8.73149 6.82126 9.39349 7.62693C8.50249 7.95793 7.73716 8.56126 7.19216 9.33626H2.3335C1.2305 9.33626 0.333496 10.2333 0.333496 11.3363V16.6696C0.333496 17.7726 1.2305 18.6696 2.3335 18.6696H6.3325C6.54316 18.6696 6.74583 18.6353 6.9365 18.5746L11.7895 19.8966C11.7985 19.8989 11.8078 19.9013 11.8172 19.9036C12.0808 19.9693 12.3528 20.0029 12.6245 20.0029H15.9572C16.6195 20.0029 17.2605 19.8083 17.8112 19.4399C17.8165 19.4363 17.8215 19.4326 17.8268 19.4289L25.2212 14.3243C25.7318 14.0106 26.0972 13.5216 26.2528 12.9406C26.4142 12.3383 26.3315 11.7096 26.0198 11.1699Z" fill="black"/>
<path fill-rule="evenodd" clip-rule="evenodd" d="M16.3342 4.66928C16.3342 6.50996 14.8419 8.00263 13.0009 8.00263C11.1599 8.00263 9.66751 6.50996 9.66751 4.66928C9.66751 2.82861 11.1599 1.33594 13.0009 1.33594C14.8419 1.33594 16.3342 2.82861 16.3342 4.66928ZM3.00082 17.336H2.33415C1.96615 17.336 1.66748 17.0373 1.66748 16.6693V11.336C1.66748 10.968 1.96615 10.6693 2.33415 10.6693H3.00082C3.36882 10.6693 3.66749 10.968 3.66749 11.336V16.6693C3.66749 17.0373 3.36882 17.336 3.00082 17.336ZM21.5336 11.8363C21.8096 12.3146 21.6459 12.9263 21.1676 13.2023L13.7379 18.3314C13.2685 18.6457 12.6885 18.7463 12.1409 18.6097L5.19982 16.719C5.06782 16.686 4.93216 16.6693 4.79616 16.6693H4.33416V11.336H5.94083C6.1995 11.336 6.45482 11.3963 6.68616 11.512L9.98185 13.16C10.2132 13.2756 10.4685 13.336 10.7272 13.336H14.0012C14.5535 13.336 15.0009 13.784 15.0009 14.336C15.0009 14.888 14.5535 15.3357 14.0012 15.3357C13.9982 15.3357 13.9952 15.335 13.9922 15.335H8.66751C8.48351 15.335 8.33417 15.484 8.33417 15.6683C8.33417 15.8523 8.48351 16.0017 8.66751 16.0017H13.9435L13.9462 16.002L13.9902 16.0023C14.6699 16.0087 15.3075 15.61 15.5479 14.9743C15.6569 14.687 15.6862 14.404 15.6542 14.1393C15.6379 14.0057 15.7069 13.8763 15.8255 13.8123L20.1676 11.47C20.6459 11.194 21.2572 11.3576 21.5336 11.8363ZM10.2798 12.5636L7.74451 11.2953C8.06885 9.7943 9.40285 8.66898 11.0009 8.66898H15.0009C16.7429 8.66898 18.1705 10.006 18.3195 11.7093L15.5092 13.2253C15.4472 13.2587 15.3899 13.2977 15.3379 13.3417C15.0335 12.9337 14.5479 12.6693 14.0012 12.6693L10.7272 12.669C10.5729 12.669 10.4182 12.6326 10.2798 12.5636Z" fill="white"/>
</svg>
