<svg width="39" height="31" viewBox="0 0 39 31" fill="none" xmlns="http://www.w3.org/2000/svg">
<path d="M38.5295 16.752C37.906 15.6725 36.744 15.0015 35.497 15.0015H34.342C34.856 14.475 35.312 14.0095 35.666 13.6505C37.1705 12.126 37.9985 10.12 37.9985 8.00146C37.9985 3.59047 34.41 0.00146484 29.9985 0.00146484H25C23.744 0.00146484 22.5585 0.298965 21.4995 0.816965C20.4405 0.298965 19.255 0.00146484 17.9985 0.00146484H13C8.589 0.00146484 5 3.59047 5 8.00146C5 10.117 5.83 12.123 7.3365 13.6505C7.442 13.7575 7.56 13.877 7.682 14.0015H3C1.3455 14.0015 0 15.347 0 17.0015V25.0015C0 26.656 1.3455 28.0015 3 28.0015H8.9985C9.3145 28.0015 9.6185 27.95 9.9045 27.859L17.184 29.842L17.2045 29.847L17.2255 29.8525C17.621 29.951 18.029 30.0015 18.4365 30.0015H23.4355C24.429 30.0015 25.3905 29.7095 26.2165 29.157L26.228 29.149L26.24 29.1405L37.3315 21.4835C38.0975 21.013 38.6455 20.2795 38.879 19.408C39.121 18.5045 38.997 17.5615 38.5295 16.752Z" fill="black"/>
<path fill-rule="evenodd" clip-rule="evenodd" d="M4.00098 26.0016H3.00098C2.44898 26.0016 2.00098 25.5536 2.00098 25.0016V17.0015C2.00098 16.4495 2.44898 16.0015 3.00098 16.0015H4.00098C4.55299 16.0015 5.00099 16.4495 5.00099 17.0015V25.0016C5.00099 25.5536 4.55299 26.0016 4.00098 26.0016ZM31.7996 17.752C32.2136 18.4695 31.9681 19.387 31.2506 19.801L20.1066 27.4946C19.4025 27.9661 18.5325 28.1171 17.711 27.9121L7.29949 25.0761C7.10149 25.0266 6.89799 25.0016 6.69399 25.0016H6.00099V17.0015H8.41101C8.79901 17.0015 9.18199 17.092 9.52899 17.2655L14.4725 19.7375C14.8195 19.911 15.2025 20.0015 15.5905 20.0015H20.5015C21.33 20.0015 22.0011 20.6735 22.0011 21.5015C22.0011 22.3295 21.33 23.0016 20.5015 23.0016C20.497 23.0016 20.4926 23 20.4881 23H12.501C12.225 23 12.001 23.2235 12.001 23.5C12.001 23.776 12.225 24 12.501 24H20.4151L20.4191 24.0005L20.4851 24.001C21.5046 24.0105 22.4611 23.4125 22.8216 22.459C22.9851 22.028 23.0291 21.6035 22.9811 21.2065C22.9566 21.006 23.0601 20.812 23.2381 20.716L29.7506 17.2025C30.4681 16.7885 31.3851 17.034 31.7996 17.752ZM15.2955 18.967C12.962 16.5545 10.139 13.6425 8.76101 12.246C7.68201 11.1525 7.001 9.662 7.001 8.00149C7.001 4.68948 9.68901 2.00146 13.001 2.00146C16.3165 2.00146 19.001 4.68948 19.001 8.00149C19.001 4.68948 21.6891 2.00146 25.0011 2.00146C28.3166 2.00146 31.0011 4.68948 31.0011 8.00149C31.0011 9.662 30.3236 11.1525 29.2451 12.246C27.7456 13.7655 24.5366 17.076 22.107 19.588C21.6725 19.223 21.1121 19.002 20.5011 19.002L15.5905 19.0015C15.4915 19.0015 15.3925 18.987 15.2955 18.967Z" fill="white"/>
</svg>
