<svg width="55" height="31" viewBox="0 0 55 31" fill="none" xmlns="http://www.w3.org/2000/svg">
<path d="M47.5295 17.2515C46.906 16.172 45.744 15.501 44.497 15.501H43.6015C43.871 14.467 44.0135 13.3985 43.9975 12.321C43.8995 5.80348 38.5185 0.500977 32.0015 0.500977C31.9405 0.500977 26.8815 0.501477 26.82 0.502477C20.204 0.601477 14.902 6.06498 15.0015 12.681C15.0105 13.2965 15.0705 13.9035 15.1725 14.501H12C10.3455 14.501 9 15.8465 9 17.501V25.501C9 27.1555 10.3455 28.501 12 28.501H17.9985C18.3145 28.501 18.6185 28.4495 18.9045 28.3585L26.184 30.3415C26.1975 30.345 26.2115 30.3485 26.2255 30.352C26.621 30.4505 27.029 30.501 27.4365 30.501H32.4355C33.429 30.501 34.3905 30.209 35.2165 29.6565C35.2245 29.651 35.232 29.6455 35.24 29.64L46.3315 21.983C47.0975 21.5125 47.6455 20.779 47.879 19.9075C48.121 19.004 47.997 18.061 47.5295 17.2515Z" fill="black"/>
<path fill-rule="evenodd" clip-rule="evenodd" d="M13.0007 26.5003H12.0007C11.4487 26.5003 11.0007 26.0523 11.0007 25.5003V17.5002C11.0007 16.9482 11.4487 16.5002 12.0007 16.5002H13.0007C13.5527 16.5002 14.0007 16.9482 14.0007 17.5002V25.5003C14.0007 26.0523 13.5527 26.5003 13.0007 26.5003ZM40.7999 18.2507C41.2139 18.9682 40.9684 19.8857 40.2509 20.2997L29.1063 27.9932C28.4023 28.4648 27.5323 28.6158 26.7108 28.4108L16.2992 25.5748C16.1012 25.5253 15.8977 25.5003 15.6937 25.5003H15.0007V17.5002H17.4108C17.7988 17.5002 18.1817 17.5907 18.5287 17.7642L23.4723 20.2362C23.8193 20.4097 24.2023 20.5002 24.5903 20.5002H29.5013C30.3298 20.5002 31.0008 21.1722 31.0008 22.0002C31.0008 22.8282 30.3298 23.4997 29.5013 23.4997C29.4968 23.4997 29.4923 23.4987 29.4878 23.4987H21.5008C21.2248 23.4987 21.0008 23.7222 21.0008 23.9987C21.0008 24.2747 21.2248 24.4987 21.5008 24.4987H29.4148L29.4188 24.4992L29.4848 24.4997C30.5043 24.5092 31.4608 23.9112 31.8213 22.9577C31.9848 22.5267 32.0288 22.1022 31.9808 21.7052C31.9563 21.5047 32.0598 21.3107 32.2378 21.2147L38.7508 17.7012C39.4683 17.2872 40.3854 17.5327 40.7999 18.2507ZM18.9763 16.8697C18.6228 16.6927 18.2383 16.5787 17.8458 16.5292C17.3223 15.3407 17.0228 14.0302 17.0023 12.6502C16.9193 7.12818 21.3288 2.58414 26.8513 2.50114C32.3733 2.41864 36.9168 6.82816 36.9998 12.3502C37.0358 14.7262 36.2358 16.9182 34.8773 18.6547L31.7633 20.3347C31.6703 20.3842 31.5843 20.4427 31.5063 20.5087C31.0503 19.8972 30.3213 19.5007 29.5013 19.5007L24.5908 19.5002C24.3588 19.5002 24.1268 19.4452 23.9198 19.3417L18.9763 16.8697ZM25.9888 17.5002H28.2898V16.3527C28.5993 16.2657 28.8788 16.1487 29.1283 16.0002C29.3778 15.8517 29.5908 15.6747 29.7663 15.4692C29.9418 15.2637 30.0768 15.0352 30.1718 14.7842C30.2663 14.5332 30.3138 14.2612 30.3138 13.9692C30.3138 13.4167 30.1658 12.9687 29.8703 12.6237C29.5743 12.2792 29.1168 12.0107 28.4978 11.8187L27.2643 11.4282C27.1303 11.3872 27.0033 11.3447 26.8828 11.3017C26.7628 11.2587 26.6588 11.2102 26.5713 11.1577C26.4833 11.1052 26.4143 11.0482 26.3633 10.9867C26.3123 10.9252 26.2868 10.8532 26.2868 10.7707C26.2868 10.6247 26.3483 10.5107 26.4703 10.4282C26.5928 10.3462 26.7673 10.3052 26.9938 10.3052C27.1743 10.3052 27.3333 10.3302 27.4718 10.3807C27.6108 10.4307 27.7283 10.4992 27.8253 10.5862C27.9228 10.6727 27.9968 10.7767 28.0473 10.8977C28.0983 11.0187 28.1258 11.1637 28.1303 11.3327H30.5008V9.27119H29.2533C29.1283 9.17519 28.9853 9.08619 28.8233 9.00419C28.6618 8.92169 28.4838 8.84867 28.2898 8.78467V7.50018H25.9888V8.66819C25.6838 8.72769 25.4033 8.81767 25.1468 8.93867C24.8903 9.05967 24.6698 9.21416 24.4848 9.40116C24.3003 9.58816 24.1568 9.80867 24.0553 10.0622C23.9538 10.3157 23.9028 10.6017 23.9028 10.9217C23.9028 11.2457 23.9523 11.5302 24.0518 11.7742C24.1513 12.0187 24.2863 12.2297 24.4573 12.4077C24.6283 12.5857 24.8278 12.7357 25.0568 12.8562C25.2853 12.9772 25.5293 13.0767 25.7878 13.1547L27.0768 13.5447C27.1693 13.5722 27.2628 13.6052 27.3578 13.6442C27.4523 13.6827 27.5368 13.7272 27.6108 13.7777C27.6848 13.8277 27.7448 13.8837 27.7908 13.9457C27.8373 14.0072 27.8603 14.0742 27.8603 14.1472C27.8603 14.3022 27.7978 14.4282 27.6733 14.5242C27.5483 14.6197 27.3658 14.6677 27.1253 14.6677C26.9223 14.6677 26.7433 14.6402 26.5883 14.5857C26.4338 14.5312 26.3028 14.4542 26.1968 14.3562C26.0908 14.2582 26.0098 14.1417 25.9543 14.0072C25.8988 13.8722 25.8713 13.7227 25.8713 13.5582H23.5008V15.6197H24.7203C24.8868 15.7937 25.0773 15.9397 25.2923 16.0582C25.5073 16.1772 25.7393 16.2727 25.9888 16.3457V17.5002Z" fill="white"/>
</svg>
