<svg width="55" height="30" viewBox="0 0 55 30" fill="none" xmlns="http://www.w3.org/2000/svg">
<path d="M46.5295 16.7507C45.906 15.6712 44.744 15.0002 43.497 15.0002H41.3185C40.539 13.3397 39.1405 12.0547 37.415 11.4277C38.404 10.2207 38.9985 8.67874 38.9985 7.00024C38.9985 3.14024 35.8585 0.000244141 31.9985 0.000244141H27C23.14 0.000244141 20 3.14024 20 7.00024C20 8.68274 20.597 10.2277 21.59 11.4362C20.2535 11.9327 19.1055 12.8377 18.288 14.0002H11C9.3455 14.0002 8 15.3457 8 17.0002V25.0002C8 26.6547 9.3455 28.0002 11 28.0002H16.9985C17.3145 28.0002 17.6185 27.9487 17.9045 27.8577L25.184 29.8407C25.1975 29.8442 25.2115 29.8477 25.2255 29.8512C25.621 29.9497 26.029 30.0002 26.4365 30.0002H31.4355C32.429 30.0002 33.3905 29.7082 34.2165 29.1557C34.2245 29.1502 34.232 29.1447 34.24 29.1392L45.3315 21.4822C46.0975 21.0117 46.6455 20.2782 46.879 19.4067C47.121 18.5032 46.997 17.5602 46.5295 16.7507Z" fill="black"/>
<path fill-rule="evenodd" clip-rule="evenodd" d="M32.0011 7.00027C32.0011 9.76128 29.7626 12.0003 27.001 12.0003C24.2395 12.0003 22.001 9.76128 22.001 7.00027C22.001 4.23925 24.2395 2.00024 27.001 2.00024C29.7626 2.00024 32.0011 4.23925 32.0011 7.00027ZM12.001 26.0003H11.001C10.449 26.0003 10.001 25.5523 10.001 25.0003V17.0003C10.001 16.4483 10.449 16.0003 11.001 16.0003H12.001C12.553 16.0003 13.001 16.4483 13.001 17.0003V25.0003C13.001 25.5523 12.553 26.0003 12.001 26.0003ZM39.8001 17.7508C40.2141 18.4683 39.9686 19.3858 39.2511 19.7998L28.1065 27.4934C27.4025 27.9649 26.5325 28.1158 25.711 27.9108L15.2995 25.0748C15.1015 25.0253 14.898 25.0003 14.694 25.0003H14.001V17.0003H16.411C16.799 17.0003 17.182 17.0908 17.529 17.2643L22.4725 19.7363C22.8195 19.9098 23.2025 20.0003 23.5905 20.0003H28.5015C29.33 20.0003 30.0011 20.6723 30.0011 21.5003C30.0011 22.3283 29.33 22.9998 28.5015 22.9998C28.497 22.9998 28.4926 22.9988 28.4881 22.9988H20.501C20.225 22.9988 20.001 23.2223 20.001 23.4988C20.001 23.7748 20.225 23.9988 20.501 23.9988H28.4151L28.4191 23.9993L28.4851 23.9998C29.5046 24.0093 30.4611 23.4113 30.8216 22.4578C30.9851 22.0268 31.0291 21.6023 30.9811 21.2053C30.9566 21.0048 31.0601 20.8108 31.2381 20.7148L37.7511 17.2013C38.4686 16.7873 39.3856 17.0328 39.8001 17.7508ZM22.9195 18.8418L19.1165 16.9393C19.603 14.6878 21.604 12.9998 24.001 12.9998H30.0011C32.6141 12.9998 34.7556 15.0053 34.9791 17.5603L30.7636 19.8343C30.6706 19.8843 30.5846 19.9428 30.5066 20.0088C30.0501 19.3968 29.3215 19.0003 28.5015 19.0003L23.5905 18.9998C23.359 18.9998 23.127 18.9453 22.9195 18.8418Z" fill="white"/>
</svg>
