<svg width="55" height="30" viewBox="0 0 55 30" fill="none" xmlns="http://www.w3.org/2000/svg">
<path d="M22.0137 27.7879C22.4874 28.2785 22.8738 28.6788 23.1416 28.9564L23.5587 29.3888C23.9356 29.7795 24.4552 30.0004 24.9981 30.0005C25.0823 30.0005 25.1658 29.9952 25.2484 29.9848C25.3308 29.9952 25.4142 30.0005 25.4981 30.0005C25.5535 30.0005 25.6087 29.9982 25.6635 29.9937C25.7123 29.9965 25.7615 29.9981 25.8109 29.9985C25.8179 29.9986 25.8248 29.9986 25.8317 29.9986H25.9108C25.9398 29.9998 25.9689 30.0005 25.9981 30.0005C26.0274 30.0005 26.0566 29.9999 26.0858 29.9986H26.4108C26.4398 29.9998 26.4689 30.0005 26.4981 30.0005C26.5274 30.0005 26.5566 29.9999 26.5858 29.9986H26.9108C26.9398 29.9998 26.9689 30.0005 26.998 30.0005C27.0273 30.0005 27.0566 29.9999 27.0858 29.9986H27.4107C27.4397 29.9998 27.4688 30.0005 27.498 30.0005C27.5273 30.0005 27.5566 29.9999 27.5857 29.9986H27.9107C27.9397 29.9998 27.9688 30.0005 27.998 30.0005C28.0273 30.0005 28.0565 29.9999 28.0857 29.9986H28.4107C28.4397 29.9998 28.4688 30.0005 28.4979 30.0005C28.5272 30.0005 28.5565 29.9999 28.5857 29.9986H28.9107C28.9397 29.9998 28.9687 30.0005 28.9979 30.0005C29.0272 30.0005 29.0565 29.9999 29.0856 29.9986H29.4106C29.4396 29.9998 29.4687 30.0005 29.4979 30.0005C29.5272 30.0005 29.5564 29.9999 29.5856 29.9986H29.9106C29.9396 29.9998 29.9687 30.0005 29.9978 30.0005C30.0272 30.0005 30.0564 29.9999 30.0856 29.9986H44.1639C45.7286 29.9986 46.997 28.7301 46.997 27.1654C46.997 23.5765 44.8154 20.4971 41.706 19.1811C41.9169 18.8866 42.0977 18.569 42.2438 18.2329C43.0251 17.4315 43.7079 16.7339 44.2257 16.2092C45.919 14.4933 46.9969 12.1343 46.9969 9.49986C46.9969 4.25651 42.7477 0.000488281 37.4976 0.000488281C37.414 0.000488281 37.3307 0.0015682 37.2477 0.00371492C37.1646 0.00156832 37.0812 0.000488281 36.9976 0.000488281C36.914 0.000488281 36.8308 0.00156808 36.7477 0.00371444C36.6646 0.00156808 36.5813 0.000488281 36.4976 0.000488281C36.4141 0.000488281 36.3308 0.0015682 36.2478 0.0037148C36.1647 0.0015682 36.0813 0.000488281 35.9977 0.000488281C35.9141 0.000488281 35.8308 0.00156808 35.7478 0.00371456C35.6647 0.0015682 35.5813 0.000488281 35.4977 0.000488281C35.4142 0.000488281 35.3309 0.0015682 35.2478 0.0037148C35.1647 0.0015682 35.0813 0.000488281 34.9977 0.000488281C34.9142 0.000488281 34.8309 0.0015682 34.7479 0.00371468C34.6648 0.0015682 34.5814 0.000488281 34.4978 0.000488281C34.4142 0.000488281 34.3309 0.0015682 34.2479 0.00371468C34.1648 0.0015682 34.0814 0.000488281 33.9978 0.000488281C33.9142 0.000488281 33.8309 0.00156808 33.7479 0.00371468C33.6648 0.00156808 33.5814 0.000488281 33.4978 0.000488281C33.4143 0.000488281 33.331 0.0015682 33.2479 0.00371468C33.1648 0.0015682 33.0815 0.000488281 32.9978 0.000488281C32.9143 0.000488281 32.831 0.00156808 32.748 0.00371456C32.6734 0.0017879 32.5986 0.00072062 32.5236 0.000522256C32.515 0.000499606 32.5064 0.000488281 32.4979 0.000488281C30.6642 0.000488281 28.9515 0.520693 27.4994 1.42149C26.0473 0.520719 24.3341 0.000488281 22.4986 0.000488281C22.415 0.000488281 22.3317 0.00156832 22.2487 0.00371492C22.1656 0.00156832 22.0822 0.000488281 21.9986 0.000488281C21.9151 0.000488281 21.8318 0.00156808 21.7487 0.00371444C21.6656 0.00156808 21.5823 0.000488281 21.4986 0.000488281C21.4151 0.000488281 21.3318 0.0015682 21.2488 0.0037148C21.1657 0.0015682 21.0823 0.000488281 20.9987 0.000488281C20.9151 0.000488281 20.8318 0.0015682 20.7488 0.00371456C20.6657 0.0015682 20.5823 0.000488281 20.4987 0.000488281C20.4152 0.000488281 20.3319 0.0015682 20.2488 0.0037148C20.1657 0.0015682 20.0824 0.000488281 19.9987 0.000488281C19.9152 0.000488281 19.8319 0.00156808 19.7489 0.00371456C19.6658 0.00156808 19.5824 0.000488281 19.4988 0.000488281C19.4152 0.000488281 19.3319 0.00156808 19.2489 0.00371468C19.1658 0.00156808 19.0824 0.000488281 18.9988 0.000488281C18.9152 0.000488281 18.832 0.00156808 18.7489 0.00371468C18.6658 0.00156808 18.5824 0.000488281 18.4988 0.000488281C18.4153 0.000488281 18.332 0.0015682 18.249 0.00371468C18.1658 0.0015682 18.0825 0.000488281 17.9988 0.000488281C17.9153 0.000488281 17.832 0.0015682 17.749 0.00371468C17.6748 0.00179946 17.6005 0.000733376 17.5259 0.000525832C17.5169 0.000500798 17.5079 0.000488281 17.4989 0.000488281C12.2547 0.000488281 7.99951 4.25564 7.99951 9.49986C7.99951 12.1375 9.08495 14.4958 10.7758 16.2092C12.3814 17.8365 15.5738 21.1279 18.372 24.0199C19.7695 25.4643 21.0663 26.8066 22.0137 27.7879Z" fill="black"/>
<path d="M32.498 2.00049C28.3583 2.00049 24.9985 5.36026 24.9985 9.49999C24.9985 5.36026 21.6437 2.00049 17.499 2.00049C13.3593 2.00049 9.99951 5.36026 9.99951 9.49999C9.99951 11.5748 10.851 13.4382 12.1994 14.8046C14.5178 17.1543 20.1089 22.9366 23.0753 26.0082C23.4869 22.9243 25.5203 20.3533 28.2898 19.1812C27.6827 18.3335 27.3253 17.2948 27.3253 16.1727C27.3253 13.3158 29.6412 10.9999 32.4981 10.9999C34.973 10.9999 37.0419 12.738 37.5509 15.0601L37.8026 14.8046C39.1511 13.4382 39.9975 11.5748 39.9975 9.49999C39.9975 5.36026 36.6427 2.00049 32.498 2.00049Z" fill="white"/>
<path d="M29.3252 16.1727C29.3252 14.4203 30.7457 12.9998 32.4981 12.9998C34.2504 12.9998 35.6709 14.4203 35.6709 16.1727C35.6709 17.925 34.2504 19.3455 32.4981 19.3455C30.7457 19.3455 29.3252 17.925 29.3252 16.1727Z" fill="white"/>
<path d="M24.9986 27.1656C24.9986 23.4839 27.9831 20.4993 31.6648 20.4993H33.3314C37.013 20.4993 39.9976 23.4839 39.9976 27.1656C39.9976 27.6258 39.6245 27.9988 39.1643 27.9988H25.8318C25.3716 27.9988 24.9986 27.6258 24.9986 27.1656Z" fill="white"/>
</svg>
