<svg width="24" height="20" viewBox="0 0 24 20" fill="none" xmlns="http://www.w3.org/2000/svg">
<path d="M5.94749 1.73829C6.35366 1.75131 6.74592 1.58985 7.02343 1.29298C7.77917 0.483076 8.78202 0.0494794 9.80009 0H13.4668C13.792 0.0104167 14.1162 0.0598962 14.4319 0.148438C15.1263 0.34245 15.7791 0.723962 16.31 1.29298C16.5563 1.556 16.893 1.71355 17.2496 1.73569L17.3533 1.73829H17.386C19.743 1.65886 21.6752 3.59117 21.5955 5.94795C21.5818 6.3542 21.7443 6.74613 22.0412 7.02348C23.7642 8.63416 23.7642 11.3659 22.0412 12.9766C21.7443 13.254 21.5818 13.6472 21.5955 14.0535C21.675 16.405 19.7505 18.3347 17.3997 18.2618C17.3951 18.2618 17.3906 18.2618 17.386 18.2618H17.3533L17.2496 18.2644C17.108 18.2735 16.9695 18.3035 16.8385 18.353C16.7862 18.3725 16.7351 18.3959 16.6854 18.422C16.5964 18.4689 16.5109 18.5261 16.4331 18.5912C16.39 18.6277 16.3489 18.6668 16.31 18.7084C15.5397 19.5327 14.505 19.9637 13.4668 20.0001C12.2445 20.0001 11.0224 20.0001 9.80009 20.0001C9.45451 19.9819 9.11108 19.9194 8.77807 19.8139C8.12992 19.6108 7.52274 19.2423 7.02343 18.7084C6.79796 18.4676 6.49669 18.3139 6.17381 18.2722C6.09931 18.2631 6.02366 18.2592 5.94749 18.2618C5.80019 18.267 5.65452 18.2644 5.51093 18.254C3.35678 18.0991 1.66325 16.2631 1.73791 14.0535C1.75167 13.6472 1.58919 13.254 1.29227 12.9766C-0.430758 11.3659 -0.430758 8.63416 1.29227 7.02348C1.58919 6.74613 1.75167 6.3542 1.73791 5.94795C1.65828 3.59117 3.59042 1.65886 5.94749 1.73829Z" fill="black"/>
<path fill-rule="evenodd" clip-rule="evenodd" d="M7.99735 2.20336C9.08072 1.04419 10.919 1.04419 12.0023 2.20336C12.5427 2.7815 13.3065 3.09789 14.0974 3.07117C15.6831 3.01758 16.983 4.31741 16.9294 5.90313C16.9027 6.69401 17.219 7.45786 17.7972 7.9982C18.9564 9.08158 18.9564 10.9198 17.7972 12.0032C17.219 12.5435 16.9027 13.3074 16.9294 14.0983C16.983 15.684 15.6831 16.9838 14.0974 16.9302C13.3065 16.9035 12.5427 17.2199 12.0023 17.798C10.919 18.9572 9.08072 18.9572 7.99735 17.798C7.45701 17.2199 6.69316 16.9035 5.90227 16.9302C4.31656 16.9838 3.01672 15.684 3.07031 14.0983C3.09704 13.3074 2.78064 12.5435 2.2025 12.0032C1.04334 10.9198 1.04334 9.08158 2.2025 7.9982C2.78064 7.45786 3.09704 6.69401 3.07031 5.90313C3.01672 4.31741 4.31656 3.01758 5.90227 3.07117C6.69316 3.09789 7.45701 2.7815 7.99735 2.20336ZM10.0002 8.44928C10.0002 7.28163 10.8962 6.33398 12.0002 6.33398C13.1056 6.33398 14.0003 7.28163 14.0003 8.44928C14.0003 9.03451 13.7746 9.56009 13.4149 9.94549C12.5538 10.8683 10.0002 13.6676 10.0002 13.6676C10.0002 13.6676 7.44754 10.8682 6.58672 9.94549C6.2271 9.56009 6.00003 9.03451 6.00003 8.44928C6.00003 7.28163 6.89606 6.33398 8.0001 6.33398C9.10546 6.33398 10.0002 7.28163 10.0002 8.44928Z" fill="white"/>
</svg>
