<svg width="43" height="13" viewBox="0 0 43 13" fill="none" xmlns="http://www.w3.org/2000/svg">
<path d="M0.640988 7.87366C0.305245 8.2314 0.0996094 8.7127 0.0996094 9.24203V10.7719C0.0996094 11.8765 0.99504 12.7719 2.09961 12.7719H9.87406C9.90686 12.7719 9.93948 12.7711 9.9719 12.7696C10.4151 12.8757 10.8688 12.9227 11.3236 12.9227C12.6569 12.9227 13.9902 12.9227 15.3236 12.9227C15.6544 12.9227 15.9846 12.9049 16.3021 12.8591C16.4636 12.8376 16.6245 12.8087 16.7841 12.7719H24.9914C25.3529 12.8477 25.7211 12.8836 26.0919 12.8836C27.4252 12.8836 28.7585 12.8836 30.0919 12.8836C30.4215 12.8836 30.7475 12.8461 31.0669 12.7719H31.8834C32.2847 12.8701 32.6917 12.9115 33.0936 12.9115C34.4269 12.9115 35.7602 12.9115 37.0936 12.9115C37.3099 12.9115 37.5341 12.8976 37.7608 12.8629C37.9128 12.842 38.0635 12.8117 38.2125 12.7719H40.9016C42.0061 12.7719 42.9016 11.8765 42.9016 10.7719V9.24203C42.9016 8.5985 42.5976 8.02595 42.1255 7.66011V7.13705C42.1255 6.53127 42.0353 5.89266 41.7733 5.28697C41.5391 4.73717 41.1856 4.23145 40.6918 3.82753C40.2233 3.44059 39.6897 3.18912 39.1339 3.04655C38.6419 2.91595 38.1367 2.85898 37.6296 2.85898C36.9629 2.85898 36.2964 2.85898 35.6296 2.85898C35.4618 2.85898 35.2947 2.86528 35.1286 2.87804C35.1084 2.87646 35.0882 2.87499 35.0679 2.87362V2.08398C35.0679 0.979415 34.1725 0.0839844 33.0679 0.0839844H26.5386C25.434 0.0839844 24.5386 0.979415 24.5386 2.08398V3.01619C24.1531 2.92221 23.7585 2.88132 23.3694 2.88132C22.0361 2.88132 20.7028 2.88132 19.3694 2.88132C19.0299 2.88132 18.6937 2.91627 18.3636 2.9874H16.8518C16.3206 2.81062 15.7704 2.73615 15.2231 2.73615C13.8897 2.73615 12.5564 2.73615 11.2231 2.73615C10.6665 2.73615 10.1143 2.81556 9.58155 2.99167C9.35181 2.98883 9.12714 2.9874 8.90756 2.9874C8.86336 2.9874 8.81908 2.98806 8.77474 2.98939C8.74491 2.98807 8.71492 2.9874 8.68477 2.9874H2.11078C1.00621 2.9874 0.110776 3.88284 0.110776 4.9874V6.51728C0.110776 7.04072 0.311858 7.51719 0.640988 7.87366Z" fill="black"/>
<path d="M7.39277 7.09238H5.8238V6.49495C5.67119 6.49495 5.5316 6.50612 5.40504 6.52845C5.27848 6.54706 5.16681 6.58056 5.07003 6.62895C4.97697 6.67734 4.89694 6.74435 4.82994 6.82996C4.76666 6.91557 4.72199 7.02166 4.69594 7.14822V9.24203H5.87406V10.7719H2.09961V9.24203H2.96505V6.51728H2.11078V4.9874H4.68477V5.395C4.84855 5.26472 5.03281 5.16422 5.23754 5.09349C5.44227 5.02277 5.66561 4.9874 5.90756 4.9874C6.15323 4.9874 6.40635 4.98927 6.66691 4.99299C6.92748 4.99671 7.16943 4.99857 7.39277 4.99857V7.09238Z" fill="white"/>
<path d="M9.84393 8.24259L9.86068 8.41567C9.90162 8.58318 9.97048 8.73021 10.0673 8.85677C10.1678 8.98333 10.285 9.08942 10.419 9.17503C10.553 9.26064 10.7019 9.32579 10.8657 9.37045C11.0295 9.4114 11.1951 9.43187 11.3626 9.43187C11.5301 9.43187 11.6883 9.42257 11.8372 9.40395C11.9899 9.38162 12.1369 9.3537 12.2783 9.3202C12.4198 9.28298 12.5575 9.24203 12.6915 9.19736C12.8255 9.14897 12.9614 9.09872 13.0991 9.04661L13.7133 10.1912C13.5011 10.3215 13.3057 10.4332 13.127 10.5262C12.9521 10.6156 12.7753 10.69 12.5966 10.7496C12.4179 10.8091 12.2281 10.8519 12.0271 10.878C11.8261 10.9078 11.5916 10.9227 11.3236 10.9227C10.821 10.9227 10.3744 10.8408 9.98351 10.677C9.59267 10.5095 9.26324 10.2843 8.99523 10.0014C8.73095 9.71849 8.52808 9.3872 8.38663 9.00753C8.24891 8.62785 8.18004 8.22584 8.18004 7.80149C8.18004 7.37714 8.25263 6.97885 8.3978 6.60662C8.54669 6.23439 8.75514 5.91054 9.02315 5.63509C9.29116 5.35592 9.61128 5.1363 9.98351 4.97624C10.3557 4.81618 10.7689 4.73615 11.2231 4.73615C11.6772 4.73615 12.0792 4.81246 12.4291 4.96507C12.7827 5.11396 13.0805 5.32241 13.3224 5.59042C13.5644 5.85471 13.7505 6.16738 13.8808 6.52845C14.0111 6.8858 14.0818 7.27106 14.093 7.68424C14.1041 7.77729 14.1097 7.87035 14.1097 7.96341C14.1134 8.05275 14.1116 8.14581 14.1041 8.24259H9.84393ZM11.1784 6.13202C10.9699 6.13202 10.7913 6.15808 10.6424 6.21019C10.4972 6.25858 10.3744 6.32745 10.2739 6.41678C10.1734 6.50239 10.0933 6.60104 10.0338 6.71271C9.97421 6.82438 9.92768 6.94163 9.89418 7.06447H12.3118C12.2858 6.93791 12.2486 6.81879 12.2002 6.70712C12.1518 6.59545 12.0848 6.49681 11.9992 6.4112C11.9135 6.32558 11.8037 6.25858 11.6697 6.21019C11.5394 6.15808 11.3757 6.13202 11.1784 6.13202Z" fill="white"/>
<path d="M19.7211 7.44415C19.7211 7.1203 19.6355 6.86718 19.4643 6.68479C19.2931 6.49867 19.066 6.40561 18.7831 6.40561C18.5895 6.40561 18.3941 6.44842 18.1968 6.53403C17.9996 6.61965 17.8079 6.77971 17.6217 7.01422V9.24203H18.5598V10.7719H14.964V9.24203H15.8127V6.51728H14.9752V4.9874H17.6106V5.4955C17.8525 5.30566 18.1224 5.15677 18.4202 5.04882C18.7217 4.93715 19.0381 4.88132 19.3694 4.88132C20.0655 4.88132 20.6015 5.07674 20.9774 5.46759C21.3534 5.85471 21.5414 6.42236 21.5414 7.17055V9.24203H22.3621V10.7719H19.7211V7.44415Z" fill="white"/>
<path d="M26.5386 2.08398H29.0679V9.24203H30.1958V10.7719H27.3482V10.5486C27.1472 10.6528 26.9406 10.7347 26.7284 10.7942C26.52 10.8538 26.3078 10.8836 26.0919 10.8836C25.649 10.8836 25.2414 10.8054 24.8691 10.6491C24.5006 10.489 24.1824 10.2713 23.9143 9.99581C23.6501 9.72035 23.4435 9.39837 23.2946 9.02986C23.1457 8.65763 23.0712 8.25934 23.0712 7.83499C23.0712 7.41064 23.1438 7.01608 23.289 6.65129C23.4379 6.28278 23.6426 5.96266 23.9032 5.69093C24.1675 5.4192 24.482 5.20516 24.8468 5.04882C25.2153 4.89249 25.6192 4.81432 26.0584 4.81432C26.3004 4.81432 26.5274 4.83851 26.7396 4.8869C26.9518 4.93157 27.1546 4.99671 27.3482 5.08232V3.61386H26.5386V2.08398ZM26.1868 9.34254C26.4325 9.33509 26.654 9.27181 26.8513 9.1527C27.0523 9.03358 27.2179 8.87724 27.3482 8.68368V6.98071C27.2179 6.78343 27.0486 6.63082 26.8401 6.52287C26.6354 6.4112 26.4176 6.35722 26.1868 6.36095C25.9933 6.35722 25.8109 6.39072 25.6397 6.46145C25.4721 6.53217 25.3233 6.63268 25.193 6.76296C25.0664 6.89324 24.9659 7.04958 24.8915 7.23197C24.817 7.41437 24.7798 7.62096 24.7798 7.85174C24.7798 8.0788 24.817 8.28539 24.8915 8.47151C24.9659 8.6539 25.0664 8.81024 25.193 8.94052C25.3233 9.06708 25.4721 9.16386 25.6397 9.23087C25.8109 9.29787 25.9933 9.33509 26.1868 9.34254Z" fill="white"/>
<path d="M34.4895 10.4592C34.3592 10.5411 34.2401 10.6119 34.1322 10.6714C34.0242 10.7272 33.9163 10.7719 33.8083 10.8054C33.7004 10.8426 33.5887 10.8687 33.4733 10.8836C33.3579 10.9022 33.2313 10.9115 33.0936 10.9115C32.7474 10.9115 32.4366 10.865 32.1612 10.7719C31.8895 10.6751 31.6587 10.5448 31.4688 10.3811C31.2827 10.2136 31.1394 10.0181 31.0389 9.7948C30.9384 9.56774 30.8881 9.32206 30.8881 9.05778C30.8881 8.78977 30.9384 8.54223 31.0389 8.31517C31.1431 8.08811 31.292 7.89455 31.4856 7.73449C31.6791 7.5707 31.9155 7.44415 32.1947 7.35481C32.4776 7.26175 32.7996 7.21522 33.1606 7.21522C33.4249 7.21522 33.665 7.23011 33.8809 7.25989C34.1005 7.28595 34.3034 7.31945 34.4895 7.36039V7.18172C34.4895 7.03655 34.4616 6.91185 34.4057 6.80763C34.3499 6.69968 34.2717 6.6122 34.1712 6.5452C34.0707 6.47448 33.9498 6.42423 33.8083 6.39445C33.6669 6.36095 33.5124 6.3442 33.3449 6.3442C32.995 6.3442 32.686 6.37956 32.418 6.45028C32.1537 6.51728 31.8988 6.61593 31.6531 6.74621L31.1171 5.66301C31.4967 5.40245 31.8932 5.2033 32.3064 5.06557C32.7233 4.92785 33.1643 4.85898 33.6296 4.85898C33.9907 4.85898 34.3239 4.89993 34.6291 4.98182C34.938 5.05999 35.2023 5.19027 35.4219 5.37267C35.6416 5.55134 35.8128 5.78585 35.9356 6.07619C36.0622 6.36653 36.1255 6.72015 36.1255 7.13705V9.24203H36.9016V10.7719H34.4895V10.4592ZM33.2165 9.59379C33.4807 9.59379 33.7208 9.55099 33.9367 9.46537C34.1526 9.37976 34.3369 9.27553 34.4895 9.1527V8.41567H33.1495C33.0638 8.41567 32.9801 8.4287 32.8982 8.45476C32.8163 8.48082 32.7419 8.51804 32.6749 8.56643C32.6116 8.61482 32.5595 8.67438 32.5185 8.7451C32.4813 8.81583 32.4627 8.89772 32.4627 8.99078C32.4627 9.162 32.5241 9.30531 32.6469 9.4207C32.7735 9.5361 32.9633 9.59379 33.2165 9.59379Z" fill="white"/>
</svg>
