<svg width="66" height="18" viewBox="0 0 66 18" fill="none" xmlns="http://www.w3.org/2000/svg">
<path fill-rule="evenodd" clip-rule="evenodd" d="M66 13.1449C66 14.3219 65.5281 15.451 64.6896 16.2831C63.8477 17.1154 62.7092 17.5829 61.5216 17.5829H57.0415C56.394 17.5829 55.7601 17.444 55.1806 17.1818C54.3543 17.442 53.4732 17.5829 52.5598 17.5829H48.0797C46.9055 17.5829 45.7878 17.3508 44.7671 16.9314C44.2949 17.3374 43.6781 17.5829 43.0049 17.5829H26.5795C26.3208 17.5829 26.071 17.547 25.8347 17.4793C25.3955 17.5473 24.9454 17.5829 24.487 17.5829H20.0076C18.7872 17.5829 17.626 17.3318 16.5729 16.8807C15.5192 17.3318 14.3583 17.5829 13.1386 17.5829H8.65887C3.88014 17.5829 0 13.7386 0 9.00279C0 4.26728 3.88014 0.422974 8.65887 0.422974H13.1386C14.3583 0.422974 15.5192 0.673398 16.5729 1.12553C17.626 0.673398 18.7872 0.422974 20.0076 0.422974H24.487C25.2199 0.422974 25.9317 0.513532 26.6115 0.68386C26.9636 0.516474 27.3577 0.422974 27.7741 0.422974H45.9888C46.2479 0.422974 46.4967 0.458935 46.7336 0.526282C47.1715 0.458281 47.6213 0.422974 48.0797 0.422974H52.5598C57.2375 0.422974 61.0546 4.10742 61.2134 8.70594H61.5216C62.7092 8.70594 63.8477 9.17344 64.6896 10.0055C65.5281 10.8378 66 11.9664 66 13.1433V13.1449C66 14.1254 66 14.1244 66 13.1449Z" fill="black"/>
<path fill-rule="evenodd" clip-rule="evenodd" d="M56.9253 11.3098C56.4439 11.3098 55.9812 11.5008 55.6413 11.8408C55.301 12.1812 55.1094 12.6426 55.1094 13.124V13.1253C55.1094 13.6068 55.301 14.0682 55.6413 14.4082C55.9812 14.7485 56.4439 14.9399 56.9253 14.9399C57.4067 14.9399 57.8677 14.7485 58.2093 14.4082C58.5496 14.0682 58.7395 13.6068 58.7395 13.1253V13.1234C58.7395 12.6426 58.5496 12.1812 58.2093 11.8408C57.8677 11.5008 57.4067 11.3098 56.9253 11.3098ZM19.9453 3.05969C16.6664 3.05969 14.0048 5.72157 14.0048 8.99978C14.0048 12.278 16.6664 14.9399 19.9453 14.9399C23.2235 14.9399 25.8848 12.278 25.8848 8.99978C25.8848 5.72157 23.2235 3.05969 19.9453 3.05969ZM29.4876 13.1572H30.698V14.9399H26.4619V13.1572H27.6724V3.05969H29.4876V4.75836C30.5793 3.70785 32.0743 3.05969 33.722 3.05969V4.84237C31.3849 4.84237 29.4876 6.70513 29.4876 8.99978V13.1572ZM37.2463 4.75836C38.338 3.70785 39.8321 3.05969 41.4807 3.05969V4.84237C39.1436 4.84237 37.2463 6.70513 37.2463 8.99978V13.1572H38.4564V14.9399H34.2209V13.1572H35.4311V3.05969H37.2463V4.75836ZM13.3773 12.5638C12.2882 14.0059 10.5554 14.9399 8.60566 14.9399C5.31258 14.9399 2.6394 12.278 2.6394 8.99978C2.6394 5.72157 5.31258 3.05969 8.60566 3.05969C10.5554 3.05969 12.2882 3.99271 13.3773 5.43507L11.9449 6.50494C11.1829 5.49578 9.97011 4.84237 8.60566 4.84237C6.3008 4.84237 4.42987 6.70513 4.42987 8.99978C4.42987 11.2944 6.3008 13.1572 8.60566 13.1572C9.97011 13.1572 11.1829 12.5038 11.9449 11.4946L13.3773 12.5638ZM43.9353 9.89079C44.3419 11.7575 46.0067 13.1572 47.995 13.1572C49.3548 13.1572 50.5617 12.5031 51.3211 11.4933L52.7468 12.5632C51.662 14.0059 49.9378 14.9399 47.995 14.9399C44.7164 14.9399 42.0551 12.278 42.0551 8.99978C42.0551 5.72157 44.7164 3.05969 47.995 3.05969C51.2736 3.05969 53.9352 5.72157 53.9352 8.99978H53.9319L53.9352 9.00142V9.89079H43.9353ZM19.9453 4.84237C22.2396 4.84237 24.1023 6.70513 24.1023 8.99978C24.1023 11.2944 22.2396 13.1572 19.9453 13.1572C17.6503 13.1572 15.7873 11.2944 15.7873 8.99978C15.7873 6.70513 17.6503 4.84237 19.9453 4.84237ZM52.0567 8.10811H43.9353C44.3419 6.24174 46.0067 4.84237 47.995 4.84237C49.9837 4.84237 51.6485 6.24174 52.0567 8.10811Z" fill="white"/>
</svg>
