<svg width="200" height="171" viewBox="0 0 200 171" fill="none" xmlns="http://www.w3.org/2000/svg">
<path fill-rule="evenodd" clip-rule="evenodd" d="M0 126.461V61.8713C0 57.3736 3.63801 53.7265 8.1448 53.7265H17.9005V32.2913C17.9005 27.7936 21.5566 24.1466 26.0452 24.1466H89.5385V8.14477C89.5385 3.64705 93.1946 0 97.6833 0H149.792C154.299 0 157.937 3.64705 157.937 8.14477V20.6207H191.855C194.009 20.6207 196.09 21.4787 197.611 23.0063C199.131 24.5339 200 26.6062 200 28.7655V123.203V156.91C200 157.015 200 157.122 200 157.227C200 160.218 198.552 164.289 196.018 166.828C193.466 169.373 190.027 170.805 186.425 170.805C186.045 170.805 173.231 170.805 172.851 170.805C170.878 170.805 168.959 170.378 167.204 169.578C164.706 170.374 162.027 170.805 159.258 170.805H145.683C142.136 170.805 138.751 170.095 135.656 168.81C134.226 170.052 132.362 170.805 130.317 170.805H80.543C79.7466 170.805 79.0045 170.693 78.2805 170.486C76.9593 170.696 75.5837 170.805 74.19 170.805H60.6154C56.9231 170.805 53.4118 170.038 50.2081 168.655C47.0226 170.038 43.5113 170.805 39.8009 170.805H26.2262C11.7466 170.805 0 159.046 0 144.561V126.461Z" fill="black"/>
<path fill-rule="evenodd" clip-rule="evenodd" d="M172.797 151.799C171.356 151.799 169.977 152.371 168.956 153.39C167.939 154.408 167.367 155.789 167.367 157.229C167.367 157.23 167.367 157.232 167.367 157.233C167.367 158.673 167.939 160.054 168.956 161.073C169.977 162.091 171.356 162.663 172.797 162.663C174.238 162.663 175.62 162.091 176.638 161.073C177.655 160.055 178.227 158.674 178.227 157.234C178.227 157.232 178.227 157.23 178.227 157.228C178.227 155.789 177.655 154.408 176.638 153.389C175.62 152.371 174.238 151.799 172.797 151.799ZM60.5726 126.464C50.5889 126.464 42.4804 134.574 42.4804 144.563C42.4804 154.553 50.5889 162.663 60.5726 162.663C70.5599 162.663 78.6685 154.553 78.6685 144.563C78.6685 134.574 70.5599 126.464 60.5726 126.464ZM89.5391 157.231H93.159V162.663H80.4893V157.231H84.1092V126.464H89.5391V131.641C92.8043 128.439 97.2748 126.464 102.202 126.464V131.896C95.2151 131.896 89.5391 137.572 89.5391 144.563V157.231ZM113.068 131.641C116.334 128.439 120.804 126.464 125.731 126.464V131.896C118.744 131.896 113.068 137.572 113.068 144.563V157.231H116.688V162.663H104.019V157.231H107.639V126.464H113.068V131.641ZM40.6559 155.424C37.3546 159.819 32.0985 162.663 26.1836 162.663C16.1999 162.663 8.09131 154.553 8.09131 144.563C8.09131 134.574 16.1999 126.464 26.1836 126.464C32.0985 126.464 37.3546 129.308 40.6559 133.703L36.312 136.962C34.0026 133.886 30.3247 131.896 26.1836 131.896C19.1972 131.896 13.5212 137.572 13.5212 144.563C13.5212 151.555 19.1972 157.231 26.1836 157.231C30.3247 157.231 34.0026 155.24 36.312 152.165L40.6559 155.424ZM133.271 147.279C134.513 152.967 139.584 157.231 145.64 157.231C149.781 157.231 153.459 155.239 155.772 152.162L160.113 155.421C156.811 159.818 151.555 162.663 145.64 162.663C135.657 162.663 127.548 154.553 127.548 144.563C127.548 134.574 135.657 126.464 145.64 126.464C155.628 126.464 163.736 134.574 163.736 144.563H163.729L163.736 144.57V147.279H133.271ZM60.5726 131.896C67.5627 131.896 73.2387 137.572 73.2387 144.563C73.2387 151.555 67.5627 157.231 60.5726 157.231C53.5862 157.231 47.9102 151.555 47.9102 144.563C47.9102 137.572 53.5862 131.896 60.5726 131.896ZM158.013 141.847H133.271C134.513 136.159 139.584 131.896 145.64 131.896C151.7 131.896 156.768 136.159 158.013 141.847Z" fill="white"/>
<path fill-rule="evenodd" clip-rule="evenodd" d="M11.9017 118.316V101.047H40.0446V118.316H43.8823V70.8266H25.9734V61.8721H8.06422V118.316H11.9017ZM29.8071 86.8199H11.897L11.897 91.9369H29.8071V86.8199ZM14.4561 88.0971H13.1754V90.6555H14.4561V88.0971ZM19.5763 68.2694H14.4585V73.3862H19.5763V68.2694ZM17.0178 69.5466H15.7388V72.105H17.0178V69.5466ZM31.0843 86.8199H40.0387V91.9369H31.0843V86.8199ZM32.3624 88.0971H33.6418V90.6555H32.3624V88.0971Z" fill="#B274F0"/>
<path fill-rule="evenodd" clip-rule="evenodd" d="M94.9478 61.875H59.1289V79.7839H94.9478V61.875ZM70.6457 67.6329H65.5289V72.7497H70.6457V67.6329ZM68.0863 68.9101H66.8071V71.4685H68.0863V68.9101ZM83.4359 67.6329H88.5527V70.1913H83.4359V67.6329Z" fill="#FB9C37"/>
<path d="M178.234 28.7676H176.315V49.1018H178.234V28.7676Z" fill="#88D0AC"/>
<path d="M126.438 28.7656H124.519L124.519 49.0998H126.438L126.438 28.7656Z" fill="#88D0AC"/>
<path d="M143.655 28.7676H141.735V49.1017H143.655V28.7676Z" fill="#88D0AC"/>
<path d="M160.944 28.7705H159.025V49.1047H160.944V28.7705Z" fill="#88D0AC"/>
<path d="M79.7225 33.3672H77.1641V51.6859H79.7225V33.3672Z" fill="#F3A797"/>
<path fill-rule="evenodd" clip-rule="evenodd" d="M52.8905 34.8542V50.2044H79.7502V59.16H26.0308V32.2949H79.7502V34.8542H77.1982H52.8905ZM43.9312 39.9727H34.99V45.0894H43.9312V39.9727ZM37.5421 41.2487V43.808H36.257V41.2487H37.5421Z" fill="#E84F30"/>
<path fill-rule="evenodd" clip-rule="evenodd" d="M121.757 61.8721H97.6123V8.14551H136.146V26.0513H124.472C122.97 26.0513 121.757 27.2658 121.757 28.7644V61.8721ZM110.372 50.359H104.961V54.1942H104.02V55.4721H104.961V55.4757H110.372V55.4721H111.314V54.1942H110.372V50.359ZM128.798 14.5401H123.404V18.3772H122.463V19.6568H123.404H128.798H129.757V18.3772H128.798V14.5401ZM104.961 14.5401V18.3772H104.02V19.6568H104.961H110.372H111.314V18.3772H110.372V14.5401H104.961ZM110.372 32.4495H104.961V36.2866H104.02V37.5662H104.961H110.372H111.314V36.2866H110.372V32.4495Z" fill="#C9731D"/>
<path fill-rule="evenodd" clip-rule="evenodd" d="M157.75 79.7792V70.1847C157.75 69.1657 157.352 68.1901 156.628 67.4715C155.904 66.7511 154.944 66.3476 153.913 66.3476C152.899 66.3476 151.922 66.7511 151.198 67.4715C150.492 68.1901 150.076 69.1657 150.076 70.1847V79.7792H124.501V46.6752H178.22V118.313H157.768V79.7792H157.75ZM134.094 51.792C133.243 51.792 132.429 52.1286 131.831 52.7295C131.234 53.3286 130.89 54.1413 130.89 54.9901H134.727V51.792H134.094ZM136.012 56.2698V59.4662H139.849V56.2698H136.012ZM144.972 54.9901C144.972 54.1413 144.628 53.3286 144.03 52.7295C143.433 52.1286 142.619 51.792 141.768 51.792H141.134V54.9901H144.972ZM134.727 56.2698H130.89C130.89 57.1168 131.234 57.9313 131.831 58.5304C132.429 59.1294 133.243 59.4662 134.094 59.4662H134.727V56.2698ZM139.849 51.792H136.012V54.9901H139.849V51.792ZM171.831 56.2698H167.994V59.4662H168.628C169.478 59.4662 170.293 59.1294 170.89 58.5304C171.487 57.9313 171.831 57.1168 171.831 56.2698ZM141.134 56.2698V59.4662H141.768C142.619 59.4662 143.433 59.1294 144.03 58.5304C144.628 57.9313 144.972 57.1168 144.972 56.2698H141.134ZM167.994 51.792V54.9901H171.831C171.831 54.1413 171.487 53.3286 170.89 52.7295C170.293 52.1286 169.478 51.792 168.628 51.792H167.994ZM166.076 51.792C165.225 51.792 164.41 52.1286 163.813 52.7295C163.216 53.3286 162.872 54.1413 162.872 54.9901H166.709V51.792H166.076ZM166.709 56.2698H162.872C162.872 57.1168 163.216 57.9313 163.813 58.5304C164.41 59.1294 165.225 59.4662 166.076 59.4662H166.709V56.2698ZM178.239 28.7676V31.3251H124.501V28.7676H178.239ZM153.279 72.8996C153.46 72.8996 153.623 72.9665 153.732 73.0878C153.858 73.2072 153.931 73.3701 153.931 73.5403C153.931 73.7086 153.858 73.8715 153.732 73.9928C153.623 74.1122 153.46 74.1792 153.279 74.1792H152.012C151.831 74.1792 151.668 74.1122 151.56 73.9928C151.433 73.8715 151.361 73.7086 151.361 73.5403C151.361 73.3701 151.433 73.2072 151.56 73.0878C151.668 72.9665 151.831 72.8996 152.012 72.8996H153.279Z" fill="#12A159"/>
<path fill-rule="evenodd" clip-rule="evenodd" d="M97.6338 64.5889H100.186V67.1481H102.756V69.7073H105.308V72.2648H107.86V74.8223H110.43V77.3798H112.982V79.9408H115.552V82.4983H133.453V118.317H119.064V108.406C119.064 106.462 117.489 104.887 115.552 104.887C113.598 104.887 112.023 106.462 112.023 108.406V118.317H97.6338V64.5889ZM104.675 92.0947V95.9317H103.389V97.2114H104.675V97.2132H109.779V97.2114H111.064V95.9317H109.779V92.0947C109.779 91.4177 109.525 90.7661 109.037 90.2865C108.566 89.8068 107.914 89.5372 107.227 89.5372C106.557 89.5372 105.905 89.8068 105.417 90.2865C104.946 90.7661 104.675 91.4177 104.675 92.0947ZM105.941 92.0928C105.941 91.3869 106.521 90.815 107.227 90.815V94.6521H105.941V92.0928ZM127.697 95.9317H126.412V92.0964C126.412 91.4177 126.141 90.7661 125.67 90.2865C125.181 89.8068 124.53 89.5372 123.86 89.5372C122.448 89.5372 121.29 90.6828 121.29 92.0964V95.9317H120.023V97.2114H121.29V97.2132H126.412V97.2114H127.697V95.9317ZM123.86 90.815V94.6521H122.575V92.0928C122.575 91.3869 123.154 90.815 123.86 90.815ZM117.018 111.387C117.362 111.387 117.652 111.673 117.652 112.028C117.652 112.381 117.362 112.666 117.018 112.666C116.656 112.666 116.367 112.381 116.367 112.028C116.367 111.673 116.656 111.387 117.018 111.387Z" fill="#FBCE37"/>
<path fill-rule="evenodd" clip-rule="evenodd" d="M82.4357 82.4971V118.316H67.7389V104.884H60.6981V118.316H46.6167V82.4971H82.4357ZM51.7389 89.5342V96.5694H58.7796V89.5342H51.7389ZM56.2276 90.8102H57.4945V95.288H56.2276V90.8102ZM76.68 89.5342H69.6574V96.5694H76.68V89.5342ZM75.4131 90.8102V95.288H74.128V90.8102H75.4131ZM64.8791 110.749V112.028H62.3271V110.749H64.8791Z" fill="#FF8F68"/>
</svg>
