<svg width="49" height="30" viewBox="0 0 49 30" fill="none" xmlns="http://www.w3.org/2000/svg">
<path d="M36.5 30C40.366 30 43.5 26.866 43.5 23V21C46.2614 21 48.5 18.7614 48.5 16V14C48.5 11.2386 46.2614 9 43.5 9V7C43.5 3.13401 40.366 0 36.5 0H7.5C3.63401 0 0.5 3.13401 0.5 7V23C0.5 26.866 3.63401 30 7.5 30H36.5Z" fill="black"/>
<path d="M7.5 6.00098C6.94772 6.00098 6.5 6.44869 6.5 7.00098V23.001C6.5 23.5533 6.94772 24.001 7.5 24.001H12.5C13.0523 24.001 13.5 23.5533 13.5 23.001V7.00098C13.5 6.44869 13.0523 6.00098 12.5 6.00098H7.5Z" fill="white"/>
<path fill-rule="evenodd" clip-rule="evenodd" d="M7.5 2.00098C4.73858 2.00098 2.5 4.23955 2.5 7.00098V23.001C2.5 25.7624 4.73858 28.001 7.5 28.001H31.5C34.2614 28.001 36.5 25.7624 36.5 23.001V7.00098C36.5 4.23955 34.2614 2.00098 31.5 2.00098H7.5ZM4.5 7.00098C4.5 5.34412 5.84315 4.00098 7.5 4.00098H31.5C33.1569 4.00098 34.5 5.34412 34.5 7.00098V23.001C34.5 24.6578 33.1569 26.001 31.5 26.001H7.5C5.84315 26.001 4.5 24.6578 4.5 23.001V7.00098Z" fill="white"/>
<path d="M41.5 14.001C41.5 12.3441 40.1569 11.001 38.5 11.001V19.001C40.1569 19.001 41.5 17.6578 41.5 16.001V14.001Z" fill="white"/>
</svg>
