<svg width="55" height="30" viewBox="0 0 55 30" fill="none" xmlns="http://www.w3.org/2000/svg">
<path d="M25 0.000488281C25.0836 0.000488281 25.1669 0.00162825 25.25 0.00389348C25.3331 0.00162825 25.4164 0.000488281 25.5 0.000488281C25.5836 0.000488281 25.6669 0.00162825 25.75 0.00389348C25.8331 0.00162825 25.9164 0.000488281 26 0.000488281C26.0836 0.000488281 26.1669 0.00162824 26.25 0.00389346C26.3331 0.00162823 26.4164 0.000488281 26.5 0.000488281C26.5836 0.000488281 26.6669 0.00162826 26.75 0.00389351C26.8331 0.00162826 26.9164 0.000488281 27 0.000488281C27.0836 0.000488281 27.1669 0.00162824 27.25 0.00389347C27.3331 0.00162824 27.4164 0.000488281 27.5 0.000488281C27.5836 0.000488281 27.6669 0.00162825 27.75 0.00389349C27.8331 0.00162825 27.9164 0.000488281 28 0.000488281C28.0836 0.000488281 28.1669 0.00162825 28.25 0.00389349C28.3331 0.00162825 28.4164 0.000488281 28.5 0.000488281C28.5836 0.000488281 28.6669 0.00162825 28.75 0.00389348C28.8331 0.00162825 28.9164 0.000488281 29 0.000488281C29.0836 0.000488281 29.1669 0.00162825 29.25 0.00389348C29.3331 0.00162825 29.4164 0.000488281 29.5 0.000488281C29.5836 0.000488281 29.6669 0.00162825 29.75 0.00389348C29.8331 0.00162825 29.9164 0.000488281 30 0.000488281C34.9706 0.000488281 39 4.02992 39 9.00049C39 10.8999 38.4893 13.1151 37.8135 15.2568C37.1271 17.432 36.2209 19.6815 35.3289 21.6971C34.4348 23.7174 33.5426 25.5303 32.8746 26.8372C32.5402 27.4915 32.2609 28.0209 32.0644 28.3884C31.9661 28.5722 31.8884 28.7156 31.8348 28.814C31.808 28.8632 31.7872 28.9012 31.7728 28.9273L31.7561 28.9576L31.7497 28.9693C31.7497 28.9693 31.7496 28.9694 31.3658 28.757L31.7494 28.9698C31.397 29.6058 30.7272 30.0005 30 30.0005C29.9158 30.0005 29.8323 29.9952 29.75 29.9848C29.6677 29.9952 29.5842 30.0005 29.5 30.0005C29.4158 30.0005 29.3323 29.9952 29.25 29.9848C29.1677 29.9952 29.0842 30.0005 29 30.0005C28.9158 30.0005 28.8323 29.9952 28.75 29.9848C28.6677 29.9952 28.5842 30.0005 28.5 30.0005C28.4158 30.0005 28.3323 29.9952 28.25 29.9848C28.1677 29.9952 28.0842 30.0005 28 30.0005C27.9158 30.0005 27.8323 29.9952 27.75 29.9848C27.6677 29.9952 27.5842 30.0005 27.5 30.0005C27.4158 30.0005 27.3323 29.9952 27.25 29.9848C27.1677 29.9952 27.0842 30.0005 27 30.0005C26.9158 30.0005 26.8323 29.9952 26.75 29.9848C26.6677 29.9952 26.5842 30.0005 26.5 30.0005C26.4158 30.0005 26.3323 29.9952 26.25 29.9848C26.1677 29.9952 26.0842 30.0005 26 30.0005C25.9158 30.0005 25.8323 29.9952 25.75 29.9848C25.6677 29.9952 25.5842 30.0005 25.5 30.0005C25.4158 30.0005 25.3323 29.9952 25.25 29.9848C25.1677 29.9952 25.0842 30.0005 25 30.0005C24.2728 30.0005 23.603 29.6058 23.2506 28.9698L23.6343 28.7572C23.2505 28.9696 23.2503 28.9693 23.2503 28.9693L23.2439 28.9576L23.2272 28.9273C23.2128 28.9012 23.192 28.8632 23.1652 28.814C23.1116 28.7156 23.0339 28.5722 22.9356 28.3884C22.7391 28.0209 22.4598 27.4915 22.1254 26.8372C21.4574 25.5303 20.5652 23.7174 19.6711 21.6971C18.7791 19.6815 17.8729 17.432 17.1865 15.2568C16.5107 13.1151 16 10.8999 16 9.00049C16 4.02992 20.0294 0.000488281 25 0.000488281Z" fill="black"/>
<path fill-rule="evenodd" clip-rule="evenodd" d="M32 9.00049C32 15.3665 25 28.0005 25 28.0005C25 28.0005 18 15.3665 18 9.00049C18 5.13449 21.134 2.00049 25 2.00049C28.866 2.00049 32 5.13449 32 9.00049ZM28.1818 9.00049C28.1818 10.7578 26.7573 12.1823 25 12.1823C23.2427 12.1823 21.8182 10.7578 21.8182 9.00049C21.8182 7.24322 23.2427 5.81867 25 5.81867C26.7573 5.81867 28.1818 7.24322 28.1818 9.00049Z" fill="white"/>
</svg>
