<svg width="56" height="30" viewBox="0 0 56 30" fill="none" xmlns="http://www.w3.org/2000/svg">
<path fill-rule="evenodd" clip-rule="evenodd" d="M15.4802 23.1261C15.3132 23.1338 15.1464 23.1338 14.9802 23.1261C14.8132 23.1338 14.6464 23.1338 14.4802 23.1261C14.3132 23.1338 14.1464 23.1338 13.9802 23.1261C13.8132 23.1338 13.6464 23.1338 13.4802 23.1261C13.3132 23.1338 13.1464 23.1338 12.9802 23.1261C12.8132 23.1338 12.6464 23.1338 12.4802 23.1261C12.3132 23.1338 12.1464 23.1338 11.9802 23.1261C11.8133 23.1338 11.6464 23.1338 11.4803 23.1261C9.53052 23.2167 7.59933 22.2421 6.55615 20.4352C5.06744 17.8566 5.951 14.5594 8.52963 13.0707C9.45615 12.5358 10.4755 12.3072 11.4704 12.3534C11.6374 12.3456 11.8042 12.3457 11.9704 12.3534C12.1374 12.3456 12.3042 12.3457 12.4704 12.3534C12.6374 12.3456 12.8042 12.3457 12.9704 12.3534C13.1374 12.3456 13.3042 12.3457 13.4704 12.3534C13.6374 12.3456 13.8042 12.3457 13.9704 12.3534C14.1374 12.3456 14.3042 12.3457 14.4704 12.3534C14.6374 12.3456 14.8042 12.3457 14.9704 12.3534C15.1374 12.3456 15.3042 12.3457 15.4704 12.3534C15.6374 12.3456 15.8042 12.3457 15.9704 12.3534C16.5671 12.3256 17.1621 12.3977 17.7305 12.5628V4.26291C17.7305 1.90972 19.638 0.00195312 21.9913 0.00195312C21.9935 0.00195312 21.9957 0.00195657 21.9978 0.00196346C22.0642 0.00217444 22.1298 0.00561518 22.1944 0.0121367C22.2925 0.00538483 22.3915 0.00195312 22.4913 0.00195312C22.5599 0.00195312 22.6276 0.00540239 22.6944 0.0121368C22.7925 0.00538492 22.8915 0.00195312 22.9913 0.00195312C23.0599 0.00195312 23.1276 0.00540233 23.1944 0.0121367C23.2925 0.00538482 23.3915 0.00195312 23.4913 0.00195312C23.5599 0.00195312 23.6276 0.00540234 23.6944 0.0121367C23.7925 0.00538484 23.8915 0.00195312 23.9913 0.00195312C24.0599 0.00195312 24.1276 0.00540232 24.1944 0.0121366C24.2925 0.00538481 24.3915 0.00195312 24.4913 0.00195312C24.5599 0.00195312 24.6276 0.00540232 24.6944 0.0121366C24.7925 0.00538482 24.8915 0.00195312 24.9913 0.00195312C25.0599 0.00195312 25.1276 0.00540232 25.1944 0.0121366C25.2925 0.00538482 25.3915 0.00195312 25.4913 0.00195312C25.5599 0.00195312 25.6276 0.00540232 25.6944 0.0121366C25.7925 0.00538482 25.8915 0.00195312 25.9913 0.00195312C26.0599 0.00195312 26.1276 0.00540232 26.1944 0.0121366C26.2925 0.00538482 26.3915 0.00195312 26.4913 0.00195312C26.5599 0.00195312 26.6276 0.00540233 26.6944 0.0121367C26.7925 0.00538483 26.8915 0.00195312 26.9913 0.00195312C28.0959 0.00195312 28.9913 0.897384 28.9913 2.00195V6.47914L30.3701 5.68313C30.7502 5.46368 31.1895 5.3766 31.6201 5.43086C31.7855 5.41003 31.9534 5.40986 32.1201 5.43086C32.2855 5.41003 32.4534 5.40986 32.6201 5.43086C32.7855 5.41003 32.9534 5.40986 33.1201 5.43086C33.2855 5.41003 33.4534 5.40986 33.6201 5.43086C33.7855 5.41003 33.9534 5.40986 34.1201 5.43086C34.2855 5.41003 34.4534 5.40986 34.6201 5.43086C34.7854 5.41003 34.9534 5.40986 35.1201 5.43086C35.2854 5.41003 35.4534 5.40986 35.6201 5.43086C35.6469 5.42749 35.6737 5.42465 35.7007 5.42237L36.1937 2.5292L36.1947 2.5229C36.484 0.788491 38.1038 0.00195312 39.3694 0.00195312H39.6714C39.7042 0.00195312 39.7372 0.0024805 39.7704 0.00353797C39.8036 0.00248047 39.8366 0.00195312 39.8694 0.00195312H40.1714C40.2042 0.00195312 40.2372 0.00248047 40.2704 0.00353796C40.3036 0.00248047 40.3366 0.00195312 40.3694 0.00195312H40.6714C40.7042 0.00195312 40.7372 0.00248048 40.7704 0.003538C40.8036 0.00248048 40.8366 0.00195312 40.8694 0.00195312H41.1714C41.2042 0.00195312 41.2372 0.00248045 41.2704 0.00353791C41.3036 0.00248045 41.3366 0.00195312 41.3694 0.00195312H41.6714C41.7042 0.00195312 41.7372 0.00248047 41.7704 0.00353796C41.8036 0.00248047 41.8366 0.00195312 41.8694 0.00195312H42.1714C42.2042 0.00195312 42.2372 0.00248047 42.2704 0.00353796C42.3036 0.00248047 42.3366 0.00195312 42.3694 0.00195312H42.6714C42.7042 0.00195312 42.7372 0.00248047 42.7704 0.00353796C42.8036 0.00248047 42.8366 0.00195312 42.8694 0.00195312H43.1714C43.2042 0.00195312 43.2372 0.00248047 43.2704 0.00353796C43.3036 0.00248047 43.3366 0.00195312 43.3694 0.00195312H43.6714C43.7042 0.00195312 43.7372 0.00248047 43.7704 0.00353795C43.8036 0.00248047 43.8366 0.00195312 43.8694 0.00195312H44.1714C44.2042 0.00195312 44.2372 0.00248047 44.2704 0.00353795C44.3036 0.00248047 44.3366 0.00195312 44.3694 0.00195312H44.6714C45.937 0.00195312 47.5562 0.788286 47.8459 2.52197L47.8471 2.5292L49.9479 14.8566L49.9497 14.8678C50.1253 15.9343 49.672 16.8579 49.0422 17.4386C49.0337 17.4464 49.0252 17.4541 49.0166 17.4618L48.9959 17.4804L48.9911 17.4846C49.5308 18.0285 49.9242 18.7244 50.0999 19.5149L50.2902 20.3712C50.6647 22.0568 50.8537 23.7785 50.8537 25.5054V25.8353C50.8537 28.1364 48.9882 30.002 46.6871 30.002H37.3537C35.2326 30.002 33.4816 28.4169 33.2206 26.3666C32.4922 28.4821 30.4844 30.002 28.1217 30.002C28.0379 30.002 27.9546 30 27.8717 29.9963C27.7889 30 27.7055 30.002 27.6217 30.002C27.5379 30.002 27.4546 30 27.3717 29.9963C27.2889 30 27.2055 30.002 27.1217 30.002C27.0379 30.002 26.9546 30 26.8717 29.9963C26.7889 30 26.7055 30.002 26.6217 30.002C26.5379 30.002 26.4546 30 26.3717 29.9963C26.2889 30 26.2055 30.002 26.1217 30.002C26.0379 30.002 25.9546 30 25.8717 29.9963C25.7889 30 25.7055 30.002 25.6217 30.002C25.5379 30.002 25.4546 30 25.3717 29.9963C25.2889 30 25.2055 30.002 25.1217 30.002C25.0379 30.002 24.9546 30 24.8717 29.9963C24.7889 30 24.7055 30.002 24.6217 30.002C24.5379 30.002 24.4546 30 24.3717 29.9963C24.2889 30 24.2055 30.002 24.1217 30.002C24.0379 30.002 23.9546 30 23.8717 29.9963C23.7889 30 23.7055 30.002 23.6217 30.002C23.5379 30.002 23.4546 30 23.3717 29.9963C23.2889 30 23.2055 30.002 23.1217 30.002C20.1442 30.002 17.7305 27.5883 17.7305 24.6107V22.9179C17.1544 23.0859 16.5631 23.1531 15.9802 23.1261C15.8132 23.1338 15.6464 23.1338 15.4802 23.1261ZM33.3067 23.1285C33.4002 22.2022 33.5484 21.2815 33.7507 20.3712L33.941 19.5151C34.1165 18.7245 34.51 18.0285 35.0498 17.4846C35.0483 17.4834 35.0469 17.4821 35.0454 17.4808C35.0392 17.4753 35.033 17.4698 35.0268 17.4642L35.0164 17.4548L34.9987 17.4386C34.3689 16.8579 33.9154 15.9342 34.0912 14.8674L34.093 14.8567L34.3211 13.5181L29.7246 16.1718C29.495 16.3043 29.2457 16.3876 28.9913 16.4218V19.2891C31.0638 19.6252 32.7402 21.1429 33.3067 23.1285Z" fill="black"/>
<path fill-rule="evenodd" clip-rule="evenodd" d="M19.7301 4.26291C19.7301 3.0142 20.7423 2.00195 21.991 2.00195V21.4123C22.3445 21.2874 22.7251 21.2193 23.1214 21.2193C24.9943 21.2193 26.5127 22.7377 26.5127 24.6107C26.5127 26.4837 24.9943 28.002 23.1214 28.002C21.2484 28.002 19.7301 26.4837 19.7301 24.6107V4.26291ZM22.104 24.6107C22.104 25.1726 22.5595 25.6281 23.1214 25.6281C23.6833 25.6281 24.1387 25.1726 24.1387 24.6107C24.1387 24.0488 23.6833 23.5932 23.1214 23.5932C22.5595 23.5932 22.104 24.0488 22.104 24.6107ZM30.5422 10.5036L23.7243 14.4397V11.8293L31.3697 7.41518C31.994 8.49662 31.6235 9.87934 30.5422 10.5036ZM17.9967 17.7461L12.9202 20.6769C11.2981 21.6131 9.22433 21.0573 8.28789 19.4353C7.35145 17.8132 7.90722 15.7393 9.52926 14.8028C11.1513 13.8664 13.2253 14.422 14.1618 16.044C14.3601 16.3875 14.4915 16.7514 14.5601 17.1203L17.9967 15.1361V17.7461ZM10.3437 18.2484C10.6248 18.7351 11.247 18.9017 11.7335 18.6208C12.2201 18.34 12.3869 17.7176 12.106 17.2309C11.825 16.7444 11.2028 16.5777 10.7162 16.8587C10.2295 17.1395 10.0629 17.7619 10.3437 18.2484ZM39.3691 2.00195H39.671C40.2791 2.00195 40.793 2.36633 40.8734 2.85431L42.9759 15.1926C43.0729 15.7814 42.5072 16.302 41.7736 16.302H37.2665C36.5331 16.302 35.9673 15.7814 36.0643 15.1926L38.1667 2.85431C38.2471 2.36633 38.7612 2.00195 39.3691 2.00195ZM38.008 18.2519H41.0321C42.0476 18.2519 42.9269 18.9572 43.1471 19.9486L43.3375 20.8052C43.6804 22.3484 43.8534 23.9244 43.8534 25.5054V25.8353C43.8534 27.0319 42.8833 28.002 41.6867 28.002H37.3534C36.1568 28.002 35.1867 27.0319 35.1867 25.8353V25.5054C35.1867 23.9244 35.3597 22.3484 35.7027 20.8052L35.8931 19.9486C36.1132 18.9572 36.9927 18.2519 38.008 18.2519ZM42.0995 20.8808C41.9956 20.4136 41.5327 20.119 41.0654 20.2227C40.5981 20.3266 40.3036 20.7895 40.4073 21.2568C40.7366 22.7383 40.9026 24.2514 40.9026 25.769C40.9026 26.2476 41.2906 26.6357 41.7693 26.6357C42.248 26.6357 42.636 26.2476 42.636 25.769C42.636 24.1249 42.456 22.4857 42.0995 20.8808Z" fill="white"/>
</svg>
