<svg width="55" height="31" viewBox="0 0 55 31" fill="none" xmlns="http://www.w3.org/2000/svg">
<path d="M3.22822 23.8171C3.22822 22.7125 4.12365 21.8171 5.22822 21.8171H5.86722V14.66C5.74372 14.6518 5.62076 14.6322 5.49999 14.601C5.17258 14.6855 4.8282 14.6857 4.49999 14.601C4.00891 14.7277 3.47968 14.6649 3.02404 14.4101C2.39173 14.0566 2 13.3889 2 12.6644V6.7118C2 6.01268 2.36506 5.36431 2.96282 5.00175L9.90058 0.79386C10.2215 0.599184 10.5908 0.498773 10.9662 0.504108L11.728 0.514937C11.8068 0.50662 11.8864 0.502974 11.9662 0.504108L12.728 0.514937C12.8068 0.50662 12.8864 0.502974 12.9662 0.504108L13.728 0.514937C13.8068 0.50662 13.8864 0.502974 13.9662 0.504108L14.728 0.514937C14.8068 0.50662 14.8864 0.502974 14.9662 0.504108L15.728 0.514937C15.8068 0.50662 15.8864 0.502974 15.9662 0.504108L18.3728 0.538319C19.4662 0.553861 20.3444 1.44463 20.3444 2.53812V5.67879C20.7481 5.45297 21.1723 5.25902 21.6155 5.09697C22.7104 4.6966 23.8647 4.50391 25.0631 4.50391C25.2298 4.50391 25.3959 4.50771 25.5611 4.51534C25.7275 4.5077 25.8948 4.50391 26.0631 4.50391C26.2298 4.50391 26.3959 4.50771 26.5611 4.51534C26.7275 4.5077 26.8948 4.50391 27.0631 4.50391C27.2298 4.50391 27.3959 4.50771 27.5611 4.51534C27.7275 4.5077 27.8948 4.50391 28.0631 4.50391C28.2298 4.50391 28.3959 4.50771 28.5611 4.51534C28.7275 4.5077 28.8948 4.50391 29.0631 4.50391C29.2298 4.50391 29.3959 4.50771 29.5611 4.51534C29.7275 4.5077 29.8948 4.50391 30.0631 4.50391C31.1964 4.50391 32.294 4.67941 33.3444 5.0399C34.4137 5.40368 35.379 5.94678 36.2187 6.67559C36.9071 7.26653 37.4748 7.96191 37.923 8.74805C38.579 8.58214 39.2606 8.50391 39.9598 8.50391C40.1258 8.50391 40.291 8.50852 40.4551 8.5178C40.6222 8.50849 40.7905 8.50391 40.9598 8.50391C41.1258 8.50391 41.2909 8.50852 41.4551 8.5178C41.6222 8.50849 41.7905 8.50391 41.9598 8.50391C42.1258 8.50391 42.2909 8.50852 42.4551 8.5178C42.6222 8.50849 42.7905 8.50391 42.9598 8.50391C43.1258 8.50391 43.2909 8.50852 43.4551 8.5178C43.6222 8.50849 43.7905 8.50391 43.9598 8.50391C44.1258 8.50391 44.2909 8.50852 44.4551 8.5178C44.6222 8.50849 44.7905 8.50391 44.9598 8.50391C46.0059 8.50391 47.0159 8.68694 47.9708 9.06949C48.8827 9.42734 49.7059 9.92635 50.4181 10.5755C51.1247 11.2196 51.6889 11.9757 52.0944 12.8366C52.519 13.7217 52.7359 14.6654 52.7359 15.6468C52.7359 16.673 52.5219 17.6603 52.0653 18.5733L52.0608 18.5823C51.9781 18.7455 51.8893 18.904 51.7942 19.0576C51.9306 19.2538 52.0555 19.4582 52.1694 19.6698C52.4359 20.1503 52.635 20.6618 52.7727 21.1963C52.9267 21.7633 53 22.3455 53 22.9363C53 23.9678 52.7874 24.9622 52.3613 25.8993C51.9466 26.8113 51.3687 27.6168 50.6384 28.3057C49.909 28.9932 49.0587 29.5249 48.1124 29.9092C47.1218 30.3115 46.0719 30.5039 44.9828 30.5039C44.8134 30.5039 44.6449 30.4995 44.4774 30.4905C44.3135 30.4994 44.1486 30.5039 43.9828 30.5039C43.8134 30.5039 43.6449 30.4995 43.4774 30.4905C43.3135 30.4994 43.1486 30.5039 42.9828 30.5039C42.8134 30.5039 42.6449 30.4995 42.4774 30.4905C42.3135 30.4994 42.1486 30.5039 41.9828 30.5039C41.8134 30.5039 41.6449 30.4995 41.4774 30.4905C41.3135 30.4994 41.1486 30.5039 40.9828 30.5039C40.8134 30.5039 40.6449 30.4995 40.4774 30.4905C40.3135 30.4994 40.1486 30.5039 39.9828 30.5039C39.2767 30.5039 38.587 30.4266 37.9189 30.266C37.637 30.4178 37.3145 30.5039 36.972 30.5039H5.22822C4.12365 30.5039 3.22822 29.6085 3.22822 28.5039V23.8171Z" fill="black"/>
<path d="M7.86722 23.8171H5.22822V28.5039H16V23.8171H13.3444V2.53812L10.9378 2.50391L4 6.7118V12.6644L7.86722 10.2868V23.8171Z" fill="white"/>
<path d="M18.1121 24.7896L25.4555 16.8325C26.0908 16.2039 26.5812 15.5753 26.9269 14.9468C27.2726 14.3182 27.4454 13.6801 27.4454 13.0325C27.4454 12.7563 27.3894 12.4849 27.2773 12.2182C27.1652 11.942 27.0017 11.6991 26.7868 11.4896C26.5812 11.2706 26.3243 11.0991 26.016 10.9753C25.7171 10.842 25.376 10.7753 24.993 10.7753C24.5352 10.7753 24.1335 10.8515 23.7878 11.0039C23.4515 11.1468 23.1665 11.3468 22.9329 11.6039C22.7087 11.861 22.5359 12.161 22.4144 12.5039C22.293 12.8468 22.2276 13.2087 22.2182 13.5896H18C18 12.4658 18.1822 11.4658 18.5465 10.5896C18.9109 9.70391 19.4107 8.96105 20.046 8.36105C20.6907 7.75153 21.4428 7.28962 22.3023 6.97533C23.1618 6.66105 24.0821 6.50391 25.0631 6.50391C25.988 6.50391 26.8662 6.64676 27.6977 6.93248C28.5385 7.21819 29.2766 7.63724 29.9119 8.18962C30.5566 8.742 31.0657 9.42295 31.4394 10.2325C31.8131 11.042 32 11.9753 32 13.0325C32 13.8801 31.8272 14.6658 31.4815 15.3896C31.1451 16.1039 30.6874 16.7896 30.1081 17.4468L24.0541 24.1182H31.972V28.5039H18.1121V24.7896Z" fill="white"/>
<path d="M42.1646 15.8649C42.1646 15.6353 42.111 15.4057 42.0038 15.1761C41.9043 14.9465 41.755 14.7399 41.556 14.5562C41.3646 14.3725 41.1311 14.2233 40.8555 14.1085C40.5876 13.9937 40.289 13.9363 39.9598 13.9363C39.6766 13.9363 39.4048 13.986 39.1445 14.0855C38.8919 14.1774 38.666 14.3037 38.467 14.4644C38.2756 14.6251 38.1225 14.8126 38.0077 15.0269C37.8928 15.2335 37.8354 15.5894 37.8354 16.0945L34.2641 16.0715C34.2718 15.3292 34.4134 14.6213 34.689 13.9478C34.9646 13.2743 35.3474 12.6812 35.8373 12.1684C36.3349 11.6557 36.9321 11.2501 37.6287 10.9516C38.3254 10.6531 39.1024 10.5039 39.9598 10.5039C40.7713 10.5039 41.5292 10.6455 42.2335 10.9287C42.9378 11.2042 43.5502 11.5792 44.0708 12.0537C44.5914 12.5281 44.9971 13.0753 45.288 13.6952C45.5866 14.3151 45.7359 14.9656 45.7359 15.6468C45.7359 16.3891 45.5828 17.0664 45.2766 17.6787C44.9703 18.2832 44.5531 18.773 44.0249 19.148C44.3005 19.3011 44.5569 19.5039 44.7943 19.7565C45.0316 20.009 45.2383 20.2998 45.4144 20.6289C45.5981 20.958 45.7397 21.3177 45.8392 21.708C45.9464 22.0983 46 22.5077 46 22.9363C46 23.6863 45.8469 24.398 45.5407 25.0715C45.2345 25.745 44.8096 26.3381 44.266 26.8508C43.7301 27.3559 43.0947 27.7577 42.3598 28.0562C41.6249 28.3547 40.8325 28.5039 39.9828 28.5039C39.1789 28.5039 38.4287 28.3776 37.7321 28.1251C37.0431 27.8725 36.4383 27.5243 35.9177 27.0804C35.3971 26.6289 34.9761 26.1008 34.6545 25.4963C34.3407 24.884 34.1531 24.3751 34.0919 23.9695C34.0383 23.5639 34.0077 23.1429 34 22.7067H37.6057C37.6517 23.5103 37.8813 24.1034 38.2947 24.486C38.7158 24.861 39.2938 25.0485 40.0287 25.0485C40.3579 25.0485 40.6641 24.995 40.9474 24.8878C41.2383 24.773 41.4909 24.6238 41.7053 24.4401C41.9196 24.2488 42.088 24.0269 42.2105 23.7743C42.3407 23.5218 42.4057 23.2501 42.4057 22.9593C42.4057 22.6531 42.3483 22.37 42.2335 22.1098C42.1263 21.8419 41.9694 21.6162 41.7627 21.4325C41.556 21.2412 41.3033 21.0919 41.0048 20.9848C40.7062 20.8776 40.3732 20.8241 40.0057 20.8241H38.3981V17.6901H40.0287C40.3656 17.6901 40.6641 17.6442 40.9244 17.5524C41.1923 17.4605 41.4182 17.3343 41.6019 17.1735C41.7856 17.0128 41.9234 16.8215 42.0153 16.5996C42.1148 16.3776 42.1646 16.1327 42.1646 15.8649Z" fill="white"/>
</svg>
