<svg width="55" height="30" viewBox="0 0 55 30" fill="none" xmlns="http://www.w3.org/2000/svg">
<path d="M18.0001 30H41.5005C42.605 30 43.5005 29.1046 43.5005 28C43.5005 26.8954 42.605 26 41.5005 26C41.2243 26 41.0005 25.7761 41.0005 25.5V2C41.0005 0.89543 40.105 0 39.0004 0H13C11.8954 0 11 0.89543 11 2V23C11 26.866 14.1341 30 18.0001 30Z" fill="black"/>
<path fill-rule="evenodd" clip-rule="evenodd" d="M33.9993 1.99609H12.999V22.9961C12.999 25.7575 15.2376 27.9961 17.9991 27.9961H36.4994C35.1186 27.9961 33.9993 26.8768 33.9993 25.4961V1.99609ZM15.999 3.99414C15.4467 3.99414 14.999 4.44186 14.999 4.99415V10.9941C14.999 11.5464 15.4467 11.9941 15.999 11.9941H21.9991C22.5514 11.9941 22.9991 11.5464 22.9991 10.9941V4.99415C22.9991 4.44186 22.5514 3.99414 21.9991 3.99414H15.999ZM23.9991 4.99414C23.9991 4.44186 24.4468 3.99414 24.9991 3.99414H30.9992C31.5515 3.99414 31.9992 4.44186 31.9992 4.99414C31.9992 5.54643 31.5515 5.99414 30.9992 5.99414H24.9991C24.4468 5.99414 23.9991 5.54643 23.9991 4.99414ZM15.499 13.9961C15.2228 13.9961 14.999 14.22 14.999 14.4961C14.999 14.7722 15.2228 14.9961 15.499 14.9961H31.4992C31.7754 14.9961 31.9992 14.7722 31.9992 14.4961C31.9992 14.22 31.7754 13.9961 31.4992 13.9961H15.499ZM14.999 20.4961C14.999 20.22 15.2228 19.9961 15.499 19.9961H29.4992C29.7753 19.9961 29.9992 20.22 29.9992 20.4961C29.9992 20.7722 29.7753 20.9961 29.4992 20.9961H15.499C15.2228 20.9961 14.999 20.7722 14.999 20.4961ZM31.4996 19.9961C31.2235 19.9961 30.9996 20.22 30.9996 20.4961C30.9996 20.7722 31.2235 20.9961 31.4996 20.9961C31.7758 20.9961 31.9996 20.7722 31.9996 20.4961C31.9996 20.22 31.7758 19.9961 31.4996 19.9961ZM14.999 17.4961C14.999 17.22 15.2228 16.9961 15.499 16.9961H18.499C18.7752 16.9961 18.999 17.22 18.999 17.4961C18.999 17.7722 18.7752 17.9961 18.499 17.9961H15.499C15.2228 17.9961 14.999 17.7722 14.999 17.4961ZM20.4985 16.9961C20.2224 16.9961 19.9985 17.22 19.9985 17.4961C19.9985 17.7722 20.2224 17.9961 20.4985 17.9961H31.4987C31.7749 17.9961 31.9987 17.7722 31.9987 17.4961C31.9987 17.22 31.7749 16.9961 31.4987 16.9961H20.4985ZM23.9991 8.49609C23.9991 8.21995 24.2229 7.99609 24.4991 7.99609H25.9991C26.2753 7.99609 26.4991 8.21995 26.4991 8.49609C26.4991 8.77224 26.2753 8.99609 25.9991 8.99609H24.4991C24.2229 8.99609 23.9991 8.77224 23.9991 8.49609ZM27.9987 7.99609C27.7225 7.99609 27.4987 8.21995 27.4987 8.49609C27.4987 8.77224 27.7225 8.99609 27.9987 8.99609H31.4987C31.7749 8.99609 31.9987 8.77224 31.9987 8.49609C31.9987 8.21995 31.7749 7.99609 31.4987 7.99609H27.9987ZM30.9996 11.4961C30.9996 11.22 31.2235 10.9961 31.4996 10.9961C31.7758 10.9961 31.9996 11.22 31.9996 11.4961C31.9996 11.7722 31.7758 11.9961 31.4996 11.9961C31.2235 11.9961 30.9996 11.7722 30.9996 11.4961ZM24.4991 10.9961C24.2229 10.9961 23.9991 11.22 23.9991 11.4961C23.9991 11.7722 24.2229 11.9961 24.4991 11.9961H29.4992C29.7753 11.9961 29.9992 11.7722 29.9992 11.4961C29.9992 11.22 29.7753 10.9961 29.4992 10.9961H24.4991Z" fill="white"/>
</svg>
