<svg width="33" height="29" viewBox="0 0 33 29" fill="none" xmlns="http://www.w3.org/2000/svg">
<path d="M32 5.75C32 3.2187 29.948 1.16667 27.4167 1.16667L5.75 1.16667C3.2187 1.16667 1.16667 3.2187 1.16667 5.75L1.16667 23.25C1.16667 25.7813 3.21869 27.8333 5.75 27.8333L27.4167 27.8333C29.948 27.8333 32 25.7813 32 23.25V5.75Z" fill="black" stroke="white" stroke-width="1.66667"/>
<path fill-rule="evenodd" clip-rule="evenodd" d="M25.3327 5.74984C25.3327 4.59925 24.3999 3.6665 23.2493 3.6665H5.74935C4.59876 3.6665 3.66602 4.59924 3.66602 5.74984L3.66602 23.2498C3.66602 24.4004 4.59876 25.3332 5.74935 25.3332L23.2493 25.3332C24.3999 25.3332 25.3327 24.4004 25.3327 23.2498L25.3327 5.74984ZM9.49935 8.66667C9.03911 8.66667 8.66602 9.03976 8.66602 9.5C8.66602 9.96024 9.03911 10.3333 9.49935 10.3333H19.4993C19.9596 10.3333 20.3327 9.96024 20.3327 9.5C20.3327 9.03976 19.9596 8.66667 19.4993 8.66667H9.49935ZM9.49935 13.6667C9.03911 13.6667 8.66602 14.0398 8.66602 14.5C8.66602 14.9602 9.03911 15.3333 9.49935 15.3333H11.166C11.6263 15.3333 11.9993 14.9602 11.9993 14.5C11.9993 14.0398 11.6263 13.6667 11.166 13.6667H9.49935ZM13.666 14.5C13.666 14.0398 14.0391 13.6667 14.4993 13.6667H19.4993C19.9596 13.6667 20.3327 14.0398 20.3327 14.5C20.3327 14.9602 19.9596 15.3333 19.4993 15.3333H14.4993C14.0391 15.3333 13.666 14.9602 13.666 14.5ZM9.49935 18.6667C9.03911 18.6667 8.66602 19.0398 8.66602 19.5C8.66602 19.9602 9.03911 20.3333 9.49935 20.3333H16.166C16.6263 20.3333 16.9993 19.9602 16.9993 19.5C16.9993 19.0398 16.6263 18.6667 16.166 18.6667H9.49935ZM18.666 19.5C18.666 19.0398 19.0391 18.6667 19.4993 18.6667C19.9596 18.6667 20.3327 19.0398 20.3327 19.5C20.3327 19.9602 19.9596 20.3333 19.4993 20.3333C19.0391 20.3333 18.666 19.9602 18.666 19.5Z" fill="white"/>
</svg>
