<svg width="33" height="31" viewBox="0 0 33 31" fill="none" xmlns="http://www.w3.org/2000/svg">
<path d="M7 30.0015H30.5C31.6046 30.0015 32.5 29.106 32.5 28.0015C32.5 26.8969 31.6046 26.0015 30.5 26.0015C30.2239 26.0015 30 25.7776 30 25.5015V2.00146C30 0.896895 29.1046 0.00146484 28 0.00146484H2C0.89543 0.00146484 0 0.896895 0 2.00146V23.0015C0 26.8675 3.13401 30.0015 7 30.0015Z" fill="black"/>
<path fill-rule="evenodd" clip-rule="evenodd" d="M23 2.00146H2V23.0015C2 25.7629 4.23858 28.0015 7 28.0015H25.5C24.1193 28.0015 23 26.8822 23 25.5015V2.00146ZM5 4.00146C4.44772 4.00146 4 4.44918 4 5.00146V11.0015C4 11.5538 4.44772 12.0015 5 12.0015H11C11.5523 12.0015 12 11.5538 12 11.0015V5.00146C12 4.44918 11.5523 4.00146 11 4.00146H5ZM13 5.00146C13 4.44918 13.4477 4.00146 14 4.00146H20C20.5523 4.00146 21 4.44918 21 5.00146C21 5.55375 20.5523 6.00146 20 6.00146H14C13.4477 6.00146 13 5.55375 13 5.00146ZM4.5 14.0015C4.22386 14.0015 4 14.2253 4 14.5015C4 14.7776 4.22386 15.0015 4.5 15.0015H20.5C20.7761 15.0015 21 14.7776 21 14.5015C21 14.2253 20.7761 14.0015 20.5 14.0015H4.5ZM4 20.5015C4 20.2253 4.22386 20.0015 4.5 20.0015H18.5C18.7761 20.0015 19 20.2253 19 20.5015C19 20.7776 18.7761 21.0015 18.5 21.0015H4.5C4.22386 21.0015 4 20.7776 4 20.5015ZM20.5 20.0015C20.2239 20.0015 20 20.2253 20 20.5015C20 20.7776 20.2239 21.0015 20.5 21.0015C20.7761 21.0015 21 20.7776 21 20.5015C21 20.2253 20.7761 20.0015 20.5 20.0015ZM4 17.5015C4 17.2253 4.22386 17.0015 4.5 17.0015H7.5C7.77614 17.0015 8 17.2253 8 17.5015C8 17.7776 7.77614 18.0015 7.5 18.0015H4.5C4.22386 18.0015 4 17.7776 4 17.5015ZM9.5 17.0015C9.22386 17.0015 9 17.2253 9 17.5015C9 17.7776 9.22386 18.0015 9.5 18.0015H20.5C20.7761 18.0015 21 17.7776 21 17.5015C21 17.2253 20.7761 17.0015 20.5 17.0015H9.5ZM13 8.50146C13 8.22532 13.2239 8.00146 13.5 8.00146H15C15.2761 8.00146 15.5 8.22532 15.5 8.50146C15.5 8.77761 15.2761 9.00146 15 9.00146H13.5C13.2239 9.00146 13 8.77761 13 8.50146ZM17 8.00146C16.7239 8.00146 16.5 8.22532 16.5 8.50146C16.5 8.77761 16.7239 9.00146 17 9.00146H20.5C20.7761 9.00146 21 8.77761 21 8.50146C21 8.22532 20.7761 8.00146 20.5 8.00146H17ZM20 11.5015C20 11.2253 20.2239 11.0015 20.5 11.0015C20.7761 11.0015 21 11.2253 21 11.5015C21 11.7776 20.7761 12.0015 20.5 12.0015C20.2239 12.0015 20 11.7776 20 11.5015ZM13.5 11.0015C13.2239 11.0015 13 11.2253 13 11.5015C13 11.7776 13.2239 12.0015 13.5 12.0015H18.5C18.7761 12.0015 19 11.7776 19 11.5015C19 11.2253 18.7761 11.0015 18.5 11.0015H13.5Z" fill="white"/>
</svg>
