<svg width="27" height="21" viewBox="0 0 27 21" fill="none" xmlns="http://www.w3.org/2000/svg">
<path fill-rule="evenodd" clip-rule="evenodd" d="M0.308823 4.12058C0.308823 1.84646 2.15236 0.00292969 4.42647 0.00292969H22.0735C24.3476 0.00292969 26.1912 1.84646 26.1912 4.12058V15.8853C26.1912 18.1594 24.3476 20.0029 22.0735 20.0029H4.42647C2.15236 20.0029 0.308823 18.1594 0.308823 15.8853V4.12058ZM1.48525 4.18009C1.48525 2.52324 2.8284 1.18009 4.48525 1.18009H16.1323C17.7892 1.18009 19.1323 2.52324 19.1323 4.18009V15.8272C19.1323 17.484 17.7892 18.8272 16.1323 18.8272H4.48525C2.8284 18.8272 1.48525 17.484 1.48525 15.8271V4.18009ZM9.57349 4.85656C9.57349 4.45047 9.90269 4.12127 10.3088 4.12127H16.1911C16.5972 4.12127 16.9264 4.45047 16.9264 4.85656C16.9264 5.26265 16.5972 5.59186 16.1911 5.59186H10.3088C9.90269 5.59186 9.57349 5.26265 9.57349 4.85656ZM4.42643 7.79774C4.02033 7.79774 3.69113 8.12694 3.69113 8.53303C3.69113 8.93912 4.02034 9.26833 4.42643 9.26833H16.1911C16.5972 9.26833 16.9264 8.93912 16.9264 8.53303C16.9264 8.12694 16.5972 7.79774 16.1911 7.79774H4.42643ZM4.42643 4.12127C4.02033 4.12127 3.69113 4.45047 3.69113 4.85656C3.69113 5.26265 4.02033 5.59186 4.42643 5.59186H6.63231C7.0384 5.59186 7.3676 5.26265 7.3676 4.85656C7.3676 4.45047 7.0384 4.12127 6.63231 4.12127H4.42643ZM4.42643 11.4742C4.02033 11.4742 3.69113 11.8034 3.69113 12.2095C3.69113 12.6156 4.02033 12.9448 4.42643 12.9448H8.83819C9.24428 12.9448 9.57349 12.6156 9.57349 12.2095C9.57349 11.8034 9.24428 11.4742 8.83819 11.4742H4.42643ZM12.5147 11.4742C12.1086 11.4742 11.7794 11.8034 11.7794 12.2095C11.7794 12.6156 12.1086 12.9448 12.5147 12.9448H16.1911C16.5972 12.9448 16.9264 12.6156 16.9264 12.2095C16.9264 11.8034 16.5972 11.4742 16.1911 11.4742H12.5147ZM4.42643 15.1507C4.02033 15.1507 3.69113 15.4799 3.69113 15.886C3.69113 16.2921 4.02033 16.6213 4.42643 16.6213H12.5147C12.9208 16.6213 13.25 16.2921 13.25 15.886C13.25 15.4799 12.9208 15.1507 12.5147 15.1507H4.42643ZM16.1911 15.1507C15.785 15.1507 15.4558 15.4799 15.4558 15.886C15.4558 16.2921 15.785 16.6213 16.1911 16.6213C16.5972 16.6213 16.9264 16.2921 16.9264 15.886C16.9264 15.4799 16.5972 15.1507 16.1911 15.1507Z" fill="black"/>
</svg>
