<svg width="55" height="30" viewBox="0 0 55 30" fill="none" xmlns="http://www.w3.org/2000/svg">
<path fill-rule="evenodd" clip-rule="evenodd" d="M18.5234 6.83322C18.5234 3.7308 21.0015 1.15888 24.1121 1.15776C24.4057 1.15766 24.5834 1.15776 24.8643 1.15776C28.0808 1.15776 30.8332 3.7308 30.8332 6.83322C30.8332 8.56182 30.0141 10.1261 28.7126 11.1725C29.2326 11.3026 29.7367 11.4691 30.222 11.6689C30.8565 11.5219 31.5174 11.4443 32.1966 11.4443C32.6306 11.4443 33.0647 11.4443 33.4988 11.4443C38.6402 11.4443 42.8081 15.3467 42.8081 20.1605C42.8081 24.9744 38.4791 28.8768 33.4988 28.8768C32.9972 28.8768 32.7051 28.8768 32.1966 28.8768C28.4672 28.8768 25.5724 26.7406 24.2199 23.6797H15.6885C14.203 23.6797 13.0562 22.4589 13.0562 21.0246C13.0562 16.3198 16.2025 12.3233 20.5089 11.1725C19.2903 10.1261 18.5234 8.56182 18.5234 6.83322Z" fill="black"/>
<path fill-rule="evenodd" clip-rule="evenodd" d="M20.1078 6.83286C20.1078 4.57068 21.9029 2.73682 24.1171 2.73682C26.3314 2.73682 28.1264 4.57068 28.1264 6.83286C28.1264 9.09504 26.3314 10.9289 24.1171 10.9289C21.9029 10.9289 20.1078 9.09504 20.1078 6.83286ZM14.6406 21.0242C14.6406 16.2713 18.412 12.4184 23.0642 12.4184H25.1701C26.0035 12.4184 26.8087 12.542 27.569 12.7724C25.1131 14.314 23.4804 17.0464 23.4804 20.1601C23.4804 20.8268 23.5553 21.4761 23.6971 22.0999H15.6936C15.112 22.0999 14.6406 21.6183 14.6406 21.0242ZM26.1804 23.9497V23.9872H26.2043C27.4673 25.9599 29.6781 27.2675 32.1944 27.2675C34.7106 27.2675 36.9214 25.9599 38.1844 23.9872H38.2083V23.9497C38.9009 22.8528 39.3017 21.5533 39.3017 20.1601C39.3017 18.767 38.9009 17.4674 38.2083 16.3706V16.333H38.1844C36.9214 14.3603 34.7106 13.0527 32.1944 13.0527C29.6781 13.0527 27.4673 14.3603 26.2043 16.333H26.1804V16.3706C25.4878 17.4674 25.087 18.767 25.087 20.1601C25.087 21.5533 25.4878 22.8528 26.1804 23.9497ZM31.6476 22.8937V20.7068H28.9281C28.9688 21.4946 29.0963 22.2316 29.2894 22.8937H31.6476ZM31.6476 23.9872H29.6975C29.8015 24.2101 29.9137 24.4191 30.0329 24.6127C30.5383 25.434 31.1071 25.8969 31.6476 26.0805V23.9872ZM28.1558 22.8937C27.9809 22.212 27.8694 21.4766 27.8333 20.7068H26.2049C26.2754 21.4886 26.4954 22.2271 26.8362 22.8937H28.1558ZM27.5551 23.9872H28.5082C28.7134 24.508 28.9592 24.9824 29.2384 25.3987C28.594 25.0343 28.0235 24.5544 27.5551 23.9872ZM35.1503 14.9215C35.7947 15.2859 36.3652 15.7658 36.8337 16.333H35.8806C35.6754 15.8122 35.4295 15.3378 35.1503 14.9215ZM37.5525 17.4265H36.2329C36.4079 18.1082 36.5194 18.8437 36.5554 19.6134H38.1838C38.1133 18.8317 37.8933 18.0931 37.5525 17.4265ZM34.3558 15.7075C34.475 15.9011 34.5872 16.1102 34.6912 16.333H32.7411V14.2397C33.2817 14.4233 33.8504 14.8862 34.3558 15.7075ZM35.0993 17.4265H32.7411V19.6134H35.4606C35.4199 18.8256 35.2925 18.0886 35.0993 17.4265ZM31.6476 19.6134V17.4265H29.2894C29.0963 18.0886 28.9688 18.8256 28.9281 19.6134H31.6476ZM29.6975 16.333H31.6476V14.2397C31.1071 14.4233 30.5383 14.8862 30.0329 15.7075C29.9137 15.9011 29.8015 16.1102 29.6975 16.333ZM29.2384 14.9215C28.9592 15.3378 28.7133 15.8122 28.5082 16.333H27.5551C28.0235 15.7658 28.594 15.2859 29.2384 14.9215ZM26.8362 17.4265H28.1558C27.9809 18.1082 27.8694 18.8437 27.8333 19.6134H26.2049C26.2754 18.8317 26.4954 18.0931 26.8362 17.4265ZM37.5525 22.8937C37.8933 22.2271 38.1133 21.4886 38.1838 20.7068H36.5554C36.5194 21.4766 36.4079 22.212 36.2329 22.8937H37.5525ZM34.6912 23.9872C34.5872 24.2101 34.475 24.4191 34.3558 24.6127C33.8504 25.434 33.2817 25.8969 32.7411 26.0805V23.9872H34.6912ZM35.0993 22.8937H32.7411V20.7068H35.4606C35.4199 21.4946 35.2925 22.2316 35.0993 22.8937ZM35.8806 23.9872H36.8337C36.3652 24.5544 35.7947 25.0343 35.1503 25.3987C35.4295 24.9824 35.6754 24.508 35.8806 23.9872Z" fill="white"/>
</svg>
