<svg width="55" height="31" viewBox="0 0 55 31" fill="none" xmlns="http://www.w3.org/2000/svg">
<path d="M21.24 0.500977C17.7937 0.500977 15 3.18727 15 6.50098V24.501C15 27.8147 17.7937 30.501 21.24 30.501H34.76C38.2063 30.501 41 27.8147 41 24.501V6.50098C41 3.18727 38.2063 0.500977 34.76 0.500977H21.24Z" fill="black"/>
<path fill-rule="evenodd" clip-rule="evenodd" d="M21.25 2.50098C18.9028 2.50098 17 4.29184 17 6.50098V24.501C17 26.7101 18.9028 28.501 21.25 28.501H29.75C32.0972 28.501 34 26.7101 34 24.501V6.50098C34 4.29184 32.0972 2.50098 29.75 2.50098H21.25ZM19.1252 6.50098C19.1252 5.39641 20.0206 4.50098 21.1252 4.50098H29.8752C30.9798 4.50098 31.8752 5.39641 31.8752 6.50098V20.501C31.8752 21.6055 30.9798 22.501 29.8752 22.501H21.1252C20.0206 22.501 19.1252 21.6055 19.1252 20.501V6.50098ZM23.3753 25.501C23.3753 24.9487 23.823 24.501 24.3753 24.501H26.6253C27.1776 24.501 27.6253 24.9487 27.6253 25.501C27.6253 26.0533 27.1776 26.501 26.6253 26.501H24.3753C23.823 26.501 23.3753 26.0533 23.3753 25.501Z" fill="white"/>
</svg>
