<svg width="28" height="31" viewBox="0 0 28 31" fill="none" xmlns="http://www.w3.org/2000/svg">
<path d="M9 15.0762C6.08702 14.0466 4 11.2685 4 8.00293C4 3.86079 7.35786 0.50293 11.5 0.50293C11.5837 0.50293 11.667 0.504299 11.75 0.507018C11.833 0.504299 11.9163 0.50293 12 0.50293C12.0837 0.50293 12.167 0.504299 12.25 0.507018C12.333 0.504299 12.4163 0.50293 12.5 0.50293C12.5837 0.50293 12.667 0.504299 12.75 0.507018C12.833 0.504299 12.9163 0.50293 13 0.50293C13.0837 0.50293 13.167 0.504299 13.25 0.507018C13.333 0.504299 13.4163 0.50293 13.5 0.50293C13.5837 0.50293 13.667 0.504299 13.75 0.507018C13.833 0.504299 13.9163 0.50293 14 0.50293C14.0837 0.50293 14.167 0.504299 14.25 0.507018C14.333 0.504299 14.4163 0.50293 14.5 0.50293C14.5837 0.50293 14.667 0.504299 14.75 0.507018C14.833 0.504299 14.9163 0.50293 15 0.50293C15.0837 0.50293 15.167 0.504299 15.25 0.507018C15.333 0.504299 15.4163 0.50293 15.5 0.50293C15.5837 0.50293 15.667 0.504299 15.75 0.507018C15.833 0.504299 15.9163 0.50293 16 0.50293C16.0837 0.50293 16.167 0.504299 16.25 0.507018C16.333 0.504299 16.4163 0.50293 16.5 0.50293C20.6421 0.50293 24 3.86079 24 8.00293C24 11.2685 21.913 14.0466 19 15.0762V18.631C20.8682 18.8259 22.5846 19.238 23.9936 19.8312C24.9992 20.2546 25.9425 20.8099 26.6644 21.5285C27.394 22.2548 28 23.2616 28 24.5029C28 25.7443 27.394 26.7511 26.6644 27.4773C25.9425 28.196 24.9992 28.7512 23.9936 29.1746C21.9744 30.0248 19.3237 30.5029 16.5 30.5029C16.4165 30.5029 16.3332 30.5025 16.25 30.5017C16.1668 30.5025 16.0835 30.5029 16 30.5029C15.9165 30.5029 15.8332 30.5025 15.75 30.5017C15.6668 30.5025 15.5835 30.5029 15.5 30.5029C15.4165 30.5029 15.3332 30.5025 15.25 30.5017C15.1668 30.5025 15.0835 30.5029 15 30.5029C14.9165 30.5029 14.8332 30.5025 14.75 30.5017C14.6668 30.5025 14.5835 30.5029 14.5 30.5029C14.4165 30.5029 14.3332 30.5025 14.25 30.5017C14.1668 30.5025 14.0835 30.5029 14 30.5029C13.9165 30.5029 13.8332 30.5025 13.75 30.5017C13.6668 30.5025 13.5835 30.5029 13.5 30.5029C13.4165 30.5029 13.3332 30.5025 13.25 30.5017C13.1668 30.5025 13.0835 30.5029 13 30.5029C12.9165 30.5029 12.8332 30.5025 12.75 30.5017C12.6668 30.5025 12.5835 30.5029 12.5 30.5029C12.4165 30.5029 12.3332 30.5025 12.25 30.5017C12.1668 30.5025 12.0835 30.5029 12 30.5029C11.9165 30.5029 11.8332 30.5025 11.75 30.5017C11.6722 30.5025 11.5942 30.5029 11.516 30.5029C11.5107 30.5029 11.5053 30.5029 11.5 30.5029C8.67627 30.5029 6.02563 30.0248 4.00637 29.1746C3.00081 28.7512 2.05749 28.196 1.33555 27.4773C0.605986 26.7511 0 25.7443 0 24.5029C0 23.2616 0.605986 22.2548 1.33555 21.5285C2.05749 20.8099 3.00081 20.2546 4.00637 19.8312C5.41539 19.238 7.13184 18.8259 9 18.631V15.0762Z" fill="black"/>
<path d="M6 8.00293C6 4.96536 8.46243 2.50293 11.5 2.50293C14.5376 2.50293 17 4.96536 17 8.00293C17 11.0405 14.5376 13.5029 11.5 13.5029C8.46243 13.5029 6 11.0405 6 8.00293Z" fill="white"/>
<path fill-rule="evenodd" clip-rule="evenodd" d="M9 20.6433C4.96616 21.1054 2 22.6585 2 24.5033C2 26.7125 6.25329 28.5033 11.5 28.5033C16.7467 28.5033 21 26.7125 21 24.5033C21 22.6585 18.0338 21.1054 14 20.6433V22.6578C15.3611 22.831 16.5389 23.1382 17.4414 23.5182C18.155 23.8187 18.6029 24.1253 18.8424 24.3638C18.901 24.4221 18.9401 24.4686 18.9657 24.5033C18.9401 24.5381 18.901 24.5846 18.8424 24.6429C18.6029 24.8813 18.155 25.188 17.4414 25.4885C16.0223 26.086 13.923 26.5033 11.5 26.5033C9.07703 26.5033 6.97767 26.086 5.5586 25.4885C4.845 25.188 4.39708 24.8813 4.15756 24.6429C4.09895 24.5846 4.05991 24.5381 4.03427 24.5033C4.05991 24.4686 4.09895 24.4221 4.15756 24.3638C4.39708 24.1253 4.845 23.8187 5.5586 23.5182C6.46114 23.1382 7.63886 22.831 9 22.6578V20.6433ZM19.0113 24.4265C19.0113 24.4265 19.0107 24.43 19.0075 24.4368C19.0094 24.43 19.0113 24.4265 19.0113 24.4265ZM3.98872 24.4265C3.98872 24.4265 3.99064 24.43 3.99253 24.4368C3.98934 24.43 3.98872 24.4265 3.98872 24.4265ZM3.98872 24.5802C3.98872 24.5802 3.98934 24.5767 3.99253 24.5699C3.99064 24.5767 3.98872 24.5802 3.98872 24.5802ZM19.0075 24.5699C19.0107 24.5767 19.0113 24.5802 19.0113 24.5802C19.0113 24.5802 19.0094 24.5767 19.0075 24.5699Z" fill="white"/>
<path d="M11.5 15.5029C11.332 15.5029 11.1653 15.4974 11 15.4865V24.0029C11 24.279 11.2239 24.5029 11.5 24.5029C11.7761 24.5029 12 24.279 12 24.0029V15.4865C11.8347 15.4974 11.668 15.5029 11.5 15.5029Z" fill="white"/>
</svg>
