<svg width="55" height="30" viewBox="0 0 55 30" fill="none" xmlns="http://www.w3.org/2000/svg">
<path d="M23 14.5737C20.087 13.5441 18 10.766 18 7.50049C18 3.35835 21.3579 0.000488281 25.5 0.000488281C25.5837 0.000488281 25.667 0.00185807 25.75 0.00457645C25.833 0.00185807 25.9163 0.000488281 26 0.000488281C26.0837 0.000488281 26.167 0.00185808 26.25 0.00457647C26.333 0.00185808 26.4163 0.000488281 26.5 0.000488281C26.5837 0.000488281 26.667 0.00185807 26.75 0.00457643C26.833 0.00185806 26.9163 0.000488281 27 0.000488281C27.0837 0.000488281 27.167 0.00185807 27.25 0.00457645C27.333 0.00185807 27.4163 0.000488281 27.5 0.000488281C27.5837 0.000488281 27.667 0.00185807 27.75 0.00457645C27.833 0.00185807 27.9163 0.000488281 28 0.000488281C28.0837 0.000488281 28.167 0.00185807 28.25 0.00457644C28.333 0.00185807 28.4163 0.000488281 28.5 0.000488281C28.5837 0.000488281 28.667 0.00185807 28.75 0.00457644C28.833 0.00185807 28.9163 0.000488281 29 0.000488281C29.0837 0.000488281 29.167 0.00185807 29.25 0.00457644C29.333 0.00185807 29.4163 0.000488281 29.5 0.000488281C29.5837 0.000488281 29.667 0.00185807 29.75 0.00457645C29.833 0.00185807 29.9163 0.000488281 30 0.000488281C30.0837 0.000488281 30.167 0.00185807 30.25 0.00457644C30.333 0.00185807 30.4163 0.000488281 30.5 0.000488281C34.6421 0.000488281 38 3.35835 38 7.50049C38 10.766 35.913 13.5441 33 14.5737V18.1286C34.8682 18.3234 36.5846 18.7355 37.9936 19.3288C38.9992 19.7522 39.9425 20.3074 40.6644 21.0261C41.394 21.7524 42 22.7591 42 24.0005C42 25.2418 41.394 26.2486 40.6644 26.9749C39.9425 27.6936 38.9992 28.2488 37.9936 28.6722C35.9744 29.5224 33.3237 30.0005 30.5 30.0005C30.4165 30.0005 30.3332 30.0001 30.25 29.9992C30.1668 30.0001 30.0835 30.0005 30 30.0005C29.9165 30.0005 29.8332 30.0001 29.75 29.9992C29.6668 30.0001 29.5835 30.0005 29.5 30.0005C29.4165 30.0005 29.3332 30.0001 29.25 29.9992C29.1668 30.0001 29.0835 30.0005 29 30.0005C28.9165 30.0005 28.8332 30.0001 28.75 29.9992C28.6668 30.0001 28.5835 30.0005 28.5 30.0005C28.4165 30.0005 28.3332 30.0001 28.25 29.9992C28.1668 30.0001 28.0835 30.0005 28 30.0005C27.9165 30.0005 27.8332 30.0001 27.75 29.9992C27.6668 30.0001 27.5835 30.0005 27.5 30.0005C27.4165 30.0005 27.3332 30.0001 27.25 29.9992C27.1668 30.0001 27.0835 30.0005 27 30.0005C26.9165 30.0005 26.8332 30.0001 26.75 29.9992C26.6668 30.0001 26.5835 30.0005 26.5 30.0005C26.4165 30.0005 26.3332 30.0001 26.25 29.9992C26.1668 30.0001 26.0835 30.0005 26 30.0005C25.9165 30.0005 25.8332 30.0001 25.75 29.9992C25.6722 30 25.5942 30.0004 25.516 30.0005C25.5107 30.0005 25.5053 30.0005 25.5 30.0005C22.6763 30.0005 20.0256 29.5224 18.0064 28.6722C17.0008 28.2488 16.0575 27.6936 15.3356 26.9749C14.606 26.2486 14 25.2418 14 24.0005C14 22.7591 14.606 21.7524 15.3356 21.0261C16.0575 20.3074 17.0008 19.7522 18.0064 19.3288C19.4154 18.7355 21.1318 18.3234 23 18.1286V14.5737Z" fill="black"/>
<path d="M20 7.50049C20 4.46292 22.4624 2.00049 25.5 2.00049C28.5376 2.00049 31 4.46292 31 7.50049C31 10.5381 28.5376 13.0005 25.5 13.0005C22.4624 13.0005 20 10.5381 20 7.50049Z" fill="white"/>
<path fill-rule="evenodd" clip-rule="evenodd" d="M23 20.1409C18.9662 20.6029 16 22.1561 16 24.0009C16 26.21 20.2533 28.0009 25.5 28.0009C30.7467 28.0009 35 26.21 35 24.0009C35 22.1561 32.0338 20.6029 28 20.1409V22.1553C29.3611 22.3286 30.5389 22.6357 31.4414 23.0157C32.155 23.3162 32.6029 23.6229 32.8424 23.8613C32.901 23.9197 32.9401 23.9662 32.9657 24.0009C32.9401 24.0356 32.901 24.0821 32.8424 24.1405C32.6029 24.3789 32.155 24.6856 31.4414 24.9861C30.0223 25.5836 27.923 26.0009 25.5 26.0009C23.077 26.0009 20.9777 25.5836 19.5586 24.9861C18.845 24.6856 18.3971 24.3789 18.1576 24.1405C18.099 24.0821 18.0599 24.0356 18.0343 24.0009C18.0599 23.9662 18.099 23.9197 18.1576 23.8613C18.3971 23.6229 18.845 23.3162 19.5586 23.0157C20.4611 22.6357 21.6389 22.3286 23 22.1553V20.1409ZM33.0113 23.9241C33.0113 23.9241 33.0107 23.9275 33.0075 23.9344C33.0094 23.9275 33.0113 23.9241 33.0113 23.9241ZM17.9887 23.9241C17.9887 23.9241 17.9906 23.9275 17.9925 23.9344C17.9893 23.9275 17.9887 23.9241 17.9887 23.9241ZM17.9887 24.0777C17.9887 24.0777 17.9893 24.0743 17.9925 24.0674C17.9906 24.0743 17.9887 24.0777 17.9887 24.0777ZM33.0075 24.0674C33.0107 24.0743 33.0113 24.0777 33.0113 24.0777C33.0113 24.0777 33.0094 24.0743 33.0075 24.0674Z" fill="white"/>
<path d="M25.5 15.0004C25.332 15.0004 25.1653 14.9949 25 14.984V23.5004C25 23.7766 25.2239 24.0004 25.5 24.0004C25.7761 24.0004 26 23.7766 26 23.5004V14.984C25.8347 14.9949 25.668 15.0004 25.5 15.0004Z" fill="white"/>
</svg>
