<svg width="36" height="31" viewBox="0 0 36 31" fill="none" xmlns="http://www.w3.org/2000/svg">
<path d="M7.21294 6.33C6.83099 6.712 6.62761 7.22284 6.62724 7.74297C6.09729 7.74333 5.58914 7.95403 5.21441 8.32881L2.59702 10.9465L2.22619 11.319L2.22515 11.32C2.03584 11.5097 1.86069 11.711 1.70043 11.9222C0.926629 12.9421 0.500977 14.1929 0.500977 15.4877C0.500977 17.0503 1.12164 18.5498 2.22554 19.6557L5.20513 22.6445C5.57879 23.0193 6.08572 23.2306 6.61479 23.2324C6.61505 23.7517 6.81762 24.2618 7.19847 24.6438L11.3091 28.7667L11.3121 28.7697C11.4093 28.8668 11.5095 28.9602 11.6127 29.0497C12.6832 29.9819 14.0581 30.5 15.4866 30.5C17.2584 30.5 18.7144 30.5 20.4862 30.5C22.049 30.5 23.5478 29.8799 24.6538 28.7759L24.6549 28.7748L28.8278 24.6211C29.2077 24.243 29.4126 23.7368 29.4168 23.2194C29.9432 23.2177 30.4479 23.0085 30.8212 22.6369L33.7452 19.7264L33.7516 19.72L33.7784 19.6931L33.7857 19.6857C34.8014 18.6547 35.4038 17.2923 35.4881 15.8559C35.4954 15.7309 35.4988 15.605 35.4982 15.4793C35.4977 15.3812 35.4949 15.2833 35.4896 15.1857C35.4103 13.7208 34.7924 12.3328 33.7489 11.2921L33.7466 11.2897L30.8166 8.35568C30.4454 7.98394 29.9429 7.77336 29.418 7.76903C29.4144 7.25305 29.211 6.74789 28.8333 6.36959L24.6957 2.22635L24.6842 2.21488C23.5635 1.11073 22.0513 0.495047 20.478 0.502382C18.7083 0.510633 17.248 0.494131 15.4784 0.502382C13.9058 0.509713 12.4001 1.13892 11.2898 2.25256L11.2884 2.25402L7.21294 6.33Z" fill="black"/>
<path d="M8.62729 7.7438L12.7053 3.66526C13.4427 2.92508 14.4431 2.50687 15.4879 2.502C16.5327 2.49713 17.5369 2.906 18.2812 3.63926L22.4187 7.78251C21.3276 7.867 20.2515 8.33938 19.4591 9.16309L15.6641 12.9581L11.8294 9.11068L11.8271 9.10835C10.9845 8.2658 9.84088 7.76944 8.62729 7.7438Z" fill="white"/>
<path d="M4.01137 12.3603L6.62876 9.7426H8.52836C9.24322 9.7426 9.91909 10.0285 10.413 10.5225L14.3382 14.4607C14.6948 14.8044 15.1687 14.9996 15.664 15.0066L15.677 15.0065C16.1535 15.0033 16.629 14.8213 16.9897 14.4607L20.8889 10.5614C21.3698 10.0545 22.0717 9.7686 22.7736 9.7686H24.4021L27.3357 12.7063C28.0296 13.3976 28.4405 14.32 28.4932 15.2935C28.4967 15.3583 28.4986 15.4234 28.4989 15.4886C28.4993 15.5722 28.4971 15.6558 28.4922 15.7387C28.4362 16.6926 28.0362 17.5973 27.3617 18.2819L27.3349 18.3088L24.4109 21.2193H22.7996C22.0847 21.2193 21.4088 20.9334 20.9149 20.4395L17.0027 16.5273C16.6388 16.1633 16.1579 15.9814 15.677 15.9814L15.664 15.9814L15.6502 15.9816C15.1783 15.9882 14.7084 16.1701 14.3512 16.5273L10.426 20.4525C9.91909 20.9464 9.24322 21.2323 8.54136 21.2323H6.62156L3.64132 18.2429C2.91112 17.5118 2.50098 16.5208 2.50098 15.4875C2.50098 14.6317 2.78231 13.8049 3.29379 13.1307C3.39988 12.9909 3.51588 12.8576 3.64132 12.732L4.01137 12.3603Z" fill="white"/>
<path d="M8.61484 23.2316L12.7254 27.3545C12.7899 27.4189 12.8564 27.4808 12.9248 27.5402C13.6325 28.1571 14.542 28.4999 15.4867 28.4999C16.52 28.4999 17.5111 28.0898 18.2422 27.3596L22.4175 23.2036C21.3101 23.1128 20.2775 22.6303 19.5008 21.8536L15.677 18.0297L11.8401 21.8666C11.834 21.8727 11.8278 21.8788 11.8216 21.8848C10.9754 22.7094 9.83398 23.2121 8.61484 23.2316Z" fill="white"/>
</svg>
