<svg width="23" height="23" viewBox="0 0 23 23" fill="none" xmlns="http://www.w3.org/2000/svg">
<path fill-rule="evenodd" clip-rule="evenodd" d="M5.3483 22.5875C6.62719 22.5875 7.66693 22.6851 8.59375 22.15L20.9126 14.3556C23.2459 13.0084 23.2459 9.64055 20.9126 8.2934L8.59375 0.499355C7.66693 -0.0357438 6.62719 0.0614133 5.34829 0.0618431C2.99256 0.0626347 0.34375 0.802631 0.34375 3.53044V19.1189C0.34375 21.8467 2.97248 22.5875 5.3483 22.5875Z" fill="black"/>
<path d="M17.625 9.59446C18.9583 10.3643 18.9583 12.2888 17.625 13.0586L4.84477 20.8528C3.51144 21.6226 1.84477 20.6603 1.84477 19.1207L1.84477 3.53228C1.84477 1.99268 3.51144 1.03043 4.84477 1.80023L17.625 9.59446Z" fill="white"/>
</svg>
