<svg width="55" height="30" viewBox="0 0 55 30" fill="none" xmlns="http://www.w3.org/2000/svg">
<path d="M24.7541 0.000488281C22.0379 0.000488281 19.8361 2.23907 19.8361 5.00049V10.0005H14.918C12.2019 10.0005 10 12.2391 10 15.0005C10 17.7619 12.2019 20.0005 14.918 20.0005H19.8361V25.0005C19.8361 27.7619 22.0379 30.0005 24.7541 30.0005C26.3934 30.0005 28.0328 30.0005 29.6721 30.0005C32.3883 30.0005 34.5902 27.7619 34.5902 25.0005V20.0005H39.5082C42.2244 20.0005 44.4262 17.7619 44.4262 15.0005C44.4262 12.2391 42.2243 10.0005 39.5082 10.0005H34.5902V5.00049C34.5902 2.23906 32.3883 0.000488281 29.6721 0.000488281C28.0328 0.000488281 26.3934 0.000488281 24.7541 0.000488281Z" fill="black"/>
<path fill-rule="evenodd" clip-rule="evenodd" d="M24.7537 2.00049C23.124 2.00049 21.8029 3.34363 21.8029 5.00049V12.0005H14.9176C13.2879 12.0005 11.9668 13.3436 11.9668 15.0005C11.9668 16.6573 13.2879 18.0005 14.9176 18.0005H21.8029V25.0005C21.8029 26.6573 23.124 28.0005 24.7537 28.0005C26.3834 28.0005 27.7045 26.6573 27.7045 25.0005V18.0005H34.5898C36.2194 18.0005 37.5406 16.6573 37.5406 15.0005C37.5406 13.3436 36.2194 12.0005 34.5898 12.0005H27.7045V5.00049C27.7045 3.34363 26.3834 2.00049 24.7537 2.00049Z" fill="white"/>
</svg>
