<svg width="54" height="40" viewBox="0 0 54 40" fill="none" xmlns="http://www.w3.org/2000/svg">
<path d="M0.233249 13.2026C0.236773 13.1859 0.240302 13.1709 0.243831 13.1559C0.24736 13.1409 0.250889 13.1259 0.254412 13.1093C0.238314 13.1854 0.229362 13.2287 0.225227 13.2487L0.222673 13.261L0.223826 13.2543L0.222345 13.2624L0.222673 13.261C0.0831195 14.0667 0.189838 14.9831 0.726549 15.8614C0.761788 16.0213 0.804111 16.1679 0.853445 16.3011C0.938017 16.541 1.19173 17.1342 1.90354 17.6939C2.30525 18.0138 3.16504 18.4935 4.08124 18.7334C4.12352 18.7801 4.16585 18.8201 4.21519 18.8667C4.72262 19.3399 5.34984 19.653 6.13213 19.7596C6.20965 19.7663 6.41404 19.773 6.66775 19.773H9.24722C9.64893 20.1328 10.1634 20.4527 10.84 20.6993H10.847C11.284 20.8592 11.6716 20.9258 12.1015 20.9791H12.1156C12.1896 20.9849 12.2582 21.0316 12.4066 21.1326L12.475 21.179C12.5807 21.2523 12.6864 21.3189 12.7921 21.3789C12.8555 21.6588 12.919 21.912 12.9895 22.0719C13.3559 22.9982 13.9832 23.458 14.3919 23.6912C14.5399 23.7712 14.695 23.8445 14.8712 23.9111C14.8289 24.5042 14.9064 25.1772 15.0826 25.8503C15.0826 25.8503 15.1391 26.0635 15.1602 26.1234C15.132 26.7898 15.3223 27.3696 15.6394 27.8627C15.9777 28.3825 16.4851 28.8356 17.2181 29.1354C17.2284 29.1354 17.2349 29.139 17.2432 29.1436C17.2463 29.1452 17.2496 29.147 17.2533 29.1488C17.4366 29.2154 17.648 29.2821 17.8947 29.3354C17.9863 29.4753 18.0779 29.6019 18.1695 29.7085C18.065 29.8007 17.9536 29.906 17.8422 30.0114L17.8383 30.0151C17.5916 30.2483 16.7318 31.2612 16.3794 31.7876C15.9848 32.374 15.8579 32.8738 15.8226 33.0937C15.6676 33.9667 15.9072 34.8596 16.5556 35.5593C16.901 35.9324 17.3943 36.319 18.1625 36.4989C18.6206 36.9653 19.0928 37.2119 19.6213 37.3918C19.6425 37.3984 19.727 37.7383 19.6918 37.6317C19.8821 38.2047 20.1781 38.6446 20.4459 38.9311C20.9675 39.4842 21.5947 39.7974 22.2713 39.924C22.5179 39.9707 22.8069 40.0106 23.1381 39.9973H27.6764C27.7163 39.9986 27.7564 39.9993 27.7966 39.9993H30.0183C30.0529 39.9998 30.088 39.9998 30.1235 39.9993H49.8706C51.8752 39.9993 53.5002 38.3742 53.5002 36.3696C53.5002 32.2267 51.0708 28.6512 47.5589 26.99C48.1558 26.0238 48.5002 24.8851 48.5002 23.666C48.5002 21.7732 47.67 20.0744 46.3537 18.9139C46.4263 18.7873 46.4879 18.6768 46.5293 18.6002C47.2693 18.1071 47.7767 17.594 48.1502 17.1075C48.1547 17.099 48.2227 17.0086 48.2748 16.9394C48.3041 16.9004 48.3284 16.8682 48.3334 16.861C48.714 16.3145 48.9325 15.8014 49.1087 15.3683C49.127 15.3267 49.1587 15.2507 49.1859 15.1856L49.1865 15.1843L49.187 15.183C49.2115 15.1244 49.2322 15.0746 49.2356 15.0684C49.5457 14.2754 49.5738 13.5358 49.3694 12.7095C49.3624 12.6895 49.0382 11.6965 48.9889 11.49L48.9748 11.4033C48.6365 10.0239 47.8119 9.29764 46.4728 8.94447C46.2685 8.89116 45.7892 8.8178 45.6906 8.80447C45.6885 8.80447 45.68 8.80336 45.6678 8.80178C45.6381 8.7979 45.5867 8.79121 45.5567 8.79121L45.3029 8.55792C44.577 7.88489 43.9569 7.42513 43.0759 7.09861C42.4346 6.86538 40.9545 6.70547 40.9193 6.70547H40.8981C40.8629 6.70547 40.5529 6.68545 40.3626 6.67212C40.3395 6.67212 40.3148 6.67066 40.2886 6.6691C40.2588 6.66733 40.2271 6.66545 40.1934 6.66545H40.1511C40.1229 6.66545 39.989 6.65877 39.9397 6.65211C39.7282 6.57214 39.5027 6.51216 39.2702 6.47218C39.0517 6.31225 38.8191 6.18567 38.5654 6.09238L38.0298 5.88577C37.9317 5.84602 37.8336 5.81951 37.7355 5.79302L37.7337 5.79255C37.6703 5.77256 37.5224 5.73919 37.5224 5.73919C37.5033 5.73196 37.4821 5.72277 37.4588 5.71269C37.4392 5.70419 37.4181 5.69505 37.3955 5.6859C37.3602 5.66591 37.325 5.64595 37.2827 5.62595C36.6343 5.33275 36.0564 5.19281 35.5702 5.12618C35.4151 4.63973 35.1262 4.20655 34.7174 3.84005C34.7174 3.83338 34.7157 3.82506 34.7139 3.81674C34.7121 3.80843 34.7104 3.80009 34.7104 3.79344C34.4285 2.20081 33.5193 1.59441 32.9273 1.28788C32.9132 1.28121 32.8991 1.27452 32.885 1.26119C32.3775 1.00797 31.7997 0.861408 31.1865 0.881399H25.5414C25.1185 0.481577 24.5476 0.168383 23.7442 0.0484358C23.4834 0.0151173 23.2368 -0.00491937 22.9972 0.00174434H16.1962C15.3011 -0.0249105 14.547 0.254981 13.8916 0.768087C13.5885 0.821396 13.3137 0.901338 13.067 0.99463H12.4397C11.9816 0.987966 11.6081 1.02794 11.4179 1.06792C10.107 1.36779 9.50794 2.14748 9.21194 2.85383C8.84547 2.85383 8.44379 2.90715 8.01388 3.02709C7.93635 3.02043 7.85878 3.02043 7.78125 3.02709C6.11096 2.98045 5.14543 3.86006 4.70143 4.44647C4.27857 5.01288 4.08828 5.61928 4.08124 6.19902C4.07419 6.21235 4.06721 6.23231 4.06721 6.24563C3.7994 6.92533 3.76413 7.69837 4.03194 8.45803C4.03899 8.46469 4.039 8.47129 4.039 8.47796C3.50337 8.70452 2.89024 9.05108 2.19957 9.60417C1.26223 10.3505 0.881639 11.1435 0.768877 11.8632C0.585638 12.1564 0.430586 12.4762 0.324871 12.8227C0.310776 12.876 0.29664 12.936 0.282544 12.996C0.275497 13.0093 0.247344 13.1293 0.233249 13.2026Z" fill="black"/>
<path d="M35.4996 17.3327C36.1453 17.3327 36.7684 17.4293 37.3552 17.6088C37.4314 17.4641 37.4856 17.3552 37.4856 17.3552C37.4856 17.3552 37.7676 16.8451 38.1554 16.5769C38.1554 16.5769 38.2118 16.5441 38.2189 16.5376C38.7407 16.2106 39.0934 15.8704 39.3472 15.5499C39.3684 15.5303 39.4529 15.4126 39.4529 15.4126C39.6893 15.0776 39.8218 14.7653 39.9357 14.4968L39.9607 14.438C39.9889 14.3595 40.0735 14.1698 40.0805 14.1567C40.1934 13.8755 40.1863 13.6139 40.1088 13.313C40.1088 13.3065 40.0876 13.2345 40.0876 13.2345C40.0523 13.1102 40.0101 12.986 39.9536 12.8421L39.9205 12.7452C39.8494 12.5382 39.7676 12.2999 39.7068 12.0179C39.6433 11.717 39.46 11.5731 39.1639 11.4946C39.051 11.4619 38.776 11.4358 38.776 11.4358C38.776 11.4358 38.4869 11.3965 38.4658 11.3965C38.4446 11.3965 38.3106 11.3769 38.2754 11.3704C37.9369 11.2984 37.549 11.1545 37.133 10.7948L36.7592 10.4612C36.322 10.0687 35.9765 9.76786 35.4476 9.57164C35.0386 9.42774 34.1007 9.34919 34.0796 9.34919C34.0796 9.34919 33.5155 9.31653 33.4943 9.31653C33.4943 9.31653 32.7045 9.30996 32.2321 9.12028C32.0064 9.0287 31.7243 9.081 31.4493 9.25761C31.4493 9.25761 31.3084 9.35579 31.2378 9.40812C31.2096 9.03529 31.1179 8.85213 31.0333 8.74093C30.9781 8.66693 30.9175 8.61768 30.8609 8.57165L30.8358 8.55122L30.2858 8.34842C30.0531 8.28955 29.7711 8.21768 29.5313 8.09994C29.5313 8.09994 29.3762 8.02791 29.355 8.02137C28.671 7.72049 28.1422 7.71397 27.7825 7.71397C27.7825 7.71397 27.5005 7.72709 27.4441 7.75325C27.4159 7.70747 27.3876 7.66818 27.3524 7.62894C27.1549 7.40655 26.7459 7.22341 26.1465 7.30844C25.8797 7.34556 25.7328 7.32417 25.6401 7.31067L25.6247 7.30844C25.526 7.28882 25.4484 7.28226 25.3849 7.29535C25.4484 7.22342 25.5259 7.15808 25.6034 7.0927C25.8714 6.87685 26.0478 6.60861 26.1042 6.37314C26.1888 6.02647 26.0619 5.72554 25.6881 5.58164C25.5964 5.54893 25.533 5.46397 25.4625 5.32007C25.3426 5.09114 25.2509 4.75099 25.1592 4.23426C25.0887 3.86143 24.9266 3.69132 24.7856 3.61283H24.7785C24.5881 3.52126 24.3413 3.54089 24.1015 3.71096C23.7489 3.95297 23.347 4.60051 23.2483 4.77058C23.2483 4.77058 22.8746 5.35931 22.7618 5.47704C22.656 5.39855 22.529 5.33962 22.3668 5.33308C22.1221 5.33308 21.9581 5.19503 21.8223 5.08075L21.7957 5.05842C21.7957 5.05842 21.6969 4.97992 21.6687 4.96683C21.5629 4.89488 21.4713 4.84912 21.3866 4.82295C21.0975 4.751 20.477 4.73135 20.1808 4.86871C20.0116 4.94066 19.9128 5.05184 19.8705 5.18265C19.8423 5.26769 19.8353 5.37233 19.8846 5.50315L19.88 5.50229C19.8463 5.49605 19.8129 5.48984 19.7859 5.48359C19.4827 5.4378 19.1795 5.39849 18.9961 5.41812C18.8128 5.43774 18.6153 5.54896 18.3897 5.69286L18.3347 5.72844C18.1421 5.85349 17.9162 6.00026 17.614 6.00026C17.607 6.00026 17.3249 5.92836 17.0499 5.63402C16.8665 5.43125 16.8595 5.20233 16.9018 4.99302C16.9441 4.81642 17.0146 4.64636 17.0781 4.50246C17.1557 4.31277 17.2191 4.14919 17.2332 4.03145C17.2473 3.8941 17.2121 3.78289 17.1557 3.69786C17.0922 3.60629 16.9864 3.52784 16.8172 3.48859V3.35126C16.8383 2.99805 16.7467 2.72985 16.3588 2.67753C15.9639 2.61212 15.696 2.83446 15.4492 3.11572C15.3928 3.1811 15.3364 3.24657 15.2659 3.29888C15.2236 3.33812 15.1671 3.37089 15.0896 3.3578C14.5184 3.30548 14.1799 3.44936 13.8626 3.58672L13.8357 3.59867C13.6838 3.6664 13.5406 3.73023 13.3408 3.72405C13.1857 3.71751 13.0022 3.69792 12.8259 3.6783C12.5157 3.63906 12.2265 3.6194 12.1137 3.64556C11.9233 3.69135 11.8458 3.80255 11.8176 3.89412C11.7894 3.97261 11.7823 4.07069 11.8528 4.18188C11.881 4.22767 11.9375 4.2931 12.0432 4.36505L12.001 4.51547C11.9093 4.7444 11.8599 4.97987 11.9445 5.16956C12.008 5.30692 12.142 5.45741 12.4452 5.54898C12.1632 5.69288 11.8599 5.86944 11.6343 6.07875C11.4721 6.22917 11.3028 6.38619 11.1124 6.49083C10.8938 6.60203 10.6611 6.64126 10.4073 6.47774C10.137 6.30042 10.0147 6.12888 9.91921 5.99506L9.89959 5.96761C9.77266 5.77792 9.65983 5.64711 9.46239 5.56208C9.25789 5.4705 9.00397 5.50316 8.6937 5.59473L8.64633 5.60805C8.44342 5.66538 8.19595 5.73529 7.87577 5.69286C7.361 5.63399 7.05066 5.8171 6.92373 5.98062C6.7968 6.15069 6.79685 6.3273 6.88147 6.47774C6.95198 6.59547 7.08597 6.70669 7.32572 6.74593H7.33984C6.88854 6.79172 6.69108 6.98797 6.62056 7.17765C6.56415 7.32155 6.56415 7.48505 6.62056 7.64203C6.68402 7.82518 6.81798 8.00176 6.95197 8.11295C7.02248 8.17836 7.10001 8.22421 7.17758 8.25691L7.20581 8.27648C7.21287 8.30264 7.22698 8.40728 7.21993 8.51194C7.19878 8.79974 7.11413 9.25113 6.92373 9.97717C6.84616 10.2519 6.78274 10.4481 6.70518 10.5789C6.66992 10.6508 6.63463 10.7031 6.59233 10.7228C6.52978 10.7518 6.45956 10.7486 6.37878 10.745C6.35027 10.7437 6.32042 10.7424 6.28915 10.7424L6.2792 10.7421C5.79269 10.729 5.06815 10.7095 3.88452 11.6319C3.32744 12.0702 3.38381 12.5346 3.48253 12.8551C3.20752 12.9794 2.98188 13.2345 2.88316 13.5485C2.85495 13.6466 2.84083 13.7382 2.86198 13.6466C2.77736 14.0129 2.86908 14.4511 3.25692 14.837C3.35564 14.9286 3.40498 15.0005 3.41203 15.0594C3.41908 15.0921 3.40497 15.1183 3.39791 15.1314C3.33445 15.2687 3.34861 15.3668 3.36977 15.4388C3.38387 15.478 3.44728 15.5761 3.57421 15.6742C3.83512 15.877 4.5121 16.2498 5.09738 16.2498C5.39355 16.2498 5.69675 16.1059 5.95766 15.9555C5.8942 16.2694 5.88719 16.4787 5.9154 16.6292C5.9436 16.7993 6.01413 16.9105 6.1058 16.989C6.19747 17.0805 6.31736 17.1329 6.46544 17.1525C6.59237 17.1656 7.23406 17.1263 7.60075 17.1001C7.68477 17.0954 7.77199 17.0919 7.86012 17.0883C8.14179 17.0768 8.43295 17.0649 8.65849 17.0151C8.92645 16.9562 9.138 16.845 9.27198 16.688C9.52584 16.3872 9.78675 16.1713 10.0618 16.0405C10.0618 16.0405 10.0758 16.034 10.1252 16.0144C10.1314 16.0115 10.1678 16.0022 10.2072 15.9922C10.257 15.9796 10.3117 15.9657 10.3156 15.962C10.4707 15.9293 10.6329 15.9228 10.8021 15.949C10.8233 16.0471 10.8021 16.3349 10.8021 16.3349C10.7739 17.0021 10.788 17.8524 11.8669 18.2383C12.0785 18.3102 12.2618 18.3364 12.4663 18.356L12.4734 18.3625C12.8471 18.4018 13.2914 18.4541 14.1658 19.0428C14.4549 19.2325 14.7441 19.2717 15.012 19.3044C15.0543 19.3109 15.2094 19.324 15.2165 19.324C15.3786 19.3633 15.4421 19.5006 15.4703 19.8865C15.5056 20.3117 15.5902 20.8873 15.696 21.1424C15.7595 21.2994 15.8511 21.3845 15.9216 21.4237C15.9992 21.4629 16.0979 21.4957 16.2178 21.5087C16.3871 21.5218 16.6127 21.5022 16.8384 21.476L16.8406 21.4758C16.9668 21.4628 17.0929 21.4498 17.2051 21.4433C17.2237 21.4433 17.2423 21.4451 17.2599 21.4468C17.2756 21.4484 17.2905 21.4498 17.3038 21.4498C17.4228 22.0447 17.5356 22.1336 17.7178 22.2772L17.755 22.3067C17.8397 22.3721 17.9455 22.4572 18.1006 22.6534C18.1853 22.7515 18.2346 22.8365 18.2487 22.9084C18.2416 22.9346 18.2416 22.9608 18.2416 22.9608C18.2416 23.0393 18.2064 23.1112 18.1641 23.1897L18.0936 23.3139L18.0771 23.3457C17.9887 23.5156 17.8845 23.7157 17.8115 23.968C17.7128 24.3082 17.8045 24.7529 17.9243 25.1912L17.9525 25.2893L17.9679 25.3438C18.0477 25.6263 18.1267 25.9057 18.0936 26.1331C18.0513 26.4078 18.1852 26.5975 18.4602 26.7022C18.4602 26.7022 18.4602 26.7087 18.4673 26.7087C18.6083 26.761 18.8058 26.7872 19.0314 26.7937C19.1572 26.7937 19.2922 26.788 19.4283 26.7823C19.4981 26.7793 19.5685 26.7763 19.6378 26.7741C19.8 26.761 19.9481 26.7545 20.068 26.7545L20.1879 27.2124C20.2373 27.4086 20.2937 27.6048 20.3571 27.7618C20.4135 27.9057 20.4841 28.0169 20.5546 28.0823C20.8155 28.3439 21.1046 28.285 21.3725 28.1411C21.3725 28.1411 21.4149 28.1935 21.429 28.2327C21.429 28.2458 21.436 28.2981 21.436 28.2981C21.4502 28.4289 21.4078 28.6121 21.295 28.8737C21.1751 29.1549 21.2456 29.3251 21.3303 29.4232C21.4078 29.5213 21.5488 29.5932 21.7322 29.6194C21.7392 29.6194 21.7745 29.6194 21.7886 29.6259C21.8238 29.6259 21.8591 29.6324 21.8943 29.639C21.9366 29.7436 21.9579 29.868 21.9649 29.9857V30.0642C21.972 30.2866 21.9437 30.5286 21.9155 30.6594L21.7675 30.7248C21.3937 30.8753 20.7661 31.1369 19.9904 31.8695C19.8 32.0461 19.1513 32.8048 18.8834 33.1973C18.7846 33.3412 18.7353 33.4655 18.7212 33.5178C18.6859 33.7271 18.7987 33.9494 19.2359 33.9494L19.2436 33.9497C19.4433 33.9562 19.8257 33.9687 20.1738 34.4465C20.4488 34.8194 20.7309 34.911 21.0693 34.996C21.0936 35.0035 21.1179 35.0107 21.1424 35.0179C21.2244 35.0421 21.3084 35.0669 21.4008 35.1072C21.6123 35.1922 21.845 35.3884 22.0989 35.6043C22.2046 35.6893 22.3105 35.7743 22.4233 35.8594C22.5714 35.9771 22.6771 36.1014 22.7053 36.1407C22.6912 36.1538 22.6771 36.1799 22.6701 36.193C22.5643 36.35 22.4867 36.5134 22.5431 36.7358C22.5925 36.9255 22.663 37.0825 22.7476 37.1676C22.8323 37.2526 22.924 37.3049 23.0297 37.3245C23.1778 37.3507 23.3964 37.3245 23.6432 37.076C23.9041 36.8143 23.9393 36.5985 23.9605 36.3957C23.9619 36.3851 23.9631 36.3744 23.9642 36.3637C23.9687 36.3218 23.9733 36.2791 23.9958 36.2322C24.1053 36.0341 24.1595 35.8756 24.1849 35.7442C24.4154 31.8691 26.7737 28.567 30.1076 26.99C29.5107 26.0238 29.1663 24.8851 29.1663 23.666C29.1663 20.1682 32.0018 17.3327 35.4996 17.3327Z" fill="white"/>
<path d="M31.8329 23.666C31.8329 21.6409 33.4746 19.9993 35.4996 19.9993C37.5246 19.9993 39.1663 21.6409 39.1663 23.666C39.1663 25.691 37.5246 27.3326 35.4996 27.3326C33.4746 27.3326 31.8329 25.691 31.8329 23.666Z" fill="white"/>
<path d="M26.833 36.3697C26.833 32.115 30.282 28.666 34.5366 28.666H36.4626C40.7172 28.666 44.1663 32.115 44.1663 36.3697C44.1663 36.9015 43.7351 37.3326 43.2033 37.3326H27.7959C27.2641 37.3326 26.833 36.9015 26.833 36.3697Z" fill="white"/>
</svg>
