<svg width="24" height="20" viewBox="0 0 24 20" fill="none" xmlns="http://www.w3.org/2000/svg">
<path d="M5.9473 1.74116C6.35346 1.75418 6.7457 1.59273 7.0232 1.29586C7.77891 0.48599 8.78174 0.0524075 9.79978 0.00292969H13.4663C13.7916 0.0133461 14.1158 0.0628239 14.4314 0.151363C15.1258 0.345368 15.7786 0.726869 16.3095 1.29586C16.5558 1.55888 16.8925 1.71643 17.2491 1.73856L17.3528 1.74116H17.3854C19.7424 1.66174 21.6745 3.59398 21.5948 5.95069C21.5811 6.35693 21.7435 6.74884 22.0405 7.02618C23.7634 8.63681 23.7634 11.3685 22.0405 12.9791C21.7435 13.2565 21.5811 13.6497 21.5948 14.0559C21.6743 16.4074 19.7499 18.3371 17.3992 18.2642C17.3946 18.2642 17.39 18.2642 17.3854 18.2642H17.3528L17.2491 18.2668C17.1074 18.2759 16.9689 18.3058 16.838 18.3553C16.7857 18.3748 16.7345 18.3983 16.6849 18.4243C16.5959 18.4712 16.5103 18.5285 16.4325 18.5936C16.3894 18.63 16.3483 18.6691 16.3095 18.7108C15.5392 19.535 14.5046 19.9659 13.4663 20.0024C13.4434 20.0024 13.4279 20.0024 13.4048 20.0024C13.3552 20.0024 13.3056 20.0024 13.256 20.0024H13.0196C12.9853 20.0024 12.9511 20.0024 12.9168 20.0024H12.7219C12.6849 20.0024 12.6478 20.0024 12.6108 20.0024H12.3515C12.3122 20.0037 12.2729 20.0024 12.2337 20.0011L12.0552 20.0024C12.0182 20.0024 11.9811 20.0024 11.9441 20.0024H11.7219C11.6849 20.0024 11.6478 20.0024 11.6108 20.0024H11.3886C11.3516 20.0024 11.3145 20.0024 11.2775 20.0024H11.0553C11.0182 20.0024 10.9812 20.0024 10.9442 20.0024H10.7372C10.6946 20.0024 10.6521 20.0024 10.6095 20.0024H10.0529C10.019 20.0024 9.98515 20.0024 9.95126 20.0024H9.79978C9.4542 19.9842 9.11079 19.9217 8.77779 19.8162C8.12965 19.6131 7.52249 19.2446 7.0232 18.7108C6.79774 18.4699 6.49648 18.3162 6.17361 18.2746C6.09911 18.2655 6.02347 18.2616 5.9473 18.2642C5.8 18.2694 5.65434 18.2668 5.51075 18.2563C3.35667 18.1014 1.66319 16.2655 1.73786 14.0559C1.75161 13.6497 1.58914 13.2565 1.29223 12.9791C-0.430744 11.3685 -0.430744 8.63681 1.29223 7.02618C1.58914 6.74884 1.75161 6.35693 1.73786 5.95069C1.65823 3.59398 3.59031 1.66174 5.9473 1.74116Z" fill="black"/>
<path d="M6.84099 9.635C6.84099 9.46307 6.98237 9.32368 7.15678 9.32368C7.33118 9.32368 7.47257 9.46307 7.47257 9.635C7.47257 9.80694 7.33118 9.94633 7.15678 9.94633C6.98237 9.94633 6.84099 9.80694 6.84099 9.635Z" fill="white"/>
<path d="M8.31467 9.635C8.31467 9.46307 8.45605 9.32368 8.63046 9.32368H12.841C13.0154 9.32368 13.1568 9.46307 13.1568 9.635C13.1568 9.80694 13.0154 9.94633 12.841 9.94633H8.63046C8.45605 9.94633 8.31467 9.80694 8.31467 9.635Z" fill="white"/>
<path d="M7.15712 11.5029C6.98271 11.5029 6.84133 11.6423 6.84133 11.8143C6.84133 11.9862 6.98271 12.1256 7.15712 12.1256C7.33153 12.1256 7.47291 11.9862 7.47291 11.8143C7.47291 11.6423 7.33153 11.5029 7.15712 11.5029Z" fill="white"/>
<path d="M8.6308 11.5029C8.4564 11.5029 8.31501 11.6423 8.31501 11.8143C8.31501 11.9862 8.4564 12.1256 8.6308 12.1256H12.8413C13.0157 12.1256 13.1571 11.9862 13.1571 11.8143C13.1571 11.6423 13.0157 11.5029 12.8413 11.5029H8.6308Z" fill="white"/>
<path d="M6.84133 13.9296C6.84133 13.7577 6.98271 13.6183 7.15712 13.6183C7.33153 13.6183 7.47291 13.7577 7.47291 13.9296C7.47291 14.1016 7.33153 14.241 7.15712 14.241C6.98271 14.241 6.84133 14.1016 6.84133 13.9296Z" fill="white"/>
<path d="M8.31501 13.9296C8.31501 13.7577 8.4564 13.6183 8.6308 13.6183H12.8413C13.0157 13.6183 13.1571 13.7577 13.1571 13.9296C13.1571 14.1016 13.0157 14.241 12.8413 14.241H8.6308C8.4564 14.241 8.31501 14.1016 8.31501 13.9296Z" fill="white"/>
<path fill-rule="evenodd" clip-rule="evenodd" d="M7.99701 2.20577C9.08035 1.04664 10.9185 1.04664 12.0019 2.20577C12.5422 2.78389 13.306 3.10028 14.0969 3.07355C15.6825 3.01996 16.9823 4.31975 16.9288 5.90542C16.902 6.69628 17.2184 7.4601 17.7965 8.00043C18.9557 9.08377 18.9557 10.922 17.7965 12.0053C17.2184 12.5456 16.902 13.3094 16.9288 14.1003C16.9823 15.686 15.6825 16.9858 14.0969 16.9322C14.0642 16.9311 14.0315 16.9305 13.9989 16.9306C13.788 16.9309 13.5797 16.9556 13.3776 17.0029H13.3788C12.8562 17.1254 12.3756 17.4001 12.0019 17.7999C10.9185 18.9591 9.08035 18.9591 7.99701 17.7999C7.45668 17.2218 6.69286 16.9054 5.902 16.9322C4.31634 16.9858 3.01654 15.686 3.07013 14.1003C3.09686 13.3094 2.78048 12.5456 2.20235 12.0053C1.04323 10.922 1.04323 9.08377 2.20235 8.00043C2.78047 7.4601 3.09686 6.69628 3.07013 5.90542C3.01654 4.31975 4.31634 3.01996 5.902 3.07355C6.69286 3.10028 7.45668 2.78389 7.99701 2.20577ZM8.31467 6.83312C8.31467 6.37462 8.6917 6.00293 9.15678 6.00293H10.841C11.3061 6.00293 11.6831 6.37462 11.6831 6.83312C11.6831 7.29162 11.3061 7.66331 10.841 7.66331H9.15678C8.6917 7.66331 8.31467 7.29162 8.31467 6.83312ZM13.9989 7.24067V14.9306C12.6899 14.9317 11.4367 15.4745 10.5396 16.4343C10.2468 16.7476 9.74989 16.7476 9.45706 16.4343C8.56023 15.4747 7.30741 14.932 5.99888 14.9306V7.24067C5.99888 7.13021 6.08843 7.04067 6.19888 7.04067H7.3093C7.41005 7.04067 7.49377 7.11609 7.51711 7.2141C7.69177 7.94748 8.35959 8.4935 9.15678 8.4935H10.841C11.6382 8.4935 12.306 7.94748 12.4807 7.2141C12.504 7.11609 12.5877 7.04067 12.6885 7.04067H13.7989C13.9093 7.04067 13.9989 7.13021 13.9989 7.24067Z" fill="white"/>
</svg>
