<svg width="28" height="30" viewBox="0 0 28 30" fill="none" xmlns="http://www.w3.org/2000/svg">
<path d="M18.4904 0.00146484C20.1399 0.00146484 21.5807 1.00459 22.1821 2.4543H25.4818C26.8474 2.4543 27.9545 3.56137 27.9545 4.92702V28.0015C27.9545 29.106 27.0591 30.0015 25.9545 30.0015H2.04541C0.940841 30.0015 0.0454102 29.106 0.0454102 28.0015V4.92702C0.0454102 3.56137 1.15249 2.4543 2.51814 2.4543H5.81784C6.41921 1.00459 7.86006 0.00146484 9.50953 0.00146484H18.4904Z" fill="black"/>
<path fill-rule="evenodd" clip-rule="evenodd" d="M9.50952 2.00146C8.41024 2.00146 7.51909 2.88 7.51909 3.96373C7.51909 5.04746 8.41024 5.92599 9.50952 5.92599H13.4904C14.5897 5.92599 15.4808 5.04746 15.4808 3.96373C15.4808 2.88 14.5897 2.00146 13.4904 2.00146H9.50952ZM5.63395 4.86423C5.57878 4.63257 5.38091 4.4543 5.14276 4.4543H2.51814C2.25706 4.4543 2.04541 4.66594 2.04541 4.92702V28.0015H20.9545V4.92702C20.9545 4.66594 20.7429 4.4543 20.4818 4.4543H17.8571C17.619 4.4543 17.4211 4.63257 17.366 4.86423C16.9531 6.59767 15.3746 7.88826 13.4904 7.88826H9.50952C7.62527 7.88826 6.04678 6.59767 5.63395 4.86423ZM4.78225 9.85052C4.37002 9.85052 4.03584 10.18 4.03584 10.5864C4.03584 10.9928 4.37002 11.3222 4.78225 11.3222C5.19448 11.3222 5.52866 10.9928 5.52866 10.5864C5.52866 10.18 5.19448 9.85052 4.78225 9.85052ZM8.2655 9.85052C7.85327 9.85052 7.51909 10.18 7.51909 10.5864C7.51909 10.9928 7.85327 11.3222 8.2655 11.3222H18.2177C18.6299 11.3222 18.9641 10.9928 18.9641 10.5864C18.9641 10.18 18.6299 9.85052 18.2177 9.85052H8.2655ZM4.03665 14.5742C4.03665 14.1678 4.37083 13.8384 4.78306 13.8384C5.19529 13.8384 5.52947 14.1678 5.52947 14.5742C5.52947 14.9806 5.19529 15.3101 4.78306 15.3101C4.37083 15.3101 4.03665 14.9806 4.03665 14.5742ZM7.5199 14.5742C7.5199 14.1678 7.85408 13.8384 8.26632 13.8384H18.2185C18.6307 13.8384 18.9649 14.1678 18.9649 14.5742C18.9649 14.9806 18.6307 15.3101 18.2185 15.3101H8.26632C7.85408 15.3101 7.5199 14.9806 7.5199 14.5742ZM4.78306 17.8384C4.37083 17.8384 4.03665 18.1678 4.03665 18.5742C4.03665 18.9806 4.37083 19.3101 4.78306 19.3101C5.19529 19.3101 5.52947 18.9806 5.52947 18.5742C5.52947 18.1678 5.19529 17.8384 4.78306 17.8384ZM8.26632 17.8384C7.85408 17.8384 7.5199 18.1678 7.5199 18.5742C7.5199 18.9806 7.85408 19.3101 8.26632 19.3101H18.2185C18.6307 19.3101 18.9649 18.9806 18.9649 18.5742C18.9649 18.1678 18.6307 17.8384 18.2185 17.8384H8.26632ZM4.78303 21.8384C4.3708 21.8384 4.03662 22.1678 4.03662 22.5742C4.03662 22.9806 4.3708 23.3101 4.78303 23.3101C5.19526 23.3101 5.52944 22.9806 5.52944 22.5742C5.52944 22.1678 5.19526 21.8384 4.78303 21.8384ZM8.26629 21.8384C7.85405 21.8384 7.51987 22.1678 7.51987 22.5742C7.51987 22.9806 7.85405 23.3101 8.26629 23.3101H18.2184C18.6307 23.3101 18.9648 22.9806 18.9648 22.5742C18.9648 22.1678 18.6307 21.8384 18.2184 21.8384H8.26629Z" fill="white"/>
</svg>
