<svg width="55" height="31" viewBox="0 0 55 31" fill="none" xmlns="http://www.w3.org/2000/svg">
<path d="M45.561 13.9419C45.0335 13.0794 44.083 12.5029 43 12.5029V12.4704C44.717 12.2674 46 11.0389 46 9.50293C46 9.25343 45.9525 8.70043 45.949 8.66943C45.92 8.42493 45.818 7.91443 45.814 7.89943C44.832 3.64393 39.997 0.50293 34 0.50293H29C23.0015 0.50293 18.165 3.64543 17.185 7.90293C17.1815 7.91793 17.0795 8.42643 17.051 8.67093C17.0475 8.70193 17 9.25393 17 9.50293V11.0149C16.5685 10.6884 16.0505 10.5029 15.5 10.5029H10.5C9.832 10.5029 9.2045 10.7629 8.732 11.2349C8.26 11.7074 8 12.3354 8 13.0029C8 13.6214 8.223 14.2059 8.6315 14.6639C8.236 15.1719 8 15.8104 8 16.5029V17.5029C8 18.2414 8.4045 18.8794 9 19.2254V24.5029C9 25.8064 9.8365 26.9149 11 27.3279V27.6279C11 29.2134 12.29 30.5029 13.875 30.5029H18.875C20.4605 30.5029 21.75 29.2134 21.75 27.6279V27.5029H28.4205C29.194 29.2664 30.9545 30.5029 33 30.5029H38C40.046 30.5029 41.8065 29.2664 42.5795 27.5029H43C44.6545 27.5029 46 26.1574 46 24.5029V19.2254C46.5955 18.8794 47 18.2414 47 17.5029V16.5029C47 15.4204 46.4235 14.4694 45.561 13.9419Z" fill="black"/>
<path fill-rule="evenodd" clip-rule="evenodd" d="M29.5002 15.503H30.0002C30.0002 14.951 30.4482 14.503 31.0002 14.503H38.0002C38.5522 14.503 39.0002 14.951 39.0002 15.503C39.5522 15.503 40.0003 15.951 40.0003 16.503V17.503H10.0001V16.503C10.0001 15.951 10.4481 15.503 11.0001 15.503H12.2931L10.1466 13.3565C9.95112 13.161 9.95112 12.845 10.1466 12.6495C10.3421 12.454 10.6586 12.454 10.8536 12.6495L12.7076 14.503H19.0002C19.5522 14.503 20.0002 14.951 20.0002 15.503H21.0002C21.0002 14.951 21.4482 14.503 22.0002 14.503H27.0002C27.5522 14.503 28.0002 14.951 28.0002 15.503H28.5002V10.2435C28.2347 10.403 27.8862 10.503 27.5002 10.503C26.6717 10.503 26.0002 10.055 26.0002 9.50296C26.0002 5.63694 27.3437 2.50293 29.0002 2.50293C29.3112 2.50293 29.6107 2.61293 29.8922 2.81743C30.0802 2.95393 30.2602 3.13243 30.4302 3.34793C30.6852 3.67094 30.9177 4.07794 31.1217 4.55344C31.6647 5.81994 32.0002 7.56995 32.0002 9.50296C32.0002 10.055 31.3287 10.503 30.5002 10.503C30.1142 10.503 29.7662 10.403 29.5002 10.2435V15.503ZM20.5002 10.503C19.6717 10.503 19.0002 10.055 19.0002 9.50296C19.0002 6.16194 22.3462 3.37243 26.8192 2.67493C25.6207 4.15693 25.0002 6.83795 25.0002 9.50296C25.0002 10.055 24.3287 10.503 23.5002 10.503C22.9442 10.503 22.4587 10.301 22.1992 10.0015C22.0907 9.87546 21.9097 9.87546 21.8012 10.0015C21.5422 10.301 21.0567 10.503 20.5002 10.503ZM33.0002 9.50296C33.0002 6.83795 32.3797 4.15693 31.1817 2.67493C35.6542 3.37243 39.0002 6.16194 39.0002 9.50296C39.0002 10.055 38.3287 10.503 37.5002 10.503C36.9442 10.503 36.4587 10.301 36.1992 10.0015C36.0907 9.87546 35.9097 9.87546 35.8012 10.0015C35.5422 10.301 35.0567 10.503 34.5002 10.503C33.6717 10.503 33.0002 10.055 33.0002 9.50296ZM33.0002 22.503C34.6572 22.503 36.0002 23.8465 36.0002 25.503C36.0002 27.16 34.6572 28.5025 33.0002 28.5025C31.3437 28.5025 30.0002 27.16 30.0002 25.503C30.0002 23.8465 31.3437 22.503 33.0002 22.503ZM33.0002 26.503C33.5522 26.503 34.0002 26.055 34.0002 25.503C34.0002 24.951 33.5522 24.503 33.0002 24.503C32.4482 24.503 32.0002 24.951 32.0002 25.503C32.0002 26.055 32.4482 26.503 33.0002 26.503ZM11.0001 18.503H39.0002V24.503C39.0002 25.055 38.5522 25.503 38.0002 25.503H37.0002C37.0002 23.2975 35.2057 21.503 33.0002 21.503C30.7947 21.503 29.0002 23.2975 29.0002 25.503H14.7501V27.628C14.7501 28.111 14.3586 28.5025 13.8751 28.5025C13.3921 28.5025 13.0001 28.111 13.0001 27.628V25.503H12.0001C11.4481 25.503 11.0001 25.055 11.0001 24.503V18.503Z" fill="white"/>
</svg>
