<svg width="27" height="23" viewBox="0 0 27 23" fill="none" xmlns="http://www.w3.org/2000/svg">
<path d="M14.25 22.625C14.3755 22.625 14.5005 22.6229 14.625 22.6189C14.7495 22.6229 14.8745 22.625 15 22.625C21.2132 22.625 26.2499 17.5882 26.2499 11.375C26.2499 5.1618 21.2132 0.125 15 0.125C14.8745 0.125 14.7495 0.127055 14.625 0.131132C14.5005 0.127055 14.3755 0.125 14.25 0.125C14.1245 0.125 13.9995 0.127055 13.875 0.131132C13.7505 0.127055 13.6255 0.125 13.5 0.125C13.3745 0.125 13.2495 0.127055 13.125 0.131132C13.0005 0.127055 12.8755 0.125 12.75 0.125C12.6245 0.125 12.4995 0.127055 12.375 0.131132C12.2505 0.127055 12.1255 0.125 12 0.125C11.8745 0.125 11.7495 0.127055 11.625 0.131132C11.5005 0.127055 11.3755 0.125 11.25 0.125C5.03678 0.125 0 5.1618 0 11.375C0 17.5882 5.03678 22.625 11.25 22.625C11.3755 22.625 11.5005 22.6229 11.625 22.6189C11.7495 22.6229 11.8745 22.625 12 22.625C12.1255 22.625 12.2505 22.6229 12.375 22.6189C12.4995 22.6229 12.6245 22.625 12.75 22.625C12.8755 22.625 13.0005 22.6229 13.125 22.6189C13.2495 22.6229 13.3745 22.625 13.5 22.625C13.6255 22.625 13.7505 22.6229 13.875 22.6189C13.9995 22.6229 14.1245 22.625 14.25 22.625Z" fill="black"/>
<path fill-rule="evenodd" clip-rule="evenodd" d="M11.25 21.125C16.6347 21.125 21 16.7598 21 11.375C21 5.99022 16.6347 1.625 11.25 1.625C5.86521 1.625 1.5 5.99022 1.5 11.375C1.5 16.7598 5.86521 21.125 11.25 21.125ZM8.43766 10.2498C8.95543 10.2498 9.37516 9.83008 9.37516 9.31232C9.37516 8.79455 8.95543 8.37482 8.43766 8.37482C7.9199 8.37482 7.50017 8.79455 7.50017 9.31232C7.50017 9.83008 7.9199 10.2498 8.43766 10.2498ZM11.2502 11.7498C10.209 11.7498 9.20215 12.0829 8.37211 12.69C8.03772 12.9346 8.04051 13.4152 8.33346 13.7081C8.62641 14.0011 9.09836 13.9923 9.4487 13.7712C9.98367 13.4335 10.6075 13.2501 11.2502 13.2501C11.8929 13.2501 12.5166 13.4335 13.0516 13.7712C13.402 13.9923 13.8739 14.0011 14.1669 13.7081C14.4598 13.4152 14.4626 12.9346 14.1282 12.69C13.2982 12.0829 12.2913 11.7498 11.2502 11.7498ZM15.0001 9.31232C15.0001 9.83008 14.5804 10.2498 14.0627 10.2498C13.5449 10.2498 13.1252 9.83008 13.1252 9.31232C13.1252 8.79455 13.5449 8.37482 14.0627 8.37482C14.5804 8.37482 15.0001 8.79455 15.0001 9.31232Z" fill="white"/>
</svg>
