<svg width="27" height="23" viewBox="0 0 27 23" fill="none" xmlns="http://www.w3.org/2000/svg">
<path d="M14.25 22.875C14.3755 22.875 14.5005 22.8729 14.625 22.8689C14.7495 22.8729 14.8745 22.875 15 22.875C21.2132 22.875 26.2499 17.8382 26.2499 11.625C26.2499 5.4118 21.2132 0.375 15 0.375C14.8745 0.375 14.7495 0.377055 14.625 0.381132C14.5005 0.377055 14.3755 0.375 14.25 0.375C14.1245 0.375 13.9995 0.377055 13.875 0.381132C13.7505 0.377055 13.6255 0.375 13.5 0.375C13.3745 0.375 13.2495 0.377055 13.125 0.381132C13.0005 0.377055 12.8755 0.375 12.75 0.375C12.6245 0.375 12.4995 0.377055 12.375 0.381132C12.2505 0.377055 12.1255 0.375 12 0.375C11.8745 0.375 11.7495 0.377055 11.625 0.381132C11.5005 0.377055 11.3755 0.375 11.25 0.375C5.03678 0.375 0 5.4118 0 11.625C0 17.8382 5.03678 22.875 11.25 22.875C11.3755 22.875 11.5005 22.8729 11.625 22.8689C11.7495 22.8729 11.8745 22.875 12 22.875C12.1255 22.875 12.2505 22.8729 12.375 22.8689C12.4995 22.8729 12.6245 22.875 12.75 22.875C12.8755 22.875 13.0005 22.8729 13.125 22.8689C13.2495 22.8729 13.3745 22.875 13.5 22.875C13.6255 22.875 13.7505 22.8729 13.875 22.8689C13.9995 22.8729 14.1245 22.875 14.25 22.875Z" fill="black"/>
<path fill-rule="evenodd" clip-rule="evenodd" d="M11.25 21.375C16.6347 21.375 20.9999 17.0098 20.9999 11.625C20.9999 6.24022 16.6347 1.875 11.25 1.875C5.86521 1.875 1.5 6.24022 1.5 11.625C1.5 17.0098 5.86521 21.375 11.25 21.375ZM8.43767 10.125C8.95543 10.125 9.37516 9.70527 9.37516 9.1875C9.37516 8.66973 8.95543 8.25 8.43767 8.25C7.9199 8.25 7.50017 8.66973 7.50017 9.1875C7.50017 9.70527 7.9199 10.125 8.43767 10.125ZM11.2502 16.5C12.2913 16.5 13.2982 16.1669 14.1282 15.5598C14.4626 15.3152 14.4598 14.8347 14.1669 14.5417C13.8739 14.2488 13.402 14.2575 13.0516 14.4787C12.5166 14.8164 11.8929 14.9997 11.2502 14.9997C10.6075 14.9997 9.98367 14.8164 9.4487 14.4787C9.09836 14.2575 8.62641 14.2488 8.33346 14.5417C8.04051 14.8347 8.03772 15.3152 8.37211 15.5598C9.20216 16.1669 10.209 16.5 11.2502 16.5ZM15.0001 9.1875C15.0001 9.70527 14.5804 10.125 14.0627 10.125C13.5449 10.125 13.1252 9.70527 13.1252 9.1875C13.1252 8.66973 13.5449 8.25 14.0627 8.25C14.5804 8.25 15.0001 8.66973 15.0001 9.1875Z" fill="white"/>
</svg>
