<svg width="27" height="24" viewBox="0 0 27 24" fill="none" xmlns="http://www.w3.org/2000/svg">
<path d="M14.25 23.25C14.3755 23.25 14.5005 23.2479 14.625 23.2439C14.7495 23.2479 14.8745 23.25 15 23.25C21.2132 23.25 26.2499 18.2132 26.2499 12C26.2499 5.7868 21.2132 0.75 15 0.75C14.8745 0.75 14.7495 0.752055 14.625 0.756132C14.5005 0.752055 14.3755 0.75 14.25 0.75C14.1245 0.75 13.9995 0.752055 13.875 0.756132C13.7505 0.752055 13.6255 0.75 13.5 0.75C13.3745 0.75 13.2495 0.752055 13.125 0.756132C13.0005 0.752055 12.8755 0.75 12.75 0.75C12.6245 0.75 12.4995 0.752055 12.375 0.756132C12.2505 0.752055 12.1255 0.75 12 0.75C11.8745 0.75 11.7495 0.752055 11.625 0.756132C11.5005 0.752055 11.3755 0.75 11.25 0.75C5.03678 0.75 0 5.7868 0 12C0 18.2132 5.03678 23.25 11.25 23.25C11.3755 23.25 11.5005 23.2479 11.625 23.2439C11.7495 23.2479 11.8745 23.25 12 23.25C12.1255 23.25 12.2505 23.2479 12.375 23.2439C12.4995 23.2479 12.6245 23.25 12.75 23.25C12.8755 23.25 13.0005 23.2479 13.125 23.2439C13.2495 23.2479 13.3745 23.25 13.5 23.25C13.6255 23.25 13.7505 23.2479 13.875 23.2439C13.9995 23.2479 14.1245 23.25 14.25 23.25Z" fill="black"/>
<path fill-rule="evenodd" clip-rule="evenodd" d="M11.25 21.75C16.6347 21.75 21 17.3848 21 12C21 6.61522 16.6347 2.25 11.25 2.25C5.86521 2.25 1.5 6.61522 1.5 12C1.5 17.3848 5.86521 21.75 11.25 21.75ZM8.4384 10.5C8.95616 10.5 9.37589 10.0803 9.37589 9.5625C9.37589 9.04473 8.95616 8.625 8.4384 8.625C7.92063 8.625 7.5009 9.04473 7.5009 9.5625C7.5009 10.0803 7.92063 10.5 8.4384 10.5ZM14.0634 10.5C14.5811 10.5 15.0009 10.0803 15.0009 9.5625C15.0009 9.04473 14.5811 8.625 14.0634 8.625C13.5456 8.625 13.1259 9.04473 13.1259 9.5625C13.1259 10.0803 13.5456 10.5 14.0634 10.5ZM6.37517 14.625C6.37517 14.2108 6.71096 13.875 7.12517 13.875H15.3751C15.7894 13.875 16.1251 14.2108 16.1251 14.625C16.1251 15.0392 15.7894 15.375 15.3751 15.375H7.12517C6.71096 15.375 6.37517 15.0392 6.37517 14.625Z" fill="white"/>
</svg>
