<svg width="35" height="31" viewBox="0 0 35 31" fill="none" xmlns="http://www.w3.org/2000/svg">
<path d="M19 30.5039C19.1673 30.5039 19.334 30.5012 19.5 30.4957C19.666 30.5012 19.8326 30.5039 20 30.5039C28.2842 30.5039 34.9999 23.7882 34.9999 15.5039C34.9999 7.21964 28.2842 0.503906 20 0.503906C19.8326 0.503906 19.666 0.506646 19.5 0.512083C19.334 0.506646 19.1673 0.503906 19 0.503906C18.8326 0.503906 18.666 0.506646 18.5 0.512083C18.334 0.506646 18.1673 0.503906 18 0.503906C17.8326 0.503906 17.666 0.506646 17.5 0.512083C17.334 0.506646 17.1673 0.503906 17 0.503906C16.8326 0.503906 16.666 0.506646 16.5 0.512083C16.334 0.506646 16.1673 0.503906 16 0.503906C15.8326 0.503906 15.666 0.506646 15.5 0.512083C15.334 0.506646 15.1673 0.503906 15 0.503906C6.71571 0.503906 0 7.21964 0 15.5039C0 23.7882 6.71571 30.5039 15 30.5039C15.1673 30.5039 15.334 30.5012 15.5 30.4957C15.666 30.5012 15.8326 30.5039 16 30.5039C16.1673 30.5039 16.334 30.5012 16.5 30.4957C16.666 30.5012 16.8326 30.5039 17 30.5039C17.1673 30.5039 17.334 30.5012 17.5 30.4957C17.666 30.5012 17.8326 30.5039 18 30.5039C18.1673 30.5039 18.334 30.5012 18.5 30.4957C18.666 30.5012 18.8326 30.5039 19 30.5039Z" fill="black"/>
<path fill-rule="evenodd" clip-rule="evenodd" d="M14.998 28.4961C22.1777 28.4961 27.998 22.6758 27.998 15.4961C27.998 8.31639 22.1777 2.49609 14.998 2.49609C7.81833 2.49609 1.99805 8.31639 1.99805 15.4961C1.99805 22.6758 7.81833 28.4961 14.998 28.4961ZM11.2483 13.4961C11.9386 13.4961 12.4983 12.9364 12.4983 12.2461C12.4983 11.5557 11.9386 10.9961 11.2483 10.9961C10.5579 10.9961 9.99827 11.5557 9.99827 12.2461C9.99827 12.9364 10.5579 13.4961 11.2483 13.4961ZM21.0035 17.9835C21.1595 17.6069 21.2793 17.2173 21.362 16.8201C21.512 16.0992 20.9013 15.4961 20.1649 15.4961H9.8316C9.09523 15.4961 8.48455 16.0992 8.63455 16.8201C8.71719 17.2173 8.83704 17.6069 8.99306 17.9835C9.31971 18.7722 9.79849 19.4887 10.4021 20.0923C11.0057 20.6959 11.7222 21.1747 12.5108 21.5013C13.2994 21.828 14.1447 21.9961 14.9983 21.9961C15.8518 21.9961 16.6971 21.828 17.4857 21.5013C18.2743 21.1747 18.9909 20.6959 19.5944 20.0923C20.198 19.4887 20.6768 18.7722 21.0035 17.9835ZM19.9982 12.2461C19.9982 12.9364 19.4386 13.4961 18.7482 13.4961C18.0579 13.4961 17.4983 12.9364 17.4983 12.2461C17.4983 11.5557 18.0579 10.9961 18.7482 10.9961C19.4386 10.9961 19.9982 11.5557 19.9982 12.2461Z" fill="white"/>
</svg>
