<svg width="27" height="23" viewBox="0 0 27 23" fill="none" xmlns="http://www.w3.org/2000/svg">
<path d="M14.25 23C14.3755 23 14.5005 22.9979 14.625 22.9939C14.7495 22.9979 14.8745 23 15 23C21.2132 23 26.2499 17.9632 26.2499 11.75C26.2499 5.5368 21.2132 0.5 15 0.5C14.8745 0.5 14.7495 0.502055 14.625 0.506132C14.5005 0.502055 14.3755 0.5 14.25 0.5C14.1245 0.5 13.9995 0.502055 13.875 0.506132C13.7505 0.502055 13.6255 0.5 13.5 0.5C13.3745 0.5 13.2495 0.502055 13.125 0.506132C13.0005 0.502055 12.8755 0.5 12.75 0.5C12.6245 0.5 12.4995 0.502055 12.375 0.506132C12.2505 0.502055 12.1255 0.5 12 0.5C11.8745 0.5 11.7495 0.502055 11.625 0.506132C11.5005 0.502055 11.3755 0.5 11.25 0.5C5.03678 0.5 0 5.5368 0 11.75C0 17.9632 5.03678 23 11.25 23C11.3755 23 11.5005 22.9979 11.625 22.9939C11.7495 22.9979 11.8745 23 12 23C12.1255 23 12.2505 22.9979 12.375 22.9939C12.4995 22.9979 12.6245 23 12.75 23C12.8755 23 13.0005 22.9979 13.125 22.9939C13.2495 22.9979 13.3745 23 13.5 23C13.6255 23 13.7505 22.9979 13.875 22.9939C13.9995 22.9979 14.1245 23 14.25 23Z" fill="black"/>
<path fill-rule="evenodd" clip-rule="evenodd" d="M11.25 21.5C16.6347 21.5 21 17.1348 21 11.75C21 6.36522 16.6347 2 11.25 2C5.86521 2 1.5 6.36522 1.5 11.75C1.5 17.1348 5.86521 21.5 11.25 21.5ZM8.4384 10.25C8.95616 10.25 9.37589 9.83027 9.37589 9.3125C9.37589 8.79473 8.95616 8.375 8.4384 8.375C7.92063 8.375 7.5009 8.79473 7.5009 9.3125C7.5009 9.83027 7.92063 10.25 8.4384 10.25ZM6.74626 14.7587C6.62925 15.0412 6.53936 15.3333 6.47737 15.6313C6.36488 16.172 6.82288 16.6243 7.37517 16.6243H15.1251C15.6774 16.6243 16.1354 16.172 16.0229 15.6313C15.961 15.3333 15.8711 15.0412 15.7541 14.7587C15.5091 14.1672 15.15 13.6298 14.6973 13.1771C14.2446 12.7244 13.7072 12.3653 13.1157 12.1204C12.5243 11.8754 11.8903 11.7493 11.2502 11.7493C10.61 11.7493 9.97604 11.8754 9.38458 12.1204C8.79312 12.3653 8.2557 12.7244 7.80302 13.1771C7.35034 13.6298 6.99125 14.1672 6.74626 14.7587ZM15.0009 9.3125C15.0009 9.83027 14.5811 10.25 14.0634 10.25C13.5456 10.25 13.1259 9.83027 13.1259 9.3125C13.1259 8.79473 13.5456 8.375 14.0634 8.375C14.5811 8.375 15.0009 8.79473 15.0009 9.3125Z" fill="white"/>
</svg>
