<svg width="55" height="31" viewBox="0 0 55 31" fill="none" xmlns="http://www.w3.org/2000/svg">
<path d="M30.7343 1.50317C30.3889 0.903618 29.7416 0.5 29 0.5H24.5C24.3852 0.5 24.2709 0.502036 24.157 0.506075C24.1052 0.50205 24.0529 0.5 24 0.5H19.5C14.2533 0.5 10 4.7533 10 10V21C10 26.2467 14.2533 30.5 19.5 30.5H35.5C40.7467 30.5 45 26.2467 45 21V16.5C45 15.7529 44.5904 15.1015 43.9835 14.7581C43.9944 14.6736 44 14.5875 44 14.5V10C44 5.30558 40.1944 1.5 35.5 1.5H31C30.9451 1.5 30.8907 1.50221 30.8369 1.50655C30.8027 1.50522 30.7685 1.50409 30.7343 1.50317Z" fill="black"/>
<path d="M24 7.5H19.5C18.1193 7.5 17 8.61929 17 10V21C17 22.3807 18.1193 23.5 19.5 23.5H30.5C31.8807 23.5 33 22.3807 33 21V16.5H38V21C38 25.1421 34.6421 28.5 30.5 28.5H19.5C15.3579 28.5 12 25.1421 12 21V10C12 5.85787 15.3579 2.5 19.5 2.5H24V7.5Z" fill="white"/>
<path d="M26 3.5H30.5C34.0899 3.5 37 6.41015 37 10V14.5H34V10C34 9.60418 33.9343 9.22371 33.8132 8.8689L25.0608 17.6213L22.9395 15.5L31.7207 6.71876C31.3406 6.57731 30.9293 6.5 30.5 6.5H26V3.5Z" fill="white"/>
</svg>
