<svg width="55" height="31" viewBox="0 0 55 31" fill="none" xmlns="http://www.w3.org/2000/svg">
<path d="M54.2521 7.03193C53.3166 5.47193 51.5866 4.50293 49.7376 4.50293C48.9756 4.50293 48.2241 4.67943 47.5421 4.99993C47.3341 4.69943 47.0671 4.44193 46.7416 4.25343L45.1166 3.31543C44.7386 3.09693 44.3081 2.98093 43.8721 2.97893C43.8181 2.94143 43.7626 2.90643 43.7051 2.87293L41.4396 1.56493C41.0866 1.36143 40.6856 1.25393 40.2786 1.25393C40.2436 1.25393 40.2086 1.25443 40.1736 1.25593C39.1011 0.76743 37.9916 0.50293 36.9851 0.50293H31.9871C30.6941 0.50293 29.5921 0.94693 28.8836 1.75243C28.3956 2.30793 28.2296 3.06143 28.4396 3.76893C28.6481 4.47193 29.1946 5.00943 29.9011 5.20643C30.0566 5.25543 30.6206 5.50693 31.5401 5.99443L31.2301 6.50293H22.0001C21.6221 6.50293 21.2541 6.54343 20.8956 6.61143L20.4316 6.14693C20.5526 4.63343 20.0101 3.11493 18.9206 2.02543C18.0296 1.13443 16.8446 0.59543 15.5841 0.50943C15.5216 0.50493 15.4586 0.50293 15.3956 0.50293H10.3976C9.67009 0.50293 8.98909 0.782931 8.48009 1.29243L8.35959 1.41243C7.91359 1.85893 7.62909 2.42443 7.53659 3.03693C6.92409 3.12943 6.35859 3.41393 5.91209 3.85993L5.78959 3.98243C5.25259 4.51993 4.96609 5.25193 5.00359 5.99193C5.02659 6.44693 5.11259 6.88643 5.24559 7.30843C5.23359 7.30393 5.22209 7.29743 5.21009 7.29343L3.29159 6.61643C3.07259 6.53943 2.84809 6.50243 2.62659 6.50243C1.92809 6.50243 1.25959 6.86993 0.894091 7.50343L0.267592 8.58893C-0.213408 9.42293 -0.0319086 10.4809 0.699091 11.1074L2.24409 12.4304C2.52059 12.6674 2.85609 12.8239 3.21509 12.8844L3.91009 13.0004L4.79809 13.5129C3.23809 13.6179 2.00009 14.9169 2.00009 16.5029V17.5029C2.00009 18.3884 2.38809 19.1829 3.00009 19.7324V26.5029C3.00009 28.7084 4.79459 30.5029 7.00009 30.5029H47.9986C50.2041 30.5029 51.9986 28.7084 51.9986 26.5029V19.7324C52.6106 19.1829 52.9986 18.3884 52.9986 17.5029V16.5029C52.9986 15.6759 52.6621 14.9264 52.1191 14.3829C52.2066 14.3389 52.2971 14.3024 52.3826 14.2534C53.6066 13.5464 54.4761 12.4034 54.8306 11.0349C55.1851 9.66693 54.9796 8.24493 54.2521 7.03193Z" fill="black"/>
<path fill-rule="evenodd" clip-rule="evenodd" d="M28.0001 20.5098H22.0001C21.4481 20.5098 21.0001 20.0618 21.0001 19.5098V18.5028C21.0001 17.9503 21.4481 17.5028 22.0001 17.5028H28.0001C28.5521 17.5028 29.0001 17.9503 29.0001 18.5028V19.5098C29.0001 20.0618 28.5521 20.5098 28.0001 20.5098ZM30.0001 19.5028H45.0002V26.5028C45.0002 27.6073 44.1047 28.5028 43.0002 28.5028H7.00002C5.89552 28.5028 5.00001 27.6073 5.00001 26.5028V19.5028H20.0001V19.5098C20.0001 20.6128 20.8971 21.5098 22.0001 21.5098H28.0001C29.1031 21.5098 30.0001 20.6128 30.0001 19.5098V19.5028ZM45.0002 15.5027C45.5527 15.5027 46.0002 15.9507 46.0002 16.5028V17.5028C46.0002 18.0548 45.5527 18.5028 45.0002 18.5028H30.0001C30.0001 17.3998 29.1031 16.5028 28.0001 16.5028H22.0001C20.8971 16.5028 20.0001 17.3998 20.0001 18.5028H5.00001C4.44801 18.5028 4.00001 18.0548 4.00001 17.5028V16.5028C4.00001 15.9507 4.44801 15.5027 5.00001 15.5027H18.0001V12.5027C18.0001 10.2937 19.7911 8.50272 22.0001 8.50272H28.0001C30.2091 8.50272 32.0001 10.2937 32.0001 12.5027V15.5027H45.0002ZM19.7501 15.5027H30.2501V12.5027C30.2501 11.2622 29.2406 10.2527 28.0001 10.2527H22.0001C20.7596 10.2527 19.7501 11.2622 19.7501 12.5027V15.5027ZM40.7437 5.98571C40.9892 6.12721 41.0732 6.44122 40.9312 6.68672L39.8322 8.59072C39.6907 8.83622 39.3767 8.92022 39.1312 8.77822L37.5066 7.84023C37.2611 7.69873 37.1771 7.38472 37.3186 7.13972L37.3846 7.02571C37.4291 6.94871 37.4026 6.84972 37.3256 6.80522C37.2486 6.76072 37.1236 6.68822 37.0461 6.64372C36.9691 6.59922 36.8706 6.62621 36.8261 6.70321C36.7371 6.85721 36.5396 6.91022 36.3856 6.82072L34.1511 5.53121C34.0231 5.45671 33.9646 5.30771 34.0006 5.17071C34.0146 5.11621 33.9791 5.05921 33.9306 5.03121C32.3281 4.11071 30.9411 3.4202 30.4391 3.28019C30.3486 3.25519 30.3236 3.14369 30.3856 3.07319C31.1326 2.22369 33.0551 2.3282 34.8981 3.35521C34.9476 3.38271 35.0141 3.3857 35.0546 3.3457C35.1556 3.2472 35.3131 3.22319 35.4416 3.29719L37.7066 4.60471C37.8596 4.69321 37.8692 4.87771 37.7892 5.03521C37.7507 5.11071 37.7781 5.2047 37.8526 5.2477C37.9296 5.2922 38.0546 5.36421 38.1317 5.40871C38.2092 5.45321 38.3076 5.42671 38.3521 5.34971L38.4182 5.23571C38.5597 4.99021 38.8737 4.9057 39.1187 5.0477L40.7437 5.98571ZM4.59701 11.0877L3.545 10.9117L2 9.58822L2.6265 8.50322L4.54501 9.17972L5.22251 10.0022L13.018 14.5032H10.5125L4.59701 11.0877ZM8.40103 8.39373C7.51252 7.77672 7.04902 6.84272 7.00102 5.89121C6.99152 5.70621 7.07302 5.5282 7.20402 5.3967L7.32652 5.27421C7.68702 4.9142 8.27153 4.9142 8.63153 5.27421L9.65303 6.29521C9.85703 6.49921 10.1545 6.57921 10.433 6.50471C10.712 6.42971 10.9295 6.21221 11.0045 5.93321C11.079 5.6547 10.999 5.3572 10.795 5.1532L9.77403 4.1322C9.41353 3.7717 9.41353 3.1872 9.77403 2.8267L9.89453 2.7062C10.0405 2.5602 10.2435 2.49069 10.4495 2.50469C11.1995 2.55619 11.935 2.86619 12.5085 3.4397C13.3495 4.2807 13.6265 5.46871 13.346 6.54171C13.3025 6.70671 13.3395 6.88171 13.46 7.00221L17.2926 10.8347C17.1066 11.3572 17.0001 11.9172 17.0001 12.5027V14.4588L11.503 8.96122C11.382 8.84072 11.2075 8.80372 11.0425 8.84722C10.152 9.08072 9.17553 8.93173 8.40103 8.39373ZM33.0001 12.5027C33.0001 11.2947 32.5696 10.1857 31.8541 9.32073L33.6511 6.39721L35.8856 7.68672L33.0001 13.0002V12.5027ZM47.5392 8.06072C48.4697 9.61272 47.9457 11.6202 46.3842 12.5212C45.3547 13.1157 44.1347 13.0762 43.1707 12.5272C43.0227 12.4432 42.8442 12.4337 42.6967 12.5187L39.2597 14.5027H33.7211L41.3112 10.1207C41.4592 10.0352 41.5407 9.87522 41.5417 9.70472C41.5487 8.55922 42.1627 7.44872 43.2577 6.86772C44.7477 6.07772 46.6717 6.61371 47.5392 8.06072ZM45.6922 11.3222L46.6152 9.72323L45.6922 8.12422H43.8462L42.9227 9.72323L43.8462 11.3222H45.6922Z" fill="white"/>
</svg>
