<svg width="35" height="31" viewBox="0 0 35 31" fill="none" xmlns="http://www.w3.org/2000/svg">
<path d="M29.0435 18.587C32.3332 18.587 35 21.2538 35 24.5435C35 27.8332 32.3332 30.5 29.0435 30.5C27.3768 30.5 25.7101 30.5 24.0435 30.5C20.7538 30.5 18.087 27.8332 18.087 24.5435C18.087 24.3574 18.0955 24.1733 18.1122 23.9916C17.9718 24.0021 17.8292 24.0003 17.6854 23.9851C17.2594 24.0298 16.8104 23.9627 16.3701 23.7494L11.5716 21.4251C11.3694 21.4459 11.1642 21.4565 10.9565 21.4565C9.28986 21.4565 7.62319 21.4565 5.95652 21.4565C2.66683 21.4565 0 18.7897 0 15.5C0 12.2103 2.66683 9.54348 5.95652 9.54348C7.62319 9.54348 9.28986 9.54348 10.9565 9.54348C11.3488 9.54348 11.7322 9.5814 12.1033 9.65377L16.3925 7.44218C16.8475 7.20754 17.3163 7.1326 17.7613 7.17911C17.8849 7.16608 18.0077 7.16294 18.1291 7.16894C18.1013 6.93535 18.087 6.69761 18.087 6.45652C18.087 3.16683 20.7538 0.5 24.0435 0.5C25.7101 0.5 27.3768 0.5 29.0435 0.5C32.3332 0.5 35 3.16683 35 6.45652C35 9.74622 32.3332 12.413 29.0435 12.413C27.3768 12.413 25.7101 12.413 24.0435 12.413C23.7974 12.413 23.5548 12.3981 23.3165 12.3691L18.72 14.7392C18.2641 14.9743 17.7955 15.0493 17.351 15.0027C17.1966 15.019 17.0435 15.0198 16.8929 15.0067C16.9062 15.1694 16.913 15.3339 16.913 15.5C16.913 15.7622 16.8961 16.0205 16.8633 16.2737C16.9742 16.2697 17.0864 16.2734 17.1993 16.2853C17.6256 16.2406 18.0747 16.3077 18.5141 16.5205L22.9769 18.6822C23.3229 18.6196 23.6794 18.587 24.0435 18.587C25.7101 18.587 27.3768 18.587 29.0435 18.587Z" fill="black"/>
<path fill-rule="evenodd" clip-rule="evenodd" d="M24.0435 2.5C21.8584 2.5 20.087 4.27139 20.087 6.45652C20.087 8.64165 21.8584 10.413 24.0435 10.413C26.2286 10.413 28 8.64165 28 6.45652C28 4.27139 26.2286 2.5 24.0435 2.5ZM5.95652 11.5435C3.77139 11.5435 2 13.3149 2 15.5C2 17.6851 3.77139 19.4565 5.95652 19.4565C8.14165 19.4565 9.91304 17.6851 9.91304 15.5C9.91304 13.3149 8.14165 11.5435 5.95652 11.5435ZM24.0435 20.587C21.8584 20.587 20.087 22.3584 20.087 24.5435C20.087 26.7286 21.8584 28.5 24.0435 28.5C26.2286 28.5 28 26.7286 28 24.5435C28 22.3584 26.2286 20.587 24.0435 20.587ZM17.309 9.21978L12.2229 11.8423C11.995 11.9599 11.8708 12.2922 12.0243 12.6144C12.1936 12.9698 12.5724 13.0807 12.8034 12.9616L17.8877 10.34C18.121 10.2197 18.2456 9.87098 18.0754 9.5424C17.9005 9.20464 17.5352 9.10317 17.309 9.21978ZM12.0937 19.4557L17.242 21.9495C17.4706 22.0602 17.8336 21.9496 18.0003 21.6071C18.162 21.2747 18.0289 20.9297 17.7924 20.8151L12.6422 18.3205C12.4189 18.2123 12.0692 18.3134 11.8973 18.6382C11.7182 18.9766 11.852 19.3387 12.0937 19.4557Z" fill="white"/>
</svg>
