<svg width="35" height="31" viewBox="0 0 35 31" fill="none" xmlns="http://www.w3.org/2000/svg">
<path d="M11.24 0.501953C7.79374 0.501953 5 3.18824 5 6.50195V24.502C5 27.8157 7.79374 30.502 11.24 30.502H24.76C28.2063 30.502 31 27.8157 31 24.502V6.50195C31 3.18824 28.2063 0.501953 24.76 0.501953H11.24Z" fill="black"/>
<path fill-rule="evenodd" clip-rule="evenodd" d="M11.25 2.50195C8.90279 2.50195 7 4.29281 7 6.50195V24.502C7 26.7111 8.90279 28.502 11.25 28.502H19.75C22.0972 28.502 24 26.7111 24 24.502V6.50195C24 4.29281 22.0972 2.50195 19.75 2.50195H11.25ZM9.12519 6.50195C9.12519 5.39738 10.0206 4.50195 11.1252 4.50195H19.8752C20.9798 4.50195 21.8752 5.39738 21.8752 6.50195V20.502C21.8752 21.6065 20.9798 22.502 19.8752 22.502H11.1252C10.0206 22.502 9.12519 21.6065 9.12519 20.502V6.50195ZM13.3753 25.502C13.3753 24.9497 13.823 24.502 14.3753 24.502H16.6253C17.1776 24.502 17.6253 24.9497 17.6253 25.502C17.6253 26.0542 17.1776 26.502 16.6253 26.502H14.3753C13.823 26.502 13.3753 26.0542 13.3753 25.502Z" fill="white"/>
</svg>
