<svg width="55" height="31" viewBox="0 0 55 31" fill="none" xmlns="http://www.w3.org/2000/svg">
<path d="M37.498 0.50293H32.4984C30.6645 0.50293 28.9521 1.0284 27.4987 1.93184C26.0453 1.0284 24.3329 0.50293 22.499 0.50293H17.4994C12.2612 0.50293 8 4.76415 8 10.0023C8 12.5141 8.98593 14.897 10.7763 16.7113C13.9591 19.9376 23.464 29.7925 23.5595 29.8915C23.9364 30.2824 24.4559 30.5029 24.9989 30.5029H29.9985C30.541 30.5029 31.061 30.2824 31.4374 29.8915C31.5334 29.7925 41.0423 19.9381 44.2261 16.7118C46.0135 14.901 46.9974 12.5181 46.9974 10.0023C46.9974 4.76415 42.7362 0.50293 37.498 0.50293Z" fill="black"/>
<path d="M32.4985 2.50293C28.3588 2.50293 24.999 5.86271 24.999 10.0024C24.999 5.86271 21.6442 2.50293 17.4995 2.50293C13.3598 2.50293 10 5.86271 10 10.0024C10 12.0773 10.8514 13.9407 12.1999 15.3071C15.4276 18.5784 24.999 28.5032 24.999 28.5032C24.999 28.5032 34.5744 18.5789 37.8031 15.3071C39.1516 13.9407 39.998 12.0773 39.998 10.0024C39.998 5.86271 36.6432 2.50293 32.4985 2.50293Z" fill="white"/>
</svg>
