<svg width="47" height="20" viewBox="0 0 47 20" fill="none" xmlns="http://www.w3.org/2000/svg">
<path d="M2.75057 17.7419C2.04734 17.7351 1.34612 17.2056 1.27699 16.3836L0.967773 14.0767L1.28224 11.6888C1.36453 11.042 1.89957 10.3782 2.74557 10.3685L2.75095 10.3255C2.83191 9.67778 3.37642 8.99685 4.23992 8.99685C4.33633 8.99685 4.43015 9.00029 4.52648 8.99752C4.78642 8.59162 5.23561 8.29438 5.80995 8.29438C5.9088 8.29438 6.00529 8.29718 6.10409 8.29484C6.46854 8.16689 6.75015 8.13171 7.35572 8.14155C7.87635 8.13041 8.39912 8.13624 8.91987 8.1403L8.95378 7.4259L8.95393 7.42255C8.99171 6.59777 9.6521 5.87381 10.5458 5.85204C10.6146 5.0159 11.3042 4.30997 12.2098 4.30997C12.2931 4.30997 12.3742 4.31623 12.4573 4.31209C12.7622 3.88579 13.2591 3.60109 13.8397 3.60109C14.0469 3.60109 14.254 3.60697 14.4612 3.60167C14.7452 3.39236 15.0974 3.26713 15.4864 3.26713C16.586 3.26713 17.6871 3.28761 18.7866 3.26744C19.0561 2.59227 19.7126 2.10563 20.4947 2.10563C20.5109 2.10563 20.527 2.10583 20.543 2.10625C20.8628 1.53989 21.4676 1.151 22.174 1.151C22.2301 1.151 22.2857 1.15347 22.3405 1.15831C22.3561 1.15693 22.3719 1.15574 22.3877 1.15475C22.619 0.941697 22.8169 0.813129 23.1701 0.676599C24.2698 0.25155 25.5119 0 26.7906 0C27.9017 0 29.0128 0 30.1239 0C34.7895 0 38.7014 3.195 39.8052 7.51518C39.8072 7.51523 39.8091 7.51528 39.8111 7.51534C39.8676 7.51381 39.9243 7.51304 39.9812 7.51304C40.0336 7.51304 40.0881 7.51377 40.1444 7.51534C40.2009 7.51381 40.2576 7.51304 40.3145 7.51304C40.367 7.51304 40.4214 7.51377 40.4778 7.51534C40.5343 7.51381 40.591 7.51304 40.6478 7.51304C41.0146 7.51304 41.4795 7.54869 41.9812 7.65783C44.7885 8.26859 46.8897 10.768 46.8897 13.7581C46.8897 17.205 44.0947 20 40.6478 20C30.6307 20 20.5941 19.9715 10.5872 19.9715C10.4628 19.9715 10.3429 19.958 10.2285 19.9326C9.81542 19.9112 9.39631 19.9349 8.98256 19.9349C8.80575 19.9349 8.639 19.9075 8.48475 19.8575C8.12193 19.879 7.75077 19.8603 7.38733 19.8603C7.12875 19.8603 6.89262 19.8004 6.68648 19.6966C6.40004 19.673 6.09879 19.7017 5.811 19.7017H5.80995C5.32482 19.7017 4.85922 19.465 4.57103 19.0747C4.46024 19.0745 4.35071 19.0747 4.23992 19.0747C3.37214 19.0747 2.83014 18.3909 2.75057 17.7419Z" fill="black"/>
<path d="M2.75285 11.7016C2.66988 11.7016 2.60372 11.7657 2.59322 11.8581L2.30127 14.0751L2.59322 16.2532C2.59427 16.3445 2.66988 16.4086 2.75285 16.4086C2.83371 16.4086 2.89883 16.3456 2.91248 16.2532L3.25799 14.074L2.91248 11.8571C2.89988 11.7657 2.83371 11.7016 2.75285 11.7016ZM4.39429 10.4908C4.38064 10.3952 4.31238 10.3301 4.22836 10.3301C4.14435 10.3301 4.07399 10.3984 4.06243 10.4908C4.06243 10.4909 3.66966 14.0751 3.66966 14.0751L4.06243 17.5795C4.07399 17.6741 4.1433 17.7413 4.22836 17.7413C4.31238 17.7413 4.38064 17.6751 4.39429 17.5806L4.84062 14.0751L4.39429 10.4908ZM10.5757 7.18479C10.415 7.18479 10.2816 7.31606 10.2743 7.48409L9.96133 14.0782L10.2743 18.3399C10.2827 18.5069 10.415 18.6381 10.5757 18.6381C10.7353 18.6381 10.8687 18.5069 10.8781 18.3399V18.34L11.231 14.0783L10.8781 7.4842C10.8687 7.31722 10.7364 7.18489 10.5757 7.18489V7.18479ZM7.37577 9.4764C7.25185 9.4764 7.15103 9.57512 7.14158 9.70639L6.78977 14.0752L7.14158 18.2969C7.15103 18.4282 7.25185 18.5269 7.37577 18.5269C7.49759 18.5269 7.59946 18.4282 7.60996 18.2969L8.01009 14.0752L7.60996 9.70534C7.60891 9.57407 7.49864 9.47535 7.37577 9.47535V9.4764ZM13.8271 18.6351C14.0266 18.6351 14.1894 18.4744 14.1967 18.2686L14.5034 14.0794L14.1978 5.30086C14.1894 5.09502 14.0277 4.93434 13.8281 4.93434C13.6265 4.93434 13.4637 5.09607 13.4574 5.30191L13.1854 14.0794L13.4574 18.2707C13.4637 18.4755 13.6265 18.6361 13.8271 18.6361V18.6351ZM20.4832 18.655C20.7583 18.655 20.9841 18.4292 20.9893 18.1509V18.1541V18.1509L21.2036 14.0815L20.9893 3.94297C20.9841 3.66572 20.7573 3.43888 20.4832 3.43888C20.208 3.43888 19.9812 3.66467 19.977 3.94402L19.7858 14.0794C19.7858 14.0857 19.977 18.1551 19.977 18.1551C19.9812 18.4303 20.2091 18.6571 20.4832 18.6571V18.655ZM17.1299 18.6414C17.3694 18.6414 17.5615 18.4492 17.5678 18.2045V18.2077L17.8283 14.0815L17.5678 5.2389C17.5615 4.9942 17.3683 4.80307 17.1299 4.80307C16.8894 4.80307 16.6962 4.9942 16.6909 5.2389L16.4599 14.0815L16.692 18.2066C16.6972 18.4481 16.8894 18.6403 17.131 18.6403L17.1299 18.6414ZM8.97101 18.6015C9.11278 18.6015 9.2283 18.4881 9.2388 18.3379L9.61582 14.0762L9.2388 10.0214C9.23775 9.87127 9.11383 9.7589 8.97101 9.7589C8.82713 9.7589 8.71161 9.87232 8.70321 10.0235L8.37135 14.0762L8.70321 18.3379C8.71266 18.4881 8.82713 18.6015 8.97101 18.6015ZM5.79944 18.3683C5.90341 18.3683 5.98743 18.2864 5.99898 18.173L6.4222 14.0752L5.99898 9.82296C5.98638 9.70954 5.90236 9.62763 5.79839 9.62763C5.69337 9.62763 5.60936 9.70954 5.59886 9.82296L5.22604 14.0752L5.59886 18.1719C5.59991 18.2854 5.69337 18.3683 5.79839 18.3683H5.79944ZM18.8029 5.09082C18.5435 5.09082 18.3355 5.29771 18.3303 5.5613L18.1192 14.0804L18.3303 18.1803C18.3355 18.4408 18.5435 18.6477 18.8029 18.6477C19.0623 18.6477 19.2691 18.4418 19.2754 18.1772V18.1803L19.5128 14.0804L19.2754 5.5592C19.2691 5.29561 19.0623 5.08977 18.8029 5.08977V5.09082ZM12.1982 18.6435C12.3778 18.6435 12.5259 18.4975 12.5343 18.3106L12.864 14.0783L12.5343 5.97613C12.5248 5.7892 12.3778 5.64322 12.1982 5.64322C12.0176 5.64322 11.8695 5.7892 11.8622 5.97613L11.5702 14.0783L11.8622 18.3106C11.8695 18.4954 12.0176 18.6414 12.1982 18.6414V18.6435ZM15.8791 18.2423V18.2402L16.1627 14.0773L15.8791 5.00261C15.8728 4.77682 15.6943 4.60038 15.4748 4.60038C15.2543 4.60038 15.0768 4.77682 15.0705 5.00261L14.8195 14.0762L15.0715 18.2413C15.0778 18.4649 15.2553 18.6403 15.4759 18.6403C15.6954 18.6403 15.8728 18.4639 15.8802 18.2392L15.8791 18.2423ZM37.3029 8.84629C36.6308 8.84629 35.9892 8.98281 35.4042 9.22751C35.0135 4.80307 31.3043 1.33325 26.779 1.33325C25.6721 1.33325 24.5925 1.55169 23.639 1.92031C23.2683 2.06313 23.1695 2.21121 23.1664 2.49791V18.0774C23.1706 18.3778 23.4037 18.6277 23.6967 18.6582C23.7093 18.6583 37.2158 18.6666 37.3029 18.6666C40.0135 18.6666 42.2115 16.4685 42.2115 13.758C42.2115 11.0464 40.0145 8.84839 37.3029 8.84839V8.84629ZM22.1624 2.48426C21.8673 2.48426 21.6258 2.7258 21.6216 3.02405L21.4 14.0815L21.6216 18.0942C21.6258 18.3872 21.8673 18.6288 22.1624 18.6288C22.4565 18.6288 22.698 18.3872 22.7033 18.09V18.0953L22.9437 14.0815L22.7033 3.023C22.6991 2.72685 22.4565 2.48426 22.1624 2.48426Z" fill="white"/>
</svg>
