<svg width="45" height="31" viewBox="0 0 45 31" fill="none" xmlns="http://www.w3.org/2000/svg">
<path d="M0 10.5015C0 4.97862 4.47715 0.501465 10 0.501465C10.1677 0.501465 10.3344 0.505591 10.5 0.513747C10.6656 0.505591 10.8323 0.501465 11 0.501465C11.1677 0.501465 11.3344 0.505591 11.5 0.513747C11.6656 0.505591 11.8323 0.501465 12 0.501465C12.1677 0.501465 12.3344 0.505591 12.5 0.513747C12.6656 0.505591 12.8323 0.501465 13 0.501465C13.1677 0.501465 13.3344 0.505591 13.5 0.513747C13.6656 0.505591 13.8323 0.501465 14 0.501465C14.1677 0.501465 14.3344 0.505591 14.5 0.513747C14.6656 0.505591 14.8323 0.501465 15 0.501465C17.9867 0.501465 20.6676 1.81085 22.5 3.88691C24.3324 1.81085 27.0133 0.501465 30 0.501465C30.1677 0.501465 30.3344 0.505591 30.5 0.513747C30.6656 0.505591 30.8323 0.501465 31 0.501465C31.1677 0.501465 31.3344 0.505591 31.5 0.513747C31.6656 0.505591 31.8323 0.501465 32 0.501465C32.1677 0.501465 32.3344 0.505591 32.5 0.513748C32.6657 0.505591 32.8323 0.501465 33 0.501465C33.1677 0.501465 33.3344 0.505591 33.5 0.513748C33.6657 0.505591 33.8323 0.501465 34 0.501465C34.1677 0.501465 34.3344 0.505591 34.5 0.513748C34.6657 0.505591 34.8323 0.501465 35 0.501465C40.5228 0.501465 45 4.97862 45 10.5015V20.5015C45 26.0243 40.5228 30.5015 35 30.5015C34.8323 30.5015 34.6657 30.4973 34.5 30.4892C34.3344 30.4973 34.1677 30.5015 34 30.5015C33.8323 30.5015 33.6657 30.4973 33.5 30.4892C33.3344 30.4973 33.1677 30.5015 33 30.5015C32.8323 30.5015 32.6657 30.4973 32.5 30.4892C32.3344 30.4973 32.1677 30.5015 32 30.5015C31.8323 30.5015 31.6656 30.4973 31.5 30.4892C31.3344 30.4973 31.1677 30.5015 31 30.5015C30.8323 30.5015 30.6656 30.4973 30.5 30.4892C30.3344 30.4973 30.1677 30.5015 30 30.5015C27.0133 30.5015 24.3324 29.1921 22.5 27.116C20.6676 29.1921 17.9867 30.5015 15 30.5015C14.8323 30.5015 14.6656 30.4973 14.5 30.4892C14.3344 30.4973 14.1677 30.5015 14 30.5015C13.8323 30.5015 13.6656 30.4973 13.5 30.4892C13.3344 30.4973 13.1677 30.5015 13 30.5015C12.8323 30.5015 12.6656 30.4973 12.5 30.4892C12.3344 30.4973 12.1677 30.5015 12 30.5015C11.8323 30.5015 11.6656 30.4973 11.5 30.4892C11.3344 30.4973 11.1677 30.5015 11 30.5015C10.8323 30.5015 10.6656 30.4973 10.5 30.4892C10.3344 30.4973 10.1677 30.5015 10 30.5015C4.47715 30.5015 0 26.0243 0 20.5015V10.5015Z" fill="black"/>
<path d="M10 10.5015C9.44772 10.5015 9 10.9492 9 11.5015V12.5015C9 13.0537 9.44772 13.5015 10 13.5015C10.5523 13.5015 11 13.0537 11 12.5015V11.5015C11 10.9492 10.5523 10.5015 10 10.5015Z" fill="white"/>
<path fill-rule="evenodd" clip-rule="evenodd" d="M2 10.5015C2 6.08319 5.58172 2.50146 10 2.50146C14.4183 2.50146 18 6.08319 18 10.5015V20.5015C18 24.9197 14.4183 28.5015 10 28.5015C5.58172 28.5015 2 24.9197 2 20.5015V10.5015ZM8.5 7.50146C6.01472 7.50146 4 9.51618 4 12.0015V19.0015C4 21.4867 6.01472 23.5015 8.5 23.5015C10.9853 23.5015 13 21.4867 13 19.0015V12.0015C13 9.51618 10.9853 7.50146 8.5 7.50146Z" fill="white"/>
<path d="M30 10.5015C29.4477 10.5015 29 10.9492 29 11.5015V12.5015C29 13.0537 29.4477 13.5015 30 13.5015C30.5523 13.5015 31 13.0537 31 12.5015V11.5015C31 10.9492 30.5523 10.5015 30 10.5015Z" fill="white"/>
<path fill-rule="evenodd" clip-rule="evenodd" d="M22 10.5015C22 6.08319 25.5817 2.50146 30 2.50146C34.4183 2.50146 38 6.08319 38 10.5015V20.5015C38 24.9197 34.4183 28.5015 30 28.5015C25.5817 28.5015 22 24.9197 22 20.5015V10.5015ZM28.5 7.50146C26.0147 7.50146 24 9.51618 24 12.0015V19.0015C24 21.4867 26.0147 23.5015 28.5 23.5015C30.9853 23.5015 33 21.4867 33 19.0015V12.0015C33 9.51618 30.9853 7.50146 28.5 7.50146Z" fill="white"/>
</svg>
