<svg width="55" height="30" viewBox="0 0 55 30" fill="none" xmlns="http://www.w3.org/2000/svg">
<path d="M10 4.99951C10 2.23809 12.2386 -0.000488281 15 -0.000488281H40C42.7614 -0.000488281 45 2.23809 45 4.99951C45 7.76094 42.7614 9.99951 40 9.99951C42.7614 9.99951 45 12.2381 45 14.9995C45 17.7609 42.7614 19.9995 40 19.9995C42.7614 19.9995 45 22.2381 45 24.9995C45 27.7609 42.7614 29.9995 40 29.9995H15C12.2386 29.9995 10 27.7609 10 24.9995C10 22.2381 12.2386 19.9995 15 19.9995C12.2386 19.9995 10 17.7609 10 14.9995C10 12.2381 12.2386 9.99951 15 9.99951C12.2386 9.99951 10 7.76094 10 4.99951Z" fill="black"/>
<path fill-rule="evenodd" clip-rule="evenodd" d="M15 1.99951C13.3431 1.99951 12 3.34266 12 4.99951C12 6.65637 13.3431 7.99951 15 7.99951H35C36.6569 7.99951 38 6.65637 38 4.99951C38 3.34266 36.6569 1.99951 35 1.99951H15ZM12 14.9995C12 13.3427 13.3431 11.9995 15 11.9995H35C36.6569 11.9995 38 13.3427 38 14.9995C38 16.6564 36.6569 17.9995 35 17.9995H15C13.3431 17.9995 12 16.6564 12 14.9995ZM12 24.9995C12 23.3427 13.3431 21.9995 15 21.9995H35C36.6569 21.9995 38 23.3427 38 24.9995C38 26.6564 36.6569 27.9995 35 27.9995H15C13.3431 27.9995 12 26.6564 12 24.9995Z" fill="white"/>
</svg>
