<svg width="14" height="24" viewBox="0 0 14 24" fill="none" xmlns="http://www.w3.org/2000/svg">
<path fill-rule="evenodd" clip-rule="evenodd" d="M12.3284 1.67379C11.769 1.11438 11.0563 0.733422 10.2804 0.579081C10.0692 0.537074 9.8559 0.512368 9.64257 0.504761H4.35749C3.88289 0.521684 3.41259 0.623077 2.96927 0.806704C2.23837 1.10945 1.61365 1.62214 1.17413 2.27994C0.734604 2.93774 0.500005 3.71109 0.5 4.50222L0.50001 4.50533C0.503306 5.56436 0.925462 6.57907 1.67431 7.32792C2.08555 7.73916 2.57698 8.05188 3.11189 8.25081C2.81964 8.35894 2.53953 8.50141 2.27773 8.67634C1.61993 9.11587 1.10724 9.74058 0.804488 10.4715C0.501738 11.2024 0.422524 12.0067 0.576865 12.7826C0.731206 13.5585 1.11217 14.2712 1.67158 14.8306C2.08028 15.2394 2.57083 15.5528 3.10806 15.7522C2.8172 15.8602 2.53839 16.0022 2.27773 16.1763C1.61993 16.6159 1.10724 17.2406 0.804488 17.9715C0.501737 18.7024 0.422524 19.5067 0.576865 20.2826C0.731206 21.0585 1.11217 21.7712 1.67158 22.3306C2.23099 22.8901 2.94372 23.271 3.71965 23.4254C3.94494 23.4702 4.17263 23.4953 4.40022 23.501H9.59973C10.0888 23.4888 10.5741 23.3869 11.0307 23.1977C11.7616 22.895 12.3864 22.3823 12.8259 21.7245C13.2654 21.0667 13.5 20.2933 13.5 19.5022L13.5 19.4991C13.4967 18.4401 13.0746 17.4254 12.3257 16.6765C11.9145 16.2653 11.423 15.9526 10.8881 15.7536C10.9359 15.7359 10.9835 15.7173 11.0307 15.6977C11.7616 15.395 12.3864 14.8823 12.8259 14.2245C13.2654 13.5667 13.5 12.7933 13.5 12.0022L13.5 11.9991C13.4967 10.9401 13.0746 9.92537 12.3257 9.17653C11.9145 8.76528 11.423 8.45256 10.8881 8.25364C11.1804 8.1455 11.4605 8.00303 11.7223 7.8281C12.3801 7.38857 12.8928 6.76386 13.1955 6.03296C13.4983 5.30205 13.5775 4.49778 13.4231 3.72186C13.2688 2.94594 12.8878 2.2332 12.3284 1.67379ZM4.5 6.9989C4.99445 6.9989 5.4778 6.85228 5.88892 6.57758C6.30005 6.30287 6.62048 5.91243 6.8097 5.45561C6.99892 4.9988 7.04843 4.49613 6.95196 4.01118C6.8555 3.52622 6.6174 3.08077 6.26777 2.73114C5.91813 2.3815 5.47268 2.1434 4.98773 2.04694C4.50277 1.95048 4.00011 1.99998 3.54329 2.1892C3.08648 2.37842 2.69603 2.69885 2.42133 3.10998C2.14662 3.5211 2 4.00445 2 4.4989C2.00206 5.16131 2.26612 5.796 2.73451 6.26439C3.2029 6.73279 3.83759 6.99684 4.5 6.9989ZM3.11108 17.4202C3.5222 17.1455 4.00555 16.9989 4.5 16.9989C5.16241 17.001 5.7971 17.265 6.26549 17.7334C6.73389 18.2018 6.99794 18.8365 7 19.4989C7 19.9934 6.85338 20.4767 6.57867 20.8878C6.30397 21.2989 5.91352 21.6194 5.45671 21.8086C4.99989 21.9978 4.49723 22.0473 4.01228 21.9509C3.52732 21.8544 3.08187 21.6163 2.73223 21.2667C2.3826 20.917 2.1445 20.4716 2.04804 19.9866C1.95157 19.5017 2.00108 18.999 2.1903 18.5422C2.37952 18.0854 2.69995 17.6949 3.11108 17.4202ZM3.11108 9.92413C3.5222 9.64943 4.00555 9.50281 4.5 9.50281C5.16241 9.50487 5.7971 9.76892 6.26549 10.2373C6.73389 10.7057 6.99794 11.3404 7 12.0028C7 12.4973 6.85338 12.9806 6.57867 13.3917C6.30397 13.8029 5.91352 14.1233 5.45671 14.3125C4.99989 14.5017 4.49723 14.5512 4.01228 14.4548C3.52732 14.3583 3.08187 14.1202 2.73223 13.7706C2.3826 13.4209 2.1445 12.9755 2.04804 12.4905C1.95157 12.0056 2.00108 11.5029 2.1903 11.0461C2.37952 10.5893 2.69995 10.1988 3.11108 9.92413Z" fill="black"/>
</svg>
