<svg width="9" height="16" viewBox="0 0 9 16" fill="none" xmlns="http://www.w3.org/2000/svg">
<path d="M5.12502 0.505908C5.20821 0.501942 5.29164 0.501932 5.37502 0.505908C5.45821 0.501942 5.54164 0.501932 5.62502 0.505908C5.83742 0.495782 6.05136 0.511447 6.26211 0.553369C6.77131 0.654656 7.23904 0.904663 7.60616 1.27178C7.97327 1.63889 8.22328 2.10662 8.32456 2.61582C8.42585 3.12502 8.37386 3.65282 8.17518 4.13247C7.9765 4.61213 7.64005 5.0221 7.20837 5.31054C7.05399 5.41369 6.88991 5.49965 6.71906 5.56751C7.0477 5.69856 7.34969 5.8958 7.60468 6.15079C8.09591 6.64202 8.37284 7.30766 8.375 8.00236L8.37501 8.00547C8.375 8.52464 8.22105 9.03216 7.93261 9.46384C7.64417 9.89552 7.2342 10.232 6.75454 10.4307L6.74515 10.4345C6.73858 10.4372 6.732 10.4399 6.72541 10.4425C7.0516 10.5736 7.35133 10.7699 7.60468 11.0233C8.09591 11.5145 8.37284 12.1801 8.375 12.8748L8.37501 12.8779C8.375 13.3971 8.22105 13.9046 7.93261 14.3363C7.64417 14.768 7.2342 15.1044 6.75454 15.3031C6.39566 15.4518 6.00982 15.5183 5.62499 15.5C5.5418 15.5039 5.45837 15.5039 5.37499 15.5C5.29179 15.5039 5.20836 15.5039 5.12498 15.5C5.04179 15.5039 4.95837 15.5039 4.87499 15.5C4.79179 15.5039 4.70836 15.5039 4.62498 15.5C4.54179 15.5039 4.45836 15.5039 4.37499 15.5C4.29179 15.5039 4.20836 15.5039 4.12498 15.5C4.04179 15.5039 3.95836 15.5039 3.87499 15.5C3.79179 15.5039 3.70836 15.5039 3.62498 15.5C3.54179 15.5039 3.45836 15.5039 3.37499 15.5C3.16259 15.5101 2.94865 15.4944 2.73789 15.4525C2.22869 15.3512 1.76096 15.1012 1.39384 14.7341C1.02673 14.367 0.776726 13.8992 0.67544 13.39C0.574154 12.8808 0.626137 12.353 0.824818 11.8734C1.0235 11.3937 1.35995 10.9838 1.79163 10.6953C1.94348 10.5939 2.10472 10.509 2.27255 10.4417C1.94502 10.3103 1.64574 10.1135 1.39385 9.86162C1.02673 9.49451 0.776726 9.02678 0.67544 8.51758C0.574153 8.00838 0.626138 7.48058 0.824818 7.00092C1.0235 6.52127 1.35995 6.1113 1.79163 5.82286C1.94601 5.71971 2.1101 5.63375 2.28094 5.56589C1.9523 5.43484 1.65032 5.2376 1.39533 4.98261C0.904094 4.49137 0.627168 3.82574 0.625005 3.13104L0.625001 3.12793C0.625001 2.60875 0.778956 2.10124 1.06739 1.66956C1.35583 1.23788 1.7658 0.901427 2.24546 0.702747C2.60434 0.554091 2.99018 0.48756 3.37502 0.505908C3.45821 0.501942 3.54164 0.501932 3.62502 0.505908C3.70821 0.501942 3.79164 0.501932 3.87502 0.505908C3.95821 0.501942 4.04164 0.501932 4.12502 0.505908C4.20821 0.501942 4.29164 0.501932 4.37502 0.505908C4.45821 0.501942 4.54164 0.501932 4.62502 0.505908C4.70821 0.501942 4.79164 0.501932 4.87502 0.505908C4.95821 0.501942 5.04164 0.501932 5.12502 0.505908Z" fill="black"/>
<path fill-rule="evenodd" clip-rule="evenodd" d="M3.24902 4.75342C3.57042 4.75342 3.88459 4.65811 4.15182 4.47956C4.41905 4.301 4.62733 4.04721 4.75033 3.75028C4.87332 3.45335 4.9055 3.12662 4.8428 2.8114C4.7801 2.49618 4.62533 2.20663 4.39807 1.97937C4.17081 1.75211 3.88126 1.59734 3.56605 1.53464C3.25083 1.47194 2.92409 1.50412 2.62716 1.62711C2.33023 1.75011 2.07644 1.95839 1.89789 2.22562C1.71933 2.49285 1.62402 2.80702 1.62402 3.12842C1.62536 3.55898 1.797 3.97153 2.10146 4.27599C2.40591 4.58044 2.81846 4.75208 3.24902 4.75342ZM2.34622 11.5273C2.61345 11.3487 2.92763 11.2534 3.24902 11.2534C3.67959 11.2548 4.09214 11.4264 4.39659 11.7309C4.70105 12.0353 4.87268 12.4479 4.87402 12.8784C4.87402 13.1998 4.77872 13.514 4.60016 13.7812C4.4216 14.0484 4.16781 14.2567 3.87088 14.3797C3.57395 14.5027 3.24722 14.5349 2.932 14.4722C2.61678 14.4095 2.32724 14.2547 2.09998 14.0275C1.87272 13.8002 1.71795 13.5107 1.65525 13.1954C1.59255 12.8802 1.62473 12.5535 1.74772 12.2566C1.87071 11.9596 2.07899 11.7058 2.34622 11.5273ZM2.34622 6.65482C2.61345 6.47626 2.92763 6.38096 3.24902 6.38096C3.67959 6.3823 4.09214 6.55393 4.39659 6.85839C4.70105 7.16285 4.87268 7.57539 4.87402 8.00596C4.87402 8.32735 4.77872 8.64153 4.60016 8.90876C4.4216 9.17599 4.16781 9.38427 3.87088 9.50726C3.57395 9.63025 3.24722 9.66243 2.932 9.59973C2.61678 9.53703 2.32724 9.38227 2.09998 9.155C1.87272 8.92774 1.71795 8.6382 1.65525 8.32298C1.59255 8.00776 1.62473 7.68103 1.74772 7.3841C1.87071 7.08717 2.07899 6.83338 2.34622 6.65482Z" fill="white"/>
</svg>
