<svg width="22" height="20" viewBox="0 0 22 20" fill="none" xmlns="http://www.w3.org/2000/svg">
<path d="M12.957 0C12.8778 0 12.8 0.00651035 12.7245 0.0208331C12.6489 0.00651035 12.5711 0 12.4919 0H9.62374C8.88742 0 8.29042 0.596348 8.29042 1.33332V6.20957C8.23655 6.19524 8.18121 6.18353 8.12474 6.17571C6.64591 5.97519 5.14283 6.28118 3.86013 7.04419C2.5776 7.80721 1.59112 8.98167 1.0615 10.3762C0.532045 11.772 0.490705 13.3058 0.94415 14.7264C1.38376 16.1053 2.26315 17.2993 3.44543 18.1274C4.35069 19.0089 5.48984 19.6118 6.72875 19.8657C7.21426 19.9659 7.70661 20.0089 8.197 19.9985H11.2686C11.347 19.9985 11.4253 19.9985 11.5036 19.9985C11.5462 19.9985 11.5891 19.9985 11.6317 19.9985C12.4014 19.9698 13.1644 19.8032 13.8849 19.5089C15.0959 19.0141 16.1329 18.1717 16.8645 17.0871C17.5963 16.0037 17.9899 14.7264 17.9952 13.4126V9.99598C18.0737 9.94781 18.1466 9.89182 18.2132 9.82932C18.9946 10.0702 19.8124 10.1926 20.6399 10.19C21.3743 10.1874 21.9682 9.59104 21.9682 8.85667V6.03639C21.9682 5.68093 21.8272 5.34239 21.5764 5.09109C21.4174 4.93354 21.2226 4.81896 21.011 4.75646C20.9456 4.61583 20.8554 4.48693 20.7436 4.37495C20.4923 4.12495 20.1516 3.98563 19.7971 3.98694C19.3624 3.98954 18.9352 3.88277 18.5535 3.67834C18.2439 3.29163 18.0498 2.82419 17.9952 2.3307V2.02993C17.9952 1.41795 17.5836 0.903636 17.0224 0.746086C16.8769 0.450516 16.6253 0.216143 16.3172 0.093749C16.165 0.0325517 15.999 0 15.8252 0H12.957Z" fill="black"/>
<path fill-rule="evenodd" clip-rule="evenodd" d="M16.4697 5.32031V5.92683C15.656 5.75709 14.917 5.3341 14.3586 4.71849C14.9912 5.1148 15.7232 5.32348 16.4697 5.32031ZM12.5121 1.81776C12.5255 1.88849 12.539 1.95976 12.539 2.02911H10.4609V13.412C10.4589 13.9158 10.2993 14.4064 10.0043 14.8149C9.70928 15.2233 9.29378 15.5292 8.8161 15.6894C8.33842 15.8497 7.82255 15.8563 7.3409 15.7084C6.85955 15.5606 6.43653 15.2659 6.13115 14.8656H6.13054C6.12753 14.8616 6.12454 14.8577 6.12155 14.8537C6.12922 14.8577 6.13692 14.8617 6.14464 14.8656H6.13208C6.46706 15.0338 6.83708 15.1206 7.21197 15.1187C7.84961 15.1199 8.4617 14.8682 8.9139 14.4186C9.3661 13.9691 9.62147 13.3585 9.62396 12.7208V1.33325H12.492V1.69999C12.4971 1.73878 12.5045 1.77819 12.5121 1.81776ZM7.95951 8.16485V10.413C7.38172 10.2304 6.75636 10.2719 6.2078 10.5294C5.65924 10.7868 5.22768 11.2413 4.99896 11.8024C4.77024 12.3636 4.76111 12.9902 4.97339 13.5578C5.18265 14.1173 5.59192 14.5789 6.12155 14.8537C5.85309 14.4981 5.68852 14.0749 5.64631 13.6312C5.60362 13.1826 5.68775 12.7309 5.88911 12.3277C6.09047 11.9245 6.40097 11.5859 6.78528 11.3505C7.16959 11.1151 7.61227 10.9923 8.06294 10.996C8.31176 10.996 8.55912 11.034 8.79641 11.1089V8.19381C8.51903 8.15708 8.23926 8.14136 7.95951 8.1468V8.16478L7.94544 8.14134V7.49721C6.76526 7.33688 5.56557 7.58101 4.54189 8.1898C3.51821 8.79859 2.73091 9.73614 2.3083 10.8497C1.88568 11.9632 1.85267 13.187 2.21465 14.3217C2.57662 15.4564 3.31224 16.435 4.30161 17.0981C3.58982 16.3622 3.10778 15.4349 2.91437 14.4295C2.72097 13.4241 2.82458 12.3841 3.21255 11.4366C3.60052 10.4891 4.25605 9.67518 5.09905 9.09415C5.94204 8.51314 6.936 8.19022 7.95951 8.16485ZM17.3018 8.85676C15.8784 8.8621 14.489 8.42145 13.3289 7.59669V13.4127C13.3245 14.4568 13.0104 15.4761 12.4263 16.3416C11.8422 17.2071 11.0145 17.8797 10.0478 18.2744C9.0812 18.6691 8.01919 18.7681 6.99626 18.5589C5.97334 18.3496 5.03553 17.8415 4.30157 17.0989C5.09506 17.625 6.01613 17.9265 6.96711 17.9716C7.91809 18.0166 8.86354 17.8034 9.7032 17.3547C10.5429 16.9059 11.2454 16.2383 11.7364 15.4226C12.2274 14.607 12.4885 13.6736 12.492 12.7216V6.91965C13.6516 7.75064 15.043 8.19634 16.4696 8.19381V5.94639C16.7429 6.00654 17.022 6.0365 17.3018 6.03572V8.85676ZM13.3289 2.39659C13.4066 3.26318 13.7686 4.07977 14.3585 4.71924C13.8836 4.42371 13.4761 4.03152 13.1626 3.56817C12.8491 3.10483 12.6366 2.5807 12.539 2.02986H13.3289V2.39659Z" fill="white"/>
</svg>
