<svg width="38" height="20" viewBox="0 0 38 20" fill="none" xmlns="http://www.w3.org/2000/svg">
<path d="M36.9012 4.35267C36.2775 3.31267 35.1242 2.66667 33.8916 2.66667C33.3836 2.66667 32.8825 2.78433 32.4279 2.998C32.2892 2.79767 32.1112 2.626 31.8942 2.50033L30.8109 1.875C30.5589 1.72933 30.2719 1.652 29.9812 1.65067C29.9452 1.62567 29.9082 1.60233 29.8699 1.58L28.3596 0.708C28.1242 0.572334 27.8569 0.500668 27.5855 0.500668C27.5622 0.500668 27.5389 0.501 27.5155 0.502C26.8005 0.176334 26.0609 0 25.3899 0H22.0579C21.1959 0 20.4612 0.296 19.9889 0.833C19.6635 1.20333 19.5529 1.70567 19.6929 2.17733C19.8319 2.646 20.1962 3.00433 20.6672 3.13567C20.7709 3.16833 21.1469 3.336 21.7599 3.661L21.5532 4H15.3999C15.1479 4 14.9026 4.027 14.6636 4.07233L14.3542 3.76267C14.4349 2.75367 14.0732 1.74133 13.3469 1.015C12.7529 0.421001 11.9629 0.0616668 11.1226 0.0043335C11.0809 0.0013335 11.0389 0 10.9969 0H7.66488C7.17988 0 6.72588 0.186667 6.38655 0.526334L6.30622 0.606333C6.00888 0.904 5.81922 1.281 5.75755 1.68933C5.34922 1.751 4.97222 1.94067 4.67455 2.238L4.59288 2.31967C4.23488 2.678 4.04388 3.166 4.06888 3.65933C4.08422 3.96267 4.14155 4.25567 4.23022 4.537C4.22222 4.534 4.21455 4.52967 4.20655 4.527L2.92755 4.07567C2.78155 4.02433 2.63188 3.99967 2.48422 3.99967C2.01855 3.99967 1.57288 4.24467 1.32922 4.667L0.911549 5.39067C0.590882 5.94667 0.711882 6.652 1.19922 7.06967L2.22922 7.95167C2.41355 8.10967 2.63722 8.214 2.87655 8.25433L3.33988 8.33167L3.93188 8.67333C2.89188 8.74333 2.06655 9.60933 2.06655 10.6667V11.3333C2.06655 11.9237 2.32522 12.4533 2.73322 12.8197V17.3333C2.73322 18.8037 3.92955 20 5.39988 20H32.7322C34.2025 20 35.3989 18.8037 35.3989 17.3333V12.8197C35.8069 12.4533 36.0656 11.9237 36.0656 11.3333V10.6667C36.0656 10.1153 35.8412 9.61567 35.4792 9.25333C35.5376 9.224 35.5979 9.19967 35.6549 9.167C36.4709 8.69567 37.0506 7.93367 37.2869 7.02133C37.5232 6.10933 37.3862 5.16133 36.9012 4.35267Z" fill="black"/>
<path fill-rule="evenodd" clip-rule="evenodd" d="M19.3998 13.3376H15.3998C15.0318 13.3376 14.7331 13.0389 14.7331 12.6709V11.9996C14.7331 11.6312 15.0318 11.3329 15.3998 11.3329H19.3998C19.7678 11.3329 20.0665 11.6312 20.0665 11.9996V12.6709C20.0665 13.0389 19.7678 13.3376 19.3998 13.3376ZM20.7332 12.6662H30.7332V17.3329C30.7332 18.0693 30.1362 18.6663 29.3999 18.6663H5.39975C4.66342 18.6663 4.06641 18.0693 4.06641 17.3329V12.6662H14.0665V12.6709C14.0665 13.4062 14.6645 14.0042 15.3998 14.0042H19.3998C20.1351 14.0042 20.7332 13.4062 20.7332 12.6709V12.6662ZM30.7332 9.99955C31.1015 9.99955 31.3999 10.2982 31.3999 10.6662V11.3329C31.3999 11.7009 31.1015 11.9996 30.7332 11.9996H20.7332C20.7332 11.2642 20.1351 10.6662 19.3998 10.6662H15.3998C14.6645 10.6662 14.0665 11.2642 14.0665 11.9996H4.06641C3.69841 11.9996 3.39975 11.7009 3.39975 11.3329V10.6662C3.39975 10.2982 3.69841 9.99955 4.06641 9.99955H12.7331V7.99955C12.7331 6.52687 13.9271 5.33287 15.3998 5.33287H19.3998C20.8725 5.33287 22.0665 6.52687 22.0665 7.99955V9.99955H30.7332ZM13.8998 9.99955H20.8998V7.99955C20.8998 7.17254 20.2268 6.49954 19.3998 6.49954H15.3998C14.5728 6.49954 13.8998 7.17254 13.8998 7.99955V9.99955ZM27.8955 3.65486C28.0592 3.7492 28.1152 3.95853 28.0205 4.1222L27.2878 5.39153C27.1935 5.5552 26.9842 5.6112 26.8205 5.51653L25.7375 4.89121C25.5738 4.79687 25.5178 4.58754 25.6122 4.4242L25.6562 4.34819C25.6858 4.29686 25.6682 4.23087 25.6168 4.2012C25.5655 4.17153 25.4822 4.1232 25.4305 4.09353C25.3792 4.06387 25.3135 4.08186 25.2838 4.1332C25.2245 4.23586 25.0928 4.2712 24.9902 4.21154L23.5005 3.35186C23.4152 3.3022 23.3762 3.20286 23.4002 3.11153C23.4095 3.07519 23.3858 3.03719 23.3535 3.01853C22.2852 2.40486 21.3605 1.94452 21.0258 1.85118C20.9655 1.83452 20.9488 1.76018 20.9902 1.71318C21.4882 1.14685 22.7698 1.21652 23.9985 1.90119C24.0315 1.91953 24.0758 1.92152 24.1028 1.89486C24.1702 1.82919 24.2752 1.81318 24.3608 1.86252L25.8708 2.73419C25.9728 2.79319 25.9792 2.91619 25.9258 3.02119C25.9002 3.07153 25.9185 3.13419 25.9682 3.16286C26.0195 3.19252 26.1028 3.24053 26.1542 3.2702C26.2058 3.29986 26.2715 3.28219 26.3012 3.23086L26.3452 3.15486C26.4395 2.99119 26.6488 2.93486 26.8122 3.02952L27.8955 3.65486ZM3.79775 7.05621L3.09641 6.93887L2.06641 6.05653L2.48407 5.3332L3.76308 5.7842L4.21475 6.33254L9.41177 9.33322H7.74143L3.79775 7.05621ZM6.33376 5.26021C5.74142 4.84887 5.43242 4.2262 5.40042 3.59186C5.39409 3.46853 5.44842 3.34986 5.53575 3.26219L5.61742 3.18053C5.85776 2.94052 6.24742 2.94052 6.48743 3.18053L7.16843 3.86119C7.30443 3.99719 7.50276 4.05053 7.68843 4.00086C7.87443 3.95086 8.01943 3.80586 8.06943 3.61986C8.1191 3.43419 8.06576 3.23586 7.92976 3.09986L7.24909 2.41919C7.00876 2.17886 7.00876 1.78919 7.24909 1.54886L7.32943 1.46852C7.42676 1.37119 7.5621 1.32485 7.69943 1.33418C8.19943 1.36852 8.68977 1.57518 9.0721 1.95752C9.63277 2.51819 9.81744 3.31019 9.63044 4.02553C9.60144 4.13553 9.6261 4.25219 9.70644 4.33253L12.2614 6.88754C12.1374 7.23588 12.0664 7.60921 12.0664 7.99955V9.30356L8.40177 5.63853C8.3211 5.5582 8.20477 5.53353 8.09476 5.56253C7.5011 5.7182 6.85009 5.61887 6.33376 5.26021ZM22.7332 7.99955C22.7332 7.19421 22.4462 6.45488 21.9692 5.87821L23.1672 3.9292L24.6568 4.78887L22.7332 8.33121V7.99955ZM32.4259 5.0382C33.0462 6.07287 32.6969 7.41122 31.6559 8.01189C30.9695 8.40822 30.1562 8.38188 29.5135 8.01588C29.4149 7.95988 29.2959 7.95355 29.1975 8.01022L26.9062 9.33288H23.2138L28.2738 6.41154C28.3725 6.35454 28.4268 6.24787 28.4275 6.1342C28.4322 5.37053 28.8415 4.6302 29.5715 4.24287C30.5649 3.7162 31.8475 4.07353 32.4259 5.0382ZM31.1945 7.21254L31.8099 6.14654L31.1945 5.08054H29.9639L29.3482 6.14654L29.9639 7.21254H31.1945Z" fill="white"/>
</svg>
