<svg width="55" height="30" viewBox="0 0 55 30" fill="none" xmlns="http://www.w3.org/2000/svg">
<path fill-rule="evenodd" clip-rule="evenodd" d="M23.5392 2.27841C19.2503 2.27997 15.7734 5.75516 15.7734 10.044C15.7734 10.9355 15.9236 11.792 16.2002 12.5894H14.4537H14.4188C13.8919 11.9283 13.0889 11.499 12.0817 11.499C11.5183 11.499 12.1323 11.499 10.6623 11.499C9.19225 11.499 8 12.6912 8 14.1612V22.8845C8 24.3545 9.19225 25.5468 10.6623 25.5468C11.2236 25.5468 11.6411 25.5468 12.0817 25.5468C13.0412 25.5468 13.8919 25.1174 14.4188 24.4564C14.5981 24.4564 14.7797 24.4457 14.9555 24.4876L26.289 27.5747L26.3215 27.5832C27.0964 27.7766 27.8115 27.7109 28.7683 27.7109C30.1106 27.7109 31.1359 27.5238 32.1344 26.909L45.324 18.5377C46.9403 17.6349 47.4813 15.706 46.5324 14.194C46.191 13.6504 45.703 13.2334 45.1408 12.9609C45.5381 12.0603 45.7569 11.0757 45.7569 10.044C45.7569 5.75516 41.7693 2.27841 37.3102 2.27841C36.3674 2.27841 35.6736 2.27841 34.9476 2.27841C32.9584 2.27841 31.4586 2.90269 30.1356 3.94852C28.6965 2.90269 27.0471 2.27841 24.9016 2.27841C24.3573 2.27841 24.0687 2.27821 23.5392 2.27841Z" fill="black"/>
<path fill-rule="evenodd" clip-rule="evenodd" d="M27.1812 10.044C27.1812 8.47502 27.6465 7.01473 28.4466 5.79358C27.2565 4.4212 25.5001 3.55322 23.5409 3.55322C19.9561 3.55322 17.05 6.45922 17.05 10.044C17.05 10.9995 17.2565 11.9069 17.6273 12.7238C17.9221 12.7994 18.209 12.9062 18.4828 13.0431L23.8732 15.7386C24.0335 15.8188 24.2105 15.8606 24.3893 15.8606H26.4246C27.199 15.4759 27.8857 14.9412 28.4466 14.2944C27.6465 13.0732 27.1812 11.613 27.1812 10.044ZM28.4561 10.044C28.4561 8.92045 28.7416 7.86358 29.2439 6.94196C29.2443 6.94265 29.2447 6.94333 29.2451 6.94402C30.3452 4.92402 32.4871 3.55322 34.9493 3.55322C38.5341 3.55322 41.4402 6.45922 41.4402 10.044C41.4402 10.9518 41.2538 11.816 40.9172 12.6006C40.2948 12.5476 39.6507 12.6754 39.0671 13.0059L33.0494 16.2522C31.4121 15.7518 30.0499 14.6216 29.2451 13.1439C29.2447 13.1446 29.2443 13.1453 29.2439 13.146C28.7416 12.2244 28.4561 11.1675 28.4561 10.044ZM22.9584 12.2671V13.5422H24.2731V12.2711C24.4499 12.2209 24.6097 12.1536 24.7522 12.0691C24.8948 11.982 25.0162 11.8791 25.1165 11.7603C25.2168 11.6415 25.2934 11.5095 25.3462 11.3643C25.4016 11.2191 25.4294 11.062 25.4294 10.893C25.4294 10.5736 25.3449 10.3149 25.1759 10.1169C25.007 9.91628 24.7456 9.76053 24.3919 9.64965L23.687 9.42394C23.6105 9.40018 23.5379 9.37642 23.4692 9.35266C23.4006 9.32627 23.3412 9.29855 23.291 9.26951C23.2409 9.23783 23.2013 9.20483 23.1722 9.17051C23.1432 9.13355 23.1287 9.09131 23.1287 9.0438C23.1287 8.95932 23.163 8.89332 23.2316 8.8458C23.3029 8.79828 23.4032 8.77453 23.5326 8.77453C23.6355 8.77453 23.7266 8.78905 23.8058 8.81808C23.885 8.84712 23.9523 8.88672 24.0078 8.93688C24.0632 8.98704 24.1054 9.04776 24.1345 9.11903C24.1635 9.18767 24.1794 9.27083 24.182 9.3685H25.5363V8.17659H24.8235C24.7522 8.12115 24.6704 8.06967 24.578 8.02215C24.4856 7.97463 24.384 7.9324 24.2731 7.89544V6.54513H22.9584V7.82812C22.7842 7.86244 22.6231 7.91524 22.4753 7.98651C22.3301 8.05515 22.2047 8.14359 22.0991 8.25182C21.9935 8.36006 21.9117 8.4881 21.8536 8.63593C21.7955 8.78113 21.7665 8.94612 21.7665 9.13091C21.7665 9.31835 21.7942 9.48334 21.8496 9.6259C21.9077 9.76581 21.9856 9.88725 22.0833 9.9902C22.181 10.0932 22.2945 10.1803 22.4238 10.2516C22.5558 10.3202 22.6957 10.3769 22.8436 10.4218L23.5801 10.6475C23.6329 10.6634 23.6857 10.6832 23.7385 10.7069C23.7939 10.7281 23.8428 10.7531 23.885 10.7822C23.9272 10.8112 23.9616 10.8442 23.988 10.8812C24.0144 10.9155 24.0276 10.9538 24.0276 10.996C24.0276 11.0858 23.9919 11.1584 23.9206 11.2138C23.8494 11.2692 23.7451 11.297 23.6078 11.297C23.4917 11.297 23.3887 11.2811 23.299 11.2494C23.2118 11.2178 23.1379 11.1742 23.0772 11.1188C23.0165 11.0607 22.9703 10.9934 22.9386 10.9168C22.9069 10.8376 22.8911 10.7505 22.8911 10.6555H21.5368V11.8474H22.2337C22.3288 11.9477 22.437 12.0322 22.5585 12.1008C22.6825 12.1694 22.8158 12.2249 22.9584 12.2671ZM11.7521 23.9749H10.6617C10.0598 23.9749 9.57129 23.4864 9.57129 22.8845V14.1612C9.57129 13.5593 10.0598 13.0708 10.6617 13.0708H11.7521C12.354 13.0708 12.8425 13.5593 12.8425 14.1612V22.8845C12.8425 23.4864 12.354 23.9749 11.7521 23.9749ZM42.0642 14.9796C42.5157 15.7619 42.248 16.7624 41.4656 17.2138L29.3136 25.6028C28.5459 26.1169 27.5973 26.2816 26.7015 26.0581L15.3488 22.9657C15.1329 22.9117 14.911 22.8845 14.6885 22.8845H13.9329V14.1612H16.5608C16.9839 14.1612 17.4015 14.2599 17.7798 14.4491L23.1703 17.1446C23.5486 17.3337 23.9663 17.4324 24.3893 17.4324H29.7443C30.6477 17.4324 31.3794 18.1652 31.3794 19.068C31.3794 19.9709 30.6477 20.7031 29.7443 20.7031C29.7394 20.7031 29.7345 20.702 29.7296 20.702H21.0205C20.7196 20.702 20.4753 20.9457 20.4753 21.2472C20.4753 21.5481 20.7196 21.7924 21.0205 21.7924H29.65L29.6543 21.793L29.7263 21.7935C30.838 21.8038 31.8809 21.1518 32.274 20.1121C32.4523 19.6421 32.5003 19.1792 32.448 18.7464C32.4213 18.5277 32.5341 18.3162 32.7282 18.2115L35.9905 16.4516L39.7301 14.4343L39.83 14.3804C40.6124 13.929 41.6123 14.1966 42.0642 14.9796ZM33.8674 7.14778C33.8674 6.92725 33.5999 6.81503 33.44 6.96851L31.3092 9.01405C31.1466 9.17015 31.2581 9.44296 31.4846 9.44296H38.6639C38.8031 9.44296 38.9159 9.33119 38.9159 9.19332V8.97141C38.9159 8.83354 38.8031 8.72177 38.6639 8.72177H34.1195C33.9803 8.72177 33.8674 8.61 33.8674 8.47212V7.14778ZM38.2937 10.6449C38.5202 10.6449 38.6317 10.9178 38.4691 11.0739L36.3383 13.1194C36.1784 13.2729 35.9109 13.1607 35.9109 12.9401V11.6158C35.9109 11.4779 35.798 11.3661 35.6588 11.3661L31.1144 11.3661C30.9752 11.3661 30.8624 11.2544 30.8624 11.1165V10.8946C30.8624 10.7567 30.9752 10.6449 31.1144 10.6449L38.2937 10.6449Z" fill="white"/>
</svg>
