<svg width="27" height="20" viewBox="0 0 27 20" fill="none" xmlns="http://www.w3.org/2000/svg">
<path d="M7.46191 0.00777484C7.51705 0.0045597 7.57262 0.00292969 7.62857 0.00292969C7.68452 0.00292969 7.74009 0.00455973 7.79524 0.0077749C7.85038 0.00455972 7.90595 0.00292969 7.96191 0.00292969C8.01786 0.00292969 8.07343 0.0045598 8.12857 0.00777499C8.18372 0.00455976 8.23929 0.00292969 8.29524 0.00292969C8.35119 0.00292969 8.40676 0.00455971 8.46191 0.00777485C8.51705 0.0045597 8.57262 0.00292969 8.62857 0.00292969C8.68452 0.00292969 8.74009 0.00455971 8.79524 0.00777486C8.85038 0.00455971 8.90595 0.00292969 8.96191 0.00292969C9.01786 0.00292969 9.07343 0.00455971 9.12857 0.00777485C9.18372 0.00455971 9.23929 0.00292969 9.29524 0.00292969C9.35119 0.00292969 9.40676 0.00455971 9.46191 0.00777486C9.51705 0.00455971 9.57262 0.00292969 9.62857 0.00292969C9.68452 0.00292969 9.74009 0.00455971 9.79524 0.00777486C9.85038 0.00455971 9.90595 0.00292969 9.96191 0.00292969C10.0179 0.00292969 10.0734 0.00455979 10.1286 0.00777496C10.1837 0.00455974 10.2393 0.00292969 10.2952 0.00292969C10.3512 0.00292969 10.4068 0.00455977 10.4619 0.00777495C10.517 0.00455974 10.5726 0.00292969 10.6286 0.00292969C10.6975 0.00292969 10.7659 0.00540601 10.8336 0.0102746C10.8916 0.00541073 10.9503 0.00292969 11.0095 0.00292969C11.0656 0.00292969 11.1212 0.00515496 11.1762 0.00952205C11.2312 0.00515496 11.2868 0.00292969 11.3429 0.00292969C11.399 0.00292969 11.4545 0.00515498 11.5095 0.00952212C11.5645 0.00515498 11.6201 0.00292969 11.6762 0.00292969C11.7323 0.00292969 11.7879 0.00515495 11.8429 0.00952204C11.8978 0.00515495 11.9534 0.00292969 12.0095 0.00292969C12.0656 0.00292969 12.1212 0.00515496 12.1762 0.00952205C12.2312 0.00515496 12.2868 0.00292969 12.3429 0.00292969C12.399 0.00292969 12.4545 0.00515496 12.5095 0.00952204C12.5645 0.00515495 12.6201 0.00292969 12.6762 0.00292969C12.7291 0.00292969 12.7815 0.00490554 12.8333 0.00878744C12.8852 0.00490554 12.9376 0.00292969 12.9905 0.00292969L13 0.00295107L13.0095 0.00292969C13.0624 0.00292969 13.1148 0.00490554 13.1667 0.00878743C13.2185 0.00490554 13.2709 0.00292969 13.3238 0.00292969C13.327 0.00292969 13.3302 0.00293682 13.3333 0.00295107C13.3365 0.00293682 13.3397 0.00292969 13.3429 0.00292969C13.3957 0.00292969 13.4481 0.00490554 13.5 0.00878743C13.5519 0.00490554 13.6043 0.00292969 13.6571 0.00292969L13.6667 0.00295107L13.6762 0.00292969C13.7291 0.00292969 13.7815 0.00490555 13.8333 0.00878745C13.8852 0.00490555 13.9376 0.00292969 13.9905 0.00292969L14 0.00295107L14.0095 0.00292969C14.0624 0.00292969 14.1148 0.00490555 14.1667 0.00878745C14.2185 0.00490555 14.2709 0.00292969 14.3238 0.00292969L14.3333 0.00295107L14.3429 0.00292969C14.3957 0.00292969 14.4481 0.00490554 14.5 0.00878742C14.5519 0.00490554 14.6043 0.00292969 14.6571 0.00292969C14.7132 0.00292969 14.7688 0.005155 14.8238 0.00952219C14.8788 0.00515501 14.9344 0.00292969 14.9905 0.00292969C15.0466 0.00292969 15.1022 0.00515497 15.1571 0.00952209C15.2121 0.00515497 15.2677 0.00292969 15.3238 0.00292969C15.3799 0.00292969 15.4355 0.00515495 15.4905 0.00952204C15.5455 0.00515495 15.601 0.00292969 15.6571 0.00292969C15.7132 0.00292969 15.7688 0.00515496 15.8238 0.00952205C15.8788 0.00515496 15.9344 0.00292969 15.9905 0.00292969C16.0466 0.00292969 16.1022 0.00515495 16.1571 0.00952204C16.2121 0.00515495 16.2677 0.00292969 16.3238 0.00292969C16.383 0.00292969 16.4417 0.00541073 16.4997 0.0102746C16.5674 0.005406 16.6358 0.00292969 16.7048 0.00292969C16.7607 0.00292969 16.8163 0.00455971 16.8714 0.00777485C16.9266 0.00455971 16.9821 0.00292969 17.0381 0.00292969C17.094 0.00292969 17.1496 0.00455975 17.2048 0.00777498C17.2599 0.00455976 17.3155 0.00292969 17.3714 0.00292969C17.4274 0.00292969 17.483 0.00455972 17.5381 0.00777489C17.5932 0.00455973 17.6488 0.00292969 17.7048 0.00292969C17.7607 0.00292969 17.8163 0.00455972 17.8714 0.00777488C17.9266 0.00455972 17.9821 0.00292969 18.0381 0.00292969C18.094 0.00292969 18.1496 0.00455984 18.2048 0.00777515C18.2599 0.00455981 18.3155 0.00292969 18.3714 0.00292969C18.4274 0.00292969 18.483 0.0045597 18.5381 0.00777484C18.5932 0.0045597 18.6488 0.00292969 18.7048 0.00292969C18.7607 0.00292969 18.8163 0.00455971 18.8714 0.00777485C18.9266 0.00455971 18.9821 0.00292969 19.0381 0.00292969C19.094 0.00292969 19.1496 0.00455971 19.2048 0.00777485C19.2599 0.00455971 19.3155 0.00292969 19.3714 0.00292969C19.4274 0.00292969 19.483 0.00455971 19.5381 0.00777485C19.5932 0.00455971 19.6488 0.00292969 19.7048 0.00292969C19.7607 0.00292969 19.8163 0.00455971 19.8714 0.00777485C19.9266 0.00455971 19.9821 0.00292969 20.0381 0.00292969C21.595 0.00292969 22.8571 1.26506 22.8571 2.82198C22.8571 3.24815 22.7626 3.65224 22.5933 4.0144C24.15 4.28632 25.3333 5.64453 25.3333 7.27912V10.4982C25.3333 11.6129 24.4548 12.5224 23.3524 12.5722V17.9267C23.3524 19.0734 22.4228 20.0029 21.2762 20.0029C21.2201 20.0029 21.1645 20.0007 21.1095 19.9963C21.0545 20.0007 20.999 20.0029 20.9429 20.0029C20.8868 20.0029 20.8312 20.0007 20.7762 19.9963C20.7212 20.0007 20.6656 20.0029 20.6095 20.0029C20.5534 20.0029 20.4978 20.0007 20.4429 19.9963C20.3879 20.0007 20.3323 20.0029 20.2762 20.0029C20.2201 20.0029 20.1645 20.0007 20.1095 19.9963C20.0545 20.0007 19.999 20.0029 19.9429 20.0029C19.8868 20.0029 19.8312 20.0007 19.7762 19.9963C19.7212 20.0007 19.6656 20.0029 19.6095 20.0029C19.5534 20.0029 19.4978 20.0007 19.4429 19.9963C19.3879 20.0007 19.3323 20.0029 19.2762 20.0029C19.2201 20.0029 19.1645 20.0007 19.1095 19.9963C19.0545 20.0007 18.999 20.0029 18.9429 20.0029C18.919 20.0029 18.8951 20.0025 18.8714 20.0017C18.8477 20.0025 18.8239 20.0029 18.8 20.0029C18.7681 20.0029 18.7363 20.0022 18.7048 20.0008C18.6732 20.0022 18.6414 20.0029 18.6095 20.0029C18.5856 20.0029 18.5618 20.0025 18.5381 20.0017C18.5144 20.0025 18.4906 20.0029 18.4667 20.0029C18.4347 20.0029 18.403 20.0022 18.3714 20.0008C18.3399 20.0022 18.3081 20.0029 18.2762 20.0029C18.2523 20.0029 18.2285 20.0025 18.2048 20.0017C18.1811 20.0025 18.1572 20.0029 18.1333 20.0029C18.1014 20.0029 18.0697 20.0022 18.0381 20.0008C18.0065 20.0022 17.9748 20.0029 17.9429 20.0029C17.919 20.0029 17.8951 20.0025 17.8714 20.0017C17.8477 20.0025 17.8239 20.0029 17.8 20.0029C17.7439 20.0029 17.6883 20.0007 17.6333 19.9963C17.5783 20.0007 17.5228 20.0029 17.4667 20.0029C17.4106 20.0029 17.355 20.0007 17.3 19.9963C17.245 20.0007 17.1894 20.0029 17.1333 20.0029C17.0772 20.0029 17.0216 20.0007 16.9667 19.9963C16.9117 20.0007 16.8561 20.0029 16.8 20.0029C16.7439 20.0029 16.6883 20.0007 16.6333 19.9963C16.5783 20.0007 16.5228 20.0029 16.4667 20.0029C16.4106 20.0029 16.355 20.0007 16.3 19.9963C16.245 20.0007 16.1894 20.0029 16.1333 20.0029C16.0772 20.0029 16.0216 20.0007 15.9667 19.9963C15.9117 20.0007 15.8561 20.0029 15.8 20.0029C15.7439 20.0029 15.6883 20.0007 15.6333 19.9963C15.5784 20.0007 15.5228 20.0029 15.4667 20.0029C14.6971 20.0029 14.0253 19.5842 13.6667 18.9621C13.3081 19.5842 12.6363 20.0029 11.8667 20.0029C11.8106 20.0029 11.755 20.0007 11.7 19.9963C11.645 20.0007 11.5894 20.0029 11.5333 20.0029C11.4772 20.0029 11.4216 20.0007 11.3667 19.9963C11.3117 20.0007 11.2561 20.0029 11.2 20.0029C11.1439 20.0029 11.0883 20.0007 11.0333 19.9963C10.9784 20.0007 10.9228 20.0029 10.8667 20.0029C10.8106 20.0029 10.755 20.0007 10.7 19.9963C10.645 20.0007 10.5894 20.0029 10.5333 20.0029C10.4772 20.0029 10.4216 20.0007 10.3667 19.9963C10.3117 20.0007 10.2561 20.0029 10.2 20.0029C10.1439 20.0029 10.0883 20.0007 10.0333 19.9963C9.97835 20.0007 9.92277 20.0029 9.86667 20.0029C9.81056 20.0029 9.75498 20.0007 9.7 19.9963C9.64502 20.0007 9.58944 20.0029 9.53333 20.0029C9.50943 20.0029 9.48561 20.0025 9.4619 20.0017C9.43819 20.0025 9.41438 20.0029 9.39048 20.0029C9.35856 20.0029 9.32681 20.0022 9.29524 20.0008C9.26367 20.0022 9.23192 20.0029 9.2 20.0029C9.17609 20.0029 9.15228 20.0025 9.12856 20.0017C9.10486 20.0025 9.08105 20.0029 9.05714 20.0029C9.02522 20.0029 8.99347 20.0022 8.96191 20.0008C8.93034 20.0022 8.89859 20.0029 8.86667 20.0029C8.84276 20.0029 8.81895 20.0025 8.79524 20.0017C8.77153 20.0025 8.74772 20.0029 8.72381 20.0029C8.69189 20.0029 8.66015 20.0022 8.62858 20.0008C8.59701 20.0022 8.56526 20.0029 8.53333 20.0029C8.50943 20.0029 8.48562 20.0025 8.46191 20.0017C8.43819 20.0025 8.41438 20.0029 8.39048 20.0029C8.33437 20.0029 8.27879 20.0007 8.22381 19.9963C8.16883 20.0007 8.11325 20.0029 8.05714 20.0029C8.00104 20.0029 7.94545 20.0007 7.89047 19.9963C7.83549 20.0007 7.77991 20.0029 7.72381 20.0029C7.66771 20.0029 7.61212 20.0007 7.55714 19.9963C7.50216 20.0007 7.44658 20.0029 7.39048 20.0029C7.33437 20.0029 7.27879 20.0007 7.22381 19.9963C7.16883 20.0007 7.11325 20.0029 7.05714 20.0029C7.00104 20.0029 6.94545 20.0007 6.89047 19.9963C6.83549 20.0007 6.77991 20.0029 6.72381 20.0029C6.66771 20.0029 6.61213 20.0007 6.55715 19.9963C6.50217 20.0007 6.44658 20.0029 6.39048 20.0029C6.33437 20.0029 6.27879 20.0007 6.22381 19.9963C6.16883 20.0007 6.11325 20.0029 6.05714 20.0029C4.9105 20.0029 3.98095 19.0734 3.98095 17.9267L3.98095 12.5722C2.87851 12.5224 2 11.6129 2 10.4982V7.27912C2 5.64453 3.18332 4.28632 4.74006 4.0144C4.57076 3.65224 4.47619 3.24815 4.47619 2.82198C4.47619 1.26506 5.73832 0.00292969 7.29524 0.00292969C7.35119 0.00292969 7.40676 0.0045597 7.46191 0.00777484Z" fill="black"/>
<path fill-rule="evenodd" clip-rule="evenodd" d="M10.2667 2.07916C10.2667 1.66889 10.5993 1.3363 11.0095 1.3363C11.4198 1.3363 11.7524 1.66889 11.7524 2.07916V4.30773C11.7524 5.56254 10.819 6.59935 9.60872 6.76179C9.42626 6.78628 9.2762 6.93316 9.2762 7.11726V17.9268C9.2762 18.337 8.94361 18.6696 8.53334 18.6696C8.12308 18.6696 7.79049 18.337 7.79049 17.9268V13.222C7.79049 12.9485 7.56876 12.7268 7.29525 12.7268C7.02174 12.7268 6.80001 12.9485 6.80001 13.222V17.9268C6.80001 18.337 6.46742 18.6696 6.05715 18.6696C5.64688 18.6696 5.3143 18.337 5.3143 17.9268L5.3143 7.03154C5.3143 6.89478 5.20343 6.78392 5.06668 6.78392C4.92992 6.78392 4.81906 6.89479 4.81906 7.03154L4.81906 10.4982C4.81906 10.9085 4.48647 11.2411 4.0762 11.2411C3.66593 11.2411 3.33334 10.9085 3.33334 10.4982V7.27916C3.33334 6.18511 4.22025 5.29821 5.3143 5.29821H9.2762C9.82323 5.29821 10.2667 4.85476 10.2667 4.30773L10.2667 2.07916ZM5.80953 2.82202C5.80953 2.00148 6.47471 1.3363 7.29525 1.3363C8.11579 1.3363 8.78096 2.00148 8.78096 2.82202C8.78096 3.64256 8.11579 4.30773 7.29525 4.30773C6.47471 4.30773 5.80953 3.64256 5.80953 2.82202ZM13.7333 2.07916C13.7333 1.66889 13.4008 1.3363 12.9905 1.3363C12.5802 1.3363 12.2476 1.66889 12.2476 2.07916V4.30773C12.2476 5.56254 13.181 6.59935 14.3913 6.76179C14.5738 6.78628 14.7238 6.93316 14.7238 7.11726V17.9268C14.7238 18.337 15.0564 18.6696 15.4667 18.6696C15.8769 18.6696 16.2095 18.337 16.2095 17.9268V13.222C16.2095 12.9485 16.4313 12.7268 16.7048 12.7268C16.9783 12.7268 17.2 12.9485 17.2 13.222V17.9268C17.2 18.337 17.5326 18.6696 17.9429 18.6696C18.3531 18.6696 18.6857 18.337 18.6857 17.9268L18.6857 7.03154C18.6857 6.89478 18.7966 6.78392 18.9333 6.78392C19.0701 6.78392 19.181 6.89479 19.181 7.03154L19.181 10.4982C19.181 10.9085 19.5136 11.2411 19.9238 11.2411C20.3341 11.2411 20.6667 10.9085 20.6667 10.4982V7.27916C20.6667 6.18511 19.7798 5.29821 18.6857 5.29821H14.7238C14.1768 5.29821 13.7333 4.85476 13.7333 4.30773L13.7333 2.07916ZM18.1905 2.82202C18.1905 2.00148 17.5253 1.3363 16.7048 1.3363C15.8842 1.3363 15.2191 2.00148 15.2191 2.82202C15.2191 3.64256 15.8842 4.30773 16.7048 4.30773C17.5253 4.30773 18.1905 3.64256 18.1905 2.82202Z" fill="white"/>
</svg>
