<svg width="55" height="30" viewBox="0 0 55 30" fill="none" xmlns="http://www.w3.org/2000/svg">
<path d="M10.6721 0.996754C7.19514 1.49291 5.0768 5.10778 6.39567 8.38057L8.88098 14.5439C9.18294 15.2935 9.6484 15.9638 10.2387 16.5059C10.5371 16.7809 10.8648 17.0194 11.2133 17.2194L32.2207 29.2764C33.1528 29.8114 34.1797 30.0401 35.1804 29.9942C35.3474 30.0018 35.5143 30.0018 35.6804 29.9942C35.8474 30.0018 36.0142 30.0018 36.1804 29.9942C36.3474 30.0018 36.5142 30.0018 36.6804 29.9942C36.8474 30.0018 37.0142 30.0018 37.1804 29.9942C37.3474 30.0018 37.5142 30.0018 37.6804 29.9942C37.8474 30.0018 38.0142 30.0018 38.1804 29.9942C38.3474 30.0018 38.5142 30.0018 38.6804 29.9942C38.8474 30.0018 39.0143 30.0018 39.1804 29.9942C39.3474 30.0018 39.5142 30.0018 39.6804 29.9942C40.3405 30.0245 40.998 29.9343 41.6187 29.7326C42.847 29.3355 43.9442 28.4985 44.6433 27.2949L48.7699 20.1896C50.2792 17.5909 49.3788 14.2739 46.7773 12.7808L25.7699 0.723774C24.8673 0.205747 23.8369 -0.0417102 22.8042 0.00573842C22.6379 -0.00189563 22.4711 -0.00192988 22.3042 0.0057384C22.1379 -0.00189564 21.9711 -0.00192987 21.8042 0.00573842C21.6379 -0.00189564 21.4711 -0.00192988 21.3042 0.00573842C21.1379 -0.00189564 20.9711 -0.00192988 20.8042 0.00573842C20.6379 -0.00189564 20.4711 -0.00192988 20.3042 0.00573842C20.1379 -0.00189564 19.9711 -0.00192988 19.8042 0.00573842C19.6379 -0.00189568 19.4711 -0.00192992 19.3042 0.00573845C19.1379 -0.00189564 18.9711 -0.00192989 18.8042 0.00573842C18.6379 -0.00189564 18.4711 -0.00192988 18.3042 0.00573842C17.9652 -0.00982556 17.6238 0.0061993 17.2844 0.0546835L10.6721 0.996754Z" fill="black"/>
<path d="M29.6412 18.8409C29.7765 18.9132 29.9161 18.9481 30.06 18.9455C30.206 18.944 30.3444 18.9116 30.4752 18.8482L31.0059 17.9344C30.9969 17.788 30.9528 17.6535 30.8736 17.5308C30.7975 17.4073 30.6965 17.3107 30.5704 17.241C30.4668 17.1788 30.3576 17.1401 30.2429 17.1249C30.1301 17.1108 30.0182 17.1185 29.9071 17.1479C29.798 17.1785 29.6949 17.2312 29.5977 17.3059C29.5006 17.3806 29.416 17.4799 29.3441 17.6038C29.2734 17.7256 29.2291 17.848 29.2114 17.971C29.1949 18.092 29.2006 18.2072 29.2285 18.3164C29.2596 18.4248 29.31 18.523 29.3798 18.611C29.4516 18.7001 29.5387 18.7768 29.6412 18.8409Z" fill="white"/>
<path d="M25.6978 16.6655C25.5543 16.6444 25.411 16.5928 25.2679 16.5106C25.1309 16.432 25.0461 16.3421 25.0135 16.2408C24.983 16.1407 24.9944 16.0448 25.0478 15.9529C25.0768 15.9029 25.1124 15.8648 25.1546 15.8384C25.1988 15.8132 25.2455 15.7974 25.2949 15.7911C25.3462 15.7859 25.3981 15.7891 25.4506 15.8006C25.503 15.812 25.5524 15.831 25.5988 15.8576L26.3242 16.274L26.0945 16.6695C25.9736 16.688 25.8414 16.6867 25.6978 16.6655Z" fill="white"/>
<path d="M33.4235 20.3845C33.4412 20.2615 33.4843 20.1411 33.5527 20.0233C33.6247 19.8994 33.7098 19.7991 33.8081 19.7224C33.9064 19.6457 34.0101 19.592 34.1192 19.5614C34.2303 19.532 34.3417 19.5253 34.4532 19.5414C34.568 19.5566 34.6771 19.5953 34.7808 19.6575C34.8887 19.7168 34.977 19.7914 35.0456 19.8814C35.1175 19.9706 35.1663 20.0692 35.1922 20.1772C35.2201 20.2865 35.2242 20.402 35.2045 20.5239C35.1848 20.6457 35.1389 20.7685 35.067 20.8924C34.9974 21.0122 34.9145 21.1111 34.8182 21.189C34.7231 21.2649 34.6204 21.3191 34.5101 21.3517C34.4018 21.3855 34.2898 21.3957 34.1739 21.3825C34.0611 21.3684 33.9514 21.3307 33.8446 21.2694C33.7398 21.2092 33.6527 21.1326 33.5832 21.0395C33.5157 20.9475 33.4676 20.8453 33.4388 20.7329C33.4121 20.6217 33.407 20.5055 33.4235 20.3845Z" fill="white"/>
<path fill-rule="evenodd" clip-rule="evenodd" d="M17.5667 2.03469C18.328 1.92576 19.1067 2.07513 19.7745 2.45838L40.7819 14.5154C42.4268 15.4595 42.9903 17.55 42.0406 19.1852L37.914 26.2905C37.4727 27.0503 36.7812 27.5786 36.0023 27.83C35.1073 28.1212 34.0959 28.0465 33.2164 27.5418L12.209 15.4847C11.9857 15.3566 11.7788 15.2054 11.5929 15.034C11.2205 14.6923 10.9265 14.2691 10.736 13.7959L8.25073 7.6326C7.42219 5.57657 8.74937 3.29141 10.9548 2.97669L17.5667 2.03469ZM13.1742 7.35443C12.6046 8.33511 11.3422 8.67139 10.3557 8.1052C9.36915 7.539 9.03087 6.28399 9.60043 5.30331C10.17 4.32263 11.4325 3.98635 12.419 4.55255C12.7586 4.74751 13.0223 5.02529 13.1992 5.34574C13.5327 5.95195 13.5476 6.71144 13.1742 7.35443ZM32.0937 15.0552L33.4629 15.8411L31.2321 19.6821L31.8427 20.0325L31.3659 20.8534L29.8244 19.9687L29.894 19.8489C29.7527 19.8424 29.6154 19.8221 29.4819 19.7882C29.3505 19.7554 29.2264 19.7054 29.1095 19.6383C28.8698 19.5007 28.6735 19.3321 28.5207 19.1326C28.3711 18.9322 28.2667 18.7165 28.2074 18.4854C28.1502 18.2555 28.1387 18.0185 28.173 17.7745C28.2084 17.5285 28.2922 17.2917 28.4244 17.064C28.5567 16.8362 28.719 16.6471 28.9112 16.4964C29.1067 16.3449 29.3173 16.2368 29.543 16.1719C29.7707 16.1082 30.0077 16.0911 30.2539 16.1205C30.5021 16.1511 30.7451 16.2347 30.9829 16.3711C31.1139 16.4463 31.2292 16.5298 31.329 16.6217C31.4299 16.7116 31.5195 16.8096 31.5976 16.9157L32.0552 16.1277L31.6169 15.8762L32.0937 15.0552ZM23.5827 13.5141C23.6106 13.4661 23.6211 13.411 23.6144 13.3485C23.6097 13.2872 23.5864 13.2232 23.5445 13.1566C23.5038 13.0879 23.4449 13.0182 23.3678 12.9473C23.2928 12.8776 23.1998 12.811 23.089 12.7474C23.0467 12.7231 22.999 12.701 22.946 12.6813C22.8942 12.6595 22.8419 12.6455 22.7892 12.6392C22.7384 12.634 22.6897 12.6393 22.6429 12.6551C22.5993 12.67 22.5636 12.7014 22.5357 12.7494C22.5218 12.7734 22.5115 12.7981 22.5048 12.8235C22.5001 12.8501 22.502 12.8792 22.5105 12.9107C22.5191 12.9422 22.5353 12.9768 22.5591 13.0145C22.5861 13.0513 22.6249 13.0908 22.6755 13.1332L23.1794 13.5702C23.3617 13.7281 23.505 13.8769 23.6092 14.0167C23.7134 14.1564 23.7847 14.2905 23.8229 14.4189C23.8611 14.5474 23.87 14.671 23.8494 14.7897C23.8308 14.9095 23.7885 15.0264 23.7224 15.1402C23.6191 15.318 23.4863 15.4495 23.324 15.5348C23.1636 15.6212 22.9888 15.67 22.7996 15.6812C22.6136 15.6916 22.4221 15.6697 22.2253 15.6153C22.0294 15.5641 21.8448 15.4888 21.6715 15.3893C21.5587 15.3245 21.46 15.2586 21.3754 15.1914C21.2928 15.1254 21.2212 15.059 21.1606 14.9922C21.102 14.9266 21.0527 14.8611 21.0129 14.7956C20.9762 14.7292 20.9452 14.6622 20.9201 14.5945L20.373 14.2805L20.8567 13.4476L21.7121 13.9385L21.7017 13.9565C21.67 14.0156 21.6586 14.0769 21.6673 14.1405C21.6772 14.2021 21.7007 14.2635 21.7377 14.3247C21.7767 14.3871 21.8268 14.4465 21.8881 14.5029C21.9505 14.5574 22.021 14.6072 22.0996 14.6523C22.2809 14.7563 22.4262 14.8091 22.5355 14.8106C22.646 14.8101 22.7227 14.7729 22.7656 14.699C22.7992 14.641 22.8075 14.5805 22.7904 14.5175C22.7745 14.4524 22.7221 14.3784 22.6332 14.2954L22.1243 13.8395C21.8001 13.5603 21.5924 13.2866 21.501 13.0184C21.4107 12.7482 21.4398 12.4853 21.5883 12.2296C21.6753 12.0798 21.7895 11.9642 21.9307 11.8828C22.0732 11.7995 22.2298 11.7495 22.4006 11.733C22.5725 11.7145 22.753 11.7276 22.9421 11.7722C23.1331 11.8179 23.3213 11.894 23.5067 12.0004C23.6337 12.0732 23.7419 12.146 23.8313 12.2186C23.9219 12.2893 23.9996 12.3591 24.0643 12.4282C24.1289 12.4973 24.1806 12.5656 24.2193 12.6331C24.2612 12.6997 24.2949 12.7643 24.3203 12.8269L24.8463 13.1287L24.3625 13.9616L23.5827 13.5141ZM19.8182 10.0871L21.2992 10.9371L19.9733 13.2202L20.3511 13.437L19.8743 14.2579L18.5474 13.4964L18.7005 13.2327C18.5381 13.2673 18.3702 13.2695 18.197 13.2393C18.0237 13.2092 17.8434 13.1403 17.656 13.0327C17.4827 12.9333 17.3352 12.8126 17.2134 12.6708C17.0916 12.529 17.0045 12.3712 16.9523 12.1974C16.9033 12.0228 16.8931 11.8345 16.9217 11.6325C16.9524 11.4317 17.0321 11.2205 17.1608 10.9988L17.7455 9.99208L17.3375 9.75789L17.8142 8.93696L19.1986 9.73147L18.1371 11.5591C18.0165 11.7668 17.9794 11.9533 18.0258 12.1184C18.0735 12.2816 18.1829 12.4123 18.3542 12.5106C18.4751 12.58 18.6064 12.6061 18.748 12.5889C18.8897 12.5716 19.0192 12.5128 19.1367 12.4124L19.8431 11.196L19.3414 10.908L19.8182 10.0871ZM25.4277 17.3734C25.5047 17.375 25.5913 17.374 25.6873 17.3706L25.5899 17.5383L26.8956 18.2878L27.3724 17.4668L26.9522 17.2257L27.6083 16.0962C27.7382 15.8724 27.8141 15.663 27.8361 15.4679C27.8601 15.2739 27.8405 15.0949 27.7773 14.9308C27.7152 14.7647 27.6128 14.6127 27.4699 14.4747C27.3302 14.336 27.1626 14.2105 26.9671 14.0983C26.7153 13.9537 26.455 13.8537 26.1864 13.798C25.9198 13.7436 25.6432 13.7273 25.3564 13.7491L25.309 14.4969C25.4826 14.5033 25.6514 14.5296 25.8153 14.5758C25.9825 14.6211 26.1607 14.6981 26.3501 14.8068C26.4408 14.8588 26.5192 14.9158 26.5853 14.9778C26.6526 15.0377 26.7025 15.1022 26.7348 15.1714C26.7684 15.2386 26.7834 15.3098 26.78 15.3851C26.7777 15.4584 26.754 15.5339 26.7087 15.6118L26.6531 15.7077C26.5651 15.6279 26.4657 15.5469 26.3549 15.4647C26.2473 15.3816 26.122 15.2991 25.9789 15.217C25.7835 15.1048 25.5947 15.0297 25.4125 14.9917C25.2336 14.9529 25.0662 14.9474 24.9104 14.9752C24.7557 15.0009 24.6148 15.0585 24.4876 15.148C24.3624 15.2386 24.2581 15.3558 24.1745 15.4996C24.0922 15.6414 24.0428 15.7889 24.0265 15.942C24.0113 16.093 24.0279 16.2424 24.0765 16.3901C24.1282 16.537 24.2125 16.6786 24.3295 16.815C24.4496 16.9505 24.6033 17.072 24.7907 17.1796C24.8653 17.2224 24.9367 17.2567 25.005 17.2825C25.0721 17.3104 25.1406 17.3311 25.2107 17.3447C25.2796 17.3602 25.3519 17.3698 25.4277 17.3734ZM33.1418 18.9405C32.9444 19.0909 32.7801 19.2789 32.649 19.5046C32.5168 19.7323 32.4319 19.9686 32.3945 20.2134C32.3603 20.4574 32.3728 20.695 32.432 20.926C32.4912 21.1571 32.5977 21.374 32.7513 21.5767C32.9069 21.7805 33.1107 21.9547 33.3626 22.0993C33.6124 22.2427 33.8641 22.3299 34.1175 22.3608C34.3729 22.3929 34.6161 22.3766 34.847 22.3121C35.0811 22.2467 35.2949 22.1377 35.4883 21.9851C35.6849 21.8316 35.8487 21.642 35.9798 21.4163C36.1109 21.1906 36.1926 20.9551 36.2248 20.71C36.259 20.466 36.2455 20.2279 36.1843 19.9956C36.123 19.7634 36.0146 19.5453 35.8589 19.3415C35.7053 19.1388 35.5066 18.9675 35.2628 18.8275C35.0189 18.6876 34.7703 18.6022 34.5169 18.5713C34.2635 18.5403 34.0204 18.5566 33.7874 18.62C33.5545 18.6833 33.3393 18.7902 33.1418 18.9405Z" fill="white"/>
</svg>
