<svg width="55" height="31" viewBox="0 0 55 31" fill="none" xmlns="http://www.w3.org/2000/svg">
<path d="M22.1382 0.503461C22.0852 0.502752 22.0322 0.502753 21.9792 0.503461H21.9141C20.3303 0.49637 18.8077 1.11654 17.6776 2.22919C16.546 3.34325 15.8998 4.86065 15.8799 6.45043C15.8798 6.4588 15.8798 6.46717 15.8798 6.47554V7.72565H9.87678C8.58337 7.72565 7.34295 8.24072 6.42837 9.15754C5.5138 10.0744 5 11.3179 5 12.6144V15.5032C5 15.5304 5.00055 15.5576 5.00166 15.5848C5.02274 16.8519 5.53399 18.0625 6.42936 18.9601C6.48044 19.0113 6.53253 19.0613 6.5856 19.1099C6.49287 19.3407 6.44183 19.5928 6.44183 19.8568V25.6141C6.44183 26.9107 6.95563 28.1542 7.8702 29.071C8.78477 29.9879 10.0252 30.5029 11.3186 30.5029H43.6814C44.9748 30.5029 46.2152 29.9879 47.1298 29.071C48.0444 28.1542 48.5582 26.9107 48.5582 25.6141V19.8568C48.5582 19.5928 48.5071 19.3407 48.4144 19.1099C48.4675 19.0613 48.5196 19.0113 48.5706 18.9601C49.466 18.0625 49.9773 16.8519 49.9983 15.5848C49.9994 15.5576 50 15.5304 50 15.5032V12.6144C50 11.3179 49.4862 10.0744 48.5716 9.15755C47.6565 8.24021 46.4149 7.72565 45.1222 7.72565H39.1202V6.47554C39.1202 6.46717 39.1202 6.4588 39.1201 6.45043C39.1002 4.86065 38.454 3.34326 37.3224 2.2292C36.1923 1.11654 34.6697 0.49637 33.0859 0.503461H33.0208C32.9678 0.502753 32.9148 0.502752 32.8618 0.503461H28.1519C28.134 0.50338 28.1161 0.50338 28.0982 0.503461H28.0331C27.9801 0.502753 27.9271 0.502752 27.8741 0.503461H27.1259C27.0729 0.502752 27.0199 0.502753 26.9669 0.503461H26.9018C26.8839 0.50338 26.866 0.50338 26.8481 0.503461H22.1382Z" fill="black"/>
<path d="M20.4731 4.89664C20.8909 4.47761 21.4564 4.24052 22.0472 4.23673H27.9528C28.5436 4.24052 29.1091 4.47761 29.5269 4.89664C29.9446 5.31568 30.181 5.88294 30.1848 6.47554V8.28102H32.1269V6.47554C32.1136 5.41369 31.6823 4.40019 30.927 3.65609C30.1717 2.91199 29.1537 2.49766 28.095 2.50346H28.0104C27.9673 2.50275 27.9241 2.50275 27.8808 2.50346H22.1192C22.0759 2.50275 22.0327 2.50275 21.9896 2.50346H21.905C20.8463 2.49766 19.8283 2.91199 19.073 3.65609C18.3177 4.40019 17.8864 5.41369 17.8731 6.47554V8.28102H19.8152V6.47554C19.819 5.88294 20.0554 5.31568 20.4731 4.89664Z" fill="white"/>
<path d="M27.88 21.4246C28.2619 21.4246 28.6282 21.2724 28.8983 21.0015C29.1683 20.7306 29.32 20.3633 29.32 19.9802V18.5358C29.32 18.1527 29.1683 17.7853 28.8983 17.5145C28.6282 17.2436 28.2619 17.0914 27.88 17.0914H22.1202C21.7383 17.0914 21.3718 17.2436 21.1017 17.5145C20.8317 17.7853 20.68 18.1527 20.68 18.5358V19.9802C20.68 20.3633 20.8317 20.7306 21.1017 21.0015C21.3718 21.2724 21.7381 21.4246 22.12 21.4246H27.88Z" fill="white"/>
<path d="M7.00107 15.5256C7.00069 15.5181 7.00033 15.5107 7 15.5032V12.6144C7 11.8483 7.30342 11.1135 7.84351 10.5718C8.3836 10.03 9.11612 9.72565 9.87992 9.72565H40.1191C40.8829 9.72565 41.6164 10.03 42.1565 10.5718C42.6966 11.1135 43 11.8483 43 12.6144V15.5032C42.9997 15.5107 42.9993 15.5181 42.9989 15.5256C42.9931 16.2836 42.6903 17.0094 42.1555 17.5459C41.6154 18.0876 40.8829 18.392 40.1191 18.392H30.7603C30.7234 17.6512 30.4027 16.953 29.8666 16.4421C29.3316 15.9323 28.622 15.648 27.8843 15.6477L27.8804 15.6477H22.1206L22.1157 15.6477C21.378 15.648 20.6684 15.9323 20.1334 16.4421C19.5973 16.953 19.2776 17.6512 19.2406 18.392H9.8809C9.1171 18.392 8.38458 18.0876 7.84449 17.5459C7.30965 17.0094 7.0069 16.2836 7.00107 15.5256Z" fill="white"/>
<path d="M11.3209 28.5029C10.5571 28.5029 9.82454 28.1986 9.28445 27.6568C8.74436 27.1151 8.44094 26.3803 8.44094 25.6141V19.8568C12.3717 19.8568 15.4531 19.8568 19.2397 19.8568V19.8366L19.2406 19.9088C19.2406 20.675 19.5441 21.4097 20.0842 21.9515C20.6242 22.4932 21.3568 22.7976 22.1206 22.7976H27.8794C28.6432 22.7976 29.3758 22.4932 29.9158 21.9515C30.4559 21.4097 30.7594 20.675 30.7594 19.9088V19.8366L30.7603 19.8568C34.5469 19.8568 37.6283 19.8568 41.5591 19.8568V25.6141C41.5591 26.3803 41.2556 27.1151 40.7155 27.6568C40.1755 28.1986 39.4429 28.5029 38.6791 28.5029H11.3209Z" fill="white"/>
</svg>
