<svg width="28" height="17" viewBox="0 0 28 17" fill="none" xmlns="http://www.w3.org/2000/svg">
<path d="M19.9511 7.84659V7.84642L19.9378 7.84677C19.7206 7.85255 19.5003 7.88703 19.2816 7.95264L19.1256 7.99946C19.6725 7.31548 20 6.44767 20 5.50317C20 3.29403 18.2091 1.50317 16 1.50317H15.9951H15.9902H15.9854H15.9805H15.9756H15.9707H15.9658H15.9609H15.9561H15.9512H15.9463H15.9414H15.9365H15.9316H15.9268H15.9219H15.917H15.9121H15.9072H15.9023H15.8975H15.8926H15.8877H15.8828H15.8779H15.873H15.8682H15.8633H15.8584H15.8535H15.8486H15.8438H15.8389H15.834H15.8291H15.8242H15.8193H15.8145H15.8096H15.8047H15.7998H15.7949H15.79H15.7852H15.7803H15.7754H15.7705H15.7656H15.7607H15.7559H15.751H15.7461H15.7412H15.7363H15.7314H15.7266H15.7217H15.7168H15.7119H15.707H15.7021H15.6973H15.6924H15.6875H15.6826H15.6777H15.6729H15.668H15.6631H15.6582H15.6533H15.6484H15.6436H15.6387H15.6338H15.6289H15.624H15.6191H15.6143H15.6094H15.6045H15.5996H15.5947H15.5898H15.585H15.5801H15.5752H15.5703H15.5654H15.5605H15.5557H15.5508H15.5459H15.541H15.5361H15.5312H15.5264H15.5215H15.5166H15.5117H15.5068H15.502H15.4971H15.4922H15.4873H15.4824H15.4775H15.4727H15.4678H15.4629H15.458H15.4531H15.4482H15.4434H15.4385H15.4336H15.4287H15.4238H15.4189H15.4141H15.4092H15.4043H15.3994H15.3945H15.3896H15.3848H15.3799H15.375H15.3701H15.3652H15.3604H15.3555H15.3506H15.3457H15.3408H15.3359H15.3311H15.3262H15.3213H15.3164H15.3115H15.3066H15.3018H15.2969H15.292H15.2871H15.2822H15.2773H15.2725H15.2676H15.2627H15.2578H15.2529H15.248H15.2432H15.2383H15.2334H15.2285H15.2236H15.2187H15.2139H15.209H15.2041H15.1992H15.1943H15.1895H15.1846H15.1797H15.1748H15.1699H15.165H15.1602H15.1553H15.1504H15.1455H15.1406H15.1357H15.1309H15.126H15.1211H15.1162H15.1113H15.1064H15.1016H15.0967H15.0918H15.0869H15.082H15.0771H15.0723H15.0674H15.0625H15.0576H15.0527H15.0479H15.043H15.0381H15.0332H15.0283H15.0234H15.0186H15.0137H15.0088H15.0039H14.999H14.9941H14.9893H14.9844H14.9795H14.9746H14.9697H14.9648H14.96H14.9551H14.9502H14.9453H14.9404H14.9355H14.9307H14.9258H14.9209H14.916H14.9111H14.9062H14.9014H14.8965H14.8916H14.8867H14.8818H14.877H14.8721H14.8672H14.8623H14.8574H14.8525H14.8477H14.8428H14.8379H14.833H14.8281H14.8232H14.8184H14.8135H14.8086H14.8037H14.7988H14.7939H14.7891H14.7842H14.7793H14.7744H14.7695H14.7646H14.7598H14.7549H14.75H14.7451H14.7402H14.7354H14.7305H14.7256H14.7207H14.7158H14.7109H14.7061H14.7012H14.6963H14.6914H14.6865H14.6816H14.6768H14.6719H14.667H14.6621H14.6572H14.6523H14.6475H14.6426H14.6377H14.6328H14.6279H14.623H14.6182H14.6133H14.6084H14.6035H14.5986H14.5938H14.5889H14.584H14.5791H14.5742H14.5693H14.5645H14.5596H14.5547H14.5498H14.5449H14.54H14.5352H14.5303H14.5254H14.5205H14.5156H14.5107H14.5059H14.501H14.4961H14.4912H14.4863H14.4814H14.4766H14.4717H14.4668H14.4619H14.457H14.4521H14.4473H14.4424H14.4375H14.4326H14.4277H14.4229H14.418H14.4131H14.4082H14.4033H14.3984H14.3936H14.3887H14.3838H14.3789H14.374H14.3691H14.3643H14.3594H14.3545H14.3496H14.3447H14.3398H14.335H14.3301H14.3252H14.3203H14.3154H14.3105H14.3057H14.3008H14.2959H14.291H14.2861H14.2813H14.2764H14.2715H14.2666H14.2617H14.2568H14.252H14.2471H14.2422H14.2373H14.2324H14.2275H14.2227H14.2178H14.2129H14.208H14.2031H14.1982H14.1934H14.1885H14.1836H14.1787H14.1738H14.1689H14.1641H14.1592H14.1543H14.1494H14.1445H14.1396H14.1348H14.1299H14.125H14.1201H14.1152H14.1104H14.1055H14.1006H14.0957H14.0908H14.0859H14.0811H14.0762H14.0713H14.0664H14.0615H14.0566H14.0518H14.0469H14.042H14.0371H14.0322H14.0273H14.0225H14.0176H14.0127H14.0078H14.0029H13.998H13.9932H13.9883H13.9834H13.9785H13.9736H13.9688H13.9639H13.959H13.9541H13.9492H13.9443H13.9395H13.9346H13.9297H13.9248H13.9199H13.915H13.9102H13.9053H13.9004H13.8955H13.8906H13.8857H13.8809H13.876H13.8711H13.8662H13.8613H13.8564H13.8516H13.8467H13.8418H13.8369H13.832H13.8271H13.8223H13.8174H13.8125H13.8076H13.8027H13.7979H13.793H13.7881H13.7832H13.7783H13.7734H13.7686H13.7637H13.7588H13.7539H13.749H13.7441H13.7393H13.7344H13.7295H13.7246H13.7197H13.7148H13.71H13.7051H13.7002H13.6953H13.6904H13.6855H13.6807H13.6758H13.6709H13.666H13.6611H13.6562H13.6514H13.6465H13.6416H13.6367H13.6318H13.627H13.6221H13.6172H13.6123H13.6074H13.6025H13.5977H13.5928H13.5879H13.583H13.5781H13.5732H13.5684H13.5635H13.5586H13.5537H13.5488H13.5439H13.5391H13.5342H13.5293H13.5244H13.5195H13.5146H13.5098H13.5049H13.5C13.149 1.50317 12.8081 1.54849 12.4829 1.63377C11.6892 0.930704 10.6441 0.503174 9.5 0.503174H9.49512H9.49023H9.48535H9.48047H9.47559H9.4707H9.46582H9.46094H9.45605H9.45117H9.44629H9.44141H9.43652H9.43164H9.42676H9.42188H9.41699H9.41211H9.40723H9.40234H9.39746H9.39258H9.3877H9.38281H9.37793H9.37305H9.36816H9.36328H9.3584H9.35352H9.34863H9.34375H9.33887H9.33398H9.3291H9.32422H9.31934H9.31445H9.30957H9.30469H9.2998H9.29492H9.29004H9.28516H9.28027H9.27539H9.27051H9.26562H9.26074H9.25586H9.25098H9.24609H9.24121H9.23633H9.23144H9.22656H9.22168H9.2168H9.21191H9.20703H9.20215H9.19727H9.19238H9.1875H9.18262H9.17773H9.17285H9.16797H9.16309H9.1582H9.15332H9.14844H9.14355H9.13867H9.13379H9.12891H9.12402H9.11914H9.11426H9.10937H9.10449H9.09961H9.09473H9.08984H9.08496H9.08008H9.07519H9.07031H9.06543H9.06055H9.05566H9.05078H9.0459H9.04102H9.03613H9.03125H9.02637H9.02148H9.0166H9.01172H9.00684H9.00195H8.99707H8.99219H8.9873H8.98242H8.97754H8.97266H8.96777H8.96289H8.95801H8.95312H8.94824H8.94336H8.93848H8.93359H8.92871H8.92383H8.91894H8.91406H8.90918H8.9043H8.89941H8.89453H8.88965H8.88477H8.87988H8.875H8.87012H8.86523H8.86035H8.85547H8.85059H8.8457H8.84082H8.83594H8.83105H8.82617H8.82129H8.81641H8.81152H8.80664H8.80176H8.79687H8.79199H8.78711H8.78223H8.77734H8.77246H8.76758H8.76269H8.75781H8.75293H8.74805H8.74316H8.73828H8.7334H8.72852H8.72363H8.71875H8.71387H8.70898H8.7041H8.69922H8.69434H8.68945H8.68457H8.67969H8.6748H8.66992H8.66504H8.66016H8.65527H8.65039H8.64551H8.64062H8.63574H8.63086H8.62598H8.62109H8.61621H8.61133H8.60644H8.60156H8.59668H8.5918H8.58691H8.58203H8.57715H8.57227H8.56738H8.5625H8.55762H8.55273H8.54785H8.54297H8.53809H8.5332H8.52832H8.52344H8.51855H8.51367H8.50879H8.50391H8.49902H8.49414H8.48926H8.48438H8.47949H8.47461H8.46973H8.46484H8.45996H8.45508H8.4502H8.44531H8.44043H8.43555H8.43066H8.42578H8.4209H8.41602H8.41113H8.40625H8.40137H8.39648H8.3916H8.38672H8.38184H8.37695H8.37207H8.36719H8.3623H8.35742H8.35254H8.34766H8.34277H8.33789H8.33301H8.32812H8.32324H8.31836H8.31348H8.30859H8.30371H8.29883H8.29395H8.28906H8.28418H8.2793H8.27441H8.26953H8.26465H8.25977H8.25488H8.25H8.24512H8.24023H8.23535H8.23047H8.22559H8.2207H8.21582H8.21094H8.20605H8.20117H8.19629H8.19141H8.18652H8.18164H8.17676H8.17188H8.16699H8.16211H8.15723H8.15234H8.14746H8.14258H8.1377H8.13281H8.12793H8.12305H8.11816H8.11328H8.1084H8.10352H8.09863H8.09375H8.08887H8.08398H8.0791H8.07422H8.06934H8.06445H8.05957H8.05469H8.0498H8.04492H8.04004H8.03516H8.03027H8.02539H8.02051H8.01562H8.01074H8.00586H8.00098H7.99609H7.99121H7.98633H7.98145H7.97656H7.97168H7.9668H7.96191H7.95703H7.95215H7.94727H7.94238H7.9375H7.93262H7.92773H7.92285H7.91797H7.91309H7.9082H7.90332H7.89844H7.89356H7.88867H7.88379H7.87891H7.87402H7.86914H7.86426H7.85938H7.85449H7.84961H7.84473H7.83984H7.83496H7.83008H7.8252H7.82031H7.81543H7.81055H7.80566H7.80078H7.7959H7.79102H7.78613H7.78125H7.77637H7.77148H7.7666H7.76172H7.75684H7.75195H7.74707H7.74219H7.73731H7.73242H7.72754H7.72266H7.71777H7.71289H7.70801H7.70313H7.69824H7.69336H7.68848H7.68359H7.67871H7.67383H7.66895H7.66406H7.65918H7.6543H7.64941H7.64453H7.63965H7.63477H7.62988H7.625H7.62012H7.61523H7.61035H7.60547H7.60059H7.5957H7.59082H7.58594H7.58106H7.57617H7.57129H7.56641H7.56152H7.55664H7.55176H7.54688H7.54199H7.53711H7.53223H7.52734H7.52246H7.51758H7.5127H7.50781H7.50293H7.49805H7.49316H7.48828H7.4834H7.47852H7.47363H7.46875H7.46387H7.45898H7.4541H7.44922H7.44434H7.43945H7.43457H7.42969H7.42481H7.41992H7.41504H7.41016H7.40527H7.40039H7.39551H7.39063H7.38574H7.38086H7.37598H7.37109H7.36621H7.36133H7.35645H7.35156H7.34668H7.3418H7.33691H7.33203H7.32715H7.32227H7.31738H7.3125H7.30762H7.30273H7.29785H7.29297H7.28809H7.2832H7.27832H7.27344H7.26856H7.26367H7.25879H7.25391H7.24902H7.24414H7.23926H7.23438H7.22949H7.22461H7.21973H7.21484H7.20996H7.20508H7.2002H7.19531H7.19043H7.18555H7.18066H7.17578H7.1709H7.16602H7.16113H7.15625H7.15137H7.14648H7.1416H7.13672H7.13184H7.12695H7.12207H7.11719H7.1123H7.10742H7.10254H7.09766H7.09277H7.08789H7.08301H7.07812H7.07324H7.06836H7.06348H7.05859H7.05371H7.04883H7.04395H7.03906H7.03418H7.0293H7.02441H7.01953H7.01465H7.00977H7.00488H7C4.51472 0.503174 2.5 2.51789 2.5 5.00317C2.5 6.36878 3.10857 7.59201 4.06781 8.41677C3.71335 8.84808 3.5 9.40071 3.5 10.0032V14.0032C3.5 15.3839 4.61929 16.5032 6 16.5032H16.5C17.199 16.5032 17.8309 16.216 18.2841 15.7544L19.2816 16.0537C19.608 16.1516 19.9369 16.18 20.2534 16.1478C20.4222 16.1649 20.5896 16.1644 20.7534 16.1478C20.9222 16.1649 21.0896 16.1644 21.2534 16.1478C21.4222 16.1649 21.5896 16.1644 21.7534 16.1478C21.9222 16.1649 22.0896 16.1644 22.2534 16.1478C23.6878 16.2933 25 15.1698 25 13.6591V10.3472C25 8.90333 23.8016 7.81433 22.4448 7.84659H19.9511Z" fill="black" stroke="white"/>
<path fill-rule="evenodd" clip-rule="evenodd" d="M7 2.00317C5.34315 2.00317 4 3.34632 4 5.00317C4 6.66003 5.34315 8.00317 7 8.00317C8.65685 8.00317 10 6.66003 10 5.00317C10 3.34632 8.65685 2.00317 7 2.00317ZM6 9.00317C5.44772 9.00317 5 9.45089 5 10.0032V14.0032C5 14.5555 5.44772 15.0032 6 15.0032H14C14.5523 15.0032 15 14.5555 15 14.0032V10.0032C15 9.45089 14.5523 9.00317 14 9.00317H6ZM11 5.50317C11 4.12246 12.1193 3.00317 13.5 3.00317C14.8807 3.00317 16 4.12246 16 5.50317C16 6.88389 14.8807 8.00317 13.5 8.00317C12.1193 8.00317 11 6.88389 11 5.50317ZM16.7127 10.2894C16.2897 10.4163 16 10.8056 16 11.2472V12.7591C16 13.2008 16.2897 13.5901 16.7127 13.717L19.7127 14.617C20.3543 14.8095 21 14.329 21 13.6591V10.3472C21 9.67734 20.3543 9.19689 19.7127 9.38938L16.7127 10.2894Z" fill="white"/>
</svg>
