<svg width="55" height="30" viewBox="0 0 55 30" fill="none" xmlns="http://www.w3.org/2000/svg">
<path d="M26.6012 0C26.5173 0 26.434 0.00250098 26.3514 0.00743213C26.2687 0.00250086 26.1852 0 26.1012 0C23.8187 0 21.9748 1.85267 21.9748 4.13015C21.9748 4.68863 22.0855 5.22161 22.2864 5.70803C22.2071 5.7084 22.128 5.71215 22.0494 5.71922C21.8822 5.70416 21.7149 5.70435 21.5494 5.71922C21.3822 5.70416 21.2149 5.70435 21.0494 5.71922C20.8822 5.70416 20.7149 5.70435 20.5494 5.71922C20.3822 5.70416 20.2149 5.70435 20.0494 5.71922C19.8822 5.70416 19.7149 5.70435 19.5495 5.71922C19.3822 5.70416 19.2149 5.70435 19.0495 5.71922C17.9563 5.62077 16.8585 6.17437 16.3166 7.21354L16.3127 7.22101C15.6296 8.54449 16.0927 10.2059 17.4382 10.9537L19.3273 12.0094L19.3301 12.011C20.1494 12.4671 21.0628 12.678 21.9686 12.6445V16.9928L20.2309 18.7286L20.2284 18.731C19.4851 19.4761 18.9208 20.3881 18.5929 21.4008L18.5913 21.4058L17.1293 25.8596C17.1265 25.8683 17.1237 25.877 17.1209 25.8857C16.6092 27.5198 17.481 29.2983 19.1505 29.8434C19.5587 29.9767 19.976 30.0223 20.3809 29.99C20.5487 30.0034 20.7158 30.0032 20.8809 29.99C21.0487 30.0034 21.2158 30.0032 21.3809 29.99C21.5487 30.0034 21.7158 30.0032 21.8809 29.99C22.0487 30.0034 22.2158 30.0032 22.3809 29.99C22.5487 30.0034 22.7158 30.0032 22.8809 29.99C23.0487 30.0034 23.2158 30.0032 23.3809 29.99C23.5487 30.0034 23.7158 30.0032 23.8809 29.99C24.0487 30.0034 24.2158 30.0032 24.3809 29.99C24.5486 30.0034 24.7158 30.0032 24.8809 29.99C26.1687 30.0929 27.421 29.3933 27.9852 28.1908L28.0895 28.3719L28.0963 28.3835C28.7337 29.4729 29.9301 30.0699 31.1328 29.9749C31.2984 29.988 31.4655 29.9881 31.6328 29.9749C31.7983 29.988 31.9655 29.9881 32.1328 29.9749C32.2983 29.988 32.4655 29.9881 32.6328 29.9749C32.7983 29.988 32.9655 29.9881 33.1328 29.9749C33.2983 29.988 33.4655 29.9881 33.6328 29.9749C33.7983 29.988 33.9655 29.9881 34.1328 29.9749C34.2983 29.988 34.4655 29.9881 34.6328 29.9749C34.7983 29.988 34.9655 29.9881 35.1328 29.9749C35.2983 29.988 35.4655 29.9881 35.6328 29.9749C36.255 30.0239 36.9 29.8913 37.4887 29.5487C39.033 28.6564 39.5409 26.685 38.6646 25.1595L36.3693 21.1815L36.3624 21.1696C36.2523 20.9818 36.1614 20.765 36.0903 20.5116L35.3326 17.6789V17.0551C35.4978 17.0689 35.6615 17.0681 35.8215 17.0541C35.9904 17.069 36.1579 17.0684 36.3215 17.0541C36.4904 17.069 36.6579 17.0684 36.8214 17.0541C37.1693 17.0847 37.5111 17.0499 37.8253 16.9645C38.4439 16.7962 39.0667 16.4007 39.4732 15.7487C39.9009 15.0629 39.9875 14.2557 39.783 13.4978L39.1288 11.0404L39.1282 11.0381C38.6271 9.16488 37.3441 7.6008 35.6128 6.7413L34.6433 6.26124C35.0182 5.639 35.2338 4.90979 35.2338 4.13015C35.2338 1.84879 33.3859 0 31.1011 0C31.0173 0 30.934 0.00250099 30.8514 0.00743214C30.7686 0.00250087 30.6852 0 30.6011 0C30.5173 0 30.434 0.00250098 30.3514 0.00743213C30.2686 0.00250086 30.1852 0 30.1011 0C30.0173 0 29.934 0.00250099 29.8514 0.00743214C29.7686 0.00250087 29.6852 0 29.6011 0C29.5173 0 29.434 0.00250098 29.3514 0.00743213C29.2686 0.00250086 29.1852 0 29.1011 0C29.0173 0 28.934 0.00250098 28.8514 0.00743213C28.7686 0.00250086 28.6852 0 28.6012 0C28.5173 0 28.434 0.00250099 28.3514 0.00743215C28.2686 0.00250087 28.1852 0 28.1012 0C28.0173 0 27.934 0.002501 27.8514 0.00743217C27.7686 0.00250088 27.6852 0 27.6012 0C27.5173 0 27.434 0.002501 27.3514 0.00743217C27.2686 0.00250088 27.1852 0 27.1012 0C27.0173 0 26.934 0.00250099 26.8514 0.00743219C26.7686 0.00250088 26.6852 0 26.6012 0Z" fill="black"/>
<path fill-rule="evenodd" clip-rule="evenodd" d="M28.3683 9.87843C29.6169 10.4737 30.5442 11.5901 30.9027 12.929L31.3169 14.4713C31.5951 15.4901 33.1466 15.1062 32.8499 14.0164L32.1946 11.5549C31.8423 10.2376 30.9398 9.13725 29.722 8.5327L27.8181 7.59003C27.3112 7.33905 26.7549 7.20862 26.1924 7.20862C25.5124 7.20862 24.851 7.39716 24.2699 7.7526L22.9285 8.57412C22.2052 9.01796 21.3028 9.03094 20.561 8.60627L19.1949 7.81565C18.7993 7.58817 18.2985 7.73527 18.0884 8.13831C17.8905 8.52157 18.0265 8.99448 18.4098 9.2065L20.3013 10.2635C21.2286 10.7797 22.3536 10.7754 23.2747 10.2549L23.967 9.86111V17.6221C23.967 17.7476 23.9176 17.8687 23.831 17.9578L21.6427 20.1436C21.1173 20.6703 20.7217 21.3119 20.493 22.0203L19.028 26.4834C18.8363 27.0954 19.1639 27.7444 19.7697 27.9422C20.3755 28.1401 21.0307 27.8125 21.2286 27.2005L22.434 23.5101C22.6689 22.8054 23.0583 22.1563 23.5899 21.6309L25.7905 19.429C25.9451 19.2751 26.2109 19.3443 26.2665 19.5569L26.9342 22.045C27.0393 22.4468 27.1999 22.8301 27.4101 23.1886L29.8209 27.3736C30.1609 27.9546 30.9027 28.1586 31.4838 27.8186C32.0649 27.4848 32.2627 26.7369 31.9289 26.1558L29.6355 22.181C29.4254 21.8225 29.2708 21.4392 29.1595 21.0387L28.3435 17.9881C28.3312 17.9491 28.3311 17.9077 28.3311 17.8669V9.86111L28.3683 9.87843ZM28.2323 4.13016C28.2323 2.95381 27.2803 2 26.0996 2C24.9251 2 23.9732 2.95381 23.9732 4.13016C23.9732 5.30837 24.9251 6.26222 26.0996 6.26222C27.2803 6.26222 28.2323 5.30837 28.2323 4.13016Z" fill="white"/>
</svg>
