<svg width="24" height="20" viewBox="0 0 24 20" fill="none" xmlns="http://www.w3.org/2000/svg">
<path d="M0.608936 19.5348C0.273975 19.1991 0.143575 18.7101 0.266854 18.2521L1.37084 14.1509C0.420783 12.1941 0.144275 9.97266 0.594344 7.83426C1.08262 5.51434 2.3931 3.44862 4.28437 2.01572C6.0499 0.678074 8.21116 -0.0245242 10.418 0.0125098C11.4119 -0.00417095 12.4112 -0.00416892 13.4051 0.0125098C13.6722 0.00802602 13.9403 0.0143584 14.2087 0.0316939C16.5777 0.184705 18.8126 1.18473 20.5029 2.84913C22.1934 4.51361 23.2259 6.73091 23.4102 9.09439C23.5944 11.4579 22.9179 13.808 21.5055 15.7135C20.0932 17.6188 18.0399 18.9516 15.7229 19.4681C14.957 19.6388 14.1792 19.7166 13.4055 19.7036C12.4116 19.7203 11.4123 19.7203 10.4184 19.7036C9.40367 19.7206 8.39215 19.5813 7.41995 19.2907L5.20975 19.88C5.0415 19.9248 4.86916 19.9355 4.70184 19.9144C3.79678 20.0286 2.61985 20.0285 1.71479 19.9144C1.31068 19.9654 0.901279 19.8279 0.608936 19.5348Z" fill="black"/>
<path fill-rule="evenodd" clip-rule="evenodd" d="M2.79832 14.0466L1.55469 18.6666L6.22564 17.4212C8.04279 18.3983 10.1522 18.6889 12.1669 18.2398C14.1815 17.7907 15.9662 16.632 17.1935 14.9764C18.4208 13.3207 19.0083 11.2791 18.8482 9.2262C18.6882 7.17332 17.7913 5.24685 16.3222 3.80032C14.8531 2.35378 12.9103 1.4842 10.8502 1.35114C8.79023 1.21809 6.75119 1.83049 5.10731 3.07596C3.46343 4.32144 2.32497 6.11644 1.90084 8.13159C1.47671 10.1467 1.79536 12.2469 2.79832 14.0466ZM6.73974 15.8633L6.45087 15.6924L3.8412 16.3859L4.53646 13.8073L4.3553 13.5094C3.69141 12.4311 3.34056 11.1901 3.34179 9.92474C3.33952 8.3986 3.84344 6.91459 4.77502 5.70395C5.70661 4.49331 7.01352 3.62405 8.49211 3.23164C9.97069 2.83923 11.5379 2.9457 12.9495 3.53447C14.3611 4.12324 15.5377 5.16123 16.2961 6.48669C17.0545 7.81215 17.352 9.35061 17.1423 10.8623C16.9326 12.3741 16.2274 13.7741 15.1367 14.8444C14.0459 15.9146 12.6309 16.5949 11.1121 16.7792C9.59323 16.9635 8.05594 16.6415 6.73974 15.8633ZM12.8823 11.0625C13.0944 11.1108 13.2927 11.2067 13.462 11.3429C13.5113 11.3719 13.5653 11.4018 13.6217 11.433C13.946 11.6128 14.3515 11.8376 14.4266 12.1829C14.4633 12.3811 14.4377 12.5859 14.3531 12.769C14.2093 13.0721 13.9929 13.3353 13.7231 13.5354C13.4533 13.7355 13.1384 13.8664 12.8059 13.9166C12.2225 13.9827 11.632 13.8898 11.0972 13.648C10.5823 13.4722 10.0895 13.2379 9.62833 12.9497C8.70936 12.3825 7.90954 11.6428 7.27326 10.7715C7.07748 10.5063 6.89606 10.2308 6.72979 9.94618C6.49933 9.57466 6.32448 9.17157 6.21079 8.74967C6.16602 8.57406 6.143 8.39365 6.14225 8.21246C6.13101 7.8898 6.19248 7.56874 6.32213 7.27292C6.45177 6.9771 6.64629 6.71406 6.89136 6.50316C7.03253 6.37784 7.20703 6.29595 7.39381 6.26735C7.5806 6.23876 7.77169 6.26468 7.94404 6.342C8.27819 6.6236 8.52454 6.99473 8.65399 7.41153C8.82143 7.70883 8.89961 8.04788 8.87921 8.38827C8.78735 8.69687 8.61895 8.97738 8.38959 9.20385C8.32407 9.25978 8.28286 9.33889 8.27464 9.42451C8.26642 9.51014 8.29184 9.59561 8.34553 9.66292C8.97501 10.7416 9.95164 11.5763 11.1168 12.0315C11.1816 12.067 11.2571 12.0776 11.3293 12.0614C11.4014 12.0452 11.4651 12.0033 11.5085 11.9436C11.5729 11.8655 11.6374 11.763 11.7053 11.6549C11.8541 11.4182 12.0195 11.1551 12.238 11.0645C12.4498 11.015 12.6702 11.0143 12.8823 11.0625Z" fill="white"/>
</svg>
