<svg width="55" height="30" viewBox="0 0 55 30" fill="none" xmlns="http://www.w3.org/2000/svg">
<path d="M5.75091 10.0716C7.74913 7.29381 10.3194 4.96339 13.2986 3.2433C16.9788 1.11858 21.1533 0 25.4028 0C27.0694 0 28.7361 0 30.4028 0C34.6522 0 38.8268 1.11857 42.5069 3.2433C45.4862 4.96338 48.0564 7.2938 50.0546 10.0716C51.5408 12.1375 50.6791 14.8112 48.7124 15.9466C47.949 16.3874 47.1365 16.556 46.3521 16.5097C46.1846 16.5197 46.0177 16.5195 45.8521 16.5097C45.6846 16.5197 45.5177 16.5195 45.3521 16.5097C45.1846 16.5197 45.0177 16.5195 44.8521 16.5097C44.7416 16.5163 44.6313 16.5185 44.5215 16.5164C44.4806 17.679 43.8145 18.7744 42.8018 19.3591C42.1578 19.7309 41.4763 19.866 40.8236 19.8187C40.6558 19.831 40.4888 19.8307 40.3236 19.8187C40.1558 19.831 39.9888 19.8307 39.8236 19.8187C39.6558 19.831 39.4888 19.8307 39.3236 19.8187C39.2094 19.827 39.0954 19.8296 38.9822 19.8266C38.9509 20.9278 38.2992 21.9587 37.3837 22.4873C36.7663 22.8438 36.1294 22.9615 35.5278 22.9147C35.3592 22.928 35.1922 22.9275 35.0278 22.9147C34.8592 22.928 34.6922 22.9275 34.5278 22.9147C34.5145 22.9157 34.5012 22.9167 34.4879 22.9176L34.4703 22.9187C34.8776 23.6154 35.1111 24.4263 35.1111 25.2917C35.1111 27.892 33.0031 30 30.4028 30C28.7361 30 27.0694 30 25.4028 30C22.8025 30 20.6945 27.892 20.6945 25.2917C20.6945 24.4263 20.9279 23.6154 21.3353 22.9187C21.3161 22.9175 21.297 22.9162 21.2778 22.9147C21.1133 22.9275 20.9463 22.928 20.7778 22.9147C20.6133 22.9275 20.4463 22.928 20.2778 22.9147C19.6761 22.9615 19.0393 22.8438 18.4218 22.4873C17.5064 21.9587 16.8546 20.9278 16.8233 19.8266C16.7101 19.8296 16.5962 19.8271 16.4819 19.8187C16.3168 19.8307 16.1497 19.831 15.982 19.8187C15.8168 19.8307 15.6498 19.831 15.482 19.8187C15.3168 19.8307 15.1497 19.831 14.9819 19.8187C14.3292 19.866 13.6477 19.7309 13.0037 19.3591C11.991 18.7744 11.3249 17.679 11.284 16.5164C11.1742 16.5185 11.0639 16.5163 10.9535 16.5098C10.7878 16.5195 10.6209 16.5197 10.4535 16.5098C10.2878 16.5195 10.1209 16.5197 9.95348 16.5098C9.78783 16.5195 9.62092 16.5197 9.45349 16.5098C8.66906 16.556 7.85651 16.3874 7.09311 15.9466C5.12648 14.8112 4.26477 12.1375 5.75091 10.0716Z" fill="black"/>
<path d="M43.431 11.2395C44.1472 12.2352 43.7746 13.6013 42.7124 14.2146C41.6502 14.8278 40.3024 14.4534 39.5615 13.476C38.1353 11.5944 36.3435 10.0099 34.286 8.82195C31.5851 7.2626 28.5214 6.44167 25.4027 6.44167C22.284 6.44167 19.2202 7.2626 16.5194 8.82195C14.4618 10.0099 12.6701 11.5944 11.2439 13.476C10.503 14.4534 9.15522 14.8279 8.09302 14.2146C7.03081 13.6013 6.65814 12.2352 7.37438 11.2395C9.20752 8.69122 11.5654 6.55333 14.2985 4.97535C17.6746 3.02617 21.5043 2 25.4027 2C29.3011 2 33.1308 3.02616 36.5069 4.97535C39.24 6.55332 41.5979 8.69121 43.431 11.2395Z" fill="white"/>
<path d="M37.275 15.6679C37.7467 16.3236 37.5013 17.2232 36.8017 17.6271C36.1022 18.0309 35.2147 17.7844 34.7268 17.1407C33.7876 15.9016 32.6076 14.8581 31.2527 14.0758C29.4741 13.0489 27.4565 12.5083 25.4027 12.5083C23.3489 12.5083 21.3313 13.0489 19.5527 14.0758C18.1977 14.8581 17.0178 15.9016 16.0786 17.1407C15.5907 17.7844 14.7031 18.0309 14.0036 17.6271C13.3041 17.2232 13.0587 16.3236 13.5304 15.6679C14.7376 13.9897 16.2903 12.5819 18.0902 11.5427C20.3135 10.2591 22.8355 9.58333 25.4027 9.58333C27.9699 9.58333 30.4919 10.2591 32.7152 11.5427C34.5151 12.5819 36.0678 13.9897 37.275 15.6679Z" fill="white"/>
<path d="M31.3837 20.7552C31.9666 20.4187 32.1729 19.666 31.753 19.1399C31.1222 18.3496 30.3471 17.681 29.4652 17.1719C28.23 16.4588 26.8289 16.0833 25.4027 16.0833C23.9765 16.0833 22.5753 16.4588 21.3402 17.1719C20.4583 17.6811 19.6832 18.3496 19.0524 19.1399C18.6325 19.666 18.8388 20.4187 19.4217 20.7552C20.0046 21.0918 20.7417 20.8802 21.1946 20.3822C21.5882 19.9493 22.048 19.5778 22.5589 19.2828C23.4236 18.7836 24.4043 18.5208 25.4027 18.5208C26.4011 18.5208 27.3818 18.7836 28.2464 19.2828C28.7574 19.5778 29.2172 19.9493 29.6108 20.3822C30.0636 20.8802 30.8008 21.0918 31.3837 20.7552Z" fill="white"/>
<path d="M25.4027 28C26.8985 28 28.111 26.7874 28.111 25.2917C28.111 23.7959 26.8985 22.5833 25.4027 22.5833C23.9069 22.5833 22.6944 23.7959 22.6944 25.2917C22.6944 26.7874 23.9069 28 25.4027 28Z" fill="white"/>
</svg>
