<svg width="56" height="31" viewBox="0 0 56 31" fill="none" xmlns="http://www.w3.org/2000/svg">
<path d="M38.2258 23.8419L39.8581 25.4743C41.006 26.6247 41.006 28.4882 39.8581 29.6385C38.7085 30.7906 36.8427 30.7903 35.6926 29.6393L34.5495 28.4962C33.7418 29.5737 32.4629 30.279 30.9995 30.279C30.8302 30.279 30.6635 30.2696 30.4996 30.2512C30.3357 30.2696 30.1689 30.279 29.9997 30.279C29.8304 30.279 29.6637 30.2696 29.4998 30.2512C29.3359 30.2696 29.1691 30.279 28.9999 30.279C28.8307 30.279 28.6639 30.2696 28.5 30.2512C28.3361 30.2696 28.1694 30.279 28.0001 30.279C27.8309 30.279 27.6641 30.2696 27.5002 30.2512C27.3363 30.2696 27.1696 30.279 27.0003 30.279C26.8311 30.279 26.6643 30.2696 26.5004 30.2512C26.3366 30.2696 26.1698 30.279 26.0005 30.279C23.5042 30.279 21.545 28.2267 21.545 25.7755C21.545 25.2686 21.6288 24.7788 21.7838 24.3207C21.5209 24.3458 21.251 24.3397 20.9784 24.2963C20.2952 24.4023 19.5549 24.3025 18.8398 23.8816C17.9807 23.376 17.3651 22.4413 17.2565 21.4229C17.2069 21.4177 17.1573 21.4114 17.1076 21.4039C16.7815 21.4523 16.4453 21.4549 16.1078 21.4039C15.3843 21.5113 14.6113 21.393 13.8842 20.965C12.9485 20.4143 12.3235 19.4283 12.2138 18.3631C12.1739 18.3594 12.1341 18.355 12.0942 18.3501C11.766 18.3903 11.4307 18.3919 11.0944 18.3501C10.2497 18.4537 9.35846 18.3014 8.52444 17.8105C6.6083 16.6828 5.79943 14.0644 7.22143 12.0493C8.7137 9.9346 10.5418 8.08489 12.6319 6.57738L11.5861 5.53154C10.4382 4.38118 10.4382 2.51768 11.5861 1.36732C12.7357 0.215296 14.6007 0.214801 15.7509 1.36583L18.0609 3.676C20.5943 2.73331 23.2809 2.24512 26.0005 2.24512C26.1673 2.24512 26.3339 2.24695 26.5004 2.25062C26.6669 2.24695 26.8335 2.24512 27.0003 2.24512C27.1671 2.24512 27.3337 2.24695 27.5002 2.25062C27.6667 2.24695 27.8333 2.24512 28.0001 2.24512C28.1669 2.24512 28.3335 2.24695 28.5 2.25062C28.6665 2.24695 28.8331 2.24512 28.9999 2.24512C29.1667 2.24512 29.3333 2.24695 29.4998 2.25062C29.6663 2.24695 29.8329 2.24512 29.9997 2.24512C30.1665 2.24512 30.3331 2.24695 30.4996 2.25062C30.6661 2.24695 30.8327 2.24512 30.9995 2.24512C35.0654 2.24512 39.0574 3.33626 42.5739 5.40591C45.4205 7.08125 47.8733 9.34928 49.7786 12.0493C51.2006 14.0644 50.3917 16.6828 48.4756 17.8105C47.6415 18.3014 46.7503 18.4536 45.9056 18.3501C45.5693 18.3919 45.2341 18.3903 44.9058 18.3501C44.8659 18.355 44.8261 18.3594 44.7862 18.3631C44.6765 19.4283 44.0515 20.4143 43.1158 20.965C42.3887 21.393 41.6157 21.5113 40.8922 21.4039C40.5547 21.4549 40.2185 21.4523 39.8924 21.4039C39.8427 21.4114 39.7931 21.4177 39.7435 21.4229C39.6376 22.4152 39.0505 23.328 38.2258 23.8419Z" fill="black"/>
<path d="M14.3382 2.78015C13.9693 2.41052 13.3712 2.41052 13.0023 2.78015C12.6334 3.14978 12.6334 3.74907 13.0023 4.1187L37.113 28.2257C37.4819 28.5953 38.08 28.5953 38.4489 28.2257C38.8178 27.8561 38.8178 27.2568 38.4489 26.8872L14.3382 2.78015Z" fill="white"/>
<path d="M25.8758 19.8185L23.6618 17.6049C23.024 17.7947 22.4079 18.0623 21.8275 18.4039C20.921 18.9373 20.1242 19.6377 19.4758 20.4656C19.0442 21.0168 19.2563 21.8053 19.8555 22.1579C20.4547 22.5105 21.2124 22.2888 21.6778 21.7671C22.0825 21.3135 22.5551 20.9244 23.0803 20.6153C23.9322 20.1141 24.8938 19.8403 25.8758 19.8185Z" fill="white"/>
<path d="M31.7023 15.7154C30.8318 15.2032 29.9026 14.8128 28.9397 14.5512L25.6475 11.2595C25.766 11.2565 25.8847 11.255 26.0034 11.255C28.5043 11.255 30.9612 11.9259 33.127 13.2004C34.8804 14.2321 36.393 15.6299 37.569 17.2961C38.0285 17.9471 37.7894 18.8403 37.108 19.2413C36.4266 19.6422 35.5619 19.3974 35.0866 18.7583C34.1717 17.5281 33.0222 16.4921 31.7023 15.7154Z" fill="white"/>
<path d="M21.2665 15.2098L19.119 13.0627C19.0389 13.1078 18.9592 13.1537 18.8798 13.2004C17.1265 14.2321 15.6138 15.6299 14.4378 17.2961C13.9783 17.9471 14.2174 18.8403 14.8988 19.2413C15.5803 19.6422 16.4449 19.3974 16.9202 18.7583C17.8352 17.5281 18.9846 16.4921 20.3045 15.7154C20.618 15.531 20.939 15.3624 21.2665 15.2098Z" fill="white"/>
<path d="M26.0034 8.55119C25.054 8.55119 24.1099 8.63271 23.1808 8.79313L19.6341 5.24703C21.6859 4.58577 23.8335 4.24512 26.0034 4.24512C29.7116 4.24512 33.3546 5.23995 36.566 7.12964C39.1658 8.65943 41.4087 10.7321 43.1524 13.2026C43.8337 14.1678 43.4792 15.4923 42.4688 16.0868C41.4584 16.6814 40.1764 16.3184 39.4716 15.3708C38.115 13.5466 36.4106 12.0105 34.4535 10.8588C31.8843 9.34706 28.97 8.55119 26.0034 8.55119Z" fill="white"/>
<path d="M17.156 11.1L14.067 8.01147C12.0466 9.42165 10.283 11.1786 8.85443 13.2026C8.17312 14.1679 8.52761 15.4923 9.53801 16.0868C10.5484 16.6814 11.8304 16.3184 12.5352 15.3708C13.7992 13.6712 15.3651 12.2216 17.156 11.1Z" fill="white"/>
<path d="M28.4598 25.7755C28.4598 27.1581 27.3601 28.279 26.0034 28.279C24.6468 28.279 23.547 27.1581 23.547 25.7755C23.547 24.3928 24.6468 23.2719 26.0034 23.2719C27.3601 23.2719 28.4598 24.3928 28.4598 25.7755Z" fill="white"/>
</svg>
