<svg width="11" height="11" viewBox="0 0 11 11" fill="none" xmlns="http://www.w3.org/2000/svg">
<path fill-rule="evenodd" clip-rule="evenodd" d="M5.52838 6.80002L6.20803 7.609C6.16091 7.69795 6.13433 7.79872 6.13433 7.90548V9.34907C6.13433 9.70923 6.43684 10.0012 6.81 10.0012H9.82432C10.1975 10.0012 10.5 9.70923 10.5 9.34907V7.90548C10.5 7.54531 10.1975 7.25334 9.82432 7.25334H9.46327L7.3411 4.93219L9.31635 2.74968H9.78927C10.1624 2.74968 10.465 2.45771 10.465 2.09755V0.653964C10.465 0.293801 10.1624 0.00183105 9.78927 0.00183105H6.77495C6.40179 0.00183105 6.09928 0.293801 6.09928 0.653964V2.09755C6.09928 2.18497 6.1171 2.26838 6.14943 2.34457L5.52467 3.1073L4.84286 2.2662C4.85774 2.21241 4.86567 2.15587 4.86567 2.09755V0.653964C4.86567 0.293801 4.56316 0.00183105 4.19 0.00183105H1.17568C0.80251 0.00183105 0.5 0.293801 0.5 0.653964V2.09755C0.5 2.45771 0.80251 2.74968 1.17568 2.74968H1.79875L3.7846 4.83813L1.62031 7.25334H1.1932C0.820035 7.25334 0.517525 7.54531 0.517525 7.90548V9.34907C0.517525 9.70923 0.820035 10.0012 1.1932 10.0012H4.20752C4.58069 10.0012 4.8832 9.70923 4.8832 9.34907V7.90548C4.8832 7.81549 4.86431 7.72976 4.83016 7.65178L5.52838 6.80002Z" fill="black"/>
</svg>
