<svg width="55" height="30" viewBox="0 0 55 30" fill="none" xmlns="http://www.w3.org/2000/svg">
<path d="M13.0507 30C11.6699 30 10.5507 28.8807 10.5507 27.5V24.1834C10.5507 22.8027 11.6699 21.6834 13.0507 21.6834H13.7648L19.9768 14.5125L14.2814 8.3166H13C11.6193 8.3166 10.5 7.19731 10.5 5.8166V2.5C10.5 1.11929 11.6193 0 13 0H25.7133C26.3876 0 26.9997 0.267014 27.4493 0.701091C27.899 0.267016 28.511 0 29.1854 0H41.8987C43.2794 0 44.3987 1.11929 44.3987 2.5V5.8166C44.3987 7.19732 43.2794 8.3166 41.8987 8.3166H41.052L35.3862 14.7925L41.4765 21.6834H42C43.3807 21.6834 44.5 22.8027 44.5 24.1834V27.5C44.5 28.8807 43.3807 30 42 30H29.2867C28.5996 30 27.9772 29.7228 27.5253 29.2741C27.0734 29.7228 26.4511 30 25.7639 30H13.0507Z" fill="black"/>
<path d="M28.7862 24.1834C28.7862 23.9073 29.0101 23.6834 29.2862 23.6834H30.2807L25.0628 17.2587L19.9716 23.6834H20.7634C21.0396 23.6834 21.2634 23.9073 21.2634 24.1834V27.5C21.2634 27.7761 21.0396 28 20.7634 28H13.0502C12.774 28 12.5502 27.7761 12.5502 27.5V24.1834C12.5502 23.9073 12.774 23.6834 13.0502 23.6834H14.6778L22.6566 14.473L15.1591 6.3166H12.9995C12.7234 6.3166 12.4995 6.09274 12.4995 5.8166V2.5C12.4995 2.22386 12.7234 2 12.9995 2H20.7128C20.9889 2 21.2128 2.22386 21.2128 2.5V5.8166C21.2128 6.09274 20.9889 6.3166 20.7128 6.3166H20.2249L25.0628 12.4903L29.9514 6.3166H29.1849C28.9088 6.3166 28.6849 6.09274 28.6849 5.8166V2.5C28.6849 2.22386 28.9088 2 29.1849 2H36.8982C37.1743 2 37.3982 2.22386 37.3982 2.5V5.8166C37.3982 6.09274 37.1743 6.3166 36.8982 6.3166H35.1439L27.7224 14.7992L35.5745 23.6834H36.9995C37.2757 23.6834 37.4995 23.9073 37.4995 24.1834V27.5C37.4995 27.7761 37.2757 28 36.9995 28H29.2862C29.0101 28 28.7862 27.7761 28.7862 27.5V24.1834Z" fill="white"/>
</svg>
