<svg width="18" height="17" viewBox="0 0 18 17" fill="none" xmlns="http://www.w3.org/2000/svg">
<path fill-rule="evenodd" clip-rule="evenodd" d="M3.75 16.4999C3.21956 16.4999 2.71086 16.2892 2.33578 15.9142L1.08579 14.6642C0.304739 13.8831 0.304739 12.6168 1.08579 11.8357L4.67155 8.24997L1.08579 4.66421C0.710714 4.28914 0.5 3.78043 0.5 3.24999C0.5 2.71956 0.710714 2.21085 1.08579 1.83578L2.33578 0.585787C2.72631 0.195262 3.23815 0 3.74999 0H9.75C10.2618 0 10.7737 0.195264 11.1642 0.585787L17.4142 6.83576C18.1952 7.61681 18.1952 8.88314 17.4142 9.66418L11.1642 15.9142C10.7891 16.2892 10.2804 16.4999 9.75 16.4999H3.75ZM2.50004 13.25L3.75003 14.5L10 8.25003L3.75003 2.00006L2.50003 3.25005L7.50001 8.25003L2.50004 13.25Z" fill="black"/>
</svg>
