<svg width="18" height="21" viewBox="0 0 18 21" fill="none" xmlns="http://www.w3.org/2000/svg">
<path d="M2.72396 20.1124C2.97401 20.3625 3.31314 20.5029 3.66677 20.5029C5.11121 20.5029 6.55565 20.5029 8.0001 20.5029C8.35372 20.5029 8.69286 20.3625 8.94291 20.1124L17.6096 11.4457C18.1303 10.925 18.1303 10.0808 17.6096 9.56012L8.94291 0.893454C8.69286 0.643406 8.35372 0.50293 8.0001 0.50293C6.55565 0.50293 5.11121 0.50293 3.66676 0.50293C3.31314 0.50293 2.974 0.643406 2.72396 0.893454L0.990622 2.62679C0.469923 3.14749 0.469923 3.99171 0.990622 4.51241L6.98114 10.5029L0.990623 16.4935C0.469924 17.0142 0.469924 17.8584 0.990623 18.3791L2.72396 20.1124Z" fill="black"/>
<path fill-rule="evenodd" clip-rule="evenodd" d="M1.93335 17.4363L3.66668 19.1696L12.3333 10.503L3.66668 1.8363L1.93335 3.56964L8.86668 10.503L1.93335 17.4363Z" fill="white"/>
</svg>
