<svg width="22" height="11" viewBox="0 0 22 11" fill="none" xmlns="http://www.w3.org/2000/svg">
<path fill-rule="evenodd" clip-rule="evenodd" d="M0.375 7.99899C0.375 8.33051 0.506695 8.64845 0.741115 8.88287L1.99111 10.1329C2.23794 10.3797 2.56231 10.5018 2.88581 10.499H9.13578C9.45206 10.4963 9.76751 10.3742 10.0088 10.1329L11 9.14175L11.9911 10.1329C12.2255 10.3673 12.5434 10.499 12.8749 10.499H19.1249C19.4564 10.499 19.7744 10.3673 20.0088 10.1329L21.2588 8.88287C21.7469 8.39471 21.7469 7.60326 21.2588 7.11511L15.0088 0.865138C14.7647 0.621062 14.4448 0.499024 14.1249 0.499024H7.87496C7.55506 0.499024 7.23516 0.621062 6.99109 0.865138L0.741115 7.11511C0.506695 7.34953 0.375 7.66747 0.375 7.99899ZM2.87499 9.249L1.62499 7.99901L7.87497 1.74904L14.1249 7.99901L12.8749 9.249L7.87497 4.24903L2.87499 9.249Z" fill="black"/>
</svg>
