<svg width="17" height="20" viewBox="0 0 17 20" fill="none" xmlns="http://www.w3.org/2000/svg">
<path d="M2.58608 0.390524C2.83613 0.140476 3.17527 0 3.52889 0C3.58491 0 3.64056 0.00352513 3.69556 0.0104526C3.75055 0.00352513 3.80621 0 3.86222 0C3.91824 0 3.9739 0.00352513 4.02889 0.0104526C4.08389 0.00352513 4.13954 0 4.19556 0C4.25158 0 4.30723 0.00352513 4.36222 0.0104526C4.41722 0.00352513 4.47287 0 4.52889 0C4.58491 0 4.64056 0.00352513 4.69556 0.0104526C4.75055 0.00352514 4.80621 0 4.86222 0C4.91824 0 4.9739 0.00352513 5.02889 0.0104526C5.08389 0.00352513 5.13954 0 5.19556 0C5.25158 0 5.30723 0.00352514 5.36222 0.0104526C5.41722 0.00352514 5.47287 0 5.52889 0C5.58491 0 5.64056 0.00352514 5.69556 0.0104526C5.75055 0.00352514 5.80621 0 5.86222 0C5.91824 0 5.9739 0.00352514 6.02889 0.0104526C6.08389 0.00352514 6.13954 0 6.19556 0C6.25158 0 6.30723 0.00352514 6.36222 0.0104526C6.41722 0.00352514 6.47287 0 6.52889 0C6.58491 0 6.64056 0.00352514 6.69556 0.0104526C6.75055 0.00352514 6.80621 0 6.86222 0C7.21585 0 7.55499 0.140476 7.80503 0.390524L16.4717 9.05719C16.7217 9.30724 16.8622 9.64638 16.8622 10C16.8622 10.3536 16.7217 10.6928 16.4717 10.9428L7.80503 19.6095C7.50221 19.9123 7.08996 20.039 6.69556 19.9896C6.58492 20.0035 6.47288 20.0035 6.36223 19.9896C6.25158 20.0035 6.13954 20.0035 6.02889 19.9896C5.91825 20.0035 5.80621 20.0035 5.69556 19.9896C5.58492 20.0035 5.47288 20.0035 5.36223 19.9896C5.25158 20.0035 5.13954 20.0035 5.0289 19.9896C4.91825 20.0035 4.80621 20.0035 4.69556 19.9896C4.58492 20.0035 4.47287 20.0035 4.36223 19.9896C4.25158 20.0035 4.13954 20.0035 4.02889 19.9896C3.91825 20.0035 3.80621 20.0035 3.69556 19.9896C3.30116 20.039 2.88891 19.9123 2.58608 19.6095L0.528464 17.5519C0.278416 17.3018 0.13794 16.9627 0.13794 16.6091C0.13794 16.2554 0.278415 15.9163 0.528464 15.6662L6.1947 10L0.528464 4.33376C0.00776449 3.81306 0.00776449 2.96884 0.528464 2.44814L2.58608 0.390524Z" fill="black"/>
<path d="M1.47127 3.3916L3.52889 1.33398L12.1956 10.0007L3.52889 18.6673L1.47127 16.6097L8.08032 10.0007L1.47127 3.3916Z" fill="white"/>
</svg>
