<svg width="22" height="11" viewBox="0 0 22 11" fill="none" xmlns="http://www.w3.org/2000/svg">
<path fill-rule="evenodd" clip-rule="evenodd" d="M0.75 3.00297C0.75 2.67145 0.881695 2.35351 1.11611 2.11909L2.36611 0.869091C2.61294 0.622263 2.93731 0.500194 3.26081 0.502976H9.51078C9.82706 0.505697 10.1425 0.627767 10.3838 0.869092L11.375 1.8602L12.3661 0.869091C12.6005 0.634672 12.9184 0.502976 13.2499 0.502976H19.4999C19.8314 0.502976 20.1494 0.634672 20.3838 0.869091L21.6338 2.11909C22.1219 2.60724 22.1219 3.39869 21.6338 3.88684L15.3838 10.1368C15.1397 10.3809 14.8198 10.5029 14.4999 10.5029H8.24996C7.93006 10.5029 7.61016 10.3809 7.36609 10.1368L1.11611 3.88685C0.881695 3.65243 0.75 3.33448 0.75 3.00297ZM3.24999 1.75295L1.99999 3.00294L8.24997 9.25291L14.4999 3.00294L13.2499 1.75295L8.24997 6.75293L3.24999 1.75295Z" fill="black"/>
</svg>
