<svg width="17" height="20" viewBox="0 0 17 20" fill="none" xmlns="http://www.w3.org/2000/svg">
<path d="M2.58596 0.390524C2.83601 0.140476 3.17515 0 3.52877 0C3.58479 0 3.64044 0.00352513 3.69544 0.0104526C3.75043 0.00352513 3.80608 0 3.8621 0C3.91812 0 3.97377 0.00352513 4.02877 0.0104526C4.08376 0.00352513 4.13942 0 4.19544 0C4.25145 0 4.30711 0.00352513 4.3621 0.0104526C4.4171 0.00352513 4.47275 0 4.52877 0C4.58479 0 4.64044 0.00352513 4.69544 0.0104526C4.75043 0.00352514 4.80608 0 4.8621 0C4.91812 0 4.97377 0.00352513 5.02877 0.0104526C5.08376 0.00352513 5.13942 0 5.19544 0C5.25145 0 5.30711 0.00352514 5.3621 0.0104526C5.4171 0.00352514 5.47275 0 5.52877 0C5.58479 0 5.64044 0.00352514 5.69544 0.0104526C5.75043 0.00352514 5.80608 0 5.8621 0C5.91812 0 5.97377 0.00352514 6.02877 0.0104526C6.08376 0.00352514 6.13942 0 6.19544 0C6.25145 0 6.30711 0.00352514 6.3621 0.0104526C6.4171 0.00352514 6.47275 0 6.52877 0C6.58479 0 6.64044 0.00352514 6.69544 0.0104526C6.75043 0.00352514 6.80608 0 6.8621 0C7.21572 0 7.55486 0.140476 7.80491 0.390524L16.4716 9.05719C16.7216 9.30724 16.8621 9.64638 16.8621 10C16.8621 10.3536 16.7216 10.6928 16.4716 10.9428L7.80491 19.6095C7.50208 19.9123 7.08984 20.039 6.69544 19.9896C6.58479 20.0035 6.47275 20.0035 6.36211 19.9896C6.25146 20.0035 6.13942 20.0035 6.02877 19.9896C5.91813 20.0035 5.80609 20.0035 5.69544 19.9896C5.58479 20.0035 5.47275 20.0035 5.36211 19.9896C5.25146 20.0035 5.13942 20.0035 5.02877 19.9896C4.91813 20.0035 4.80609 20.0035 4.69544 19.9896C4.58479 20.0035 4.47275 20.0035 4.36211 19.9896C4.25146 20.0035 4.13942 20.0035 4.02877 19.9896C3.91813 20.0035 3.80609 20.0035 3.69544 19.9896C3.30104 20.039 2.88879 19.9123 2.58596 19.6095L0.528342 17.5519C0.278294 17.3018 0.137818 16.9627 0.137818 16.6091C0.137818 16.2554 0.278293 15.9163 0.528342 15.6662L6.19458 10L0.528342 4.33376C0.00764242 3.81306 0.00764242 2.96884 0.528342 2.44814L2.58596 0.390524Z" fill="#4D4847"/>
<path d="M1.47115 3.3916L3.52877 1.33398L12.1954 10.0007L3.52877 18.6673L1.47115 16.6097L8.0802 10.0007L1.47115 3.3916Z" fill="white"/>
</svg>
