<svg width="55" height="30" viewBox="0 0 55 30" fill="none" xmlns="http://www.w3.org/2000/svg">
<path d="M23.3316 29.9827C23.0081 30.0075 22.6669 30.0067 22.3381 29.9827C21.507 30.0463 20.5593 29.9412 20.0031 29.7084C19.0363 29.3038 17.8816 28.3603 16.7768 26.8844C14.239 23.494 12.8599 19.2451 13.0113 15.4185C13.1272 12.4835 14.054 10.1555 15.6594 8.45357C17.1583 6.86393 18.8793 6.08443 21.2126 5.98954C21.6076 5.97349 21.9443 5.97055 22.2556 5.98759C22.6294 5.97328 22.9509 5.97127 23.2492 5.98759C23.3394 5.98413 23.4267 5.98139 23.5112 5.97946C24.0433 3.89363 25.5675 1.80685 27.538 0.775568C28.3753 0.337638 29.6422 0.000976562 30.1881 0.000976562C31.8443 0.000976562 33.5001 0.000976562 35.1558 0.000976562C35.8954 0.000976562 36.3982 0.276829 36.7933 0.715985C37.0309 0.980067 37.4611 1.58841 37.3649 3.12681C37.2943 4.25229 37.0774 5.18871 36.6638 6.05158L36.6725 6.05305C38.4748 6.33601 40.1298 7.23615 41.4146 8.6539L41.8348 9.11758C42.5724 9.93165 42.5179 11.1927 41.713 11.9391L41.1735 12.4396C40.5113 13.0536 40.0756 13.6899 39.8017 14.4799C39.2439 16.0892 39.9258 17.8102 41.425 18.8016C41.7474 19.0147 42.0675 19.2331 42.1374 19.2851C42.4032 19.4823 42.5819 19.6948 42.7192 19.9302C42.7282 19.9456 42.7384 19.9622 42.7495 19.9802C42.9115 20.2435 43.2588 20.8078 42.672 22.3685C41.8326 24.6011 40.6684 26.4646 39.1872 27.9841C38.3777 28.8149 37.6286 29.3433 36.9128 29.6603C36.3641 29.9036 36.0809 29.9889 35.1327 29.9823C34.9582 29.9811 34.8117 29.9789 34.6788 29.9726C34.5245 29.9807 34.348 29.9837 34.1391 29.9823C33.9647 29.9811 33.8181 29.9789 33.6853 29.9726C33.531 29.9807 33.3544 29.9837 33.1456 29.9823C32.9711 29.9811 32.8246 29.9789 32.6917 29.9726C32.5375 29.9807 32.3609 29.9837 32.152 29.9823C31.9776 29.9811 31.831 29.9789 31.6982 29.9726C31.5439 29.9807 31.3673 29.9837 31.1585 29.9823C30.984 29.9811 30.8375 29.9789 30.7046 29.9726C30.5504 29.9807 30.3738 29.9837 30.1649 29.9823C29.471 29.9774 29.219 29.9577 28.5122 29.7203C28.3722 29.7713 28.253 29.8119 28.1723 29.8357C27.6578 29.9871 26.9611 30.03 26.3123 29.9827C25.9888 30.0075 25.6476 30.0067 25.3187 29.9827C24.9952 30.0075 24.654 30.0067 24.3252 29.9827C24.0017 30.0075 23.6605 30.0067 23.3316 29.9827Z" fill="black"/>
<path d="M22.6358 27.8959C22.8278 27.8393 23.2845 27.6619 23.6512 27.5016C24.6821 27.051 25.2088 26.9383 26.0973 26.978C26.8809 27.013 26.9156 27.0221 28.7637 27.6825C29.4558 27.9297 29.5963 27.9584 30.1441 27.962C30.6552 27.9657 30.8115 27.941 31.1073 27.8096C31.6308 27.5771 32.1664 27.173 32.7585 26.5641C34.0516 25.2343 35.0604 23.5989 35.7934 21.6453C36.0307 21.0121 36.0409 20.9587 35.9378 20.882C35.8768 20.8366 35.5968 20.647 35.3155 20.4608C33.0248 18.942 32.062 16.2758 32.9146 13.811C33.2951 12.71 33.89 11.8154 34.8102 10.96L35.3483 10.4599L34.9294 9.9965C33.9613 8.92544 32.718 8.23885 31.3602 8.02518C30.7268 7.92545 29.0821 7.98377 28.571 8.12418C28.3591 8.1825 27.7541 8.40548 27.2265 8.62013C25.7643 9.21459 25.6934 9.21238 24.0526 8.52212C22.9001 8.03719 22.3938 7.93869 21.2857 7.98377C19.5326 8.05532 18.233 8.62797 17.1064 9.82522C15.8085 11.2048 15.1037 13.1087 15.0098 15.4878C14.8759 18.8857 16.1182 22.6516 18.3662 25.6624C19.1993 26.7783 20.0315 27.5357 20.7606 27.8415C21.2095 28.0299 22.0951 28.0556 22.6358 27.8959ZM26.3778 8.18299C27.2942 7.95241 28.0402 7.4964 28.769 6.72135C29.8215 5.60178 30.2824 4.53563 30.3785 2.99876C30.4307 2.16344 30.394 2.00098 30.1533 2.00098C29.7948 2.00098 28.9746 2.26145 28.4251 2.54986C26.5181 3.55009 25.1267 5.87083 25.2847 7.7875C25.3046 8.02812 25.3396 8.25576 25.3624 8.29301C25.4097 8.37019 25.8034 8.32756 26.3778 8.18299Z" fill="white"/>
</svg>
