<svg width="30" height="20" viewBox="0 0 30 20" fill="none" xmlns="http://www.w3.org/2000/svg">
<path fill-rule="evenodd" clip-rule="evenodd" d="M16.1354 18V17.2417C15.4816 17.399 14.8109 17.4758 14.1276 17.4758H9.12758C8.33398 17.4758 7.55626 17.372 6.80067 17.1598C6.06443 16.9575 5.36702 16.6659 4.7145 16.283C4.06711 15.9032 3.47613 15.4447 2.94392 14.9114C2.41486 14.3813 1.96011 13.7913 1.58222 13.1446C1.20152 12.4932 0.90929 11.7975 0.703191 11.0632L0.701234 11.0562L0.699327 11.0493C0.493516 10.2951 0.393066 9.51929 0.393066 8.72776C0.393066 7.93945 0.493845 7.16684 0.700383 6.4159L0.703164 6.40579C0.909264 5.67153 1.20152 4.97579 1.58222 4.32438C1.96011 3.67776 2.41486 3.08774 2.94392 2.55762L2.95164 2.54988C3.48259 2.02365 4.0711 1.57027 4.7145 1.19275C5.36704 0.809866 6.06447 0.518289 6.80073 0.315933C7.5563 0.103712 8.334 0 9.12758 0H14.1276C14.9214 0 15.698 0.0992378 16.451 0.304545C17.182 0.498264 17.8756 0.775025 18.5255 1.13874C19.1702 1.49958 19.7606 1.93555 20.2926 2.44519C20.8221 2.9524 21.279 3.51777 21.658 4.13975C22.0424 4.76304 22.3378 5.42982 22.5439 6.13493C22.7619 6.86026 22.8688 7.60771 22.8688 8.37012L22.8686 8.41992H24.4826C25.5872 8.41992 26.4826 9.31535 26.4826 10.4199V11.5216H27.6065C28.7111 11.5216 29.6065 12.417 29.6065 13.5216V14.8762C29.6065 15.9808 28.7111 16.8762 27.6065 16.8762H26.4826V18C26.4826 19.1046 25.5872 20 24.4826 20H18.1354C17.0308 20 16.1354 19.1046 16.1354 18ZM12.1177 5.61018V10.0841C12.1177 10.3585 12.1559 10.5655 12.2322 10.7049C12.313 10.8444 12.4073 10.9479 12.515 11.0153C12.6228 11.0783 12.7597 11.1098 12.9258 11.1098C13.2581 11.1098 13.5342 11.0198 13.7542 10.8399C13.9742 10.6554 14.1493 10.435 14.2795 10.1786C14.4097 9.92216 14.4995 9.65898 14.5489 9.38906C14.6027 9.11465 14.6297 8.775 14.6297 8.37012C14.6297 7.91125 14.5646 7.46813 14.4344 7.04076C14.3042 6.60889 14.1201 6.20401 13.8821 5.82612C13.6487 5.44373 13.3658 5.09508 13.0336 4.78018C12.7014 4.46077 12.331 4.1886 11.9224 3.96367C11.5138 3.73424 11.0739 3.55654 10.6024 3.43058C10.131 3.30461 9.6394 3.24163 9.12758 3.24163C8.62025 3.24163 8.13087 3.30686 7.65946 3.43732C7.19253 3.56779 6.75479 3.75223 6.34623 3.99066C5.94216 4.22909 5.57176 4.51476 5.23503 4.84766C4.9028 5.18056 4.6177 5.5517 4.37975 5.96108C4.14629 6.36596 3.96445 6.80233 3.83425 7.27019C3.70405 7.73805 3.63895 8.22391 3.63895 8.72776C3.63895 9.23611 3.70405 9.72646 3.83425 10.1988C3.96445 10.6667 4.14629 11.1053 4.37975 11.5147C4.6177 11.9241 4.9028 12.2952 5.23503 12.6281C5.57176 12.961 5.94216 13.2467 6.34623 13.4851C6.75479 13.7235 7.19253 13.908 7.65946 14.0384C8.13087 14.1689 8.62025 14.2341 9.12758 14.2341C9.64389 14.2341 10.1422 14.1644 10.6226 14.0249C11.103 13.89 11.552 13.6965 11.9695 13.4446L12.6026 14.5041C12.0953 14.8145 11.5475 15.0529 10.9594 15.2193C10.3757 15.3903 9.76511 15.4758 9.12758 15.4758C8.50801 15.4758 7.91088 15.3948 7.3362 15.2328C6.76152 15.0754 6.22501 14.8504 5.72665 14.558C5.2283 14.2656 4.77259 13.9125 4.35954 13.4986C3.95098 13.0892 3.60079 12.6349 3.30896 12.1355C3.01713 11.6361 2.7904 11.0986 2.62877 10.5227C2.47164 9.9469 2.39307 9.34858 2.39307 8.72776C2.39307 8.11144 2.47164 7.51762 2.62877 6.94629C2.7904 6.37046 3.01713 5.83287 3.30896 5.33351C3.60079 4.83416 3.95098 4.3798 4.35954 3.97042C4.77259 3.56104 5.2283 3.21014 5.72665 2.91773C6.22501 2.62531 6.76152 2.40038 7.3362 2.24293C7.91088 2.08098 8.50801 2 9.12758 2C9.75614 2 10.3578 2.07873 10.9324 2.23618C11.5116 2.38913 12.0504 2.60507 12.5487 2.88399C13.0471 3.16291 13.5005 3.49806 13.9091 3.88944C14.3176 4.28083 14.6656 4.7127 14.9529 5.18506C15.2448 5.65742 15.4692 6.16352 15.6264 6.70336C15.788 7.2387 15.8688 7.79429 15.8688 8.37012C15.8688 8.67603 15.8396 8.98418 15.7813 9.29459C15.7229 9.605 15.6354 9.90191 15.5186 10.1853C15.4019 10.4687 15.2582 10.7342 15.0876 10.9816C14.9215 11.229 14.7262 11.445 14.5017 11.6294C14.2817 11.8093 14.037 11.9533 13.7677 12.0613C13.4983 12.1647 13.2065 12.2165 12.8922 12.2165C12.4791 12.2165 12.1334 12.1265 11.8551 11.9466C11.5767 11.7666 11.3589 11.5349 11.2018 11.2515C10.919 11.4854 10.6002 11.6676 10.2455 11.7981C9.89083 11.9286 9.5092 11.9938 9.10064 11.9938C8.62923 11.9938 8.19597 11.9128 7.80088 11.7509C7.41028 11.5844 7.07131 11.3572 6.78397 11.0693C6.49663 10.7814 6.27215 10.4463 6.11052 10.0639C5.95338 9.68148 5.87481 9.26985 5.87481 8.82898C5.87481 8.39261 5.95787 7.98323 6.12399 7.60084C6.2901 7.21396 6.51683 6.87656 6.80417 6.58864C7.096 6.30073 7.43722 6.07354 7.82782 5.90709C8.22291 5.73614 8.64719 5.65067 9.10064 5.65067C9.42839 5.65067 9.74267 5.69566 10.0435 5.78563C10.3443 5.8756 10.6226 6.00382 10.8786 6.17027V5.61018H12.1177ZM9.10064 10.7454C9.52267 10.7454 9.88634 10.6487 10.1916 10.4552C10.4969 10.2573 10.7259 10.0031 10.8786 9.69272V7.98548C10.8022 7.82803 10.7035 7.68182 10.5822 7.54686C10.4655 7.4119 10.3308 7.29718 10.1782 7.20271C10.0255 7.10374 9.85715 7.02726 9.67308 6.97328C9.49349 6.91929 9.30268 6.8923 9.10064 6.8923C8.8133 6.8923 8.54841 6.94404 8.30597 7.04751C8.06353 7.15098 7.85251 7.29043 7.67293 7.46588C7.49783 7.64133 7.36089 7.84827 7.26212 8.0867C7.16335 8.32063 7.11396 8.56806 7.11396 8.82898C7.11396 9.0944 7.1611 9.34408 7.25539 9.57801C7.34967 9.80744 7.48211 10.0099 7.65272 10.1853C7.82782 10.3563 8.03659 10.4935 8.27903 10.597C8.52596 10.6959 8.79983 10.7454 9.10064 10.7454ZM15.0264 13.5216H18.1354V10.4199H19.4826V13.5216H22.6065V14.8762H19.4826V18H18.1354V14.8762H15.0264V13.5216Z" fill="black"/>
</svg>
