<svg width="42" height="30" viewBox="0 0 42 30" fill="none" xmlns="http://www.w3.org/2000/svg">
<path d="M13.1856 26.0224C13.2691 26.0224 13.3525 26.0216 13.4357 26.0201C13.5188 26.0216 13.6021 26.0224 13.6856 26.0224C13.7691 26.0224 13.8525 26.0216 13.9357 26.0201C14.0188 26.0216 14.1021 26.0224 14.1856 26.0224C14.2691 26.0224 14.3525 26.0216 14.4357 26.0201C14.5188 26.0216 14.6021 26.0224 14.6856 26.0224C14.7691 26.0224 14.8525 26.0216 14.9357 26.0201C15.0188 26.0216 15.1021 26.0224 15.1856 26.0224C15.2691 26.0224 15.3525 26.0216 15.4357 26.0201C15.5188 26.0216 15.6021 26.0224 15.6856 26.0224C15.7691 26.0224 15.8525 26.0216 15.9357 26.0201C16.0188 26.0216 16.1021 26.0224 16.1856 26.0224C16.2691 26.0224 16.3525 26.0216 16.4357 26.0201C16.5188 26.0216 16.6021 26.0224 16.6856 26.0224C16.7691 26.0224 16.8525 26.0216 16.9357 26.0201C17.0188 26.0216 17.1021 26.0224 17.1856 26.0224C17.2691 26.0224 17.3525 26.0216 17.4357 26.0201C17.5188 26.0216 17.6021 26.0224 17.6856 26.0224C17.7691 26.0224 17.8525 26.0216 17.9357 26.0201C18.0188 26.0216 18.1021 26.0224 18.1856 26.0224C19.4032 26.0224 20.5891 25.8592 21.7345 25.5248C22.1813 25.398 22.6178 25.249 23.0434 25.0776H24.9865V27.6061C24.9865 28.9282 26.0583 30 27.3804 30H34.5034C35.8255 30 36.8973 28.9282 36.8973 27.6061V25.0776H39.4258C40.7479 25.0776 41.8197 24.0058 41.8197 22.6837V20.5491C41.8197 19.2269 40.7479 18.1551 39.4258 18.1551H36.8973V15.6617C36.8973 14.3395 35.8255 13.2677 34.5034 13.2677H31.1672C31.1904 12.9894 31.2021 12.7107 31.2021 12.4317C31.2021 11.301 31.0434 10.1958 30.7213 9.12483C30.4151 8.07645 29.9765 7.08668 29.4059 6.16175C28.8433 5.23827 28.1646 4.3979 27.3761 3.64251C26.5845 2.88424 25.7061 2.23544 24.7456 1.69787C23.7793 1.15706 22.7453 0.744113 21.6514 0.454322C20.5321 0.148704 19.3742 0 18.1856 0C18.1031 0 18.0207 0.000750994 17.9385 0.00225493C17.8543 0.00075066 17.77 0 17.6856 0C17.6031 0 17.5207 0.000750994 17.4385 0.00225493C17.3543 0.00075066 17.27 0 17.1856 0C17.1031 0 17.0207 0.000750994 16.9385 0.00225493C16.8543 0.000750661 16.77 0 16.6856 0C16.6031 0 16.5207 0.000750994 16.4385 0.00225493C16.3543 0.000750661 16.27 0 16.1856 0C16.1031 0 16.0207 0.000750997 15.9385 0.00225493C15.8543 0.000750663 15.77 0 15.6856 0C15.6031 0 15.5207 0.000750994 15.4385 0.00225493C15.3543 0.000750661 15.27 0 15.1856 0C15.1031 0 15.0207 0.000750995 14.9385 0.00225493C14.8543 0.000750661 14.77 0 14.6856 0C14.6031 0 14.5207 0.000750995 14.4385 0.00225493C14.3543 0.000750661 14.27 0 14.1856 0C14.1031 0 14.0207 0.000750995 13.9385 0.00225493C13.8543 0.000750661 13.77 0 13.6856 0C13.6031 0 13.5207 0.000750995 13.4385 0.00225493C13.3543 0.000750661 13.27 0 13.1856 0C12.0011 0 10.8441 0.154786 9.72208 0.470113C8.62305 0.771966 7.58494 1.2062 6.61503 1.7753C5.65612 2.33795 4.77911 3.01357 3.98712 3.79852L3.98153 3.80407L3.97785 3.80776C3.18983 4.59735 2.51286 5.4757 1.94999 6.43883C1.38377 7.4077 0.948099 8.44411 0.640177 9.54111L0.637348 9.55129L0.636819 9.55322C0.330089 10.6685 0.179688 11.8182 0.179688 12.9952C0.179688 14.1778 0.329683 15.333 0.635555 16.4539L0.637448 16.4608L0.638209 16.4635L0.64018 16.4706C0.948097 17.5676 1.38377 18.604 1.94999 19.5729C2.51286 20.536 3.18983 21.4144 3.97785 22.204C4.77135 22.9991 5.65135 23.6816 6.61503 24.2471C7.5849 24.8161 8.62295 25.2504 9.72193 25.5522C10.844 25.8676 12.001 26.0224 13.1856 26.0224Z" fill="black"/>
<path fill-rule="evenodd" clip-rule="evenodd" d="M13.1836 2.00098C12.1731 2.00098 11.1966 2.13305 10.2554 2.39815C9.318 2.6551 8.44088 3.02267 7.62522 3.50126C6.81137 3.9788 6.06714 4.55191 5.39305 5.22001L5.39153 5.22153C4.724 5.89039 4.15159 6.63308 3.67478 7.44894C3.19743 8.26575 2.82726 9.14401 2.5638 10.0826L2.56326 10.0846C2.30591 11.0202 2.17773 11.9912 2.17773 12.9962C2.17773 14.0081 2.30585 14.9858 2.56305 15.9283L2.56381 15.9311C2.82726 16.8697 3.19743 17.7479 3.67478 18.5647C4.15159 19.3806 4.724 20.1233 5.39153 20.7922C6.06586 21.4678 6.81058 22.0451 7.62522 22.5231C8.44088 23.0016 9.31799 23.3692 10.2553 23.6262C11.1965 23.8913 12.173 24.0233 13.1836 24.0233C14.2232 24.0233 15.2222 23.884 16.1791 23.6039C17.1388 23.3321 18.0345 22.9424 18.865 22.4343C19.0492 22.3215 19.1083 22.0815 18.9975 21.8962L18 20.2267C17.9463 20.1368 17.8589 20.072 17.7573 20.0466C17.6556 20.0212 17.5481 20.0374 17.4583 20.0915C16.8314 20.4698 16.1566 20.7607 15.4329 20.964L15.4296 20.9649C14.7095 21.174 13.9612 21.279 13.1836 21.279C12.4184 21.279 11.6827 21.1806 10.9754 20.9849C10.2719 20.7882 9.6138 20.5108 9.00025 20.1528C8.39242 19.7941 7.8351 19.3643 7.32783 18.863C6.82921 18.3632 6.40126 17.8062 6.04362 17.1912C5.69275 16.5757 5.41885 15.9153 5.22228 15.2091C5.02694 14.5003 4.92882 13.763 4.92882 12.9962C4.92882 12.2366 5.02691 11.5066 5.22215 10.8051C5.41872 10.0987 5.69256 9.44206 6.0431 8.83401C6.40084 8.21867 6.82894 7.66138 7.32778 7.16138C7.83507 6.65998 8.39243 6.23022 9.0003 5.87145C9.61394 5.51343 10.2721 5.23597 10.9758 5.03932C11.683 4.84365 12.4185 4.74536 13.1836 4.74536C13.9575 4.74536 14.6979 4.84054 15.4059 5.02974C16.1183 5.22007 16.7808 5.48792 17.3947 5.83266L17.3976 5.83427C18.0115 6.17227 18.5672 6.58068 19.0655 7.05978L19.0675 7.06171C19.5664 7.53456 19.99 8.05695 20.3394 8.62922L20.3423 8.63385C20.6982 9.19905 20.9736 9.80464 21.1687 10.4516C21.3622 11.0868 21.4596 11.7474 21.4596 12.4326C21.4596 13.0554 21.418 13.5633 21.3397 13.9624L21.3387 13.9674C21.2681 14.3535 21.1393 14.7322 20.9505 15.104C20.7697 15.46 20.5278 15.7648 20.2229 16.0209C19.9583 16.2366 19.6165 16.3558 19.1688 16.3558C18.9583 16.3558 18.818 16.3164 18.7253 16.2637C18.6249 16.1994 18.5202 16.0918 18.4192 15.9188C18.347 15.7841 18.2893 15.5377 18.2893 15.1335V8.08367C18.2893 7.86611 18.1129 7.68973 17.8953 7.68973H15.9427C15.7252 7.68973 15.5488 7.86611 15.5488 8.08367V8.29431C15.2902 8.17052 15.0204 8.06668 14.7397 7.98272C14.2275 7.82951 13.6942 7.75353 13.1412 7.75353C12.3761 7.75353 11.6544 7.89797 10.9801 8.18956C10.3211 8.4705 9.74192 8.85562 9.24582 9.34506L9.24366 9.34721C8.75459 9.83726 8.36975 10.4108 8.08903 11.0643C7.80498 11.7184 7.66411 12.417 7.66411 13.1557C7.66411 13.8983 7.79669 14.5982 8.06509 15.2513L8.06661 15.255C8.3406 15.9032 8.72253 16.4739 9.21182 16.9642C9.70184 17.4552 10.2787 17.8411 10.9386 18.1223L10.9436 18.1244C11.6183 18.4009 12.3524 18.5366 13.1412 18.5366C13.8276 18.5366 14.4753 18.4269 15.0812 18.204C15.5388 18.0357 15.9626 17.8158 16.3516 17.5441C16.5995 17.8797 16.9056 18.1651 17.2676 18.3991C17.784 18.7329 18.4076 18.8875 19.1157 18.8875C19.6549 18.8875 20.1631 18.7986 20.6365 18.6168L20.6418 18.6147C21.1027 18.43 21.523 18.1829 21.9014 17.8734C22.2849 17.5583 22.6186 17.1894 22.9009 16.7693C23.1853 16.3565 23.4245 15.9142 23.6186 15.443C23.8131 14.9708 23.9586 14.477 24.0554 13.9622C24.1517 13.4498 24.2001 12.9399 24.2001 12.4326C24.2001 11.4885 24.0676 10.5753 23.8018 9.69425C23.5446 8.81107 23.1769 7.98193 22.6988 7.20789C22.228 6.43409 21.6582 5.72727 20.9906 5.08774C20.3225 4.44772 19.581 3.89974 18.7669 3.4441C17.9518 2.98792 17.0724 2.6357 16.13 2.38666C15.1892 2.12908 14.2067 2.00098 13.1836 2.00098ZM12.0436 10.7109C12.3725 10.5705 12.7367 10.4979 13.1412 10.4979C13.4241 10.4979 13.6863 10.5357 13.9298 10.6088L13.9323 10.6096C14.1878 10.6845 14.4179 10.7895 14.6248 10.9237L14.6318 10.9281C14.8386 11.0561 15.0202 11.2108 15.1778 11.3931L15.1827 11.3986C15.3295 11.5621 15.4512 11.736 15.5488 11.9205V14.4217C15.3424 14.8078 15.0447 15.1288 14.6478 15.3866C14.24 15.6445 13.7434 15.7816 13.1412 15.7816C12.7126 15.7816 12.3329 15.7115 11.9971 15.5776C11.6599 15.4331 11.3752 15.2449 11.1384 15.0147C10.9072 14.7759 10.7274 14.5011 10.5984 14.1875C10.47 13.8685 10.4046 13.5257 10.4046 13.1557C10.4046 12.7957 10.4724 12.4581 10.607 12.1393L10.6081 12.1368C10.7444 11.8076 10.9314 11.5259 11.1685 11.2878C11.4145 11.048 11.705 10.8554 12.0436 10.7109Z" fill="white"/>
<path d="M27.3785 15.2687C27.1609 15.2687 26.9846 15.4451 26.9846 15.6626V20.1561H22.4794C22.2619 20.1561 22.0855 20.3325 22.0855 20.55V22.6846C22.0855 22.9022 22.2619 23.0786 22.4794 23.0786H26.9846V27.607C26.9846 27.8246 27.1609 28.001 27.3785 28.001H29.5014C29.719 28.001 29.8954 27.8246 29.8954 27.607V23.0786H34.4238C34.6414 23.0786 34.8178 22.9022 34.8178 22.6846V20.55C34.8178 20.3325 34.6414 20.1561 34.4238 20.1561H29.8954V15.6626C29.8954 15.4451 29.719 15.2687 29.5014 15.2687H27.3785Z" fill="white"/>
</svg>
