<svg width="36" height="35" viewBox="0 0 36 35" fill="none" xmlns="http://www.w3.org/2000/svg">
<path d="M2 32.0059H8.41608C9.18768 33.7717 10.9498 35.0059 13 35.0059C14.6667 35.0059 16.3333 35.0059 18 35.0059C20.0502 35.0059 21.8123 33.7717 22.5839 32.0059H29C30.1046 32.0059 31 31.1104 31 30.0059C31 27.6249 29.8113 25.5246 28 24.2611V18.0059C28 13.9017 25.5296 10.3791 21.9965 8.83698C21.908 6.70624 20.1525 5.00586 18 5.00586C16.3333 5.00586 14.6667 5.00586 13 5.00586C10.8475 5.00586 9.09201 6.70624 9.0035 8.83698C5.47045 10.3791 3 13.9017 3 18.0059V24.2611C1.18873 25.5246 0 27.6249 0 30.0059C0 31.1104 0.89543 32.0059 2 32.0059Z" fill="black"/>
<path d="M11 9.00586C11 7.90137 11.8955 7.00586 13 7.00586C14.1045 7.00586 15 7.90137 15 9.00586V10.2578C18.4507 11.146 21 14.2778 21 18.0059V25.4219C22.7656 26.1934 24 27.9556 24 30.0059H16C16 31.6626 14.6567 33.0059 13 33.0059C11.3433 33.0059 10 31.6626 10 30.0059H2C2 27.9556 3.23438 26.1934 5 25.4219V18.0059C5 14.2778 7.54932 11.146 11 10.2578V9.00586Z" fill="white"/>
<rect x="19" y="0.00292969" width="17" height="17" rx="3.99999" fill="#FA9938"/>
<rect x="21" y="2.00293" width="13" height="13" rx="2" fill="#E8306E"/>
<path d="M26.6836 10.9365C26.6836 10.8402 26.7005 10.7503 26.7344 10.667C26.7708 10.5811 26.8203 10.5068 26.8828 10.4443C26.9453 10.3792 27.0182 10.3285 27.1016 10.292C27.1875 10.2555 27.2799 10.2373 27.3789 10.2373C27.4727 10.2373 27.5612 10.2555 27.6445 10.292C27.7305 10.3285 27.8047 10.3792 27.8672 10.4443C27.9297 10.5068 27.9792 10.5811 28.0156 10.667C28.0521 10.7503 28.0703 10.8402 28.0703 10.9365C28.0703 11.0329 28.0521 11.124 28.0156 11.21C27.9792 11.2933 27.9297 11.3662 27.8672 11.4287C27.8047 11.4912 27.7305 11.5407 27.6445 11.5771C27.5612 11.6136 27.4727 11.6318 27.3789 11.6318C27.2799 11.6318 27.1875 11.6136 27.1016 11.5771C27.0182 11.5407 26.9453 11.4912 26.8828 11.4287C26.8203 11.3662 26.7708 11.2933 26.7344 11.21C26.7005 11.124 26.6836 11.0329 26.6836 10.9365ZM26.6836 5.34278H28.125L27.9648 9.51075H26.8438L26.6836 5.34278Z" fill="white"/>
</svg>
