<svg width="55" height="35" viewBox="0 0 55 35" fill="none" xmlns="http://www.w3.org/2000/svg">
<path d="M14 32.0059H20.4161C21.1877 33.7717 22.9498 35.0059 25 35.0059C26.6667 35.0059 28.3333 35.0059 30 35.0059C32.0502 35.0059 33.8123 33.7717 34.5839 32.0059H41C42.1046 32.0059 43 31.1104 43 30.0059C43 27.6249 41.8113 25.5246 40 24.2611V18.0059C40 13.9017 37.5296 10.3791 33.9965 8.83698C33.908 6.70624 32.1525 5.00586 30 5.00586C28.3333 5.00586 26.6667 5.00586 25 5.00586C22.8475 5.00586 21.092 6.70624 21.0035 8.83698C17.4704 10.3791 15 13.9017 15 18.0059V24.2611C13.1887 25.5246 12 27.6249 12 30.0059C12 31.1104 12.8954 32.0059 14 32.0059Z" fill="black"/>
<path d="M23 9.00586C23 7.90137 23.8955 7.00586 25 7.00586C26.1045 7.00586 27 7.90137 27 9.00586V10.2578C30.4507 11.146 33 14.2778 33 18.0059V25.4219C34.7656 26.1934 36 27.9556 36 30.0059H28C28 31.6626 26.6567 33.0059 25 33.0059C23.3433 33.0059 22 31.6626 22 30.0059H14C14 27.9556 15.2344 26.1934 17 25.4219V18.0059C17 14.2778 19.5493 11.146 23 10.2578V9.00586Z" fill="white"/>
</svg>
