<svg width="37" height="35" viewBox="0 0 37 35" fill="none" xmlns="http://www.w3.org/2000/svg">
<path d="M4.5 32.0059H10.9161C11.6877 33.7717 13.4498 35.0059 15.5 35.0059C17.1667 35.0059 18.8333 35.0059 20.5 35.0059C22.5502 35.0059 24.3123 33.7717 25.0839 32.0059H31.5C32.6046 32.0059 33.5 31.1104 33.5 30.0059C33.5 27.6249 32.3113 25.5246 30.5 24.2611V18.0059C30.5 13.9017 28.0296 10.3791 24.4965 8.83698C24.408 6.70624 22.6525 5.00586 20.5 5.00586C18.8333 5.00586 17.1667 5.00586 15.5 5.00586C13.3475 5.00586 11.592 6.70624 11.5035 8.83698C7.97045 10.3791 5.5 13.9017 5.5 18.0059V24.2611C3.68873 25.5246 2.5 27.6249 2.5 30.0059C2.5 31.1104 3.39543 32.0059 4.5 32.0059Z" fill="black"/>
<path d="M13.5 9.00586C13.5 7.90137 14.3955 7.00586 15.5 7.00586C16.6045 7.00586 17.5 7.90137 17.5 9.00586V10.2578C20.9507 11.146 23.5 14.2778 23.5 18.0059V25.4219C25.2656 26.1934 26.5 27.9556 26.5 30.0059H18.5C18.5 31.6626 17.1567 33.0059 15.5 33.0059C13.8433 33.0059 12.5 31.6626 12.5 30.0059H4.5C4.5 27.9556 5.73438 26.1934 7.5 25.4219V18.0059C7.5 14.2778 10.0493 11.146 13.5 10.2578V9.00586Z" fill="white"/>
</svg>
