<svg width="33" height="30" viewBox="0 0 33 30" fill="none" xmlns="http://www.w3.org/2000/svg">
<path d="M3 27H9.41608C10.1877 28.7659 11.9498 30 14 30C15.6667 30 17.3333 30 19 30C21.0502 30 22.8123 28.7659 23.5839 27H30C31.1046 27 32 26.1046 32 25C32 22.619 30.8113 20.5187 29 19.2552V13C29 8.89585 26.5296 5.37322 22.9965 3.83112C22.908 1.70038 21.1525 0 19 0C17.3333 0 15.6667 0 14 0C11.8475 0 10.092 1.70038 10.0035 3.83112C6.47045 5.37322 4 8.89585 4 13V19.2552C2.18873 20.5187 1 22.619 1 25C1 26.1046 1.89543 27 3 27Z" fill="black"/>
<path d="M12 4C12 2.89551 12.8955 2 14 2C15.1045 2 16 2.89551 16 4V5.25195C19.4507 6.14014 22 9.27197 22 13V20.416C23.7656 21.1875 25 22.9497 25 25H17C17 26.6567 15.6567 28 14 28C12.3433 28 11 26.6567 11 25H3C3 22.9497 4.23438 21.1875 6 20.416V13C6 9.27197 8.54932 6.14014 12 5.25195V4Z" fill="white"/>
</svg>
