<svg width="35" height="30" viewBox="0 0 35 30" fill="none" xmlns="http://www.w3.org/2000/svg">
<path d="M19.5 30C19.5835 30 19.6668 29.9993 19.75 29.998C19.8332 29.9993 19.9165 30 20 30C28.2843 30 35 23.2843 35 15C35 6.71573 28.2843 0 20 0C19.9165 0 19.8332 0.000682181 19.75 0.00204127C19.6668 0.000682181 19.5835 0 19.5 0C19.4165 0 19.3332 0.000682181 19.25 0.00204127C19.1668 0.000682181 19.0835 0 19 0C18.9165 0 18.8332 0.000682186 18.75 0.00204129C18.6668 0.000682185 18.5835 0 18.5 0C18.4165 0 18.3332 0.000682186 18.25 0.00204129C18.1668 0.000682185 18.0835 0 18 0C17.9165 0 17.8332 0.000682176 17.75 0.00204126C17.6668 0.000682177 17.5835 0 17.5 0C17.4165 0 17.3332 0.000682174 17.25 0.00204126C17.1668 0.000682176 17.0835 0 17 0C16.9165 0 16.8332 0.00068218 16.75 0.00204127C16.6668 0.000682181 16.5835 0 16.5 0C16.4165 0 16.3332 0.000682181 16.25 0.00204127C16.1668 0.000682181 16.0835 0 16 0C15.9165 0 15.8332 0.00068218 15.75 0.00204127C15.6668 0.00068218 15.5835 0 15.5 0C15.4165 0 15.3332 0.000682183 15.25 0.00204128C15.1668 0.000682183 15.0835 0 15 0C6.71573 0 0 6.71573 0 15C0 23.2843 6.71573 30 15 30C15.0835 30 15.1668 29.9993 15.25 29.998C15.3332 29.9993 15.4165 30 15.5 30C15.5835 30 15.6668 29.9993 15.75 29.998C15.8332 29.9993 15.9165 30 16 30C16.0835 30 16.1668 29.9993 16.25 29.998C16.3332 29.9993 16.4165 30 16.5 30C16.5835 30 16.6668 29.9993 16.75 29.998C16.8332 29.9993 16.9165 30 17 30C17.0835 30 17.1668 29.9993 17.25 29.998C17.3332 29.9993 17.4165 30 17.5 30C17.5835 30 17.6668 29.9993 17.75 29.998C17.8332 29.9993 17.9165 30 18 30C18.0835 30 18.1668 29.9993 18.25 29.998C18.3332 29.9993 18.4165 30 18.5 30C18.5835 30 18.6668 29.9993 18.75 29.998C18.8332 29.9993 18.9165 30 19 30C19.0835 30 19.1668 29.9993 19.25 29.998C19.3332 29.9993 19.4165 30 19.5 30Z" fill="black"/>
<path fill-rule="evenodd" clip-rule="evenodd" d="M18.607 22.1426C17.5232 22.691 16.2977 23 15 23C10.5817 23 7 19.4183 7 15C7 13.7023 7.30897 12.4768 7.85736 11.393L18.607 22.1426ZM22.1426 18.6072L11.3928 7.85745C12.4767 7.309 13.7023 7 15 7C19.4183 7 23 10.5817 23 15C23 16.2977 22.691 17.5233 22.1426 18.6072ZM28 15C28 22.1797 22.1797 28 15 28C7.8203 28 2 22.1797 2 15C2 7.8203 7.8203 2 15 2C22.1797 2 28 7.8203 28 15Z" fill="white"/>
</svg>
