<svg width="53" height="31" viewBox="0 0 53 31" fill="none" xmlns="http://www.w3.org/2000/svg">
<path d="M27.8293 28.002C27.4175 29.1667 26.3067 30.002 25 30.002H19C17.8898 30.002 16.9202 29.3985 16.4014 28.5018H14.7001C14.245 29.392 13.319 30.0018 12.25 30.0018H6.49997C5.43149 30.0018 4.50516 29.3922 4.04992 28.5018H3.49999C1.56705 28.5018 0 26.9348 0 25.0018V10.0019C0 8.069 1.56705 6.50195 3.49999 6.50195C3.57265 6.50195 3.64441 6.50582 3.71507 6.51338C3.80905 6.50581 3.90407 6.50195 3.99999 6.50195C4.04197 6.50195 4.08365 6.50324 4.12499 6.50579C4.16632 6.50324 4.208 6.50195 4.24998 6.50195H11V4.00195C11 1.79288 12.7909 0.00195312 15 0.00195312C15.0699 0.00195312 15.1389 0.00553582 15.2069 0.0125275C15.3037 0.00551857 15.4014 0.00195312 15.5 0.00195312C15.5699 0.00195312 15.6389 0.00553596 15.7069 0.012528C15.8037 0.00551879 15.9014 0.00195312 16 0.00195312H39C40.6577 0.00195312 42 1.34603 42 3.00195V6.50195H50.2499C51.7695 6.50195 52.9999 7.73403 52.9999 9.25194V22.7518C52.9999 23.4202 52.7614 24.0331 52.3647 24.5098C52.759 24.9338 53.0002 25.5022 53.0002 26.1268C53.0002 27.4401 51.9355 28.5018 50.6252 28.5018H42.2C41.745 29.392 40.819 30.0018 39.7499 30.0018H34C32.9315 30.0018 32.0051 29.3922 31.5499 28.5018H31C30.3403 28.5018 29.7232 28.3193 29.1964 28.002H27.8293Z" fill="black"/>
<path fill-rule="evenodd" clip-rule="evenodd" d="M34 2.00195C34.5525 2.00195 35 2.44995 35 3.00195V21.002C35 21.554 34.5525 22.002 34 22.002H15C14.448 22.002 14 22.45 14 23.002V24.002C14 24.554 14.448 25.002 15 25.002H17V26.002H15C13.8955 26.002 13 25.1065 13 24.002V4.00195C13 2.89745 13.8955 2.00195 15 2.00195V20.502C15 20.7785 15.224 21.002 15.5 21.002C15.7765 21.002 16 20.7785 16 20.502V2.00195H34ZM34 24.002H21V27.002C21 27.554 20.5525 28.002 20 28.002H19C18.448 28.002 18 27.554 18 27.002V24.002H15.5C15.224 24.002 15 23.7785 15 23.502C15 23.226 15.224 23.002 15.5 23.002H34V24.002ZM34.5005 25.002C34.7765 25.002 35.0005 25.226 35.0005 25.502C35.0005 25.7785 34.7765 26.002 34.5005 26.002H22.0005V25.002H34.5005ZM36.0007 23.5018L36.0002 23.5015V23.238C36.614 22.6886 37.0002 21.8901 37.0002 21.002V8.50195H45.2501C45.6644 8.50195 46.0001 8.83795 46.0001 9.25194V22.7519C46.0001 23.1658 45.6644 23.5018 45.2501 23.5018H36.0007ZM34.5271 28.0018H34.7501C34.8532 28.0018 34.9513 27.981 35.0407 27.9435C34.875 27.9799 34.7032 28 34.5271 28.0018ZM36.9506 25.0018C36.8962 24.7338 36.7988 24.4813 36.6661 24.2518H45.2501V25.0018H36.9506ZM36.7928 26.5018C36.8948 26.2683 36.9621 26.0162 36.9884 25.7518H45.6254C45.8324 25.7518 46.0004 25.9198 46.0004 26.1268C46.0004 26.3342 45.8324 26.5018 45.6254 26.5018H36.7928ZM11.8773 26.5018C11.6925 26.2713 11.5327 26.02 11.4021 25.7518H8.75032V26.5018H11.8773ZM11.126 25.0018C11.0637 24.7599 11.0235 24.5092 11.0077 24.2518H3.87499C3.66799 24.2518 3.49999 24.4198 3.49999 24.6268C3.49999 24.8342 3.66799 25.0018 3.87499 25.0018H5.74997V27.2518C5.74997 27.6658 6.08597 28.0018 6.49997 28.0018H7.24996C7.66434 28.0018 7.99996 27.6658 7.99996 27.2518V25.0018H11.126ZM11 23.5018V8.50195H4.24998V22.3769C4.24998 22.5842 4.08236 22.7519 3.87499 22.7519C3.66799 22.7519 3.49999 22.5842 3.49999 22.3769V8.50195C2.67162 8.50195 2 9.17357 2 10.0019V25.0018C2 25.8302 2.67162 26.5018 3.49999 26.5018H4.99998V25.7518H3.49999C3.08599 25.7518 2.74999 25.4158 2.74999 25.0018V24.2518C2.74999 23.8378 3.08599 23.5018 3.49999 23.5018H11Z" fill="white"/>
</svg>
