<svg width="26" height="21" viewBox="0 0 26 21" fill="none" xmlns="http://www.w3.org/2000/svg">
<path fill-rule="evenodd" clip-rule="evenodd" d="M4.02491 10.0276C3.93363 10.0283 3.86432 10.0283 3.84366 10.0276H3.83903C3.80438 10.0256 3.75908 10.0209 3.71378 10.0143C3.60184 10.0236 3.49988 10.0336 3.4146 10.0303H3.4126C2.90557 10.0103 2.5218 9.81694 2.22731 9.49561C1.79556 9.37161 1.39447 9.14295 1.20325 8.98629C0.852125 8.69762 0.728835 8.39229 0.682196 8.26562L0.679552 8.25826C0.656233 8.19293 0.636252 8.12361 0.620261 8.05094C0.167861 7.30428 0.304436 6.4996 0.658894 5.9436C0.728853 5.5736 0.914749 5.1776 1.31451 4.83626C1.61567 4.5796 1.88418 4.40829 2.12471 4.29362C2.01211 3.91629 2.03076 3.53561 2.15268 3.20028C2.15535 2.89761 2.24862 2.58495 2.4565 2.28495L2.45784 2.28296C2.67905 1.96696 3.17406 1.48762 4.05021 1.53829C4.09618 1.52362 4.14684 1.50759 4.17949 1.49959L4.18481 1.49829C4.3214 1.46496 4.45066 1.4476 4.57326 1.4436C4.71651 1.09627 4.99299 0.766266 5.52334 0.5896C5.65659 0.544933 5.90981 0.48627 6.23695 0.509603H6.23894C6.26359 0.511603 6.28957 0.51426 6.31755 0.516927C6.35153 0.513594 6.38554 0.510936 6.41885 0.509603C6.53078 0.464936 6.64936 0.425624 6.78062 0.397624C7.08977 0.147624 7.44888 0.0142633 7.8653 0.0115967L9.20721 0.00292969C9.24718 0.00292969 9.2878 0.00429134 9.32977 0.00695801L9.87348 0.00292969C9.91346 0.00292969 9.95407 0.00429134 9.99605 0.00695801L10.5398 0.00292969C10.5797 0.00292969 10.6203 0.00429134 10.6623 0.00695801L11.206 0.00292969C11.246 0.00292969 11.2866 0.00429134 11.3286 0.00695801L11.8723 0.00292969C11.9123 0.00292969 11.9529 0.00429134 11.9949 0.00695801L12.5386 0.00292969C12.6279 0.00292969 12.7218 0.00895866 12.8217 0.024292H12.8237C13.2035 0.0836253 13.47 0.240961 13.6745 0.426961L13.7059 0.42627H13.7112C13.7472 0.42627 13.7825 0.427591 13.8185 0.430257L14.3721 0.42627H14.3775C14.4134 0.42627 14.4488 0.427591 14.4847 0.430257L15.0384 0.42627H15.0437C15.0797 0.42627 15.115 0.427591 15.151 0.430257L15.7047 0.42627H15.71C15.746 0.42627 15.7813 0.427591 15.8173 0.430257L16.371 0.42627H16.3763C16.6481 0.426936 16.9073 0.492286 17.1432 0.618286C17.439 0.774953 17.8908 1.08561 18.0353 1.91227C18.2126 2.08427 18.3372 2.28628 18.4138 2.51095C18.6656 2.54961 18.9668 2.63227 19.3139 2.8136C19.3505 2.8236 19.4611 2.85361 19.5058 2.86694C19.7963 2.95028 20.0028 3.07429 20.1281 3.16829C20.224 3.18629 20.3173 3.21293 20.4079 3.2476C20.4726 3.25227 20.6085 3.26295 20.6958 3.26762C21.1568 3.29629 21.6239 3.35896 21.917 3.4703C22.3741 3.6443 22.6632 3.90695 23.0997 4.30762C23.1816 4.31628 23.3209 4.33296 23.3822 4.34562C24.1584 4.50696 24.5855 4.89696 24.752 5.69096C24.8113 5.97096 24.902 6.16096 24.9393 6.32629C25.0399 6.76829 25.0212 7.16426 24.8427 7.59692C24.6654 8.02492 24.4849 8.66229 23.6074 9.30229C23.5987 9.31962 23.5794 9.35893 23.5794 9.35893C23.4448 9.64493 23.3069 9.87561 23.189 10.0129C23.185 10.0169 23.181 10.0216 23.177 10.0263C23.153 10.7856 23.0364 11.3583 22.8745 11.7776C22.8878 12.1416 22.8185 12.5316 22.4767 12.9589C22.4454 13.0283 22.4114 13.0983 22.3734 13.167C22.3395 13.4123 22.2488 13.6696 22.0569 13.9223C21.9383 14.0796 21.7665 14.2609 21.484 14.4089C21.4047 14.4943 21.3081 14.5796 21.1855 14.6609C20.9823 14.7963 20.6671 14.961 20.0881 14.9723C20.0268 14.9736 19.9702 14.9729 19.9182 14.9709C19.7723 15.0709 19.5931 15.1629 19.3672 15.2403C19.3212 15.2563 19.2446 15.3069 19.1693 15.3623C19.2639 15.9616 19.1547 16.5036 18.6056 17.0369C18.5863 17.0829 18.4817 17.3296 18.4278 17.455C18.2246 17.9276 17.9654 18.3483 17.5296 18.6763C17.465 18.9036 17.3451 19.1469 17.0966 19.4163C16.6282 19.9236 16.1671 19.9923 15.8406 19.9943L14.4987 20.0029C14.4534 20.0036 14.4088 20.0023 14.3655 19.9996L13.8325 20.0029C13.7871 20.0036 13.7425 20.0023 13.6992 19.9996L13.1662 20.0029C13.1209 20.0036 13.0763 20.0023 13.033 19.9996L12.4999 20.0029C12.4546 20.0036 12.41 20.0023 12.3667 19.9996L11.8336 20.0029C11.7883 20.0036 11.7437 20.0023 11.7004 19.9996L11.1674 20.0029C10.6603 20.0063 10.2819 19.8316 9.9494 19.4623L9.94875 19.4609C9.80284 19.2983 9.64292 19.0403 9.55031 18.7063C9.31977 18.6156 9.10193 18.4936 8.89672 18.285C8.3637 18.1576 8.06119 17.819 7.88596 17.4463C7.67009 16.987 7.69739 16.3283 8.01321 15.8243C8.17844 15.5609 8.58221 15.0489 8.69815 14.9296L8.69949 14.9283C8.73547 14.8909 8.77144 14.8556 8.80742 14.821C8.78476 14.7903 8.76277 14.7576 8.74011 14.7223C8.20909 14.603 7.86999 14.303 7.66478 13.9776C7.49821 13.713 7.40159 13.4036 7.41358 13.061C7.3936 12.989 7.36096 12.871 7.34364 12.799C7.27968 12.529 7.25501 12.2643 7.26767 12.0223C7.20171 11.9936 7.14106 11.9629 7.08642 11.9303L7.08512 11.9296C6.88258 11.8109 6.57006 11.5689 6.3855 11.0896C6.35552 11.0109 6.32421 10.8956 6.2949 10.7629C6.25492 10.7389 6.21495 10.7123 6.17497 10.6843C6.09569 10.6283 6.06706 10.6009 6.03708 10.5976C5.82653 10.5736 5.63661 10.5383 5.42607 10.4589C5.12025 10.3436 4.88042 10.1963 4.69253 10.0276H4.69119C4.59991 10.0283 4.53059 10.0283 4.50994 10.0276H4.5053C4.48998 10.027 4.47264 10.0256 4.45398 10.0236C4.38669 10.0243 4.31342 10.0249 4.24146 10.0256C4.18349 10.0296 4.12951 10.0323 4.08087 10.0303H4.07888C4.06089 10.0296 4.0429 10.029 4.02491 10.0276Z" fill="black"/>
<path d="M7.86644 1.34491L9.20911 1.33624C9.23177 1.33624 9.25577 1.33758 9.28111 1.34158C9.35711 1.35358 9.41044 1.38424 9.44977 1.42224C9.50444 1.47358 9.53777 1.54424 9.54644 1.63224C9.54977 1.66958 9.54577 1.70624 9.54577 1.75958C9.63044 1.79024 9.67977 1.84491 9.70977 1.90691C9.74377 1.97558 9.75244 2.07491 9.71511 2.19624C9.69311 2.26891 9.65044 2.36091 9.61777 2.46291C9.72444 2.38891 9.86511 2.37824 9.99111 2.37691C10.0724 2.37691 10.8311 2.37091 10.9151 2.37091C10.9698 2.37091 11.0238 2.37424 11.0711 2.37958C11.1344 2.26824 11.3091 1.97424 11.4618 1.85691C11.5411 1.79558 11.6211 1.76891 11.6951 1.76824L13.0391 1.75958C13.0898 1.75958 13.1371 1.77158 13.1811 1.79491C13.2571 1.83491 13.3504 1.92958 13.3871 2.14358C13.4298 2.39158 13.4731 2.55691 13.5251 2.66691C13.5504 2.72024 13.5691 2.75424 13.6011 2.76758C13.7698 2.83691 13.8424 2.96891 13.8418 3.12624C13.8411 3.27224 13.7524 3.46224 13.5884 3.61024C13.6211 3.61358 13.6518 3.61891 13.6811 3.62558C13.7111 3.62491 13.7458 3.62158 13.7864 3.61558C14.0898 3.56624 14.2978 3.66958 14.4004 3.79358C14.4071 3.80158 14.4131 3.80958 14.4191 3.81758C14.4458 3.81224 14.4758 3.80958 14.5104 3.80958C14.6918 3.81091 14.9904 3.79491 15.3864 4.00758C15.5224 4.08091 15.6931 4.11558 15.8024 4.14758C15.8918 4.17358 15.9571 4.20491 15.9911 4.23158C16.0391 4.27024 16.0891 4.31224 16.1318 4.39291C16.1571 4.44024 16.1564 4.48824 16.2051 4.51158C16.2304 4.52358 16.2631 4.54358 16.2891 4.53024C16.4131 4.46558 16.5338 4.46024 16.6364 4.50891C16.7758 4.57491 17.0264 4.58291 17.2804 4.59824C17.5931 4.61758 17.9118 4.64091 18.1104 4.71624C18.4258 4.83624 18.6018 5.04691 18.9098 5.32891C19.2744 5.66358 19.6004 5.61424 19.7798 5.65091C19.9658 5.68958 20.0764 5.77424 20.1164 5.96491C20.1771 6.25491 20.2698 6.45091 20.3084 6.62158C20.3451 6.78358 20.3451 6.92891 20.2798 7.08758C20.1578 7.38091 20.0558 7.83891 19.4151 8.27758C19.2271 8.40624 19.1271 8.61024 19.0478 8.77758L19.0418 8.79024C18.9711 8.94091 18.9104 9.06824 18.8484 9.14024C18.7464 9.25891 18.6378 9.27358 18.5304 9.24691C18.5204 9.34891 18.5151 9.49224 18.5164 9.68891C18.5211 10.6209 18.4064 11.2076 18.1858 11.5242C18.1631 11.5569 18.1938 11.6422 18.1978 11.6776C18.2171 11.8422 18.2124 12.0209 18.0111 12.2289C17.9791 12.2622 17.9631 12.3336 17.9318 12.4042C17.8771 12.5282 17.8058 12.6602 17.6991 12.7616C17.7111 12.8149 17.7238 12.8642 17.7244 12.9116C17.7244 12.9756 17.7144 13.0476 17.6624 13.1162C17.6131 13.1816 17.5238 13.2449 17.3604 13.2929C17.2451 13.3269 17.2731 13.3589 17.2118 13.4509C17.1584 13.5316 17.0644 13.6322 16.7278 13.6389C16.6284 13.6409 16.5491 13.6356 16.4844 13.6249C16.4318 13.6342 16.3698 13.6402 16.2958 13.6416C16.1564 13.6442 16.0558 13.5709 15.9851 13.6889C15.9224 13.7929 15.8238 13.9029 15.6018 13.9789C15.2658 14.0936 14.6331 14.5202 14.4584 14.8709C14.3991 14.9902 14.4091 15.0996 14.4304 15.1996C14.4511 15.2962 14.4818 15.3876 14.5004 15.4749C14.5478 15.6969 14.5351 15.8976 14.3304 16.0916C14.0791 16.3296 13.9911 16.6429 13.8691 16.9276C13.7118 17.2922 13.5131 17.6182 13.0531 17.7976C12.9778 17.8229 12.9491 18.1036 12.9364 18.1896C12.9224 18.2862 12.8931 18.3902 12.7811 18.5116C12.6724 18.6296 12.5718 18.6609 12.4958 18.6609L11.1531 18.6696C11.0618 18.6702 10.9944 18.6369 10.9344 18.5702C10.8898 18.5202 10.8484 18.4336 10.8224 18.3276C10.8004 18.2369 10.8138 18.1616 10.8438 18.0929C10.8818 18.0056 10.8658 17.9916 10.7851 17.9256C10.6124 17.7829 10.4591 17.6222 10.3284 17.5642C10.2324 17.5209 10.1478 17.5082 10.0711 17.4802C9.95044 17.4362 9.84044 17.3716 9.73511 17.2176C9.55844 16.9576 9.35577 17.0069 9.28911 17.0009C9.01777 16.9789 9.02177 16.7129 9.13511 16.5329C9.25977 16.3349 9.56044 15.9482 9.64644 15.8596C9.99911 15.4976 10.2891 15.3602 10.4658 15.2802C10.5891 15.2236 10.6611 15.1396 10.6664 15.0029C10.6718 14.8669 10.5698 14.8502 10.4858 14.8376C10.4138 14.8276 10.3531 14.8049 10.3111 14.7742C10.2698 14.7436 10.2284 14.7016 10.2078 14.6389C10.1884 14.5796 10.1871 14.4996 10.2304 14.3896C10.2784 14.2662 10.2984 14.1862 10.2911 14.1282C10.1511 14.1942 10.0064 14.1762 9.89777 14.0622C9.85577 14.0182 9.80844 13.9309 9.77177 13.8196C9.73311 13.7022 9.70044 13.5502 9.67311 13.4389C9.48444 13.4389 9.28177 13.4576 9.09644 13.4336C8.94377 13.4129 8.83911 13.3522 8.78511 13.2662C8.74711 13.2069 8.73244 13.1342 8.74311 13.0509C8.76311 12.8942 8.68044 12.6876 8.63311 12.4909C8.58844 12.3009 8.56844 12.1176 8.60844 11.9689C8.65311 11.8009 8.71977 11.6816 8.76911 11.5782C8.81044 11.4902 8.80177 11.4469 8.74244 11.3682C8.66444 11.2642 8.61244 11.2262 8.57444 11.1936C8.20111 10.8729 8.45977 10.8589 7.94177 10.8316C7.86377 10.8276 7.79977 10.8076 7.75311 10.7802C7.71311 10.7569 7.65777 10.7049 7.62177 10.6109C7.57177 10.4816 7.52844 10.1876 7.51044 9.97024C7.49644 9.79558 7.47244 9.75024 7.30577 9.72891C7.18711 9.71358 7.06177 9.68424 6.93644 9.59558C6.54311 9.31758 6.34444 9.29158 6.17777 9.27224C6.07777 9.26091 5.98711 9.24891 5.88711 9.21091C5.56577 9.09024 5.43177 8.88158 5.37977 8.65491C5.18777 8.66158 4.98844 8.69624 4.79711 8.68958C4.75244 8.68758 3.96244 8.69758 3.88644 8.69491C3.83511 8.69291 3.78577 8.67091 3.73577 8.67558C3.62844 8.68158 3.53111 8.70024 3.45444 8.69758C3.33577 8.69291 3.24511 8.65158 3.17911 8.57224C2.92777 8.26691 3.19577 8.25024 2.78177 8.25024C2.49511 8.25091 2.16711 8.06158 2.03844 7.95558C1.96444 7.89491 1.93311 7.83558 1.92377 7.81091C1.90977 7.77224 1.90377 7.72624 1.91644 7.67158L1.91777 7.66691C1.93111 7.60624 1.93511 7.58691 1.88444 7.53358C1.56977 7.20358 1.63711 6.80358 1.82711 6.58491C1.86577 6.54024 1.91044 6.50224 1.95844 6.47224C1.92977 6.30691 1.93511 6.04958 2.16844 5.85091C2.63711 5.45091 2.95777 5.39424 3.18644 5.38624C3.24977 5.38424 3.30511 5.38624 3.35577 5.38691H3.35777C3.41377 5.38758 3.42511 5.38824 3.45111 5.33558C3.48244 5.27158 3.51044 5.18024 3.54111 5.05224C3.63044 4.67758 3.66844 4.45424 3.67311 4.31691C3.67577 4.23891 3.61844 4.23824 3.56511 4.18824C3.49844 4.12491 3.43044 4.02758 3.39711 3.92958C3.36511 3.83558 3.36377 3.74024 3.39444 3.65758C3.42244 3.58091 3.47911 3.50024 3.59177 3.44824C3.55911 3.42091 3.53577 3.39024 3.51911 3.35958C3.46777 3.26624 3.46711 3.15224 3.53977 3.04691C3.60444 2.95424 3.76577 2.84158 4.03577 2.87558C4.24177 2.90224 4.38377 2.82091 4.49244 2.79291C4.53911 2.78158 4.58311 2.77558 4.62511 2.77558L5.53244 2.76958C5.59177 2.76824 5.64644 2.77958 5.69777 2.80358C5.74644 2.82558 5.78377 2.79758 5.83511 2.78491C5.85577 2.77958 5.87577 2.77558 5.89444 2.77291L5.89377 2.77158C5.81177 2.66891 5.79977 2.54358 5.83711 2.40891C5.84577 2.37624 5.86111 2.32558 5.87311 2.28758C5.75711 2.18224 5.76377 2.07491 5.77244 2.03358C5.78711 1.96358 5.82977 1.88958 5.93644 1.85358C5.97311 1.84158 6.04311 1.83291 6.13244 1.83958C6.19111 1.84358 6.26511 1.85291 6.34044 1.86158H6.34177C6.44577 1.81358 6.57377 1.83624 6.68377 1.84891L6.68777 1.84958C6.72244 1.83358 6.75644 1.81424 6.79244 1.79691C6.93577 1.72958 7.09777 1.66891 7.35311 1.69491C7.37711 1.69691 7.38777 1.67691 7.40111 1.66358C7.43844 1.62491 7.47111 1.57958 7.50511 1.53891C7.60444 1.42424 7.71777 1.34558 7.86644 1.34491Z" fill="white"/>
</svg>
