<svg width="37" height="31" viewBox="0 0 37 31" fill="none" xmlns="http://www.w3.org/2000/svg">
<path fill-rule="evenodd" clip-rule="evenodd" d="M5.53713 15.5368C5.40021 15.5378 5.29623 15.5378 5.26525 15.5368H5.2583C5.20633 15.5338 5.13838 15.5268 5.07042 15.5168C4.90252 15.5308 4.74957 15.5458 4.62165 15.5408H4.61866C3.85811 15.5108 3.28246 15.2208 2.84072 14.7388C2.1931 14.5528 1.59146 14.2098 1.30463 13.9748C0.777943 13.5418 0.593008 13.0838 0.523049 12.8938L0.519084 12.8828C0.484105 12.7848 0.454133 12.6808 0.430147 12.5718C-0.248453 11.4518 -0.0435902 10.2448 0.488097 9.41077C0.593035 8.85577 0.87188 8.26176 1.47153 7.74976C1.92326 7.36476 2.32603 7.10779 2.68681 6.93579C2.51791 6.36979 2.54589 5.79878 2.72878 5.29578C2.73278 4.84178 2.87269 4.37279 3.18451 3.92279L3.18652 3.9198C3.51832 3.4458 4.26084 2.7268 5.57507 2.8028C5.64403 2.7808 5.72001 2.75675 5.76898 2.74475L5.77697 2.7428C5.98185 2.6928 6.17575 2.66677 6.35964 2.66077C6.57451 2.13977 6.98923 1.64476 7.78476 1.37976C7.98465 1.31276 8.36447 1.22477 8.85518 1.25977H8.85817C8.89515 1.26277 8.9341 1.26675 8.97608 1.27075C9.02705 1.26575 9.07806 1.26177 9.12803 1.25977C9.29593 1.19277 9.47379 1.1338 9.67068 1.0918C10.1344 0.716797 10.6731 0.516756 11.2977 0.512756L13.3106 0.499756C13.3705 0.499756 13.4315 0.501798 13.4944 0.505798L14.31 0.499756C14.3699 0.499756 14.4309 0.501798 14.4938 0.505798L15.3094 0.499756C15.3694 0.499756 15.4303 0.501798 15.4932 0.505798L16.3088 0.499756C16.3688 0.499756 16.4297 0.501798 16.4927 0.505798L17.3082 0.499756C17.3682 0.499756 17.4291 0.501798 17.4921 0.505798L18.3076 0.499756C18.4415 0.499756 18.5824 0.508799 18.7324 0.531799H18.7353C19.305 0.620799 19.7048 0.856803 20.0116 1.1358L20.0585 1.13477H20.0665C20.1205 1.13477 20.1735 1.13675 20.2275 1.14075L21.058 1.13477H21.0659C21.1199 1.13477 21.1729 1.13675 21.2269 1.14075L22.0574 1.13477H22.0654C22.1193 1.13477 22.1723 1.13675 22.2263 1.14075L23.0568 1.13477H23.0648C23.1187 1.13477 23.1717 1.13675 23.2257 1.14075L24.0562 1.13477H24.0642C24.4719 1.13577 24.8607 1.23379 25.2145 1.42279C25.6582 1.65779 26.3359 2.12377 26.5528 3.36377C26.8186 3.62177 27.0055 3.92478 27.1204 4.26178C27.4982 4.31978 27.9499 4.44376 28.4706 4.71576C28.5256 4.73076 28.6915 4.77578 28.7584 4.79578C29.1942 4.92078 29.504 5.1068 29.6919 5.2478C29.8358 5.2748 29.9757 5.31476 30.1116 5.36676C30.2086 5.37376 30.4125 5.38979 30.5434 5.39679C31.235 5.43979 31.9356 5.53381 32.3753 5.70081C33.0609 5.96181 33.4946 6.35579 34.1492 6.95679C34.2722 6.96979 34.4811 6.99479 34.573 7.01379C35.7373 7.25579 36.378 7.8408 36.6278 9.0318C36.7168 9.4518 36.8527 9.7368 36.9087 9.9848C37.0596 10.6478 37.0316 11.2417 36.7637 11.8907C36.4979 12.5327 36.227 13.4888 34.9108 14.4488C34.8978 14.4748 34.8689 14.5338 34.8689 14.5338C34.667 14.9628 34.4601 15.3088 34.2832 15.5148C34.2772 15.5208 34.2712 15.5278 34.2652 15.5348C34.2292 16.6738 34.0543 17.5328 33.8115 18.1618C33.8315 18.7078 33.7275 19.2928 33.2148 19.9338C33.1678 20.0378 33.1169 20.1428 33.0599 20.2458C33.009 20.6138 32.873 20.9998 32.5852 21.3788C32.4073 21.6148 32.1494 21.8868 31.7257 22.1088C31.6068 22.2368 31.4618 22.3648 31.278 22.4868C30.9731 22.6898 30.5004 22.9368 29.6319 22.9538C29.54 22.9558 29.455 22.9548 29.3771 22.9518C29.1582 23.1018 28.8894 23.2398 28.5506 23.3558C28.4816 23.3798 28.3667 23.4558 28.2537 23.5388C28.3956 24.4378 28.2317 25.2508 27.4082 26.0508C27.3792 26.1198 27.2224 26.4898 27.1414 26.6778C26.8366 27.3868 26.4478 28.0178 25.7942 28.5098C25.6972 28.8508 25.5174 29.2158 25.1446 29.6198C24.442 30.3808 23.7504 30.4838 23.2607 30.4868L21.2478 30.4998C21.1799 30.5008 21.113 30.4988 21.048 30.4948L20.2484 30.4998C20.1805 30.5008 20.1136 30.4988 20.0486 30.4948L19.249 30.4998C19.1811 30.5008 19.1142 30.4988 19.0492 30.4948L18.2496 30.4998C18.1817 30.5008 18.1147 30.4988 18.0498 30.4948L17.2502 30.4998C17.1822 30.5008 17.1153 30.4988 17.0504 30.4948L16.2508 30.4998C15.4902 30.5048 14.9226 30.2428 14.4239 29.6888L14.4229 29.6868C14.204 29.4428 13.9641 29.0557 13.8252 28.5547C13.4794 28.4187 13.1527 28.2358 12.8448 27.9228C12.0453 27.7318 11.5915 27.2238 11.3287 26.6648C11.0049 25.9758 11.0458 24.9878 11.5196 24.2318C11.7674 23.8368 12.3731 23.0688 12.547 22.8898L12.549 22.8878C12.603 22.8318 12.6569 22.7788 12.7109 22.7268C12.6769 22.6808 12.6439 22.6318 12.6099 22.5788C11.8134 22.3998 11.3047 21.9498 10.9969 21.4618C10.7471 21.0648 10.6021 20.6008 10.6201 20.0868C10.5901 19.9788 10.5412 19.8018 10.5152 19.6938C10.4193 19.2888 10.3823 18.8917 10.4013 18.5287C10.3023 18.4857 10.2113 18.4397 10.1294 18.3907L10.1274 18.3898C9.82362 18.2118 9.35485 17.8488 9.07801 17.1298C9.03304 17.0118 8.98608 16.8388 8.9421 16.6398C8.88214 16.6038 8.82218 16.5638 8.76222 16.5218C8.64329 16.4378 8.60034 16.3968 8.55537 16.3918C8.23955 16.3558 7.95467 16.3028 7.63885 16.1838C7.18012 16.0108 6.82038 15.7898 6.53855 15.5368H6.53654C6.39962 15.5378 6.29565 15.5378 6.26466 15.5368H6.25771C6.23472 15.5358 6.20871 15.5338 6.18073 15.5308C6.07979 15.5318 5.96988 15.5328 5.86195 15.5338C5.775 15.5398 5.69402 15.5438 5.62106 15.5408H5.61807C5.59109 15.5398 5.56411 15.5388 5.53713 15.5368Z" fill="black"/>
<path d="M11.2999 2.51276L13.3139 2.49976C13.3479 2.49976 13.3839 2.50176 13.4219 2.50776C13.5359 2.52576 13.6159 2.57176 13.6749 2.62876C13.7569 2.70576 13.8069 2.81176 13.8199 2.94376C13.8249 2.99976 13.8189 3.05476 13.8189 3.13476C13.9459 3.18076 14.0199 3.26276 14.0649 3.35576C14.1159 3.45876 14.1289 3.60776 14.0729 3.78976C14.0399 3.89876 13.9759 4.03676 13.9269 4.18976C14.0869 4.07876 14.2979 4.06276 14.4869 4.06076C14.6089 4.06076 15.7469 4.05176 15.8729 4.05176C15.9549 4.05176 16.0359 4.05676 16.1069 4.06476C16.2019 3.89776 16.4639 3.45676 16.6929 3.28076C16.8119 3.18876 16.9319 3.14876 17.0429 3.14776L19.0589 3.13476C19.1349 3.13476 19.2059 3.15276 19.2719 3.18776C19.3859 3.24776 19.5259 3.38976 19.5809 3.71076C19.6449 4.08276 19.7099 4.33076 19.7879 4.49576C19.8259 4.57576 19.8539 4.62676 19.9019 4.64676C20.1549 4.75076 20.2639 4.94876 20.2629 5.18476C20.2619 5.40376 20.1289 5.68876 19.8829 5.91076C19.9319 5.91576 19.9779 5.92376 20.0219 5.93376C20.0669 5.93276 20.1189 5.92776 20.1799 5.91876C20.6349 5.84476 20.9469 5.99976 21.1009 6.18576C21.1109 6.19776 21.1199 6.20976 21.1289 6.22176C21.1689 6.21376 21.2139 6.20976 21.2659 6.20976C21.5379 6.21176 21.9859 6.18776 22.5799 6.50676C22.7839 6.61676 23.0399 6.66876 23.2039 6.71676C23.3379 6.75576 23.4359 6.80276 23.4869 6.84276C23.5589 6.90076 23.6339 6.96376 23.6979 7.08476C23.7359 7.15576 23.7349 7.22776 23.8079 7.26276C23.8459 7.28076 23.8949 7.31076 23.9339 7.29076C24.1199 7.19376 24.3009 7.18576 24.4549 7.25876C24.6639 7.35776 25.0399 7.36976 25.4209 7.39276C25.8899 7.42176 26.3679 7.45676 26.6659 7.56976C27.1389 7.74976 27.4029 8.06576 27.8649 8.48876C28.4119 8.99076 28.9009 8.91676 29.1699 8.97176C29.4489 9.02976 29.6149 9.15676 29.6749 9.44276C29.7659 9.87776 29.9049 10.1718 29.9629 10.4278C30.0179 10.6708 30.0179 10.8888 29.9199 11.1268C29.7369 11.5668 29.5839 12.2538 28.6229 12.9118C28.3409 13.1048 28.1909 13.4108 28.0719 13.6618L28.0629 13.6808C27.9569 13.9068 27.8659 14.0978 27.7729 14.2058C27.6199 14.3838 27.4569 14.4058 27.2959 14.3658C27.2809 14.5188 27.2729 14.7338 27.2749 15.0288C27.2819 16.4268 27.1099 17.3068 26.7789 17.7818C26.7449 17.8308 26.7909 17.9588 26.7969 18.0118C26.8259 18.2588 26.8189 18.5268 26.5169 18.8388C26.4689 18.8888 26.4449 18.9958 26.3979 19.1018C26.3159 19.2878 26.2089 19.4858 26.0489 19.6378C26.0669 19.7178 26.0859 19.7918 26.0869 19.8628C26.0869 19.9588 26.0719 20.0668 25.9939 20.1698C25.9199 20.2678 25.7859 20.3628 25.5409 20.4348C25.3679 20.4858 25.4099 20.5338 25.3179 20.6718C25.2379 20.7928 25.0969 20.9438 24.5919 20.9538C24.4429 20.9568 24.3239 20.9488 24.2269 20.9328C24.1479 20.9468 24.0549 20.9558 23.9439 20.9578C23.7349 20.9618 23.5839 20.8518 23.4779 21.0288C23.3839 21.1848 23.2359 21.3498 22.9029 21.4638C22.3989 21.6358 21.4499 22.2758 21.1879 22.8018C21.0989 22.9808 21.1139 23.1448 21.1459 23.2948C21.1769 23.4398 21.2229 23.5768 21.2509 23.7078C21.3219 24.0408 21.3029 24.3418 20.9959 24.6328C20.6189 24.9898 20.4869 25.4598 20.3039 25.8868C20.0679 26.4338 19.7699 26.9228 19.0799 27.1918C18.9669 27.2298 18.9239 27.6508 18.9049 27.7798C18.8839 27.9248 18.8399 28.0808 18.6719 28.2628C18.5089 28.4398 18.3579 28.4868 18.2439 28.4868L16.2299 28.4998C16.0929 28.5008 15.9919 28.4508 15.9019 28.3508C15.8349 28.2758 15.7729 28.1458 15.7339 27.9868C15.7009 27.8508 15.7209 27.7378 15.7659 27.6348C15.8229 27.5038 15.7989 27.4828 15.6779 27.3838C15.4189 27.1698 15.1889 26.9288 14.9929 26.8418C14.8489 26.7768 14.7219 26.7578 14.6069 26.7158C14.4259 26.6498 14.2609 26.5528 14.1029 26.3218C13.8379 25.9318 13.5339 26.0058 13.4339 25.9968C13.0269 25.9638 13.0329 25.5648 13.2029 25.2948C13.3899 24.9978 13.8409 24.4178 13.9699 24.2848C14.4989 23.7418 14.9339 23.5358 15.1989 23.4158C15.3839 23.3308 15.4919 23.2048 15.4999 22.9998C15.5079 22.7958 15.3549 22.7708 15.2289 22.7518C15.1209 22.7368 15.0299 22.7028 14.9669 22.6568C14.9049 22.6108 14.8429 22.5478 14.8119 22.4538C14.7829 22.3648 14.7809 22.2448 14.8459 22.0798C14.9179 21.8948 14.9479 21.7748 14.9369 21.6878C14.7269 21.7868 14.5099 21.7598 14.3469 21.5888C14.2839 21.5228 14.2129 21.3918 14.1579 21.2248C14.0999 21.0488 14.0509 20.8208 14.0099 20.6538C13.7269 20.6538 13.4229 20.6818 13.1449 20.6458C12.9159 20.6148 12.7589 20.5238 12.6779 20.3948C12.6209 20.3058 12.5989 20.1968 12.6149 20.0718C12.6449 19.8368 12.5209 19.5268 12.4499 19.2318C12.3829 18.9468 12.3529 18.6718 12.4129 18.4488C12.4799 18.1968 12.5799 18.0178 12.6539 17.8628C12.7159 17.7308 12.7029 17.6658 12.6139 17.5478C12.4969 17.3918 12.4189 17.3348 12.3619 17.2858C11.8019 16.8048 12.1899 16.7838 11.4129 16.7428C11.2959 16.7368 11.1999 16.7068 11.1299 16.6658C11.0699 16.6308 10.9869 16.5528 10.9329 16.4118C10.8579 16.2178 10.7929 15.7768 10.7659 15.4508C10.7449 15.1888 10.7089 15.1208 10.4589 15.0888C10.2809 15.0658 10.0929 15.0218 9.9049 14.8888C9.3149 14.4718 9.0169 14.4328 8.7669 14.4038C8.6169 14.3868 8.4809 14.3688 8.3309 14.3118C7.8489 14.1308 7.6479 13.8178 7.5699 13.4778C7.2819 13.4878 6.9829 13.5398 6.6959 13.5298C6.6289 13.5268 5.4439 13.5418 5.3299 13.5378C5.2529 13.5348 5.1789 13.5018 5.1039 13.5088C4.9429 13.5178 4.7969 13.5458 4.6819 13.5418C4.5039 13.5348 4.3679 13.4728 4.2689 13.3538C3.8919 12.8958 4.2939 12.8708 3.6729 12.8708C3.2429 12.8718 2.7509 12.5878 2.5579 12.4288C2.4469 12.3378 2.3999 12.2488 2.3859 12.2118C2.3649 12.1538 2.3559 12.0848 2.3749 12.0028L2.3769 11.9958C2.3969 11.9048 2.4029 11.8758 2.3269 11.7958C1.8549 11.3008 1.9559 10.7008 2.2409 10.3728C2.2989 10.3058 2.3659 10.2488 2.4379 10.2038C2.3949 9.95576 2.4029 9.56976 2.7529 9.27176C3.4559 8.67176 3.9369 8.58676 4.2799 8.57476C4.3749 8.57176 4.4579 8.57476 4.5339 8.57576H4.5369C4.6209 8.57676 4.6379 8.57776 4.6769 8.49876C4.7239 8.40276 4.7659 8.26576 4.8119 8.07376C4.9459 7.51176 5.0029 7.17676 5.0099 6.97076C5.0139 6.85376 4.9279 6.85276 4.8479 6.77776C4.7479 6.68276 4.6459 6.53676 4.5959 6.38976C4.5479 6.24876 4.5459 6.10576 4.5919 5.98176C4.6339 5.86676 4.7189 5.74576 4.8879 5.66776C4.8389 5.62676 4.8039 5.58076 4.7789 5.53476C4.7019 5.39476 4.7009 5.22376 4.8099 5.06576C4.9069 4.92676 5.1489 4.75776 5.5539 4.80876C5.8629 4.84876 6.0759 4.72676 6.2389 4.68476C6.3089 4.66776 6.3749 4.65876 6.4379 4.65876L7.7989 4.64976C7.8879 4.64776 7.9699 4.66476 8.0469 4.70076C8.1199 4.73376 8.1759 4.69176 8.2529 4.67276C8.2839 4.66476 8.3139 4.65876 8.3419 4.65476L8.3409 4.65276C8.2179 4.49876 8.1999 4.31076 8.2559 4.10876C8.2689 4.05976 8.2919 3.98376 8.3099 3.92676C8.1359 3.76876 8.1459 3.60776 8.1589 3.54576C8.1809 3.44076 8.2449 3.32976 8.4049 3.27576C8.4599 3.25776 8.5649 3.24476 8.6989 3.25476C8.7869 3.26076 8.8979 3.27476 9.0109 3.28776H9.0129C9.1689 3.21576 9.3609 3.24976 9.5259 3.26876L9.5319 3.26976C9.5839 3.24576 9.6349 3.21676 9.6889 3.19076C9.9039 3.08976 10.1469 2.99876 10.5299 3.03776C10.5659 3.04076 10.5819 3.01076 10.6019 2.99076C10.6579 2.93276 10.7069 2.86476 10.7579 2.80376C10.9069 2.63176 11.0769 2.51376 11.2999 2.51276Z" fill="white"/>
</svg>
