<svg width="140" height="86" viewBox="0 0 140 86" fill="none" xmlns="http://www.w3.org/2000/svg">
<path fill-rule="evenodd" clip-rule="evenodd" d="M15.1292 42.0416H1.66895V82.436H4.55328V69.452H25.7051V82.436H28.5894V48.774H15.1292V42.0416ZM10.322 46.8504H6.47617V50.6975H10.322V46.8504ZM8.39906 47.8122H7.43762V49.7357H8.39906V47.8122ZM18.0135 60.7961H4.55328V64.6432H18.0135V60.7961ZM6.47617 61.7579H5.51473V63.6814H6.47617V61.7579ZM18.975 60.7961H25.7051V64.6432H18.975V60.7961ZM19.9364 61.7579H20.8979V63.6814H19.9364V61.7579Z" fill="#9947EB"/>
<path fill-rule="evenodd" clip-rule="evenodd" d="M55.5173 55.4948H28.584V82.4187H39.1649V72.3222H44.4554V82.4187H55.5173V55.4948ZM32.4316 60.7834H37.7221V66.0721H32.4316V60.7834ZM35.7983 61.745H36.7602V65.1105H35.7983V61.745ZM51.1887 60.7834H45.8982V66.0721H51.1887V60.7834ZM50.2268 61.745H49.2649V65.1105H50.2268V61.745Z" fill="#EE7A63"/>
<path fill-rule="evenodd" clip-rule="evenodd" d="M15.123 21.8386H55.5171V24.5392H35.3201V35.3H55.5171V42.0357H15.123V21.8386ZM28.5877 27.6092H21.8554V31.4563H28.5877V27.6092ZM23.7789 28.571H22.8172V30.4945H23.7789V28.571Z" fill="#E84F30"/>
<path d="M55.4916 35.3003V24.5395H53.3125V35.3003H55.4916Z" fill="#EE7A63"/>
<path fill-rule="evenodd" clip-rule="evenodd" d="M69.3464 42.0416H67.4229V82.436H78.0025V74.9822C78.0025 73.5213 79.1855 72.3374 80.6474 72.3374C82.1093 72.3374 83.2923 73.5213 83.2923 74.9822V82.436H94.3528V55.5064H80.8878V53.5828H78.9643V51.6593H77.0407V49.7357H75.1171V47.8122H73.1936V45.8886H71.27V43.9651H69.3464V42.0416ZM72.7127 60.7961H76.5598V65.605H77.5216V66.5667H71.7509V65.605H72.7127V60.7961ZM73.6745 61.7579H74.6362V64.6432H73.6745V61.7579ZM90.0248 65.605H89.063V60.7961H85.2159V65.605H84.2541V66.5667H90.0248V65.605ZM87.1394 61.7579H86.1777V64.6432H87.1394V61.7579Z" fill="#E8BA30"/>
<path fill-rule="evenodd" clip-rule="evenodd" d="M127.877 15.0869H87.5078V17.0109H127.877V15.0869ZM127.877 28.5553H87.5078V55.4921H106.731V46.8338C106.731 46.0368 107.375 45.3908 108.173 45.3908H111.056C111.854 45.3908 112.498 46.0368 112.498 46.8338V82.4289H127.877V28.5553ZM92.3136 32.4034H95.1971V34.8085H92.3136V32.4034ZM95.1971 35.7705H92.3136V38.1756H95.1971V35.7705ZM96.1583 35.7705H99.0417V38.1756H96.1583V35.7705ZM99.0417 32.4034H96.1583V34.8085H99.0417V32.4034ZM116.343 32.4034H119.226V34.8085H116.343V32.4034ZM119.226 35.7705H116.343V38.1756H119.226V35.7705ZM100.003 35.7705H102.886V38.1756H100.003V35.7705ZM102.886 32.4034H100.003V34.8085H102.886V32.4034ZM120.187 32.4034H123.071V34.8085H120.187V32.4034ZM123.071 35.7705H120.187V38.1756H123.071V35.7705Z" fill="#0E7943"/>
<path fill-rule="evenodd" clip-rule="evenodd" d="M87.5078 28.5547V17.0104H88.9495V28.5547H87.5078Z" fill="#4DB882"/>
<path fill-rule="evenodd" clip-rule="evenodd" d="M101.926 17.0104V28.5547H100.484V17.0104H101.926Z" fill="#4DB882"/>
<path fill-rule="evenodd" clip-rule="evenodd" d="M114.9 17.0104V28.5547H113.458V17.0104H114.9Z" fill="#4DB882"/>
<path fill-rule="evenodd" clip-rule="evenodd" d="M126.435 17.0114V28.5557H127.876V15.0873H127.876V17.0114H126.435Z" fill="#4DB882"/>
<path fill-rule="evenodd" clip-rule="evenodd" d="M67.4229 1.63116H94.3528V15.0777H87.5097V19.9048H85.2159V22.7901H84.735V23.7519H87.5097V33.3696H85.2159V36.2549H84.735V37.2167H87.5097V42.0256H67.4229V1.63116ZM72.7127 6.44002H76.5598V9.32533H77.0407V10.2871H72.2318V9.32533H72.7127V6.44002ZM76.5598 19.9048H72.7127V22.7901H72.2318V23.7519H77.0407V22.7901H76.5598V19.9048ZM76.5598 33.3696H72.7127V36.2549H72.2318V37.2167H77.0407V36.2549H76.5598V33.3696ZM89.063 6.44002H85.2159V9.32533H84.735V10.2871H89.5439V9.32533H89.063V6.44002Z" fill="#C9731D"/>
<path fill-rule="evenodd" clip-rule="evenodd" d="M67.4332 42.0416H40.5078V55.5123H67.4332V42.0416ZM49.1624 46.3714H45.3159V50.2202H49.1624V46.3714ZM47.2392 47.3336H46.2775V49.258H47.2392V47.3336ZM58.7786 46.3714H62.6251V48.2958H58.7786V46.3714Z" fill="#FA9938"/>
<path fill-rule="evenodd" clip-rule="evenodd" d="M95.9585 0H65.7971V20.205H58.1551V20.2048H13.4631V40.4077H0V85.1061H31.2142V85.1051H56.9316V85.1052H66.351V85.0978H95.4581V85.148H130.041V85.1486H140V13.497H130.599H130.041H105.401V0.0459621H95.9585V0ZM67.4231 1.63034H94.3531V15.0769H87.51V15.0867H88.9497H100.484H101.926H113.459H114.901L126.435 15.0867H127.877V28.555H126.435V17.0108H114.901V28.5551L127.877 28.5551V82.4288H112.498V46.8337C112.498 46.0366 111.854 45.3906 111.056 45.3906H108.173C107.375 45.3906 106.731 46.0366 106.731 46.8337V55.4919H87.5079V42.0247H67.4231V1.63034ZM101.926 28.5551H113.459V17.0108H101.926V28.5551ZM88.9497 28.5551H100.484V17.0108H88.9497V28.5551ZM85.2161 19.904H87.5079V23.7511H84.7352V22.7893H85.2161V19.904ZM85.2161 33.3688H87.5079V37.2159H84.7352V36.2541H85.2161V33.3688ZM72.7129 6.43919H76.56V9.32451H77.0409V10.2863H72.232V9.32451H72.7129V6.43919ZM76.56 19.904H72.7129V22.7893H72.232V23.7511H77.0409V22.7893H76.56V19.904ZM76.56 33.3688H72.7129V36.2541H72.232V37.2159H77.0409V36.2541H76.56V33.3688ZM89.0632 6.43919H85.2161V9.32451H84.7352V10.2863H89.5441V9.32451H89.0632V6.43919ZM55.5171 21.8379H15.123V42.0351H55.5171V35.2993H55.4926V24.5385H55.5171V21.8379ZM53.3136 24.5385V35.2993H35.32V24.5385H53.3136ZM21.8553 27.6085H28.5877V31.4556H21.8553V27.6085ZM22.8171 28.5703H23.7789V30.4938H22.8171V28.5703ZM15.1304 42.0414H1.67019V82.4358H4.55453V69.4519H25.7063V82.4358H28.5907V82.4187H39.1668V72.3223H44.4573V82.4187H55.5192V55.5122H67.4231V82.4358H78.0027V74.9821C78.0027 73.5212 79.1857 72.3372 80.6476 72.3372C82.1095 72.3372 83.2925 73.5212 83.2925 74.9821V82.4358H94.3531V55.5062H80.8881V53.5827H78.9645V51.6592H77.0409V49.7356H75.1174V47.8121H73.1938V45.8885H71.2702V43.965H69.3467V42.0414H67.4339H67.4231H40.5085V55.4949H28.5907V48.7738H15.1304V42.0414ZM10.3232 46.8502H6.47742V50.6973H10.3232V46.8502ZM8.40031 47.812H7.43886V49.7356H8.40031V47.812ZM18.0148 60.7959H4.55453V64.643H18.0148V60.7959ZM6.47742 61.7577H5.51597V63.6812H6.47742V61.7577ZM18.9762 60.7959H25.7063V64.643H18.9762V60.7959ZM19.9377 61.7577H20.8991V63.6812H19.9377V61.7577ZM32.4335 60.7835H37.724V66.0721H32.4335V60.7835ZM35.8002 61.745H36.7621V65.1105H35.8002V61.745ZM51.1906 60.7835H45.9002V66.0721H51.1906V60.7835ZM50.2287 61.745H49.2668V65.1105H50.2287V61.745ZM72.7129 60.796H76.56V65.6048H77.5218V66.5666H71.7511V65.6048H72.7129V60.796ZM73.6747 61.7578H74.6365V64.6431H73.6747V61.7578ZM90.025 66.5666V65.6048H89.0632V60.796H85.2161V65.6048H84.2543V66.5666H90.025ZM87.1397 61.7578H86.1779V64.6431H87.1397V61.7578ZM95.1972 32.4032H92.3137V34.8083H95.1972V32.4032ZM92.3137 35.7703H95.1972V38.1754H92.3137V35.7703ZM99.0419 35.7703H96.1584V38.1754H99.0419V35.7703ZM96.1584 32.4032H99.0419V34.8083H96.1584V32.4032ZM119.226 32.4032H116.343V34.8083H119.226V32.4032ZM116.343 35.7703H119.226V38.1754H116.343V35.7703ZM102.887 38.1754V35.7703H100.003V38.1754H102.887ZM100.003 34.8083V32.4032H102.887V34.8083H100.003ZM123.071 32.4032H120.187V34.8083H123.071V32.4032ZM120.187 35.7703H123.071V38.1754H120.187V35.7703ZM45.3166 46.3713H49.1631V50.2201H45.3166V46.3713ZM46.2782 47.3335H47.2398V49.2579H46.2782V47.3335ZM62.6258 46.3713H58.7793V48.2957H62.6258V46.3713Z" fill="black"/>
</svg>
