<svg width="35" height="31" viewBox="0 0 35 31" fill="none" xmlns="http://www.w3.org/2000/svg">
<path fill-rule="evenodd" clip-rule="evenodd" d="M26.6855 0.507931C28.3765 0.596431 29.7345 1.90643 29.9655 3.58043C32.8165 4.04343 35 6.52293 35 9.50293V24.5029C35 27.8114 32.3085 30.5029 29 30.5029H6C2.692 30.5029 0 27.8114 0 24.5029V9.50293C0 6.52643 2.1785 4.04943 5.025 3.58193C5.1175 2.80643 5.4645 2.08893 6.0255 1.52843C6.6865 0.866931 7.5655 0.50293 8.5 0.50293C8.5615 0.50293 13.6235 0.504431 13.6855 0.507931C15.3505 0.594931 16.6925 1.86593 16.954 3.50293H18.0355C18.1415 2.75743 18.4835 2.06993 19.0255 1.52843C19.686 0.866931 20.5655 0.50293 21.5 0.50293C21.5615 0.50293 26.6235 0.504431 26.6855 0.507931ZM4.49879 11.503H25.4988C25.7748 11.503 25.9988 11.279 25.9988 11.003V9.50303C25.9988 8.39853 25.1033 7.50303 23.9988 7.50303H5.99879C4.89429 7.50303 3.99879 8.39853 3.99879 9.50303V11.003C3.99879 11.279 4.22279 11.503 4.49879 11.503ZM8.20379 16.503C8.61829 16.503 8.95379 16.167 8.95379 15.753V14.253C8.95379 13.8385 8.61829 13.503 8.20379 13.503H6.70379C6.28979 13.503 5.95379 13.8385 5.95379 14.253V15.753C5.95379 16.167 6.28979 16.503 6.70379 16.503H8.20379ZM22.9988 5.50303H23.9988C26.2078 5.50303 27.9988 7.29402 27.9988 9.50303V24.503C27.9988 26.712 26.2078 28.503 23.9988 28.503H5.99879C3.78979 28.503 1.99879 26.712 1.99879 24.503V9.50303C1.99879 7.29402 3.78979 5.50303 5.99879 5.50303H6.99879V4.00303C6.99879 3.14803 7.71429 2.46002 8.57979 2.50502C9.39079 2.54752 9.99879 3.27552 9.99879 4.08752V5.50303H19.9988V4.00303C19.9988 3.14803 20.7143 2.46002 21.5793 2.50502C22.3908 2.54752 22.9988 3.27552 22.9988 4.08752V5.50303Z" fill="black"/>
</svg>
