<svg width="35" height="30" viewBox="0 0 35 30" fill="none" xmlns="http://www.w3.org/2000/svg">
<path d="M29.9655 3.0775C29.7345 1.403 28.377 0.0930013 26.6855 0.00450134C26.6235 0.00150134 21.5615 0 21.5005 0C20.566 0 19.6865 0.363502 19.0255 1.025C18.4835 1.567 18.1415 2.2545 18.0355 3H16.954C16.6925 1.3625 15.3505 0.0920013 13.6855 0.00450134C13.6235 0.00150134 8.5615 0 8.5 0C7.5655 0 6.6865 0.363502 6.0255 1.025C5.4645 1.586 5.1175 2.3035 5.025 3.079C2.179 3.546 0 6.0235 0 9V24C0 27.3085 2.692 30 6 30H29C32.3085 30 35 27.3085 35 24V9C35 6.02 32.8165 3.5405 29.9655 3.0775Z" fill="black"/>
<path d="M25.5 11.0001H4.5C4.224 11.0001 4 10.7761 4 10.5001V9.00013C4 7.89563 4.8955 7.00013 6 7.00013H24C25.1045 7.00013 26 7.89563 26 9.00013V10.5001C26 10.7761 25.776 11.0001 25.5 11.0001ZM24 15.2501C24 15.6641 23.6645 16.0001 23.25 16.0001H21.75C21.336 16.0001 21 15.6641 21 15.2501V13.7501C21 13.3361 21.336 13.0001 21.75 13.0001H23.25C23.6645 13.0001 24 13.3361 24 13.7501V15.2501ZM24 20.2501C24 20.6641 23.6645 21.0001 23.25 21.0001H21.75C21.336 21.0001 21 20.6641 21 20.2501V18.7501C21 18.3361 21.336 18.0001 21.75 18.0001H23.25C23.6645 18.0001 24 18.3361 24 18.7501V20.2501ZM24 25.2501C24 25.6641 23.6645 26.0001 23.25 26.0001H21.75C21.336 26.0001 21 25.6641 21 25.2501V23.7501C21 23.3361 21.336 23.0001 21.75 23.0001H23.25C23.6645 23.0001 24 23.3361 24 23.7501V25.2501ZM19 15.2501C19 15.6641 18.6645 16.0001 18.25 16.0001H16.75C16.336 16.0001 16 15.6641 16 15.2501V13.7501C16 13.3361 16.336 13.0001 16.75 13.0001H18.25C18.6645 13.0001 19 13.3361 19 13.7501V15.2501ZM19 20.2501C19 20.6641 18.6645 21.0001 18.25 21.0001H16.75C16.336 21.0001 16 20.6641 16 20.2501V18.7501C16 18.3361 16.336 18.0001 16.75 18.0001H18.25C18.6645 18.0001 19 18.3361 19 18.7501V20.2501ZM19 25.2501C19 25.6641 18.6645 26.0001 18.25 26.0001H16.75C16.336 26.0001 16 25.6641 16 25.2501V23.7501C16 23.3361 16.336 23.0001 16.75 23.0001H18.25C18.6645 23.0001 19 23.3361 19 23.7501V25.2501ZM14 15.2501C14 15.6641 13.6645 16.0001 13.25 16.0001H11.75C11.336 16.0001 11 15.6641 11 15.2501V13.7501C11 13.3361 11.336 13.0001 11.75 13.0001H13.25C13.6645 13.0001 14 13.3361 14 13.7501V15.2501ZM14 20.2501C14 20.6641 13.6645 21.0001 13.25 21.0001H11.75C11.336 21.0001 11 20.6641 11 20.2501V18.7501C11 18.3361 11.336 18.0001 11.75 18.0001H13.25C13.6645 18.0001 14 18.3361 14 18.7501V20.2501ZM14 25.2501C14 25.6641 13.6645 26.0001 13.25 26.0001H11.75C11.336 26.0001 11 25.6641 11 25.2501V23.7501C11 23.3361 11.336 23.0001 11.75 23.0001H13.25C13.6645 23.0001 14 23.3361 14 23.7501V25.2501ZM8.9555 15.2501C8.9555 15.6641 8.6195 16.0001 8.2055 16.0001H6.7055C6.291 16.0001 5.9555 15.6641 5.9555 15.2501V13.7501C5.9555 13.3361 6.291 13.0001 6.7055 13.0001H8.2055C8.6195 13.0001 8.9555 13.3361 8.9555 13.7501V15.2501ZM8.9555 20.2501C8.9555 20.6641 8.6195 21.0001 8.2055 21.0001H6.7055C6.291 21.0001 5.9555 20.6641 5.9555 20.2501V18.7501C5.9555 18.3361 6.291 18.0001 6.7055 18.0001H8.2055C8.6195 18.0001 8.9555 18.3361 8.9555 18.7501V20.2501ZM8.9555 25.2501C8.9555 25.6641 8.6195 26.0001 8.2055 26.0001H6.7055C6.291 26.0001 5.9555 25.6641 5.9555 25.2501V23.7501C5.9555 23.3361 6.291 23.0001 6.7055 23.0001H8.2055C8.6195 23.0001 8.9555 23.3361 8.9555 23.7501V25.2501ZM24 5.00013H23V3.58513C23 2.77263 22.392 2.04463 21.581 2.00213C20.7155 1.95663 20 2.64513 20 3.50013V5.00013H10V3.58513C10 2.77263 9.392 2.04463 8.581 2.00213C7.716 1.95663 7 2.64513 7 3.50013V5.00013H6C3.791 5.00013 2 6.79113 2 9.00013V24.0001C2 26.2091 3.791 28.0001 6 28.0001H24C26.209 28.0001 28 26.2091 28 24.0001V9.00013C28 6.79113 26.209 5.00013 24 5.00013Z" fill="white"/>
</svg>
