<svg width="35" height="30" viewBox="0 0 35 30" fill="none" xmlns="http://www.w3.org/2000/svg">
<path fill-rule="evenodd" clip-rule="evenodd" d="M26.6855 0.00547791C28.3765 0.0944779 29.7345 1.40398 29.9655 3.07848C32.8165 3.54148 35 6.02098 35 9.00098V24.001C35 27.309 32.3085 30.001 29 30.001H6C2.692 30.001 0 27.309 0 24.001V9.00098C0 6.02448 2.1785 3.54698 5.025 3.07998C5.1175 2.30448 5.4645 1.58698 6.0255 1.02598C6.6865 0.364978 7.5655 0.000976562 8.5 0.000976562C8.5615 0.000976562 13.6235 0.00247791 13.6855 0.00547791C15.3505 0.0929779 16.6925 1.36398 16.954 3.00098H18.0355C18.1415 2.25548 18.4835 1.56798 19.0255 1.02598C19.686 0.364978 20.5655 0.000976562 21.5 0.000976562C21.5615 0.000976562 26.6235 0.00247791 26.6855 0.00547791ZM4.49879 11.0006H25.4988C25.7748 11.0006 25.9988 10.7766 25.9988 10.5006V9.00058C25.9988 7.89608 25.1033 7.00058 23.9988 7.00058H5.99879C4.89429 7.00058 3.99879 7.89608 3.99879 9.00058V10.5006C3.99879 10.7766 4.22279 11.0006 4.49879 11.0006ZM23.2488 16.0006C23.6633 16.0006 23.9988 15.6651 23.9988 15.2506V13.7506C23.9988 13.3361 23.6633 13.0006 23.2488 13.0006H21.7488C21.3343 13.0006 20.9988 13.3361 20.9988 13.7506V15.2506C20.9988 15.6651 21.3343 16.0006 21.7488 16.0006H23.2488ZM23.2488 21.0006C23.6633 21.0006 23.9988 20.6651 23.9988 20.2506V18.7506C23.9988 18.3361 23.6633 18.0006 23.2488 18.0006H21.7488C21.3343 18.0006 20.9988 18.3361 20.9988 18.7506V20.2506C20.9988 20.6651 21.3343 21.0006 21.7488 21.0006H23.2488ZM13.2488 21.0006C13.6633 21.0006 13.9988 20.6651 13.9988 20.2506V18.7506C13.9988 18.3361 13.6633 18.0006 13.2488 18.0006H11.7488C11.3343 18.0006 10.9988 18.3361 10.9988 18.7506V20.2506C10.9988 20.6651 11.3343 21.0006 11.7488 21.0006H13.2488ZM13.2488 26.0006C13.6633 26.0006 13.9988 25.6651 13.9988 25.2506V23.7506C13.9988 23.3361 13.6633 23.0006 13.2488 23.0006H11.7488C11.3343 23.0006 10.9988 23.3361 10.9988 23.7506V25.2506C10.9988 25.6651 11.3343 26.0006 11.7488 26.0006H13.2488ZM8.20379 26.0006C8.61829 26.0006 8.95379 25.6651 8.95379 25.2506V23.7506C8.95379 23.3361 8.61829 23.0006 8.20379 23.0006H6.70379C6.28979 23.0006 5.95379 23.3361 5.95379 23.7506V25.2506C5.95379 25.6651 6.28979 26.0006 6.70379 26.0006H8.20379ZM22.9988 5.00058H23.9988C26.2078 5.00058 27.9988 6.79158 27.9988 9.00058V24.0006C27.9988 26.2096 26.2078 28.0006 23.9988 28.0006H5.99879C3.78979 28.0006 1.99879 26.2096 1.99879 24.0006V9.00058C1.99879 6.79158 3.78979 5.00058 5.99879 5.00058H6.99879V3.50058C6.99879 2.64558 7.71429 1.95758 8.57979 2.00258C9.39079 2.04508 9.99879 2.77308 9.99879 3.58558V5.00058H19.9988V3.50058C19.9988 2.64558 20.7143 1.95758 21.5793 2.00258C22.3908 2.04508 22.9988 2.77308 22.9988 3.58558V5.00058Z" fill="black"/>
</svg>
