<svg width="55" height="31" viewBox="0 0 55 31" fill="none" xmlns="http://www.w3.org/2000/svg">
<path d="M39.9655 3.07897C39.7345 1.40447 38.3765 0.0949662 36.6855 0.00596619C36.6235 0.00296619 31.5615 0.00146484 31.5 0.00146484C30.5655 0.00146484 29.686 0.365466 29.0255 1.02647C28.4835 1.56847 28.1415 2.25596 28.0355 3.00146H26.954C26.6925 1.36446 25.3505 0.0934662 23.6855 0.00596619C23.6235 0.00296619 18.5615 0.00146484 18.5 0.00146484C17.5655 0.00146484 16.6865 0.365466 16.0255 1.02647C15.4645 1.58747 15.1175 2.30497 15.025 3.08047C12.1785 3.54747 10 6.02496 10 9.00146V24.0015C10 27.3095 12.692 30.0015 16 30.0015H39C42.3085 30.0015 45 27.3095 45 24.0015V9.00146C45 6.02146 42.8165 3.54197 39.9655 3.07897Z" fill="black"/>
<path d="M35.5 11.0016H14.5C14.224 11.0016 14 10.7776 14 10.5016V9.00155C14 7.89705 14.8955 7.00155 16 7.00155H34C35.1045 7.00155 36 7.89705 36 9.00155V10.5016C36 10.7776 35.776 11.0016 35.5 11.0016ZM34 15.2516C34 15.6661 33.6645 16.0016 33.25 16.0016H31.75C31.3355 16.0016 31 15.6661 31 15.2516V13.7516C31 13.3371 31.3355 13.0016 31.75 13.0016H33.25C33.6645 13.0016 34 13.3371 34 13.7516V15.2516ZM34 20.2516C34 20.6661 33.6645 21.0016 33.25 21.0016H31.75C31.3355 21.0016 31 20.6661 31 20.2516V18.7516C31 18.3371 31.3355 18.0016 31.75 18.0016H33.25C33.6645 18.0016 34 18.3371 34 18.7516V20.2516ZM24 20.2516C24 20.6661 23.6645 21.0016 23.25 21.0016H21.75C21.3355 21.0016 21 20.6661 21 20.2516V18.7516C21 18.3371 21.3355 18.0016 21.75 18.0016H23.25C23.6645 18.0016 24 18.3371 24 18.7516V20.2516ZM24 25.2516C24 25.6661 23.6645 26.0016 23.25 26.0016H21.75C21.3355 26.0016 21 25.6661 21 25.2516V23.7516C21 23.3371 21.3355 23.0016 21.75 23.0016H23.25C23.6645 23.0016 24 23.3371 24 23.7516V25.2516ZM18.955 25.2516C18.955 25.6661 18.6195 26.0016 18.205 26.0016H16.705C16.291 26.0016 15.955 25.6661 15.955 25.2516V23.7516C15.955 23.3371 16.291 23.0016 16.705 23.0016H18.205C18.6195 23.0016 18.955 23.3371 18.955 23.7516V25.2516ZM34 5.00155H33V3.58655C33 2.77405 32.392 2.04605 31.5805 2.00355C30.7155 1.95855 30 2.64655 30 3.50155V5.00155H20V3.58655C20 2.77405 19.392 2.04605 18.581 2.00355C17.7155 1.95855 17 2.64655 17 3.50155V5.00155H16C13.791 5.00155 12 6.79255 12 9.00155V24.0016C12 26.2106 13.791 28.0016 16 28.0016H34C36.209 28.0016 38 26.2106 38 24.0016V9.00155C38 6.79255 36.209 5.00155 34 5.00155Z" fill="white"/>
</svg>
