<svg width="31" height="31" viewBox="0 0 31 31" fill="none" xmlns="http://www.w3.org/2000/svg">
<path d="M2 11.7026H29V24.0026C29 26.4879 26.9853 28.5026 24.5 28.5026H6.5C4.01472 28.5026 2 26.4879 2 24.0026V11.7026Z" stroke="black" stroke-width="3"/>
<path d="M2 9.00055C2 6.51527 4.01472 4.50055 6.5 4.50055H24.5C26.9853 4.50055 29 6.51527 29 9.00055V11.7006H2V9.00055Z" stroke="black" stroke-width="3"/>
<path d="M6.5 1.50055C6.5 0.672122 7.17157 0.000549316 8 0.000549316C8.82843 0.000549316 9.5 0.672122 9.5 1.50055V3.00055H6.5V1.50055Z" fill="black"/>
<rect x="11.3008" y="16.2026" width="3" height="3" rx="0.6" fill="black"/>
<rect x="21.5" y="16.2026" width="3" height="3" rx="0.6" fill="black"/>
<rect x="6.5" y="21.0005" width="3" height="3" rx="0.6" fill="black"/>
<rect x="11.3008" y="21.0005" width="3" height="3" rx="0.6" fill="black"/>
<path d="M21.5 1.50055C21.5 0.672122 22.1716 0.000549316 23 0.000549316C23.8284 0.000549316 24.5 0.672122 24.5 1.50055V3.00055H21.5V1.50055Z" fill="black"/>
</svg>
