<svg width="35" height="31" viewBox="0 0 35 31" fill="none" xmlns="http://www.w3.org/2000/svg">
<path fill-rule="evenodd" clip-rule="evenodd" d="M26.6855 0.756454C28.377 0.844954 29.7345 2.15495 29.9655 3.82945C32.8165 4.29245 35 6.77195 35 9.75195V24.752C35 28.0605 32.3085 30.752 29 30.752H6C2.692 30.752 0 28.0605 0 24.752V9.75195C0 6.77545 2.179 4.29795 5.025 3.83095C5.1175 3.05545 5.4645 2.33795 6.0255 1.77695C6.6865 1.11545 7.5655 0.751953 8.5 0.751953C8.5615 0.751953 13.6235 0.753454 13.6855 0.756454C15.3505 0.843954 16.6925 2.11445 16.954 3.75195H18.0355C18.1415 3.00645 18.4835 2.31895 19.0255 1.77695C19.6865 1.11545 20.566 0.751953 21.5005 0.751953C21.5615 0.751953 26.6235 0.753454 26.6855 0.756454ZM4.50001 11.7511H25.5C25.776 11.7511 26 11.5271 26 11.2511V9.75112C26 8.64662 25.1045 7.75112 24 7.75112H6.00001C4.89551 7.75112 4.00001 8.64662 4.00001 9.75112V11.2511C4.00001 11.5271 4.22401 11.7511 4.50001 11.7511ZM23.25 16.7511C23.6645 16.7511 24 16.4151 24 16.0011V14.5011C24 14.0871 23.6645 13.7511 23.25 13.7511H21.75C21.336 13.7511 21 14.0871 21 14.5011V16.0011C21 16.4151 21.336 16.7511 21.75 16.7511H23.25ZM23.25 21.7511C23.6645 21.7511 24 21.4151 24 21.0011V19.5011C24 19.0871 23.6645 18.7511 23.25 18.7511H21.75C21.336 18.7511 21 19.0871 21 19.5011V21.0011C21 21.4151 21.336 21.7511 21.75 21.7511H23.25ZM23.25 26.7511C23.6645 26.7511 24 26.4151 24 26.0011V24.5011C24 24.0871 23.6645 23.7511 23.25 23.7511H21.75C21.336 23.7511 21 24.0871 21 24.5011V26.0011C21 26.4151 21.336 26.7511 21.75 26.7511H23.25ZM18.25 16.7511C18.6645 16.7511 19 16.4151 19 16.0011V14.5011C19 14.0871 18.6645 13.7511 18.25 13.7511H16.75C16.336 13.7511 16 14.0871 16 14.5011V16.0011C16 16.4151 16.336 16.7511 16.75 16.7511H18.25ZM18.25 21.7511C18.6645 21.7511 19 21.4151 19 21.0011V19.5011C19 19.0871 18.6645 18.7511 18.25 18.7511H16.75C16.336 18.7511 16 19.0871 16 19.5011V21.0011C16 21.4151 16.336 21.7511 16.75 21.7511H18.25ZM18.25 26.7511C18.6645 26.7511 19 26.4151 19 26.0011V24.5011C19 24.0871 18.6645 23.7511 18.25 23.7511H16.75C16.336 23.7511 16 24.0871 16 24.5011V26.0011C16 26.4151 16.336 26.7511 16.75 26.7511H18.25ZM13.25 16.7511C13.6645 16.7511 14 16.4151 14 16.0011V14.5011C14 14.0871 13.6645 13.7511 13.25 13.7511H11.75C11.336 13.7511 11 14.0871 11 14.5011V16.0011C11 16.4151 11.336 16.7511 11.75 16.7511H13.25ZM13.25 21.7511C13.6645 21.7511 14 21.4151 14 21.0011V19.5011C14 19.0871 13.6645 18.7511 13.25 18.7511H11.75C11.336 18.7511 11 19.0871 11 19.5011V21.0011C11 21.4151 11.336 21.7511 11.75 21.7511H13.25ZM13.25 26.7511C13.6645 26.7511 14 26.4151 14 26.0011V24.5011C14 24.0871 13.6645 23.7511 13.25 23.7511H11.75C11.336 23.7511 11 24.0871 11 24.5011V26.0011C11 26.4151 11.336 26.7511 11.75 26.7511H13.25ZM8.20551 16.7511C8.61951 16.7511 8.95551 16.4151 8.95551 16.0011V14.5011C8.95551 14.0871 8.61951 13.7511 8.20551 13.7511H6.70551C6.29101 13.7511 5.95551 14.0871 5.95551 14.5011V16.0011C5.95551 16.4151 6.29101 16.7511 6.70551 16.7511H8.20551ZM8.20551 21.7511C8.61951 21.7511 8.95551 21.4151 8.95551 21.0011V19.5011C8.95551 19.0871 8.61951 18.7511 8.20551 18.7511H6.70551C6.29101 18.7511 5.95551 19.0871 5.95551 19.5011V21.0011C5.95551 21.4151 6.29101 21.7511 6.70551 21.7511H8.20551ZM8.20551 26.7511C8.61951 26.7511 8.95551 26.4151 8.95551 26.0011V24.5011C8.95551 24.0871 8.61951 23.7511 8.20551 23.7511H6.70551C6.29101 23.7511 5.95551 24.0871 5.95551 24.5011V26.0011C5.95551 26.4151 6.29101 26.7511 6.70551 26.7511H8.20551ZM23 5.75112H24C26.209 5.75112 28 7.54212 28 9.75112V24.7511C28 26.9601 26.209 28.7511 24 28.7511H6.00001C3.79101 28.7511 2.00001 26.9601 2.00001 24.7511V9.75112C2.00001 7.54212 3.79101 5.75112 6.00001 5.75112H7.00001V4.25112C7.00001 3.39612 7.71601 2.70762 8.58101 2.75312C9.39201 2.79562 10 3.52362 10 4.33612V5.75112H20V4.25112C20 3.39612 20.7155 2.70762 21.581 2.75312C22.392 2.79562 23 3.52362 23 4.33612V5.75112Z" fill="black"/>
</svg>
