<svg width="55" height="31" viewBox="0 0 55 31" fill="none" xmlns="http://www.w3.org/2000/svg">
<path d="M39.9655 3.07897C39.7345 1.40447 38.377 0.0944662 36.6855 0.00596619C36.6235 0.00296619 31.5615 0.00146484 31.5005 0.00146484C30.566 0.00146484 29.6865 0.364966 29.0255 1.02647C28.4835 1.56847 28.1415 2.25596 28.0355 3.00146H26.954C26.6925 1.36396 25.3505 0.0934662 23.6855 0.00596619C23.6235 0.00296619 18.5615 0.00146484 18.5 0.00146484C17.5655 0.00146484 16.6865 0.364966 16.0255 1.02647C15.4645 1.58747 15.1175 2.30497 15.025 3.08047C12.179 3.54747 10 6.02496 10 9.00146V24.0015C10 27.31 12.692 30.0015 16 30.0015H39C42.3085 30.0015 45 27.31 45 24.0015V9.00146C45 6.02146 42.8165 3.54197 39.9655 3.07897Z" fill="black"/>
<path d="M35.5 11.0016H14.5C14.224 11.0016 14 10.7776 14 10.5016V9.0016C14 7.8971 14.8955 7.0016 16 7.0016H34C35.1045 7.0016 36 7.8971 36 9.0016V10.5016C36 10.7776 35.776 11.0016 35.5 11.0016ZM34 15.2516C34 15.6656 33.6645 16.0016 33.25 16.0016H31.75C31.336 16.0016 31 15.6656 31 15.2516V13.7516C31 13.3376 31.336 13.0016 31.75 13.0016H33.25C33.6645 13.0016 34 13.3376 34 13.7516V15.2516ZM34 20.2516C34 20.6656 33.6645 21.0016 33.25 21.0016H31.75C31.336 21.0016 31 20.6656 31 20.2516V18.7516C31 18.3376 31.336 18.0016 31.75 18.0016H33.25C33.6645 18.0016 34 18.3376 34 18.7516V20.2516ZM34 25.2516C34 25.6656 33.6645 26.0016 33.25 26.0016H31.75C31.336 26.0016 31 25.6656 31 25.2516V23.7516C31 23.3376 31.336 23.0016 31.75 23.0016H33.25C33.6645 23.0016 34 23.3376 34 23.7516V25.2516ZM29 15.2516C29 15.6656 28.6645 16.0016 28.25 16.0016H26.75C26.336 16.0016 26 15.6656 26 15.2516V13.7516C26 13.3376 26.336 13.0016 26.75 13.0016H28.25C28.6645 13.0016 29 13.3376 29 13.7516V15.2516ZM29 20.2516C29 20.6656 28.6645 21.0016 28.25 21.0016H26.75C26.336 21.0016 26 20.6656 26 20.2516V18.7516C26 18.3376 26.336 18.0016 26.75 18.0016H28.25C28.6645 18.0016 29 18.3376 29 18.7516V20.2516ZM29 25.2516C29 25.6656 28.6645 26.0016 28.25 26.0016H26.75C26.336 26.0016 26 25.6656 26 25.2516V23.7516C26 23.3376 26.336 23.0016 26.75 23.0016H28.25C28.6645 23.0016 29 23.3376 29 23.7516V25.2516ZM24 15.2516C24 15.6656 23.6645 16.0016 23.25 16.0016H21.75C21.336 16.0016 21 15.6656 21 15.2516V13.7516C21 13.3376 21.336 13.0016 21.75 13.0016H23.25C23.6645 13.0016 24 13.3376 24 13.7516V15.2516ZM24 20.2516C24 20.6656 23.6645 21.0016 23.25 21.0016H21.75C21.336 21.0016 21 20.6656 21 20.2516V18.7516C21 18.3376 21.336 18.0016 21.75 18.0016H23.25C23.6645 18.0016 24 18.3376 24 18.7516V20.2516ZM24 25.2516C24 25.6656 23.6645 26.0016 23.25 26.0016H21.75C21.336 26.0016 21 25.6656 21 25.2516V23.7516C21 23.3376 21.336 23.0016 21.75 23.0016H23.25C23.6645 23.0016 24 23.3376 24 23.7516V25.2516ZM18.9555 15.2516C18.9555 15.6656 18.6195 16.0016 18.2055 16.0016H16.7055C16.291 16.0016 15.9555 15.6656 15.9555 15.2516V13.7516C15.9555 13.3376 16.291 13.0016 16.7055 13.0016H18.2055C18.6195 13.0016 18.9555 13.3376 18.9555 13.7516V15.2516ZM18.9555 20.2516C18.9555 20.6656 18.6195 21.0016 18.2055 21.0016H16.7055C16.291 21.0016 15.9555 20.6656 15.9555 20.2516V18.7516C15.9555 18.3376 16.291 18.0016 16.7055 18.0016H18.2055C18.6195 18.0016 18.9555 18.3376 18.9555 18.7516V20.2516ZM18.9555 25.2516C18.9555 25.6656 18.6195 26.0016 18.2055 26.0016H16.7055C16.291 26.0016 15.9555 25.6656 15.9555 25.2516V23.7516C15.9555 23.3376 16.291 23.0016 16.7055 23.0016H18.2055C18.6195 23.0016 18.9555 23.3376 18.9555 23.7516V25.2516ZM34 5.0016H33V3.5866C33 2.7741 32.392 2.0461 31.581 2.0036C30.7155 1.9581 30 2.6466 30 3.5016V5.0016H20V3.5866C20 2.7741 19.392 2.0461 18.581 2.0036C17.716 1.9581 17 2.6466 17 3.5016V5.0016H16C13.791 5.0016 12 6.7926 12 9.0016V24.0016C12 26.2106 13.791 28.0016 16 28.0016H34C36.209 28.0016 38 26.2106 38 24.0016V9.0016C38 6.7926 36.209 5.0016 34 5.0016Z" fill="white"/>
</svg>
