<svg width="55" height="31" viewBox="0 0 55 31" fill="none" xmlns="http://www.w3.org/2000/svg">
<path d="M39.9655 3.57897C39.7345 1.90447 38.3765 0.594966 36.6855 0.505966C36.6235 0.502966 31.5615 0.501465 31.5 0.501465C30.5655 0.501465 29.686 0.865466 29.0255 1.52647C28.4835 2.06847 28.1415 2.75596 28.0355 3.50146H26.954C26.6925 1.86446 25.3505 0.593466 23.6855 0.505966C23.6235 0.502966 18.5615 0.501465 18.5 0.501465C17.5655 0.501465 16.6865 0.865466 16.0255 1.52647C15.4645 2.08747 15.1175 2.80497 15.025 3.58047C12.1785 4.04747 10 6.52496 10 9.50146V24.5015C10 27.8095 12.692 30.5015 16 30.5015H39C42.3085 30.5015 45 27.8095 45 24.5015V9.50146C45 6.52146 42.8165 4.04197 39.9655 3.57897Z" fill="black"/>
<path d="M35.5 11.5016H14.5C14.224 11.5016 14 11.2776 14 11.0016V9.50155C14 8.39705 14.8955 7.50155 16 7.50155H34C35.1045 7.50155 36 8.39705 36 9.50155V11.0016C36 11.2776 35.776 11.5016 35.5 11.5016ZM34 15.7516C34 16.1661 33.6645 16.5016 33.25 16.5016H31.75C31.3355 16.5016 31 16.1661 31 15.7516V14.2516C31 13.8371 31.3355 13.5016 31.75 13.5016H33.25C33.6645 13.5016 34 13.8371 34 14.2516V15.7516ZM34 20.7516C34 21.1661 33.6645 21.5016 33.25 21.5016H31.75C31.3355 21.5016 31 21.1661 31 20.7516V19.2516C31 18.8371 31.3355 18.5016 31.75 18.5016H33.25C33.6645 18.5016 34 18.8371 34 19.2516V20.7516ZM24 20.7516C24 21.1661 23.6645 21.5016 23.25 21.5016H21.75C21.3355 21.5016 21 21.1661 21 20.7516V19.2516C21 18.8371 21.3355 18.5016 21.75 18.5016H23.25C23.6645 18.5016 24 18.8371 24 19.2516V20.7516ZM24 25.7516C24 26.1661 23.6645 26.5016 23.25 26.5016H21.75C21.3355 26.5016 21 26.1661 21 25.7516V24.2516C21 23.8371 21.3355 23.5016 21.75 23.5016H23.25C23.6645 23.5016 24 23.8371 24 24.2516V25.7516ZM18.955 25.7516C18.955 26.1661 18.6195 26.5016 18.205 26.5016H16.705C16.291 26.5016 15.955 26.1661 15.955 25.7516V24.2516C15.955 23.8371 16.291 23.5016 16.705 23.5016H18.205C18.6195 23.5016 18.955 23.8371 18.955 24.2516V25.7516ZM34 5.50155H33V4.08655C33 3.27405 32.392 2.54605 31.5805 2.50355C30.7155 2.45855 30 3.14655 30 4.00155V5.50155H20V4.08655C20 3.27405 19.392 2.54605 18.581 2.50355C17.7155 2.45855 17 3.14655 17 4.00155V5.50155H16C13.791 5.50155 12 7.29255 12 9.50155V24.5016C12 26.7106 13.791 28.5016 16 28.5016H34C36.209 28.5016 38 26.7106 38 24.5016V9.50155C38 7.29255 36.209 5.50155 34 5.50155Z" fill="white"/>
</svg>
