<svg width="35" height="31" viewBox="0 0 35 31" fill="none" xmlns="http://www.w3.org/2000/svg">
<path fill-rule="evenodd" clip-rule="evenodd" d="M26.6855 0.255978C28.3765 0.344478 29.7345 1.65448 29.9655 3.32848C32.8165 3.79148 35 6.27098 35 9.25098V24.251C35 27.5595 32.3085 30.251 29 30.251H6C2.692 30.251 0 27.5595 0 24.251V9.25098C0 6.27448 2.1785 3.79748 5.025 3.32998C5.1175 2.55448 5.4645 1.83698 6.0255 1.27648C6.6865 0.614978 7.5655 0.250977 8.5 0.250977C8.5615 0.250977 13.6235 0.252478 13.6855 0.255978C15.3505 0.342978 16.6925 1.61398 16.954 3.25098H18.0355C18.1415 2.50548 18.4835 1.81798 19.0255 1.27648C19.686 0.614978 20.5655 0.250977 21.5 0.250977C21.5615 0.250977 26.6235 0.252478 26.6855 0.255978ZM4.49879 11.252H25.4988C25.7748 11.252 25.9988 11.028 25.9988 10.752V9.25205C25.9988 8.14755 25.1033 7.25205 23.9988 7.25205H5.99879C4.89429 7.25205 3.99879 8.14755 3.99879 9.25205V10.752C3.99879 11.028 4.22279 11.252 4.49879 11.252ZM18.2488 16.252C18.6633 16.252 18.9988 15.916 18.9988 15.502V14.002C18.9988 13.5875 18.6633 13.252 18.2488 13.252H16.7488C16.3343 13.252 15.9988 13.5875 15.9988 14.002V15.502C15.9988 15.916 16.3343 16.252 16.7488 16.252H18.2488ZM18.2488 21.252C18.6633 21.252 18.9988 20.916 18.9988 20.502V19.002C18.9988 18.5875 18.6633 18.252 18.2488 18.252H16.7488C16.3343 18.252 15.9988 18.5875 15.9988 19.002V20.502C15.9988 20.916 16.3343 21.252 16.7488 21.252H18.2488ZM18.2488 26.252C18.6633 26.252 18.9988 25.916 18.9988 25.502V24.002C18.9988 23.5875 18.6633 23.252 18.2488 23.252H16.7488C16.3343 23.252 15.9988 23.5875 15.9988 24.002V25.502C15.9988 25.916 16.3343 26.252 16.7488 26.252H18.2488ZM13.2488 16.252C13.6633 16.252 13.9988 15.916 13.9988 15.502V14.002C13.9988 13.5875 13.6633 13.252 13.2488 13.252H11.7488C11.3343 13.252 10.9988 13.5875 10.9988 14.002V15.502C10.9988 15.916 11.3343 16.252 11.7488 16.252H13.2488ZM13.2488 21.252C13.6633 21.252 13.9988 20.916 13.9988 20.502V19.002C13.9988 18.5875 13.6633 18.252 13.2488 18.252H11.7488C11.3343 18.252 10.9988 18.5875 10.9988 19.002V20.502C10.9988 20.916 11.3343 21.252 11.7488 21.252H13.2488ZM13.2488 26.252C13.6633 26.252 13.9988 25.916 13.9988 25.502V24.002C13.9988 23.5875 13.6633 23.252 13.2488 23.252H11.7488C11.3343 23.252 10.9988 23.5875 10.9988 24.002V25.502C10.9988 25.916 11.3343 26.252 11.7488 26.252H13.2488ZM22.9988 5.25205H23.9988C26.2078 5.25205 27.9988 7.04305 27.9988 9.25205V24.252C27.9988 26.4611 26.2078 28.252 23.9988 28.252H5.99879C3.78979 28.252 1.99879 26.4611 1.99879 24.252V9.25205C1.99879 7.04305 3.78979 5.25205 5.99879 5.25205H6.99879V3.75205C6.99879 2.89705 7.71429 2.20905 8.57979 2.25405C9.39079 2.29655 9.99879 3.02455 9.99879 3.83655V5.25205H19.9988V3.75205C19.9988 2.89705 20.7143 2.20905 21.5793 2.25405C22.3908 2.29655 22.9988 3.02455 22.9988 3.83655V5.25205Z" fill="black"/>
</svg>
