<svg width="55" height="30" viewBox="0 0 55 30" fill="none" xmlns="http://www.w3.org/2000/svg">
<path d="M39.9655 3.07848C39.7345 1.40398 38.3765 0.0944779 36.6855 0.00547791C36.6235 0.00247791 31.5615 0.000976562 31.5 0.000976562C30.5655 0.000976562 29.686 0.364978 29.0255 1.02598C28.4835 1.56798 28.1415 2.25548 28.0355 3.00098H26.954C26.6925 1.36398 25.3505 0.0929779 23.6855 0.00547791C23.6235 0.00247791 18.5615 0.000976562 18.5 0.000976562C17.5655 0.000976562 16.6865 0.364978 16.0255 1.02598C15.4645 1.58698 15.1175 2.30448 15.025 3.07998C12.1785 3.54698 10 6.02448 10 9.00098V24.001C10 27.309 12.692 30.001 16 30.001H39C42.3085 30.001 45 27.309 45 24.001V9.00098C45 6.02098 42.8165 3.54148 39.9655 3.07848Z" fill="black"/>
<path fill-rule="evenodd" clip-rule="evenodd" d="M14.5 11.0011H35.5C35.776 11.0011 36 10.7771 36 10.5011V9.00107C36 7.89657 35.1045 7.00107 34 7.00107H16C14.8955 7.00107 14 7.89657 14 9.00107V10.5011C14 10.7771 14.224 11.0011 14.5 11.0011ZM33 5.00107H34C36.209 5.00107 38 6.79207 38 9.00107V24.0011C38 26.2101 36.209 28.0011 34 28.0011H16C13.791 28.0011 12 26.2101 12 24.0011V9.00107C12 6.79207 13.791 5.00107 16 5.00107H17V3.50107C17 2.64607 17.7155 1.95807 18.581 2.00307C19.392 2.04557 20 2.77357 20 3.58607V5.00107H30V3.50107C30 2.64607 30.7155 1.95807 31.5805 2.00307C32.392 2.04557 33 2.77357 33 3.58607V5.00107ZM22.9809 15.001H22.1054L19.0865 23.001H19.962L22.9809 15.001ZM16.1733 21.4841H15.3733V22.8558H18.6387V21.4841H17.8337V15.2563L17.1041 15.2463L15.001 16.4778V18.22L16.1733 17.5241V21.4841ZM26.8249 17.434C26.8249 17.3339 26.8014 17.2338 26.7544 17.1336C26.7108 17.0335 26.6454 16.9434 26.5582 16.8633C26.4744 16.7832 26.372 16.7181 26.2513 16.6681C26.1339 16.618 26.0031 16.593 25.8588 16.593C25.7347 16.593 25.6157 16.6147 25.5016 16.658C25.3909 16.6981 25.292 16.7532 25.2048 16.8233C25.1209 16.8933 25.0538 16.9751 25.0035 17.0686C24.9532 17.1587 24.928 17.3139 24.928 17.5341L23.3632 17.5241C23.3666 17.2004 23.4286 16.8917 23.5494 16.598C23.6702 16.3043 23.8379 16.0456 24.0525 15.822C24.2706 15.5984 24.5322 15.4215 24.8375 15.2913C25.1427 15.1612 25.4832 15.0961 25.8588 15.0961C26.2144 15.0961 26.5465 15.1578 26.8551 15.2813C27.1637 15.4015 27.432 15.565 27.6601 15.7719C27.8882 15.9789 28.066 16.2175 28.1934 16.4878C28.3242 16.7582 28.3897 17.0419 28.3897 17.3389C28.3897 17.6626 28.3226 17.958 28.1884 18.225C28.0542 18.4887 27.8714 18.7023 27.64 18.8658C27.7607 18.9326 27.8731 19.021 27.9771 19.1311C28.0811 19.2413 28.1716 19.3681 28.2488 19.5116C28.3293 19.6551 28.3913 19.812 28.4349 19.9822C28.4819 20.1524 28.5054 20.331 28.5054 20.5179C28.5054 20.8449 28.4383 21.1553 28.3041 21.449C28.1699 21.7427 27.9838 22.0014 27.7456 22.225C27.5108 22.4453 27.2324 22.6205 26.9104 22.7507C26.5884 22.8808 26.2412 22.9459 25.8689 22.9459C25.5167 22.9459 25.188 22.8908 24.8827 22.7807C24.5809 22.6706 24.3159 22.5187 24.0878 22.3251C23.8597 22.1282 23.6752 21.8979 23.5343 21.6343C23.3968 21.3673 23.3146 21.1453 23.2878 20.9684C23.2643 20.7915 23.2509 20.608 23.2475 20.4177H24.8274C24.8475 20.7682 24.9481 21.0268 25.1293 21.1937C25.3138 21.3573 25.567 21.439 25.889 21.439C26.0333 21.439 26.1674 21.4157 26.2915 21.3689C26.419 21.3189 26.5297 21.2538 26.6236 21.1737C26.7175 21.0903 26.7913 20.9935 26.845 20.8833C26.902 20.7732 26.9305 20.6547 26.9305 20.5279C26.9305 20.3944 26.9054 20.2709 26.8551 20.1574C26.8081 20.0406 26.7393 19.9422 26.6488 19.8621C26.5582 19.7786 26.4475 19.7135 26.3167 19.6668C26.1859 19.6201 26.04 19.5967 25.879 19.5967H25.1746V18.23H25.889C26.0366 18.23 26.1674 18.21 26.2815 18.1699C26.3989 18.1299 26.4978 18.0748 26.5783 18.0047C26.6588 17.9346 26.7192 17.8512 26.7595 17.7544C26.8031 17.6576 26.8249 17.5508 26.8249 17.434ZM30.6538 22.6305C31.0295 22.8274 31.4857 22.9259 32.0224 22.9259C32.559 22.9259 33.0169 22.8241 33.3959 22.6205C33.775 22.4169 34.0819 22.1399 34.3167 21.7895C34.5549 21.439 34.7276 21.0285 34.8349 20.5579C34.9456 20.084 35.001 19.5784 35.001 19.041C35.001 18.5104 34.9473 18.0114 34.84 17.5442C34.736 17.0736 34.5666 16.6631 34.3318 16.3126C34.097 15.9622 33.7901 15.6852 33.411 15.4816C33.0354 15.278 32.5758 15.1762 32.0324 15.1762C31.4823 15.1762 31.0177 15.2797 30.6387 15.4866C30.2597 15.6935 29.9528 15.9755 29.718 16.3326C29.4832 16.6864 29.3138 17.1003 29.2098 17.5742C29.1058 18.0448 29.0538 18.5471 29.0538 19.0811C29.0538 19.6218 29.1075 20.1274 29.2148 20.598C29.3255 21.0652 29.4983 21.4724 29.7331 21.8195C29.9712 22.1633 30.2781 22.4336 30.6538 22.6305ZM32.7318 21.2137C32.5574 21.3306 32.3209 21.389 32.0224 21.389C31.7238 21.389 31.4857 21.3306 31.3079 21.2137C31.1335 21.0936 30.9993 20.9301 30.9054 20.7231C30.8148 20.5129 30.7544 20.2642 30.7242 19.9772C30.6974 19.6902 30.684 19.3781 30.684 19.041C30.684 18.7106 30.6974 18.4036 30.7242 18.1199C30.7544 17.8328 30.8165 17.5842 30.9104 17.3739C31.0043 17.1603 31.1402 16.9935 31.318 16.8733C31.4957 16.7532 31.7339 16.6931 32.0324 16.6931C32.3276 16.6931 32.5624 16.7532 32.7368 16.8733C32.9146 16.9935 33.0488 17.1603 33.1393 17.3739C33.2333 17.5842 33.2936 17.8328 33.3205 18.1199C33.3473 18.4036 33.3607 18.7106 33.3607 19.041C33.3607 19.3781 33.3473 19.6902 33.3205 19.9772C33.2936 20.2642 33.2333 20.5129 33.1393 20.7231C33.0454 20.9301 32.9096 21.0936 32.7318 21.2137Z" fill="white"/>
</svg>
