<svg width="35" height="30" viewBox="0 0 35 30" fill="none" xmlns="http://www.w3.org/2000/svg">
<path d="M29.9655 3.0775C29.7345 1.403 28.3765 0.0935013 26.6855 0.00450134C26.6235 0.00150134 21.5615 0 21.5 0C20.5655 0 19.686 0.364002 19.0255 1.025C18.4835 1.567 18.1415 2.2545 18.0355 3H16.954C16.6925 1.363 15.3505 0.0920013 13.6855 0.00450134C13.6235 0.00150134 8.5615 0 8.5 0C7.5655 0 6.6865 0.364002 6.0255 1.025C5.4645 1.586 5.1175 2.3035 5.025 3.079C2.1785 3.546 0 6.0235 0 9V24C0 27.308 2.692 30 6 30H29C32.3085 30 35 27.308 35 24V9C35 6.02 32.8165 3.5405 29.9655 3.0775Z" fill="black"/>
<path d="M25.499 11.0001H4.49902C4.22302 11.0001 3.99902 10.7761 3.99902 10.5001V9.00009C3.99902 7.89559 4.89452 7.00009 5.99902 7.00009H23.999C25.1035 7.00009 25.999 7.89559 25.999 9.00009V10.5001C25.999 10.7761 25.775 11.0001 25.499 11.0001ZM23.999 15.2501C23.999 15.6646 23.6635 16.0001 23.249 16.0001H21.749C21.3345 16.0001 20.999 15.6646 20.999 15.2501V13.7501C20.999 13.3356 21.3345 13.0001 21.749 13.0001H23.249C23.6635 13.0001 23.999 13.3356 23.999 13.7501V15.2501ZM23.999 20.2501C23.999 20.6646 23.6635 21.0001 23.249 21.0001H21.749C21.3345 21.0001 20.999 20.6646 20.999 20.2501V18.7501C20.999 18.3356 21.3345 18.0001 21.749 18.0001H23.249C23.6635 18.0001 23.999 18.3356 23.999 18.7501V20.2501ZM13.999 20.2501C13.999 20.6646 13.6635 21.0001 13.249 21.0001H11.749C11.3345 21.0001 10.999 20.6646 10.999 20.2501V18.7501C10.999 18.3356 11.3345 18.0001 11.749 18.0001H13.249C13.6635 18.0001 13.999 18.3356 13.999 18.7501V20.2501ZM13.999 25.2501C13.999 25.6646 13.6635 26.0001 13.249 26.0001H11.749C11.3345 26.0001 10.999 25.6646 10.999 25.2501V23.7501C10.999 23.3356 11.3345 23.0001 11.749 23.0001H13.249C13.6635 23.0001 13.999 23.3356 13.999 23.7501V25.2501ZM8.95402 25.2501C8.95402 25.6646 8.61852 26.0001 8.20402 26.0001H6.70402C6.29002 26.0001 5.95402 25.6646 5.95402 25.2501V23.7501C5.95402 23.3356 6.29002 23.0001 6.70402 23.0001H8.20402C8.61852 23.0001 8.95402 23.3356 8.95402 23.7501V25.2501ZM23.999 5.00009H22.999V3.58509C22.999 2.77259 22.391 2.04459 21.5795 2.00209C20.7145 1.95709 19.999 2.64509 19.999 3.50009V5.00009H9.99902V3.58509C9.99902 2.77259 9.39102 2.04459 8.58002 2.00209C7.71452 1.95709 6.99902 2.64509 6.99902 3.50009V5.00009H5.99902C3.79002 5.00009 1.99902 6.79109 1.99902 9.00009V24.0001C1.99902 26.2091 3.79002 28.0001 5.99902 28.0001H23.999C26.208 28.0001 27.999 26.2091 27.999 24.0001V9.00009C27.999 6.79109 26.208 5.00009 23.999 5.00009Z" fill="white"/>
</svg>
