<svg width="31" height="31" viewBox="0 0 31 31" fill="none" xmlns="http://www.w3.org/2000/svg">
<path d="M2 11.7015H29V24.0015C29 26.4868 26.9853 28.5015 24.5 28.5015H6.5C4.01472 28.5015 2 26.4868 2 24.0015V11.7015Z" stroke="black" stroke-width="3"/>
<path d="M2 9.00148C2 6.5162 4.01472 4.50148 6.5 4.50148H24.5C26.9853 4.50148 29 6.5162 29 9.00148V11.7015H2V9.00148Z" stroke="black" stroke-width="3"/>
<path d="M6.5 1.50148C6.5 0.673053 7.17157 0.0014801 8 0.0014801C8.82843 0.0014801 9.5 0.673053 9.5 1.50148V3.00148H6.5V1.50148Z" fill="black"/>
<rect x="6.5" y="16.2015" width="3" height="3" rx="0.6" fill="black"/>
<path d="M21.5 1.50148C21.5 0.673053 22.1716 0.0014801 23 0.0014801C23.8284 0.0014801 24.5 0.673053 24.5 1.50148V3.00148H21.5V1.50148Z" fill="black"/>
</svg>
