<svg width="43" height="34" viewBox="0 0 43 34" fill="none" xmlns="http://www.w3.org/2000/svg">
<path d="M38.3755 5.17167C38.2984 5.07124 38.2139 4.97448 38.1219 4.88238L36.0006 2.75919C36.0005 2.75913 36.0005 2.75906 36.0004 2.759C34.8688 1.62586 33.3583 1 31.7575 1H19.243C18.0473 1 16.9075 1.35443 15.9362 2.00088H8.5C6.42023 2.00088 4.67193 3.41795 4.15623 5.33463C2.31153 6.06956 1 7.86947 1 9.98055V27.9965C1 30.7554 3.24138 33 6 33H37C39.7592 33 42 30.7553 42 27.9965V9.98055C42 7.69626 40.4655 5.7706 38.3755 5.17167Z" fill="black" stroke="white" stroke-width="2" stroke-linejoin="round"/>
<path fill-rule="evenodd" clip-rule="evenodd" d="M32 7.97712C33.105 7.97712 34 8.87355 34 9.9792V27.9979C34 29.1036 33.105 30 32 30H6C4.8955 30 4 29.1036 4 27.9979V9.9792C4 8.87355 4.8955 7.97712 6 7.97712H32ZM31.041 12.0013C31.571 12.0013 32 11.5713 32 11.0408C32 10.5102 31.571 10.0803 31.041 10.0803H27.9595C27.43 10.0803 27 10.5102 27 11.0408C27 11.5713 27.43 12.0013 27.9595 12.0013H31.041ZM10.5 5.00104C11.3285 5.00104 12 5.67324 12 6.5026V7.00312H7V6.5026C7 5.67324 7.6715 5.00104 8.5 5.00104H10.5ZM28.879 4.87991L31 7.00312H15L17.1215 4.87991C17.684 4.31633 18.447 4 19.2425 4H26.7575C27.553 4 28.316 4.31633 28.879 4.87991ZM26.5 6.00208C26.7765 6.00208 27 5.77835 27 5.50156C27 5.22527 26.7765 5.00104 26.5 5.00104H19.5C19.224 5.00104 19 5.22527 19 5.50156C19 5.77835 19.224 6.00208 19.5 6.00208H26.5Z" fill="white"/>
<path fill-rule="evenodd" clip-rule="evenodd" d="M20.4958 17.4935C20.1513 17.4935 19.9186 17.143 20.0531 16.8269L22.6734 10.67C22.8789 10.1872 22.2691 9.77334 21.8938 10.1408L12.1449 19.6852C11.8377 19.9859 12.0513 20.5065 12.4818 20.5065H17.5042C17.8487 20.5065 18.0814 20.857 17.9469 21.1731L15.3266 27.33C15.1211 27.8128 15.7309 28.2267 16.1062 27.8592L25.8551 18.3148C26.1623 18.0141 25.9487 17.4935 25.5182 17.4935H20.4958Z" fill="black"/>
</svg>
