<svg width="46" height="31" viewBox="0 0 46 31" fill="none" xmlns="http://www.w3.org/2000/svg">
<path fill-rule="evenodd" clip-rule="evenodd" d="M10.4995 0.5H5.5C2.73858 0.5 0.5 2.73858 0.5 5.5V25.5C0.5 28.2614 2.73857 30.5 5.5 30.5H10.4995H35.5H40.4995C43.2609 30.5 45.4995 28.2614 45.4995 25.5V5.5C45.4995 2.73858 43.2609 0.5 40.4995 0.5H35.5H10.4995Z" fill="black"/>
<path fill-rule="evenodd" clip-rule="evenodd" d="M5.50098 2.5C3.84412 2.5 2.50098 3.84315 2.50098 5.5V7.5H38.501V5.5C38.501 3.84315 37.1578 2.5 35.501 2.5H5.50098ZM38.501 9.5H2.50098V25.5C2.50098 27.1569 3.84412 28.5 5.50098 28.5H35.501C37.1578 28.5 38.501 27.1569 38.501 25.5V9.5ZM7.50098 18.4995C6.94869 18.4995 6.50098 18.9472 6.50098 19.4995C6.50098 20.0518 6.94869 20.4995 7.50098 20.4995H13.501C14.0533 20.4995 14.501 20.0518 14.501 19.4995C14.501 18.9472 14.0533 18.4995 13.501 18.4995H7.50098ZM31.5015 19.4995C31.5015 18.9472 31.9492 18.4995 32.5015 18.4995C33.0537 18.4995 33.5015 18.9472 33.5015 19.4995C33.5015 20.0518 33.0537 20.4995 32.5015 20.4995C31.9492 20.4995 31.5015 20.0518 31.5015 19.4995Z" fill="white"/>
</svg>
