<svg width="55" height="31" viewBox="0 0 55 31" fill="none" xmlns="http://www.w3.org/2000/svg">
<path d="M51 0.00146484H4C1.7945 0.00146484 0 1.79596 0 4.00146V26.0015C0 28.207 1.7945 30.0015 4 30.0015H51C53.2055 30.0015 55 28.207 55 26.0015V4.00146C55 1.79596 53.2055 0.00146484 51 0.00146484Z" fill="black"/>
<path d="M45.9999 2.00146C47.1049 2.00146 47.9999 2.89647 47.9999 4.00147V26.0016C47.9999 27.1066 47.1049 28.0016 45.9999 28.0016H3.99976C2.89476 28.0016 1.99976 27.1066 1.99976 26.0016V4.00147C1.99976 2.89647 2.89476 2.00146 3.99976 2.00146H45.9999ZM4.49977 10.877C4.49977 12.7735 4.49977 17.234 4.52227 19.136C4.52727 20.3165 5.36478 21.3295 6.52279 21.5565C6.98929 21.656 7.42328 21.8895 7.76779 22.2335C8.10329 22.569 8.33429 22.991 8.41729 23.4515C8.41779 23.455 8.41879 23.4585 8.41929 23.4626C8.64129 24.6446 9.6733 25.5011 10.8758 25.5016C15.2573 25.5016 34.7499 25.5016 39.1314 25.4791C40.3089 25.4791 41.3274 24.6401 41.5549 23.4785C41.6544 23.012 41.8879 22.5775 42.2319 22.2335C42.5679 21.898 42.9899 21.667 43.4499 21.584C43.4534 21.5835 43.4574 21.5825 43.4609 21.582C44.6429 21.36 45.4994 20.328 45.4999 19.1255C45.4999 17.2295 45.4999 12.769 45.4774 10.8665C45.4724 9.68599 44.635 8.67349 43.4769 8.44599C43.0104 8.34699 42.5764 8.11348 42.2319 7.76898C41.8964 7.43348 41.6654 7.01148 41.5824 6.55148C41.5819 6.54748 41.5814 6.54398 41.5804 6.53998C41.3584 5.35848 40.3264 4.50198 39.1239 4.50147C34.7424 4.50147 15.2498 4.50147 10.8683 4.52347C9.69079 4.52347 8.67229 5.36298 8.44479 6.52398C8.34529 6.99048 8.11179 7.42498 7.76779 7.76898C7.43178 8.10498 7.00978 8.33599 6.54978 8.41849C6.54628 8.41949 6.54228 8.41999 6.53878 8.42049C5.35677 8.64249 4.50027 9.67449 4.49977 10.877ZM5.99977 10.8775C6.00027 10.3965 6.34278 9.98349 6.81528 9.89499C7.57479 9.75849 8.27429 9.38349 8.82829 8.82999C9.38229 8.27599 9.7568 7.57598 9.9148 6.82098C10.0018 6.35848 10.4058 6.02348 10.8758 6.02348C15.2563 6.00148 34.7434 6.00148 39.1239 6.00148C39.6049 6.00148 40.0174 6.34398 40.1064 6.81698C40.2429 7.57599 40.6174 8.27599 41.1714 8.82999C41.7254 9.38349 42.4249 9.7585 43.1804 9.9165C43.6424 10.0035 43.9774 10.407 43.9774 10.8775C43.9999 12.772 43.9999 17.231 43.9999 19.125C43.9999 19.606 43.6569 20.019 43.1844 20.1075C42.4249 20.2445 41.7254 20.619 41.1714 21.173C40.6174 21.727 40.2429 22.4265 40.0849 23.1816C39.9979 23.6441 39.5939 23.9791 39.1239 23.9791C34.7434 24.0016 15.2563 24.0016 10.8758 24.0016C10.3948 24.0011 9.9823 23.6585 9.8933 23.186C9.7568 22.4265 9.38229 21.727 8.82829 21.173C8.27429 20.619 7.57478 20.2445 6.81928 20.086C6.35728 19.9995 6.02228 19.5955 6.02228 19.125C5.99978 17.231 5.99977 12.772 5.99977 10.8775ZM23.6579 21.5015H26.7099V20.0095C27.1204 19.897 27.4914 19.744 27.8224 19.551C28.1534 19.358 28.4354 19.128 28.6684 18.861C28.9014 18.594 29.0804 18.2975 29.2064 17.971C29.3319 17.644 29.3944 17.291 29.3944 16.911C29.3944 16.1925 29.1984 15.6095 28.8059 15.1615C28.4139 14.7135 27.8074 14.365 26.9859 14.1155L25.3494 13.608C25.1719 13.5545 25.0029 13.4995 24.8434 13.443C24.6844 13.3865 24.5464 13.3245 24.4304 13.256C24.3139 13.188 24.2214 13.114 24.1539 13.0335C24.0869 12.9535 24.0534 12.86 24.0534 12.7535C24.0534 12.5635 24.1339 12.415 24.2964 12.308C24.4589 12.201 24.6909 12.148 24.9904 12.148C25.2299 12.148 25.4414 12.1805 25.6254 12.2455C25.8094 12.311 25.9654 12.4 26.0944 12.513C26.2229 12.6255 26.3209 12.7605 26.3879 12.9175C26.4554 13.075 26.4919 13.2635 26.4984 13.483H29.6429V10.8035H27.9879C27.8224 10.6785 27.6324 10.563 27.4179 10.456C27.2034 10.349 26.9674 10.254 26.7099 10.171V8.50149H23.6579V10.02C23.2533 10.097 22.8809 10.214 22.5404 10.3715C22.2004 10.529 21.9078 10.729 21.6623 10.9725C21.4173 11.216 21.2273 11.502 21.0923 11.8315C20.9578 12.161 20.8903 12.5335 20.8903 12.949C20.8903 13.3705 20.9563 13.74 21.0878 14.0575C21.2198 14.375 21.3988 14.6495 21.6258 14.881C21.8523 15.113 22.1173 15.307 22.4208 15.464C22.7243 15.6215 23.0479 15.7505 23.3914 15.8515L25.1009 16.359C25.2239 16.3945 25.3479 16.438 25.4734 16.488C25.5994 16.5385 25.7109 16.5965 25.8094 16.6615C25.9069 16.727 25.9869 16.8 26.0479 16.88C26.1089 16.96 26.1404 17.0475 26.1404 17.1425C26.1404 17.344 26.0569 17.5075 25.8919 17.6325C25.7264 17.757 25.4844 17.819 25.1659 17.819C24.8959 17.819 24.6584 17.784 24.4529 17.7125C24.2479 17.6415 24.0739 17.542 23.9333 17.414C23.7928 17.2865 23.6853 17.135 23.6118 16.96C23.5383 16.785 23.5018 16.5905 23.5018 16.377H20.3568V19.057H21.9748C22.1958 19.2825 22.4489 19.4725 22.7339 19.6265C23.0189 19.7805 23.3263 19.9055 23.6579 20.001V21.5015Z" fill="white"/>
</svg>
