<svg width="48" height="40" viewBox="0 0 48 40" fill="none" xmlns="http://www.w3.org/2000/svg">
<path d="M20.999 40C9.9525 40 0.997559 31.0457 0.997559 20C0.997559 8.95431 9.9525 0 20.999 0H27.6661C38.7126 0 47.6676 8.95431 47.6676 20V40H20.999Z" fill="black"/>
<path fill-rule="evenodd" clip-rule="evenodd" d="M20.9991 2.66797C11.4255 2.66797 3.66455 10.4284 3.66455 20.0013C3.66455 29.5742 11.4255 37.3346 20.9991 37.3346H38.3337V20.0013C38.3337 10.4284 30.5727 2.66797 20.9991 2.66797ZM12.9986 10.668C12.2623 10.668 11.6653 11.2649 11.6653 12.0013C11.6653 12.7377 12.2623 13.3346 12.9986 13.3346H29C29.7364 13.3346 30.3333 12.7377 30.3333 12.0013C30.3333 11.2649 29.7364 10.668 29 10.668H12.9986ZM12.9986 18.668C12.2623 18.668 11.6653 19.2649 11.6653 20.0013C11.6653 20.7377 12.2623 21.3346 12.9986 21.3346H15.6657C16.4021 21.3346 16.999 20.7377 16.999 20.0013C16.999 19.2649 16.4021 18.668 15.6657 18.668H12.9986ZM19.6659 20.0013C19.6659 19.2649 20.2628 18.668 20.9992 18.668H29C29.7364 18.668 30.3333 19.2649 30.3333 20.0013C30.3333 20.7377 29.7364 21.3346 29 21.3346H20.9992C20.2628 21.3346 19.6659 20.7377 19.6659 20.0013ZM12.9986 26.668C12.2623 26.668 11.6653 27.2649 11.6653 28.0013C11.6653 28.7377 12.2623 29.3346 12.9986 29.3346H23.6663C24.4026 29.3346 24.9996 28.7377 24.9996 28.0013C24.9996 27.2649 24.4026 26.668 23.6663 26.668H12.9986ZM27.6665 28.0013C27.6665 27.2649 28.2634 26.668 28.9998 26.668C29.7362 26.668 30.3331 27.2649 30.3331 28.0013C30.3331 28.7377 29.7362 29.3346 28.9998 29.3346C28.2634 29.3346 27.6665 28.7377 27.6665 28.0013Z" fill="#FA9938"/>
</svg>
