<svg width="43" height="31" viewBox="0 0 43 31" fill="none" xmlns="http://www.w3.org/2000/svg">
<path d="M24.0234 6.81555C24.0234 7.01439 24.0525 7.20645 24.1065 7.38773L18.7213 13.2746C18.4671 12.462 17.7084 11.8723 16.8119 11.8723H2.75029C1.64556 11.8723 0.75 12.7677 0.75 13.8723V18.1879C0.75 19.2924 1.64556 20.1879 2.75029 20.1879H4.21468L7.33321 23.5889C7.27587 23.7752 7.24501 23.973 7.24501 24.1781V28.4936C7.24501 28.9114 7.37311 29.2992 7.59217 29.62C7.95179 30.151 8.55995 30.5 9.24963 30.5H23.3112C24.4159 30.5 25.3115 29.6046 25.3115 28.5V24.1845C25.3115 23.9711 25.2781 23.7656 25.2162 23.5728L38.6263 8.81555H40.2497C41.3544 8.81555 42.25 7.92012 42.25 6.81555V2.5C42.25 1.39543 41.3544 0.5 40.2497 0.5H26.0237C24.919 0.5 24.0234 1.39543 24.0234 2.5V6.81555Z" fill="black"/>
<path d="M18.3065 24.1791H16.9631L32.7413 6.81652H35.25V2.50098H26.0244V6.81652H27.3414L13.7504 21.6731L10.4942 18.1888H11.8112V13.8733H2.75V18.1888H5.09433L10.5871 24.1791H9.24527V28.4946H9.2496V28.501H18.3108V24.1854H18.3065V24.1791Z" fill="white"/>
</svg>
