<svg width="36" height="24" viewBox="0 0 36 24" fill="none" xmlns="http://www.w3.org/2000/svg">
<g filter="url(#filter0_d_920_1143)">
<path d="M13.5732 17.3418H12.7465L22.4562 6.65523H24V3.99902H18.3227V6.65523H19.1332L10.7695 15.7994L8.76566 13.6549H9.57615V10.9986H4V13.6549H5.44267L8.82286 17.3418H7.99709V19.998H7.99975V20.0019H13.5759V17.3457H13.5732V17.3418Z" fill="#FA9938"/>
<path d="M16.7224 6.91987L11.1764 12.9834V10.9986V9.39836H9.57615H4H2.39971V10.9986V13.6549V15.2551H4H4.73876L6.3968 17.0637V17.3418V19.998V21.5983H6.39946V21.6022H7.99975H13.5759H15.1762V20.0019V17.3457V17.0474L23.1644 8.25552H24H25.6003V6.65523V3.99902V2.39873H24H18.3227H16.7224V3.99902V6.65523V6.91987Z" stroke="black" stroke-width="3.20058"/>
</g>
<defs>
<filter id="filter0_d_920_1143" x="0.799316" y="0.798462" width="34.4028" height="22.4041" filterUnits="userSpaceOnUse" color-interpolation-filters="sRGB">
<feFlood flood-opacity="0" result="BackgroundImageFix"/>
<feColorMatrix in="SourceAlpha" type="matrix" values="0 0 0 0 0 0 0 0 0 0 0 0 0 0 0 0 0 0 127 0" result="hardAlpha"/>
<feOffset dx="8.00146"/>
<feComposite in2="hardAlpha" operator="out"/>
<feColorMatrix type="matrix" values="0 0 0 0 0 0 0 0 0 0 0 0 0 0 0 0 0 0 1 0"/>
<feBlend mode="normal" in2="BackgroundImageFix" result="effect1_dropShadow_920_1143"/>
<feBlend mode="normal" in="SourceGraphic" in2="effect1_dropShadow_920_1143" result="shape"/>
</filter>
</defs>
</svg>
