<svg width="29" height="21" viewBox="0 0 29 21" fill="none" xmlns="http://www.w3.org/2000/svg">
<path d="M16.1826 4.71037C16.1826 4.84292 16.202 4.97096 16.238 5.09182L12.6479 9.01641C12.4784 8.47467 11.9726 8.08155 11.3749 8.08155H2.00052C1.26403 8.08155 0.666992 8.6785 0.666992 9.41488V12.2919C0.666992 13.0283 1.26403 13.6252 2.00052 13.6252H2.97678L5.0558 15.8926C5.01757 16.0168 4.997 16.1487 4.997 16.2854V19.1624C4.997 19.4409 5.0824 19.6995 5.22844 19.9134C5.46819 20.2673 5.87363 20.5 6.33341 20.5H15.7078C16.4443 20.5 17.0413 19.903 17.0413 19.1667V16.2896C17.0413 16.1474 17.0191 16.0104 16.9778 15.8819L25.9179 6.0437H27.0001C27.7366 6.0437 28.3337 5.44674 28.3337 4.71037V1.83333C28.3337 1.09695 27.7366 0.5 27.0001 0.5H17.5161C16.7797 0.5 16.1826 1.09695 16.1826 1.83333V4.71037Z" fill="black"/>
<path d="M12.371 16.2861H11.4754L21.9942 4.71102H23.6667V1.83398H17.5162V4.71102H18.3943L9.33358 14.6154L7.1628 12.2926H8.04083V9.41553H2V12.2926H3.56289L7.22476 16.2861H6.33018V19.1631H6.33306V19.1673H12.3739V16.2903H12.371V16.2861Z" fill="white"/>
</svg>
