<svg width="46" height="31" viewBox="0 0 46 31" fill="none" xmlns="http://www.w3.org/2000/svg">
<path fill-rule="evenodd" clip-rule="evenodd" d="M34.8964 7.76009H35.1972H35.498H35.7949H36.0957H36.3964H36.6972H36.998H37.2949H37.5957H38.1972H38.498H38.7949H39.0957H39.3964H39.8964C41.001 7.76009 41.8964 8.65552 41.8964 9.76009V25.0015H42.1016H42.3984H42.6992H43H43.5C44.6046 25.0015 45.5 25.8969 45.5 27.0015V28.0015C45.5 29.106 44.6046 30.0015 43.5 30.0015H43H42.6992H42.3984H42.1016H41.8008H41.1992H40.8984H40.6016H40.3008H40H39.6992H39.3984H39.1016H38.8008H38.5H7H6.5H6.19922H5.89844H5.60156H5.30078H4.69922H4.39844H4.10156H3.80078H3.5H3.19922H2.89844H2.60156H2.30078H2C0.89543 30.0015 0 29.106 0 28.0015V27.0015C0 25.8969 0.89543 25.0015 2 25.0015H2.30078H2.60156H2.89844H3.19922H3.5H3.58643V15.7946C3.58643 15.2641 3.79714 14.7554 4.1722 14.3804L11.0687 7.48381C11.4881 7.06439 12.0625 6.86051 12.6337 6.90362C12.7335 6.8961 12.834 6.89604 12.9345 6.90362C13.0336 6.89615 13.1335 6.89604 13.2333 6.90348C13.3325 6.8961 13.4323 6.89609 13.5321 6.90362C13.6319 6.8961 13.7325 6.89604 13.8329 6.90362C13.8656 6.90116 13.8983 6.8995 13.9311 6.89864V4.58767C13.9311 3.4831 14.8266 2.58767 15.9311 2.58767H16.2319H16.5173V2.00146C16.5173 0.896895 17.4127 0.00146484 18.5173 0.00146484H18.8181H19.1189H19.4158H19.7165H20.0173H20.3181H20.6189H20.9158H21.2165H21.8181H22.1189H22.4158H22.7165H22.8276H23.0173H23.1284H23.4292H23.5173H23.7261H24.0268H24.3276H24.6284H24.9292H25.2261H25.5268H26.1284H26.4292H26.7261H27.0268H27.3276H27.8276C28.9322 0.00146484 29.8276 0.896895 29.8276 2.00146V7.76009H29.8774H30.1743H30.4751H30.7759H31.2759H34.8964Z" fill="black"/>
<path fill-rule="evenodd" clip-rule="evenodd" d="M22.8276 14.9325V2.00146H18.5173V4.58767H15.9311V14.9325H22.8276ZM20.2414 3.7256H21.1035V5.44974H20.2414V3.7256ZM18.5173 6.31181H17.6553V8.03595H18.5173V6.31181ZM17.6553 8.89802H18.5173V10.6222H17.6553V8.89802ZM18.5173 11.4842H17.6553V13.2084H18.5173V11.4842ZM21.1035 11.4842H20.2414V13.2084H21.1035V11.4842ZM20.2414 8.89802H21.1035V10.6222H20.2414V8.89802ZM21.1035 6.31181H20.2414V8.03595H21.1035V6.31181ZM5.58643 15.7946L12.4829 8.89802V27.0015H14.207V16.6566H24.5517V27.0015H26.2759V9.76009H34.8964V27.0015H38.5V28.0015H2V27.0015H5.58643V15.7946ZM7.31054 27.0015H10.7588V24.4153H7.31054V27.0015ZM31.4482 27.0015V24.4153H29.7241V27.0015H31.4482ZM20.2414 27.0015V25.2773C20.2414 24.8012 19.8555 24.4153 19.3794 24.4153C18.9033 24.4153 18.5173 24.8012 18.5173 25.2773V27.0015H20.2414ZM9.03466 14.0704H10.7588V15.7946H9.03466V14.0704ZM8.1726 17.5187H7.31054V19.2428H8.1726V17.5187ZM10.7588 17.5187H9.03466V19.2428H10.7588V17.5187ZM10.7588 20.967H9.03466V22.6911H10.7588V20.967ZM7.31054 20.967H8.1726V22.6911H7.31054V20.967ZM17.6553 18.3808H15.9311V20.1049H17.6553V18.3808ZM18.5173 18.3808H22.8276V20.1049H18.5173V18.3808ZM15.9311 20.967H20.2414V22.6911H15.9311V20.967ZM22.8276 20.967H21.1035V22.6911H22.8276V20.967ZM28 11.4842H33.1723V12.9928H28V11.4842ZM29.5086 11.6997H28.2155V12.7773H28.3232C28.6208 12.7773 28.862 12.5361 28.862 12.2385H28.9698C29.2674 12.2385 29.5086 11.9973 29.5086 11.6997ZM32.9568 11.6997H31.6637C31.6637 11.9973 31.9049 12.2385 32.2025 12.2385H32.3103C32.3103 12.5361 32.5515 12.7773 32.8491 12.7773H32.9568V11.6997ZM28.2155 16.4411C28.2155 16.084 28.505 15.7946 28.862 15.7946C29.2191 15.7946 29.5086 16.084 29.5086 16.4411V17.9497H28.2155V16.4411ZM28.2155 20.7515C28.2155 20.3944 28.505 20.1049 28.862 20.1049C29.2191 20.1049 29.5086 20.3944 29.5086 20.7515V22.2601H28.2155V20.7515ZM32.3103 15.7946C31.9532 15.7946 31.6637 16.084 31.6637 16.4411V17.9497H32.9568V16.4411C32.9568 16.084 32.6673 15.7946 32.3103 15.7946ZM31.6637 20.7515C31.6637 20.3944 31.9532 20.1049 32.3103 20.1049C32.6673 20.1049 32.9568 20.3944 32.9568 20.7515V22.2601H31.6637V20.7515Z" fill="white"/>
</svg>
