<svg width="40" height="21" viewBox="0 0 40 21" fill="none" xmlns="http://www.w3.org/2000/svg">
<path fill-rule="evenodd" clip-rule="evenodd" d="M0 20.5029H5.45455H10.303H11.5152H28.4848H33.3333H34.5455H40V19.2908H34.5455V5.95748H33.3333H28.4848H26.0606V0.50293H24.8485H20.6061H20H19.3939H14.5455V2.32111H12.7273V3.63722L5.45455 10.9099V19.2908H0V20.5029ZM18.7879 10.806V1.71505H15.7576V3.53323H13.9394V10.806H18.7879ZM16.9697 2.92717H17.5758V4.13929H16.9697V2.92717ZM15.7576 4.74535H15.1515V5.95747H15.7576V4.74535ZM15.1515 6.56354H15.7576V7.77566H15.1515V6.56354ZM15.7576 8.38172H15.1515V9.59384H15.7576V8.38172ZM17.5758 8.38172H16.9697V9.59384H17.5758V8.38172ZM16.9697 6.56354H17.5758V7.77566H16.9697V6.56354ZM17.5758 4.74535H16.9697V5.95747H17.5758V4.74535ZM6.66667 11.412L11.5152 6.56354V19.2908H10.303V17.4726H7.87879V19.2908H6.66667V11.412ZM9.09091 10.1999H10.303V11.412H9.09091V10.1999ZM8.48485 12.6241H7.87879V13.8363H8.48485V12.6241ZM10.303 12.6241H9.09091V13.8363H10.303V12.6241ZM10.303 15.0484H9.09091V16.2605H10.303V15.0484ZM7.87879 15.0484H8.48485V16.2605H7.87879V15.0484ZM20 12.0181H12.7273V19.2908H15.7576V18.0787C15.7576 17.744 16.0289 17.4726 16.3636 17.4726C16.6984 17.4726 16.9697 17.744 16.9697 18.0787V19.2908H20V12.0181ZM15.7576 13.2302H18.7879V14.4423H15.7576V13.2302ZM13.9394 15.0484H16.9697V16.2605H13.9394V15.0484ZM15.1515 13.2302H13.9394V14.4423H15.1515V13.2302ZM18.7879 15.0484H17.5758V16.2605H18.7879V15.0484ZM21.2121 7.1696H27.2727V19.2908H24.8485V17.4726H23.6364V19.2908H21.2121V7.1696ZM22.4242 8.38172H26.0606V9.44232H22.4242V8.38172ZM23.4848 8.53323H22.5758V9.29081H22.6515C22.8607 9.29081 23.0303 9.12122 23.0303 8.91202H23.1061C23.3153 8.91202 23.4848 8.74243 23.4848 8.53323ZM25.9091 8.53323H25C25 8.74243 25.1696 8.91202 25.3788 8.91202H25.4545C25.4545 9.12122 25.6241 9.29081 25.8333 9.29081H25.9091V8.53323ZM22.5758 11.8666C22.5758 11.6155 22.7793 11.412 23.0303 11.412C23.2813 11.412 23.4848 11.6155 23.4848 11.8666V12.9272H22.5758V11.8666ZM22.5758 14.8969C22.5758 14.6458 22.7793 14.4423 23.0303 14.4423C23.2813 14.4423 23.4848 14.6458 23.4848 14.8969V15.9575H22.5758V14.8969ZM25.4545 11.412C25.2035 11.412 25 11.6155 25 11.8666V12.9272H25.9091V11.8666C25.9091 11.6155 25.7056 11.412 25.4545 11.412ZM25 14.8969C25 14.6458 25.2035 14.4423 25.4545 14.4423C25.7056 14.4423 25.9091 14.6458 25.9091 14.8969V15.9575H25V14.8969Z" fill="black"/>
</svg>
