<svg width="32" height="21" viewBox="0 0 32 21" fill="none" xmlns="http://www.w3.org/2000/svg">
<path fill-rule="evenodd" clip-rule="evenodd" d="M23.9308 5.17534H24.1313H24.3318H24.5298H24.7303H24.9308H25.1313H25.3318H25.5298H25.7303H26.1313H26.3318H26.5298H26.7303H26.9308H27.264C28.0004 5.17534 28.5973 5.7723 28.5973 6.50868V16.6696H28.7342H28.9321H29.1327H29.3332H29.6663C30.4027 16.6696 30.9997 17.2666 30.9997 18.0029V18.6696C30.9997 19.406 30.4027 20.0029 29.6663 20.0029H29.3332H29.1327H28.9321H28.7342H28.5337H28.1327H27.9321H27.7342H27.5337H27.3332H27.1327H26.9321H26.7342H26.5337H26.3332H5.33301H4.99984H4.79932H4.5988H4.40088H4.20036H3.79932H3.5988H3.40088H3.20036H2.99984H2.79932H2.5988H2.40088H2.20036H1.99984C1.26346 20.0029 0.666504 19.406 0.666504 18.6696V18.0029C0.666504 17.2666 1.26346 16.6696 1.99984 16.6696H2.20036H2.40088H2.5988H2.79932H2.99984H3.05745V10.5317C3.05745 10.178 3.19793 9.83891 3.44797 9.58886L8.04562 4.99116C8.32523 4.71155 8.70816 4.57563 9.08897 4.60437C9.15549 4.59935 9.22252 4.59931 9.28949 4.60437C9.35558 4.59938 9.42218 4.59931 9.48871 4.60427C9.55481 4.59935 9.6214 4.59935 9.68793 4.60437C9.75445 4.59935 9.82148 4.59931 9.88845 4.60437C9.91023 4.60273 9.93206 4.60162 9.95393 4.60105V3.0604C9.95393 2.32402 10.5509 1.72707 11.2873 1.72707H11.4878H11.678V1.33626C11.678 0.599883 12.275 0.00292969 13.0114 0.00292969H13.2119H13.4124H13.6103H13.8109H14.0114H14.2119H14.4124H14.6103H14.8109H15.2119H15.4124H15.6103H15.8109H15.8849H16.0114H16.0854H16.286H16.3446H16.4839H16.6844H16.8849H17.0854H17.286H17.4839H17.6844H18.0854H18.286H18.4839H18.6844H18.8849H19.2181C19.9545 0.00292969 20.5514 0.599883 20.5514 1.33626V5.17534H20.5848H20.7827H20.9832H21.1837H21.5169H23.9308Z" fill="black"/>
<path fill-rule="evenodd" clip-rule="evenodd" d="M15.8851 9.95693V1.33624H13.0115V3.06038H11.2874V9.95693H15.8851ZM14.161 2.48567H14.7357V3.63509H14.161V2.48567ZM13.0115 4.20981H12.4368V5.35923H13.0115V4.20981ZM12.4368 5.93394H13.0115V7.08337H12.4368V5.93394ZM13.0115 7.65808H12.4368V8.80751H13.0115V7.65808ZM14.7357 7.65808H14.161V8.80751H14.7357V7.65808ZM14.161 5.93394H14.7357V7.08337H14.161V5.93394ZM14.7357 4.20981H14.161V5.35923H14.7357V4.20981ZM4.39095 10.5316L8.9886 5.93394V18.0029H10.138V11.1064H17.0345V18.0029H18.1839V6.50866H23.931V18.0029H26.3333V18.6696H2V18.0029H4.39095V10.5316ZM5.54036 18.0029H7.83919V16.2788H5.54036V18.0029ZM21.6321 18.0029V16.2788H20.4827V18.0029H21.6321ZM14.161 18.0029V16.8535C14.161 16.5361 13.9037 16.2788 13.5863 16.2788C13.2689 16.2788 13.0115 16.5361 13.0115 16.8535V18.0029H14.161ZM6.68978 9.38222H7.83919V10.5316H6.68978V9.38222ZM6.11507 11.6811H5.54036V12.8305H6.11507V11.6811ZM7.83919 11.6811H6.68978V12.8305H7.83919V11.6811ZM7.83919 13.9799H6.68978V15.1293H7.83919V13.9799ZM5.54036 13.9799H6.11507V15.1293H5.54036V13.9799ZM12.4368 12.2558H11.2874V13.4052H12.4368V12.2558ZM13.0115 12.2558H15.8851V13.4052H13.0115V12.2558ZM11.2874 13.9799H14.161V15.1293H11.2874V13.9799ZM15.8851 13.9799H14.7357V15.1293H15.8851V13.9799ZM19.3333 7.65808H22.7816V8.66383H19.3333V7.65808ZM20.3391 7.80176H19.477V8.52015H19.5488C19.7472 8.52015 19.908 8.35933 19.908 8.16096H19.9799C20.1782 8.16096 20.3391 8.00014 20.3391 7.80176ZM22.6379 7.80176H21.7758C21.7758 8.00014 21.9366 8.16096 22.135 8.16096H22.2068C22.2068 8.35933 22.3677 8.52015 22.566 8.52015H22.6379V7.80176ZM19.477 10.9627C19.477 10.7246 19.67 10.5316 19.908 10.5316C20.1461 10.5316 20.3391 10.7246 20.3391 10.9627V11.9684H19.477V10.9627ZM19.477 13.8362C19.477 13.5982 19.67 13.4052 19.908 13.4052C20.1461 13.4052 20.3391 13.5982 20.3391 13.8362V14.842H19.477V13.8362ZM22.2068 10.5316C21.9688 10.5316 21.7758 10.7246 21.7758 10.9627V11.9684H22.6379V10.9627C22.6379 10.7246 22.4449 10.5316 22.2068 10.5316ZM21.7758 13.8362C21.7758 13.5982 21.9688 13.4052 22.2068 13.4052C22.4449 13.4052 22.6379 13.5982 22.6379 13.8362V14.842H21.7758V13.8362Z" fill="white"/>
</svg>
