<svg width="44" height="35" viewBox="0 0 44 35" fill="none" xmlns="http://www.w3.org/2000/svg">
<path fill-rule="evenodd" clip-rule="evenodd" d="M0 17.0029C0 7.61409 7.61116 0.00292969 17 0.00292969H27C36.3888 0.00292969 44 7.61409 44 17.0029C44 26.3918 36.3888 34.0029 27 34.0029H17C7.61116 34.0029 0 26.3918 0 17.0029ZM2 17.0029C2 8.71866 8.71573 2.00293 17 2.00293C25.2843 2.00293 32 8.71866 32 17.0029C32 25.2872 25.2843 32.0029 17 32.0029C8.71573 32.0029 2 25.2872 2 17.0029ZM18 8.00293C18 7.45064 17.5523 7.00293 17 7.00293C16.4477 7.00293 16 7.45064 16 8.00293V17.0029C16 17.0374 16.0017 17.0716 16.0052 17.1052C16.0564 17.6094 16.4822 18.0029 17 18.0029H23C23.5523 18.0029 24 17.5552 24 17.0029C24 16.4506 23.5523 16.0029 23 16.0029H18V8.00293Z" fill="black"/>
</svg>
