<svg width="43" height="34" viewBox="0 0 43 34" fill="none" xmlns="http://www.w3.org/2000/svg">
<path d="M41.1483 15.304C40.5745 14.3656 39.5404 13.7385 38.3622 13.7385V13.7031C40.2301 13.4822 41.6259 12.1457 41.6259 10.4747C41.6259 10.2033 41.5742 9.60166 41.5704 9.56793C41.5389 9.30194 41.4279 8.74655 41.4236 8.73024C40.3552 4.10061 35.0952 0.683472 28.5709 0.683472H23.1314C16.6055 0.683472 11.3438 4.10225 10.2777 8.73404C10.2738 8.75036 10.1629 9.30357 10.1319 9.56956C10.1281 9.60329 10.0764 10.2038 10.0764 10.4747V12.1196C9.60695 11.7644 9.04341 11.5626 8.44452 11.5626H3.00494C2.27822 11.5626 1.59555 11.8455 1.08151 12.359C0.568017 12.873 0.285156 13.5562 0.285156 14.2824C0.285156 14.9553 0.527762 15.5912 0.972175 16.0894C0.541904 16.6421 0.285156 17.3367 0.285156 18.0901V19.178C0.285156 19.9815 0.725218 20.6755 1.37307 21.052V26.7934C1.37307 28.2115 2.28311 29.4175 3.5489 29.8668V30.1932C3.5489 31.9181 4.95231 33.3209 6.67666 33.3209H12.1162C13.8411 33.3209 15.244 31.9181 15.244 30.1932V30.0572H22.5009C23.3424 31.9757 25.2577 33.3209 27.483 33.3209H32.9226C35.1485 33.3209 37.0638 31.9757 37.9047 30.0572H38.3622C40.1621 30.0572 41.6259 28.5934 41.6259 26.7934V21.052C42.2738 20.6755 42.7138 19.9815 42.7138 19.178V18.0901C42.7138 16.9124 42.0867 15.8778 41.1483 15.304Z" fill="black"/>
<path fill-rule="evenodd" clip-rule="evenodd" d="M23.6755 17.0022H24.2195C24.2195 16.4017 24.7069 15.9143 25.3074 15.9143H32.9228C33.5234 15.9143 34.0107 16.4017 34.0107 17.0022C34.6113 17.0022 35.0987 17.4896 35.0987 18.0901V19.178H2.46107V18.0901C2.46107 17.4896 2.94846 17.0022 3.54899 17.0022H4.95567L2.62045 14.667C2.40777 14.4543 2.40777 14.1105 2.62045 13.8978C2.83314 13.6851 3.17747 13.6851 3.38961 13.8978L5.40662 15.9143H12.2523C12.8529 15.9143 13.3403 16.4017 13.3403 17.0022H14.4282C14.4282 16.4017 14.9156 15.9143 15.5161 15.9143H20.9557C21.5562 15.9143 22.0436 16.4017 22.0436 17.0022H22.5876V11.2803C22.2987 11.4538 21.9196 11.5626 21.4997 11.5626C20.5983 11.5626 19.8678 11.0752 19.8678 10.4747C19.8678 6.26879 21.3294 2.85925 23.1315 2.85925C23.4699 2.85925 23.7957 2.97892 24.102 3.2014C24.3065 3.3499 24.5023 3.5441 24.6873 3.77855C24.9647 4.12994 25.2176 4.57273 25.4396 5.09003C26.0303 6.46788 26.3953 8.37174 26.3953 10.4747C26.3953 11.0752 25.6648 11.5626 24.7634 11.5626C24.3435 11.5626 23.9649 11.4538 23.6755 11.2803V17.0022ZM13.8842 11.5626C12.9829 11.5626 12.2523 11.0752 12.2523 10.4747C12.2523 6.83995 15.8925 3.8052 20.7588 3.04637C19.4549 4.65867 18.7799 7.57538 18.7799 10.4747C18.7799 11.0752 18.0493 11.5626 17.148 11.5626C16.5431 11.5626 16.0149 11.3429 15.7326 11.017C15.6146 10.8799 15.4177 10.8799 15.2996 11.017C15.0178 11.3429 14.4897 11.5626 13.8842 11.5626ZM27.4832 10.4747C27.4832 7.57538 26.8082 4.65867 25.5048 3.04637C30.3706 3.8052 34.0107 6.83995 34.0107 10.4747C34.0107 11.0752 33.2802 11.5626 32.3789 11.5626C31.774 11.5626 31.2458 11.3429 30.9635 11.017C30.8454 10.8799 30.6485 10.8799 30.5305 11.017C30.2487 11.3429 29.7205 11.5626 29.1151 11.5626C28.2138 11.5626 27.4832 11.0752 27.4832 10.4747ZM27.4832 24.6176C29.2859 24.6176 30.747 26.0793 30.747 27.8814C30.747 29.6841 29.2859 31.1446 27.4832 31.1446C25.6811 31.1446 24.2195 29.6841 24.2195 27.8814C24.2195 26.0793 25.6811 24.6176 27.4832 24.6176ZM27.4832 28.9693C28.0838 28.9693 28.5711 28.4819 28.5711 27.8814C28.5711 27.2809 28.0838 26.7935 27.4832 26.7935C26.8827 26.7935 26.3953 27.2809 26.3953 27.8814C26.3953 28.4819 26.8827 28.9693 27.4832 28.9693ZM3.54899 20.266H34.0107V26.7935C34.0107 27.394 33.5234 27.8814 32.9228 27.8814H31.8349C31.8349 25.482 29.8826 23.5297 27.4832 23.5297C25.0838 23.5297 23.1315 25.482 23.1315 27.8814H7.62869V30.1932C7.62869 30.7187 7.20277 31.1446 6.67676 31.1446C6.1513 31.1446 5.72483 30.7187 5.72483 30.1932V27.8814H4.63691C4.03638 27.8814 3.54899 27.394 3.54899 26.7935V20.266Z" fill="#4DB882"/>
</svg>
