<svg width="47" height="31" viewBox="0 0 47 31" fill="none" xmlns="http://www.w3.org/2000/svg">
<path fill-rule="evenodd" clip-rule="evenodd" d="M1.99272 20.0515V4.00146C1.99272 2.94146 2.41423 1.92145 3.16423 1.17145C3.91473 0.421448 4.93172 0.00146484 5.99272 0.00146484H10.9927H32.9927H37.9927C38.4502 0.00146484 38.8997 0.0764404 39.3237 0.22644L39.3267 0.231445C39.8832 0.426445 40.3947 0.746448 40.8207 1.17145H40.8222C41.0752 1.42645 41.2912 1.71148 41.4657 2.01648C41.5222 2.11648 41.5742 2.21647 41.6202 2.31647L41.6472 2.37146L41.6567 2.39648L41.6627 2.40643L41.6692 2.42645L41.6847 2.46149L41.6887 2.47644L41.7092 2.52649L41.7307 2.59149L41.7347 2.58649C41.9037 3.03149 41.9927 3.51146 41.9927 4.00146V6.00146H42.9927C44.0532 6.00146 45.0702 6.42145 45.8207 7.17145C46.2467 7.59645 46.5667 8.11144 46.7642 8.66644L46.7647 8.67145C46.9142 9.09145 46.9927 9.54146 46.9927 10.0015V26.0015C46.9927 27.0615 46.5712 28.0765 45.8212 28.8265C45.2977 29.3515 44.6447 29.7165 43.9372 29.8865H43.9347C43.7477 29.9315 43.5567 29.9664 43.3637 29.9814C43.3615 29.9814 43.3594 29.9814 43.3572 29.9822C43.3554 29.9829 43.3535 29.9841 43.3517 29.9865C43.2327 29.9965 43.1132 30.0015 42.9927 30.0015H37.9927H34.9927H29.9927C29.4622 30.0015 28.9432 29.8965 28.4622 29.6965C28.1297 29.5565 27.8162 29.3765 27.5302 29.1515L27.5262 29.1465C27.3997 29.0515 27.2787 28.9415 27.1637 28.8265C26.9012 28.5665 26.6787 28.2715 26.5017 27.9515H11.9527C11.9033 27.9521 11.8541 27.9521 11.8048 27.9515H6.95273C6.16523 27.9615 5.38422 27.8115 4.65422 27.5165H4.65273C3.91623 27.2215 3.24673 26.7765 2.68323 26.2165C2.68173 26.2165 0.720231 24.2565 0.715731 24.2515C0.371731 23.9015 0.138729 23.4564 0.0452291 22.9764C0.00572912 22.7714 -0.00777125 22.5614 0.00422875 22.3564C0.0202288 22.0814 0.0817356 21.8065 0.186236 21.5515L0.189226 21.5464C0.375226 21.0964 0.688734 20.7115 1.09123 20.4365L1.09323 20.4315C1.36673 20.2465 1.67272 20.1165 1.99272 20.0515ZM26.5926 22.4015V22.4515L25.5926 23.4515C25.2231 23.8265 24.7201 24.0415 24.1926 24.0515H14.8426C14.5796 24.0565 14.3181 24.0065 14.0766 23.9015C13.8351 23.8015 13.6186 23.6465 13.4426 23.4515L11.9926 22.0015H2.49258C2.46758 22.0015 2.44258 22.0015 2.41808 22.0065C2.34658 22.0165 2.27859 22.0465 2.21859 22.0865C2.13759 22.1415 2.07459 22.2215 2.03709 22.3115C2.01609 22.3615 2.00359 22.4164 2.00059 22.4714C1.99809 22.5114 2.00109 22.5564 2.00909 22.5964C2.02759 22.6914 2.07409 22.7814 2.14259 22.8514L4.09258 24.8015C4.46708 25.1715 4.91209 25.4664 5.40159 25.6614C5.89109 25.8614 6.41509 25.9565 6.94259 25.9515H26.5926V22.4515L26.6426 22.4015H26.5926ZM26.6426 19.0015H5.99258V5.00146C5.99258 4.73646 6.09808 4.48144 6.28558 4.29144C6.36208 4.21644 6.45009 4.15145 6.54559 4.10645C6.59409 4.08145 6.64408 4.06145 6.69558 4.04645C6.79058 4.01645 6.89108 4.00146 6.99258 4.00146H31.9926C32.0981 4.00146 32.2016 4.01645 32.3001 4.05145C32.3606 4.06645 32.4191 4.09646 32.4751 4.12646C32.5031 4.14146 32.5306 4.15645 32.5571 4.17645C32.6076 4.21145 32.6556 4.24644 32.6996 4.29144C32.7836 4.37644 32.8511 4.47648 32.9001 4.58148C32.9311 4.64648 32.9546 4.71644 32.9701 4.78644C32.9851 4.85644 32.9926 4.93146 32.9926 5.00146V6.65149H34.9926V4.00146C34.9926 3.75646 34.9481 3.51644 34.8636 3.29144L34.8281 3.20648C34.7991 3.13648 34.7661 3.07147 34.7291 3.00647C34.6416 2.85647 34.5336 2.71149 34.4071 2.58649C34.1936 2.37149 33.9376 2.21146 33.6591 2.11646C33.4471 2.04146 33.2216 2.00146 32.9926 2.00146H5.99258C5.46208 2.00146 4.95359 2.21149 4.57809 2.58649C4.20309 2.96149 3.99258 3.47146 3.99258 4.00146V21.0015H26.6426V19.0015ZM20.6426 10.3015C20.6426 10.2715 20.6411 10.2464 20.6381 10.2214L20.6286 10.1415L20.6176 10.0765C20.6096 10.0265 20.6016 9.97646 20.5966 9.93146C20.5941 9.90146 20.5926 9.87644 20.5926 9.85144C20.5721 9.70144 20.5006 9.56649 20.3911 9.46649C20.2821 9.36649 20.1406 9.30645 19.9926 9.30145C19.7926 9.30145 19.6426 9.05145 19.6426 8.80145C19.6391 8.77145 19.6421 8.74644 19.6506 8.72144C19.6591 8.69644 19.6736 8.67149 19.6926 8.65149C19.7851 8.53649 19.8376 8.39647 19.8426 8.25146C19.8371 8.16146 19.8121 8.07646 19.7686 7.99646C19.7256 7.92146 19.6651 7.85145 19.5926 7.80145L19.3456 7.59644C19.1246 7.41144 18.8966 7.23145 18.6426 7.05145C18.5141 6.95645 18.3556 6.91646 18.1981 6.93146C18.1256 6.94146 18.0561 6.96146 17.9921 6.99646C17.9166 7.03146 17.8481 7.08649 17.7926 7.15149C17.6776 7.23649 17.5336 7.27146 17.3926 7.25146C17.2426 7.20146 17.0926 7.10146 17.0926 7.00146C17.0736 6.91646 17.0366 6.83648 16.9846 6.76648C16.9331 6.69648 16.8676 6.64144 16.7921 6.59644C16.7166 6.55644 16.6336 6.53148 16.5476 6.52148C16.4931 6.51648 16.4391 6.51649 16.3861 6.52649C16.3546 6.53149 16.3231 6.54145 16.2926 6.55145C16.2458 6.56106 16.2 6.57068 16.1553 6.58008C16.0371 6.60493 15.9257 6.62835 15.8191 6.64648L15.5601 6.70148L15.3956 6.73645C15.3101 6.75645 15.2261 6.77645 15.1426 6.80145C15.0166 6.82645 14.9041 6.89646 14.8226 6.99646C14.7886 7.03646 14.7611 7.08647 14.7401 7.13147C14.7106 7.20147 14.6941 7.27644 14.6926 7.35144V7.55145C14.6796 7.62145 14.6501 7.69146 14.6071 7.75146C14.5641 7.81646 14.5076 7.86649 14.4426 7.90149C14.3411 7.97149 14.2171 8.00646 14.0926 8.00146C14.0476 7.97646 14.0006 7.95647 13.9516 7.94647C13.9151 7.93647 13.8776 7.93145 13.8401 7.92645C13.7911 7.92645 13.7421 7.92646 13.6941 7.93146C13.6551 7.93646 13.6166 7.94649 13.5791 7.96149C13.4951 7.98649 13.4176 8.03149 13.3511 8.09149C13.3226 8.11649 13.2966 8.14145 13.2731 8.17145C13.2686 8.17785 13.2642 8.18393 13.26 8.18984C13.2477 8.20702 13.2364 8.22286 13.2256 8.24146L13.2096 8.26648L13.1926 8.30145C13.0131 8.62145 12.8621 8.95645 12.7426 9.30145C12.7016 9.39645 12.6846 9.49644 12.6926 9.60144C12.6901 9.71644 12.7226 9.83145 12.7846 9.92645C12.8466 10.0265 12.9366 10.1015 13.0426 10.1515C13.1341 10.2415 13.1856 10.3715 13.1856 10.5015C13.1856 10.6315 13.1341 10.7564 13.0426 10.8514C12.9741 10.8814 12.9126 10.9264 12.8611 10.9764C12.8326 11.0064 12.8066 11.0365 12.7846 11.0715C12.7506 11.1265 12.7256 11.1865 12.7101 11.2465C12.6976 11.2965 12.6916 11.3465 12.6926 11.4015C12.6796 11.4865 12.6971 11.5765 12.7426 11.6515L12.7926 11.7615L12.8511 11.8915C12.8851 11.9665 12.9201 12.0415 12.9561 12.1165C13.0616 12.3315 13.1736 12.5415 13.2926 12.7515C13.3611 12.8815 13.4776 12.9815 13.6171 13.0265C13.7571 13.0715 13.9096 13.0615 14.0426 13.0015C14.1776 12.9665 14.3201 12.9865 14.4426 13.0515C14.5076 13.0965 14.5601 13.1514 14.5951 13.2264C14.6301 13.2964 14.6466 13.3715 14.6426 13.4515V13.6014C14.6276 13.7264 14.6606 13.8515 14.7346 13.9515C14.8086 14.0565 14.9191 14.1265 15.0426 14.1515C15.2051 14.2015 15.3686 14.2414 15.5331 14.2814C15.8166 14.3514 16.1036 14.4065 16.3926 14.4515C16.5226 14.4565 16.6506 14.4214 16.7586 14.3514C16.8666 14.2764 16.9486 14.1715 16.9926 14.0515C17.0201 13.9665 17.0736 13.8915 17.1451 13.8365C17.2166 13.7815 17.3031 13.7515 17.3926 13.7515C17.4661 13.7265 17.5466 13.7265 17.6196 13.7515C17.6926 13.7815 17.7536 13.8315 17.7926 13.9015C17.8921 14.0115 18.0276 14.0814 18.1741 14.0964C18.3206 14.1164 18.4691 14.0815 18.5926 14.0015C18.8745 13.8007 19.1565 13.5651 19.412 13.3516C19.4302 13.3365 19.4482 13.3214 19.4661 13.3065L19.5926 13.2015C19.6136 13.1815 19.6331 13.1615 19.6511 13.1415L19.6821 13.1014C19.7066 13.0664 19.7271 13.0315 19.7436 12.9915C19.7706 12.9315 19.7871 12.8665 19.7926 12.8015C19.7916 12.7615 19.7866 12.7215 19.7791 12.6865C19.7746 12.6665 19.7691 12.6465 19.7626 12.6265C19.7561 12.6015 19.7481 12.5815 19.7396 12.5615C19.7301 12.5365 19.7191 12.5165 19.7076 12.4965C19.6886 12.4615 19.6671 12.4315 19.6426 12.4015C19.5926 12.3515 19.5926 12.3015 19.5926 12.2015C19.5966 12.0915 19.6321 11.9865 19.6941 11.8965C19.7561 11.8115 19.8426 11.7415 19.9426 11.7015C20.0371 11.6965 20.1291 11.6715 20.2131 11.6315C20.2656 11.6065 20.3151 11.5764 20.3606 11.5364L20.3931 11.5065C20.4096 11.4915 20.4251 11.4765 20.4396 11.4565C20.4571 11.4365 20.4731 11.4165 20.4881 11.3915C20.5076 11.3665 20.5251 11.3365 20.5401 11.3015C20.5636 11.2565 20.5811 11.2015 20.5926 11.1515C20.5926 11.0765 20.6056 11.0115 20.6176 10.9515L20.6201 10.9365C20.6316 10.8815 20.6426 10.8215 20.6426 10.7515V10.3015ZM14.9926 10.5015C15.0036 10.0815 15.1761 9.68147 15.4736 9.38147C15.7716 9.08647 16.1716 8.91149 16.5926 8.90149C16.7971 8.89649 17.0006 8.93147 17.1901 9.01147C17.3081 9.05647 17.4191 9.12147 17.5201 9.19647L17.5751 9.24146L17.6356 9.29645C17.6551 9.31145 17.6741 9.33144 17.6926 9.35144C17.7861 9.44644 17.8671 9.55144 17.9331 9.66144C17.9691 9.72644 18.0001 9.79145 18.0271 9.85645C18.0596 9.93645 18.0851 10.0164 18.1041 10.0964C18.1301 10.2114 18.1431 10.3315 18.1426 10.4515C18.1436 10.6565 18.1046 10.8564 18.0271 11.0464C17.9501 11.2364 17.8361 11.4065 17.6926 11.5515C17.5406 11.6965 17.3606 11.8165 17.1631 11.8915C16.9656 11.9715 16.7546 12.0065 16.5426 12.0015C16.3396 12.0115 16.1366 11.9864 15.9456 11.9164C15.8521 11.8814 15.7626 11.8364 15.6781 11.7814C15.6501 11.7664 15.6231 11.7464 15.5961 11.7264L15.5416 11.6865C15.5046 11.6565 15.4691 11.6264 15.4351 11.5964C15.3356 11.4964 15.2511 11.3865 15.1831 11.2665C15.1506 11.2115 15.1221 11.1564 15.0976 11.0964C15.0216 10.9064 14.9856 10.7015 14.9926 10.5015ZM23.1926 16.4015C23.2426 16.4015 23.3051 16.4115 23.3676 16.4265L23.4606 16.4415L23.4991 16.4465L23.5426 16.4515H23.8426C23.8926 16.4515 23.9426 16.439 23.9926 16.4265C24.0426 16.414 24.0926 16.4015 24.1426 16.4015C24.3926 16.4015 24.5426 16.2015 24.5926 15.9515C24.6016 15.8665 24.6426 15.7864 24.7081 15.7314C24.7731 15.6764 24.8571 15.6465 24.9426 15.6515C24.9701 15.6465 24.9976 15.6514 25.0231 15.6564C25.0307 15.6592 25.0381 15.6633 25.0454 15.6674C25.0515 15.6708 25.0574 15.6742 25.0631 15.6765C25.0741 15.6815 25.0836 15.6915 25.0926 15.7015C25.1841 15.7565 25.2866 15.7915 25.3926 15.8015C25.4511 15.8015 25.5101 15.7915 25.5626 15.7665C25.6151 15.7365 25.6596 15.7015 25.6926 15.6515C25.9166 15.4215 26.1176 15.1715 26.2926 14.9015C26.3311 14.8565 26.3601 14.8115 26.3781 14.7565C26.3916 14.7165 26.3986 14.6765 26.4001 14.6365C26.4006 14.6215 26.4001 14.6065 26.3986 14.5915C26.3941 14.5315 26.3776 14.4765 26.3511 14.4265C26.3241 14.3765 26.2871 14.3365 26.2426 14.3015C26.2171 14.2865 26.1951 14.2665 26.1771 14.2415C26.1591 14.2215 26.1456 14.1964 26.1366 14.1714C26.1176 14.1164 26.1201 14.0565 26.1426 14.0015C26.1746 13.9015 26.2066 13.8265 26.2651 13.7715C26.2976 13.7415 26.3386 13.7165 26.3926 13.7015C26.4661 13.6765 26.5516 13.6164 26.6136 13.5364C26.6786 13.4564 26.7181 13.3515 26.6926 13.2515C26.6776 13.0615 26.6496 12.8715 26.6096 12.6865C26.5781 12.5415 26.5391 12.3915 26.4926 12.2515C26.4736 12.1615 26.4226 12.0815 26.3491 12.0265C26.2756 11.9715 26.1846 11.9415 26.0926 11.9515H25.9426C25.8841 11.9515 25.8261 11.9414 25.7736 11.9114C25.7531 11.9014 25.7331 11.8915 25.7151 11.8765C25.6876 11.8565 25.6631 11.8315 25.6426 11.8015C25.6111 11.7565 25.5896 11.7064 25.5811 11.6564C25.5726 11.6064 25.5761 11.5515 25.5926 11.5015C25.6171 11.4465 25.6291 11.3865 25.6291 11.3315C25.6296 11.2815 25.6211 11.2315 25.6041 11.1865C25.5666 11.0815 25.4911 10.9965 25.3926 10.9515L25.1521 10.8265L25.1171 10.8065L25.0961 10.7964C24.9191 10.7014 24.7556 10.6165 24.5926 10.5515C24.5341 10.5115 24.4631 10.4915 24.3926 10.5015C24.3086 10.4965 24.2246 10.5165 24.1531 10.5615C24.0816 10.6065 24.0256 10.6715 23.9926 10.7515C23.9631 10.8015 23.9191 10.8465 23.8656 10.8715C23.8121 10.8965 23.7521 10.9065 23.6926 10.9015C23.6001 10.8965 23.5111 10.8615 23.4426 10.8015L23.4276 10.7665C23.4229 10.7576 23.4182 10.7505 23.4132 10.7431C23.4098 10.7379 23.4063 10.7326 23.4026 10.7264C23.3936 10.7114 23.3836 10.6965 23.3731 10.6865C23.3416 10.6465 23.3041 10.6115 23.2616 10.5865C23.1821 10.5315 23.0886 10.5015 22.9926 10.5015H22.9925C22.9425 10.5015 22.8426 10.5015 22.8426 10.4515C22.5836 10.5465 22.3326 10.6615 22.0926 10.8015C22.0306 10.8215 21.9736 10.8564 21.9266 10.9064C21.8791 10.9514 21.8426 11.0065 21.8191 11.0665C21.7951 11.1315 21.7851 11.1965 21.7891 11.2615L21.7931 11.3015L21.7991 11.3315C21.8081 11.3715 21.8226 11.4115 21.8426 11.4515C21.8641 11.4715 21.8766 11.5014 21.8756 11.5364C21.8746 11.5864 21.8501 11.6415 21.7926 11.7015L21.7926 11.7015C21.6926 11.8015 21.5926 11.9015 21.4926 11.9015H21.3426C21.2386 11.8965 21.1361 11.9265 21.0536 11.9915C20.9711 12.0565 20.9141 12.1465 20.8926 12.2515C20.873 12.3493 20.8458 12.447 20.8169 12.5508C20.772 12.7123 20.723 12.8884 20.6926 13.1014C20.6621 13.2264 20.6811 13.3614 20.7466 13.4714L20.7731 13.5115C20.7871 13.5315 20.8026 13.5515 20.8191 13.5665C20.8268 13.575 20.8346 13.5819 20.8427 13.589C20.8488 13.5944 20.8551 13.6 20.8616 13.6064C20.9141 13.6464 20.9756 13.6815 21.0426 13.7015C21.0936 13.7215 21.1381 13.7565 21.1731 13.8015C21.1891 13.8203 21.2024 13.8435 21.2135 13.8628L21.2156 13.8665C21.2276 13.8965 21.2371 13.9215 21.2426 13.9515C21.2616 14.0015 21.2666 14.0564 21.2576 14.1064C21.2491 14.1614 21.2266 14.2115 21.1926 14.2515C21.1406 14.2815 21.0961 14.3265 21.0626 14.3815C21.0286 14.4315 21.0061 14.4915 20.9966 14.5515C20.9916 14.5865 20.9901 14.6264 20.9931 14.6614L21.0001 14.7065L21.0076 14.7365C21.0241 14.7965 21.0531 14.8515 21.0926 14.9015C21.2636 15.1415 21.4476 15.3764 21.6426 15.6014C21.6806 15.6614 21.7321 15.7065 21.7931 15.7415C21.8541 15.7765 21.9226 15.7965 21.9926 15.8015C22.0666 15.7915 22.1391 15.7765 22.2071 15.7465C22.2366 15.7315 22.2651 15.7165 22.2926 15.7015C22.3126 15.6815 22.3361 15.6664 22.3621 15.6564C22.3881 15.6514 22.4156 15.6465 22.4426 15.6515C22.5926 15.6515 22.7926 15.8015 22.7926 15.9515C22.7896 16.0615 22.8291 16.1715 22.9036 16.2565C22.9781 16.3365 23.0811 16.3915 23.1926 16.4015ZM22.4926 13.4515C22.4966 13.1315 22.6241 12.8314 22.8486 12.6064C23.0726 12.3814 23.3756 12.2515 23.6926 12.2515C23.7581 12.2465 23.8236 12.2515 23.8876 12.2615L23.9681 12.2765C24.0316 12.2915 24.0936 12.3115 24.1541 12.3365C24.3006 12.3965 24.4341 12.4864 24.5456 12.5964L24.5926 12.6465L24.6391 12.7015L24.6641 12.7365C24.6843 12.7607 24.7028 12.7914 24.7206 12.8208C24.7248 12.8278 24.7289 12.8348 24.7331 12.8415C24.7606 12.8865 24.7846 12.9365 24.8051 12.9915C24.8281 13.0465 24.8461 13.1014 24.8601 13.1614C24.8686 13.1914 24.8751 13.2265 24.8801 13.2615C24.8891 13.3265 24.8936 13.3865 24.8926 13.4515C24.8971 13.5465 24.8881 13.6465 24.8666 13.7415C24.8531 13.8015 24.8346 13.8564 24.8111 13.9114C24.7511 14.0614 24.6591 14.1915 24.5426 14.3015C24.3061 14.5065 24.0071 14.6315 23.6926 14.6515C23.6571 14.6515 23.6211 14.6515 23.5856 14.6465C23.5406 14.6415 23.4961 14.6365 23.4521 14.6265C23.3771 14.6165 23.3031 14.5915 23.2316 14.5615C23.0856 14.5015 22.9531 14.4115 22.8426 14.3015C22.6351 14.0615 22.5121 13.7665 22.4926 13.4515ZM39.4071 8.58649C39.0316 8.21149 38.5231 8.00146 37.9926 8.00146H29.9926C29.8271 8.00146 29.6636 8.02146 29.5056 8.06146C29.1576 8.14646 28.8361 8.32649 28.5781 8.58649C28.2031 8.96149 27.9926 9.47147 27.9926 10.0015V26.0015C27.9926 26.5315 28.2031 27.0414 28.5781 27.4164C28.6361 27.4714 28.6966 27.5265 28.7601 27.5765C28.9036 27.6865 29.0606 27.7764 29.2271 27.8464C29.4676 27.9464 29.7271 28.0015 29.9926 28.0015H37.9926C38.0536 28.0015 38.1146 27.9965 38.1746 27.9915C38.2731 27.9815 38.3696 27.9665 38.4646 27.9415C38.8186 27.8565 39.1451 27.6764 39.4071 27.4164C39.7821 27.0414 39.9926 26.5315 39.9926 26.0015V10.0015C39.9926 9.77147 39.9531 9.54649 39.8786 9.33649C39.7801 9.05649 39.6201 8.80149 39.4071 8.58649ZM35.4636 25.3065C35.4871 25.3665 35.4971 25.4315 35.4926 25.5015V26.5015L35.4931 26.5515C35.4916 26.6015 35.4816 26.6515 35.4636 26.6965C35.4401 26.7615 35.4031 26.8165 35.3561 26.8615C35.3086 26.9114 35.2516 26.9464 35.1891 26.9714C35.1266 26.9964 35.0596 27.0065 34.9926 27.0015H32.9926C32.9256 27.0065 32.8586 26.9964 32.7961 26.9714C32.7336 26.9464 32.6766 26.9114 32.6291 26.8615C32.5981 26.8314 32.5721 26.7965 32.5506 26.7615L32.5336 26.7264L32.5216 26.6965C32.4981 26.6315 32.4881 26.5665 32.4926 26.5015V25.5015C32.4881 25.4315 32.4981 25.3665 32.5216 25.3065C32.5331 25.2715 32.5476 25.2415 32.5651 25.2165C32.5836 25.1865 32.6051 25.1615 32.6291 25.1365C32.6766 25.0915 32.7336 25.0515 32.7961 25.0265C32.8586 25.0065 32.9256 24.9965 32.9926 25.0015H34.9926C35.0596 24.9965 35.1266 25.0065 35.1891 25.0265C35.2516 25.0515 35.3086 25.0915 35.3561 25.1365C35.4031 25.1865 35.4401 25.2415 35.4636 25.3065ZM38.9926 11.0015V23.0015C38.9926 23.2665 38.8871 23.5215 38.6996 23.7065C38.5121 23.8965 38.2576 24.0015 37.9926 24.0015H29.9926C29.7276 24.0015 29.4731 23.8965 29.2856 23.7065C29.0981 23.5215 28.9926 23.2665 28.9926 23.0015V11.0015C28.9926 10.7365 29.0981 10.4814 29.2856 10.2914C29.3696 10.2114 29.4676 10.1415 29.5736 10.0915C29.6326 10.0665 29.6946 10.0415 29.7586 10.0265C29.8346 10.0115 29.9131 10.0015 29.9926 10.0015H37.9926C38.0676 10.0015 38.1416 10.0065 38.2136 10.0265C38.2856 10.0415 38.3556 10.0664 38.4221 10.0964C38.5241 10.1464 38.6181 10.2114 38.6996 10.2914C38.8871 10.4814 38.9926 10.7365 38.9926 11.0015ZM33.5926 19.4515C33.6871 19.4915 33.7901 19.5065 33.8926 19.5015L34.0926 19.6014H34.2426C34.2896 19.5764 34.3401 19.5615 34.3921 19.5515C34.4251 19.5465 34.4591 19.5465 34.4926 19.5515C34.5876 19.5315 34.6741 19.4864 34.7381 19.4114C34.8016 19.3414 34.8386 19.2465 34.8426 19.1515C34.8501 19.0765 34.8861 19.0115 34.9416 18.9665C34.9981 18.9165 35.0701 18.8965 35.1426 18.9015H35.1636H35.1637C35.1701 18.9015 35.1706 18.9015 35.1771 18.9114C35.1786 18.9124 35.1803 18.9138 35.1826 18.9155C35.1918 18.9225 35.2088 18.9354 35.2426 18.9515C35.2694 18.9649 35.2926 18.9783 35.3141 18.9907C35.3729 19.0247 35.4194 19.0515 35.4926 19.0515C35.5901 19.0265 35.6781 18.9765 35.7426 18.9015C35.9211 18.6915 36.0881 18.4765 36.2426 18.2515C36.2671 18.2165 36.2856 18.1765 36.2976 18.1365C36.3106 18.0865 36.3151 18.0415 36.3106 17.9915C36.3056 17.9415 36.2916 17.8964 36.2691 17.8514C36.2496 17.8164 36.2236 17.7815 36.1926 17.7515C36.0926 17.7015 36.0926 17.6015 36.0926 17.5015C36.1021 17.4465 36.1251 17.3914 36.1601 17.3514C36.1951 17.3064 36.2411 17.2715 36.2926 17.2515C36.3926 17.2515 36.5426 17.0515 36.5426 16.9015C36.5396 16.8863 36.5365 16.8711 36.5335 16.856C36.5186 16.7811 36.5037 16.7063 36.4871 16.6315C36.4506 16.4615 36.4071 16.2765 36.3426 16.0515C36.3231 15.9715 36.2771 15.9065 36.2131 15.8615C36.1491 15.8165 36.0711 15.7965 35.9926 15.8015H35.8926L35.8571 15.7964C35.8376 15.7964 35.8186 15.7914 35.8006 15.7864L35.7696 15.7715L35.7461 15.7615C35.7353 15.7553 35.725 15.7472 35.7154 15.7395C35.7094 15.7348 35.7036 15.7303 35.6981 15.7264C35.6756 15.7014 35.6566 15.6765 35.6426 15.6515C35.6337 15.6338 35.6249 15.6176 35.6166 15.6025C35.578 15.5322 35.5514 15.4838 35.5926 15.4015C35.6191 15.3565 35.6366 15.3115 35.6431 15.2615C35.6476 15.2315 35.6476 15.2014 35.6441 15.1714C35.6416 15.1514 35.6376 15.1365 35.6321 15.1165C35.6271 15.0965 35.6206 15.0815 35.6131 15.0665C35.5991 15.0365 35.5816 15.0114 35.5606 14.9865C35.5281 14.9515 35.4876 14.9215 35.4426 14.9015L34.7426 14.5515C34.7226 14.5315 34.6991 14.5165 34.6731 14.5065C34.6591 14.5015 34.6446 14.5015 34.6296 14.5015C34.6171 14.4965 34.6051 14.4965 34.5926 14.5015C34.5141 14.4965 34.4356 14.5114 34.3651 14.5464C34.2946 14.5814 34.2351 14.6315 34.1926 14.7015C34.1241 14.7615 34.0351 14.7965 33.9426 14.8015C33.9146 14.8015 33.8871 14.7964 33.8606 14.7864L33.8311 14.7715C33.8121 14.7615 33.7941 14.7515 33.7781 14.7365C33.7697 14.73 33.7618 14.7216 33.7544 14.7137C33.7503 14.7093 33.7463 14.7051 33.7426 14.7015C33.7271 14.6615 33.7051 14.6215 33.6786 14.5915L33.6546 14.5665C33.6391 14.5515 33.6226 14.5365 33.6046 14.5215C33.5696 14.4965 33.5311 14.4815 33.4906 14.4665C33.4591 14.4565 33.4261 14.4515 33.3926 14.4515C33.3221 14.4415 33.2516 14.4615 33.1926 14.5015L32.5926 14.8015C32.5676 14.8115 32.5441 14.8265 32.5221 14.8415C32.5076 14.8512 32.4939 14.8629 32.4809 14.8741C32.4738 14.8802 32.4668 14.8862 32.4601 14.8915C32.4226 14.9315 32.3936 14.9814 32.3751 15.0314C32.3566 15.0814 32.3481 15.1365 32.3516 15.1915C32.3546 15.2465 32.3681 15.3014 32.3926 15.3514L32.3941 15.3765C32.3946 15.3915 32.3931 15.4115 32.3896 15.4315C32.3826 15.4765 32.3666 15.5165 32.3426 15.5515C32.2781 15.6265 32.1901 15.6815 32.0926 15.7015H31.9926C31.9431 15.7015 31.8951 15.7114 31.8506 15.7314C31.8196 15.7464 31.7906 15.7664 31.7641 15.7864C31.7006 15.8414 31.6576 15.9165 31.6426 16.0015L31.6351 16.0315C31.61 16.1317 31.5845 16.2333 31.5591 16.3514C31.5371 16.4514 31.5146 16.5665 31.4926 16.7015C31.4741 16.7515 31.4681 16.8065 31.4736 16.8665C31.4796 16.9215 31.4971 16.9715 31.5256 17.0215C31.5339 17.0353 31.5429 17.0467 31.5526 17.059C31.5569 17.0646 31.5614 17.0703 31.5661 17.0765C31.5876 17.1015 31.6121 17.1215 31.6391 17.1415C31.6851 17.1715 31.7376 17.1915 31.7926 17.2015C31.8346 17.2165 31.8711 17.2415 31.8981 17.2765C31.9246 17.3115 31.9401 17.3565 31.9426 17.4015C31.9556 17.4865 31.9381 17.5765 31.8926 17.6515C31.8216 17.7465 31.7731 17.8415 31.7576 17.9265C31.7401 18.0265 31.7636 18.1215 31.8426 18.2015L32.2926 18.8015C32.3251 18.8465 32.3701 18.8864 32.4226 18.9164C32.4551 18.9314 32.4896 18.9415 32.5251 18.9465C32.5471 18.9515 32.5701 18.9515 32.5926 18.9515C32.6926 18.9515 32.7926 18.9014 32.8426 18.8514C32.8711 18.8214 32.8836 18.8115 32.8981 18.8065L32.9121 18.8015H32.9426C32.9836 18.8015 33.0241 18.8115 33.0611 18.8315C33.0871 18.8415 33.1121 18.8565 33.1346 18.8765C33.1666 18.9015 33.1926 18.9364 33.2121 18.9714C33.2256 18.9964 33.2361 19.0215 33.2426 19.0515C33.2476 19.1465 33.2846 19.2365 33.3481 19.3115C33.4116 19.3815 33.4981 19.4315 33.5926 19.4515ZM33.2856 16.2415C33.4731 16.0565 33.7276 15.9515 33.9926 15.9515C34.1171 15.9515 34.2396 15.9715 34.3536 16.0165C34.4821 16.0665 34.6001 16.1415 34.6996 16.2415C34.8876 16.4315 34.9926 16.6865 34.9926 16.9515C34.9861 17.2115 34.8786 17.4665 34.6926 17.6515C34.5066 17.8365 34.2556 17.9415 33.9926 17.9515C33.8631 17.9465 33.7361 17.9215 33.6191 17.8715C33.4981 17.8165 33.3871 17.7465 33.2926 17.6515C33.1066 17.4665 32.9991 17.2115 32.9926 16.9515C32.9926 16.8165 33.0186 16.6865 33.0681 16.5665C33.1181 16.4465 33.1916 16.3365 33.2856 16.2415Z" fill="black"/>
</svg>
