<svg width="48" height="30" viewBox="0 0 48 30" fill="none" xmlns="http://www.w3.org/2000/svg">
<path fill-rule="evenodd" clip-rule="evenodd" d="M1.99272 4V20.05C1.67272 20.115 1.36673 20.245 1.09323 20.43L1.09123 20.435C0.688734 20.71 0.375226 21.095 0.189226 21.545L0.186236 21.55C0.0817356 21.805 0.0202288 22.08 0.00422879 22.355C-0.0077713 22.56 0.00572915 22.77 0.0452292 22.975C0.138729 23.455 0.371731 23.9 0.715731 24.25C0.720231 24.255 2.68173 26.215 2.68323 26.215C3.24673 26.775 3.91623 27.22 4.65273 27.515H4.65422C5.38422 27.81 6.16523 27.96 6.95273 27.95H11.8048C11.8541 27.9506 11.9034 27.9506 11.9527 27.95H26.5017C26.6787 28.27 26.9012 28.565 27.1637 28.825C27.2787 28.94 27.3997 29.05 27.5262 29.145L27.5302 29.15C27.8162 29.375 28.1297 29.555 28.4622 29.695C28.9432 29.895 29.4622 30 29.9927 30H34.9927H37.9927H42.9927C43.1132 30 43.2327 29.995 43.3517 29.985C43.3557 29.98 43.3597 29.98 43.3637 29.98C43.5567 29.965 43.7477 29.93 43.9347 29.885H43.9372C44.6447 29.715 45.2977 29.35 45.8212 28.825C46.5712 28.075 46.9927 27.06 46.9927 26V10C46.9927 9.54 46.9142 9.08998 46.7647 8.66998L46.7642 8.66498C46.5667 8.10998 46.2467 7.59498 45.8207 7.16998C45.0702 6.41998 44.0532 6 42.9927 6H41.9927V4C41.9927 3.51 41.9037 3.03002 41.7347 2.58502L41.7307 2.59003L41.7092 2.52502L41.6887 2.47498L41.6847 2.46002L41.6692 2.42499L41.6627 2.40497L41.6567 2.39502L41.6472 2.37L41.6202 2.315C41.5742 2.215 41.5222 2.11501 41.4657 2.01501C41.2912 1.71001 41.0752 1.42498 40.8222 1.16998H40.8207C40.3947 0.744983 39.8832 0.42498 39.3267 0.22998L39.3237 0.224976C38.8997 0.0749756 38.4502 0 37.9927 0H32.9927H10.9927H5.99272C4.93172 0 3.91473 0.419983 3.16423 1.16998C2.41423 1.91998 1.99272 2.94 1.99272 4Z" fill="black"/>
<path fill-rule="evenodd" clip-rule="evenodd" d="M26.5929 22.45V22.4H26.6429L26.5929 22.45ZM26.5929 22.45V25.95H6.94286C6.41536 25.955 5.89136 25.86 5.40186 25.66C4.91236 25.465 4.46735 25.17 4.09285 24.8L2.14286 22.85C2.07436 22.78 2.02786 22.69 2.00936 22.595C2.00136 22.555 1.99836 22.51 2.00086 22.47C2.00386 22.415 2.01636 22.36 2.03736 22.31C2.07486 22.22 2.13786 22.14 2.21886 22.085C2.27886 22.045 2.34685 22.015 2.41835 22.005C2.44285 22 2.46785 22 2.49285 22H11.9928L13.4429 23.45C13.6189 23.645 13.8353 23.8 14.0768 23.9C14.3183 24.005 14.5799 24.055 14.8429 24.05H24.1929C24.7204 24.04 25.2234 23.825 25.5929 23.45L26.5929 22.45ZM5.99285 19H26.6429V21H3.99285V4C3.99285 3.47 4.20336 2.96002 4.57836 2.58502C4.95386 2.21002 5.46235 2 5.99285 2H32.9928C33.2218 2 33.4474 2.03999 33.6594 2.11499C33.9379 2.20999 34.1939 2.37002 34.4074 2.58502C34.5339 2.71002 34.6419 2.855 34.7294 3.005C34.7664 3.07 34.7994 3.13502 34.8284 3.20502L34.8638 3.28998C34.9483 3.51498 34.9928 3.755 34.9928 4V6.65002H32.9928V5C32.9928 4.93 32.9854 4.85497 32.9704 4.78497C32.9549 4.71497 32.9313 4.64502 32.9003 4.58002C32.8513 4.47502 32.7838 4.37498 32.6998 4.28998C32.6558 4.24498 32.6078 4.20999 32.5573 4.17499C32.5308 4.15499 32.5033 4.14 32.4753 4.125C32.4193 4.095 32.3609 4.06499 32.3004 4.04999C32.2019 4.01499 32.0983 4 31.9928 4H6.99285C6.89135 4 6.79085 4.01498 6.69585 4.04498C6.64435 4.05998 6.59436 4.07998 6.54586 4.10498C6.45036 4.14998 6.36235 4.21498 6.28585 4.28998C6.09835 4.47998 5.99285 4.735 5.99285 5V19ZM20.6384 10.22C20.6414 10.245 20.6429 10.27 20.6429 10.3V10.75C20.6429 10.82 20.6318 10.88 20.6203 10.935L20.6178 10.95C20.6058 11.01 20.5929 11.075 20.5929 11.15C20.5814 11.2 20.5638 11.255 20.5403 11.3C20.5253 11.335 20.5078 11.365 20.4883 11.39C20.4733 11.415 20.4574 11.435 20.4399 11.455C20.4254 11.475 20.4099 11.49 20.3934 11.505L20.3609 11.535C20.3154 11.575 20.2659 11.605 20.2134 11.63C20.1294 11.67 20.0374 11.695 19.9429 11.7C19.8429 11.74 19.7564 11.81 19.6944 11.895C19.6324 11.985 19.5969 12.09 19.5929 12.2C19.5929 12.3 19.5929 12.35 19.6429 12.4C19.6674 12.43 19.6889 12.46 19.7079 12.495C19.7194 12.515 19.7304 12.535 19.7399 12.56C19.7484 12.58 19.7564 12.6 19.7629 12.625C19.7694 12.645 19.7748 12.665 19.7793 12.685C19.7868 12.72 19.7919 12.76 19.7929 12.8C19.7874 12.865 19.7709 12.93 19.7439 12.99C19.7274 13.03 19.7068 13.065 19.6823 13.1L19.6514 13.14C19.6334 13.16 19.6139 13.18 19.5929 13.2L19.4664 13.305C19.1969 13.53 18.8949 13.785 18.5929 14C18.4694 14.08 18.3209 14.115 18.1744 14.095C18.0279 14.08 17.8924 14.01 17.7929 13.9C17.7539 13.83 17.6928 13.78 17.6198 13.75C17.5468 13.725 17.4664 13.725 17.3929 13.75C17.3034 13.75 17.2169 13.78 17.1454 13.835C17.0739 13.89 17.0203 13.965 16.9928 14.05C16.9488 14.17 16.8669 14.275 16.7589 14.35C16.6509 14.42 16.5229 14.455 16.3929 14.45C16.1039 14.405 15.8169 14.35 15.5334 14.28C15.3689 14.24 15.2054 14.2 15.0429 14.15C14.9194 14.125 14.8089 14.055 14.7349 13.95C14.6609 13.85 14.6279 13.725 14.6429 13.6V13.45C14.6469 13.37 14.6304 13.295 14.5954 13.225C14.5604 13.15 14.5079 13.095 14.4429 13.05C14.3204 12.985 14.1779 12.965 14.0429 13C13.9099 13.06 13.7574 13.07 13.6174 13.025C13.4779 12.98 13.3614 12.88 13.2929 12.75C13.1739 12.54 13.0618 12.33 12.9563 12.115C12.9203 12.04 12.8854 11.965 12.8514 11.89L12.7929 11.76L12.7428 11.65C12.6973 11.575 12.6799 11.485 12.6929 11.4C12.6919 11.345 12.6978 11.295 12.7103 11.245C12.7258 11.185 12.7509 11.125 12.7849 11.07C12.8069 11.035 12.8328 11.005 12.8613 10.975C12.9128 10.925 12.9744 10.88 13.0429 10.85C13.1344 10.755 13.1859 10.63 13.1859 10.5C13.1859 10.37 13.1344 10.24 13.0429 10.15C12.9369 10.1 12.8469 10.025 12.7849 9.92499C12.7229 9.82999 12.6904 9.71498 12.6929 9.59998C12.6849 9.49498 12.7018 9.39499 12.7428 9.29999C12.8623 8.95499 13.0134 8.61999 13.1929 8.29999L13.2099 8.26501L13.2258 8.23999C13.2403 8.21499 13.2558 8.19498 13.2733 8.16998C13.2968 8.13998 13.3229 8.11503 13.3514 8.09003C13.4179 8.03003 13.4953 7.98502 13.5793 7.96002C13.6168 7.94502 13.6554 7.93499 13.6944 7.92999C13.7424 7.92499 13.7914 7.92499 13.8404 7.92499C13.8779 7.92999 13.9153 7.93501 13.9518 7.94501C14.0008 7.95501 14.0479 7.975 14.0929 8C14.2174 8.005 14.3414 7.97002 14.4429 7.90002C14.5079 7.86502 14.5643 7.815 14.6073 7.75C14.6503 7.69 14.6799 7.61999 14.6929 7.54999V7.34998C14.6944 7.27498 14.7109 7.2 14.7404 7.13C14.7614 7.085 14.7888 7.035 14.8228 6.995C14.9043 6.895 15.0169 6.82499 15.1429 6.79999C15.2264 6.77499 15.3103 6.75499 15.3958 6.73499L15.5604 6.70001L15.8194 6.64502C15.9664 6.62002 16.1224 6.58499 16.2929 6.54999C16.3234 6.53999 16.3549 6.53002 16.3864 6.52502C16.4394 6.51502 16.4934 6.51502 16.5479 6.52002C16.6339 6.53002 16.7168 6.55497 16.7923 6.59497C16.8678 6.63997 16.9334 6.69501 16.9849 6.76501C17.0369 6.83501 17.0739 6.915 17.0929 7C17.0929 7.1 17.2429 7.2 17.3929 7.25C17.5339 7.27 17.6779 7.23502 17.7929 7.15002C17.8484 7.08502 17.9169 7.03 17.9924 6.995C18.0564 6.96 18.1259 6.93999 18.1984 6.92999C18.3559 6.91499 18.5144 6.95499 18.6429 7.04999C18.8969 7.22999 19.1249 7.40997 19.3459 7.59497L19.5929 7.79999C19.6654 7.84999 19.7258 7.92 19.7688 7.995C19.8123 8.075 19.8374 8.16 19.8429 8.25C19.8379 8.395 19.7854 8.53502 19.6929 8.65002C19.6739 8.67002 19.6594 8.69497 19.6509 8.71997C19.6424 8.74497 19.6394 8.76999 19.6429 8.79999C19.6429 9.04999 19.7928 9.29999 19.9928 9.29999C20.1408 9.30499 20.2823 9.36503 20.3913 9.46503C20.5008 9.56503 20.5724 9.69998 20.5929 9.84998C20.5929 9.87498 20.5944 9.89999 20.5969 9.92999C20.6019 9.97499 20.6098 10.025 20.6178 10.075L20.6288 10.14L20.6384 10.22ZM15.4739 9.38C15.1764 9.68 15.0038 10.08 14.9928 10.5C14.9858 10.7 15.0219 10.905 15.0979 11.095C15.1224 11.155 15.1509 11.21 15.1834 11.265C15.2514 11.385 15.3359 11.495 15.4354 11.595C15.4694 11.625 15.5049 11.655 15.5419 11.685L15.5963 11.725C15.6233 11.745 15.6503 11.765 15.6783 11.78C15.7628 11.835 15.8524 11.88 15.9459 11.915C16.1369 11.985 16.3399 12.01 16.5429 12C16.7549 12.005 16.9658 11.97 17.1633 11.89C17.3608 11.815 17.5409 11.695 17.6929 11.55C17.8364 11.405 17.9503 11.235 18.0273 11.045C18.1048 10.855 18.1439 10.655 18.1429 10.45C18.1434 10.33 18.1304 10.21 18.1044 10.095C18.0854 10.015 18.0598 9.93498 18.0273 9.85498C18.0003 9.78998 17.9694 9.72497 17.9334 9.65997C17.8674 9.54997 17.7864 9.44498 17.6929 9.34998C17.6744 9.32998 17.6554 9.30998 17.6359 9.29498L17.5754 9.23999L17.5204 9.19501C17.4194 9.12001 17.3084 9.05501 17.1904 9.01001C17.0009 8.93001 16.7974 8.89502 16.5929 8.90002C16.1719 8.91002 15.7719 9.085 15.4739 9.38ZM23.3678 16.425C23.3053 16.41 23.2429 16.4 23.1929 16.4C23.0814 16.39 22.9784 16.335 22.9039 16.255C22.8294 16.17 22.7899 16.06 22.7929 15.95C22.7929 15.8 22.5929 15.65 22.4429 15.65C22.4159 15.645 22.3884 15.65 22.3624 15.655C22.3364 15.665 22.3129 15.68 22.2929 15.7C22.2654 15.715 22.2369 15.73 22.2074 15.745C22.1394 15.775 22.0668 15.79 21.9928 15.8C21.9228 15.795 21.8544 15.775 21.7934 15.74C21.7324 15.705 21.6809 15.66 21.6429 15.6C21.4479 15.375 21.2639 15.14 21.0929 14.9C21.0534 14.85 21.0243 14.795 21.0078 14.735L21.0004 14.705L20.9934 14.66C20.9904 14.625 20.9919 14.585 20.9969 14.55C21.0064 14.49 21.0289 14.43 21.0629 14.38C21.0964 14.325 21.1409 14.28 21.1929 14.25C21.2269 14.21 21.2493 14.16 21.2578 14.105C21.2668 14.055 21.2618 14 21.2428 13.95C21.2373 13.92 21.2279 13.895 21.2159 13.865C21.2044 13.845 21.1904 13.82 21.1734 13.8C21.1384 13.755 21.0939 13.72 21.0429 13.7C20.9759 13.68 20.9144 13.645 20.8619 13.605C20.8469 13.59 20.8329 13.58 20.8194 13.565C20.8029 13.55 20.7873 13.53 20.7733 13.51L20.7469 13.47C20.6814 13.36 20.6624 13.225 20.6929 13.1C20.7429 12.75 20.8429 12.5 20.8929 12.25C20.9144 12.145 20.9714 12.055 21.0539 11.99C21.1364 11.925 21.2389 11.895 21.3429 11.9H21.4928C21.5928 11.9 21.6929 11.8 21.7929 11.7C21.8504 11.64 21.8749 11.585 21.8759 11.535C21.8769 11.5 21.8644 11.47 21.8429 11.45C21.8229 11.41 21.8084 11.37 21.7994 11.33L21.7934 11.3L21.7894 11.26C21.7854 11.195 21.7954 11.13 21.8194 11.065C21.8429 11.005 21.8794 10.95 21.9269 10.905C21.9739 10.855 22.0309 10.82 22.0929 10.8C22.3329 10.66 22.5839 10.545 22.8429 10.45C22.8429 10.5 22.9428 10.5 22.9928 10.5C23.0888 10.5 23.1824 10.53 23.2619 10.585C23.3044 10.61 23.3419 10.645 23.3734 10.685C23.3839 10.695 23.3939 10.71 23.4029 10.725C23.4119 10.74 23.4199 10.75 23.4279 10.765L23.4429 10.8C23.5114 10.86 23.6004 10.895 23.6929 10.9C23.7524 10.905 23.8123 10.895 23.8658 10.87C23.9193 10.845 23.9633 10.8 23.9928 10.75C24.0258 10.67 24.0819 10.605 24.1534 10.56C24.2249 10.515 24.3089 10.495 24.3929 10.5C24.4634 10.49 24.5344 10.51 24.5929 10.55C24.7559 10.615 24.9193 10.7 25.0963 10.795L25.1174 10.805L25.1523 10.825L25.3929 10.95C25.4914 10.995 25.5669 11.08 25.6044 11.185C25.6214 11.23 25.6299 11.28 25.6294 11.33C25.6294 11.385 25.6174 11.445 25.5929 11.5C25.5764 11.55 25.5728 11.605 25.5813 11.655C25.5898 11.705 25.6114 11.755 25.6429 11.8C25.6634 11.83 25.6879 11.855 25.7154 11.875C25.7334 11.89 25.7534 11.9 25.7739 11.91C25.8264 11.94 25.8844 11.95 25.9429 11.95H26.0929C26.1849 11.94 26.2759 11.97 26.3494 12.025C26.4229 12.08 26.4738 12.16 26.4928 12.25C26.5393 12.39 26.5784 12.54 26.6099 12.685C26.6499 12.87 26.6779 13.06 26.6929 13.25C26.7184 13.35 26.6788 13.455 26.6138 13.535C26.5518 13.615 26.4664 13.675 26.3929 13.7C26.3389 13.715 26.2979 13.74 26.2654 13.77C26.2069 13.825 26.1749 13.9 26.1429 14C26.1204 14.055 26.1179 14.115 26.1369 14.17C26.1459 14.195 26.1594 14.22 26.1774 14.24C26.1954 14.265 26.2173 14.285 26.2428 14.3C26.2873 14.335 26.3244 14.375 26.3514 14.425C26.3779 14.475 26.3944 14.53 26.3989 14.59C26.4004 14.605 26.4008 14.62 26.4003 14.635C26.3988 14.675 26.3919 14.715 26.3784 14.755C26.3604 14.81 26.3314 14.855 26.2929 14.9C26.1179 15.17 25.9169 15.42 25.6929 15.65C25.6599 15.7 25.6154 15.735 25.5629 15.765C25.5104 15.79 25.4514 15.8 25.3929 15.8C25.2869 15.79 25.1844 15.755 25.0929 15.7C25.0839 15.69 25.0744 15.68 25.0634 15.675C25.0509 15.67 25.0373 15.66 25.0233 15.655C24.9978 15.65 24.9704 15.645 24.9429 15.65C24.8574 15.645 24.7733 15.675 24.7083 15.73C24.6428 15.785 24.6019 15.865 24.5929 15.95C24.5429 16.2 24.3929 16.4 24.1429 16.4C24.0429 16.4 23.9429 16.45 23.8429 16.45H23.5429L23.4993 16.445L23.4608 16.44L23.3678 16.425ZM22.8489 12.605C22.6244 12.83 22.4968 13.13 22.4928 13.45C22.5123 13.765 22.6354 14.06 22.8429 14.3C22.9534 14.41 23.0858 14.5 23.2318 14.56C23.3033 14.59 23.3774 14.615 23.4524 14.625C23.4964 14.635 23.5408 14.64 23.5858 14.645C23.6213 14.65 23.6574 14.65 23.6929 14.65C24.0074 14.63 24.3064 14.505 24.5429 14.3C24.6594 14.19 24.7514 14.06 24.8114 13.91C24.8349 13.855 24.8534 13.8 24.8669 13.74C24.8884 13.645 24.8974 13.545 24.8929 13.45C24.8939 13.385 24.8894 13.325 24.8804 13.26C24.8754 13.225 24.8689 13.19 24.8604 13.16C24.8464 13.1 24.8283 13.045 24.8053 12.99C24.7848 12.935 24.7609 12.885 24.7334 12.84C24.7119 12.805 24.6894 12.765 24.6644 12.735L24.6393 12.7L24.5929 12.645L24.5459 12.595C24.4344 12.485 24.3008 12.395 24.1543 12.335C24.0938 12.31 24.0319 12.29 23.9684 12.275L23.8879 12.26C23.8239 12.25 23.7584 12.245 23.6929 12.25C23.3759 12.25 23.0729 12.38 22.8489 12.605ZM37.9928 8C38.5233 8 39.0319 8.21002 39.4074 8.58502C39.6204 8.80002 39.7803 9.05502 39.8788 9.33502C39.9533 9.54502 39.9928 9.77 39.9928 10V26C39.9928 26.53 39.7824 27.04 39.4074 27.415C39.1454 27.675 38.8188 27.855 38.4648 27.94C38.3698 27.965 38.2734 27.98 38.1749 27.99C38.1149 27.995 38.0538 28 37.9928 28H29.9928C29.7273 28 29.4679 27.945 29.2274 27.845C29.0609 27.775 28.9038 27.685 28.7603 27.575C28.6968 27.525 28.6364 27.47 28.5784 27.415C28.2034 27.04 27.9928 26.53 27.9928 26V10C27.9928 9.47 28.2034 8.96002 28.5784 8.58502C28.8364 8.32502 29.1578 8.145 29.5058 8.06C29.6638 8.02 29.8273 8 29.9928 8H37.9928ZM35.4928 26.5V25.5C35.4973 25.43 35.4874 25.365 35.4639 25.305C35.4404 25.24 35.4034 25.185 35.3564 25.135C35.3089 25.09 35.2519 25.05 35.1894 25.025C35.1269 25.005 35.0598 24.995 34.9928 25H32.9928C32.9258 24.995 32.8589 25.005 32.7964 25.025C32.7339 25.05 32.6769 25.09 32.6294 25.135C32.6054 25.16 32.5839 25.185 32.5654 25.215C32.5479 25.24 32.5334 25.27 32.5219 25.305C32.4984 25.365 32.4883 25.43 32.4928 25.5V26.5C32.4883 26.565 32.4984 26.63 32.5219 26.695L32.5338 26.725L32.5508 26.76C32.5723 26.795 32.5984 26.83 32.6294 26.86C32.6769 26.91 32.7339 26.945 32.7964 26.97C32.8589 26.995 32.9258 27.005 32.9928 27H34.9928C35.0598 27.005 35.1269 26.995 35.1894 26.97C35.2519 26.945 35.3089 26.91 35.3564 26.86C35.4034 26.815 35.4404 26.76 35.4639 26.695C35.4819 26.65 35.4919 26.6 35.4934 26.55L35.4928 26.5ZM38.9928 23V11C38.9928 10.735 38.8873 10.48 38.6998 10.29C38.6183 10.21 38.5244 10.145 38.4224 10.095C38.3559 10.065 38.2859 10.04 38.2139 10.025C38.1419 10.005 38.0678 10 37.9928 10H29.9928C29.9133 10 29.8349 10.01 29.7589 10.025C29.6949 10.04 29.6329 10.065 29.5739 10.09C29.4679 10.14 29.3698 10.21 29.2858 10.29C29.0983 10.48 28.9928 10.735 28.9928 11V23C28.9928 23.265 29.0983 23.52 29.2858 23.705C29.4733 23.895 29.7278 24 29.9928 24H37.9928C38.2578 24 38.5123 23.895 38.6998 23.705C38.8873 23.52 38.9928 23.265 38.9928 23ZM33.8929 19.5C33.7904 19.505 33.6874 19.49 33.5929 19.45C33.4984 19.43 33.4118 19.38 33.3483 19.31C33.2848 19.235 33.2478 19.145 33.2428 19.05C33.2363 19.02 33.2259 18.995 33.2124 18.97C33.1929 18.935 33.1668 18.9 33.1348 18.875C33.1123 18.855 33.0874 18.84 33.0614 18.83C33.0244 18.81 32.9839 18.8 32.9429 18.8H32.9124L32.8983 18.805C32.8838 18.81 32.8714 18.82 32.8429 18.85C32.7929 18.9 32.6929 18.95 32.5929 18.95C32.5704 18.95 32.5473 18.95 32.5253 18.945C32.4898 18.94 32.4554 18.93 32.4229 18.915C32.3704 18.885 32.3254 18.845 32.2929 18.8L31.8429 18.2C31.7639 18.12 31.7403 18.025 31.7578 17.925C31.7733 17.84 31.8219 17.745 31.8929 17.65C31.9384 17.575 31.9559 17.485 31.9429 17.4C31.9404 17.355 31.9248 17.31 31.8983 17.275C31.8713 17.24 31.8349 17.215 31.7929 17.2C31.7379 17.19 31.6853 17.17 31.6393 17.14C31.6123 17.12 31.5878 17.1 31.5663 17.075C31.5513 17.055 31.5379 17.04 31.5259 17.02C31.4974 16.97 31.4799 16.92 31.4739 16.865C31.4684 16.805 31.4743 16.75 31.4928 16.7C31.5148 16.565 31.5374 16.45 31.5594 16.35C31.5874 16.22 31.6154 16.11 31.6429 16C31.6579 15.915 31.7008 15.84 31.7643 15.785C31.7908 15.765 31.8198 15.745 31.8508 15.73C31.8953 15.71 31.9433 15.7 31.9928 15.7H32.0929C32.1904 15.68 32.2784 15.625 32.3429 15.55C32.3669 15.515 32.3829 15.475 32.3899 15.43C32.3934 15.41 32.3949 15.39 32.3944 15.375L32.3929 15.35C32.3684 15.3 32.3549 15.245 32.3519 15.19C32.3484 15.135 32.3569 15.08 32.3754 15.03C32.3939 14.98 32.4228 14.93 32.4603 14.89C32.4793 14.875 32.4999 14.855 32.5224 14.84C32.5444 14.825 32.5679 14.81 32.5929 14.8L33.1929 14.5C33.2519 14.46 33.3224 14.44 33.3929 14.45C33.4264 14.45 33.4593 14.455 33.4908 14.465C33.5313 14.48 33.5698 14.495 33.6048 14.52C33.6228 14.535 33.6394 14.55 33.6549 14.565L33.6789 14.59C33.7054 14.62 33.7273 14.66 33.7428 14.7C33.7533 14.71 33.7654 14.725 33.7784 14.735C33.7944 14.75 33.8123 14.76 33.8313 14.77L33.8609 14.785C33.8874 14.795 33.9149 14.8 33.9429 14.8C34.0354 14.795 34.1244 14.76 34.1929 14.7C34.2354 14.63 34.2949 14.58 34.3654 14.545C34.4359 14.51 34.5144 14.495 34.5929 14.5C34.6054 14.495 34.6174 14.495 34.6299 14.5C34.6449 14.5 34.6594 14.5 34.6734 14.505C34.6994 14.515 34.7228 14.53 34.7428 14.55L35.4429 14.9C35.4879 14.92 35.5284 14.95 35.5609 14.985C35.5819 15.01 35.5993 15.035 35.6133 15.065C35.6208 15.08 35.6274 15.095 35.6324 15.115C35.6379 15.135 35.6419 15.15 35.6444 15.17C35.6479 15.2 35.6479 15.23 35.6434 15.26C35.6369 15.31 35.6194 15.355 35.5929 15.4C35.5429 15.5 35.5929 15.55 35.6429 15.65C35.6569 15.675 35.6759 15.7 35.6984 15.725C35.7129 15.735 35.7289 15.75 35.7464 15.76L35.7699 15.77L35.8008 15.785C35.8188 15.79 35.8378 15.795 35.8573 15.795L35.8929 15.8H35.9928C36.0713 15.795 36.1494 15.815 36.2134 15.86C36.2774 15.905 36.3234 15.97 36.3429 16.05C36.4074 16.275 36.4509 16.46 36.4874 16.63C36.5074 16.72 36.5249 16.81 36.5429 16.9C36.5429 17.05 36.3929 17.25 36.2929 17.25C36.2414 17.27 36.1954 17.305 36.1604 17.35C36.1254 17.39 36.1024 17.445 36.0929 17.5C36.0929 17.6 36.0929 17.7 36.1929 17.75C36.2239 17.78 36.2499 17.815 36.2694 17.85C36.2919 17.895 36.3059 17.94 36.3109 17.99C36.3154 18.04 36.3109 18.085 36.2979 18.135C36.2859 18.175 36.2673 18.215 36.2428 18.25C36.0883 18.475 35.9213 18.69 35.7428 18.9C35.6783 18.975 35.5903 19.025 35.4928 19.05C35.3928 19.05 35.3428 19 35.2428 18.95C35.2008 18.93 35.1849 18.915 35.1774 18.91C35.1709 18.9 35.1704 18.9 35.1639 18.9H35.1429C35.0704 18.895 34.9984 18.915 34.9419 18.965C34.8864 19.01 34.8504 19.075 34.8429 19.15C34.8389 19.245 34.8018 19.34 34.7383 19.41C34.6743 19.485 34.5878 19.53 34.4928 19.55C34.4593 19.545 34.4254 19.545 34.3924 19.55C34.3404 19.56 34.2898 19.575 34.2428 19.6H34.0929L33.8929 19.5ZM33.9928 15.95C33.7278 15.95 33.4733 16.055 33.2858 16.24C33.1918 16.335 33.1183 16.445 33.0683 16.565C33.0188 16.685 32.9928 16.815 32.9928 16.95C32.9993 17.21 33.1069 17.465 33.2929 17.65C33.3874 17.745 33.4984 17.815 33.6194 17.87C33.7364 17.92 33.8633 17.945 33.9928 17.95C34.2558 17.94 34.5069 17.835 34.6929 17.65C34.8789 17.465 34.9863 17.21 34.9928 16.95C34.9928 16.685 34.8878 16.43 34.6998 16.24C34.6003 16.14 34.4824 16.065 34.3539 16.015C34.2399 15.97 34.1173 15.95 33.9928 15.95Z" fill="white"/>
</svg>
