<svg width="55" height="31" viewBox="0 0 55 31" fill="none" xmlns="http://www.w3.org/2000/svg">
<path fill-rule="evenodd" clip-rule="evenodd" d="M5.99272 4.50732V20.5573C5.67272 20.6223 5.36673 20.7523 5.09323 20.9373L5.09123 20.9423C4.68873 21.2173 4.37523 21.6023 4.18923 22.0523L4.18624 22.0573C4.08174 22.3123 4.02023 22.5873 4.00423 22.8623C3.99223 23.0673 4.00573 23.2773 4.04523 23.4823C4.13873 23.9623 4.37173 24.4073 4.71573 24.7573C4.72023 24.7623 6.68173 26.7224 6.68323 26.7224C7.24673 27.2824 7.91623 27.7273 8.65273 28.0223H8.65422C9.38422 28.3173 10.1652 28.4673 10.9527 28.4573H15.8048C15.8541 28.458 15.9034 28.458 15.9527 28.4573H30.5017C30.6787 28.7773 30.9012 29.0723 31.1637 29.3323C31.2787 29.4473 31.3997 29.5573 31.5262 29.6523L31.5302 29.6573C31.8162 29.8823 32.1297 30.0623 32.4622 30.2023C32.9432 30.4023 33.4622 30.5073 33.9927 30.5073H38.9927H41.9927H46.9927C47.1132 30.5073 47.2327 30.5023 47.3517 30.4923C47.3557 30.4873 47.3597 30.4873 47.3637 30.4873C47.5567 30.4723 47.7477 30.4373 47.9347 30.3923H47.9372C48.6447 30.2223 49.2977 29.8573 49.8212 29.3323C50.5712 28.5823 50.9927 27.5673 50.9927 26.5073V10.5073C50.9927 10.0473 50.9142 9.59731 50.7647 9.17731L50.7642 9.1723C50.5667 8.6173 50.2467 8.10231 49.8207 7.67731C49.0702 6.92731 48.0532 6.50732 46.9927 6.50732H45.9927V4.50732C45.9927 4.01732 45.9037 3.53735 45.7347 3.09235L45.7307 3.09735L45.7092 3.03235L45.6887 2.9823L45.6847 2.96735L45.6692 2.93231L45.6627 2.91229L45.6567 2.90234L45.6472 2.87732L45.6202 2.82233C45.5742 2.72233 45.5222 2.62234 45.4657 2.52234C45.2912 2.21734 45.0752 1.93231 44.8222 1.67731H44.8207C44.3947 1.25231 43.8832 0.932305 43.3267 0.737305L43.3237 0.7323C42.8997 0.5823 42.4502 0.507324 41.9927 0.507324H36.9927H14.9927H9.99272C8.93172 0.507324 7.91473 0.927307 7.16423 1.67731C6.41423 2.42731 5.99272 3.44732 5.99272 4.50732Z" fill="black"/>
<path fill-rule="evenodd" clip-rule="evenodd" d="M30.5929 22.9573V22.9073H30.6429L30.5929 22.9573ZM30.5929 22.9573V26.4573H10.9429C10.4154 26.4623 9.89136 26.3673 9.40186 26.1673C8.91236 25.9723 8.46735 25.6773 8.09285 25.3073L6.14286 23.3573C6.07436 23.2873 6.02786 23.1973 6.00936 23.1023C6.00136 23.0623 5.99836 23.0173 6.00086 22.9773C6.00386 22.9223 6.01636 22.8673 6.03736 22.8173C6.07486 22.7273 6.13786 22.6473 6.21886 22.5923C6.27886 22.5523 6.34685 22.5223 6.41835 22.5123C6.44285 22.5073 6.46785 22.5073 6.49285 22.5073H15.9928L17.4429 23.9573C17.6189 24.1523 17.8353 24.3073 18.0768 24.4073C18.3183 24.5123 18.5799 24.5623 18.8429 24.5573H28.1929C28.7204 24.5473 29.2234 24.3323 29.5929 23.9573L30.5929 22.9573ZM9.99285 19.5073H30.6429V21.5073H7.99285V4.50732C7.99285 3.97732 8.20336 3.46735 8.57836 3.09235C8.95386 2.71735 9.46235 2.50732 9.99285 2.50732H36.9928C37.2218 2.50732 37.4474 2.54731 37.6594 2.62231C37.9379 2.71731 38.1939 2.87735 38.4074 3.09235C38.5339 3.21735 38.6419 3.36233 38.7294 3.51233C38.7664 3.57733 38.7994 3.64234 38.8284 3.71234L38.8638 3.7973C38.9483 4.0223 38.9928 4.26232 38.9928 4.50732V7.15735H36.9928V5.50732C36.9928 5.43732 36.9854 5.3623 36.9704 5.2923C36.9549 5.2223 36.9313 5.15234 36.9003 5.08734C36.8513 4.98234 36.7838 4.8823 36.6998 4.7973C36.6558 4.7523 36.6078 4.71731 36.5573 4.68231C36.5308 4.66231 36.5033 4.64732 36.4753 4.63232C36.4193 4.60232 36.3609 4.57231 36.3004 4.55731C36.2019 4.52231 36.0983 4.50732 35.9928 4.50732H10.9928C10.8913 4.50732 10.7909 4.52231 10.6959 4.55231C10.6444 4.56731 10.5944 4.5873 10.5459 4.6123C10.4504 4.6573 10.3623 4.7223 10.2858 4.7973C10.0983 4.9873 9.99285 5.24232 9.99285 5.50732V19.5073ZM24.6384 10.7273C24.6414 10.7523 24.6429 10.7773 24.6429 10.8073V11.2573C24.6429 11.3273 24.6318 11.3873 24.6203 11.4423L24.6178 11.4573C24.6058 11.5173 24.5929 11.5823 24.5929 11.6573C24.5814 11.7073 24.5638 11.7623 24.5403 11.8073C24.5253 11.8423 24.5078 11.8723 24.4883 11.8973C24.4733 11.9223 24.4574 11.9423 24.4399 11.9623C24.4254 11.9823 24.4099 11.9973 24.3934 12.0123L24.3609 12.0423C24.3154 12.0823 24.2659 12.1123 24.2134 12.1373C24.1294 12.1773 24.0374 12.2023 23.9429 12.2073C23.8429 12.2473 23.7564 12.3173 23.6944 12.4023C23.6324 12.4923 23.5969 12.5973 23.5929 12.7073C23.5929 12.8073 23.5929 12.8573 23.6429 12.9073C23.6674 12.9373 23.6889 12.9673 23.7079 13.0023C23.7194 13.0223 23.7304 13.0423 23.7399 13.0673C23.7484 13.0873 23.7564 13.1073 23.7629 13.1323C23.7694 13.1523 23.7748 13.1723 23.7793 13.1923C23.7868 13.2273 23.7919 13.2673 23.7929 13.3073C23.7874 13.3723 23.7709 13.4373 23.7439 13.4973C23.7274 13.5373 23.7068 13.5723 23.6823 13.6073L23.6514 13.6473C23.6334 13.6673 23.6139 13.6873 23.5929 13.7073L23.4664 13.8123C23.1969 14.0373 22.8949 14.2923 22.5929 14.5073C22.4694 14.5873 22.3209 14.6223 22.1744 14.6023C22.0279 14.5873 21.8924 14.5173 21.7929 14.4073C21.7539 14.3373 21.6928 14.2873 21.6198 14.2573C21.5468 14.2323 21.4664 14.2323 21.3929 14.2573C21.3034 14.2573 21.2169 14.2873 21.1454 14.3423C21.0739 14.3973 21.0203 14.4723 20.9928 14.5573C20.9488 14.6773 20.8669 14.7823 20.7589 14.8573C20.6509 14.9273 20.5229 14.9623 20.3929 14.9573C20.1039 14.9123 19.8169 14.8573 19.5334 14.7873C19.3689 14.7473 19.2054 14.7073 19.0429 14.6573C18.9194 14.6323 18.8089 14.5623 18.7349 14.4573C18.6609 14.3573 18.6279 14.2323 18.6429 14.1073V13.9573C18.6469 13.8773 18.6304 13.8023 18.5954 13.7323C18.5604 13.6573 18.5079 13.6023 18.4429 13.5573C18.3204 13.4923 18.1779 13.4723 18.0429 13.5073C17.9099 13.5673 17.7574 13.5773 17.6174 13.5323C17.4779 13.4873 17.3614 13.3873 17.2929 13.2573C17.1739 13.0473 17.0618 12.8373 16.9563 12.6223C16.9203 12.5473 16.8854 12.4723 16.8514 12.3973L16.7929 12.2673L16.7428 12.1573C16.6973 12.0823 16.6799 11.9923 16.6929 11.9073C16.6919 11.8523 16.6978 11.8023 16.7103 11.7523C16.7258 11.6923 16.7509 11.6323 16.7849 11.5773C16.8069 11.5423 16.8328 11.5123 16.8613 11.4823C16.9128 11.4323 16.9744 11.3873 17.0429 11.3573C17.1344 11.2623 17.1859 11.1373 17.1859 11.0073C17.1859 10.8773 17.1344 10.7473 17.0429 10.6573C16.9369 10.6073 16.8469 10.5323 16.7849 10.4323C16.7229 10.3373 16.6904 10.2223 16.6929 10.1073C16.6849 10.0023 16.7018 9.90231 16.7428 9.80731C16.8623 9.46231 17.0134 9.12731 17.1929 8.80731L17.2099 8.77234L17.2258 8.74731C17.2403 8.72231 17.2558 8.70231 17.2733 8.67731C17.2968 8.64731 17.3229 8.62235 17.3514 8.59735C17.4179 8.53735 17.4953 8.49235 17.5793 8.46735C17.6168 8.45235 17.6554 8.44232 17.6944 8.43732C17.7424 8.43232 17.7914 8.43231 17.8404 8.43231C17.8779 8.43731 17.9153 8.44233 17.9518 8.45233C18.0008 8.46233 18.0479 8.48232 18.0929 8.50732C18.2174 8.51232 18.3414 8.47735 18.4429 8.40735C18.5079 8.37235 18.5643 8.32232 18.6073 8.25732C18.6503 8.19732 18.6799 8.12731 18.6929 8.05731V7.8573C18.6944 7.7823 18.7109 7.70733 18.7404 7.63733C18.7614 7.59233 18.7888 7.54232 18.8228 7.50232C18.9043 7.40232 19.0169 7.33231 19.1429 7.30731C19.2264 7.28231 19.3103 7.26231 19.3958 7.24231L19.5604 7.20734L19.8194 7.15234C19.9664 7.12734 20.1224 7.09231 20.2929 7.05731C20.3234 7.04731 20.3549 7.03735 20.3864 7.03235C20.4394 7.02235 20.4934 7.02234 20.5479 7.02734C20.6339 7.03734 20.7168 7.06229 20.7923 7.10229C20.8678 7.14729 20.9334 7.20234 20.9849 7.27234C21.0369 7.34234 21.0739 7.42232 21.0929 7.50732C21.0929 7.60732 21.2429 7.70732 21.3929 7.75732C21.5339 7.77732 21.6779 7.74235 21.7929 7.65735C21.8484 7.59235 21.9169 7.53732 21.9924 7.50232C22.0564 7.46732 22.1259 7.44732 22.1984 7.43732C22.3559 7.42232 22.5144 7.46231 22.6429 7.55731C22.8969 7.73731 23.1249 7.91729 23.3459 8.10229L23.5929 8.30731C23.6654 8.35731 23.7258 8.42732 23.7688 8.50232C23.8123 8.58232 23.8374 8.66732 23.8429 8.75732C23.8379 8.90232 23.7854 9.04235 23.6929 9.15735C23.6739 9.17735 23.6594 9.20229 23.6509 9.22729C23.6424 9.25229 23.6394 9.27731 23.6429 9.30731C23.6429 9.55731 23.7928 9.80731 23.9928 9.80731C24.1408 9.81231 24.2823 9.87235 24.3913 9.97235C24.5008 10.0724 24.5724 10.2073 24.5929 10.3573C24.5929 10.3823 24.5944 10.4073 24.5969 10.4373C24.6019 10.4823 24.6098 10.5323 24.6178 10.5823L24.6288 10.6473L24.6384 10.7273ZM19.4739 9.88733C19.1764 10.1873 19.0038 10.5873 18.9928 11.0073C18.9858 11.2073 19.0219 11.4123 19.0979 11.6023C19.1224 11.6623 19.1509 11.7173 19.1834 11.7723C19.2514 11.8923 19.3359 12.0023 19.4354 12.1023C19.4694 12.1323 19.5049 12.1623 19.5419 12.1923L19.5963 12.2323C19.6233 12.2523 19.6503 12.2723 19.6783 12.2873C19.7628 12.3423 19.8524 12.3873 19.9459 12.4223C20.1369 12.4923 20.3399 12.5173 20.5429 12.5073C20.7549 12.5123 20.9658 12.4773 21.1633 12.3973C21.3608 12.3223 21.5409 12.2023 21.6929 12.0573C21.8364 11.9123 21.9503 11.7423 22.0273 11.5523C22.1048 11.3623 22.1439 11.1623 22.1429 10.9573C22.1434 10.8373 22.1304 10.7173 22.1044 10.6023C22.0854 10.5223 22.0598 10.4423 22.0273 10.3623C22.0003 10.2973 21.9694 10.2323 21.9334 10.1673C21.8674 10.0573 21.7864 9.9523 21.6929 9.8573C21.6744 9.8373 21.6554 9.81731 21.6359 9.80231L21.5754 9.74731L21.5204 9.70233C21.4194 9.62733 21.3084 9.56233 21.1904 9.51733C21.0009 9.43733 20.7974 9.40235 20.5929 9.40735C20.1719 9.41735 19.7719 9.59233 19.4739 9.88733ZM27.3678 16.9323C27.3053 16.9173 27.2429 16.9073 27.1929 16.9073C27.0814 16.8973 26.9784 16.8423 26.9039 16.7623C26.8294 16.6773 26.7899 16.5673 26.7929 16.4573C26.7929 16.3073 26.5929 16.1573 26.4429 16.1573C26.4159 16.1523 26.3884 16.1573 26.3624 16.1623C26.3364 16.1723 26.3129 16.1873 26.2929 16.2073C26.2654 16.2223 26.2369 16.2373 26.2074 16.2523C26.1394 16.2823 26.0668 16.2973 25.9928 16.3073C25.9228 16.3023 25.8544 16.2823 25.7934 16.2473C25.7324 16.2123 25.6809 16.1673 25.6429 16.1073C25.4479 15.8823 25.2639 15.6473 25.0929 15.4073C25.0534 15.3573 25.0243 15.3023 25.0078 15.2423L25.0004 15.2123L24.9934 15.1673C24.9904 15.1323 24.9919 15.0923 24.9969 15.0573C25.0064 14.9973 25.0289 14.9373 25.0629 14.8873C25.0964 14.8323 25.1409 14.7873 25.1929 14.7573C25.2269 14.7173 25.2493 14.6673 25.2578 14.6123C25.2668 14.5623 25.2618 14.5073 25.2428 14.4573C25.2373 14.4273 25.2279 14.4023 25.2159 14.3723C25.2044 14.3523 25.1904 14.3273 25.1734 14.3073C25.1384 14.2623 25.0939 14.2273 25.0429 14.2073C24.9759 14.1873 24.9144 14.1523 24.8619 14.1123C24.8469 14.0973 24.8329 14.0873 24.8194 14.0723C24.8029 14.0573 24.7873 14.0373 24.7733 14.0173L24.7469 13.9773C24.6814 13.8673 24.6624 13.7323 24.6929 13.6073C24.7429 13.2573 24.8429 13.0073 24.8929 12.7573C24.9144 12.6523 24.9714 12.5623 25.0539 12.4973C25.1364 12.4323 25.2389 12.4023 25.3429 12.4073H25.4928C25.5928 12.4073 25.6929 12.3073 25.7929 12.2073C25.8504 12.1473 25.8749 12.0923 25.8759 12.0423C25.8769 12.0073 25.8644 11.9773 25.8429 11.9573C25.8229 11.9173 25.8084 11.8773 25.7994 11.8373L25.7934 11.8073L25.7894 11.7673C25.7854 11.7023 25.7954 11.6373 25.8194 11.5723C25.8429 11.5123 25.8794 11.4573 25.9269 11.4123C25.9739 11.3623 26.0309 11.3273 26.0929 11.3073C26.3329 11.1673 26.5839 11.0523 26.8429 10.9573C26.8429 11.0073 26.9428 11.0073 26.9928 11.0073C27.0888 11.0073 27.1824 11.0373 27.2619 11.0923C27.3044 11.1173 27.3419 11.1523 27.3734 11.1923C27.3839 11.2023 27.3939 11.2173 27.4029 11.2323C27.4119 11.2473 27.4199 11.2573 27.4279 11.2723L27.4429 11.3073C27.5114 11.3673 27.6004 11.4023 27.6929 11.4073C27.7524 11.4123 27.8123 11.4023 27.8658 11.3773C27.9193 11.3523 27.9633 11.3073 27.9928 11.2573C28.0258 11.1773 28.0819 11.1123 28.1534 11.0673C28.2249 11.0223 28.3089 11.0023 28.3929 11.0073C28.4634 10.9973 28.5344 11.0173 28.5929 11.0573C28.7559 11.1223 28.9193 11.2073 29.0963 11.3023L29.1174 11.3123L29.1523 11.3323L29.3929 11.4573C29.4914 11.5023 29.5669 11.5873 29.6044 11.6923C29.6214 11.7373 29.6299 11.7873 29.6294 11.8373C29.6294 11.8923 29.6174 11.9523 29.5929 12.0073C29.5764 12.0573 29.5728 12.1123 29.5813 12.1623C29.5898 12.2123 29.6114 12.2623 29.6429 12.3073C29.6634 12.3373 29.6879 12.3623 29.7154 12.3823C29.7334 12.3973 29.7534 12.4073 29.7739 12.4173C29.8264 12.4473 29.8844 12.4573 29.9429 12.4573H30.0929C30.1849 12.4473 30.2759 12.4773 30.3494 12.5323C30.4229 12.5873 30.4738 12.6673 30.4928 12.7573C30.5393 12.8973 30.5784 13.0473 30.6099 13.1923C30.6499 13.3773 30.6779 13.5673 30.6929 13.7573C30.7184 13.8573 30.6788 13.9623 30.6138 14.0423C30.5518 14.1223 30.4664 14.1823 30.3929 14.2073C30.3389 14.2223 30.2979 14.2473 30.2654 14.2773C30.2069 14.3323 30.1749 14.4073 30.1429 14.5073C30.1204 14.5623 30.1179 14.6223 30.1369 14.6773C30.1459 14.7023 30.1594 14.7273 30.1774 14.7473C30.1954 14.7723 30.2173 14.7923 30.2428 14.8073C30.2873 14.8423 30.3244 14.8823 30.3514 14.9323C30.3779 14.9823 30.3944 15.0374 30.3989 15.0974C30.4004 15.1124 30.4008 15.1273 30.4003 15.1423C30.3988 15.1823 30.3919 15.2223 30.3784 15.2623C30.3604 15.3173 30.3314 15.3623 30.2929 15.4073C30.1179 15.6773 29.9169 15.9273 29.6929 16.1573C29.6599 16.2073 29.6154 16.2423 29.5629 16.2723C29.5104 16.2973 29.4514 16.3073 29.3929 16.3073C29.2869 16.2973 29.1844 16.2623 29.0929 16.2073C29.0839 16.1973 29.0744 16.1873 29.0634 16.1823C29.0509 16.1773 29.0373 16.1673 29.0233 16.1623C28.9978 16.1573 28.9704 16.1523 28.9429 16.1573C28.8574 16.1523 28.7733 16.1823 28.7083 16.2373C28.6428 16.2923 28.6019 16.3723 28.5929 16.4573C28.5429 16.7073 28.3929 16.9073 28.1429 16.9073C28.0429 16.9073 27.9429 16.9573 27.8429 16.9573H27.5429L27.4993 16.9523L27.4608 16.9473L27.3678 16.9323ZM26.8489 13.1123C26.6244 13.3373 26.4968 13.6373 26.4928 13.9573C26.5123 14.2723 26.6354 14.5673 26.8429 14.8073C26.9534 14.9173 27.0858 15.0073 27.2318 15.0673C27.3033 15.0973 27.3774 15.1223 27.4524 15.1323C27.4964 15.1423 27.5408 15.1473 27.5858 15.1523C27.6213 15.1573 27.6574 15.1573 27.6929 15.1573C28.0074 15.1373 28.3064 15.0123 28.5429 14.8073C28.6594 14.6973 28.7514 14.5673 28.8114 14.4173C28.8349 14.3623 28.8534 14.3073 28.8669 14.2473C28.8884 14.1523 28.8974 14.0523 28.8929 13.9573C28.8939 13.8923 28.8894 13.8323 28.8804 13.7673C28.8754 13.7323 28.8689 13.6973 28.8604 13.6673C28.8464 13.6073 28.8283 13.5523 28.8053 13.4973C28.7848 13.4423 28.7609 13.3924 28.7334 13.3474C28.7119 13.3124 28.6894 13.2723 28.6644 13.2423L28.6393 13.2073L28.5929 13.1523L28.5459 13.1023C28.4344 12.9923 28.3008 12.9023 28.1543 12.8423C28.0938 12.8173 28.0319 12.7973 27.9684 12.7823L27.8879 12.7673C27.8239 12.7573 27.7584 12.7523 27.6929 12.7573C27.3759 12.7573 27.0729 12.8873 26.8489 13.1123ZM41.9928 8.50732C42.5233 8.50732 43.0319 8.71735 43.4074 9.09235C43.6204 9.30735 43.7803 9.56235 43.8788 9.84235C43.9533 10.0523 43.9928 10.2773 43.9928 10.5073V26.5073C43.9928 27.0373 43.7824 27.5473 43.4074 27.9223C43.1454 28.1823 42.8188 28.3623 42.4648 28.4473C42.3698 28.4723 42.2734 28.4873 42.1749 28.4973C42.1149 28.5023 42.0538 28.5073 41.9928 28.5073H33.9928C33.7273 28.5073 33.4679 28.4523 33.2274 28.3523C33.0609 28.2823 32.9038 28.1923 32.7603 28.0823C32.6968 28.0323 32.6364 27.9773 32.5784 27.9223C32.2034 27.5473 31.9928 27.0373 31.9928 26.5073V10.5073C31.9928 9.97732 32.2034 9.46735 32.5784 9.09235C32.8364 8.83235 33.1578 8.65232 33.5058 8.56732C33.6638 8.52732 33.8273 8.50732 33.9928 8.50732H41.9928ZM39.4928 27.0073V26.0073C39.4973 25.9373 39.4874 25.8723 39.4639 25.8123C39.4404 25.7473 39.4034 25.6923 39.3564 25.6423C39.3089 25.5973 39.2519 25.5573 39.1894 25.5323C39.1269 25.5123 39.0598 25.5023 38.9928 25.5073H36.9928C36.9258 25.5023 36.8589 25.5123 36.7964 25.5323C36.7339 25.5573 36.6769 25.5973 36.6294 25.6423C36.6054 25.6673 36.5839 25.6924 36.5654 25.7224C36.5479 25.7474 36.5334 25.7773 36.5219 25.8123C36.4984 25.8723 36.4883 25.9373 36.4928 26.0073V27.0073C36.4883 27.0723 36.4984 27.1373 36.5219 27.2023L36.5338 27.2323L36.5508 27.2673C36.5723 27.3023 36.5984 27.3373 36.6294 27.3673C36.6769 27.4173 36.7339 27.4523 36.7964 27.4773C36.8589 27.5023 36.9258 27.5123 36.9928 27.5073H38.9928C39.0598 27.5123 39.1269 27.5023 39.1894 27.4773C39.2519 27.4523 39.3089 27.4173 39.3564 27.3673C39.4034 27.3223 39.4404 27.2673 39.4639 27.2023C39.4819 27.1573 39.4919 27.1073 39.4934 27.0573L39.4928 27.0073ZM42.9928 23.5073V11.5073C42.9928 11.2423 42.8873 10.9873 42.6998 10.7973C42.6183 10.7173 42.5244 10.6523 42.4224 10.6023C42.3559 10.5723 42.2859 10.5473 42.2139 10.5323C42.1419 10.5123 42.0678 10.5073 41.9928 10.5073H33.9928C33.9133 10.5073 33.8349 10.5173 33.7589 10.5323C33.6949 10.5473 33.6329 10.5724 33.5739 10.5974C33.4679 10.6474 33.3698 10.7173 33.2858 10.7973C33.0983 10.9873 32.9928 11.2423 32.9928 11.5073V23.5073C32.9928 23.7723 33.0983 24.0273 33.2858 24.2123C33.4733 24.4023 33.7278 24.5073 33.9928 24.5073H41.9928C42.2578 24.5073 42.5123 24.4023 42.6998 24.2123C42.8873 24.0273 42.9928 23.7723 42.9928 23.5073ZM37.8929 20.0073C37.7904 20.0123 37.6874 19.9973 37.5929 19.9573C37.4984 19.9373 37.4118 19.8873 37.3483 19.8173C37.2848 19.7423 37.2478 19.6523 37.2428 19.5573C37.2363 19.5273 37.2259 19.5023 37.2124 19.4773C37.1929 19.4423 37.1668 19.4073 37.1348 19.3823C37.1123 19.3623 37.0874 19.3473 37.0614 19.3373C37.0244 19.3173 36.9839 19.3073 36.9429 19.3073H36.9124L36.8983 19.3123C36.8838 19.3173 36.8714 19.3273 36.8429 19.3573C36.7929 19.4073 36.6929 19.4573 36.5929 19.4573C36.5704 19.4573 36.5473 19.4573 36.5253 19.4523C36.4898 19.4473 36.4554 19.4373 36.4229 19.4223C36.3704 19.3923 36.3254 19.3523 36.2929 19.3073L35.8429 18.7073C35.7639 18.6273 35.7403 18.5323 35.7578 18.4323C35.7733 18.3473 35.8219 18.2523 35.8929 18.1573C35.9384 18.0823 35.9559 17.9923 35.9429 17.9073C35.9404 17.8623 35.9248 17.8173 35.8983 17.7823C35.8713 17.7473 35.8349 17.7223 35.7929 17.7073C35.7379 17.6973 35.6853 17.6773 35.6393 17.6473C35.6123 17.6273 35.5878 17.6073 35.5663 17.5823C35.5513 17.5623 35.5379 17.5473 35.5259 17.5273C35.4974 17.4773 35.4799 17.4273 35.4739 17.3723C35.4684 17.3123 35.4743 17.2573 35.4928 17.2073C35.5148 17.0723 35.5374 16.9573 35.5594 16.8573C35.5874 16.7273 35.6154 16.6173 35.6429 16.5073C35.6579 16.4223 35.7008 16.3473 35.7643 16.2923C35.7908 16.2723 35.8198 16.2523 35.8508 16.2373C35.8953 16.2173 35.9433 16.2073 35.9928 16.2073H36.0929C36.1904 16.1873 36.2784 16.1323 36.3429 16.0573C36.3669 16.0223 36.3829 15.9823 36.3899 15.9373C36.3934 15.9173 36.3949 15.8973 36.3944 15.8823L36.3929 15.8573C36.3684 15.8073 36.3549 15.7523 36.3519 15.6973C36.3484 15.6423 36.3569 15.5873 36.3754 15.5373C36.3939 15.4873 36.4228 15.4373 36.4603 15.3973C36.4793 15.3823 36.4999 15.3624 36.5224 15.3474C36.5444 15.3324 36.5679 15.3173 36.5929 15.3073L37.1929 15.0073C37.2519 14.9673 37.3224 14.9473 37.3929 14.9573C37.4264 14.9573 37.4593 14.9624 37.4908 14.9724C37.5313 14.9874 37.5698 15.0023 37.6048 15.0273C37.6228 15.0423 37.6394 15.0573 37.6549 15.0723L37.6789 15.0974C37.7054 15.1274 37.7273 15.1673 37.7428 15.2073C37.7533 15.2173 37.7654 15.2323 37.7784 15.2423C37.7944 15.2573 37.8123 15.2673 37.8313 15.2773L37.8609 15.2923C37.8874 15.3023 37.9149 15.3073 37.9429 15.3073C38.0354 15.3023 38.1244 15.2673 38.1929 15.2073C38.2354 15.1373 38.2949 15.0873 38.3654 15.0523C38.4359 15.0173 38.5144 15.0023 38.5929 15.0073C38.6054 15.0023 38.6174 15.0023 38.6299 15.0073C38.6449 15.0073 38.6594 15.0073 38.6734 15.0123C38.6994 15.0223 38.7228 15.0373 38.7428 15.0573L39.4429 15.4073C39.4879 15.4273 39.5284 15.4573 39.5609 15.4923C39.5819 15.5173 39.5993 15.5423 39.6133 15.5723C39.6208 15.5873 39.6274 15.6023 39.6324 15.6223C39.6379 15.6423 39.6419 15.6573 39.6444 15.6773C39.6479 15.7073 39.6479 15.7373 39.6434 15.7673C39.6369 15.8173 39.6194 15.8623 39.5929 15.9073C39.5429 16.0073 39.5929 16.0573 39.6429 16.1573C39.6569 16.1823 39.6759 16.2073 39.6984 16.2323C39.7129 16.2423 39.7289 16.2573 39.7464 16.2673L39.7699 16.2773L39.8008 16.2923C39.8188 16.2973 39.8378 16.3023 39.8573 16.3023L39.8929 16.3073H39.9928C40.0713 16.3023 40.1494 16.3223 40.2134 16.3673C40.2774 16.4123 40.3234 16.4773 40.3429 16.5573C40.4074 16.7823 40.4509 16.9673 40.4874 17.1373C40.5074 17.2273 40.5249 17.3173 40.5429 17.4073C40.5429 17.5573 40.3929 17.7573 40.2929 17.7573C40.2414 17.7773 40.1954 17.8123 40.1604 17.8573C40.1254 17.8973 40.1024 17.9523 40.0929 18.0073C40.0929 18.1073 40.0929 18.2073 40.1929 18.2573C40.2239 18.2873 40.2499 18.3223 40.2694 18.3573C40.2919 18.4023 40.3059 18.4473 40.3109 18.4973C40.3154 18.5473 40.3109 18.5923 40.2979 18.6423C40.2859 18.6823 40.2673 18.7223 40.2428 18.7573C40.0883 18.9823 39.9213 19.1973 39.7428 19.4073C39.6783 19.4823 39.5903 19.5323 39.4928 19.5573C39.3928 19.5573 39.3428 19.5073 39.2428 19.4573C39.2008 19.4373 39.1849 19.4223 39.1774 19.4173C39.1709 19.4073 39.1704 19.4073 39.1639 19.4073H39.1429C39.0704 19.4023 38.9984 19.4224 38.9419 19.4724C38.8864 19.5174 38.8504 19.5823 38.8429 19.6573C38.8389 19.7523 38.8018 19.8473 38.7383 19.9173C38.6743 19.9923 38.5878 20.0373 38.4928 20.0573C38.4593 20.0523 38.4254 20.0523 38.3924 20.0573C38.3404 20.0673 38.2898 20.0823 38.2428 20.1073H38.0929L37.8929 20.0073ZM37.9928 16.4573C37.7278 16.4573 37.4733 16.5623 37.2858 16.7473C37.1918 16.8423 37.1183 16.9523 37.0683 17.0723C37.0188 17.1923 36.9928 17.3223 36.9928 17.4573C36.9993 17.7173 37.1069 17.9723 37.2929 18.1573C37.3874 18.2523 37.4984 18.3223 37.6194 18.3773C37.7364 18.4273 37.8633 18.4523 37.9928 18.4573C38.2558 18.4473 38.5069 18.3423 38.6929 18.1573C38.8789 17.9723 38.9863 17.7173 38.9928 17.4573C38.9928 17.1923 38.8878 16.9373 38.6998 16.7473C38.6003 16.6473 38.4824 16.5723 38.3539 16.5223C38.2399 16.4773 38.1173 16.4573 37.9928 16.4573Z" fill="white"/>
</svg>
