<svg width="35" height="31" viewBox="0 0 35 31" fill="none" xmlns="http://www.w3.org/2000/svg">
<path fill-rule="evenodd" clip-rule="evenodd" d="M4.5 0.503906H9.50025H17H22.0002C24.4855 0.503906 26.5002 2.51863 26.5002 5.00391V9.0044H30.4998C32.985 9.0044 34.9998 11.0191 34.9998 13.5044V26.0044C34.9998 28.4897 32.985 30.5044 30.4998 30.5044H25.4998H17.9998H12.9998C10.5145 30.5044 8.49976 28.4897 8.49976 26.0044V22.0039H4.5C2.01472 22.0039 0 19.9892 0 17.5039V5.00391C0 2.51863 2.01472 0.503906 4.5 0.503906Z" fill="black"/>
<path fill-rule="evenodd" clip-rule="evenodd" d="M2.00098 5.00586C2.00098 3.62515 3.12026 2.50586 4.50098 2.50586H17.001C18.3817 2.50586 19.501 3.62515 19.501 5.00586V9.00537H13.0012C10.5159 9.00537 8.50122 11.0201 8.50122 13.5054V20.0059H4.50098C3.12026 20.0059 2.00098 18.8866 2.00098 17.5059V5.00586ZM13.0007 11.0049C11.62 11.0049 10.5007 12.1242 10.5007 13.5049V26.0049C10.5007 27.3856 11.62 28.5049 13.0007 28.5049H25.5007C26.8814 28.5049 28.0007 27.3856 28.0007 26.0049V13.5049C28.0007 12.1242 26.8814 11.0049 25.5007 11.0049H13.0007Z" fill="white"/>
</svg>
