<svg width="55" height="31" viewBox="0 0 55 31" fill="none" xmlns="http://www.w3.org/2000/svg">
<path d="M50.2463 19.7154C49.6568 19.0204 48.8053 18.6059 47.8888 18.5619L48.1718 18.2954C48.7773 17.7259 49.1248 16.9269 49.1248 16.1039C49.1248 15.2814 48.7773 14.4824 48.1718 13.9124C46.5713 12.4064 44.4768 11.4349 42.2673 11.1224V5.90793C42.2673 4.40743 41.0473 3.18593 39.5473 3.18593C39.4228 3.18593 39.2988 3.19943 39.1758 3.21643C39.1713 1.71943 37.9533 0.50293 36.4558 0.50293H31.4558C31.1088 0.50293 30.7683 0.56893 30.4443 0.69843L27.9813 1.68393C27.4903 0.97143 26.6698 0.50293 25.7418 0.50293H20.7413C20.3943 0.50293 20.0543 0.56893 19.7303 0.69843L16.3648 2.04443C15.3258 2.45993 14.6543 3.45193 14.6543 4.57093V7.01993C13.5238 7.51443 12.7313 8.64393 12.7313 9.95493C12.7313 10.1429 12.7543 10.3249 12.7863 10.5029H9.24328C7.86578 10.5029 6.62877 11.3534 6.16527 12.6204L4.59728 16.8064C3.75728 19.0479 3.80527 21.4699 4.72877 23.4504C5.48927 25.0809 6.79228 26.2919 8.39828 26.8599C9.06428 27.0959 9.76377 27.2149 10.4773 27.2149H14.4248C15.9388 29.2439 18.1713 30.5029 20.5138 30.5029H25.5138C26.2303 30.5029 26.9323 30.3834 27.6003 30.1469C27.9233 30.0329 28.2308 29.8869 28.5268 29.7224C28.9053 30.2049 29.4858 30.4894 30.0973 30.4894C30.0973 30.4894 40.0068 30.5009 40.8473 30.5009C43.1193 30.5009 45.3448 29.7764 47.1138 28.4609C49.1868 26.9194 50.5518 24.7194 50.9573 22.2659C51.1078 21.3549 50.8488 20.4254 50.2463 19.7154Z" fill="black"/>
<path fill-rule="evenodd" clip-rule="evenodd" d="M20.4716 2.55522C20.9451 2.36572 21.4606 2.71471 21.4606 3.22472V4.07521C21.4606 4.37022 21.2811 4.63521 21.0071 4.74471L17.6146 6.10223V9.71473C17.6146 10.5112 16.9691 11.1572 16.1721 11.1572H15.9321C15.2681 11.1572 14.7301 10.6192 14.7301 9.95524C14.7301 9.29174 15.2681 8.75324 15.9321 8.75324H16.6531V4.57073C16.6531 4.27573 16.8326 4.01073 17.1066 3.90123L20.4716 2.55522ZM31.1862 2.55522C31.6597 2.36572 32.1752 2.71471 32.1752 3.22472V4.07521C32.1752 4.37022 31.9957 4.63521 31.7217 4.74471L28.3292 6.10223V9.71473C28.3292 10.5112 27.6837 11.1572 26.8867 11.1572H26.6462C25.9827 11.1572 25.4447 10.6192 25.4447 9.95524C25.4447 9.29174 25.9827 8.75324 26.6462 8.75324H27.3677V4.57073C27.3677 4.27573 27.5472 4.01073 27.8212 3.90123L31.1862 2.55522ZM17.6091 13.9543C17.4246 13.8548 17.1576 13.7078 16.8846 13.5563C16.9971 13.0098 17.4811 12.5987 18.0611 12.5987H18.7826V7.34973C18.7826 7.03923 18.9811 6.76374 19.2756 6.66574L23.6021 5.22323C24.0691 5.06773 24.5512 5.41522 24.5512 5.90722V12.1182C24.5512 12.9148 23.9056 13.5603 23.1091 13.5603H22.8687C22.2051 13.5603 21.6671 13.0223 21.6671 12.3588C21.6671 11.6948 22.2051 11.1568 22.8687 11.1568H23.5896V7.63123L19.7441 8.91325V13.5603C19.7441 14.2388 19.2741 14.8038 18.6426 14.9578C18.3946 14.5348 18.0411 14.1873 17.6091 13.9543ZM28.3917 14.9343C27.9177 14.7733 27.5742 14.3293 27.5742 13.8007C27.5742 13.1367 28.1122 12.5987 28.7762 12.5987H29.4967V7.34973C29.4967 7.03923 29.6957 6.76374 29.9902 6.66574L34.3167 5.22323C34.7837 5.06773 35.2662 5.41522 35.2662 5.90722V11.6478C34.2772 11.6948 33.3097 11.8797 32.3972 12.2028C32.4742 11.6132 32.9732 11.1568 33.5832 11.1568H34.3047V7.63123L30.4587 8.91325V13.1493C30.1662 13.3348 29.8807 13.5303 29.6107 13.7473C29.1652 14.1068 28.7597 14.5063 28.3917 14.9343ZM25.2112 15.4173L25.2877 15.3898C25.4377 15.3363 25.6037 15.3958 25.6762 15.5298L28.7267 21.3218C28.8107 21.4808 28.8787 21.6468 28.9317 21.8178L26.6246 22.6428C26.5531 22.4788 26.4966 22.3083 26.4566 22.1338L25.0046 15.7693C24.9726 15.6213 25.0612 15.4708 25.2112 15.4173ZM22.9427 16.5863L24.5271 20.7948C25.7236 23.9883 24.5617 27.3318 21.9322 28.2608C19.3026 29.1908 16.2011 27.3558 15.0051 24.1623L13.4316 19.9613C13.2111 19.3863 13.4756 18.7533 14.0331 18.4533C14.4431 18.2318 15.2531 17.7808 15.6626 17.5583C16.2826 17.2208 16.9311 16.9323 17.5991 16.6958H17.6006C18.2701 16.4593 18.9596 16.2743 19.6596 16.1458C20.1176 16.0618 21.0306 15.9033 21.4886 15.8173C22.1096 15.7008 22.7272 16.0148 22.9427 16.5863ZM15.8251 21.8998C16.1581 21.6788 16.5471 21.4833 16.9771 21.3313C17.4076 21.1793 17.8351 21.0853 18.2356 21.0473C18.4246 21.0288 18.5116 20.8133 18.3991 20.6558C17.9741 20.0593 17.1981 19.7848 16.4916 20.0348C15.7851 20.2848 15.3721 20.9798 15.4411 21.7023C15.4596 21.8928 15.6686 22.0038 15.8251 21.8998ZM23.3727 22.2328C23.3492 22.1683 23.3417 22.0938 23.2907 22.0258C23.0651 21.7873 22.4851 22.2398 22.2856 22.3613C21.6066 22.7753 20.8817 23.1478 20.1131 23.4053C19.3541 23.6883 18.5521 23.8553 17.7586 23.9623C17.5256 23.9938 16.7816 24.0093 16.7661 24.3333C16.7726 24.4173 16.8166 24.4788 16.8406 24.5428C17.2521 25.3343 18.0986 25.9143 19.0916 26.0848C19.7336 26.1978 20.4386 26.1543 21.0586 25.9298C21.6826 25.7143 22.2511 25.3073 22.6686 24.8203C23.3161 24.0688 23.5812 23.0958 23.3727 22.2328ZM22.4016 19.5738C22.5906 19.5558 22.6777 19.3398 22.5652 19.1823C22.1402 18.5858 21.3641 18.3118 20.6576 18.5618C19.9511 18.8118 19.5381 19.5063 19.6071 20.2288C19.6256 20.4193 19.8346 20.5308 19.9911 20.4263C20.3241 20.2058 20.7131 20.0103 21.1432 19.8578C21.5737 19.7058 22.0011 19.6123 22.4016 19.5738ZM42.7252 20.5578C43.5052 20.5578 44.1022 21.2143 43.9827 21.9398C43.6762 23.7943 42.6562 25.5638 40.9187 26.8558C38.2537 28.8378 34.5482 29.0213 31.6752 27.4463C31.6767 27.4253 31.6807 27.4058 31.6817 27.3843C31.6887 27.2118 31.6847 27.0318 31.6692 26.8483C31.6302 26.3898 31.5222 25.9203 31.3487 25.4513C31.1387 24.8858 30.7057 24.4448 30.1722 24.2038C30.1982 24.0848 30.2157 23.9628 30.2137 23.8368C30.2132 23.8043 30.2112 23.7718 30.2072 23.7398L30.1332 23.0928C30.2832 23.1093 30.4362 23.1093 30.5907 23.0703C31.2687 22.8993 31.6712 22.2433 31.4892 21.6058C31.3077 20.9683 30.6112 20.5898 29.9337 20.7608C29.8217 20.7883 29.7212 20.8348 29.6262 20.8873C29.6207 20.8773 29.6167 20.8658 29.6107 20.8558L28.1042 17.9948C28.5782 16.8108 29.3632 15.7123 30.4732 14.8188C33.7702 12.1642 38.7317 12.4812 41.7997 15.3683C42.2312 15.7748 42.2312 16.4328 41.7997 16.8388L40.6122 17.9558C39.9732 18.5578 39.9382 19.5763 40.6002 20.1563C40.9047 20.4228 41.2932 20.5558 41.6817 20.5553V20.5578H42.7252ZM37.6097 26.8833C38.2872 26.7123 38.6897 26.0568 38.5077 25.4193C38.3262 24.7813 37.6297 24.4028 36.9522 24.5738C36.2742 24.7443 35.8722 25.4003 36.0537 26.0378C36.2352 26.6758 36.9317 27.0538 37.6097 26.8833ZM38.0277 16.8848C38.6352 17.2148 39.4122 17.0188 39.7632 16.4468C40.1137 15.8748 39.9057 15.1438 39.2982 14.8138C38.6907 14.4838 37.9132 14.6793 37.5627 15.2513C37.2117 15.8233 37.4202 16.5543 38.0277 16.8848ZM41.8607 23.8138C42.2117 23.2418 42.0032 22.5108 41.3957 22.1803C40.7877 21.8503 40.0112 22.0463 39.6602 22.6178C39.3092 23.1898 39.5177 23.9213 40.1252 24.2513C40.7327 24.5813 41.5097 24.3858 41.8607 23.8138ZM34.6432 16.4653C35.3207 16.2943 35.7232 15.6383 35.5417 15.0008C35.3602 14.3633 34.6632 13.9848 33.9857 14.1558C33.3082 14.3263 32.9057 14.9818 33.0872 15.6198C33.2687 16.2578 33.9652 16.6363 34.6432 16.4653ZM34.0327 25.7873C34.3832 25.2158 34.1752 24.4848 33.5677 24.1548C32.9597 23.8243 32.1832 24.0203 31.8322 24.5923C31.4812 25.1638 31.6892 25.8948 32.2972 26.2248C32.9047 26.5553 33.6817 26.3593 34.0327 25.7873ZM30.1997 18.8583C30.8072 19.1883 31.5842 18.9923 31.9347 18.4208C32.2857 17.8488 32.0777 17.1178 31.4697 16.7873C30.8622 16.4573 30.0852 16.6538 29.7347 17.2253C29.3837 17.7973 29.5917 18.5283 30.1997 18.8583ZM13.4516 22.8668L13.8446 23.9158C12.4316 25.0773 10.6621 25.5398 9.06409 24.9748C6.43408 24.0443 5.27257 20.7018 6.46908 17.5078L8.04259 13.3072C8.25409 12.7292 8.87609 12.4092 9.50109 12.5272C9.96209 12.6142 10.8811 12.7737 11.3416 12.8592C12.0396 12.9882 12.7271 13.1722 13.3951 13.4087L13.3966 13.4093C14.0661 13.6463 14.7161 13.9353 15.3381 14.2738C15.7446 14.4958 16.5486 14.9448 16.9561 15.1648C17.1881 15.2898 17.3646 15.4743 17.4811 15.6868C17.4106 15.7103 17.3376 15.7283 17.2676 15.7528C17.2641 15.7538 17.2611 15.7548 17.2581 15.7558C16.5406 16.0103 15.8446 16.3208 15.1846 16.6793C15.0471 16.7543 14.8646 16.8548 14.6666 16.9638C14.5941 16.9418 14.5216 16.9228 14.4486 16.8968C14.0181 16.7448 13.6291 16.5493 13.2966 16.3288C13.1396 16.2248 12.9306 16.3353 12.9126 16.5263C12.8696 16.9773 13.0246 17.4078 13.3116 17.7348C12.7251 18.1508 12.3821 18.7868 12.3581 19.4623C12.0491 19.2258 11.7051 19.0293 11.3386 18.9028C10.7181 18.6783 10.0131 18.6348 9.37108 18.7473C8.37808 18.9178 7.53158 19.4983 7.12008 20.2893C7.09608 20.3538 7.05208 20.4158 7.04608 20.4998C7.06108 20.8233 7.80508 20.8383 8.03808 20.8703C8.83159 20.9768 9.63358 21.1443 10.3926 21.4268C11.1611 21.6843 11.8861 22.0573 12.5651 22.4713C12.7356 22.5753 13.1841 22.9188 13.4516 22.8668ZM8.74658 15.0528C8.67708 15.7753 9.09009 16.4703 9.79709 16.7203C10.5036 16.9703 11.2796 16.6958 11.7046 16.0993C11.8166 15.9413 11.7301 15.7263 11.5411 15.7078C11.1401 15.6693 10.7131 15.5763 10.2826 15.4238C9.85208 15.2713 9.46309 15.0763 9.13059 14.8553C8.97359 14.7508 8.76458 14.8623 8.74658 15.0528ZM28.6067 25.1813C28.6762 25.1393 28.7517 25.1038 28.8317 25.0748C28.9112 25.0463 28.9922 25.0263 29.0737 25.0148C29.6402 24.9318 30.2072 25.2488 30.4107 25.7983C30.5562 26.1918 30.6427 26.5793 30.6727 26.9333C30.6852 27.0748 30.6882 27.2118 30.6827 27.3408C30.6742 27.5348 30.6462 27.7123 30.5992 27.8683C30.5367 28.0758 30.4402 28.2443 30.3122 28.3583C30.2477 28.4163 30.1757 28.4603 30.0957 28.4883C29.9377 28.0623 29.5617 27.7783 29.1362 27.7118C28.7502 27.6508 28.4342 27.3813 28.2672 27.0343C28.2052 26.9043 28.1472 26.7683 28.0952 26.6273C27.8912 26.0773 28.1182 25.4763 28.6067 25.1813ZM29.2142 23.8533C29.2182 24.1148 29.0472 24.3538 28.7882 24.4463L28.4532 24.5663C28.1947 24.6583 27.9072 24.5838 27.7392 24.3808L26.9272 23.1788L29.0497 22.4198L29.2142 23.8533Z" fill="white"/>
</svg>
