<svg width="94" height="60" viewBox="0 0 94 60" fill="none" xmlns="http://www.w3.org/2000/svg">
<path d="M92.4922 38.4249C91.3132 37.0349 89.6103 36.2059 87.7773 36.1179L88.3433 35.5849C89.5543 34.4459 90.2492 32.8479 90.2492 31.2019C90.2492 29.5569 89.5543 27.9589 88.3433 26.8189C85.1423 23.8069 80.9533 21.8639 76.5343 21.2389V10.81C76.5343 7.80897 74.0943 5.36598 71.0943 5.36598C70.8453 5.36598 70.5973 5.39298 70.3513 5.42698C70.3423 2.43299 67.9063 0 64.9113 0H54.9114C54.2174 0 53.5364 0.132 52.8884 0.390999L47.9624 2.36199C46.9804 0.936998 45.3394 0 43.4834 0H33.4824C32.7884 0 32.1084 0.132 31.4604 0.390999L24.7295 3.08299C22.6515 3.91399 21.3085 5.89798 21.3085 8.13597V13.034C19.0475 14.023 17.4625 16.2819 17.4625 18.9039C17.4625 19.2799 17.5085 19.6439 17.5725 19.9999H10.4865C7.73153 19.9999 5.25753 21.7009 4.33053 24.2349L1.19455 32.6069C-0.485445 37.0899 -0.389452 41.9339 1.45754 45.8948C2.97854 49.1558 5.58453 51.5778 8.79652 52.7138C10.1285 53.1858 11.5275 53.4238 12.9545 53.4238H20.8495C23.8775 57.4818 28.3425 59.9998 33.0274 59.9998H43.0274C44.4604 59.9998 45.8644 59.7608 47.2004 59.2878C47.8464 59.0598 48.4614 58.7678 49.0534 58.4388C49.8104 59.4038 50.9714 59.9728 52.1944 59.9728C52.1944 59.9728 72.0133 59.9958 73.6943 59.9958C78.2383 59.9958 82.6893 58.5468 86.2273 55.9158C90.3732 52.8328 93.1032 48.4328 93.9142 43.5259C94.2152 41.7039 93.6972 39.8449 92.4922 38.4249Z" fill="black"/>
<path fill-rule="evenodd" clip-rule="evenodd" d="M32.9432 4.10458C33.8902 3.72558 34.9211 4.42357 34.9211 5.44357V7.14456C34.9211 7.73456 34.5622 8.26455 34.0142 8.48355L27.2292 11.1986V18.4236C27.2292 20.0166 25.9382 21.3086 24.3442 21.3086H23.8642C22.5362 21.3086 21.4602 20.2326 21.4602 18.9046C21.4602 17.5776 22.5362 16.5006 23.8642 16.5006H25.3062V8.13559C25.3062 7.54559 25.6652 7.0156 26.2132 6.7966L32.9432 4.10458ZM54.3722 4.10458C55.3192 3.72558 56.3502 4.42357 56.3502 5.44357V7.14456C56.3502 7.73456 55.9912 8.26455 55.4432 8.48355L48.6582 11.1986V18.4236C48.6582 20.0166 47.3672 21.3086 45.7732 21.3086H45.2922C43.9652 21.3086 42.8892 20.2326 42.8892 18.9046C42.8892 17.5776 43.9652 16.5006 45.2922 16.5006H46.7352V8.13559C46.7352 7.54559 47.0942 7.0156 47.6422 6.7966L54.3722 4.10458ZM27.2181 26.9026C26.8491 26.7036 26.3152 26.4096 25.7692 26.1066C25.9942 25.0136 26.9622 24.1916 28.1222 24.1916H29.5652V13.6936C29.5652 13.0726 29.9622 12.5216 30.5512 12.3256L39.2042 9.44058C40.1382 9.12958 41.1022 9.82456 41.1022 10.8086V23.2306C41.1022 24.8236 39.8112 26.1146 38.2181 26.1146H37.7372C36.4102 26.1146 35.3342 25.0386 35.3342 23.7116C35.3342 22.3836 36.4102 21.3076 37.7372 21.3076H39.1791V14.2566L31.4882 16.8206V26.1146C31.4882 27.4716 30.5482 28.6016 29.2852 28.9096C28.7892 28.0636 28.0821 27.3686 27.2181 26.9026ZM48.7832 28.8626C47.8352 28.5406 47.1482 27.6526 47.1482 26.5956C47.1482 25.2676 48.2242 24.1916 49.5522 24.1916H50.9932V13.6936C50.9932 13.0726 51.3912 12.5216 51.9802 12.3256L60.6332 9.44058C61.5672 9.12958 62.5322 9.82456 62.5322 10.8086V22.2896C60.5542 22.3836 58.6192 22.7536 56.7942 23.3996C56.9482 22.2206 57.9462 21.3076 59.1662 21.3076H60.6092V14.2566L52.9172 16.8206V25.2926C52.3322 25.6636 51.7612 26.0546 51.2212 26.4886C50.3302 27.2076 49.5192 28.0066 48.7832 28.8626ZM42.4222 29.8286L42.5752 29.7736C42.8752 29.6666 43.2072 29.7856 43.3522 30.0536L49.4532 41.6376C49.6212 41.9556 49.7572 42.2876 49.8632 42.6296L45.2492 44.2796C45.1062 43.9516 44.9932 43.6106 44.9132 43.2616L42.0092 30.5326C41.9452 30.2366 42.1222 29.9356 42.4222 29.8286ZM37.8852 32.1666L41.0542 40.5836C43.4472 46.9706 41.1232 53.6576 35.8642 55.5156C30.6052 57.3756 24.4022 53.7056 22.0102 47.3186L18.8632 38.9166C18.4222 37.7666 18.9512 36.5006 20.0662 35.9006C20.8862 35.4576 22.5062 34.5556 23.3252 34.1106C24.5652 33.4356 25.8622 32.8586 27.1982 32.3856H27.2012C28.5402 31.9126 29.9192 31.5426 31.3192 31.2856C32.2352 31.1176 34.0612 30.8006 34.9772 30.6286C36.2192 30.3956 37.4542 31.0236 37.8852 32.1666ZM23.6502 42.7936C24.3162 42.3516 25.0942 41.9606 25.9542 41.6566C26.8152 41.3526 27.6702 41.1646 28.4712 41.0886C28.8492 41.0516 29.0232 40.6206 28.7982 40.3056C27.9482 39.1126 26.3962 38.5636 24.9832 39.0636C23.5702 39.5636 22.7442 40.9536 22.8822 42.3986C22.9192 42.7796 23.3372 43.0016 23.6502 42.7936ZM38.7452 43.4596C38.6982 43.3306 38.6832 43.1816 38.5812 43.0456C38.1302 42.5686 36.9702 43.4736 36.5712 43.7166C35.2132 44.5446 33.7632 45.2896 32.2262 45.8046C30.7082 46.3706 29.1042 46.7046 27.5172 46.9186C27.0512 46.9816 25.5632 47.0126 25.5322 47.6606C25.5452 47.8286 25.6332 47.9516 25.6812 48.0796C26.5042 49.6626 28.1972 50.8226 30.1832 51.1636C31.4672 51.3896 32.8772 51.3026 34.1172 50.8536C35.3652 50.4226 36.5022 49.6086 37.3372 48.6346C38.6322 47.1316 39.1622 45.1856 38.7452 43.4596ZM36.8032 38.1416C37.1812 38.1056 37.3552 37.6736 37.1302 37.3586C36.2802 36.1656 34.7282 35.6176 33.3152 36.1176C31.9022 36.6176 31.0762 38.0066 31.2142 39.4516C31.2512 39.8326 31.6692 40.0556 31.9822 39.8466C32.6482 39.4056 33.4262 39.0146 34.2862 38.7096C35.1472 38.4056 36.0022 38.2186 36.8032 38.1416ZM77.4502 40.1096C79.0102 40.1096 80.2042 41.4226 79.9652 42.8736C79.3522 46.5826 77.3122 50.1216 73.8372 52.7056C68.5072 56.6696 61.0962 57.0366 55.3502 53.8866C55.3532 53.8446 55.3612 53.8056 55.3632 53.7626C55.3772 53.4176 55.3692 53.0576 55.3382 52.6906C55.2602 51.7736 55.0442 50.8346 54.6972 49.8966C54.2772 48.7656 53.4112 47.8836 52.3442 47.4016C52.3962 47.1636 52.4312 46.9196 52.4272 46.6676C52.4262 46.6026 52.4222 46.5376 52.4142 46.4736L52.2662 45.1796C52.5662 45.2126 52.8722 45.2126 53.1812 45.1346C54.5372 44.7926 55.3422 43.4806 54.9782 42.2056C54.6152 40.9306 53.2222 40.1736 51.8672 40.5156C51.6432 40.5706 51.4422 40.6636 51.2522 40.7686C51.2412 40.7486 51.2332 40.7256 51.2212 40.7056L48.2082 34.9836C49.1562 32.6156 50.7262 30.4186 52.9462 28.6316C59.5402 23.3226 69.4632 23.9566 75.5992 29.7306C76.4622 30.5436 76.4622 31.8596 75.5992 32.6716L73.2242 34.9056C71.9462 36.1096 71.8762 38.1466 73.2002 39.3066C73.8092 39.8396 74.5862 40.1056 75.3632 40.1046V40.1096H77.4502ZM67.2192 52.7606C68.5742 52.4186 69.3792 51.1076 69.0152 49.8326C68.6522 48.5566 67.2592 47.7996 65.9042 48.1416C64.5482 48.4826 63.7442 49.7946 64.1072 51.0696C64.4702 52.3456 65.8632 53.1016 67.2192 52.7606ZM68.0552 32.7636C69.2702 33.4236 70.8242 33.0316 71.5262 31.8876C72.2272 30.7436 71.8112 29.2816 70.5962 28.6216C69.3812 27.9616 67.8262 28.3526 67.1252 29.4966C66.4232 30.6406 66.8402 32.1026 68.0552 32.7636ZM75.7212 46.6216C76.4232 45.4776 76.0062 44.0156 74.7912 43.3546C73.5752 42.6946 72.0222 43.0866 71.3202 44.2296C70.6182 45.3736 71.0352 46.8366 72.2502 47.4966C73.4652 48.1566 75.0192 47.7656 75.7212 46.6216ZM61.2862 31.9246C62.6412 31.5826 63.4462 30.2706 63.0832 28.9956C62.7202 27.7206 61.3262 26.9636 59.9712 27.3056C58.6162 27.6466 57.8112 28.9576 58.1742 30.2336C58.5372 31.5096 59.9302 32.2666 61.2862 31.9246ZM60.0652 50.5686C60.7662 49.4256 60.3502 47.9636 59.1352 47.3036C57.9192 46.6426 56.3662 47.0346 55.6642 48.1786C54.9622 49.3216 55.3782 50.7836 56.5942 51.4436C57.8092 52.1046 59.3632 51.7126 60.0652 50.5686ZM52.3992 36.7106C53.6142 37.3706 55.1682 36.9786 55.8692 35.8356C56.5712 34.6916 56.1552 33.2296 54.9392 32.5686C53.7242 31.9086 52.1702 32.3016 51.4692 33.4446C50.7672 34.5886 51.1832 36.0506 52.3992 36.7106ZM18.9032 44.7276L19.6892 46.8256C16.8632 49.1486 13.3242 50.0736 10.1282 48.9436C4.86815 47.0826 2.54515 40.3976 4.93815 34.0096L8.08516 25.6086C8.50816 24.4526 9.75215 23.8126 11.0022 24.0486C11.9242 24.2226 13.7622 24.5416 14.6832 24.7126C16.0792 24.9706 17.4542 25.3386 18.7902 25.8116L18.7931 25.8126C20.1321 26.2866 21.4322 26.8646 22.6762 27.5416C23.4892 27.9856 25.0972 28.8836 25.9122 29.3236C26.3762 29.5736 26.7292 29.9426 26.9622 30.3676C26.8212 30.4146 26.6752 30.4506 26.5352 30.4996C26.5282 30.5016 26.5222 30.5036 26.5162 30.5056C25.0812 31.0146 23.6892 31.6356 22.3692 32.3526C22.0942 32.5026 21.7292 32.7036 21.3332 32.9216C21.1882 32.8776 21.0432 32.8396 20.8972 32.7876C20.0362 32.4836 19.2582 32.0926 18.5932 31.6516C18.2792 31.4436 17.8612 31.6646 17.8252 32.0466C17.7392 32.9486 18.0492 33.8096 18.6232 34.4636C17.4502 35.2956 16.7641 36.5676 16.7161 37.9186C16.0981 37.4456 15.4101 37.0526 14.6771 36.7996C13.4361 36.3506 12.0261 36.2636 10.7421 36.4886C8.75614 36.8296 7.06316 37.9906 6.24016 39.5726C6.19216 39.7016 6.10415 39.8256 6.09215 39.9936C6.12215 40.6406 7.61016 40.6706 8.07616 40.7346C9.66316 40.9476 11.2671 41.2826 12.7851 41.8476C14.3221 42.3626 15.7721 43.1086 17.1301 43.9366C17.4711 44.1446 18.3682 44.8316 18.9032 44.7276ZM9.49315 29.0996C9.35415 30.5446 10.1802 31.9346 11.5942 32.4346C13.0072 32.9346 14.5592 32.3856 15.4092 31.1926C15.6332 30.8766 15.4601 30.4466 15.0821 30.4096C14.2801 30.3326 13.4261 30.1466 12.5651 29.8416C11.7041 29.5366 10.9262 29.1466 10.2612 28.7046C9.94715 28.4956 9.52915 28.7186 9.49315 29.0996ZM49.2132 49.3566C49.3522 49.2726 49.5032 49.2016 49.6632 49.1436C49.8222 49.0866 49.9842 49.0466 50.1472 49.0236C51.2802 48.8576 52.4142 49.4916 52.8212 50.5906C53.1122 51.3776 53.2852 52.1526 53.3452 52.8606C53.3702 53.1436 53.3762 53.4176 53.3652 53.6756C53.3482 54.0636 53.2922 54.4186 53.1982 54.7306C53.0732 55.1456 52.8802 55.4826 52.6242 55.7106C52.4952 55.8266 52.3512 55.9146 52.1912 55.9706C51.8752 55.1186 51.1232 54.5506 50.2722 54.4176C49.5002 54.2956 48.8682 53.7566 48.5342 53.0626C48.4102 52.8026 48.2942 52.5306 48.1902 52.2486C47.7822 51.1486 48.2362 49.9466 49.2132 49.3566ZM50.4282 46.7006C50.4362 47.2236 50.0942 47.7016 49.5762 47.8866L48.9062 48.1266C48.3892 48.3106 47.8142 48.1616 47.4782 47.7556L45.8542 45.3516L50.0992 43.8336L50.4282 46.7006Z" fill="#63A8EE"/>
</svg>
