<svg width="36" height="31" viewBox="0 0 36 31" fill="none" xmlns="http://www.w3.org/2000/svg">
<path d="M20 30.5C20.0835 30.5 20.1668 30.4993 20.25 30.498C20.3332 30.4993 20.4165 30.5 20.5 30.5C28.7843 30.5 35.5 23.7843 35.5 15.5C35.5 7.21573 28.7843 0.5 20.5 0.5C20.4165 0.5 20.3332 0.500682 20.25 0.502041C20.1668 0.500682 20.0835 0.5 20 0.5C19.9165 0.5 19.8332 0.500682 19.75 0.502041C19.6668 0.500682 19.5835 0.5 19.5 0.5C19.4165 0.5 19.3332 0.500682 19.25 0.502041C19.1668 0.500682 19.0835 0.5 19 0.5C18.9165 0.5 18.8332 0.500682 18.75 0.502041C18.6668 0.500682 18.5835 0.5 18.5 0.5C18.4165 0.5 18.3332 0.500682 18.25 0.502041C18.1668 0.500682 18.0835 0.5 18 0.5C17.9165 0.5 17.8332 0.500682 17.75 0.502041C17.6668 0.500682 17.5835 0.5 17.5 0.5C17.4165 0.5 17.3332 0.500682 17.25 0.502041C17.1668 0.500682 17.0835 0.5 17 0.5C16.9165 0.5 16.8332 0.500682 16.75 0.502041C16.6668 0.500682 16.5835 0.5 16.5 0.5C16.4165 0.5 16.3332 0.500682 16.25 0.502041C16.1668 0.500682 16.0835 0.5 16 0.5C15.9165 0.5 15.8332 0.500682 15.75 0.502041C15.6668 0.500682 15.5835 0.5 15.5 0.5C7.21573 0.5 0.5 7.21573 0.5 15.5C0.5 23.7843 7.21573 30.5 15.5 30.5C15.5835 30.5 15.6668 30.4993 15.75 30.498C15.8332 30.4993 15.9165 30.5 16 30.5C16.0835 30.5 16.1668 30.4993 16.25 30.498C16.3332 30.4993 16.4165 30.5 16.5 30.5C16.5835 30.5 16.6668 30.4993 16.75 30.498C16.8332 30.4993 16.9165 30.5 17 30.5C17.0835 30.5 17.1668 30.4993 17.25 30.498C17.3332 30.4993 17.4165 30.5 17.5 30.5C17.5835 30.5 17.6668 30.4993 17.75 30.498C17.8332 30.4993 17.9165 30.5 18 30.5C18.0835 30.5 18.1668 30.4993 18.25 30.498C18.3332 30.4993 18.4165 30.5 18.5 30.5C18.5835 30.5 18.6668 30.4993 18.75 30.498C18.8332 30.4993 18.9165 30.5 19 30.5C19.0835 30.5 19.1668 30.4993 19.25 30.498C19.3332 30.4993 19.4165 30.5 19.5 30.5C19.5835 30.5 19.6668 30.4993 19.75 30.498C19.8332 30.4993 19.9165 30.5 20 30.5Z" fill="black"/>
<path fill-rule="evenodd" clip-rule="evenodd" d="M19.107 22.6426C18.0232 23.191 16.7977 23.5 15.5 23.5C11.0817 23.5 7.5 19.9183 7.5 15.5C7.5 14.2023 7.80897 12.9768 8.35736 11.893L19.107 22.6426ZM22.6426 19.1072L11.8928 8.35745C12.9767 7.809 14.2023 7.5 15.5 7.5C19.9183 7.5 23.5 11.0817 23.5 15.5C23.5 16.7977 23.191 18.0233 22.6426 19.1072ZM28.5 15.5C28.5 22.6797 22.6797 28.5 15.5 28.5C8.3203 28.5 2.5 22.6797 2.5 15.5C2.5 8.3203 8.3203 2.5 15.5 2.5C22.6797 2.5 28.5 8.3203 28.5 15.5Z" fill="white"/>
</svg>
