<svg width="35" height="31" viewBox="0 0 35 31" fill="none" xmlns="http://www.w3.org/2000/svg">
<path d="M30.5 0.00293064C32.9853 0.00293076 35 2.01765 35 4.50293V25.5029C35 27.9882 32.9853 30.0029 30.5 30.0029L4.5 30.0029C2.01472 30.0029 0 27.9882 0 25.5029L2.74181e-06 4.50293C2.98023e-06 2.01765 2.01472 0.00292969 4.5 0.00292969L30.5 0.00293064Z" fill="black"/>
<path fill-rule="evenodd" clip-rule="evenodd" d="M28 4.50293C28 3.12222 26.8807 2.00293 25.5 2.00293H4.5C3.11929 2.00293 2 3.12222 2 4.50293L2 25.5029C2 26.8836 3.11929 28.0029 4.5 28.0029L25.5 28.0029C26.8807 28.0029 28 26.8836 28 25.5029L28 4.50293ZM9 8.00293C8.44771 8.00293 8 8.45064 8 9.00293C8 9.55521 8.44771 10.0029 9 10.0029H21C21.5523 10.0029 22 9.55521 22 9.00293C22 8.45064 21.5523 8.00293 21 8.00293H9ZM9 14.0029C8.44771 14.0029 8 14.4506 8 15.0029C8 15.5552 8.44771 16.0029 9 16.0029H11C11.5523 16.0029 12 15.5552 12 15.0029C12 14.4506 11.5523 14.0029 11 14.0029H9ZM14 15.0029C14 14.4506 14.4477 14.0029 15 14.0029H21C21.5523 14.0029 22 14.4506 22 15.0029C22 15.5552 21.5523 16.0029 21 16.0029H15C14.4477 16.0029 14 15.5552 14 15.0029ZM9 20.0029C8.44771 20.0029 8 20.4506 8 21.0029C8 21.5552 8.44771 22.0029 9 22.0029H17C17.5523 22.0029 18 21.5552 18 21.0029C18 20.4506 17.5523 20.0029 17 20.0029H9ZM20 21.0029C20 20.4506 20.4477 20.0029 21 20.0029C21.5523 20.0029 22 20.4506 22 21.0029C22 21.5552 21.5523 22.0029 21 22.0029C20.4477 22.0029 20 21.5552 20 21.0029Z" fill="white"/>
</svg>
