<svg width="44" height="35" viewBox="0 0 44 35" fill="none" xmlns="http://www.w3.org/2000/svg">
<path fill-rule="evenodd" clip-rule="evenodd" d="M0 7.00293C0 3.13694 3.13401 0.00292969 7 0.00292969H37C40.866 0.00292969 44 3.13694 44 7.00293V27.0029C44 30.8689 40.866 34.0029 37 34.0029H7C3.13401 34.0029 0 30.8689 0 27.0029V7.00293ZM2 7.00293C2 4.24151 4.23858 2.00293 7 2.00293H27C29.7614 2.00293 32 4.24151 32 7.00293V27.0029C32 29.7644 29.7614 32.0029 27 32.0029H7C4.23858 32.0029 2 29.7644 2 27.0029V7.00293ZM15.75 8.25293C15.75 7.56257 16.3096 7.00293 17 7.00293H27C27.6904 7.00293 28.25 7.56257 28.25 8.25293C28.25 8.94328 27.6904 9.50293 27 9.50293H17C16.3096 9.50293 15.75 8.94328 15.75 8.25293ZM7 13.2529C6.30964 13.2529 5.75 13.8126 5.75 14.5029C5.75 15.1933 6.30964 15.7529 7 15.7529H27C27.6904 15.7529 28.25 15.1933 28.25 14.5029C28.25 13.8126 27.6904 13.2529 27 13.2529H7ZM7 7.00293C6.30964 7.00293 5.75 7.56257 5.75 8.25293C5.75 8.94328 6.30964 9.50293 7 9.50293H10.75C11.4404 9.50293 12 8.94328 12 8.25293C12 7.56257 11.4404 7.00293 10.75 7.00293H7ZM7 19.5029C6.30964 19.5029 5.75 20.0626 5.75 20.7529C5.75 21.4433 6.30964 22.0029 7 22.0029H14.5C15.1904 22.0029 15.75 21.4433 15.75 20.7529C15.75 20.0626 15.1904 19.5029 14.5 19.5029H7ZM20.75 19.5029C20.0596 19.5029 19.5 20.0626 19.5 20.7529C19.5 21.4433 20.0596 22.0029 20.75 22.0029H27C27.6904 22.0029 28.25 21.4433 28.25 20.7529C28.25 20.0626 27.6904 19.5029 27 19.5029H20.75ZM7 25.7529C6.30964 25.7529 5.75 26.3126 5.75 27.0029C5.75 27.6933 6.30964 28.2529 7 28.2529H20.75C21.4404 28.2529 22 27.6933 22 27.0029C22 26.3126 21.4404 25.7529 20.75 25.7529H7ZM27 25.7529C26.3096 25.7529 25.75 26.3126 25.75 27.0029C25.75 27.6933 26.3096 28.2529 27 28.2529C27.6904 28.2529 28.25 27.6933 28.25 27.0029C28.25 26.3126 27.6904 25.7529 27 25.7529Z" fill="black"/>
</svg>
