<svg width="30" height="28" viewBox="0 0 30 28" fill="none" xmlns="http://www.w3.org/2000/svg">
<path fill-rule="evenodd" clip-rule="evenodd" d="M0 14.0015C0 6.38529 6.17414 0.211151 13.7903 0.211151H16.2097C23.8259 0.211151 30 6.38529 30 14.0015C30 21.6177 23.8259 27.7918 16.2097 27.7918H13.7903C6.17414 27.7918 0 21.6177 0 14.0015ZM13.681 1.28928C6.7271 1.28928 1.08984 6.98022 1.08984 14.0004C1.08984 21.0205 6.7271 26.7114 13.681 26.7114C20.6349 26.7114 26.2722 21.0205 26.2722 14.0004C26.2722 6.98022 20.6349 1.28928 13.681 1.28928ZM9.88654 8.81764C10.5209 8.20287 11.5825 8.65237 11.5825 9.53574V10.4111C11.5825 10.9633 12.0302 11.4111 12.5825 11.4111H20.6694C21.0594 11.4111 21.3756 11.7272 21.3756 12.1172C21.3756 12.5072 21.0594 12.8234 20.6694 12.8234H11.5825H7.6186C6.93971 12.8234 6.60524 11.9977 7.09275 11.5252L9.88654 8.81764ZM20.0361 16.4755C20.5236 16.003 20.1891 15.1773 19.5103 15.1773L15.5464 15.1773H6.45941C6.0694 15.1773 5.75324 15.4935 5.75324 15.8835C5.75324 16.2735 6.0694 16.5897 6.45941 16.5897L14.5464 16.5896C15.0986 16.5896 15.5464 17.0374 15.5464 17.5896V18.465C15.5464 19.3483 16.608 19.7978 17.2423 19.1831L20.0361 16.4755Z" fill="black"/>
</svg>
