<svg width="69" height="40" viewBox="0 0 69 40" fill="none" xmlns="http://www.w3.org/2000/svg">
<path d="M38.0389 0.551636C38.0389 0.551636 32.1631 0.551636 30.962 0.551636C24.1056 0.551636 17.9181 3.16241 13.019 6.19413C8.10778 9.23337 4.26149 12.8374 2.01049 15.1771C0.786348 16.4369 0 18.1248 0 19.9962C0 21.8676 0.786353 23.5555 2.0105 24.8153C4.2615 27.155 8.10779 30.759 13.019 33.7982C17.9181 36.83 24.1056 39.4407 30.962 39.4407C32.1631 39.4407 38.0389 39.4407 38.0389 39.4407C44.8953 39.4407 51.0828 36.83 55.9818 33.7982C60.8985 30.7557 64.7478 27.1471 66.9977 24.8076C68.2403 23.5152 69 21.8315 69 19.997C69 18.1629 68.241 16.48 67.0002 15.1873L66.9977 15.1847C64.7478 12.8452 60.8985 9.23669 55.9818 6.19413C51.0828 3.16241 44.8953 0.551636 38.0389 0.551636Z" fill="black"/>
<path fill-rule="evenodd" clip-rule="evenodd" d="M57.371 22.3532C58.7233 20.9467 58.7233 19.0448 57.371 17.6359C53.1118 13.2072 42.893 4.0885 30.9626 4.0885C19.0321 4.0885 8.81335 13.2072 4.5541 17.6359C3.8962 18.3105 3.53906 19.1404 3.53906 19.9946C3.53906 20.8488 3.8962 21.6787 4.5541 22.3532C8.81335 26.7819 19.0321 35.9007 30.9626 35.9007C42.893 35.9007 53.1118 26.7819 57.371 22.3532ZM37.8179 19.9934C37.8179 23.7583 34.7485 26.8103 30.9621 26.8103C27.1758 26.8103 24.1064 23.7583 24.1064 19.9934C24.1064 16.2286 27.1758 13.1765 30.9621 13.1765C34.7485 13.1765 37.8179 16.2286 37.8179 19.9934Z" fill="#FA9938"/>
</svg>
