<svg width="48" height="30" viewBox="0 0 48 30" fill="none" xmlns="http://www.w3.org/2000/svg">
<path d="M34.6426 6.76271L35.7576 5.65591C36.7243 4.69624 36.7471 3.13254 35.8247 2.14297L34.5677 0.794371C33.6223 -0.219867 32.0328 -0.259098 31.0414 0.725069L27.9352 3.80857C27.6946 3.56644 27.392 3.38575 27.0518 3.29121C25.2996 2.80437 23.4377 2.50865 21.5003 2.50865C16.8877 2.50865 12.6968 4.18274 9.34287 6.15935C5.98373 8.13902 3.34668 10.4912 1.80004 12.0222C1.01698 12.7894 0.5 13.8318 0.5 15.003C0.5 16.1742 1.01698 17.2166 1.80004 17.9837C3.19358 19.3632 5.46896 21.4059 8.3576 23.243L7.24242 24.35C6.27568 25.3097 6.25286 26.8734 7.17527 27.863L8.43234 29.2116C9.37775 30.2258 10.9672 30.265 11.9586 29.2809L15.0649 26.1972C15.3055 26.4394 15.6081 26.62 15.9483 26.7146C17.7007 27.2015 19.5627 27.4973 21.5003 27.4973C26.1129 27.4973 30.3038 25.8232 33.6577 23.8466C37.02 21.8651 39.6591 19.5101 41.2052 17.9792C42.0014 17.1905 42.5 16.1508 42.5 15.0035C42.5 13.8565 42.0016 12.8169 41.2063 12.0279L41.2049 12.0265C39.8117 10.6469 37.5345 8.60178 34.6426 6.76271Z" fill="black"/>
<path d="M26.5003 27.4973C31.1129 27.4973 35.3038 25.8232 38.6577 23.8466C42.02 21.8651 44.6591 19.5101 46.2052 17.9792C47.0014 17.1905 47.5 16.1508 47.5 15.0036C47.5 13.8565 47.0016 12.817 46.2063 12.0279L46.2049 12.0265C44.8117 10.6469 42.5345 8.60181 39.6426 6.76273L40.7576 5.65593C41.7243 4.69627 41.7471 3.13256 40.8247 2.14299L39.5677 0.794394C39.0867 0.278465 38.4392 0.0148309 37.7885 0.00986071C36.11 -0.00295961 34.4285 -0.00361018 32.75 0.00986071C32.1343 0.0148024 31.5186 0.251412 31.0414 0.725085L29.0725 2.67955C28.2326 2.56883 27.3741 2.50867 26.5003 2.50867C24.8336 2.50867 23.167 2.50867 21.5003 2.50867C16.8877 2.50867 12.6968 4.18276 9.34287 6.15936C5.98373 8.13904 3.34668 10.4912 1.80004 12.0222C1.01698 12.7894 0.5 13.8318 0.5 15.003C0.5 16.1742 1.01698 17.2166 1.80004 17.9838C3.19358 19.3632 5.46896 21.4059 8.3576 23.243L7.24242 24.35C6.27568 25.3097 6.25286 26.8734 7.17527 27.863L8.43234 29.2116C8.92273 29.7377 9.5864 30.0015 10.25 29.9961C11.9166 29.9828 13.5834 30.0095 15.25 29.9961C15.8657 29.9912 16.4814 29.7546 16.9586 29.2809L18.9275 27.3264C19.7677 27.4371 20.6263 27.4973 21.5003 27.4973C23.167 27.4973 24.8336 27.4973 26.5003 27.4973Z" fill="black"/>
<path fill-rule="evenodd" clip-rule="evenodd" d="M34.3482 4.23739C34.5453 4.04181 34.5513 3.70928 34.3614 3.50563L33.1044 2.15703C32.9252 1.96478 32.6367 1.95877 32.4507 2.14341L8.65176 25.7684C8.45473 25.964 8.44873 26.2965 8.63856 26.5001L9.89564 27.8487C10.0748 28.041 10.3633 28.047 10.5493 27.8624L34.3482 4.23739ZM3.20327 16.5592C4.59339 17.9357 6.89975 19.999 9.81472 21.7965L14.1226 17.5201C13.7216 16.7459 13.5 15.8954 13.5 15.0029C13.5 11.4147 17.0817 8.50584 21.5 8.50584C22.0396 8.50584 22.5666 8.54922 23.0762 8.63192L26.5161 5.21718C24.9144 4.77216 23.2334 4.50765 21.5003 4.50765C13.2343 4.50765 6.15427 10.5244 3.20327 13.4466C2.74744 13.8917 2.5 14.4393 2.5 15.0029C2.5 15.5665 2.74744 16.1141 3.20327 16.5592ZM21.5 21.4999C20.9604 21.4999 20.4334 21.4566 19.9238 21.3739L16.484 24.7885C18.0859 25.2336 19.767 25.4981 21.5003 25.4981C29.7663 25.4981 36.8463 19.4814 39.7973 16.5592C40.7342 15.6311 40.7342 14.3762 39.7973 13.4466C38.4072 12.07 36.1007 10.0067 33.1855 8.20908L28.8774 12.4857C29.2784 13.2598 29.5 14.1103 29.5 15.0029C29.5 18.5911 25.9183 21.4999 21.5 21.4999Z" fill="white"/>
</svg>
