<svg width="55" height="31" viewBox="0 0 55 31" fill="none" xmlns="http://www.w3.org/2000/svg">
<g id="Crossed Eye - Color">
<path id="Union" d="M41.9872 0.518534C41.8213 0.497742 41.6532 0.497715 41.4872 0.518533C41.3213 0.497742 41.1532 0.497715 40.9872 0.518534C40.8213 0.497743 40.6532 0.497715 40.4872 0.518534C40.3213 0.497743 40.1532 0.497715 39.9872 0.518534C39.8213 0.497743 39.6532 0.497715 39.4872 0.518534C39.3213 0.497743 39.1532 0.497715 38.9872 0.518534C38.8208 0.497682 38.6523 0.497715 38.4857 0.518716C38.3203 0.498106 38.1528 0.49814 37.9872 0.518898C37.8213 0.498107 37.6533 0.498079 37.4872 0.518897C37.3811 0.505602 37.2741 0.500797 37.1674 0.504506C36.7047 0.520577 36.246 0.696501 35.8805 1.03401L35.6832 1.21625C33.8664 0.770173 31.9644 0.509267 30 0.509267C29.9165 0.509267 29.8332 0.509738 29.75 0.510673C29.6668 0.509738 29.5834 0.509267 29.5 0.509267C29.4166 0.509267 29.3332 0.509738 29.25 0.510673C29.1668 0.509738 29.0835 0.509267 29 0.509267C28.9166 0.509267 28.8332 0.509738 28.75 0.510673C28.6668 0.509738 28.5835 0.509267 28.5 0.509267C28.4166 0.509267 28.3332 0.509738 28.25 0.510673C28.1668 0.509738 28.0835 0.509267 28 0.509267C27.9166 0.509267 27.8332 0.509738 27.75 0.510673C27.6668 0.509738 27.5835 0.509267 27.5 0.509267C27.4166 0.509267 27.3332 0.509738 27.25 0.510673C27.1668 0.509738 27.0835 0.509267 27 0.509267C26.9166 0.509267 26.8333 0.509738 26.75 0.510673C26.6668 0.509738 26.5835 0.509267 26.5 0.509267C26.4112 0.509267 26.3225 0.509801 26.2339 0.510861C26.156 0.510043 26.0781 0.509631 26 0.509631C25.9166 0.509631 25.8333 0.510102 25.7501 0.511037C25.6668 0.510102 25.5835 0.509631 25.5001 0.509631C25.4166 0.509631 25.3333 0.510102 25.2501 0.511037C25.1668 0.510102 25.0835 0.509631 25.0001 0.509631C19.5065 0.509631 14.5019 2.55001 10.4804 4.97457C6.45294 7.40266 3.28848 10.2899 1.43236 12.1696C0.556452 13.0471 0 14.2157 0 15.5063C0 16.7969 0.556495 17.9656 1.43247 18.8431C3.14455 20.5769 5.96973 23.1679 9.55852 25.4651C9.39054 25.7554 9.2966 26.0862 9.28997 26.428C9.27942 26.9725 9.49133 27.4977 9.87675 27.8823L11.9169 29.9185C12.37 30.3707 12.9878 30.5616 13.5799 30.4873C13.7458 30.5081 13.9138 30.5081 14.0799 30.4873C14.2462 30.5082 14.4148 30.5081 14.5813 30.4871C14.7467 30.5078 14.9143 30.5077 15.0799 30.487C15.2458 30.5078 15.4138 30.5078 15.5799 30.487C15.7458 30.5078 15.9138 30.5078 16.0799 30.487C16.2457 30.5078 16.4138 30.5078 16.5799 30.487C16.7457 30.5078 16.9138 30.5078 17.0798 30.487C17.2457 30.5078 17.4138 30.5078 17.5798 30.487C17.7457 30.5078 17.9138 30.5078 18.0798 30.487C18.6456 30.5579 19.2367 30.3872 19.6865 29.9718L19.7629 29.9013C21.4442 30.2828 23.1958 30.5029 25.0001 30.5029C25.0835 30.5029 25.1669 30.5025 25.2501 30.5015C25.3333 30.5025 25.4166 30.5029 25.5001 30.5029C25.5835 30.5029 25.6668 30.5025 25.75 30.5015C25.8332 30.5025 25.9166 30.5029 26 30.5029C26.0889 30.5029 26.1776 30.5024 26.2662 30.5013C26.3441 30.5022 26.422 30.5026 26.5 30.5026C26.5835 30.5026 26.6668 30.5021 26.75 30.5012C26.8333 30.5021 26.9166 30.5026 27 30.5026C27.0835 30.5026 27.1668 30.5021 27.25 30.5012C27.3332 30.5021 27.4166 30.5026 27.5 30.5026C27.5835 30.5026 27.6668 30.5021 27.75 30.5012C27.8332 30.5021 27.9166 30.5026 28 30.5026C28.0835 30.5026 28.1668 30.5021 28.25 30.5012C28.3332 30.5021 28.4166 30.5026 28.5 30.5026C28.5835 30.5026 28.6668 30.5021 28.75 30.5012C28.8332 30.5021 28.9166 30.5026 29 30.5026C29.0835 30.5026 29.1668 30.5021 29.25 30.5012C29.3332 30.5021 29.4166 30.5026 29.5 30.5026C29.5834 30.5026 29.6668 30.5021 29.75 30.5012C29.8332 30.5021 29.9165 30.5026 30 30.5026C35.4936 30.5026 40.4981 28.4622 44.5197 26.0376C48.5503 23.6076 51.7168 20.7175 53.5723 18.8379C54.4638 17.9345 54.9993 16.7691 54.9993 15.5066C54.9993 14.2443 54.464 13.079 53.5735 12.1751L53.5721 12.1737C51.9227 10.5029 49.2377 8.0339 45.8305 5.79919C46.1096 5.4553 46.2684 5.02601 46.2771 4.57784C46.2876 4.0334 46.0757 3.50819 45.6903 3.12351L43.6502 1.08734C43.1971 0.635129 42.5793 0.444296 41.9872 0.518534Z" fill="black"/>
<path id="Exclude" fill-rule="evenodd" clip-rule="evenodd" d="M47.1488 17.4346C48.283 16.2854 48.283 14.7313 47.1488 13.5802C43.5766 9.96156 35.0061 2.51074 25.0001 2.51074C14.994 2.51074 6.42354 9.96156 2.85131 13.5802C2.29953 14.1314 2 14.8095 2 15.5074C2 16.2054 2.29953 16.8835 2.85131 17.4346C6.42354 21.0533 14.994 28.5041 25.0001 28.5041C35.0061 28.5041 43.5766 21.0533 47.1488 17.4346ZM30.7516 15.5064C30.7516 18.5826 28.1773 21.0764 25.0017 21.0764C21.8261 21.0764 19.2518 18.5826 19.2518 15.5064C19.2518 12.4301 21.8261 9.93637 25.0017 9.93637C28.1773 9.93637 30.7516 12.4301 30.7516 15.5064ZM38.909 4.17269C39.1101 4.3734 39.1037 4.70114 38.895 4.8939L13.6824 28.1784C13.4853 28.3604 13.1798 28.3545 12.9899 28.165L11.6582 26.8358C11.4571 26.6351 11.4635 26.3074 11.6722 26.1146L36.8848 2.8301C37.0818 2.64812 37.3874 2.65404 37.5772 2.84352L38.909 4.17269Z" fill="white"/>
</g>
</svg>
