<svg width="39" height="26" viewBox="0 0 39 26" fill="none" xmlns="http://www.w3.org/2000/svg">
<path fill-rule="evenodd" clip-rule="evenodd" d="M6.13208 17.9943L3.03882 20.9796L7.20779 25.2505H11.2078L14.8268 21.7579C15.6938 21.9058 16.5865 21.9878 17.5002 21.9878H21.5002C25.3756 21.9878 28.8729 20.5121 31.6419 18.7985C34.4209 17.0788 36.5966 15.0392 37.8683 13.7169C38.5706 12.9864 39 12.0347 39 10.9978C39 10.9965 39 10.9952 39 10.9939C39 10.9926 39 10.9912 39 10.9899C39 9.95325 38.571 9.00206 37.8697 8.27136L37.8683 8.26994C36.8253 7.18542 35.1742 5.61841 33.0809 4.14111L33.0503 4.12739C32.6006 3.81084 32.1306 3.49853 31.6419 3.19612C29.6112 1.93943 27.1888 0.810708 24.5129 0.298137L24.4826 0.284547C23.5191 0.101798 22.5228 -0.000946045 21.5002 -0.000946045H17.5002C13.6249 -0.000946045 10.1276 1.47471 7.35857 3.18829C4.58266 4.90612 2.40867 6.94316 1.13636 8.2656C0.444457 8.97769 0 9.93169 0 10.9894C0 10.9908 6.86375e-07 10.9921 2.05875e-06 10.9934C6.86375e-07 10.9947 0 10.996 0 10.9973C0 12.0551 0.44446 13.0091 1.13637 13.7212C2.21472 14.8421 3.94079 16.4762 6.13208 17.9943Z" fill="black"/>
<path fill-rule="evenodd" clip-rule="evenodd" d="M32.4268 12.3227C33.1911 11.5277 33.1911 10.4527 32.4268 9.65635C30.0194 7.15315 24.2435 1.99905 17.5002 1.99905C10.7569 1.99905 4.98112 7.15315 2.57372 9.65635C2.20186 10.0376 2 10.5067 2 10.9895C2 11.4723 2.20186 11.9414 2.57372 12.3227C4.98112 14.8259 10.7569 19.98 17.5002 19.98C24.2435 19.98 30.0194 14.8259 32.4268 12.3227ZM21.375 10.9889C21.375 13.1168 19.6401 14.8419 17.5 14.8419C15.3599 14.8419 13.625 13.1168 13.625 10.9889C13.625 8.86088 15.3599 7.13581 17.5 7.13581C19.6401 7.13581 21.375 8.86088 21.375 10.9889ZM18.4354 11.6361L7.24988 22.4311L5.875 21.0226L17.0605 10.2276L18.4354 11.6361Z" fill="#FA9938"/>
</svg>
