<svg width="44" height="33" viewBox="0 0 44 33" fill="none" xmlns="http://www.w3.org/2000/svg">
<path d="M16.7355 28.3631C17.7113 28.529 18.7158 28.621 19.7439 28.621C20.5098 28.621 24.2567 28.621 24.2567 28.621C28.6289 28.621 32.5745 26.9562 35.6986 25.0229C38.8338 23.0828 41.2887 20.7813 42.7235 19.2895C43.5158 18.4653 44 17.3919 44 16.2222C44 15.0526 43.516 13.9794 42.7248 13.1551L42.7232 13.1535C41.5465 11.9299 39.6837 10.162 37.3221 8.4953L41.1329 4.81753L36.4294 -0.000976562H31.9166L27.6214 4.1443C26.5343 3.93813 25.4104 3.82221 24.2567 3.82221C24.2567 3.82221 20.5098 3.82221 19.7439 3.82221C15.3717 3.82221 11.426 5.48705 8.30198 7.42032C5.17018 9.35839 2.71747 11.6566 1.28205 13.1486C0.501439 13.952 0 15.0283 0 16.2216C0 17.415 0.501443 18.4913 1.28206 19.2947C2.49954 20.5602 4.44886 22.4056 6.92364 24.1194L3.42841 27.4926L8.13187 32.3111H12.6447L16.7355 28.3631Z" fill="black"/>
<path fill-rule="evenodd" clip-rule="evenodd" d="M36.5854 17.7253C37.4477 16.8284 37.4477 15.6156 36.5854 14.7172C33.8694 11.8931 27.3531 6.07826 19.7453 6.07826C12.1374 6.07826 5.62113 11.8931 2.90509 14.7172C2.48555 15.1474 2.25781 15.6766 2.25781 16.2213C2.25781 16.766 2.48555 17.2952 2.90509 17.7253C5.62113 20.5494 12.1374 26.3643 19.7453 26.3643C27.3531 26.3643 33.8694 20.5494 36.5854 17.7253ZM24.1168 16.2205C24.1168 18.6213 22.1595 20.5675 19.745 20.5675C17.3305 20.5675 15.3732 18.6213 15.3732 16.2205C15.3732 13.8197 17.3305 11.8735 19.745 11.8735C22.1595 11.8735 24.1168 13.8197 24.1168 16.2205ZM33.4216 4.77061L8.18069 29.1302L6.62954 27.5411L31.8705 3.18152L33.4216 4.77061Z" fill="#FA9938"/>
</svg>
