<svg width="16" height="20" viewBox="0 0 16 20" fill="none" xmlns="http://www.w3.org/2000/svg">
<path d="M11.9304 0.00197966C12.8224 0.0128725 13.7125 0.088792 14.5933 0.229131C15.2405 0.33224 15.7167 0.8904 15.7167 1.54573V4.21554C15.7167 4.95185 15.1198 5.54875 14.3835 5.54875H12.9809C12.7769 5.54875 12.6682 5.58026 12.6226 5.59841C12.6 5.60742 12.5896 5.61438 12.5869 5.61627L12.5852 5.61752L12.5849 5.61779L12.5838 5.61938L12.5821 5.6219L12.5806 5.62443L12.579 5.62747C12.5745 5.63573 12.5676 5.65083 12.5602 5.67481C12.5449 5.72488 12.5312 5.803 12.5312 5.9105V6.61516H14.2403C14.6301 6.61516 15.0004 6.78578 15.2537 7.0821C15.507 7.37842 15.6179 7.77076 15.5573 8.15583L15.0634 11.291C14.9613 11.9392 14.4026 12.4168 13.7464 12.4168H12.5312V18.6668C12.5312 19.4031 11.9343 20 11.198 20H4.44234C3.70603 20 3.10913 19.4031 3.10913 18.6668V12.4168H1.6667C0.930394 12.4168 0.333496 11.8199 0.333496 11.0836V7.94837C0.333496 7.21206 0.930394 6.61516 1.6667 6.61516H3.10913V5.55779C3.10913 3.92882 3.60471 2.50111 4.63385 1.48034C5.66014 0.462379 7.06311 0.00188024 8.58109 0.00188024C9.69749 0.00869778 10.814 -0.00483811 11.9304 0.00197966Z" fill="black"/>
<path d="M10.4132 11.0817L10.9071 7.94654H7.86476V5.90866C7.86476 5.05139 8.2895 4.2137 9.64768 4.2137H11.0503V1.5439C10.2335 1.41376 9.40813 1.34335 8.58089 1.33325C6.0769 1.33325 4.44214 2.83716 4.44214 5.55596V7.94654H1.6665V11.0817H4.44214V18.665H7.86476V11.0817H10.4132Z" fill="white"/>
</svg>
