<svg width="35" height="30" viewBox="0 0 35 30" fill="none" xmlns="http://www.w3.org/2000/svg">
<path d="M26.6031 2.08771C26.7692 2.06925 26.937 2.06925 27.1031 2.08771C27.7591 2.01479 28.4411 2.22985 28.9441 2.73288L32.2675 6.05628C33.1462 6.93496 33.1462 8.35958 32.2675 9.23826L31.3973 10.1085C31.4388 10.205 31.4791 10.3022 31.5182 10.4H32.75C33.9926 10.4 35 11.4074 35 12.65V17.35C35 18.5926 33.9926 19.6 32.75 19.6H31.5182C31.4791 19.6978 31.4388 19.795 31.3973 19.8915L32.2695 20.7637C33.1482 21.6424 33.1482 23.067 32.2695 23.9457L28.9461 27.2691C28.4431 27.7721 27.7611 27.9872 27.1051 27.9142C26.939 27.9327 26.7712 27.9327 26.6051 27.9142C26.439 27.9327 26.2712 27.9327 26.1051 27.9142C25.939 27.9327 25.7712 27.9327 25.6051 27.9142C25.439 27.9327 25.2712 27.9327 25.1051 27.9142C24.939 27.9327 24.7712 27.9327 24.6051 27.9142L24.594 27.9155C24.5093 29.0808 23.537 30 22.35 30H12.65C11.4631 30 10.4909 29.081 10.406 27.9158L10.3953 27.9146C10.2292 27.9331 10.0614 27.9331 9.8953 27.9146C9.72918 27.9331 9.56141 27.9331 9.3953 27.9146C9.22919 27.9331 9.06141 27.9331 8.8953 27.9146C8.72918 27.9331 8.56141 27.9331 8.3953 27.9146C8.22919 27.9331 8.06143 27.9331 7.89532 27.9146C7.2393 27.9876 6.55734 27.7725 6.05431 27.2695L2.73091 23.9461C1.85223 23.0674 1.85223 21.6428 2.73091 20.7641L3.60292 19.8921C3.56135 19.7954 3.52098 19.698 3.48181 19.6H2.25C1.00736 19.6 0 18.5926 0 17.35V12.65C0 11.4074 1.00736 10.4 2.25 10.4H3.48181C3.52098 10.302 3.56135 10.2046 3.60292 10.1079L2.73288 9.23787C1.8542 8.35919 1.8542 6.93456 2.73288 6.05588L6.05628 2.73248C6.5593 2.22946 7.24126 2.0144 7.89727 2.08732C8.06338 2.06886 8.23115 2.06886 8.39727 2.08732C8.56338 2.06886 8.73115 2.06886 8.89727 2.08732C9.06338 2.06886 9.23116 2.06886 9.39727 2.08732C9.56338 2.06886 9.73116 2.06886 9.89727 2.08732C10.0634 2.06886 10.2312 2.06886 10.3973 2.08732L10.4059 2.08638C10.4897 0.92012 11.4624 0 12.65 0H22.35C23.5377 0 24.5105 0.920312 24.5942 2.08674L24.6031 2.08772C24.7692 2.06925 24.937 2.06925 25.1031 2.08772C25.2692 2.06925 25.437 2.06925 25.6031 2.08771C25.7692 2.06925 25.937 2.06925 26.1031 2.08771C26.2692 2.06925 26.437 2.06925 26.6031 2.08771Z" fill="black"/>
<path fill-rule="evenodd" clip-rule="evenodd" d="M17.6 2.25C17.6 2.11193 17.4881 2 17.35 2H12.65C12.5119 2 12.4 2.11193 12.4 2.25V4.73384C12.4 4.84791 12.3227 4.94721 12.2128 4.97771C11.3915 5.20563 10.611 5.53179 9.88493 5.94274C9.78564 5.99893 9.66074 5.98339 9.58007 5.90272L7.82404 4.1467C7.72641 4.04907 7.56812 4.04907 7.47049 4.1467L4.14709 7.4701C4.04946 7.56773 4.04946 7.72602 4.14709 7.82365L5.903 9.57956C5.98368 9.66024 5.99922 9.78515 5.94302 9.88444C5.53193 10.6107 5.20568 11.3913 4.97771 12.2128C4.94721 12.3227 4.84791 12.4 4.73384 12.4H2.25C2.11193 12.4 2 12.5119 2 12.65V17.35C2 17.4881 2.11193 17.6 2.25 17.6H4.73384C4.84791 17.6 4.94721 17.6773 4.97771 17.7872C5.20568 18.6087 5.53193 19.3893 5.94302 20.1156C5.99922 20.2149 5.98368 20.3398 5.903 20.4204L4.14513 22.1783C4.04749 22.2759 4.04749 22.4342 4.14513 22.5319L7.46853 25.8553C7.56616 25.9529 7.72445 25.9529 7.82208 25.8553L9.58007 24.0973C9.66074 24.0166 9.78564 24.0011 9.88493 24.0573C10.611 24.4682 11.3915 24.7944 12.2128 25.0223C12.3227 25.0528 12.4 25.1521 12.4 25.2662V27.75C12.4 27.8881 12.5119 28 12.65 28H17.35C17.4881 28 17.6 27.8881 17.6 27.75V25.2662C17.6 25.1521 17.6773 25.0528 17.7872 25.0223C18.6087 24.7943 19.3893 24.4681 20.1156 24.057C20.2149 24.0008 20.3398 24.0163 20.4204 24.097L22.1783 25.8549C22.2759 25.9525 22.4342 25.9525 22.5319 25.8549L25.8553 22.5315C25.9529 22.4338 25.9529 22.2756 25.8553 22.1779L24.0973 20.4199C24.0166 20.3393 24.0011 20.2144 24.0573 20.1151C24.4682 19.389 24.7944 18.6085 25.0223 17.7872C25.0528 17.6773 25.1521 17.6 25.2662 17.6H27.75C27.8881 17.6 28 17.4881 28 17.35V12.65C28 12.5119 27.8881 12.4 27.75 12.4H25.2662C25.1521 12.4 25.0528 12.3227 25.0223 12.2128C24.7944 11.3915 24.4682 10.611 24.0573 9.88493C24.0011 9.78564 24.0166 9.66074 24.0973 9.58007L25.8533 7.82405C25.9509 7.72641 25.9509 7.56812 25.8533 7.47049L22.5299 4.14709C22.4323 4.04946 22.274 4.04946 22.1763 4.14709L20.4204 5.903C20.3398 5.98368 20.2149 5.99922 20.1156 5.94302C19.3893 5.53193 18.6087 5.20568 17.7872 4.97771C17.6773 4.94721 17.6 4.84791 17.6 4.73384V2.25ZM15 20.2C17.8719 20.2 20.2 17.8719 20.2 15C20.2 12.1281 17.8719 9.8 15 9.8C12.1281 9.8 9.8 12.1281 9.8 15C9.8 17.8719 12.1281 20.2 15 20.2Z" fill="white"/>
</svg>
