<svg width="22" height="18" viewBox="0 0 22 18" fill="none" xmlns="http://www.w3.org/2000/svg">
<path fill-rule="evenodd" clip-rule="evenodd" d="M7 0.502991C6.44772 0.502991 6 0.950706 6 1.50299V1.63951H4.25C3.99676 1.64154 3.74415 1.73916 3.55093 1.93238L1.42961 4.0537C1.03909 4.44422 1.03909 5.07738 1.42961 5.46791L2.10787 6.14616C2.05539 6.26342 2.00604 6.3824 1.95992 6.50299H1C0.447715 6.50299 0 6.9507 0 7.50299V10.503C0 11.0553 0.447715 11.503 1 11.503H1.95992C2.00604 11.6236 2.05539 11.7426 2.10787 11.8598L1.42848 12.5392C1.24094 12.7267 1.13559 12.9811 1.13559 13.2463C1.13559 13.5115 1.24094 13.7659 1.42848 13.9534L3.5498 16.0747C3.74331 16.2682 3.99638 16.3659 4.25 16.3676H6V16.503C6 17.0553 6.44772 17.503 7 17.503H15C15.5523 17.503 16 17.0553 16 16.503V16.3674H17.7433C18.0085 16.3674 18.2629 16.262 18.4504 16.0745L20.5717 13.9532C20.9623 13.5627 20.9623 12.9295 20.5717 12.539L19.8923 11.8595C19.9447 11.7423 19.994 11.6235 20.0401 11.503H21C21.5523 11.503 22 11.0553 22 10.503V7.50299C22 6.9507 21.5523 6.50299 21 6.50299H20.0401C19.994 6.38251 19.9447 6.26363 19.8923 6.14647L20.5706 5.46814C20.9611 5.07761 20.9611 4.44445 20.5706 4.05392L18.4493 1.9326C18.2618 1.74507 18.0074 1.63971 17.7422 1.63971H16V1.50299C16 0.950706 15.5523 0.502991 15 0.502991H7ZM6.99219 1.5069H9.99219V3.19592C10.5428 3.33763 11.0628 3.55553 11.5403 3.83771L12.7344 2.64362L14.8557 4.76494L13.6615 5.95909C13.9436 6.43652 14.1615 6.95642 14.3032 7.5069H15.9922V10.5069H14.3032C14.1615 11.0574 13.9436 11.5773 13.6615 12.0547L14.8568 13.25L12.7355 15.3713L11.5403 14.1761C11.0628 14.4583 10.5428 14.6762 9.99219 14.8179V16.5069H6.99219V14.8179C6.44171 14.6762 5.92181 14.4584 5.44438 14.1763L4.24909 15.3715L2.12777 13.2502L3.323 12.055C3.04082 11.5775 2.82293 11.0575 2.68121 10.5069H0.992188V7.5069H2.68121C2.82293 6.95631 3.04082 6.43631 3.323 5.9588L2.12891 4.76471L4.25023 2.64339L5.44438 3.83754C5.92181 3.55545 6.44171 3.33761 6.99219 3.19592V1.5069ZM11.4922 9.0069C11.4922 10.6638 10.149 12.0069 8.49219 12.0069C6.83533 12.0069 5.49219 10.6638 5.49219 9.0069C5.49219 7.35004 6.83533 6.0069 8.49219 6.0069C10.149 6.0069 11.4922 7.35004 11.4922 9.0069Z" fill="black"/>
</svg>
