<svg width="38" height="23" viewBox="0 0 38 23" fill="none" xmlns="http://www.w3.org/2000/svg">
<path d="M24.7354 4.39181C24.8462 4.3795 24.958 4.3795 25.0687 4.39181C25.5061 4.3432 25.9607 4.48657 26.2961 4.82192L28.5117 7.03752C29.0975 7.62331 29.0975 8.57305 28.5117 9.15884L27.9315 9.73897C27.9592 9.80334 27.9861 9.86813 28.0121 9.93333H28.8333C29.6618 9.93333 30.3333 10.6049 30.3333 11.4333V14.5667C30.3333 15.3951 29.6618 16.0667 28.8333 16.0667H28.0121C27.9861 16.1319 27.9592 16.1967 27.9315 16.261L28.513 16.8425C29.0988 17.4283 29.0988 18.378 28.513 18.9638L26.2974 21.1794C25.962 21.5147 25.5074 21.6581 25.0701 21.6095C24.9593 21.6218 24.8475 21.6218 24.7367 21.6095C24.626 21.6218 24.5141 21.6218 24.4034 21.6095C24.2927 21.6218 24.1808 21.6218 24.0701 21.6095C23.9593 21.6218 23.8475 21.6218 23.7367 21.6095C23.626 21.6218 23.5141 21.6218 23.4034 21.6095L23.396 21.6103C23.3395 22.3872 22.6913 23 21.9 23H15.4333C14.6421 23 13.9939 22.3874 13.9373 21.6105L13.9302 21.6098C13.8195 21.6221 13.7076 21.6221 13.5969 21.6098C13.4861 21.6221 13.3743 21.6221 13.2635 21.6098C13.1528 21.6221 13.0409 21.6221 12.9302 21.6098C12.8195 21.6221 12.7076 21.6221 12.5969 21.6098C12.4861 21.6221 12.3743 21.6221 12.2635 21.6098C11.8262 21.6584 11.3716 21.515 11.0362 21.1797L8.82061 18.9641C8.23482 18.3783 8.23482 17.4285 8.82061 16.8427L9.40195 16.2614C9.37423 16.1969 9.34732 16.132 9.32121 16.0667H8.5C7.67158 16.0667 7 15.3951 7 14.5667V11.4333C7 10.6049 7.67157 9.93333 8.5 9.93333H9.32121C9.34732 9.86801 9.37423 9.80309 9.40195 9.73861L8.82192 9.15858C8.23613 8.57279 8.23613 7.62304 8.82192 7.03726L11.0375 4.82166C11.3729 4.4863 11.8275 4.34293 12.2648 4.39155C12.3756 4.37924 12.4874 4.37924 12.5982 4.39155C12.7089 4.37924 12.8208 4.37924 12.9315 4.39155C13.0423 4.37924 13.1541 4.37924 13.2648 4.39155C13.3756 4.37924 13.4874 4.37924 13.5982 4.39155C13.7089 4.37924 13.8208 4.37924 13.9315 4.39155L13.9372 4.39092C13.9931 3.61341 14.6416 3 15.4333 3H21.9C22.6918 3 23.3404 3.61354 23.3961 4.39116L23.4021 4.39181C23.5128 4.3795 23.6247 4.3795 23.7354 4.39181C23.8462 4.3795 23.958 4.3795 24.0687 4.39181C24.1795 4.3795 24.2913 4.3795 24.4021 4.39181C24.5128 4.3795 24.6247 4.3795 24.7354 4.39181Z" fill="black"/>
<path fill-rule="evenodd" clip-rule="evenodd" d="M18.734 4.49967C18.734 4.40763 18.6594 4.33301 18.5673 4.33301H15.434C15.3419 4.33301 15.2673 4.40763 15.2673 4.49967V6.15557C15.2673 6.23162 15.2158 6.29781 15.1425 6.31815C14.595 6.47009 14.0747 6.68753 13.5906 6.9615C13.5244 6.99896 13.4411 6.9886 13.3874 6.93482L12.2167 5.76414C12.1516 5.69905 12.0461 5.69905 11.981 5.76414L9.76538 7.97974C9.70029 8.04483 9.70029 8.15036 9.76538 8.21544L10.936 9.38605C10.9898 9.43984 11.0001 9.52311 10.9627 9.5893C10.6886 10.0735 10.4711 10.5939 10.3191 11.1415C10.2988 11.2148 10.2326 11.2663 10.1565 11.2663H8.50065C8.4086 11.2663 8.33398 11.341 8.33398 11.433V14.5663C8.33398 14.6584 8.4086 14.733 8.50065 14.733H10.1565C10.2326 14.733 10.2988 14.7845 10.3191 14.8578C10.4711 15.4055 10.6886 15.9259 10.9627 16.4101C11.0001 16.4762 10.9898 16.5595 10.936 16.6133L9.76407 17.7852C9.69898 17.8503 9.69898 17.9558 9.76407 18.0209L11.9797 20.2365C12.0448 20.3016 12.1503 20.3016 12.2154 20.2365L13.3874 19.0645C13.4411 19.0107 13.5244 19.0004 13.5906 19.0378C14.0747 19.3118 14.595 19.5293 15.1425 19.6812C15.2158 19.7015 15.2673 19.7677 15.2673 19.8438V21.4997C15.2673 21.5917 15.3419 21.6663 15.434 21.6663H18.5673C18.6594 21.6663 18.734 21.5917 18.734 21.4997V19.8438C18.734 19.7677 18.7855 19.7015 18.8588 19.6812C19.4065 19.5292 19.9269 19.3117 20.411 19.0377C20.4772 19.0002 20.5605 19.0106 20.6143 19.0643L21.7862 20.2363C21.8513 20.3013 21.9568 20.3013 22.0219 20.2363L24.2375 18.0207C24.3026 17.9556 24.3026 17.85 24.2375 17.785L23.0655 16.613C23.0117 16.5592 23.0014 16.4759 23.0388 16.4097C23.3128 15.9256 23.5302 15.4054 23.6822 14.8578C23.7025 14.7845 23.7687 14.733 23.8448 14.733H25.5007C25.5927 14.733 25.6673 14.6584 25.6673 14.5663V11.433C25.6673 11.341 25.5927 11.2663 25.5007 11.2663H23.8448C23.7687 11.2663 23.7025 11.2148 23.6822 11.1415C23.5302 10.594 23.3128 10.0737 23.0388 9.58963C23.0014 9.52343 23.0117 9.44017 23.0655 9.38639L24.2362 8.2157C24.3013 8.15062 24.3013 8.04509 24.2362 7.98L22.0206 5.7644C21.9555 5.69931 21.85 5.69931 21.7849 5.7644L20.6143 6.93501C20.5605 6.98879 20.4772 6.99915 20.411 6.96169C19.9269 6.68763 19.4065 6.47013 18.8588 6.31815C18.7855 6.29781 18.734 6.23162 18.734 6.15557V4.49967ZM17.0007 16.4663C18.9152 16.4663 20.4673 14.9143 20.4673 12.9997C20.4673 11.0851 18.9152 9.53301 17.0007 9.53301C15.0861 9.53301 13.534 11.0851 13.534 12.9997C13.534 14.9143 15.0861 16.4663 17.0007 16.4663Z" fill="white"/>
<rect x="15" width="15" height="15" rx="3.99999" fill="white"/>
<rect x="17" width="13" height="13" rx="2" fill="#E8306E"/>
<path d="M22.6836 8.80859C22.6836 8.71224 22.7005 8.6224 22.7344 8.53906C22.7708 8.45313 22.8203 8.37891 22.8828 8.31641C22.9453 8.2513 23.0182 8.20052 23.1016 8.16406C23.1875 8.12761 23.2799 8.10938 23.3789 8.10938C23.4727 8.10938 23.5612 8.12761 23.6445 8.16406C23.7305 8.20052 23.8047 8.2513 23.8672 8.31641C23.9297 8.37891 23.9792 8.45313 24.0156 8.53906C24.0521 8.6224 24.0703 8.71224 24.0703 8.80859C24.0703 8.90495 24.0521 8.99609 24.0156 9.08203C23.9792 9.16536 23.9297 9.23828 23.8672 9.30078C23.8047 9.36328 23.7305 9.41276 23.6445 9.44922C23.5612 9.48568 23.4727 9.50391 23.3789 9.50391C23.2799 9.50391 23.1875 9.48568 23.1016 9.44922C23.0182 9.41276 22.9453 9.36328 22.8828 9.30078C22.8203 9.23828 22.7708 9.16536 22.7344 9.08203C22.7005 8.99609 22.6836 8.90495 22.6836 8.80859ZM22.6836 3.21485H24.125L23.9648 7.38282H22.8438L22.6836 3.21485Z" fill="white"/>
</svg>
