<svg width="56" height="30" viewBox="0 0 56 30" fill="none" xmlns="http://www.w3.org/2000/svg">
<path fill-rule="evenodd" clip-rule="evenodd" d="M26.2857 0.00905867C24.498 -0.0478686 22.694 0.195943 20.9987 0.740893C15.5481 2.4931 11.539 7.14291 10.6708 12.7181C10.443 14.1819 10.4431 15.8193 10.6711 17.2845C11.0992 20.0336 12.2904 22.5985 14.1298 24.7278C16.6664 27.6642 20.234 29.5177 24.1254 29.9211C24.4452 29.9543 24.7819 29.9859 24.8739 29.9924L30.0974 29.9978C30.6398 30.0114 32.0227 29.9794 32.4465 29.9379C35.7115 29.6187 38.5441 28.4408 40.685 26.5683C43.1729 24.3922 44.7443 21.5168 45.3069 18.0396C45.4713 17.0227 45.5013 16.6379 45.5 15.2694C45.4985 13.8875 45.3025 12.1849 45.1565 11.8563C44.6725 10.7658 43.7879 10.6141 43.2555 10.6141H37.1772C37.2493 10.5579 37.322 10.4951 37.3949 10.4249C37.974 9.86723 40.839 7.0638 41.1257 6.7692C41.7882 6.0882 41.8913 5.32143 41.5105 4.50609C41.4116 4.29439 41.2533 4.05379 41.0135 3.83523C40.9107 3.74157 40.7677 3.64361 40.6334 3.56092C39.1833 2.31593 37.3989 1.31441 35.5903 0.732081C33.9181 0.193551 32.1303 -0.0475876 30.3499 0.00905854L26.2857 0.00905867Z" fill="black"/>
<path d="M25.0553 27.9936C24.9715 27.9878 24.6643 27.9585 24.3726 27.9284C20.9822 27.5789 17.874 25.9731 15.6641 23.4293C14.0611 21.5843 13.0223 19.362 12.6492 16.9799C12.4504 15.7095 12.4503 14.2895 12.6489 13.0203C13.4054 8.18986 16.8992 4.16138 21.6488 2.64326C24.3184 1.79005 27.2968 1.78677 29.9434 2.63414C31.5637 3.15296 33.1614 4.05893 34.4387 5.18333L34.669 5.38608L32.777 7.23788C31.7366 8.25645 30.8753 9.08979 30.8634 9.08979C30.8514 9.08979 30.7142 8.98283 30.5587 8.8522C29.509 7.97041 28.2672 7.43203 26.8139 7.22866C26.3974 7.17037 25.2535 7.16166 24.8614 7.21371C23.0497 7.45457 21.4718 8.23268 20.2176 9.50369C17.6904 12.0646 17.1935 15.8027 18.9717 18.8754C19.9933 20.6408 21.6827 21.9699 23.6176 22.5305C24.2885 22.725 24.8354 22.8044 25.6368 22.8238C27.8745 22.8776 29.862 22.1682 31.2355 20.8248C32.0391 20.0389 32.6091 19.0305 32.8661 17.9402C32.8978 17.806 32.9301 17.6749 32.9378 17.6487C32.9513 17.6038 32.7681 17.6013 29.3636 17.6013H25.7753V12.6137H38.2864L38.333 12.9051C38.4793 13.8221 38.4987 14.0976 38.5 15.2701C38.5012 16.4819 38.4778 16.8229 38.3312 17.7233C37.8444 20.7158 36.4978 23.1973 34.3444 25.0701C32.4942 26.6791 30.0371 27.6697 27.2154 27.9439C26.8086 27.9835 25.3826 28.0163 25.0553 27.9936Z" fill="white"/>
</svg>
