<svg width="35" height="31" viewBox="0 0 35 31" fill="none" xmlns="http://www.w3.org/2000/svg">
<path fill-rule="evenodd" clip-rule="evenodd" d="M15.7857 0.0100352C13.998 -0.046892 12.194 0.196919 10.4987 0.74187C5.04809 2.49408 1.03897 7.14388 0.17082 12.7191C-0.0570435 14.1828 -0.0569404 15.8203 0.171132 17.2855C0.599171 20.0346 1.79044 22.5995 3.62979 24.7288C6.16638 27.6652 9.73403 29.5186 13.6254 29.9221C13.9452 29.9553 14.2819 29.9869 14.3739 29.9934L19.5974 29.9988C20.1398 30.0123 21.5227 29.9804 21.9465 29.9389C25.2115 29.6197 28.0441 28.4418 30.185 26.5693C32.6729 24.3932 34.2443 21.5178 34.8069 18.0406C34.9713 17.0237 35.0013 16.6389 35 15.2703C34.9985 13.8884 34.8025 12.1858 34.6565 11.8573C34.1725 10.7667 33.2879 10.6151 32.7555 10.6151H26.6772C26.7493 10.5588 26.822 10.496 26.8949 10.4258C27.474 9.86821 30.339 7.06478 30.6257 6.77018C31.2882 6.08917 31.3913 5.32241 31.0105 4.50707C30.9116 4.29537 30.7533 4.05477 30.5135 3.83621C30.4107 3.74255 30.2677 3.64459 30.1334 3.5619C28.6833 2.31691 26.8989 1.31538 25.0903 0.733058C23.4181 0.194528 21.6303 -0.0466111 19.8499 0.0100351L15.7857 0.0100352Z" fill="black"/>
<path d="M14.5553 27.9946C14.4715 27.9888 14.1643 27.9595 13.8726 27.9293C10.4822 27.5799 7.37402 25.9741 5.16405 23.4303C3.56108 21.5853 2.5223 19.363 2.14924 16.9809C1.95036 15.7104 1.95025 14.2905 2.14892 13.0213C2.9054 8.19083 6.3992 4.16236 11.1488 2.64424C13.8184 1.79103 16.7968 1.78775 19.4434 2.63512C21.0637 3.15393 22.6614 4.05991 23.9387 5.18431L24.169 5.38706L22.277 7.23886C21.2366 8.25743 20.3753 9.09076 20.3634 9.09076C20.3514 9.09076 20.2142 8.9838 20.0587 8.85318C19.009 7.97138 17.7672 7.433 16.3139 7.22964C15.8974 7.17134 14.7535 7.16264 14.3614 7.21468C12.5497 7.45554 10.9718 8.23366 9.71756 9.50466C7.19042 12.0655 6.69354 15.8037 8.47173 18.8764C9.49335 20.6418 11.1827 21.9709 13.1176 22.5315C13.7885 22.726 14.3354 22.8054 15.1368 22.8247C17.3745 22.8786 19.362 22.1691 20.7355 20.8258C21.5391 20.0399 22.1091 19.0315 22.3661 17.9412C22.3978 17.807 22.4301 17.6758 22.4378 17.6497C22.4513 17.6047 22.2681 17.6023 18.8636 17.6023H15.2753V12.6147H27.7864L27.833 12.906C27.9793 13.8231 27.9987 14.0986 28 15.2711C28.0012 16.4829 27.9778 16.8239 27.8312 17.7243C27.3444 20.7168 25.9978 23.1983 23.8444 25.0711C21.9942 26.6801 19.5371 27.6707 16.7154 27.9449C16.3086 27.9845 14.8826 28.0173 14.5553 27.9946Z" fill="white"/>
</svg>
