<svg width="40" height="31" viewBox="0 0 40 31" fill="none" xmlns="http://www.w3.org/2000/svg">
<path d="M38.6697 17.25C38.0462 16.1705 36.8847 15.5 35.6372 15.5H34.1387V5.5C34.1387 2.7425 31.8962 0.5 29.1387 0.5H14.1387C11.3817 0.5 9.13867 2.7425 9.13867 5.5V14.5H3.13867C1.48467 14.5 0.138672 15.8455 0.138672 17.5V25.5C0.138672 27.154 1.48467 28.5 3.13867 28.5H9.13867C9.45467 28.5 9.75817 28.4485 10.0442 28.357L17.3232 30.34C17.3367 30.344 17.3502 30.3475 17.3642 30.351C17.7602 30.4495 18.1677 30.5 18.5757 30.5H23.5757C24.5692 30.5 25.5307 30.208 26.3567 29.655C26.3647 29.6495 26.3722 29.6445 26.3802 29.639L37.4717 21.9815C38.2382 21.511 38.7857 20.778 39.0192 19.906C39.2612 19.003 39.1372 18.06 38.6697 17.25Z" fill="black"/>
<path d="M3.14063 26.4996H4.14063C4.69264 26.4996 5.14064 26.0516 5.14064 25.4996V17.4995C5.14064 16.9475 4.69264 16.4995 4.14063 16.4995H3.14063C2.58863 16.4995 2.14062 16.9475 2.14062 17.4995V25.4996C2.14062 26.0516 2.58863 26.4996 3.14063 26.4996Z" fill="white"/>
<path d="M31.3902 20.2991C32.1073 19.8851 32.3532 18.9676 31.9392 18.2501C31.5247 17.5326 30.6072 17.2871 29.8902 17.7011L23.3772 21.2141C23.1992 21.3106 23.0957 21.5041 23.1202 21.7051C23.1682 22.1021 23.1242 22.5266 22.9607 22.9576C22.6002 23.9111 21.6437 24.5086 20.6242 24.4996L20.5582 24.4991L20.5537 24.4986H12.6402C12.3642 24.4986 12.1402 24.2746 12.1402 23.9986C12.1402 23.7221 12.3642 23.4986 12.6402 23.4986H20.6272C20.6317 23.4986 20.6362 23.4996 20.6407 23.4996C21.4692 23.4996 22.1402 22.8281 22.1402 22.0001C22.1402 21.1716 21.4692 20.5001 20.6407 20.5001H15.7297C15.3417 20.5001 14.9587 20.4096 14.6117 20.2361L9.66815 17.764C9.32115 17.59 8.93817 17.5001 8.55017 17.5001H6.14015V25.5001H6.83266C7.03716 25.5001 7.24065 25.5246 7.43865 25.5746L17.8502 28.4106C18.6717 28.6156 19.5417 28.4641 20.2457 27.9931L31.3902 20.2991Z" fill="white"/>
<path d="M20.9163 12.4999C20.2852 13.3404 19.2811 13.8845 18.1513 13.8845C16.243 13.8845 14.694 12.3334 14.694 10.4229C14.694 8.51254 16.243 6.96143 18.1513 6.96143C19.2811 6.96143 20.2852 7.5052 20.9163 8.34573L20.0863 8.9691C19.6446 8.38099 18.9419 8.00028 18.1513 8.00028C16.8157 8.00028 15.7315 9.08573 15.7315 10.4229C15.7315 11.7601 16.8157 12.8457 18.1513 12.8457C18.9419 12.8457 19.6446 12.465 20.0863 11.8769L20.9163 12.4999Z" fill="white"/>
<path fill-rule="evenodd" clip-rule="evenodd" d="M11.1402 17.3821L15.0587 19.3416C15.2672 19.4456 15.4967 19.5001 15.7297 19.5001H20.6407C21.4602 19.5001 22.1892 19.8971 22.6452 20.5086C22.7237 20.4431 22.8097 20.3846 22.9027 20.3341L27.1402 18.0486V5.50001C27.1402 3.84301 25.7972 2.5 24.1402 2.5H14.1402C12.4832 2.5 11.1402 3.84301 11.1402 5.50001V17.3821ZM20.4095 5.42302L20.4485 5.42317L20.4876 5.42302C22.1383 5.42302 23.5944 6.22199 24.5005 7.43241C25.0061 8.10776 24.8689 9.05786 24.1924 9.5675L23.3647 10.1909C23.2306 10.2919 23.0822 10.3698 22.9256 10.423C23.0821 10.4762 23.2304 10.554 23.3644 10.6549L24.1921 11.278C24.8689 11.7876 25.0061 12.738 24.5004 13.4134C23.5946 14.6234 22.1386 15.423 20.4876 15.423L20.4485 15.4229L20.4095 15.423L20.3704 15.4229L20.3315 15.423L20.2924 15.4229L20.2535 15.423L20.2144 15.4229L20.1754 15.423L20.1363 15.4229L20.0974 15.423L20.0583 15.4229L20.0194 15.423L19.9803 15.4229L19.9663 15.423L19.9527 15.423L19.9414 15.423L19.9023 15.4229L19.8633 15.423L19.8242 15.4229L19.7853 15.423L19.7462 15.4229L19.7073 15.423L19.6806 15.423L19.6682 15.4229L19.6292 15.423L19.5901 15.4229L19.5512 15.423L19.531 15.423L19.5121 15.4229L19.4732 15.423L19.453 15.423L19.4341 15.4229L19.3952 15.423L19.3561 15.4229L19.3171 15.423L19.278 15.4229L19.2391 15.423L19.2185 15.423L19.2 15.4229L19.1611 15.423L19.122 15.4229L19.1021 15.423L19.0831 15.423L19.044 15.4229L19.005 15.423L18.9659 15.4229L18.9433 15.423L18.927 15.423L18.8879 15.4229L18.849 15.423L18.8099 15.4229L18.7949 15.423L18.7835 15.423L18.7709 15.423L18.7509 15.423L18.7318 15.4229L18.6929 15.423L18.6853 15.423L18.6744 15.423L18.6538 15.4229L18.6149 15.423L18.5758 15.4229L18.5369 15.423L18.4978 15.4229L18.4815 15.423L18.4712 15.423L18.4588 15.423L18.4197 15.4229L18.3808 15.423L18.3417 15.4229L18.3028 15.423L18.2637 15.4229L18.2247 15.423L18.1857 15.4229L18.1467 15.423C15.3545 15.423 13.1387 13.1558 13.1387 10.423C13.1387 7.69026 15.3545 5.42302 18.1467 5.42302L18.1857 5.42317L18.2247 5.42302L18.2637 5.42317L18.3028 5.42302L18.3417 5.42317L18.3808 5.42302L18.4197 5.42317L18.4588 5.42302L18.4978 5.42317L18.5369 5.42302L18.5758 5.42317L18.6149 5.42302L18.6538 5.42317L18.6929 5.42302L18.7318 5.42317L18.7709 5.42302L18.8099 5.42317L18.849 5.42302L18.8879 5.42317L18.927 5.42302L18.9659 5.42317L19.005 5.42302L19.044 5.42317L19.0831 5.42302L19.122 5.42317L19.1611 5.42302L19.2 5.42317L19.2391 5.42302L19.278 5.42317L19.3171 5.42302L19.3561 5.42317L19.3952 5.42302L19.4341 5.42317L19.4732 5.42302L19.5121 5.42317L19.5512 5.42302L19.5902 5.42317L19.6292 5.42302L19.6682 5.42317L19.7073 5.42302L19.7462 5.42317L19.7853 5.42302L19.8242 5.42317L19.8633 5.42302L19.9023 5.42317L19.9414 5.42302L19.9803 5.42317L20.0194 5.42302L20.0583 5.42317L20.0974 5.42302L20.1363 5.42317L20.1754 5.42302L20.2144 5.42317L20.2535 5.42302L20.2924 5.42317L20.3315 5.42302L20.3704 5.42317L20.4095 5.42302Z" fill="white"/>
</svg>
