<svg width="38" height="40" viewBox="0 0 38 40" fill="none" xmlns="http://www.w3.org/2000/svg">
<g filter="url(#filter0_dddddddd_315_226)">
<path fill-rule="evenodd" clip-rule="evenodd" d="M23.7551 5.62817C26.0772 7.9503 27.3818 11.0998 27.3818 14.3838H15.6512V20.44H27.3818V24.1547H26.1436V33.5961H23.4123C22.9873 35.5434 21.253 37.0015 19.1782 37.0015C17.1034 37.0015 15.3691 35.5434 14.9441 33.5961H5.09366V37.0015H4.01021V33.5961V32.0661V24.1547H2.61722V20.44H14.3478V14.3838L2.61719 14.3838C2.61719 11.0998 3.92175 7.9503 6.24388 5.62817C8.56601 3.30604 11.7155 2.00148 14.9995 2.00148C18.2835 2.00148 21.433 3.30604 23.7551 5.62817ZM20.6437 32.7365C20.6386 32.7864 20.631 32.8356 20.6211 32.884C20.481 33.5688 19.8751 34.084 19.1488 34.084C18.3188 34.084 17.6459 33.4111 17.6459 32.5811C17.6459 32.5017 17.6521 32.4238 17.6639 32.3478C17.7762 31.6287 18.3982 31.0786 19.1488 31.0786C19.9788 31.0786 20.6516 31.7515 20.6516 32.5815C20.6516 32.6338 20.649 32.6856 20.6437 32.7365Z" fill="#FA9938"/>
<path d="M19.6414 32.6835C19.6447 32.6676 19.6472 32.6513 19.649 32.6346L19.6414 32.6835ZM19.6414 32.6835C19.5946 32.9123 19.3906 33.084 19.1488 33.084M19.6414 32.6835L19.1488 33.084M19.1488 33.084C18.8711 33.084 18.6459 32.8588 18.6459 32.5811M19.1488 33.084L18.6459 32.5811M18.6459 32.5811C18.6459 32.5536 18.6481 32.5272 18.652 32.502M18.6459 32.5811L18.652 32.502M18.652 32.502C18.6894 32.2623 18.8986 32.0786 19.1488 32.0786C19.4265 32.0786 19.6516 32.3037 19.6516 32.5815C19.6516 32.5999 19.6507 32.6175 19.649 32.6343L18.652 32.502ZM27.3818 15.3838H28.3818V14.3838C28.3818 10.8346 26.9719 7.43073 24.4622 4.92106L23.7551 5.62817L24.4622 4.92106C21.9525 2.4114 18.5487 1.00148 14.9995 1.00148C11.4503 1.00148 8.04644 2.4114 5.53677 4.92106C3.02711 7.43073 1.61719 10.8346 1.61719 14.3838V15.3838H2.61719L13.3478 15.3838V19.44H2.61722H1.61722V20.44V24.1547V25.1547H2.61722H3.01021V32.0661V33.5961V37.0015V38.0015H4.01021H5.09366H6.09366V37.0015V34.5961H14.204C14.977 36.5886 16.9117 38.0015 19.1782 38.0015C21.4447 38.0015 23.3794 36.5886 24.1524 34.5961H26.1436H27.1436V33.5961V25.1547H27.3818H28.3818V24.1547V20.44V19.44H27.3818H16.6512V15.3838H27.3818Z" stroke="black" stroke-width="2"/>
</g>
<defs>
<filter id="filter0_dddddddd_315_226" x="0.617188" y="0.0014801" width="36.7637" height="39" filterUnits="userSpaceOnUse" color-interpolation-filters="sRGB">
<feFlood flood-opacity="0" result="BackgroundImageFix"/>
<feColorMatrix in="SourceAlpha" type="matrix" values="0 0 0 0 0 0 0 0 0 0 0 0 0 0 0 0 0 0 127 0" result="hardAlpha"/>
<feOffset dx="8"/>
<feComposite in2="hardAlpha" operator="out"/>
<feColorMatrix type="matrix" values="0 0 0 0 0 0 0 0 0 0 0 0 0 0 0 0 0 0 1 0"/>
<feBlend mode="normal" in2="BackgroundImageFix" result="effect1_dropShadow_315_226"/>
<feColorMatrix in="SourceAlpha" type="matrix" values="0 0 0 0 0 0 0 0 0 0 0 0 0 0 0 0 0 0 127 0" result="hardAlpha"/>
<feOffset dx="7"/>
<feComposite in2="hardAlpha" operator="out"/>
<feColorMatrix type="matrix" values="0 0 0 0 0 0 0 0 0 0 0 0 0 0 0 0 0 0 1 0"/>
<feBlend mode="normal" in2="effect1_dropShadow_315_226" result="effect2_dropShadow_315_226"/>
<feColorMatrix in="SourceAlpha" type="matrix" values="0 0 0 0 0 0 0 0 0 0 0 0 0 0 0 0 0 0 127 0" result="hardAlpha"/>
<feOffset dx="6"/>
<feComposite in2="hardAlpha" operator="out"/>
<feColorMatrix type="matrix" values="0 0 0 0 0 0 0 0 0 0 0 0 0 0 0 0 0 0 1 0"/>
<feBlend mode="normal" in2="effect2_dropShadow_315_226" result="effect3_dropShadow_315_226"/>
<feColorMatrix in="SourceAlpha" type="matrix" values="0 0 0 0 0 0 0 0 0 0 0 0 0 0 0 0 0 0 127 0" result="hardAlpha"/>
<feOffset dx="5"/>
<feComposite in2="hardAlpha" operator="out"/>
<feColorMatrix type="matrix" values="0 0 0 0 0 0 0 0 0 0 0 0 0 0 0 0 0 0 1 0"/>
<feBlend mode="normal" in2="effect3_dropShadow_315_226" result="effect4_dropShadow_315_226"/>
<feColorMatrix in="SourceAlpha" type="matrix" values="0 0 0 0 0 0 0 0 0 0 0 0 0 0 0 0 0 0 127 0" result="hardAlpha"/>
<feOffset dx="4"/>
<feComposite in2="hardAlpha" operator="out"/>
<feColorMatrix type="matrix" values="0 0 0 0 0 0 0 0 0 0 0 0 0 0 0 0 0 0 1 0"/>
<feBlend mode="normal" in2="effect4_dropShadow_315_226" result="effect5_dropShadow_315_226"/>
<feColorMatrix in="SourceAlpha" type="matrix" values="0 0 0 0 0 0 0 0 0 0 0 0 0 0 0 0 0 0 127 0" result="hardAlpha"/>
<feOffset dx="3"/>
<feComposite in2="hardAlpha" operator="out"/>
<feColorMatrix type="matrix" values="0 0 0 0 0 0 0 0 0 0 0 0 0 0 0 0 0 0 1 0"/>
<feBlend mode="normal" in2="effect5_dropShadow_315_226" result="effect6_dropShadow_315_226"/>
<feColorMatrix in="SourceAlpha" type="matrix" values="0 0 0 0 0 0 0 0 0 0 0 0 0 0 0 0 0 0 127 0" result="hardAlpha"/>
<feOffset dx="2"/>
<feComposite in2="hardAlpha" operator="out"/>
<feColorMatrix type="matrix" values="0 0 0 0 0 0 0 0 0 0 0 0 0 0 0 0 0 0 1 0"/>
<feBlend mode="normal" in2="effect6_dropShadow_315_226" result="effect7_dropShadow_315_226"/>
<feColorMatrix in="SourceAlpha" type="matrix" values="0 0 0 0 0 0 0 0 0 0 0 0 0 0 0 0 0 0 127 0" result="hardAlpha"/>
<feOffset dx="1"/>
<feComposite in2="hardAlpha" operator="out"/>
<feColorMatrix type="matrix" values="0 0 0 0 0 0 0 0 0 0 0 0 0 0 0 0 0 0 1 0"/>
<feBlend mode="normal" in2="effect7_dropShadow_315_226" result="effect8_dropShadow_315_226"/>
<feBlend mode="normal" in="SourceGraphic" in2="effect8_dropShadow_315_226" result="shape"/>
</filter>
</defs>
</svg>
