<svg width="39" height="31" viewBox="0 0 39 31" fill="none" xmlns="http://www.w3.org/2000/svg">
<path fill-rule="evenodd" clip-rule="evenodd" d="M14.0142 27.7888C14.4879 28.2794 14.8743 28.6798 15.1421 28.9574L15.5592 29.3897C15.9361 29.7805 16.4557 30.0014 16.9986 30.0015C17.0828 30.0015 17.1663 29.9962 17.2489 29.9858C17.3313 29.9962 17.4147 30.0015 17.4986 30.0015C17.554 30.0015 17.6092 29.9992 17.664 29.9946C17.7128 29.9975 17.762 29.9991 17.8115 29.9995C17.8184 29.9995 17.8253 29.9996 17.8322 29.9996H17.9114C17.9404 30.0008 17.9694 30.0015 17.9986 30.0015C18.0279 30.0015 18.0571 30.0008 18.0863 29.9996H18.3322H18.4113C18.4403 30.0008 18.4694 30.0015 18.4985 30.0015C18.5278 30.0015 18.5571 30.0008 18.5862 29.9996H18.8321H18.9113C18.9403 30.0008 18.9694 30.0015 18.9985 30.0015C19.0278 30.0015 19.057 30.0008 19.0862 29.9996H19.3321H19.4113C19.4403 30.0008 19.4693 30.0015 19.4985 30.0015C19.5278 30.0015 19.557 30.0008 19.5862 29.9996H19.8321H19.9112C19.9402 30.0008 19.9693 30.0015 19.9984 30.0015C20.0277 30.0015 20.057 30.0008 20.0861 29.9996H20.332H20.4112C20.4402 30.0008 20.4693 30.0015 20.4984 30.0015C20.5277 30.0015 20.557 30.0008 20.5861 29.9996H20.832H20.9112C20.9402 30.0008 20.9692 30.0015 20.9984 30.0015C21.0277 30.0015 21.0569 30.0008 21.0861 29.9996H21.332H21.4111C21.4401 30.0008 21.4692 30.0015 21.4983 30.0015C21.5277 30.0015 21.5569 30.0008 21.586 29.9996H21.8319H21.9111C21.9401 30.0008 21.9692 30.0015 21.9983 30.0015C22.0276 30.0015 22.0569 30.0008 22.086 29.9996H22.3319H22.8319H31.1647H31.6646H32.1646H32.6646H33.1646H33.6645H34.1645H34.6645H35.1644H35.6644H36.1644C37.7291 29.9996 38.9975 28.7311 38.9975 27.1664C38.9975 23.5775 36.8159 20.4981 33.7064 19.1821C33.9174 18.8876 34.0982 18.57 34.2443 18.2338C35.0256 17.4325 35.7084 16.7349 36.2261 16.2102C37.9195 14.4943 38.9974 12.1353 38.9974 9.50083C38.9974 4.25748 34.7481 0.00146484 29.498 0.00146484C29.4145 0.00146484 29.3312 0.0025447 29.2482 0.00469122C29.1651 0.00254471 29.0817 0.00146484 28.9981 0.00146484C28.9145 0.00146484 28.8312 0.00254471 28.7482 0.00469124C28.6651 0.00254471 28.5817 0.00146484 28.4981 0.00146484C28.4146 0.00146484 28.3313 0.0025447 28.2482 0.0046912C28.1651 0.0025447 28.0818 0.00146484 27.9981 0.00146484C27.9146 0.00146484 27.8313 0.0025447 27.7483 0.0046912C27.6652 0.0025447 27.5818 0.00146484 27.4982 0.00146484C27.4146 0.00146484 27.3313 0.0025447 27.2483 0.00469122C27.1652 0.00254471 27.0818 0.00146484 26.9982 0.00146484C26.9147 0.00146484 26.8314 0.00254471 26.7483 0.00469124C26.6652 0.00254471 26.5819 0.00146484 26.4982 0.00146484C26.4147 0.00146484 26.3314 0.0025447 26.2484 0.0046912C26.1653 0.0025447 26.0819 0.00146484 25.9983 0.00146484C25.9147 0.00146484 25.8314 0.0025447 25.7484 0.0046912C25.6653 0.0025447 25.5819 0.00146484 25.4983 0.00146484C25.4148 0.00146484 25.3315 0.00254471 25.2484 0.00469123C25.1653 0.00254471 25.082 0.00146484 24.9983 0.00146484C24.9148 0.00146484 24.8315 0.0025447 24.7485 0.0046912C24.6654 0.0025447 24.582 0.00146484 24.4984 0.00146484C22.6647 0.00146484 20.952 0.521671 19.4998 1.42247C18.0478 0.521697 16.3346 0.00146484 14.4991 0.00146484C14.4155 0.00146484 14.3322 0.0025447 14.2492 0.0046912C14.1661 0.0025447 14.0827 0.00146484 13.9991 0.00146484C13.9155 0.00146484 13.8322 0.0025447 13.7492 0.00469122C13.6661 0.0025447 13.5827 0.00146484 13.4991 0.00146484C13.4156 0.00146484 13.3323 0.0025447 13.2493 0.00469121C13.1661 0.0025447 13.0828 0.00146484 12.9991 0.00146484C12.9156 0.00146484 12.8323 0.0025447 12.7493 0.00469122C12.6662 0.0025447 12.5828 0.00146484 12.4992 0.00146484C12.4156 0.00146484 12.3323 0.0025447 12.2493 0.0046912C12.1662 0.0025447 12.0828 0.00146484 11.9992 0.00146484C11.9157 0.00146484 11.8324 0.0025447 11.7493 0.00469121C11.6662 0.0025447 11.5829 0.00146484 11.4992 0.00146484C11.4157 0.00146484 11.3324 0.00254472 11.2494 0.00469124C11.1663 0.00254471 11.0829 0.00146484 10.9993 0.00146484C10.9157 0.00146484 10.8324 0.0025447 10.7494 0.00469122C10.6663 0.00254471 10.5829 0.00146484 10.4993 0.00146484C10.4158 0.00146484 10.3325 0.0025447 10.2494 0.0046912C10.1663 0.0025447 10.083 0.00146484 9.99934 0.00146484C9.9158 0.00146484 9.8325 0.0025447 9.74948 0.00469122C9.67707 0.0028211 9.60446 0.00176062 9.53166 0.00151853C9.5209 0.00148275 9.51014 0.00146484 9.49937 0.00146484C4.25515 0.00146484 0 4.25661 0 9.50083C0 12.1385 1.08544 14.4968 2.77626 16.2102C4.38191 17.8375 7.57429 21.1288 10.3725 24.0209C11.77 25.4653 13.0668 26.8076 14.0142 27.7888Z" fill="black"/>
<path fill-rule="evenodd" clip-rule="evenodd" d="M24.4985 2.00122C20.3588 2.00122 16.999 5.361 16.999 9.50072C16.999 5.361 13.6442 2.00122 9.4995 2.00122C5.35977 2.00122 2 5.361 2 9.50072C2 11.5756 2.85144 13.439 4.19985 14.8054C6.51827 17.155 12.1094 22.9373 15.0758 26.0089C15.4874 22.925 17.5208 20.3541 20.2902 19.182C19.6832 18.3343 19.3258 17.2956 19.3258 16.1734C19.3258 13.3166 21.6417 11.0006 24.4986 11.0006C26.9735 11.0006 29.0424 12.7387 29.5514 15.0609L29.8031 14.8054C31.1515 13.439 31.998 11.5756 31.998 9.50072C31.998 5.361 28.6432 2.00122 24.4985 2.00122ZM21.3257 16.1734C21.3257 14.4211 22.7462 13.0005 24.4986 13.0005C26.2509 13.0005 27.6714 14.4211 27.6714 16.1734C27.6714 17.9257 26.2509 19.3463 24.4986 19.3463C22.7462 19.3463 21.3257 17.9257 21.3257 16.1734ZM16.999 27.1663C16.999 23.4846 19.9836 20.5 23.6653 20.5H25.3318C29.0135 20.5 31.9981 23.4846 31.9981 27.1663C31.9981 27.6265 31.625 27.9996 31.1648 27.9996H17.8323C17.3721 27.9996 16.999 27.6265 16.999 27.1663Z" fill="white"/>
</svg>
