<svg width="50" height="35" viewBox="0 0 50 35" fill="none" xmlns="http://www.w3.org/2000/svg">
<path d="M3.28039 3.71239C-0.937211 7.91271 -0.937217 14.6774 3.28039 18.8777L18.2356 33.7716C18.708 34.242 19.3224 34.4846 19.9413 34.4992L30.1172 34.4972C30.7167 34.4695 31.3081 34.2276 31.766 33.7716L46.7212 18.8777C50.9388 14.6774 50.9388 7.91271 46.7212 3.71239C44.5686 1.56859 41.904 0.565397 39.2673 0.505738H28.7654C27.4743 0.534885 26.1982 0.788238 25.0008 1.24251C23.7705 0.775764 22.4571 0.521124 21.1298 0.503845H10.8405C8.16923 0.538662 5.46192 1.5398 3.28039 3.71239Z" fill="black"/>
<path d="M4.51396 17.4645L19.4692 32.3584C19.6638 32.5523 19.9823 32.5523 20.177 32.3584L35.1322 17.4645C38.5648 14.0459 38.5648 8.55209 35.1322 5.13347C29.6021 -0.37395 20.0503 3.3284 19.8375 11.0618L19.8231 11.5884L19.8086 11.0618C19.5958 3.3284 10.0441 -0.37395 4.51397 5.13347C1.08128 8.55209 1.08128 14.0459 4.51396 17.4645Z" fill="#EE7A63"/>
</svg>
