<svg width="50" height="35" viewBox="0 0 50 35" fill="none" xmlns="http://www.w3.org/2000/svg">
<path d="M3.27966 3.96245C-0.937943 8.16277 -0.937949 14.9274 3.27966 19.1277L18.2349 34.0216C18.7072 34.4921 19.3217 34.7346 19.9406 34.7492L30.1165 34.7472C30.716 34.7195 31.3074 34.4777 31.7653 34.0216L46.7205 19.1277C50.9381 14.9274 50.9381 8.16277 46.7205 3.96245C44.5678 1.81865 41.9033 0.815459 39.2666 0.755799H28.7647C27.4736 0.784946 26.1974 1.0383 25.0001 1.49257C23.7698 1.02583 22.4564 0.771185 21.1291 0.753906H10.8397C8.1685 0.788724 5.46119 1.78987 3.27966 3.96245Z" fill="black"/>
<path d="M4.51323 17.7146L19.4684 32.6085C19.6631 32.8024 19.9816 32.8024 20.1762 32.6085L35.1314 17.7146C38.5641 14.296 38.5641 8.80215 35.1314 5.38354C29.6013 -0.123888 20.0496 3.57846 19.8368 11.3119L19.8223 11.8384L19.8078 11.3119C19.5951 3.57846 10.0433 -0.123888 4.51323 5.38354C1.08055 8.80215 1.08055 14.296 4.51323 17.7146Z" fill="#EE6392"/>
</svg>
