<svg width="33" height="23" viewBox="0 0 33 23" fill="none" xmlns="http://www.w3.org/2000/svg">
<path d="M2.33454 2.3398C-0.425963 5.08899 -0.425967 9.51658 2.33454 12.2658L12.123 22.0141C12.4322 22.322 12.8344 22.4808 13.2394 22.4903L19.8997 22.489C20.2921 22.4709 20.6792 22.3126 20.9789 22.0141L30.7674 12.2658C33.5279 9.51658 33.5279 5.08899 30.7674 2.3398C29.3584 0.936642 27.6144 0.280033 25.8887 0.240985H19.015C18.1699 0.260062 17.3347 0.425886 16.5509 0.723214C15.7457 0.417722 14.8861 0.251055 14.0173 0.239746H7.28275C5.53437 0.262535 3.76239 0.917801 2.33454 2.3398Z" fill="black"/>
<path d="M3.1421 11.3409L12.9306 21.0892C13.058 21.2161 13.2664 21.2161 13.3938 21.0892L23.1823 11.3409C25.429 9.10333 25.429 5.50752 23.1823 3.26997C19.5627 -0.334743 13.3109 2.08851 13.1717 7.15017L13.1622 7.49481L13.1527 7.15017C13.0135 2.08851 6.76164 -0.334743 3.1421 3.26997C0.895344 5.50752 0.895342 9.10333 3.1421 11.3409Z" fill="#E8306E"/>
</svg>
