<svg width="50" height="35" viewBox="0 0 50 35" fill="none" xmlns="http://www.w3.org/2000/svg">
<path d="M3.28039 3.96336C-0.937211 8.16368 -0.937217 14.9283 3.28039 19.1286L18.2356 34.0226C18.708 34.493 19.3224 34.7355 19.9413 34.7501L30.1172 34.7481C30.7167 34.7204 31.3081 34.4786 31.766 34.0226L46.7212 19.1286C50.9388 14.9283 50.9388 8.16368 46.7212 3.96336C44.5686 1.81956 41.904 0.816366 39.2673 0.756707H28.7654C27.4743 0.785854 26.1982 1.03921 25.0008 1.49348C23.7705 1.02673 22.4571 0.772092 21.1298 0.754814H10.8405C8.16923 0.789631 5.46192 1.79077 3.28039 3.96336Z" fill="black"/>
<path d="M4.51396 17.7155L19.4692 32.6094C19.6638 32.8033 19.9823 32.8033 20.177 32.6094L35.1322 17.7155C38.5648 14.2969 38.5648 8.80306 35.1322 5.38444C29.6021 -0.122981 20.0503 3.57937 19.8375 11.3128L19.8231 11.8393L19.8086 11.3128C19.5958 3.57937 10.0441 -0.122981 4.51397 5.38444C1.08128 8.80306 1.08128 14.2969 4.51396 17.7155Z" fill="#EE6392"/>
</svg>
