<svg width="25" height="20" viewBox="0 0 25 20" fill="none" xmlns="http://www.w3.org/2000/svg">
<path d="M0.668457 3C0.668457 1.34315 2.0116 0 3.66846 0H21.0018C22.6586 0 24.0018 1.34315 24.0018 3V17.6667C24.0018 18.9553 22.9571 20 21.6685 20C15.4235 20 9.2467 20 3.00179 20C1.71312 20 0.668457 18.9553 0.668457 17.6667V3Z" fill="black"/>
<path fill-rule="evenodd" clip-rule="evenodd" d="M2.00195 3.00065C2.00195 2.08018 2.74815 1.33398 3.66862 1.33398H17.6686C18.5891 1.33398 19.3353 2.08018 19.3353 3.00065V17.6673C19.3353 18.2196 18.8876 18.6673 18.3353 18.6673C17.7921 18.6673 14.6433 18.6673 12.9999 18.6673C12.4476 18.6673 12.002 18.2196 12.002 17.6673V14.6673C12.002 13.9309 11.405 13.334 10.6686 13.334C9.93224 13.334 9.33529 13.9309 9.33529 14.6673V17.6673C9.33529 18.2196 8.88961 18.6673 8.33733 18.6673C6.69393 18.6673 3.54515 18.6673 3.00195 18.6673C2.44967 18.6673 2.00195 18.2196 2.00195 17.6673V3.00065ZM6.66862 4.66732C6.11633 4.66732 5.66862 5.11503 5.66862 5.66732V7.83398C5.66862 8.11013 5.44476 8.33398 5.16862 8.33398C4.89248 8.33398 4.66862 8.55784 4.66862 8.83398C4.66862 9.11013 4.89248 9.33398 5.16862 9.33398H8.16862C8.44476 9.33398 8.66862 9.11013 8.66862 8.83398C8.66862 8.55784 8.44476 8.33398 8.16862 8.33398C7.89248 8.33398 7.66862 8.11013 7.66862 7.83398V5.66732C7.66862 5.11503 7.2209 4.66732 6.66862 4.66732ZM13.6686 5.66732C13.6686 5.11503 14.1163 4.66732 14.6686 4.66732C15.2209 4.66732 15.6686 5.11503 15.6686 5.66732V7.83398C15.6686 8.11013 15.8925 8.33398 16.1686 8.33398C16.4448 8.33398 16.6686 8.55784 16.6686 8.83398C16.6686 9.11013 16.4448 9.33398 16.1686 9.33398H13.1686C12.8925 9.33398 12.6686 9.11013 12.6686 8.83398C12.6686 8.55784 12.8925 8.33398 13.1686 8.33398C13.4448 8.33398 13.6686 8.11013 13.6686 7.83398V5.66732Z" fill="white"/>
</svg>
