<svg width="44" height="41" viewBox="0 0 44 41" fill="none" xmlns="http://www.w3.org/2000/svg">
<path d="M4 40.5H40C42.2091 40.5 44 38.7091 44 36.5V4.5C44 2.29086 42.2091 0.5 40 0.5H4C1.79086 0.5 0 2.29086 0 4.5V36.5C0 38.7091 1.79086 40.5 4 40.5Z" fill="black"/>
<path fill-rule="evenodd" clip-rule="evenodd" d="M4 2.5C2.89543 2.5 2 3.39543 2 4.5V36.5C2 37.6046 2.89543 38.5 4 38.5H17.2308V30.193C17.2308 28.6636 18.4706 27.4238 20 27.4238C21.5294 27.4238 22.7692 28.6636 22.7692 30.193V38.5H36C37.1046 38.5 38 37.6046 38 36.5V4.5C38 3.39543 37.1046 2.5 36 2.5H4ZM26.1538 9.42375C25.0493 9.42375 24.1538 10.3192 24.1538 11.4238V16.3462H22.7692V17.7308H29.6923V16.3462H28.3077V11.4238C28.3077 10.3192 27.4122 9.42375 26.3077 9.42375H26.1538ZM11.6926 11.4238C11.6926 10.3193 12.5881 9.42383 13.6926 9.42383H13.8465C14.9511 9.42383 15.8465 10.3193 15.8465 11.4238V16.3462H17.2304V17.7308H10.3074V16.3462H11.6926V11.4238Z" fill="#FA9938"/>
</svg>
