<svg width="24" height="20" viewBox="0 0 24 20" fill="none" xmlns="http://www.w3.org/2000/svg">
<path d="M0.333496 17.7037C0.333496 18.9719 1.36158 20 2.62979 20H21.3705C22.6387 20 23.6668 18.9719 23.6668 17.7037V2.2963C23.6668 1.02809 22.6387 0 21.3705 0H2.62979C1.36158 0 0.333496 1.02809 0.333496 2.2963V17.7037Z" fill="black"/>
<path fill-rule="evenodd" clip-rule="evenodd" d="M2.62996 1.33325C2.09813 1.33325 1.66699 1.76439 1.66699 2.29622V17.7036C1.66699 18.2355 2.09813 18.6666 2.62996 18.6666H9.00032V14.6669C9.00032 13.9305 9.59727 13.3336 10.3336 13.3336C11.07 13.3336 11.667 13.9305 11.667 14.6669V18.6666H18.0374C18.5692 18.6666 19.0003 18.2355 19.0003 17.7036V2.29621C19.0003 1.76439 18.5692 1.33325 18.0374 1.33325H2.62996ZM13.2966 4.66691C12.7648 4.66691 12.3337 5.09804 12.3337 5.62987V7.99992H11.667V8.66659H15.0003V7.99992H14.3337V5.62987C14.3337 5.09804 13.9025 4.66691 13.3707 4.66691H13.2966ZM6.33382 5.62991C6.33382 5.09808 6.76495 4.66695 7.29678 4.66695H7.37086C7.90269 4.66695 8.33382 5.09808 8.33382 5.62991V7.99996H9.00016V8.66662H5.66683V7.99996H6.33382V5.62991Z" fill="#88D0AC"/>
</svg>
