<svg width="47" height="40" viewBox="0 0 47 40" fill="none" xmlns="http://www.w3.org/2000/svg">
<path d="M0 6C0 2.68629 2.68648 0 6.00043 0H40.6696C43.9835 0 46.67 2.68629 46.67 6V35.3333C46.67 37.9107 44.5805 40 42.003 40C29.5123 40 17.1577 40 4.667 40C2.08948 40 0 37.9107 0 35.3333V6Z" fill="black"/>
<path fill-rule="evenodd" clip-rule="evenodd" d="M2.66699 6.0013C2.66699 4.16035 4.15948 2.66797 6.00056 2.66797H34.0026C35.8436 2.66797 37.3361 4.16035 37.3361 6.0013V35.3346C37.3361 36.4392 36.4406 37.3346 35.336 37.3346C34.1251 37.3346 26.4403 37.3346 23.6658 37.3346C23.1135 37.3346 22.6684 36.8869 22.6684 36.3346V29.3346C22.6684 27.8619 21.4744 26.668 20.0016 26.668C18.5287 26.668 17.3347 27.8619 17.3347 29.3346V36.3346C17.3347 36.8869 16.8896 37.3346 16.3373 37.3346C13.5629 37.3346 5.87806 37.3346 4.66713 37.3346C3.56249 37.3346 2.66699 36.4392 2.66699 35.3346V6.0013ZM12.001 9.33464C10.8963 9.33464 10.0008 10.2301 10.0008 11.3346V15.668C10.0008 16.2203 9.55306 16.668 9.00078 16.668V16.668C8.44845 16.668 8.00071 17.1157 8.00071 17.668C8.00071 18.2203 8.44845 18.668 9.00078 18.668H15.0012C15.5535 18.668 16.0013 18.2203 16.0013 17.668C16.0013 17.1157 15.5535 16.668 15.0012 16.668V16.668C14.4489 16.668 14.0011 16.2203 14.0011 15.668V11.3346C14.0011 10.2301 13.1056 9.33464 12.001 9.33464ZM26.002 11.3346C26.002 10.2301 26.8975 9.33464 28.0021 9.33464C29.1068 9.33464 30.0023 10.2301 30.0023 11.3346V15.668C30.0023 16.2203 30.4501 16.668 31.0023 16.668V16.668C31.5547 16.668 32.0024 17.1157 32.0024 17.668C32.0024 18.2203 31.5547 18.668 31.0023 18.668H25.0019C24.4496 18.668 24.0018 18.2203 24.0018 17.668C24.0018 17.1157 24.4496 16.668 25.0019 16.668V16.668C25.5542 16.668 26.002 16.2203 26.002 15.668V11.3346Z" fill="#FA9938"/>
</svg>
