<svg width="24" height="21" viewBox="0 0 24 21" fill="none" xmlns="http://www.w3.org/2000/svg">
<path d="M7.73124 5.57726C7.22144 5.57726 6.80816 5.99053 6.80816 6.50033V8.65386H6.19227V9.26925H9.2692V8.65386H8.65431V6.50033C8.65431 5.99053 8.24104 5.57726 7.73124 5.57726Z" fill="black"/>
<path d="M12.3467 6.50055C12.3467 5.99075 12.76 5.57747 13.2698 5.57747C13.7796 5.57747 14.1928 5.99075 14.1928 6.50055V8.65408H14.8082V9.26946H11.7312V8.65408H12.3467V6.50055Z" fill="black"/>
<path fill-rule="evenodd" clip-rule="evenodd" d="M4.5 20.5C2.29086 20.5 0.5 18.7091 0.5 16.5V4.5C0.5 2.29086 2.29086 0.5 4.5 0.5H19.5C21.7091 0.5 23.5 2.29086 23.5 4.5V16.5C23.5 18.7091 21.7091 20.5 19.5 20.5H4.5ZM2.5 4.5C2.5 3.39543 3.39543 2.5 4.5 2.5H16.5C17.6046 2.5 18.5 3.39543 18.5 4.5V16.5C18.5 17.6046 17.6046 18.5 16.5 18.5H11.731V14.8081C11.731 14.1284 11.1799 13.5774 10.5002 13.5774C9.82046 13.5774 9.26942 14.1284 9.26942 14.8081V18.5H4.5C3.39543 18.5 2.5 17.6046 2.5 16.5V4.5Z" fill="black"/>
</svg>
