<svg width="22" height="22" viewBox="0 0 22 22" fill="none" xmlns="http://www.w3.org/2000/svg">
<path d="M13.2358 5.77001C12.4822 5.36688 11.6212 5.13831 10.7068 5.13831C7.74299 5.13831 5.33949 7.53951 5.33949 10.503C5.33949 13.4664 7.74299 15.8676 10.7068 15.8676C13.6705 15.8676 16.074 13.4664 16.074 10.503C16.074 9.58928 15.8456 8.72905 15.4426 7.97616C15.5087 7.96973 15.5747 7.96003 15.6402 7.94703L15.4479 6.97759L15.6402 7.94703C16.0185 7.87198 16.3672 7.69032 16.6453 7.42382C16.6735 8.08395 16.6798 8.52673 16.6798 10.503C16.6798 12.7691 16.6715 13.019 16.6314 13.8921L16.6314 13.8925C16.5987 14.6096 16.4834 14.9536 16.4056 15.1544C16.3006 15.4237 16.1924 15.5888 15.995 15.7859C15.797 15.9836 15.6309 16.0923 15.3607 16.1974L15.3601 16.1976C15.1618 16.2749 14.8183 16.3901 14.0985 16.4228L14.0979 16.4228C13.225 16.4629 12.9742 16.4712 10.7068 16.4712C8.43933 16.4712 8.18928 16.4629 7.31663 16.4228L7.31617 16.4228C6.59641 16.39 6.25286 16.2749 6.0541 16.1975L6.05387 16.1974C5.78375 16.0923 5.61796 15.9839 5.41939 15.7858C5.22096 15.5877 5.11311 15.423 5.00914 15.1549L5.00838 15.153C4.93109 14.9549 4.8159 14.6118 4.78319 13.8926L4.78316 13.8921C4.74302 13.0197 4.73476 12.7691 4.73476 10.503C4.73476 8.23799 4.74368 7.98719 4.78318 7.11353L13.2358 5.77001ZM13.2358 5.77001C13.2797 5.32054 13.4732 4.89705 13.7875 4.56887M13.2358 5.77001L13.7875 4.56887M13.7875 4.56887C13.1266 4.54096 12.682 4.53418 10.7068 4.53418C8.44035 4.53418 8.18955 4.54244 7.31662 4.58257L7.31608 4.58259C6.59628 4.61529 6.25275 4.73045 6.05442 4.80775L6.05194 4.80872L6.05194 4.80871C5.78309 4.91268 5.61841 5.02045 5.42036 5.21865C5.22246 5.41671 5.11412 5.58205 5.00923 5.85087C4.93084 6.05448 4.81581 6.39828 4.7832 7.11318L13.7875 4.56887ZM3.62922 3.42967L2.92289 2.72179C3.50026 2.14568 4.09339 1.78099 4.77386 1.51706C5.42767 1.26286 6.1549 1.10104 7.15416 1.0555L3.62922 3.42967ZM3.62922 3.42967L2.92289 2.72179C2.34406 3.29936 1.97999 3.89376 1.71628 4.57277M3.62922 3.42967L1.71628 4.57277M4.774 19.4889L4.77342 19.4887C4.09389 19.2244 3.5007 18.8605 2.92299 18.2842C2.34392 17.7066 1.97987 17.1115 1.71628 16.4332L4.774 19.4889ZM4.774 19.4889C5.42845 19.7429 6.15464 19.9049 7.15481 19.9505L7.15491 19.9505L4.774 19.4889ZM16.6403 19.4886L16.6399 19.4888C15.9859 19.7429 15.2591 19.9049 14.2594 19.9504L16.6403 19.4886ZM16.6403 19.4886C17.319 19.2245 17.9126 18.8609 18.4906 18.2841C19.0702 17.7058 19.4332 17.1109 19.6971 16.4335L19.6972 16.4332M16.6403 19.4886L19.6972 16.4332M19.6972 16.4332C19.9515 15.7798 20.1144 15.0531 20.1593 14.0528M19.6972 16.4332L20.1593 6.95307M20.1593 6.95307L20.1593 6.95313C20.2016 7.88229 20.2112 8.18992 20.2112 10.503C20.2112 12.816 20.2016 13.1229 20.1593 14.0528M20.1593 6.95307C20.1138 5.95358 19.9517 5.2264 19.6972 4.57257L19.6971 4.57239M20.1593 6.95307L19.6971 4.57239M20.1593 14.0528L19.1604 14.0073L20.1593 14.0521C20.1593 14.0523 20.1593 14.0525 20.1593 14.0528ZM19.6971 4.57239C19.4328 3.89388 19.0689 3.30061 18.4917 2.72291C17.9136 2.14416 17.3185 1.7805 16.6405 1.51711L16.6402 1.51701M19.6971 4.57239L16.6402 1.51701M16.6402 1.51701C15.9863 1.2632 15.2595 1.10033 14.2593 1.05547L16.6402 1.51701ZM1.71628 4.57277C1.46187 5.22658 1.29982 5.95321 1.25423 6.95238C1.21124 7.88199 1.20166 8.18998 1.20166 10.503C1.20166 12.8154 1.21124 13.1238 1.2542 14.0529L1.71628 4.57277ZM8.87218 10.503C8.87218 9.49075 9.69311 8.6694 10.7068 8.6694C11.7207 8.6694 12.542 9.49106 12.542 10.503C12.542 11.5149 11.7207 12.3365 10.7068 12.3365C9.69311 12.3365 8.87218 11.5152 8.87218 10.503ZM1.25423 14.0535C1.29981 15.0525 1.46179 15.779 1.71608 16.4326L1.25423 14.0535ZM14.2587 1.05544C13.3298 1.01323 13.0219 1.00296 10.7074 1.00296C8.39362 1.00296 8.08489 1.01253 7.15481 1.05547L14.2587 1.05544Z" fill="white" stroke="black" stroke-width="2" stroke-linejoin="round"/>
</svg>
