<svg width="25" height="20" viewBox="0 0 25 20" fill="none" xmlns="http://www.w3.org/2000/svg">
<path d="M12.5288 19.9966C12.1128 19.9991 11.5829 20 10.863 20C8.50428 20 8.1859 19.9902 7.23119 19.9468C6.18184 19.8997 5.40713 19.7278 4.7059 19.4549L4.7054 19.4547C3.97792 19.1713 3.33391 18.7785 2.71134 18.1545C2.09081 17.5326 1.69735 16.8903 1.41362 16.1611L1.41342 16.1606C1.14057 15.4585 0.969777 14.6838 0.921992 13.6355H0.944732L0.943314 13.6052C0.899909 12.6512 0.890137 12.332 0.890137 9.97332C0.890137 7.61463 0.899906 7.29625 0.943308 6.34154C0.99041 5.29219 1.16237 4.51748 1.43522 3.81625L1.43542 3.81575C1.71883 3.08828 2.11167 2.44426 2.7356 1.82169C3.3575 1.20116 3.99984 0.807701 4.72903 0.52397L4.72953 0.523774C5.4316 0.25092 6.20632 0.080127 7.25461 0.0323421L7.25461 0.0545954L7.28491 0.053177C8.23896 0.00977167 8.55816 0 10.9168 0C11.6368 0 12.1667 0.000910348 12.5826 0.00340976C12.9986 0.000910394 13.5285 0 14.2484 0C16.6071 0 16.9255 0.00976987 17.8802 0.0531716C18.9296 0.100273 19.7043 0.272234 20.4055 0.545086L20.406 0.545282C21.1335 0.828689 21.7775 1.22154 22.4001 1.84547C23.0206 2.46736 23.4141 3.10971 23.6978 3.83889L23.698 3.83939C23.9708 4.54147 24.1416 5.31618 24.1894 6.36447L24.1667 6.36447L24.1681 6.39477C24.2115 7.34882 24.2213 7.66802 24.2213 10.0267C24.2213 12.3854 24.2115 12.7037 24.1681 13.6585C24.121 14.7078 23.949 15.4825 23.6762 16.1837L23.676 16.1842C23.3926 16.9117 22.9997 17.5557 22.3758 18.1783C21.7539 18.7988 21.1116 19.1923 20.3824 19.476L20.3819 19.4762C19.6798 19.7491 18.9051 19.9199 17.8568 19.9677V19.9454L17.8265 19.9468C16.8724 19.9902 16.5532 20 14.1946 20C13.4746 20 12.9447 19.9991 12.5288 19.9966Z" fill="black"/>
<path d="M8.00534 9.99992C8.00534 8.40449 9.29911 7.1108 10.8955 7.1108C12.4919 7.1108 13.7864 8.40449 13.7864 9.99992C13.7864 11.5953 12.4919 12.889 10.8955 12.889C9.29911 12.889 8.00534 11.5953 8.00534 9.99992ZM6.4426 9.99992C6.4426 12.4578 8.43616 14.4501 10.8955 14.4501C13.3548 14.4501 15.3484 12.4578 15.3484 9.99992C15.3484 7.54205 13.3548 5.54969 10.8955 5.54969C8.43616 5.54969 6.4426 7.54205 6.4426 9.99992ZM14.4841 5.37324C14.484 5.57893 14.5449 5.78003 14.6592 5.9511C14.7735 6.12217 14.9359 6.25554 15.1261 6.33433C15.3162 6.41312 15.5254 6.4338 15.7273 6.39375C15.9292 6.3537 16.1146 6.25473 16.2602 6.10934C16.4058 5.96395 16.505 5.77868 16.5452 5.57695C16.5855 5.37523 16.5649 5.16611 16.4862 4.97605C16.4076 4.78598 16.2742 4.6235 16.1032 4.50915C15.9321 4.39481 15.7309 4.33373 15.5251 4.33365H15.5247C15.2488 4.33378 14.9843 4.44334 14.7891 4.63826C14.594 4.83318 14.4843 5.09752 14.4841 5.37324ZM7.39207 17.0544C6.54659 17.0159 6.08705 16.8752 5.78166 16.7562C5.37679 16.5987 5.08792 16.4111 4.78419 16.108C4.48047 15.8049 4.29246 15.5164 4.13554 15.1118C4.01649 14.8067 3.87566 14.3473 3.83722 13.5024C3.79518 12.5888 3.78679 12.3144 3.78679 9.99999C3.78679 7.68557 3.79588 7.41191 3.83722 6.49761C3.87573 5.65265 4.0176 5.19415 4.13554 4.88818C4.29316 4.48355 4.48088 4.19485 4.78419 3.89131C5.0875 3.58776 5.3761 3.39987 5.78166 3.24304C6.08691 3.12406 6.54659 2.98332 7.39207 2.94491C8.30615 2.90289 8.58074 2.8945 10.8955 2.8945C13.2103 2.8945 13.4851 2.90358 14.4 2.94491C15.2454 2.98339 15.7042 3.12517 16.0104 3.24304C16.4152 3.39987 16.7041 3.58818 17.0078 3.89131C17.3116 4.19443 17.4989 4.48355 17.6565 4.88818C17.7755 5.19325 17.9164 5.65265 17.9548 6.49761C17.9969 7.41191 18.0053 7.68557 18.0053 9.99999C18.0053 12.3144 17.9969 12.5881 17.9548 13.5024C17.9163 14.3473 17.7748 14.8066 17.6565 15.1118C17.4989 15.5164 17.3112 15.8051 17.0078 16.108C16.7045 16.4108 16.4152 16.5987 16.0104 16.7562C15.7051 16.8752 15.2454 17.016 14.4 17.0544C13.4859 17.0964 13.2113 17.1048 10.8955 17.1048C8.57969 17.1048 8.30587 17.0964 7.39207 17.0544ZM7.32026 1.38574C6.39709 1.42775 5.76626 1.57405 5.21536 1.78829C4.64482 2.00953 4.16183 2.30635 3.67919 2.78793C3.19655 3.26952 2.90032 3.75299 2.67894 4.32318C2.46457 4.87411 2.31819 5.50421 2.27615 6.42683C2.23341 7.3509 2.22363 7.64633 2.22363 9.99992C2.22363 12.3535 2.23341 12.6489 2.27615 13.573C2.31819 14.4957 2.46457 15.1257 2.67894 15.6767C2.90032 16.2465 3.19662 16.7305 3.67919 17.2119C4.16176 17.6933 4.64482 17.9897 5.21536 18.2116C5.7673 18.4258 6.39709 18.5721 7.32026 18.6141C8.24538 18.6561 8.5405 18.6666 10.8955 18.6666C13.2505 18.6666 13.5461 18.6568 14.4707 18.6141C15.394 18.5721 16.0244 18.4258 16.5756 18.2116C17.1458 17.9897 17.6292 17.6935 18.1118 17.2119C18.5944 16.7303 18.8901 16.2465 19.1121 15.6767C19.3264 15.1257 19.4735 14.4956 19.5148 13.573C19.5569 12.6482 19.5667 12.3535 19.5667 9.99992C19.5667 7.64633 19.5569 7.3509 19.5148 6.42683C19.4728 5.50414 19.3264 4.87376 19.1121 4.32318C18.8901 3.75333 18.5937 3.27029 18.1118 2.78793C17.6299 2.30558 17.1458 2.00953 16.5763 1.78829C16.0244 1.57405 15.3939 1.42706 14.4714 1.38574C13.5468 1.34372 13.2512 1.33325 10.8962 1.33325C8.54119 1.33325 8.24538 1.34303 7.32026 1.38574Z" fill="white"/>
</svg>
