<svg width="24" height="21" viewBox="0 0 24 21" fill="none" xmlns="http://www.w3.org/2000/svg">
<path d="M5.94751 1.74121C6.35368 1.75423 6.74593 1.59277 7.02344 1.2959C7.77918 0.486003 8.78204 0.0524089 9.80012 0.00292969H13.4668C13.792 0.0133464 14.1163 0.0628255 14.4319 0.151367C15.1263 0.345378 15.7792 0.726888 16.3101 1.2959C16.5564 1.55892 16.8931 1.71647 17.2497 1.73861L17.3534 1.74121H17.386C19.7431 1.66178 21.6752 3.59408 21.5956 5.95085C21.5818 6.3571 21.7443 6.74902 22.0412 7.02637C23.7643 8.63704 23.7643 11.3688 22.0412 12.9795C21.7443 13.2568 21.5818 13.6501 21.5956 14.0563C21.675 16.4079 19.7506 18.3376 17.3998 18.2646C17.3952 18.2646 17.3906 18.2646 17.386 18.2646H17.3534L17.2497 18.2673C17.108 18.2764 16.9695 18.3063 16.8386 18.3558C16.7863 18.3753 16.7351 18.3988 16.6855 18.4248C16.5964 18.4717 16.5109 18.529 16.4331 18.5941C16.39 18.6305 16.3489 18.6696 16.3101 18.7113C15.5397 19.5355 14.5051 19.9665 13.4668 20.0029C12.2446 20.0029 11.0224 20.0029 9.80012 20.0029C9.45453 19.9847 9.1111 19.9222 8.77809 19.8167C8.12994 19.6136 7.52275 19.2451 7.02344 18.7113C6.79798 18.4704 6.4967 18.3167 6.17383 18.2751C6.09932 18.2659 6.02368 18.262 5.94751 18.2646C5.80021 18.2699 5.65453 18.2673 5.51094 18.2568C3.35679 18.1019 1.66325 16.2659 1.73792 14.0563C1.75167 13.6501 1.58919 13.2568 1.29228 12.9795C-0.430759 11.3688 -0.430759 8.63704 1.29228 7.02637C1.58919 6.74902 1.75167 6.3571 1.73792 5.95085C1.65829 3.59408 3.59043 1.66178 5.94751 1.74121Z" fill="black"/>
<path fill-rule="evenodd" clip-rule="evenodd" d="M12.0025 2.20628C10.9191 1.04712 9.08086 1.04712 7.99748 2.20628C7.45714 2.78442 6.69329 3.10081 5.9024 3.07409C4.31668 3.0205 3.01685 4.32032 3.07044 5.90603C3.09717 6.69691 2.78077 7.46075 2.20263 8.00109C1.04346 9.08446 1.04346 10.9227 2.20263 12.0061C2.78077 12.5464 3.09717 13.3102 3.07044 14.1011C3.01685 15.6868 4.31668 16.9867 5.9024 16.9331C6.69329 16.9063 7.45714 17.2227 7.99749 17.8009C9.08086 18.96 10.9191 18.96 12.0025 17.8009C12.5428 17.2227 13.3067 16.9063 14.0976 16.9331C15.6833 16.9867 16.9831 15.6868 16.9295 14.1011C16.9028 13.3102 17.2192 12.5464 17.7973 12.0061C18.9565 10.9227 18.9565 9.08446 17.7973 8.00109C17.2192 7.46076 16.9028 6.69691 16.9295 5.90603C16.9831 4.32032 15.6833 3.0205 14.0976 3.07409C13.3067 3.10081 12.5428 2.78442 12.0025 2.20628ZM10.5413 16.4352C11.1223 15.8136 11.8527 15.3669 12.6508 15.129V13.2391C12.6508 13.0813 12.7787 12.9534 12.9365 12.9534C13.0943 12.9534 13.2222 13.0813 13.2222 13.2391V14.9965C13.5311 14.9448 13.8468 14.9234 14.1651 14.9342C14.5938 14.9487 14.9451 14.5973 14.9306 14.1686C14.9256 14.0193 14.9276 13.8705 14.9365 13.7227V13.5248C14.9365 12.2624 13.9132 11.2391 12.6508 11.2391H8.07939C7.44821 11.2391 6.93654 10.7274 6.93654 10.0962L6.93654 7.52479C6.93654 7.0514 6.55278 6.66764 6.07939 6.66764C5.60601 6.66764 5.22225 7.0514 5.22225 7.52479V10.0962C5.22225 11.5441 6.29919 12.7404 7.69572 12.9278C7.90625 12.9561 8.07939 13.1256 8.07939 13.338V15.4143C8.59181 15.6651 9.06032 16.009 9.45861 16.4352C9.75148 16.7485 10.2484 16.7485 10.5413 16.4352ZM10.3651 6.66764C11.3119 6.66764 12.0794 7.43515 12.0794 8.38193C12.0794 9.3287 11.3119 10.0962 10.3651 10.0962C9.41833 10.0962 8.65082 9.3287 8.65082 8.38193C8.65082 7.43515 9.41833 6.66764 10.3651 6.66764Z" fill="white"/>
</svg>
