<svg width="24" height="20" viewBox="0 0 24 20" fill="none" xmlns="http://www.w3.org/2000/svg">
<path d="M18.7117 19.997C18.8228 20.001 18.934 20.001 19.0451 19.997C20.2972 20.0414 21.5639 19.5857 22.5197 18.6298C24.3467 16.8028 24.3467 13.8407 22.5197 12.0137L17.9983 7.49229H17.718C17.5065 7.09852 17.2347 6.72864 16.9023 6.39632L11.8763 1.37023C10.9204 0.414348 9.65376 -0.0414111 8.40157 0.00295132C8.29049 -0.000983751 8.17931 -0.000983755 8.06823 0.00295131C7.95716 -0.00098375 7.84597 -0.000983747 7.7349 0.00295131C7.62383 -0.000983748 7.51264 -0.000983741 7.40157 0.00295133C7.29049 -0.000983744 7.17931 -0.00098373 7.06823 0.00295135C6.95716 -0.000983743 6.84597 -0.000983732 6.7349 0.00295136C6.62383 -0.000983731 6.51264 -0.000983693 6.40157 0.00295141C6.29049 -0.000983751 6.17931 -0.000983789 6.06823 0.0029513C5.95716 -0.000983752 5.84597 -0.000983752 5.7349 0.0029513C5.62383 -0.000983758 5.51264 -0.000983752 5.40156 0.00295132C4.14937 -0.041411 2.88275 0.414349 1.92687 1.37023C0.0998972 3.1972 0.0998974 6.15931 1.92687 7.98629L6.4483 12.5077H6.87883C7.10524 13.0123 7.4256 13.485 7.83992 13.8993L12.5704 18.6298C13.5262 19.5857 14.7929 20.0414 16.045 19.997C16.1561 20.001 16.2673 20.001 16.3784 19.997C16.4895 20.001 16.6006 20.001 16.7117 19.997C16.8228 20.001 16.934 20.001 17.0451 19.997C17.1561 20.001 17.2673 20.001 17.3784 19.997C17.4895 20.001 17.6007 20.001 17.7117 19.997C17.8228 20.001 17.934 20.001 18.0451 19.997C18.1561 20.001 18.2673 20.001 18.3784 19.997C18.4895 20.001 18.6006 20.001 18.7117 19.997Z" fill="black"/>
<path fill-rule="evenodd" clip-rule="evenodd" d="M11.1481 8.81731L6.12202 3.79122C5.63217 3.30137 4.83796 3.30137 4.3481 3.79122C3.85825 4.28107 3.85825 5.07528 4.3481 5.56513L6.22487 7.44189C5.8069 8.1184 5.5511 8.86668 5.45749 9.63104L2.86984 7.0434C1.56357 5.73712 1.56357 3.61923 2.86984 2.31296C4.17612 1.00668 6.29401 1.00668 7.60028 2.31296L12.6264 7.33905C13.9326 8.64532 13.9326 10.7632 12.6264 12.0695L11.1481 10.5912C11.638 10.1014 11.638 9.30716 11.1481 8.81731ZM16.7655 14.4347L14.8887 12.5579C15.3067 11.8814 15.5625 11.1332 15.6561 10.3688L18.2438 12.9564C19.55 14.2627 19.55 16.3806 18.2438 17.6869C16.9375 18.9932 14.8196 18.9932 13.5133 17.6869L8.78289 12.9564C7.47662 11.6502 7.47662 9.53228 8.78289 8.22601L10.2612 9.70427C9.7713 10.1941 9.7713 10.9883 10.2612 11.4782L14.9916 16.2086C15.4814 16.6985 16.2757 16.6985 16.7655 16.2086C17.2554 15.7188 17.2554 14.9246 16.7655 14.4347Z" fill="white"/>
</svg>
