<svg width="18" height="31" viewBox="0 0 18 31" fill="none" xmlns="http://www.w3.org/2000/svg">
<path d="M0 15.4906L0.0192002 15.4755C0.00647953 15.6389 0 15.804 0 15.9707V23.7126C0 27.1867 2.81627 30.0029 6.29032 30.0029C7.98598 30.0029 9.43337 30.0029 11.129 30.0029C14.6031 30.0029 17.4194 27.1867 17.4194 23.7126V6.29325C17.4194 2.8192 14.6031 0.00292969 11.129 0.00292969C9.43337 0.00292969 7.98598 0.00292969 6.29032 0.00292969C2.81627 0.00292969 0 2.8192 0 6.29325V15.4906Z" fill="black"/>
<path fill-rule="evenodd" clip-rule="evenodd" d="M7.74201 14.5191V6.29333C7.74201 5.49163 7.0921 4.84172 6.2904 4.84172C5.4887 4.84172 4.83879 5.49163 4.83879 6.29333V9.36488C3.94317 9.57644 3.12153 9.97945 2.41943 10.5283V6.29333C2.41943 4.15545 4.15252 2.42236 6.2904 2.42236C8.42828 2.42236 10.1614 4.15545 10.1614 6.29333V14.5191C10.1614 16.657 8.42828 18.3901 6.2904 18.3901V15.9708C7.0921 15.9708 7.74201 15.3208 7.74201 14.5191ZM7.74201 23.7127V20.6411C8.63763 20.4296 9.45928 20.0266 10.1614 19.4777V23.7127C10.1614 25.8506 8.42828 27.5837 6.2904 27.5837C4.15252 27.5837 2.41943 25.8506 2.41943 23.7127V15.9708C2.41943 13.8329 4.15252 12.0998 6.2904 12.0998V14.5191C5.4887 14.5191 4.83879 15.169 4.83879 15.9708V23.7127C4.83879 24.5144 5.4887 25.1643 6.2904 25.1643C7.0921 25.1643 7.74201 24.5144 7.74201 23.7127Z" fill="white"/>
</svg>
