<svg width="24" height="20" viewBox="0 0 24 20" fill="none" xmlns="http://www.w3.org/2000/svg">
<path d="M2.61438 0C1.21016 0 0 1.11441 0 2.57497V17.4254C0 18.8867 1.2109 20 2.61438 20H20.719C22.1232 20 23.3333 18.8862 23.3333 17.4252V2.57497C23.3333 1.11459 22.1236 0 20.719 0H2.61438Z" fill="black"/>
<path fill-rule="evenodd" clip-rule="evenodd" d="M2.61454 1.33325C1.90726 1.33325 1.3335 1.88954 1.3335 2.57489V17.4254C1.3335 18.1108 1.90732 18.6666 2.61454 18.6666H17.3858C18.0933 18.6666 18.6668 18.1107 18.6668 17.4252V2.57489C18.6668 1.88954 18.0933 1.33325 17.3858 1.33325H2.61454ZM6.60066 8.03379V15.8373H4.00689V8.03379H6.60066ZM6.77162 5.62047C6.77162 6.36932 6.20863 6.96854 5.30432 6.96854L5.30411 6.96847H5.28732C4.4168 6.96847 3.854 6.36925 3.854 5.6204C3.854 4.85455 4.43379 4.27205 5.32151 4.27205C6.20863 4.27205 6.7547 4.85455 6.77162 5.62047ZM10.6299 15.8373H8.03635L8.03628 15.8376C8.03628 15.8376 8.07034 8.76613 8.03648 8.03406H10.6301V9.13862C10.9749 8.60701 11.592 7.85085 12.9677 7.85085C14.6742 7.85085 15.9536 8.96621 15.9536 11.363V15.8373H13.3601V11.6631C13.3601 10.614 12.9845 9.89841 12.0462 9.89841C11.3295 9.89841 10.9028 10.381 10.7154 10.8471C10.6468 11.0135 10.6299 11.247 10.6299 11.4799V15.8373Z" fill="white"/>
</svg>
