<svg width="24" height="22" viewBox="0 0 24 22" fill="none" xmlns="http://www.w3.org/2000/svg">
<g filter="url(#filter0_ddd_1131_2938)">
<mask id="path-1-outside-1_1131_2938" maskUnits="userSpaceOnUse" x="0" y="0.00296021" width="21" height="21" fill="black">
<rect fill="white" y="0.00296021" width="21" height="21"/>
<path fill-rule="evenodd" clip-rule="evenodd" d="M3.25641 2.00296C2.56273 2.00296 2 2.54855 2 3.22072V17.7856C2 18.4578 2.56279 19.003 3.25641 19.003H17.7436C18.4375 19.003 19 18.4578 19 17.7854V3.22072C19 2.54855 18.4375 2.00296 17.7436 2.00296H3.25641ZM7.16599 8.57631V16.2298H4.62209V8.57631H7.16599ZM7.33366 6.20939C7.33366 6.94385 6.78149 7.53154 5.89457 7.53154L5.89437 7.53148H5.8779C5.02412 7.53148 4.47215 6.94378 4.47215 6.20933C4.47215 5.45821 5.04079 4.88691 5.91144 4.88691C6.78149 4.88691 7.31706 5.45821 7.33366 6.20939ZM11.1178 16.2298H8.57406L8.574 16.23C8.574 16.23 8.6074 9.29456 8.5742 8.57658H11.118V9.65989C11.4561 9.1385 12.0613 8.39688 13.4106 8.39688C15.0843 8.39688 16.3391 9.49079 16.3391 11.8415V16.2298H13.7955V12.1358C13.7955 11.1069 13.4271 10.4051 12.5068 10.4051C11.8039 10.4051 11.3854 10.8784 11.2016 11.3356C11.1344 11.4987 11.1178 11.7278 11.1178 11.9562V16.2298Z"/>
</mask>
<path fill-rule="evenodd" clip-rule="evenodd" d="M3.25641 2.00296C2.56273 2.00296 2 2.54855 2 3.22072V17.7856C2 18.4578 2.56279 19.003 3.25641 19.003H17.7436C18.4375 19.003 19 18.4578 19 17.7854V3.22072C19 2.54855 18.4375 2.00296 17.7436 2.00296H3.25641ZM7.16599 8.57631V16.2298H4.62209V8.57631H7.16599ZM7.33366 6.20939C7.33366 6.94385 6.78149 7.53154 5.89457 7.53154L5.89437 7.53148H5.8779C5.02412 7.53148 4.47215 6.94378 4.47215 6.20933C4.47215 5.45821 5.04079 4.88691 5.91144 4.88691C6.78149 4.88691 7.31706 5.45821 7.33366 6.20939ZM11.1178 16.2298H8.57406L8.574 16.23C8.574 16.23 8.6074 9.29456 8.5742 8.57658H11.118V9.65989C11.4561 9.1385 12.0613 8.39688 13.4106 8.39688C15.0843 8.39688 16.3391 9.49079 16.3391 11.8415V16.2298H13.7955V12.1358C13.7955 11.1069 13.4271 10.4051 12.5068 10.4051C11.8039 10.4051 11.3854 10.8784 11.2016 11.3356C11.1344 11.4987 11.1178 11.7278 11.1178 11.9562V16.2298Z" fill="white"/>
<path d="M7.16599 16.2298V18.2298C8.27056 18.2298 9.16599 17.3343 9.16599 16.2298H7.16599ZM7.16599 8.57631H9.16599C9.16599 7.47174 8.27056 6.57631 7.16599 6.57631V8.57631ZM4.62209 16.2298H2.62209C2.62209 17.3343 3.51753 18.2298 4.62209 18.2298V16.2298ZM4.62209 8.57631V6.57631C3.51753 6.57631 2.62209 7.47174 2.62209 8.57631H4.62209ZM5.89457 7.53154L5.26348 9.42936C5.467 9.49704 5.68009 9.53154 5.89457 9.53154V7.53154ZM7.33366 6.20939H9.33366C9.33366 6.19466 9.3335 6.17993 9.33317 6.1652L7.33366 6.20939ZM5.89437 7.53148L6.52547 5.63366C6.32194 5.56598 6.10885 5.53148 5.89437 5.53148V7.53148ZM8.57406 16.2298V14.2298C7.65633 14.2298 6.85636 14.8544 6.63378 15.7447L8.57406 16.2298ZM11.1178 16.2298V18.2298C12.2223 18.2298 13.1178 17.3343 13.1178 16.2298H11.1178ZM8.574 16.23L6.57402 16.2204C6.56915 17.2323 7.32083 18.0884 8.32485 18.2145C9.32887 18.3405 10.2689 17.6968 10.5143 16.7151L8.574 16.23ZM8.5742 8.57658V6.57658C8.02773 6.57658 7.50506 6.80018 7.12769 7.19542C6.75031 7.59065 6.55109 8.12309 6.57633 8.66897L8.5742 8.57658ZM11.118 8.57658H13.118C13.118 7.47201 12.2225 6.57658 11.118 6.57658V8.57658ZM11.118 9.65989H9.11795C9.11795 10.5459 9.7009 11.3263 10.5505 11.5777C11.4001 11.8291 12.3138 11.4915 12.7959 10.7482L11.118 9.65989ZM16.3391 16.2298V18.2298C17.4436 18.2298 18.3391 17.3343 18.3391 16.2298H16.3391ZM13.7955 16.2298H11.7955C11.7955 17.3343 12.6909 18.2298 13.7955 18.2298V16.2298ZM11.2016 11.3356L13.0508 12.0972C13.053 12.092 13.0551 12.0868 13.0572 12.0816L11.2016 11.3356ZM4 3.22072C4 3.71138 3.60813 4.00296 3.25641 4.00296V0.00296021C1.51733 0.00296021 0 1.38573 0 3.22072H4ZM4 17.7856V3.22072H0V17.7856H4ZM3.25641 17.003C3.60719 17.003 4 17.294 4 17.7856H0C0 19.6216 1.5184 21.003 3.25641 21.003V17.003ZM17.7436 17.003H3.25641V21.003H17.7436V17.003ZM17 17.7854C17 17.2946 17.3925 17.003 17.7436 17.003V21.003C19.4826 21.003 21 19.6209 21 17.7854H17ZM17 3.22072V17.7854H21V3.22072H17ZM17.7436 4.00296C17.3919 4.00296 17 3.71111 17 3.22072H21C21 1.386 19.4832 0.00296021 17.7436 0.00296021V4.00296ZM3.25641 4.00296H17.7436V0.00296021H3.25641V4.00296ZM9.16599 16.2298V8.57631H5.16599V16.2298H9.16599ZM4.62209 18.2298H7.16599V14.2298H4.62209V18.2298ZM2.62209 8.57631V16.2298H6.6221V8.57631H2.62209ZM7.16599 6.57631H4.62209V10.5763H7.16599V6.57631ZM5.89457 9.53154C6.79038 9.53154 7.66628 9.22695 8.33111 8.5893C8.99461 7.95293 9.33366 7.09125 9.33366 6.20939H5.33366C5.33366 6.06199 5.39663 5.86139 5.56231 5.70248C5.63957 5.62837 5.72038 5.58235 5.78774 5.55694C5.85434 5.53182 5.8946 5.53154 5.89457 5.53154V9.53154ZM5.26328 9.4293L5.26348 9.42936L6.52566 5.63372L6.52547 5.63366L5.26328 9.4293ZM5.8779 9.53148H5.89437V5.53148H5.8779V9.53148ZM2.47215 6.20933C2.47215 8.09474 3.96652 9.53148 5.8779 9.53148V5.53148C5.92336 5.53148 6.08862 5.55536 6.25146 5.71421C6.41095 5.86981 6.47215 6.06377 6.47215 6.20933H2.47215ZM5.91144 2.88691C5.03183 2.88691 4.16053 3.18197 3.49307 3.81146C2.82176 4.44458 2.47215 5.31064 2.47215 6.20933H6.47215C6.47215 6.3569 6.40686 6.56174 6.23752 6.72144C6.07205 6.87751 5.9204 6.88691 5.91144 6.88691V2.88691ZM9.33317 6.1652C9.31443 5.31701 8.99343 4.46767 8.33311 3.82894C7.66893 3.18647 6.79692 2.88691 5.91144 2.88691V6.88691C5.89601 6.88691 5.72681 6.873 5.55208 6.70398C5.38121 6.53869 5.33629 6.35059 5.33415 6.25358L9.33317 6.1652ZM8.57406 18.2298H11.1178V14.2298H8.57406V18.2298ZM10.5143 16.7151L10.5143 16.7148L6.63378 15.7447L6.63371 15.745L10.5143 16.7151ZM6.57633 8.66897C6.58999 8.96437 6.59085 10.8018 6.58655 12.6679C6.58446 13.5783 6.58132 14.4665 6.57871 15.1272C6.57741 15.4576 6.57623 15.731 6.57539 15.9217C6.57496 16.0171 6.57462 16.0918 6.57439 16.1427C6.57427 16.1681 6.57418 16.1876 6.57411 16.2007C6.57408 16.2072 6.57406 16.2121 6.57404 16.2155C6.57404 16.2171 6.57403 16.2183 6.57403 16.2192C6.57402 16.2196 6.57402 16.2199 6.57402 16.2201C6.57402 16.2202 6.57402 16.2203 6.57402 16.2203C6.57402 16.2204 6.57402 16.2204 8.574 16.23C10.574 16.2397 10.574 16.2396 10.574 16.2396C10.574 16.2395 10.574 16.2394 10.574 16.2393C10.574 16.2391 10.574 16.2388 10.574 16.2384C10.574 16.2375 10.574 16.2362 10.574 16.2345C10.574 16.2312 10.574 16.2262 10.5741 16.2196C10.5741 16.2064 10.5742 16.1868 10.5743 16.1612C10.5746 16.1102 10.5749 16.0352 10.5753 15.9395C10.5762 15.7482 10.5774 15.4741 10.5787 15.143C10.5813 14.481 10.5844 13.5904 10.5865 12.6772C10.5906 10.8961 10.5916 8.90677 10.5721 8.48419L6.57633 8.66897ZM11.118 6.57658H8.5742V10.5766H11.118V6.57658ZM13.118 9.65989V8.57658H9.11795V9.65989H13.118ZM13.4106 6.39688C12.3388 6.39688 11.4515 6.70091 10.7473 7.18806C10.0726 7.65481 9.6675 8.22078 9.43996 8.57162L12.7959 10.7482C12.9066 10.5776 12.9732 10.5121 13.0229 10.4777C13.0444 10.4628 13.0734 10.4465 13.1203 10.432C13.1681 10.4173 13.2592 10.3969 13.4106 10.3969V6.39688ZM18.3391 11.8415C18.3391 10.322 17.9302 8.92061 16.9731 7.88219C16.0012 6.82776 14.6932 6.39688 13.4106 6.39688V10.3969C13.8017 10.3969 13.9579 10.513 14.0319 10.5932C14.1206 10.6894 14.3391 11.0103 14.3391 11.8415H18.3391ZM18.3391 16.2298V11.8415H14.3391V16.2298H18.3391ZM13.7955 18.2298H16.3391V14.2298H13.7955V18.2298ZM11.7955 12.1358V16.2298H15.7955V12.1358H11.7955ZM12.5068 12.4051C12.4804 12.4051 12.3608 12.3989 12.2029 12.3201C12.0386 12.2381 11.9173 12.1192 11.8433 12.0105C11.7771 11.9134 11.7687 11.8549 11.7754 11.884C11.7821 11.9125 11.7955 11.9922 11.7955 12.1358H15.7955C15.7955 11.4393 15.6806 10.5388 15.1492 9.75864C14.531 8.85103 13.5569 8.40507 12.5068 8.40507V12.4051ZM13.0572 12.0816C13.0487 12.1028 13.0184 12.1715 12.9224 12.2497C12.87 12.2924 12.8013 12.3345 12.7187 12.3647C12.6347 12.3954 12.5599 12.4051 12.5068 12.4051V8.40507C10.7198 8.40507 9.72037 9.65811 9.34591 10.5895L13.0572 12.0816ZM13.1178 11.9562C13.1178 11.9226 13.1184 11.8972 13.1192 11.8785C13.1201 11.8595 13.121 11.8528 13.1206 11.8561C13.1203 11.8587 13.1177 11.8804 13.1095 11.9164C13.1015 11.9513 13.0846 12.0153 13.0508 12.0972L9.35228 10.5739C9.12097 11.1355 9.11775 11.719 9.11775 11.9562H13.1178ZM13.1178 16.2298V11.9562H9.11775V16.2298H13.1178Z" fill="black" mask="url(#path-1-outside-1_1131_2938)"/>
</g>
<defs>
<filter id="filter0_ddd_1131_2938" x="0" y="0.00296021" width="24" height="21" filterUnits="userSpaceOnUse" color-interpolation-filters="sRGB">
<feFlood flood-opacity="0" result="BackgroundImageFix"/>
<feColorMatrix in="SourceAlpha" type="matrix" values="0 0 0 0 0 0 0 0 0 0 0 0 0 0 0 0 0 0 127 0" result="hardAlpha"/>
<feOffset dx="3"/>
<feComposite in2="hardAlpha" operator="out"/>
<feColorMatrix type="matrix" values="0 0 0 0 0 0 0 0 0 0 0 0 0 0 0 0 0 0 1 0"/>
<feBlend mode="normal" in2="BackgroundImageFix" result="effect1_dropShadow_1131_2938"/>
<feColorMatrix in="SourceAlpha" type="matrix" values="0 0 0 0 0 0 0 0 0 0 0 0 0 0 0 0 0 0 127 0" result="hardAlpha"/>
<feOffset dx="2"/>
<feComposite in2="hardAlpha" operator="out"/>
<feColorMatrix type="matrix" values="0 0 0 0 0 0 0 0 0 0 0 0 0 0 0 0 0 0 1 0"/>
<feBlend mode="normal" in2="effect1_dropShadow_1131_2938" result="effect2_dropShadow_1131_2938"/>
<feColorMatrix in="SourceAlpha" type="matrix" values="0 0 0 0 0 0 0 0 0 0 0 0 0 0 0 0 0 0 127 0" result="hardAlpha"/>
<feOffset dx="1"/>
<feComposite in2="hardAlpha" operator="out"/>
<feColorMatrix type="matrix" values="0 0 0 0 0 0 0 0 0 0 0 0 0 0 0 0 0 0 1 0"/>
<feBlend mode="normal" in2="effect2_dropShadow_1131_2938" result="effect3_dropShadow_1131_2938"/>
<feBlend mode="normal" in="SourceGraphic" in2="effect3_dropShadow_1131_2938" result="shape"/>
</filter>
</defs>
</svg>
