<svg width="5556" height="1460" viewBox="0 0 5556 1460" fill="none" xmlns="http://www.w3.org/2000/svg">
<path fill-rule="evenodd" clip-rule="evenodd" d="M5555.56 1081.93C5555.56 1164.89 5515.34 1278.01 5444.95 1348.4C5374.06 1419.29 5278.54 1459.01 5178.49 1459.01H4801.41C4746.61 1459.01 4693.32 1446.94 4644.55 1424.82C4575.17 1446.94 4500.76 1459.01 4423.84 1459.01H4046.76C3948.22 1459.01 3854.2 1439.4 3768.23 1403.7C3728.51 1437.89 3676.73 1459.01 3619.92 1459.01H2237.3C2215.18 1459.01 2194.57 1455.99 2174.46 1449.96C2137.76 1455.99 2099.55 1459.01 2060.83 1459.01H1683.76C1581.2 1459.01 1483.66 1437.39 1394.67 1399.18C1306.18 1437.39 1208.65 1459.01 1105.58 1459.01H728.507C326.295 1459.01 0 1132.21 0 729.999C0 327.286 326.295 0.992188 728.507 0.992188H1105.58C1208.65 0.992188 1306.18 22.1082 1394.67 60.8212C1483.66 22.1082 1581.2 0.992188 1683.76 0.992188H2060.83C2122.68 0.992188 2182.5 8.53319 2239.82 23.1142C2269.48 9.03619 2302.66 0.992188 2337.86 0.992188H3870.79C3892.91 0.992188 3913.52 4.00919 3933.63 9.53919C3970.34 4.00919 4008.55 0.992188 4046.76 0.992188H4423.83C4818 0.992188 5139.27 313.711 5152.34 704.861H5178.48C5278.53 704.861 5374.06 744.58 5444.95 814.966C5515.84 885.856 5555.56 981.884 5555.56 1081.93H5555.56Z" fill="black"/>
<path fill-rule="evenodd" clip-rule="evenodd" d="M4799.74 930.896C4759.72 930.896 4721.41 946.793 4693.06 975.079C4664.8 1003.36 4648.91 1041.72 4648.91 1081.72V1081.84C4648.91 1121.83 4664.8 1160.21 4693.06 1188.49C4721.41 1216.78 4759.72 1232.66 4799.74 1232.66C4839.76 1232.66 4878.17 1216.78 4906.43 1188.49C4934.68 1160.22 4950.57 1121.86 4950.57 1081.86V1081.7C4950.57 1041.71 4934.68 1003.35 4906.43 975.069C4878.17 946.793 4839.76 930.896 4799.74 930.896ZM1682.4 227.137C1405.08 227.137 1179.84 452.416 1179.84 729.901C1179.84 1007.39 1405.08 1232.66 1682.4 1232.66C1959.83 1232.66 2185.07 1007.39 2185.07 729.901C2185.07 452.416 1959.83 227.137 1682.4 227.137ZM2487.03 1081.78H2587.58V1232.66H2235.64V1081.78H2336.2V227.137H2487.03V370.938C2577.72 281.999 2701.91 227.137 2838.76 227.137V378.017C2644.69 378.017 2487.03 535.693 2487.03 729.901V1081.78ZM3140.62 370.938C3231.32 281.999 3355.5 227.137 3492.35 227.137V378.017C3298.29 378.017 3140.62 535.693 3140.62 729.901V1081.78H3241.17V1232.66H2889.24V1081.78H2989.79V227.137H3140.62V370.938ZM1129.16 1031.59C1037.45 1153.66 891.453 1232.66 727.149 1232.66C449.825 1232.66 224.586 1007.39 224.586 729.901C224.586 452.416 449.825 227.137 727.149 227.137C891.453 227.137 1037.45 306.142 1129.16 428.213L1008.5 518.75C944.343 433.321 842.182 378.017 727.149 378.017C533.082 378.017 375.415 535.693 375.415 729.901C375.415 924.109 533.082 1081.78 727.149 1081.78C842.182 1081.78 944.343 1026.48 1008.5 941.052L1129.16 1031.59ZM3701.8 805.346C3736.29 963.344 3877.16 1081.78 4045.39 1081.78C4160.42 1081.78 4262.58 1026.45 4326.84 940.961L4447.4 1031.5C4355.69 1153.63 4209.69 1232.66 4045.39 1232.66C3768.06 1232.66 3542.83 1007.39 3542.83 729.901C3542.83 452.416 3768.06 227.137 4045.39 227.137C4322.81 227.137 4548.05 452.416 4548.05 729.901H4547.85L4548.05 730.082V805.346H3701.8ZM1682.4 378.017C1876.57 378.017 2034.23 535.693 2034.23 729.901C2034.23 924.109 1876.57 1081.78 1682.4 1081.78C1488.33 1081.78 1330.67 924.109 1330.67 729.901C1330.67 535.693 1488.33 378.017 1682.4 378.017ZM4389.08 654.456H3701.8C3736.29 496.458 3877.16 378.017 4045.39 378.017C4213.71 378.017 4354.49 496.458 4389.08 654.456Z" fill="white"/>
</svg>
