<svg width="52" height="46" viewBox="0 0 52 46" fill="none" xmlns="http://www.w3.org/2000/svg">
<path d="M49.6673 42.8491L49.6692 42.8472C50.4797 42.035 50.917 40.8005 50.917 39.8364V9.75218C50.917 8.95691 50.5974 8.19911 50.0432 7.6422C49.483 7.07929 48.7195 6.76563 47.9304 6.76563H41.0662V4.92304C41.0662 3.27451 39.7318 1.93648 38.0797 1.93648H25.8763C24.2299 1.93648 22.8898 3.27295 22.8898 4.92304V7.59133H9.09951C7.4531 7.59133 6.11295 8.92779 6.11295 10.5779V14.5186H4.90742C3.25518 14.5186 1.92086 15.8567 1.92086 17.5052V36.8701C1.92086 40.8575 5.15412 44.0953 9.1419 44.0953H12.3209C13.1773 44.0953 13.9975 43.9463 14.759 43.6725C15.522 43.946 16.3417 44.0953 17.1955 44.0953H20.3745C20.6805 44.0953 20.9847 44.0763 21.2822 44.0387C21.468 44.0755 21.6607 44.0953 21.8622 44.0953H33.5188C34.022 44.0953 34.4965 43.9704 34.9124 43.7506C35.6088 43.9745 36.3499 44.0953 37.1175 44.0953H40.2965C40.9183 44.0953 41.5251 44.0162 42.103 43.8671C42.5415 44.0166 43.0058 44.0953 43.4798 44.0953H46.6588C47.7901 44.0953 48.8689 43.6453 49.6673 42.8491Z" fill="black" stroke="white" stroke-width="2.15829"/>
<path fill-rule="evenodd" clip-rule="evenodd" d="M43.4658 38.5641C43.1284 38.5641 42.8054 38.6982 42.5663 38.9367C42.3282 39.1751 42.1942 39.4985 42.1942 39.8357V39.8367C42.1942 40.1739 42.3282 40.4974 42.5663 40.7359C42.8054 40.9743 43.1284 41.1083 43.4658 41.1083C43.8032 41.1083 44.127 40.9743 44.3653 40.7359C44.6035 40.4975 44.7374 40.1741 44.7374 39.8368V39.8356C44.7374 39.4984 44.6035 39.175 44.3653 38.9366C44.127 38.6982 43.8032 38.5641 43.4658 38.5641ZM17.1841 32.6309C14.8461 32.6309 12.9471 34.5301 12.9471 36.8696C12.9471 39.209 14.8461 41.1083 17.1841 41.1083C19.5231 41.1083 21.4219 39.209 21.4219 36.8696C21.4219 34.5301 19.5231 32.6309 17.1841 32.6309ZM23.9677 39.8362H24.8155V41.1083H21.8484V39.8362H22.6961V32.6309H23.9677V33.8432C24.7324 33.0935 25.7794 32.6309 26.9332 32.6309V33.9029C25.297 33.9029 23.9677 35.2323 23.9677 36.8696V39.8362ZM29.4781 33.8432C30.2428 33.0935 31.2897 32.6309 32.4435 32.6309V33.9029C30.8073 33.9029 29.4781 35.2323 29.4781 36.8696V39.8362H30.3258V41.1083H27.3587V39.8362H28.2065V32.6309H29.4781V33.8432ZM12.5199 39.4131C11.7467 40.4422 10.5158 41.1083 9.13057 41.1083C6.7925 41.1083 4.89355 39.209 4.89355 36.8696C4.89355 34.5301 6.7925 32.6309 9.13057 32.6309C10.5158 32.6309 11.7467 33.297 12.5199 34.3261L11.5025 35.0894C10.9617 34.3692 10.1004 33.9029 9.13057 33.9029C7.49442 33.9029 6.16516 35.2323 6.16516 36.8696C6.16516 38.507 7.49442 39.8362 9.13057 39.8362C10.1004 39.8362 10.9617 39.37 11.5025 38.6498L12.5199 39.4131ZM34.2093 37.5056C34.5001 38.8377 35.6878 39.8362 37.106 39.8362C38.0758 39.8362 38.9372 39.3698 39.4789 38.649L40.4953 39.4123C39.7222 40.442 38.4912 41.1083 37.106 41.1083C34.768 41.1083 32.869 39.209 32.869 36.8696C32.869 34.5301 34.768 32.6309 37.106 32.6309C39.445 32.6309 41.3439 34.5301 41.3439 36.8696H41.3422L41.3439 36.8711V37.5056H34.2093ZM17.1841 33.9029C18.8211 33.9029 20.1503 35.2323 20.1503 36.8696C20.1503 38.507 18.8211 39.8362 17.1841 39.8362C15.548 39.8362 14.2187 38.507 14.2187 36.8696C14.2187 35.2323 15.548 33.9029 17.1841 33.9029ZM40.0036 36.2335H34.2093C34.5001 34.9014 35.6878 33.9029 37.106 33.9029C38.5252 33.9029 39.712 34.9014 40.0036 36.2335Z" fill="white"/>
<path fill-rule="evenodd" clip-rule="evenodd" d="M5.78835 30.7138V26.6694H12.3791V30.7138H13.2778V19.5922H9.08378V17.4951H4.88965V30.7138H5.78835ZM9.98159 23.3376H5.78724V24.536H9.98159V23.3376ZM6.38656 23.6367H6.08662V24.2359H6.38656V23.6367ZM7.58564 18.9933H6.38711V20.1916H7.58564V18.9933ZM6.98649 19.2924H6.68694V19.8916H6.98649V19.2924ZM10.2807 23.3376H12.3777V24.536H10.2807V23.3376ZM10.58 23.6367H10.8796V24.2359H10.58V23.6367Z" fill="white"/>
<path fill-rule="evenodd" clip-rule="evenodd" d="M25.2351 17.5059H16.8467V21.6998H25.2351V17.5059ZM19.5438 18.8543H18.3455V20.0525H19.5438V18.8543ZM18.9443 19.1534H18.6448V19.7525H18.9443V19.1534ZM22.5391 18.8543H23.7374V19.4534H22.5391V18.8543Z" fill="white"/>
<path d="M44.7395 9.74512H44.29V14.5072H44.7395V9.74512Z" fill="white"/>
<path d="M32.6096 9.74512H32.1602V14.5071H32.6096V9.74512Z" fill="white"/>
<path d="M36.6419 9.74512H36.1924V14.5071H36.6419V9.74512Z" fill="white"/>
<path d="M40.6917 9.74512H40.2422V14.5071H40.6917V9.74512Z" fill="white"/>
<path d="M21.6704 10.8281H21.0713V15.1182H21.6704V10.8281Z" fill="white"/>
<path fill-rule="evenodd" clip-rule="evenodd" d="M15.387 11.1775V14.7723H21.6772V16.8696H9.09668V10.5781H21.6772V11.1775H15.387ZM13.2888 12.3762H11.1948V13.5744H13.2888V12.3762ZM11.7925 12.675V13.2744H11.4916V12.675H11.7925Z" fill="white"/>
<path fill-rule="evenodd" clip-rule="evenodd" d="M31.5138 17.504H25.8594V4.92188H34.8836V9.11522H32.1497C31.7979 9.11522 31.5138 9.39963 31.5138 9.7506V17.504ZM28.8477 14.8078H27.5804V15.706H27.3599V16.0052H27.5804V16.006H28.8477V16.0052H29.0681V15.706H28.8477V14.8078ZM33.1627 6.4194H31.8995V7.31801H31.6792V7.61768H33.3873V7.31801H33.1627V6.4194ZM27.5804 6.4194V7.31801H27.3599V7.61768H29.0681V7.31801H28.8477V6.4194H27.5804ZM28.8477 10.6136H27.5804V11.5122H27.3599V11.8119H29.0681V11.5122H28.8477V10.6136Z" fill="white"/>
<path fill-rule="evenodd" clip-rule="evenodd" d="M39.9428 21.6914V19.4445C39.9428 19.2059 39.8495 18.9774 39.68 18.8091C39.5104 18.6404 39.2858 18.5459 39.0441 18.5459C38.8068 18.5459 38.5779 18.6404 38.4084 18.8091C38.243 18.9774 38.1456 19.2059 38.1456 19.4445V21.6914H32.1562V13.9389H44.7368V30.7157H39.947V21.6914H39.9428ZM34.4027 15.1372C34.2035 15.1372 34.0128 15.216 33.8729 15.3567C33.7331 15.4971 33.6525 15.6874 33.6525 15.8862H34.5511V15.1372H34.4027ZM34.8521 16.1858V16.9344H35.7506V16.1858H34.8521ZM36.9503 15.8862C36.9503 15.6874 36.8697 15.4971 36.7298 15.3567C36.5899 15.216 36.3992 15.1372 36.2 15.1372H36.0516V15.8862H36.9503ZM34.5511 16.1858H33.6525C33.6525 16.3842 33.7331 16.575 33.8729 16.7152C34.0128 16.8555 34.2035 16.9344 34.4027 16.9344H34.5511V16.1858ZM35.7506 15.1372H34.8521V15.8862H35.7506V15.1372ZM43.2405 16.1858H42.3418V16.9344H42.4902C42.6894 16.9344 42.8802 16.8555 43.0201 16.7152C43.16 16.575 43.2405 16.3842 43.2405 16.1858ZM36.0516 16.1858V16.9344H36.2C36.3992 16.9344 36.5899 16.8555 36.7298 16.7152C36.8697 16.575 36.9503 16.3842 36.9503 16.1858H36.0516ZM42.3418 15.1372V15.8862H43.2405C43.2405 15.6874 43.16 15.4971 43.0201 15.3567C42.8802 15.216 42.6894 15.1372 42.4902 15.1372H42.3418ZM41.8926 15.1372C41.6933 15.1372 41.5026 15.216 41.3627 15.3567C41.2228 15.4971 41.1423 15.6874 41.1423 15.8862H42.0409V15.1372H41.8926ZM42.0409 16.1858H41.1423C41.1423 16.3842 41.2228 16.575 41.3627 16.7152C41.5026 16.8555 41.6933 16.9344 41.8926 16.9344H42.0409V16.1858ZM44.741 9.74512V10.344H32.1562V9.74512H44.741ZM38.8958 20.0803C38.9382 20.0803 38.9764 20.096 39.0017 20.1244C39.0314 20.1524 39.0484 20.1906 39.0484 20.2304C39.0484 20.2698 39.0314 20.3079 39.0017 20.3364C38.9764 20.3643 38.9382 20.38 38.8958 20.38H38.5991C38.5567 20.38 38.5186 20.3643 38.4931 20.3364C38.4634 20.3079 38.4465 20.2698 38.4465 20.2304C38.4465 20.1906 38.4634 20.1524 38.4931 20.1244C38.5186 20.096 38.5567 20.0803 38.5991 20.0803H38.8958Z" fill="white"/>
<path fill-rule="evenodd" clip-rule="evenodd" d="M25.8662 18.1406H26.4638V18.74H27.0657V19.3394H27.6634V19.9383H28.2611V20.5372H28.8629V21.1362H29.4606V21.7359H30.0625V22.3349H34.2546V30.7232H30.8848V28.4022C30.8848 27.9469 30.5161 27.5781 30.0625 27.5781C29.6047 27.5781 29.2359 27.9469 29.2359 28.4022V30.7232H25.8662V18.1406ZM27.515 24.5822V25.4808H27.214V25.7805H27.515V25.7809H28.7103V25.7805H29.0113V25.4808H28.7103V24.5822C28.7103 24.4237 28.651 24.2711 28.5366 24.1588C28.4264 24.0465 28.2738 23.9833 28.1127 23.9833C27.9559 23.9833 27.8033 24.0465 27.6888 24.1588C27.5786 24.2711 27.515 24.4237 27.515 24.5822ZM27.8117 24.5818C27.8117 24.4165 27.9474 24.2825 28.1127 24.2825V25.1811H27.8117V24.5818ZM32.9067 25.4808H32.6057V24.5826C32.6057 24.4237 32.5421 24.2711 32.432 24.1588C32.3175 24.0465 32.1649 23.9833 32.0081 23.9833C31.6775 23.9833 31.4062 24.2516 31.4062 24.5826V25.4808H31.1095V25.7805H31.4062V25.7809H32.6057V25.7805H32.9067V25.4808ZM32.0081 24.2825V25.1811H31.7071V24.5818C31.7071 24.4165 31.8427 24.2825 32.0081 24.2825ZM30.4059 29.1002C30.4864 29.1002 30.5542 29.1672 30.5542 29.2503C30.5542 29.3329 30.4864 29.4 30.4059 29.4C30.321 29.4 30.2533 29.3329 30.2533 29.2503C30.2533 29.1672 30.321 29.1002 30.4059 29.1002Z" fill="white"/>
<path fill-rule="evenodd" clip-rule="evenodd" d="M22.3054 22.3281V30.7165H18.8636V27.571H17.2147V30.7165H13.917V22.3281H22.3054ZM15.1165 23.9761V25.6237H16.7654V23.9761H15.1165ZM16.1678 24.275H16.4644V25.3236H16.1678V24.275ZM20.9575 23.9761H19.3129V25.6237H20.9575V23.9761ZM20.6608 24.275V25.3236H20.3598V24.275H20.6608ZM18.1939 28.9443V29.244H17.5962V28.9443H18.1939Z" fill="white"/>
</svg>
