<svg width="201" height="171" viewBox="0 0 201 171" fill="none" xmlns="http://www.w3.org/2000/svg">
<path fill-rule="evenodd" clip-rule="evenodd" d="M0.638672 126.464V61.8742C0.638672 57.3765 4.27668 53.7294 8.78347 53.7294H18.5391V32.2943C18.5391 27.7965 22.1952 24.1495 26.6839 24.1495H90.1771V8.1477C90.1771 3.64998 93.8332 0.00292969 98.3219 0.00292969H150.431C154.937 0.00292969 158.575 3.64998 158.575 8.1477V20.6236H192.494C194.648 20.6236 196.729 21.4816 198.25 23.0092C199.77 24.5368 200.639 26.6091 200.639 28.7684V123.206V156.913C200.639 157.018 200.639 157.125 200.639 157.23C200.639 160.221 199.191 164.292 196.657 166.831C194.105 169.376 190.666 170.808 187.064 170.808C186.684 170.808 173.869 170.808 173.489 170.808C171.517 170.808 169.598 170.381 167.842 169.581C165.345 170.377 162.666 170.808 159.897 170.808H146.322C142.774 170.808 139.39 170.098 136.295 168.813C134.865 170.055 133.001 170.808 130.955 170.808H81.1817C80.3853 170.808 79.6432 170.696 78.9192 170.489C77.598 170.699 76.2224 170.808 74.8287 170.808H61.2541C57.5618 170.808 54.0504 170.04 50.8468 168.658C47.6613 170.04 44.15 170.808 40.4396 170.808H26.8649C12.3853 170.808 0.638672 159.049 0.638672 144.564V126.464Z" fill="black"/>
<path fill-rule="evenodd" clip-rule="evenodd" d="M173.435 151.802C171.994 151.802 170.615 152.374 169.594 153.393C168.577 154.411 168.005 155.792 168.005 157.232C168.005 157.233 168.005 157.234 168.005 157.236C168.005 158.676 168.577 160.057 169.594 161.076C170.615 162.094 171.994 162.666 173.435 162.666C174.876 162.666 176.259 162.094 177.276 161.076C178.293 160.058 178.865 158.677 178.865 157.237C178.865 157.235 178.865 157.233 178.865 157.231C178.865 155.792 178.293 154.411 177.276 153.392C176.259 152.374 174.876 151.802 173.435 151.802ZM61.2108 126.467C51.2271 126.467 43.1186 134.577 43.1186 144.566C43.1186 154.556 51.2271 162.666 61.2108 162.666C71.1981 162.666 79.3067 154.556 79.3067 144.566C79.3067 134.577 71.1981 126.467 61.2108 126.467ZM90.1773 157.234H93.7972V162.666H81.1275V157.234H84.7474V126.467H90.1773V131.644C93.4424 128.442 97.913 126.467 102.84 126.467V131.898C95.8533 131.898 90.1773 137.575 90.1773 144.566V157.234ZM113.707 131.644C116.972 128.442 121.442 126.467 126.369 126.467V131.898C119.383 131.898 113.707 137.575 113.707 144.566V157.234H117.327V162.666H104.657V157.234H108.277V126.467H113.707V131.644ZM41.2941 155.427C37.9928 159.822 32.7367 162.666 26.8218 162.666C16.8381 162.666 8.72949 154.556 8.72949 144.566C8.72949 134.577 16.8381 126.467 26.8218 126.467C32.7367 126.467 37.9928 129.311 41.2941 133.706L36.9502 136.965C34.6407 133.889 30.9629 131.898 26.8218 131.898C19.8353 131.898 14.1593 137.575 14.1593 144.566C14.1593 151.558 19.8353 157.234 26.8218 157.234C30.9629 157.234 34.6407 155.243 36.9502 152.168L41.2941 155.427ZM133.909 147.282C135.151 152.97 140.222 157.234 146.279 157.234C150.42 157.234 154.098 155.242 156.411 152.164L160.751 155.424C157.45 159.821 152.193 162.666 146.279 162.666C136.295 162.666 128.186 154.556 128.186 144.566C128.186 134.577 136.295 126.467 146.279 126.467C156.266 126.467 164.374 134.577 164.374 144.566H164.367L164.374 144.573V147.282H133.909ZM61.2108 131.898C68.2009 131.898 73.8769 137.575 73.8769 144.566C73.8769 151.558 68.2009 157.234 61.2108 157.234C54.2244 157.234 48.5484 151.558 48.5484 144.566C48.5484 137.575 54.2244 131.898 61.2108 131.898ZM158.651 141.85H133.909C135.151 136.162 140.222 131.898 146.279 131.898C152.338 131.898 157.406 136.162 158.651 141.85Z" fill="white"/>
<path fill-rule="evenodd" clip-rule="evenodd" d="M12.5399 118.319V101.05H40.6828V118.319H44.5205V70.8296H26.6116V61.875H8.7024V118.319H12.5399ZM30.4453 86.8228H12.5352L12.5352 91.9399H30.4453V86.8228ZM15.0943 88.1H13.8136V90.6584H15.0943V88.1ZM20.2144 68.2723H15.0967V73.3892H20.2144V68.2723ZM17.656 69.5495H16.3769V72.1079H17.656V69.5495ZM31.7225 86.8228H40.6768V91.9399H31.7225V86.8228ZM33.0006 88.1H34.28V90.6584H33.0006V88.1Z" fill="#B274F0"/>
<path fill-rule="evenodd" clip-rule="evenodd" d="M95.5869 61.8779H59.7681V79.7868H95.5869V61.8779ZM71.2849 67.6358H66.168V72.7526H71.2849V67.6358ZM68.7255 68.9131H67.4463V71.4715H68.7255V68.9131ZM84.075 67.6358H89.1918V70.1942H84.075V67.6358Z" fill="#FB9C37"/>
<path d="M178.872 28.7705H176.953V49.1047H178.872V28.7705Z" fill="#88D0AC"/>
<path d="M127.078 28.7686H125.158L125.158 49.1027H127.078L127.078 28.7686Z" fill="#88D0AC"/>
<path d="M144.293 28.7705H142.374V49.1047H144.293V28.7705Z" fill="#88D0AC"/>
<path d="M161.583 28.7734H159.664V49.1076H161.583V28.7734Z" fill="#88D0AC"/>
<path d="M80.3612 33.3701H77.8027V51.6888H80.3612V33.3701Z" fill="#F3A797"/>
<path fill-rule="evenodd" clip-rule="evenodd" d="M53.5296 34.8571V50.2073H80.3894V59.1629H26.6699V32.2979H80.3894V34.8571H77.8373H53.5296ZM44.5704 39.9756H35.6292V45.0924H44.5704V39.9756ZM38.1812 41.2517V43.8109H36.8962V41.2517H38.1812Z" fill="#E84F30"/>
<path fill-rule="evenodd" clip-rule="evenodd" d="M122.396 61.875H98.251V8.14844H136.785V26.0543H125.111C123.608 26.0543 122.396 27.2687 122.396 28.7674V61.875ZM111.011 50.3619H105.599V54.1972H104.658V55.475H105.599V55.4786H111.011V55.475H111.952V54.1972H111.011V50.3619ZM129.436 14.543H124.043V18.3801H123.102V19.6597H124.043H129.436H130.396V18.3801H129.436V14.543ZM105.599 14.543V18.3801H104.658V19.6597H105.599H111.011H111.952V18.3801H111.011V14.543H105.599ZM111.011 32.4524H105.599V36.2895H104.658V37.5692H105.599H111.011H111.952V36.2895H111.011V32.4524Z" fill="#C9731D"/>
<path fill-rule="evenodd" clip-rule="evenodd" d="M158.389 79.7821V70.1876C158.389 69.1686 157.99 68.193 157.266 67.4744C156.542 66.7541 155.583 66.3505 154.551 66.3505C153.538 66.3505 152.56 66.7541 151.836 67.4744C151.131 68.193 150.714 69.1686 150.714 70.1876V79.7821H125.14V46.6781H178.859V118.316H158.407V79.7821H158.389ZM134.732 51.7949C133.882 51.7949 133.067 52.1315 132.47 52.7324C131.873 53.3315 131.529 54.1442 131.529 54.9931H135.366V51.7949H134.732ZM136.651 56.2727V59.4691H140.488V56.2727H136.651ZM145.61 54.9931C145.61 54.1442 145.266 53.3315 144.669 52.7324C144.072 52.1315 143.257 51.7949 142.407 51.7949H141.773V54.9931H145.61ZM135.366 56.2727H131.529C131.529 57.1197 131.873 57.9342 132.47 58.5333C133.067 59.1324 133.882 59.4691 134.732 59.4691H135.366V56.2727ZM140.488 51.7949H136.651V54.9931H140.488V51.7949ZM172.47 56.2727H168.633V59.4691H169.266C170.117 59.4691 170.931 59.1324 171.529 58.5333C172.126 57.9342 172.47 57.1197 172.47 56.2727ZM141.773 56.2727V59.4691H142.407C143.257 59.4691 144.072 59.1324 144.669 58.5333C145.266 57.9342 145.61 57.1197 145.61 56.2727H141.773ZM168.633 51.7949V54.9931H172.47C172.47 54.1442 172.126 53.3315 171.529 52.7324C170.931 52.1315 170.117 51.7949 169.266 51.7949H168.633ZM166.714 51.7949C165.864 51.7949 165.049 52.1315 164.452 52.7324C163.855 53.3315 163.511 54.1442 163.511 54.9931H167.348V51.7949H166.714ZM167.348 56.2727H163.511C163.511 57.1197 163.855 57.9342 164.452 58.5333C165.049 59.1324 165.864 59.4691 166.714 59.4691H167.348V56.2727ZM178.877 28.7705V31.328H125.14V28.7705H178.877ZM153.918 72.9025C154.099 72.9025 154.262 72.9695 154.37 73.0907C154.497 73.2102 154.57 73.3731 154.57 73.5432C154.57 73.7115 154.497 73.8744 154.37 73.9957C154.262 74.1152 154.099 74.1821 153.918 74.1821H152.651C152.47 74.1821 152.307 74.1152 152.198 73.9957C152.072 73.8744 151.999 73.7115 151.999 73.5432C151.999 73.3731 152.072 73.2102 152.198 73.0907C152.307 72.9695 152.47 72.9025 152.651 72.9025H153.918Z" fill="#12A159"/>
<path fill-rule="evenodd" clip-rule="evenodd" d="M98.2725 64.5918H100.824V67.151H103.395V69.7103H105.947V72.2677H108.499V74.8252H111.069V77.3827H113.621V79.9438H116.191V82.5012H134.091V118.32H119.702V108.409C119.702 106.465 118.128 104.89 116.191 104.89C114.236 104.89 112.662 106.465 112.662 108.409V118.32H98.2725V64.5918ZM105.313 92.0976V95.9347H104.028V97.2143H105.313V97.2161H110.417V97.2143H111.702V95.9347H110.417V92.0976C110.417 91.4207 110.164 90.769 109.675 90.2894C109.205 89.8098 108.553 89.5401 107.865 89.5401C107.196 89.5401 106.544 89.8098 106.055 90.2894C105.585 90.769 105.313 91.4207 105.313 92.0976ZM106.58 92.0957C106.58 91.3899 107.159 90.818 107.865 90.818V94.6551H106.58V92.0957ZM128.336 95.9347H127.051V92.0993C127.051 91.4206 126.779 90.769 126.309 90.2894C125.82 89.8098 125.168 89.5401 124.499 89.5401C123.087 89.5401 121.929 90.6858 121.929 92.0993V95.9347H120.662V97.2143H121.929V97.2161H127.051V97.2143H128.336V95.9347ZM124.499 90.818V94.6551H123.214V92.0957C123.214 91.3899 123.793 90.818 124.499 90.818ZM117.657 111.39C118.001 111.39 118.291 111.676 118.291 112.031C118.291 112.384 118.001 112.669 117.657 112.669C117.295 112.669 117.005 112.384 117.005 112.031C117.005 111.676 117.295 111.39 117.657 111.39Z" fill="#FBCE37"/>
<path fill-rule="evenodd" clip-rule="evenodd" d="M83.0739 82.5V118.319H68.3771V104.887H61.3363V118.319H47.2549V82.5H83.0739ZM52.3771 89.5371V96.5724H59.4178V89.5371H52.3771ZM56.8657 90.8131H58.1327V95.2909H56.8657V90.8131ZM77.3182 89.5371H70.2956V96.5724H77.3182V89.5371ZM76.0513 90.8131V95.2909H74.7662V90.8131H76.0513ZM65.5173 110.751V112.031H62.9653V110.751H65.5173Z" fill="#FF8F68"/>
</svg>
