<svg width="24" height="21" viewBox="0 0 24 21" fill="none" xmlns="http://www.w3.org/2000/svg">
<path fill-rule="evenodd" clip-rule="evenodd" d="M16.2572 20.4995L12.225 16.4677C11.9861 16.4892 11.7443 16.5002 11.5 16.5002H8.5C4.08172 16.5002 0.5 12.9185 0.5 8.50024C0.5 4.08197 4.08172 0.500244 8.5 0.500244H11.5C15.9183 0.500244 19.5 4.08197 19.5 8.50024C19.5 9.60695 19.2743 10.6634 18.8666 11.624L23.4998 16.2568V20.4995H16.2572ZM14.5 8.50024C14.5 9.79606 14.0892 10.9959 13.3908 11.9767L18.4998 17.0853V18.4995H17.0856L11.9766 13.391C10.9958 14.0894 9.79585 14.5002 8.5 14.5002C5.18629 14.5002 2.5 11.814 2.5 8.50024C2.5 5.18654 5.18629 2.50024 8.5 2.50024C11.8137 2.50024 14.5 5.18654 14.5 8.50024ZM8.5 12.5002C10.7091 12.5002 12.5 10.7094 12.5 8.50024C12.5 6.29111 10.7091 4.50024 8.5 4.50024C6.29086 4.50024 4.5 6.29111 4.5 8.50024C4.5 10.7094 6.29086 12.5002 8.5 12.5002Z" fill="black"/>
</svg>
