<svg width="29" height="26" viewBox="0 0 29 26" fill="none" xmlns="http://www.w3.org/2000/svg">
<path fill-rule="evenodd" clip-rule="evenodd" d="M13.2353 0.00296021H9.38913C4.20366 0.00296021 0 4.20662 0 9.39209C0 14.5776 4.20366 18.7812 9.38913 18.7812C10.8324 18.7812 12.2022 18.4545 13.426 17.871L20.1923 25.003H28.8462V20.4094L21.7331 13.3891C22.3047 12.1754 22.6244 10.8197 22.6244 9.39209C22.6244 4.20662 18.4208 0.00296021 13.2353 0.00296021Z" fill="white"/>
<path fill-rule="evenodd" clip-rule="evenodd" d="M15.7308 13.7134C16.598 12.4937 17.1079 11.0023 17.1079 9.39187C17.1079 5.26848 13.7652 1.92581 9.64184 1.92581C5.51845 1.92581 2.17578 5.26848 2.17578 9.39187C2.17578 13.5153 5.51845 16.8579 9.64184 16.8579C11.2525 16.8579 12.7441 16.3479 13.9639 15.4805L21.1535 23.0797H23.0766V21.2131L15.7308 13.7134ZM9.64184 14.3637C6.89597 14.3637 4.67 12.1377 4.67 9.39187C4.67 6.646 6.89597 4.42003 9.64184 4.42003C12.3877 4.42003 14.6137 6.646 14.6137 9.39187C14.6137 12.1377 12.3877 14.3637 9.64184 14.3637Z" fill="black"/>
</svg>
