<svg width="24" height="21" viewBox="0 0 24 21" fill="none" xmlns="http://www.w3.org/2000/svg">
<path d="M11.0075 0.00390625C11.0632 0.00390625 11.1187 0.0045013 11.1741 0.0056854C11.2295 0.0045013 11.2851 0.00390625 11.3408 0.00390625C15.5669 0.00390625 18.9928 3.42984 18.9928 7.65595C18.9928 8.78176 18.749 9.85285 18.3109 10.8173C19.5572 12.0645 20.1205 12.6304 20.3126 12.826C20.3408 12.8548 20.3649 12.8794 20.3831 12.8985C20.391 12.9067 20.4047 12.9211 20.419 12.9367L20.4194 12.9371C20.4245 12.9427 20.4436 12.9636 20.4657 12.9904L20.4664 12.9912C20.4734 12.9997 20.5028 13.0352 20.5367 13.0845C21.0507 13.5998 21.7968 14.3466 22.8556 15.4054C23.9076 16.4573 23.9076 18.1629 22.8556 19.2149C22.2872 19.7833 21.528 20.0446 20.7842 19.9988C20.6732 20.0056 20.5618 20.0056 20.4508 19.9988C20.3398 20.0056 20.2285 20.0056 20.1175 19.9988C20.0065 20.0056 19.8951 20.0056 19.7841 19.9988C19.6732 20.0056 19.5618 20.0056 19.4508 19.9988C19.3398 20.0056 19.2285 20.0056 19.1175 19.9988C19.0065 20.0056 18.8951 20.0056 18.7841 19.9988C18.6731 20.0056 18.5618 20.0056 18.4508 19.9988C18.3398 20.0056 18.2285 20.0056 18.1175 19.9988C18.0065 20.0056 17.8951 20.0056 17.7841 19.9988C17.0403 20.0446 16.2811 19.7833 15.7127 19.2149C13.6505 17.1528 12.7665 16.266 12.4745 15.9699L12.4622 15.9573C12.4141 15.9086 12.3407 15.8343 12.2986 15.7853C12.2917 15.7772 12.2713 15.7534 12.2473 15.7218C12.24 15.7122 12.2266 15.6944 12.2103 15.6706C12.0962 15.5563 11.9707 15.4305 11.8328 15.2924C11.6701 15.3027 11.506 15.308 11.3408 15.308C11.2851 15.308 11.2295 15.3074 11.174 15.3062C11.1186 15.3074 11.0631 15.308 11.0075 15.308C10.9517 15.308 10.8961 15.3074 10.8407 15.3062C10.7853 15.3074 10.7298 15.308 10.6741 15.308C10.6184 15.308 10.5628 15.3074 10.5073 15.3062C10.452 15.3074 10.3964 15.308 10.3408 15.308C10.2851 15.308 10.2295 15.3074 10.174 15.3062C10.1186 15.3074 10.0631 15.308 10.0075 15.308C9.95172 15.308 9.89612 15.3074 9.84067 15.3062C9.78529 15.3074 9.72978 15.308 9.67413 15.308C9.61839 15.308 9.56279 15.3074 9.50734 15.3062C9.45196 15.3074 9.39644 15.308 9.34079 15.308C9.28506 15.308 9.22946 15.3074 9.174 15.3062C9.11863 15.3074 9.06311 15.308 9.00746 15.308C8.95172 15.308 8.89613 15.3074 8.84067 15.3062C8.7853 15.3074 8.72978 15.308 8.67413 15.308C8.61839 15.308 8.56279 15.3074 8.50733 15.3062C8.45196 15.3074 8.39644 15.308 8.34079 15.308C8.28505 15.308 8.22945 15.3074 8.174 15.3062C8.11862 15.3074 8.06311 15.308 8.00746 15.308C3.78135 15.308 0.355419 11.8821 0.355419 7.65595C0.355419 3.42984 3.78135 0.00390625 8.00746 0.00390625C8.06316 0.00390625 8.11871 0.0045013 8.17413 0.0056854C8.22954 0.0045013 8.2851 0.00390625 8.34079 0.00390625C8.39649 0.00390625 8.45205 0.0045013 8.50746 0.0056854C8.56287 0.0045013 8.61843 0.00390625 8.67413 0.00390625C8.72982 0.00390625 8.78538 0.0045013 8.84079 0.00568539C8.8962 0.0045013 8.95176 0.00390625 9.00746 0.00390625C9.06316 0.00390625 9.11871 0.0045013 9.17413 0.0056854C9.22954 0.0045013 9.2851 0.00390625 9.34079 0.00390625C9.39649 0.00390625 9.45205 0.0045013 9.50746 0.0056854C9.56287 0.0045013 9.61843 0.00390625 9.67413 0.00390625C9.72982 0.00390625 9.78538 0.0045013 9.84079 0.0056854C9.8962 0.0045013 9.95176 0.00390625 10.0075 0.00390625C10.0632 0.00390625 10.1187 0.00450129 10.1741 0.00568541C10.2295 0.00450131 10.2851 0.00390625 10.3408 0.00390625C10.3965 0.00390625 10.452 0.0045013 10.5075 0.0056854C10.5629 0.0045013 10.6184 0.00390625 10.6741 0.00390625C10.7298 0.00390625 10.7854 0.0045013 10.8408 0.00568539C10.8962 0.0045013 10.9518 0.00390625 11.0075 0.00390625Z" fill="black"/>
<path fill-rule="evenodd" clip-rule="evenodd" d="M13.333 11.0567C13.9616 10.0746 14.3261 8.90721 14.3261 7.65465C14.3261 4.16492 11.4971 1.33594 8.00738 1.33594C4.51765 1.33594 1.68867 4.16492 1.68867 7.65465C1.68867 11.1444 4.51765 13.9734 8.00738 13.9734C9.25973 13.9734 10.427 13.609 11.4089 12.9806C14.9022 16.4748 14.3235 15.9065 13.7448 15.3382C13.1362 14.7406 12.5276 14.1429 16.6554 18.2708C17.1867 18.8021 18.0481 18.8021 18.5794 18.2708C19.1107 17.7395 19.1107 16.8782 18.5794 16.3469C14.4515 12.219 15.0601 12.8166 15.6687 13.4143C16.2474 13.9826 16.8261 14.5509 13.333 11.0567ZM8.00738 11.4459C5.91354 11.4459 4.21615 9.74848 4.21615 7.65465C4.21615 5.56081 5.91354 3.86342 8.00738 3.86342C10.1012 3.86342 11.7986 5.56081 11.7986 7.65465C11.7986 9.74848 10.1012 11.4459 8.00738 11.4459Z" fill="white"/>
</svg>
