<svg width="44" height="41" viewBox="0 0 44 41" fill="none" xmlns="http://www.w3.org/2000/svg">
<path fill-rule="evenodd" clip-rule="evenodd" d="M24.2488 30.7594L33.9896 40.4995H44V34.489L33.0475 23.5374C34.2914 21.3055 35.0004 18.7339 35.0004 16.0007C35.0004 7.44022 28.0607 0.500549 19.5002 0.500549H15.5002C6.93967 0.500549 0 7.44022 0 16.0007C0 24.5613 6.93967 31.5009 15.5002 31.5009H19.5002C21.1555 31.5009 22.7516 31.2409 24.2488 30.7594Z" fill="black"/>
<path fill-rule="evenodd" clip-rule="evenodd" d="M26.5046 23.823C28.0761 21.6161 29.0004 18.9164 29.0004 16.0007C29.0004 8.54479 22.9561 2.50055 15.5002 2.50055C8.04424 2.50055 2 8.54479 2 16.0007C2 23.4567 8.04424 29.5009 15.5002 29.5009C18.4159 29.5009 21.1157 28.5766 23.3226 27.005L34.818 38.4995H38V35.3174L26.5046 23.823ZM24.5003 16.0007C24.5003 20.9714 20.4708 25.0009 15.5002 25.0009C10.5296 25.0009 6.50006 20.9714 6.50006 16.0007C6.50006 11.0301 10.5296 7.00061 15.5002 7.00061C20.4708 7.00061 24.5003 11.0301 24.5003 16.0007Z" fill="#FA9938"/>
</svg>
