<svg width="35" height="30" viewBox="0 0 35 30" fill="none" xmlns="http://www.w3.org/2000/svg">
<path d="M16.0542 0.000976562C16.1353 0.000976562 16.2163 0.00186914 16.297 0.00364528C16.3778 0.00186914 16.4587 0.000976562 16.5399 0.000976562C22.6977 0.000976562 27.6896 5.13988 27.6896 11.479C27.6896 13.1678 27.3343 14.7744 26.696 16.2211C28.5119 18.0919 29.3327 18.9407 29.6126 19.2342C29.6537 19.2773 29.6888 19.3143 29.7154 19.3429C29.7268 19.3551 29.7468 19.3767 29.7677 19.4002L29.7682 19.4008C29.7757 19.4092 29.8035 19.4405 29.8357 19.4807L29.8367 19.4819C29.8469 19.4947 29.8897 19.548 29.9392 19.6219C30.6881 20.3948 31.7753 21.515 33.318 23.1032C34.8508 24.6811 34.8508 27.2395 33.318 28.8175C32.4898 29.6701 31.3835 30.062 30.2997 29.9933C30.138 30.0035 29.9758 30.0035 29.814 29.9933C29.6523 30.0035 29.4901 30.0035 29.3283 29.9933C29.1666 30.0035 29.0044 30.0035 28.8426 29.9933C28.6809 30.0035 28.5187 30.0035 28.3569 29.9933C28.1952 30.0035 28.033 30.0035 27.8712 29.9933C27.7095 30.0035 27.5473 30.0035 27.3855 29.9933C27.2238 30.0035 27.0616 30.0035 26.8998 29.9933C26.7381 30.0035 26.5759 30.0035 26.4141 29.9933C26.2524 30.0035 26.0902 30.0035 25.9284 29.9933C24.8446 30.062 23.7384 29.6701 22.9102 28.8175C19.9054 25.7242 18.6172 24.3941 18.1919 23.9499L18.1738 23.9311C18.1037 23.858 17.9969 23.7466 17.9355 23.673C17.9254 23.6609 17.8957 23.6252 17.8607 23.5778C17.8501 23.5633 17.8307 23.5367 17.8068 23.5011C17.6406 23.3295 17.4577 23.1409 17.2568 22.9337C17.0197 22.9492 16.7806 22.9571 16.5399 22.9571C16.4587 22.9571 16.3777 22.9562 16.2969 22.9544C16.2162 22.9562 16.1353 22.9571 16.0542 22.9571C15.973 22.9571 15.892 22.9562 15.8112 22.9544C15.7305 22.9562 15.6496 22.9571 15.5685 22.9571C15.4873 22.9571 15.4063 22.9562 15.3255 22.9544C15.2448 22.9562 15.1639 22.9571 15.0828 22.9571C15.0016 22.9571 14.9206 22.9562 14.8398 22.9544C14.7591 22.9562 14.6782 22.9571 14.5971 22.9571C14.5159 22.9571 14.4349 22.9562 14.3541 22.9544C14.2734 22.9562 14.1925 22.9571 14.1114 22.9571C14.0302 22.9571 13.9492 22.9562 13.8684 22.9544C13.7877 22.9562 13.7068 22.9571 13.6257 22.9571C13.5445 22.9571 13.4635 22.9562 13.3827 22.9544C13.302 22.9562 13.2211 22.9571 13.14 22.9571C13.0588 22.9571 12.9778 22.9562 12.897 22.9544C12.8163 22.9562 12.7354 22.9571 12.6543 22.9571C12.5731 22.9571 12.4921 22.9562 12.4113 22.9544C12.3306 22.9562 12.2497 22.9571 12.1686 22.9571C12.0874 22.9571 12.0064 22.9562 11.9256 22.9544C11.8449 22.9562 11.764 22.9571 11.6829 22.9571C5.5251 22.9571 0.533203 17.8182 0.533203 11.479C0.533203 5.13988 5.5251 0.000976562 11.6829 0.000976562C11.7641 0.000976562 11.845 0.00186914 11.9258 0.00364528C12.0065 0.00186914 12.0875 0.000976562 12.1686 0.000976562C12.2498 0.000976562 12.3307 0.00186914 12.4115 0.00364528C12.4922 0.00186914 12.5732 0.000976562 12.6543 0.000976562C12.7355 0.000976562 12.8164 0.00186914 12.8972 0.00364528C12.9779 0.00186914 13.0589 0.000976562 13.14 0.000976562C13.2212 0.000976562 13.3021 0.00186914 13.3829 0.00364529C13.4636 0.00186914 13.5446 0.000976562 13.6257 0.000976562C13.7069 0.000976562 13.7878 0.00186914 13.8686 0.00364528C13.9493 0.00186914 14.0303 0.000976562 14.1114 0.000976562C14.1926 0.000976562 14.2735 0.00186914 14.3543 0.00364529C14.435 0.00186914 14.5159 0.000976562 14.5971 0.000976562C14.6783 0.000976562 14.7592 0.00186912 14.84 0.0036453C14.9207 0.00186915 15.0016 0.000976562 15.0828 0.000976562C15.164 0.000976562 15.2449 0.00186914 15.3256 0.00364529C15.4064 0.00186914 15.4873 0.000976562 15.5685 0.000976562C15.6497 0.000976562 15.7306 0.00186914 15.8113 0.00364528C15.8921 0.00186914 15.973 0.000976562 16.0542 0.000976562Z" fill="black"/>
<path fill-rule="evenodd" clip-rule="evenodd" d="M19.4424 16.5821C20.3584 15.109 20.8894 13.3579 20.8894 11.479C20.8894 6.24445 16.7674 2.00098 11.6825 2.00098C6.59767 2.00098 2.47559 6.24445 2.47559 11.479C2.47559 16.7136 6.59767 20.9571 11.6825 20.9571C13.5073 20.9571 15.2081 20.4106 16.6389 19.4679C21.7289 24.7093 20.8857 23.8569 20.0424 23.0044C19.1556 22.108 18.2688 21.2115 24.2835 27.4033C25.0576 28.2002 26.3127 28.2002 27.0869 27.4033C27.861 26.6064 27.861 25.3143 27.0869 24.5174C21.0722 18.3256 21.959 19.222 22.8458 20.1185C23.689 20.9709 24.5322 21.8234 19.4424 16.5821ZM11.6825 17.1659C8.63161 17.1659 6.15836 14.6198 6.15836 11.479C6.15836 8.33829 8.63161 5.7922 11.6825 5.7922C14.7334 5.7922 17.2067 8.33829 17.2067 11.479C17.2067 14.6198 14.7334 17.1659 11.6825 17.1659Z" fill="white"/>
</svg>
