<svg width="39" height="31" viewBox="0 0 39 31" fill="none" xmlns="http://www.w3.org/2000/svg">
<path d="M4.50014 0.5C2.06359 0.5 0.0883789 2.47522 0.0883789 4.91177V26.0882C0.0883789 28.5248 2.06359 30.5 4.50014 30.5H34.5001C36.9367 30.5 38.9119 28.5248 38.9119 26.0882V4.91176C38.9119 2.47521 36.9367 0.5 34.5001 0.5H4.50014Z" fill="black"/>
<path d="M4.96721 2.26465H12.3379L9.52412 7.3643C9.3537 7.67315 9.01572 7.85083 8.66469 7.8161L1.85303 7.14215V5.37884C1.85303 3.65892 3.2473 2.26465 4.96721 2.26465Z" fill="white"/>
<path fill-rule="evenodd" clip-rule="evenodd" d="M14.1961 13.0947C13.6741 13.4012 13.3236 13.9685 13.3236 14.6176C13.3236 15.5922 14.1137 16.3823 15.0883 16.3823C15.5777 16.3823 16.0206 16.1831 16.3402 15.8613C16.5662 15.6339 16.7306 15.3452 16.8064 15.0224C16.8369 14.8924 16.853 14.7569 16.853 14.6176C16.853 13.6553 16.0828 12.8729 15.1253 12.8533C15.113 12.853 15.1007 12.8529 15.0883 12.8529C14.7628 12.8529 14.4579 12.941 14.1961 13.0947ZM15.7905 15.152L14.7459 13.8041C14.8512 13.7598 14.9669 13.7352 15.0883 13.7352C15.5756 13.7352 15.9707 14.1303 15.9707 14.6176C15.9707 14.8185 15.9035 15.0037 15.7905 15.152Z" fill="white"/>
<path fill-rule="evenodd" clip-rule="evenodd" d="M1.85303 8.02881V10.082L4.457 10.3396C5.93657 10.486 6.58307 12.2844 5.53534 13.3393L1.85303 17.0469V19.9371L1.94652 19.8429C2.45453 19.3315 3.22259 19.1804 3.88647 19.4614L9.10137 21.6687C10.2518 22.1556 10.546 23.651 9.66561 24.5373L5.49634 28.7352H8.36636L12.6815 24.3904C13.1909 23.8776 13.9614 23.7272 14.6262 24.0108L25.6324 28.7068C26.5163 28.5867 27.2823 28.0958 27.7687 27.396L17.4858 23.009C16.3339 22.5176 16.0461 21.0161 16.9347 20.1337L17.537 19.5356C17.6828 19.3908 17.8528 19.2725 18.0394 19.1862L28.3236 14.4269V12.2021L19.2017 16.4159C19.3347 16.0617 19.4232 15.6937 19.4673 15.3213L28.3236 11.2301V8.78285L17.0015 3.44371C16.5751 3.2426 16.0659 3.41232 15.8453 3.82908L12.9817 9.24058C12.8196 9.54694 12.8518 9.91983 13.0641 10.1938L13.3561 10.5705C13.0875 10.6888 12.8279 10.8359 12.5818 11.0119L12.3667 10.7343C11.9421 10.1864 11.8775 9.4406 12.2018 8.82789L15.0654 3.41638C15.5065 2.58287 16.525 2.24342 17.3779 2.64564L28.3236 7.80731V5.55096L21.3547 2.26465H13.3457L10.2967 7.79057C9.95585 8.40827 9.27988 8.76362 8.57781 8.69416L1.85303 8.02881ZM11.11 12.7911C10.4239 12.2681 9.42727 12.3104 8.78933 12.9527L6.17597 15.584C5.29562 16.4704 5.58974 17.9658 6.74021 18.4527L11.9635 20.6636C12.6233 20.9428 13.3865 20.7955 13.8949 20.2906L14.0605 20.1261C13.8945 19.9576 13.6892 19.7491 13.4697 19.5257L13.4416 19.4972L13.2731 19.6645C13.019 19.9169 12.6374 19.9906 12.3075 19.851L7.08414 17.6401C6.5089 17.3967 6.36185 16.649 6.80202 16.2058L9.41538 13.5745C9.78579 13.2015 10.3981 13.2331 10.7282 13.6423L10.7928 13.7224C10.8649 13.4035 10.9707 13.0911 11.11 12.7911ZM18.0183 16.8155C18.2279 16.4915 18.3825 16.1403 18.4821 15.7763C18.8221 14.5345 18.5227 13.1429 17.584 12.165C16.5926 11.1322 15.158 10.8424 13.9179 11.2953C13.6408 11.3965 13.3735 11.5348 13.123 11.7101C12.9358 11.841 12.7581 11.9927 12.5926 12.165C11.2143 13.6007 11.2143 15.9286 12.5926 17.3643C13.2818 18.0822 15.0883 19.9117 15.0883 19.9117C15.0883 19.9117 16.8948 18.0822 17.584 17.3643C17.7484 17.1931 17.8932 17.0091 18.0183 16.8155Z" fill="white"/>
<path d="M1.85303 10.9687V15.7948L4.90929 12.7175C5.43316 12.1901 5.10991 11.2909 4.37012 11.2177L1.85303 10.9687Z" fill="white"/>
<path d="M1.85303 25.621V21.1892L2.57257 20.4647C2.82658 20.209 3.2106 20.1334 3.54255 20.2739L8.75744 22.4812C9.33267 22.7247 9.47973 23.4724 9.03956 23.9156L4.3197 28.6678C2.91055 28.3698 1.85303 27.1189 1.85303 25.621Z" fill="white"/>
<path d="M9.60995 28.7352H23.4507L14.2799 24.8224C13.9475 24.6806 13.5623 24.7558 13.3076 25.0122L9.60995 28.7352Z" fill="white"/>
<path d="M28.3236 25.621C28.3236 25.9651 28.2678 26.2962 28.1648 26.6056L17.832 22.1974C17.2561 21.9517 17.1122 21.201 17.5565 20.7598L18.1588 20.1617C18.2317 20.0893 18.3167 20.0302 18.4099 19.987L28.3236 15.3992V25.621Z" fill="white"/>
<path d="M28.2033 4.51869C27.8301 3.21712 26.631 2.26465 25.2094 2.26465H23.4234L28.2033 4.51869Z" fill="white"/>
</svg>
