<svg width="24" height="31" viewBox="0 0 24 31" fill="none" xmlns="http://www.w3.org/2000/svg">
<path d="M9.99854 0.499023C10.0821 0.499023 10.1655 0.500163 10.2485 0.502429C10.3316 0.500163 10.4149 0.499023 10.4985 0.499023C10.5821 0.499023 10.6655 0.500163 10.7485 0.502429C10.8316 0.500163 10.9149 0.499023 10.9985 0.499023C11.0821 0.499023 11.1655 0.500163 11.2485 0.502429C11.3316 0.500163 11.4149 0.499023 11.4985 0.499023C11.5821 0.499023 11.6655 0.500163 11.7485 0.502429C11.8316 0.500163 11.9149 0.499023 11.9985 0.499023C12.0821 0.499023 12.1655 0.500163 12.2485 0.502429C12.3316 0.500163 12.4149 0.499023 12.4985 0.499023C12.5821 0.499023 12.6655 0.500163 12.7485 0.502429C12.8316 0.500163 12.9149 0.499023 12.9985 0.499023C13.0821 0.499023 13.1655 0.500163 13.2485 0.502429C13.3316 0.500163 13.4149 0.499023 13.4985 0.499023C13.5821 0.499023 13.6655 0.500163 13.7485 0.502429C13.8316 0.500163 13.9149 0.499023 13.9985 0.499023C14.0821 0.499023 14.1655 0.500163 14.2485 0.502429C14.3316 0.500163 14.4149 0.499023 14.4985 0.499023C14.5821 0.499023 14.6655 0.500163 14.7485 0.502429C14.8316 0.500163 14.9149 0.499023 14.9985 0.499023C19.9691 0.499023 23.9985 4.52846 23.9985 9.49902C23.9985 11.3984 23.4879 13.6137 22.8121 15.7553C22.1257 17.9305 21.2195 20.18 20.3274 22.1957C19.4334 24.2159 18.5411 26.0288 17.8731 27.3357C17.5387 27.99 17.2595 28.5194 17.0629 28.8869C16.9646 29.0707 16.887 29.2141 16.8333 29.3125C16.8065 29.3618 16.7857 29.3997 16.7713 29.4259L16.7547 29.4562L16.7482 29.4678C16.7482 29.4678 16.7481 29.468 16.3644 29.2555L16.748 29.4683C16.3955 30.1044 15.7257 30.499 14.9985 30.499C14.9143 30.499 14.8308 30.4937 14.7485 30.4834C14.6662 30.4937 14.5828 30.499 14.4985 30.499C14.4143 30.499 14.3308 30.4937 14.2485 30.4834C14.1662 30.4937 14.0828 30.499 13.9985 30.499C13.9143 30.499 13.8308 30.4937 13.7485 30.4834C13.6662 30.4937 13.5828 30.499 13.4985 30.499C13.4143 30.499 13.3308 30.4937 13.2485 30.4834C13.1662 30.4937 13.0828 30.499 12.9985 30.499C12.9143 30.499 12.8308 30.4937 12.7485 30.4834C12.6662 30.4937 12.5828 30.499 12.4985 30.499C12.4143 30.499 12.3308 30.4937 12.2485 30.4834C12.1662 30.4937 12.0828 30.499 11.9985 30.499C11.9143 30.499 11.8308 30.4937 11.7485 30.4834C11.6662 30.4937 11.5828 30.499 11.4985 30.499C11.4143 30.499 11.3308 30.4937 11.2485 30.4834C11.1662 30.4937 11.0828 30.499 10.9985 30.499C10.9143 30.499 10.8308 30.4937 10.7485 30.4834C10.6662 30.4937 10.5828 30.499 10.4985 30.499C10.4143 30.499 10.3308 30.4937 10.2485 30.4834C10.1662 30.4937 10.0828 30.499 9.99854 30.499C9.27138 30.499 8.60152 30.1044 8.24911 29.4683L8.63281 29.2557C8.24903 29.4682 8.24883 29.4678 8.24883 29.4678L8.2424 29.4562L8.22572 29.4259C8.21135 29.3997 8.19054 29.3618 8.16373 29.3125C8.1101 29.2141 8.03243 29.0707 7.93413 28.8869C7.73759 28.5194 7.45835 27.99 7.12393 27.3357C6.45593 26.0288 5.56372 24.2159 4.66964 22.1957C3.7776 20.18 2.8714 17.9305 2.18499 15.7553C1.50919 13.6137 0.998535 11.3984 0.998535 9.49902C0.998535 4.52846 5.02797 0.499023 9.99854 0.499023Z" fill="black"/>
<path fill-rule="evenodd" clip-rule="evenodd" d="M16.9985 9.49902C16.9985 15.865 9.99854 28.499 9.99854 28.499C9.99854 28.499 2.99854 15.865 2.99854 9.49902C2.99854 5.63303 6.13254 2.49902 9.99854 2.49902C13.8645 2.49902 16.9985 5.63303 16.9985 9.49902ZM13.1804 9.49902C13.1804 11.2563 11.7558 12.6808 9.99854 12.6808C8.24127 12.6808 6.81672 11.2563 6.81672 9.49902C6.81672 7.74175 8.24127 6.31721 9.99854 6.31721C11.7558 6.31721 13.1804 7.74175 13.1804 9.49902Z" fill="white"/>
</svg>
