<svg width="23" height="30" viewBox="0 0 23 30" fill="none" xmlns="http://www.w3.org/2000/svg">
<path d="M13.3436 29.9991L15.3144 26.3985L15.3721 26.2922L15.3726 26.2913C15.4222 26.1996 15.4943 26.066 15.5856 25.8952C15.7681 25.5538 16.0279 25.0635 16.3391 24.4634C16.9607 23.2649 17.7919 21.6206 18.6252 19.8452C19.4556 18.0762 20.3037 16.1443 20.9489 14.3779C21.5605 12.7038 22.1082 10.874 22.1082 9.43742C22.1082 4.40882 18.3586 -0.000946045 13.3436 -0.000946045H9.65325C4.63828 -0.000946045 0.888672 4.40882 0.888672 9.43742C0.888672 10.874 1.4364 12.7038 2.04796 14.3779C2.6932 16.1443 3.5413 18.0762 4.37164 19.8452C5.20499 21.6206 6.03614 23.2649 6.65776 24.4634C6.969 25.0635 7.22874 25.5538 7.4113 25.8952C7.50259 26.066 7.57466 26.1996 7.62428 26.2913L7.68089 26.3956L9.65325 29.9991H13.3436Z" fill="black"/>
<path fill-rule="evenodd" clip-rule="evenodd" d="M9.85023 27.8031L11.0179 25.7098L11.0742 25.608C11.1233 25.5192 11.1948 25.389 11.2855 25.2225C11.467 24.8894 11.7257 24.4103 12.0358 23.8236C12.6556 22.6511 13.4834 21.0442 14.3124 19.3113C15.1396 17.582 15.9773 15.7083 16.6109 14.0064C17.2246 12.358 17.7161 10.6959 17.7161 9.46393C17.7161 4.94862 14.2973 1.09575 9.85023 1.09575C5.40318 1.09575 1.98438 4.94862 1.98438 9.46393C1.98438 10.6959 2.47584 12.358 3.08954 14.0064C3.72316 15.7083 4.56083 17.582 5.38808 19.3113C6.2171 21.0442 7.04483 22.6511 7.66461 23.8236C7.97475 24.4103 8.23342 24.8894 8.41492 25.2225C8.50568 25.389 8.57719 25.5192 8.62623 25.608L8.68254 25.7098L9.85023 27.8031ZM13.9054 9.33867C13.9054 11.6833 12.0048 13.584 9.66016 13.584C7.31555 13.584 5.41487 11.6833 5.41487 9.33867C5.41487 6.99407 7.31555 5.09339 9.66016 5.09339C12.0048 5.09339 13.9054 6.99407 13.9054 9.33867Z" fill="#9947EB"/>
</svg>
