<svg width="28" height="30" viewBox="0 0 28 30" fill="none" xmlns="http://www.w3.org/2000/svg">
<path d="M9 14.5732C6.08702 13.5436 4 10.7655 4 7.5C4 3.35786 7.35786 0 11.5 0C11.5837 0 11.667 0.00136979 11.75 0.00408817C11.833 0.00136979 11.9163 0 12 0C12.0837 0 12.167 0.0013698 12.25 0.00408819C12.333 0.0013698 12.4163 0 12.5 0C12.5837 0 12.667 0.00136978 12.75 0.00408815C12.833 0.00136978 12.9163 0 13 0C13.0837 0 13.167 0.00136979 13.25 0.00408817C13.333 0.00136979 13.4163 0 13.5 0C13.5837 0 13.667 0.00136979 13.75 0.00408817C13.833 0.00136979 13.9163 0 14 0C14.0837 0 14.167 0.00136979 14.25 0.00408815C14.333 0.00136979 14.4163 0 14.5 0C14.5837 0 14.667 0.00136979 14.75 0.00408815C14.833 0.00136979 14.9163 0 15 0C15.0837 0 15.167 0.00136979 15.25 0.00408816C15.333 0.00136979 15.4163 0 15.5 0C15.5837 0 15.667 0.00136979 15.75 0.00408817C15.833 0.00136979 15.9163 0 16 0C16.0837 0 16.167 0.00136979 16.25 0.00408816C16.333 0.00136979 16.4163 0 16.5 0C20.6421 0 24 3.35786 24 7.5C24 10.7655 21.913 13.5436 19 14.5732V18.1281C20.8682 18.323 22.5846 18.735 23.9936 19.3283C24.9992 19.7517 25.9425 20.3069 26.6644 21.0256C27.394 21.7519 28 22.7586 28 24C28 25.2414 27.394 26.2481 26.6644 26.9744C25.9425 27.6931 24.9992 28.2483 23.9936 28.6717C21.9744 29.5219 19.3237 30 16.5 30C16.4165 30 16.3332 29.9996 16.25 29.9987C16.1668 29.9996 16.0835 30 16 30C15.9165 30 15.8332 29.9996 15.75 29.9987C15.6668 29.9996 15.5835 30 15.5 30C15.4165 30 15.3332 29.9996 15.25 29.9987C15.1668 29.9996 15.0835 30 15 30C14.9165 30 14.8332 29.9996 14.75 29.9987C14.6668 29.9996 14.5835 30 14.5 30C14.4165 30 14.3332 29.9996 14.25 29.9987C14.1668 29.9996 14.0835 30 14 30C13.9165 30 13.8332 29.9996 13.75 29.9987C13.6668 29.9996 13.5835 30 13.5 30C13.4165 30 13.3332 29.9996 13.25 29.9987C13.1668 29.9996 13.0835 30 13 30C12.9165 30 12.8332 29.9996 12.75 29.9987C12.6668 29.9996 12.5835 30 12.5 30C12.4165 30 12.3332 29.9996 12.25 29.9987C12.1668 29.9996 12.0835 30 12 30C11.9165 30 11.8332 29.9996 11.75 29.9987C11.6722 29.9995 11.5942 29.9999 11.516 30C11.5107 30 11.5053 30 11.5 30C8.67627 30 6.02563 29.5219 4.00637 28.6717C3.00081 28.2483 2.05749 27.6931 1.33555 26.9744C0.605986 26.2481 0 25.2414 0 24C0 22.7586 0.605986 21.7519 1.33555 21.0256C2.05749 20.3069 3.00081 19.7517 4.00637 19.3283C5.41539 18.735 7.13184 18.323 9 18.1281V14.5732Z" fill="black"/>
<path d="M6 7.5C6 4.46243 8.46243 2 11.5 2C14.5376 2 17 4.46243 17 7.5C17 10.5376 14.5376 13 11.5 13C8.46243 13 6 10.5376 6 7.5Z" fill="white"/>
<path fill-rule="evenodd" clip-rule="evenodd" d="M9 20.1404C4.96616 20.6024 2 22.1556 2 24.0004C2 26.2096 6.25329 28.0004 11.5 28.0004C16.7467 28.0004 21 26.2096 21 24.0004C21 22.1556 18.0338 20.6024 14 20.1404V22.1549C15.3611 22.3281 16.5389 22.6352 17.4414 23.0153C18.155 23.3157 18.6029 23.6224 18.8424 23.8608C18.901 23.9192 18.9401 23.9657 18.9657 24.0004C18.9401 24.0351 18.901 24.0816 18.8424 24.14C18.6029 24.3784 18.155 24.6851 17.4414 24.9856C16.0223 25.5831 13.923 26.0004 11.5 26.0004C9.07703 26.0004 6.97767 25.5831 5.5586 24.9856C4.845 24.6851 4.39708 24.3784 4.15756 24.14C4.09895 24.0816 4.05991 24.0351 4.03427 24.0004C4.05991 23.9657 4.09895 23.9192 4.15756 23.8608C4.39708 23.6224 4.845 23.3157 5.5586 23.0153C6.46114 22.6352 7.63886 22.3281 9 22.1549V20.1404ZM19.0113 23.9236C19.0113 23.9236 19.0107 23.927 19.0075 23.9339C19.0094 23.927 19.0113 23.9236 19.0113 23.9236ZM3.98872 23.9236C3.98872 23.9236 3.99064 23.927 3.99253 23.9339C3.98934 23.927 3.98872 23.9236 3.98872 23.9236ZM3.98872 24.0772C3.98872 24.0772 3.98934 24.0738 3.99253 24.0669C3.99064 24.0738 3.98872 24.0772 3.98872 24.0772ZM19.0075 24.0669C19.0107 24.0738 19.0113 24.0772 19.0113 24.0772C19.0113 24.0772 19.0094 24.0738 19.0075 24.0669Z" fill="white"/>
<path d="M11.5 15C11.332 15 11.1653 14.9944 11 14.9836V23.5C11 23.7761 11.2239 24 11.5 24C11.7761 24 12 23.7761 12 23.5V14.9836C11.8347 14.9944 11.668 15 11.5 15Z" fill="white"/>
</svg>
