<svg width="38" height="53" viewBox="0 0 38 53" fill="none" xmlns="http://www.w3.org/2000/svg">
<path d="M22.0037 52.9991L25.4854 46.6381L25.5874 46.4502L25.5882 46.4487C25.6759 46.2867 25.8032 46.0506 25.9645 45.749C26.287 45.1458 26.7459 44.2796 27.2957 43.2195C28.3939 41.1021 29.8623 38.1971 31.3346 35.0606C32.8015 31.9354 34.2998 28.5223 35.4397 25.4018C36.5201 22.4442 37.4878 19.2114 37.4878 16.6735C37.4878 7.78964 30.8635 -0.000946045 22.0037 -0.000946045H15.4841C6.62431 -0.000946045 0 7.78964 0 16.6735C0 19.2114 0.967656 22.4442 2.04807 25.4018C3.188 28.5223 4.68631 31.9354 6.15324 35.0606C7.6255 38.1971 9.09386 41.1021 10.1921 43.2194C10.7419 44.2796 11.2008 45.1458 11.5233 45.749C11.6846 46.0506 11.8119 46.2867 11.8996 46.4487L11.9996 46.6329L15.4841 52.9991H22.0037Z" fill="black"/>
<path fill-rule="evenodd" clip-rule="evenodd" d="M15.8338 49.1195L17.8968 45.4214L17.9962 45.2416C18.0829 45.0846 18.2092 44.8547 18.3696 44.5604C18.6902 43.972 19.1472 43.1256 19.6951 42.0891C20.79 40.0177 22.2524 37.1789 23.717 34.1173C25.1784 31.0623 26.6583 27.7521 27.7777 24.7453C28.8619 21.8331 29.7302 18.8968 29.7302 16.7203C29.7302 8.7433 23.6903 1.93655 15.8338 1.93655C7.97738 1.93655 1.9375 8.7433 1.9375 16.7203C1.9375 18.8968 2.80576 21.8331 3.88996 24.7453C5.00936 27.7521 6.48923 31.0623 7.95071 34.1173C9.41532 37.1789 10.8776 40.0177 11.9726 42.0891C12.5205 43.1256 12.9775 43.972 13.2981 44.5604C13.4585 44.8547 13.5848 45.0846 13.6714 45.2416L13.7709 45.4214L15.8338 49.1195ZM22.998 16.4991C22.998 20.6412 19.6402 23.9991 15.498 23.9991C11.3559 23.9991 7.99805 20.6412 7.99805 16.4991C7.99805 12.3569 11.3559 8.99905 15.498 8.99905C19.6402 8.99905 22.998 12.3569 22.998 16.4991Z" fill="#FA9938"/>
</svg>
