<svg width="32" height="35" viewBox="0 0 32 35" fill="none" xmlns="http://www.w3.org/2000/svg">
<path d="M10.6221 16.0308C13.2558 16.0308 15.3908 13.8958 15.3908 11.2621C15.3908 8.62844 13.2558 6.49343 10.6221 6.49343C7.98844 6.49343 5.85344 8.62844 5.85344 11.2621C5.85344 13.8958 7.98844 16.0308 10.6221 16.0308Z" fill="black"/>
<path fill-rule="evenodd" clip-rule="evenodd" d="M9.089 32.9773C9.44223 33.6105 10.1105 34.0029 10.8356 34.0029H20.8402C21.5635 34.0013 22.2297 33.6092 22.5822 32.9773L23.8939 30.626L23.9616 30.5035C24.0183 30.4008 24.1003 30.2515 24.2041 30.0612C24.4114 29.6806 24.706 29.135 25.0589 28.4675C25.7632 27.1351 26.7059 25.3051 27.6521 23.3273C28.5935 21.3593 29.5628 19.1943 30.3041 17.2031C30.9928 15.3533 31.6712 13.1835 31.6712 11.4028C31.6712 5.38081 27.0849 0.00553461 20.8402 0.00292969L10.8356 0.00292969C4.5886 0.00292969 0 5.37935 0 11.4028C0 13.1835 0.678437 15.3533 1.3671 17.2031C2.10843 19.1943 3.07771 21.3593 4.01916 23.3273C4.96534 25.3051 5.90806 27.1351 6.61237 28.4675C6.96519 29.135 7.2598 29.6806 7.46718 30.0612C7.57091 30.2515 7.65292 30.4008 7.7096 30.5035L7.77386 30.6197L9.089 32.9773ZM12.1473 29.6516L10.8356 32.0029L9.52397 29.6516L9.46071 29.5373C9.40563 29.4374 9.32531 29.2913 9.22335 29.1042C9.01947 28.7301 8.72891 28.1919 8.38054 27.5328C7.68435 26.2158 6.75457 24.4108 5.82334 22.4642C4.8941 20.5217 3.95316 18.417 3.24142 16.5053C2.55206 14.6536 2 12.7866 2 11.4028C2 6.33082 5.8403 2.00293 10.8356 2.00293C15.8309 2.00293 19.6712 6.33082 19.6712 11.4028C19.6712 12.7866 19.1192 14.6536 18.4298 16.5053C17.7181 18.417 16.7771 20.5217 15.8479 22.4642C14.9167 24.4108 13.9869 26.2158 13.2907 27.5328C12.9423 28.1919 12.6518 28.7301 12.4479 29.1042C12.3459 29.2913 12.2656 29.4374 12.2105 29.5373L12.1473 29.6516Z" fill="black"/>
</svg>
