<svg width="47" height="61" viewBox="0 0 47 61" fill="none" xmlns="http://www.w3.org/2000/svg">
<path d="M18 0.500977C18.1672 0.500977 18.3339 0.503256 18.5 0.507787C18.6661 0.503256 18.8328 0.500977 19 0.500977C19.1672 0.500977 19.3339 0.503256 19.5 0.507787C19.6661 0.503256 19.8328 0.500977 20 0.500977C20.1672 0.500977 20.3339 0.503256 20.5 0.507787C20.6661 0.503256 20.8328 0.500977 21 0.500977C21.1672 0.500977 21.3339 0.503257 21.5 0.507787C21.6661 0.503257 21.8328 0.500977 22 0.500977C22.1672 0.500977 22.3339 0.503256 22.5 0.507787C22.6661 0.503256 22.8328 0.500977 23 0.500977C23.1672 0.500977 23.3339 0.503256 23.5 0.507787C23.6661 0.503256 23.8328 0.500977 24 0.500977C24.1672 0.500977 24.3339 0.503257 24.5 0.507787C24.6661 0.503257 24.8328 0.500977 25 0.500977C25.1672 0.500977 25.3339 0.503256 25.5 0.507787C25.6661 0.503256 25.8328 0.500977 26 0.500977C26.1672 0.500977 26.3339 0.503256 26.5 0.507787C26.6661 0.503256 26.8328 0.500977 27 0.500977C27.1672 0.500977 27.3339 0.503256 27.5 0.507787C27.6661 0.503256 27.8328 0.500977 28 0.500977C37.9411 0.500977 46 8.55985 46 18.501C46 22.2997 44.9787 26.7303 43.6271 31.0135C42.2543 35.364 40.4419 39.863 38.6578 43.8943C36.8696 47.9347 35.0852 51.5606 33.7492 54.1744C33.0804 55.4829 32.5219 56.5418 32.1288 57.2768C31.9322 57.6444 31.7769 57.9312 31.6696 58.128C31.616 58.2264 31.5744 58.3024 31.5456 58.3547L31.5123 58.4153L31.4994 58.4385C31.4994 58.4385 31.4992 58.4389 30.7316 58.014L31.4988 58.4395C30.794 59.7116 29.4543 60.501 28 60.501C27.8315 60.501 27.6646 60.4904 27.5 60.4697C27.3354 60.4904 27.1685 60.501 27 60.501C26.8315 60.501 26.6646 60.4904 26.5 60.4697C26.3354 60.4904 26.1685 60.501 26 60.501C25.8315 60.501 25.6646 60.4904 25.5 60.4697C25.3354 60.4904 25.1685 60.501 25 60.501C24.8315 60.501 24.6646 60.4904 24.5 60.4697C24.3354 60.4904 24.1685 60.501 24 60.501C23.8315 60.501 23.6646 60.4904 23.5 60.4697C23.3354 60.4904 23.1685 60.501 23 60.501C22.8315 60.501 22.6646 60.4904 22.5 60.4697C22.3354 60.4904 22.1685 60.501 22 60.501C21.8315 60.501 21.6646 60.4904 21.5 60.4697C21.3354 60.4904 21.1685 60.501 21 60.501C20.8315 60.501 20.6646 60.4904 20.5 60.4697C20.3354 60.4904 20.1685 60.501 20 60.501C19.8315 60.501 19.6646 60.4904 19.5 60.4697C19.3354 60.4904 19.1685 60.501 19 60.501C18.8315 60.501 18.6646 60.4904 18.5 60.4697C18.3354 60.4904 18.1685 60.501 18 60.501C16.5457 60.501 15.206 59.7116 14.5012 58.4395L15.2685 58.0144C14.501 58.4393 14.5006 58.4385 14.5006 58.4385L14.4877 58.4153L14.4544 58.3547C14.4256 58.3024 14.384 58.2264 14.3304 58.128C14.2231 57.9312 14.0678 57.6444 13.8712 57.2768C13.4781 56.5418 12.9196 55.4829 12.2508 54.1744C10.9148 51.5606 9.13036 47.9347 7.3422 43.8943C5.55812 39.863 3.74573 35.364 2.37291 31.0135C1.02132 26.7303 0 22.2997 0 18.501C0 8.55984 8.05887 0.500977 18 0.500977Z" fill="black"/>
<path fill-rule="evenodd" clip-rule="evenodd" d="M32 18.501C32 31.233 18 56.501 18 56.501C18 56.501 4 31.233 4 18.501C4 10.769 10.268 4.50098 18 4.50098C25.732 4.50098 32 10.769 32 18.501ZM24.3636 18.501C24.3636 22.0155 21.5145 24.8646 18 24.8646C14.4855 24.8646 11.6364 22.0155 11.6364 18.501C11.6364 14.9864 14.4855 12.1373 18 12.1373C21.5145 12.1373 24.3636 14.9864 24.3636 18.501Z" fill="#FA9938"/>
</svg>
