<svg width="42" height="31" viewBox="0 0 42 31" fill="none" xmlns="http://www.w3.org/2000/svg">
<path d="M39.5054 12.875C39.0824 12.271 38.4484 11.868 37.7204 11.741L37.4119 11.6875C37.8874 11.4075 38.2679 10.994 38.5059 10.484C38.8169 9.81696 38.8484 9.06946 38.5944 8.37946C38.1979 7.30196 37.1579 6.57796 36.0069 6.57796H35.5704L35.7309 6.38896C36.2084 5.82596 36.4364 5.11096 36.3719 4.37596C36.3074 3.64046 35.9589 2.97546 35.3899 2.50296C34.8954 2.09346 34.2694 1.86746 33.6274 1.86746H28.5159C27.8654 1.02446 26.8464 0.501465 25.7439 0.501465H20.7444C20.3409 0.501465 19.9429 0.570464 19.5619 0.706964C18.6784 1.02296 17.9739 1.66396 17.5774 2.51046C17.3844 2.92146 17.2774 3.35746 17.2544 3.79746L13.2994 6.90096C12.7124 7.36196 12.0894 7.79146 11.4484 8.17646L8.41036 10.004C8.40386 10.008 8.39886 10.013 8.39236 10.0165C8.33136 10.011 8.27286 9.99846 8.21036 9.99846H8.20786C8.16336 9.99846 8.11986 9.99996 8.07586 10.0025C7.34636 10.0455 6.63036 10.193 5.94686 10.441C4.05986 11.1265 2.55336 12.5055 1.70586 14.323C0.859362 16.1385 0.771362 18.174 1.45736 20.0555C2.53386 23.0075 5.36986 24.9905 8.51536 24.9905C9.35736 24.9905 10.1884 24.8455 10.9874 24.567L13.1964 28.871C13.7134 29.8765 14.7364 30.5015 15.8679 30.5015H20.8674C21.2179 30.5015 21.5629 30.441 21.8924 30.321L22.9444 29.939C23.9509 29.5735 24.7539 28.8385 25.2059 27.869C25.6574 26.9005 25.7044 25.814 25.3384 24.8105L24.5994 22.7835C25.1714 23.1825 25.8594 23.4145 26.5869 23.4145H31.5864C31.9899 23.4145 32.3879 23.345 32.7689 23.2085C33.6519 22.8925 34.3569 22.252 34.7539 21.4055C35.1479 20.563 35.1894 19.6185 34.8699 18.7455L34.3019 17.195H37.2464C38.5844 17.195 39.7249 16.2415 39.9589 14.9285C40.0879 14.206 39.9269 13.4765 39.5054 12.875Z" fill="black"/>
<path fill-rule="evenodd" clip-rule="evenodd" d="M27.0949 21.3258C26.3189 21.6038 25.4619 21.2068 25.1809 20.4393L19.3384 4.48272C19.0574 3.71522 19.4589 2.8677 20.2354 2.5902C21.0114 2.3122 21.8684 2.7092 22.1494 3.47671L27.9914 19.4328C28.2724 20.2008 27.8709 21.0478 27.0949 21.3258ZM27.0044 11.5617C26.6119 11.7027 26.1784 11.5027 26.0359 11.1147C25.8929 10.7272 26.0949 10.2982 26.4874 10.1572L30.7484 8.62373C31.1409 8.48223 31.575 8.68224 31.7175 9.07024C31.86 9.45774 31.658 9.88672 31.2655 10.0282L27.0044 11.5617ZM26.2909 8.53071C26.0224 8.84672 25.5459 8.88823 25.2264 8.62273C24.9064 8.35722 24.8644 7.88571 25.1329 7.56971L28.0479 4.1347C28.3164 3.8182 28.7929 3.7772 29.1129 4.0422C29.4324 4.3077 29.4744 4.77921 29.2059 5.09521L26.2909 8.53071ZM27.9109 12.9333L32.377 13.7117C32.788 13.7837 33.0624 14.1713 32.9899 14.5778C32.9174 14.9843 32.5255 15.2558 32.1145 15.1838L27.6484 14.4053C27.2374 14.3338 26.9629 13.9458 27.0354 13.5392C27.1079 13.1327 27.4999 12.8613 27.9109 12.9333ZM18.5434 5.32822L24.0579 20.3113L20.7939 20.2118C19.3524 20.1678 17.9099 20.2768 16.4919 20.5373L12.9404 21.1898C12.7394 21.2268 12.5349 21.1393 12.4244 20.9688L10.3669 17.7948C10.0214 17.2328 9.79136 16.6088 9.69086 15.9583L9.20236 12.2077C9.17736 12.0127 9.27035 11.8207 9.44035 11.7182L12.4789 9.89074C13.1929 9.46123 13.8789 8.98822 14.5339 8.47471L18.5434 5.32822ZM11.5834 21.5118C11.6664 21.6393 11.7659 21.7513 11.8784 21.8458C11.4409 22.1823 10.9459 22.4593 10.3994 22.6578C7.53935 23.6968 4.37684 22.2248 3.33584 19.3703C2.29483 16.5163 3.76934 13.3598 6.62935 12.3213C7.15036 12.1318 7.68135 12.0282 8.20785 11.9987C8.19685 12.1097 8.19436 12.2227 8.20886 12.3367L8.69786 16.0873C8.82236 16.8963 9.09537 17.6388 9.51337 18.3178L11.5834 21.5118ZM16.6734 21.5208C16.7789 21.5013 16.8859 21.4888 16.9919 21.4708L18.4599 25.4963C18.8384 26.5338 18.3019 27.6818 17.2619 28.0593L16.2099 28.4413C15.7354 28.6143 15.2059 28.4063 14.9754 27.9578L12.3104 22.7653C12.3699 22.7228 12.4314 22.6828 12.4894 22.6383L13.0899 22.1768C13.1009 22.1748 13.1114 22.1753 13.1219 22.1733L16.6734 21.5208Z" fill="white"/>
</svg>
