<svg width="37" height="20" viewBox="0 0 37 20" fill="none" xmlns="http://www.w3.org/2000/svg">
<path d="M9.61267 6.66797C7.8019 6.66797 6.33398 8.16035 6.33398 10.0013C6.33398 11.8423 7.8019 13.3346 9.61267 13.3346C14.6217 13.3346 20.9971 13.3346 26.0061 13.3346C27.8169 13.3346 29.2848 11.8423 29.2848 10.0013C29.2848 8.16035 27.8169 6.66797 26.0061 6.66797C20.9971 6.66797 14.6217 6.66797 9.61267 6.66797Z" fill="black"/>
<path fill-rule="evenodd" clip-rule="evenodd" d="M9.61174 8.00098C8.52528 8.00098 7.64453 8.89641 7.64453 10.001C7.64453 11.1055 8.52528 12.001 9.61175 12.001C18.6189 12.001 13.7194 12.001 22.7265 12.001C23.813 12.001 24.6937 11.1055 24.6937 10.001C24.6937 8.89641 23.813 8.00098 22.7265 8.00098C13.7194 8.00098 18.6189 8.00098 9.61174 8.00098Z" fill="white"/>
</svg>
