<svg width="22" height="20" viewBox="0 0 22 20" fill="none" xmlns="http://www.w3.org/2000/svg">
<path fill-rule="evenodd" clip-rule="evenodd" d="M12.9295 1.08975C13.3046 0.714681 13.8133 0.503967 14.3438 0.503967H17.3438C17.8742 0.503967 18.3829 0.714681 18.758 1.08975L20.4246 2.75642C21.2057 3.53747 21.2057 4.8038 20.4246 5.58485L19.5913 6.41818C19.4188 6.59066 19.2181 6.72838 19 6.82684C18.9014 7.04527 18.7634 7.24627 18.5906 7.41891L11.5002 14.502H20C21.1046 14.502 22 15.3974 22 16.502V17.502C22 18.6066 21.1046 19.502 20 19.502H2C0.89543 19.502 0 18.6066 0 17.502V16.502C0 15.5518 0.662588 14.7564 1.55092 14.5526L1.95551 12.5297C2.08313 11.8916 2.51151 11.3611 3.09545 11.0983C3.19402 10.8801 3.33187 10.6794 3.50448 10.507L11.0969 2.92236C11.2728 2.74668 11.4732 2.61057 11.6871 2.51402C11.7838 2.2998 11.9202 2.09912 12.0962 1.92309L12.9295 1.08975ZM14.3438 2.50397L13.5104 3.3373L15.1771 5.00397L16.0104 4.17063L14.3438 2.50397ZM12.5104 4.3373L4.91797 11.9219L6.58464 13.5886L14.1771 6.00397L12.5104 4.3373ZM3.5 15.0053L3.91667 12.9219L5.58333 14.5886L3.5 15.0053ZM2 16.502H17V17.502H2V16.502Z" fill="black"/>
</svg>
