<svg width="16" height="21" viewBox="0 0 16 21" fill="none" xmlns="http://www.w3.org/2000/svg">
<path d="M7.06749 0.00292969C7.01158 0.00292969 6.95606 0.00459701 6.90099 0.00788444C6.84581 0.00459693 6.79018 0.00292969 6.73416 0.00292969C5.21249 0.00292969 3.98321 1.23804 3.98321 2.75636C3.98321 3.12868 4.05704 3.484 4.19093 3.80828C4.13808 3.80853 4.08538 3.81103 4.03297 3.81574C3.92148 3.8057 3.80993 3.80583 3.69964 3.81574C3.58815 3.8057 3.4766 3.80583 3.36631 3.81574C3.25482 3.8057 3.14327 3.80583 3.03298 3.81574C2.92149 3.8057 2.80994 3.80583 2.69964 3.81574C2.58816 3.8057 2.47661 3.80583 2.36631 3.81574C2.25483 3.8057 2.14327 3.80583 2.03298 3.81574C1.30423 3.75011 0.572315 4.11918 0.211049 4.81196L0.208464 4.81694C-0.246923 5.69925 0.0617677 6.80684 0.958805 7.30542L2.21818 8.00919L2.22009 8.01026C2.7663 8.31431 3.3752 8.45493 3.97909 8.43259V11.3315L2.82062 12.4886L2.81898 12.4903C2.32344 12.987 1.9472 13.595 1.72863 14.2701L1.72755 14.2735L0.752873 17.2427C0.750972 17.2485 0.749111 17.2543 0.74729 17.2601C0.406162 18.3495 0.987359 19.5351 2.10033 19.8985C2.37251 19.9874 2.65067 20.0178 2.92064 19.9963C3.03248 20.0052 3.1439 20.0051 3.25398 19.9963C3.36581 20.0052 3.47724 20.0051 3.58731 19.9963C3.69914 20.0052 3.81057 20.0051 3.92064 19.9963C4.03247 20.0052 4.1439 20.0051 4.25397 19.9963C4.3658 20.0052 4.47723 20.0051 4.5873 19.9963C4.69913 20.0052 4.81056 20.0051 4.92063 19.9963C5.03246 20.0052 5.14389 20.0051 5.25396 19.9963C5.3658 20.0052 5.47723 20.0051 5.5873 19.9963C5.69913 20.0052 5.81056 20.0051 5.92063 19.9963C6.77914 20.0648 7.61403 19.5985 7.99018 18.7968L8.05971 18.9175L8.06423 18.9253C8.48915 19.6515 9.2868 20.0495 10.0886 19.9862C10.199 19.9949 10.3104 19.995 10.4219 19.9862C10.5323 19.9949 10.6437 19.995 10.7552 19.9862C10.8656 19.9949 10.9771 19.995 11.0886 19.9862C11.1989 19.9949 11.3104 19.995 11.4219 19.9862C11.5323 19.9949 11.6437 19.995 11.7552 19.9862C11.8656 19.9949 11.9771 19.995 12.0886 19.9862C12.1989 19.9949 12.3104 19.995 12.4219 19.9862C12.5323 19.9949 12.6437 19.995 12.7552 19.9862C12.8656 19.9949 12.977 19.995 13.0886 19.9862C13.5034 20.0189 13.9334 19.9305 14.3258 19.7021C15.3554 19.1072 15.694 17.7929 15.1098 16.776L13.5796 14.1239L13.575 14.116C13.5016 13.9908 13.441 13.8463 13.3936 13.6773L12.8885 11.7889V11.373C12.9986 11.3822 13.1077 11.3816 13.2144 11.3723C13.327 11.3822 13.4386 11.3819 13.5477 11.3723C13.6603 11.3822 13.772 11.3819 13.881 11.3723C14.1129 11.3927 14.3408 11.3695 14.5503 11.3126C14.9627 11.2004 15.3779 10.9367 15.6489 10.5021C15.934 10.0449 15.9917 9.50674 15.8554 9.00149L15.4193 7.36318L15.4189 7.36166C15.0848 6.11285 14.2295 5.07013 13.0753 4.49713L12.4289 4.17709C12.6789 3.76226 12.8226 3.27612 12.8226 2.75636C12.8226 1.23545 11.5907 0.00292969 10.0675 0.00292969C10.0116 0.00292969 9.95604 0.00459701 9.90097 0.00788444C9.84578 0.00459693 9.79016 0.00292969 9.73413 0.00292969C9.67823 0.00292969 9.62271 0.00459701 9.56764 0.00788444C9.51245 0.00459693 9.45683 0.00292969 9.4008 0.00292969C9.34489 0.00292969 9.28938 0.00459701 9.23431 0.00788445C9.17912 0.00459693 9.12349 0.00292969 9.06747 0.00292969C9.01156 0.00292969 8.95605 0.00459701 8.90098 0.00788444C8.84579 0.00459693 8.79016 0.00292969 8.73414 0.00292969C8.67823 0.00292969 8.62272 0.00459701 8.56765 0.00788444C8.51246 0.00459693 8.45683 0.00292969 8.40081 0.00292969C8.3449 0.00292969 8.28939 0.00459702 8.23432 0.00788446C8.17913 0.00459693 8.1235 0.00292969 8.06748 0.00292969C8.01157 0.00292969 7.95606 0.00459702 7.90099 0.00788447C7.8458 0.00459694 7.79017 0.00292969 7.73415 0.00292969C7.67824 0.00292969 7.62273 0.00459702 7.56765 0.00788447C7.51247 0.00459694 7.45684 0.00292969 7.40082 0.00292969C7.34491 0.00292969 7.2894 0.00459701 7.23432 0.00788448C7.17914 0.00459694 7.12351 0.00292969 7.06749 0.00292969Z" fill="black"/>
<path fill-rule="evenodd" clip-rule="evenodd" d="M8.24702 6.58822C9.07947 6.98508 9.69762 7.72934 9.93664 8.62196L10.2128 9.65016C10.3982 10.3293 11.4326 10.0734 11.2348 9.34687L10.7979 7.70587C10.563 6.82767 9.96135 6.09411 9.1495 5.69107L7.88024 5.06262C7.54231 4.89531 7.17141 4.80835 6.7964 4.80835C6.34308 4.80835 5.90213 4.93404 5.51476 5.17101L4.62047 5.71869C4.1383 6.01458 3.53665 6.02323 3.04212 5.74012L2.13138 5.21304C1.86764 5.06138 1.53382 5.15945 1.3937 5.42814C1.26183 5.68365 1.3525 5.99892 1.608 6.14027L2.86902 6.84496C3.48718 7.18907 4.23723 7.18619 4.85127 6.8392L5.31283 6.57668V11.7507C5.31283 11.8343 5.27987 11.9151 5.22218 11.9744L3.76331 13.4317C3.41302 13.7828 3.14928 14.2105 2.9968 14.6828L2.02011 17.6582C1.89236 18.0662 2.11075 18.4989 2.51461 18.6308C2.91848 18.7626 3.3553 18.5442 3.48718 18.1363L4.29081 15.676C4.44741 15.2062 4.70704 14.7735 5.06145 14.4232L6.52852 12.9553C6.63155 12.8526 6.80876 12.8988 6.84585 13.0406L7.29095 14.6993C7.36101 14.9672 7.46812 15.2227 7.60823 15.4617L9.21546 18.2516C9.44211 18.639 9.93667 18.775 10.324 18.5484C10.7114 18.3258 10.8433 17.8272 10.6208 17.4398L9.09185 14.7899C8.95174 14.5509 8.8487 14.2954 8.77453 14.0284L8.23052 11.9946C8.22228 11.9687 8.22227 11.9411 8.22227 11.9139V6.57668L8.24702 6.58822ZM8.15637 2.75605C8.15637 1.97181 7.52169 1.33594 6.73457 1.33594C5.95157 1.33594 5.31695 1.97181 5.31695 2.75605C5.31695 3.54152 5.95157 4.17741 6.73457 4.17741C7.52169 4.17741 8.15637 3.54152 8.15637 2.75605Z" fill="white"/>
</svg>
