<svg width="21" height="21" viewBox="0 0 21 21" fill="none" xmlns="http://www.w3.org/2000/svg">
<path d="M1.15456 16.463L4.87903 17.4625C4.72232 18.3267 5.10905 19.2369 5.91475 19.7023C6.3064 19.9298 6.73696 20.0184 7.15275 19.9858C7.26424 19.9946 7.37567 19.9945 7.48607 19.9858C7.59755 19.9946 7.70899 19.9945 7.81939 19.9858C7.93087 19.9946 8.04231 19.9945 8.15272 19.9858C8.2642 19.9946 8.37564 19.9945 8.48605 19.9858C8.59753 19.9946 8.70897 19.9945 8.81938 19.9858C8.93085 19.9946 9.0423 19.9945 9.1527 19.9858C9.26418 19.9946 9.37562 19.9945 9.48603 19.9858C9.59751 19.9946 9.70895 19.9945 9.81935 19.9858C9.93083 19.9946 10.0423 19.9945 10.1527 19.9858C10.9543 20.0489 11.7541 19.6528 12.1784 18.9196L12.2512 18.7934C12.6259 19.594 13.4588 20.0653 14.3201 19.9963C14.4301 20.0051 14.5415 20.0052 14.6534 19.9963C14.7634 20.0051 14.8749 20.0052 14.9868 19.9963C15.0968 20.0051 15.2082 20.0052 15.3201 19.9963C15.4301 20.0051 15.5415 20.0052 15.6534 19.9963C15.7634 20.0051 15.8748 20.0052 15.9867 19.9963C16.0967 20.0051 16.2082 20.0052 16.3201 19.9963C16.4301 20.0051 16.5415 20.0052 16.6534 19.9963C16.7634 20.0051 16.8748 20.0052 16.9867 19.9963C17.0967 20.0051 17.2081 20.0052 17.32 19.9963C17.5894 20.0178 17.8673 19.9875 18.1399 19.8985L18.141 19.8981C19.2448 19.5374 19.8477 18.3523 19.4864 17.2448L18.5126 14.2683C18.2929 13.5968 17.9188 12.9882 17.4197 12.4891L16.2603 11.3297V8.43243C16.8648 8.45523 17.4746 8.31474 18.0207 8.0096L18.022 8.00889L19.2874 7.30404L19.2898 7.30272C20.1674 6.80921 20.4973 5.70737 20.031 4.81238L20.0308 4.81191C19.6701 4.12026 18.9369 3.74986 18.2075 3.81562C18.0972 3.80571 17.9856 3.80557 17.8742 3.81562C17.7639 3.8057 17.6523 3.80557 17.5408 3.81562C17.4305 3.80571 17.319 3.80557 17.2075 3.81562C17.0972 3.80571 16.9857 3.80557 16.8742 3.81562C16.7639 3.80571 16.6523 3.80557 16.5409 3.81562C16.4306 3.8057 16.319 3.80557 16.2075 3.81562C16.1561 3.811 16.1044 3.8085 16.0526 3.80817C16.1864 3.48409 16.2603 3.12886 16.2603 2.75634C16.2603 1.23521 15.0274 0.00292969 13.5056 0.00292969C13.4497 0.00292969 13.3942 0.00459763 13.3391 0.00788644C13.2839 0.0045976 13.2283 0.00292969 13.1723 0.00292969C13.1164 0.00292969 13.0608 0.00459763 13.0057 0.00788644C12.9506 0.0045976 12.895 0.00292969 12.839 0.00292969C12.7831 0.00292969 12.7275 0.00459763 12.6724 0.00788644C12.6172 0.0045976 12.5616 0.00292969 12.5057 0.00292969C12.4497 0.00292969 12.3942 0.00459763 12.3391 0.00788644C12.2839 0.0045976 12.2283 0.00292969 12.1723 0.00292969C12.1164 0.00292969 12.0609 0.00459763 12.0057 0.00788644C11.9506 0.0045976 11.895 0.00292969 11.839 0.00292969C11.7831 0.00292969 11.7275 0.00459764 11.6724 0.00788646C11.6173 0.0045976 11.5617 0.00292969 11.5057 0.00292969C11.4497 0.00292969 11.3942 0.00459764 11.3391 0.00788645C11.2839 0.0045976 11.2283 0.00292969 11.1724 0.00292969C11.1164 0.00292969 11.0609 0.00459763 11.0058 0.00788645C10.9506 0.0045976 10.895 0.00292969 10.839 0.00292969C10.7831 0.00292969 10.7275 0.0045976 10.6724 0.00788641C10.6173 0.00459759 10.5617 0.00292969 10.5057 0.00292969C10.4498 0.00292969 10.3942 0.00459763 10.3391 0.00788644C10.284 0.0045976 10.2284 0.00292969 10.1724 0.00292969C8.6513 0.00292969 7.41939 1.23623 7.41939 2.75634C7.41939 3.27598 7.56317 3.76216 7.8132 4.17707L7.16888 4.49641C6.01053 5.06954 5.15546 6.11331 4.82239 7.36272L4.59269 8.22403L3.92884 8.70511C3.87634 8.74315 3.82499 8.78293 3.77489 8.82437C3.74414 8.82589 3.71352 8.82834 3.68306 8.8317C3.57111 8.81932 3.45938 8.8196 3.34973 8.8317C3.23778 8.81932 3.12605 8.8196 3.0164 8.8317C2.90445 8.81932 2.79272 8.8196 2.68308 8.8317C2.57113 8.81932 2.4594 8.8196 2.34975 8.8317C1.62559 8.75161 0.910514 9.20137 0.711485 9.95233L0.0509365 12.4164L0.0498873 12.4204C-0.0728304 12.8899 0.0375962 13.363 0.307129 13.7209L0.0715437 14.5999L0.0709053 14.6023C-0.138893 15.397 0.321487 16.2462 1.15456 16.463Z" fill="black"/>
<path fill-rule="evenodd" clip-rule="evenodd" d="M6.91317 14.444L5.81121 14.1497L5.85284 13.9923C5.88045 13.893 5.8211 13.7904 5.72013 13.7644L4.38823 13.4059C4.28726 13.3799 4.18465 13.4393 4.15868 13.539L4.11665 13.6948L1.47181 12.9872C1.37249 12.9596 1.31314 12.857 1.3391 12.7577L1.99928 10.2949C2.02525 10.1952 2.1291 10.1359 2.22883 10.1618L4.08368 10.6588C4.19618 10.2949 4.4216 9.99408 4.71048 9.78473C4.73933 9.95658 4.79869 10.1128 4.87946 10.25C4.72492 10.3901 4.605 10.5706 4.537 10.78L6.90575 11.4154C6.94778 11.2205 6.94076 11.0256 6.89131 10.8434C7.03596 10.7684 7.16866 10.6675 7.28281 10.5373C7.40438 10.8463 7.43737 11.1917 7.35824 11.537L7.73365 11.638V11.8288L7.20906 13.7817C7.16003 13.968 7.08665 14.1468 6.98981 14.3121L6.91317 14.444ZM5.82275 16.3355L1.49241 15.1734C1.39268 15.1487 1.3321 15.0456 1.3593 14.9426L1.71617 13.6111C1.74336 13.5114 1.84598 13.4524 1.94571 13.4784L4.02434 14.036L3.98231 14.1934C3.95635 14.2956 4.01569 14.3986 4.11542 14.4234L5.44856 14.7819C5.54829 14.8066 5.6509 14.7489 5.6781 14.65L5.72013 14.4893L6.73102 14.7613L5.82275 16.3355ZM8.66253 6.58848C7.82885 6.98533 7.21071 7.72959 6.97087 8.6222L6.69517 9.65039C6.5089 10.3295 5.47453 10.0736 5.67234 9.3471L6.10997 7.70611C6.34404 6.82793 6.94491 6.09437 7.75963 5.69133L9.02765 5.06289C9.36557 4.89558 9.73687 4.80862 10.1127 4.80862C10.5648 4.80862 11.0082 4.93432 11.3923 5.17128L12.2865 5.71895C12.7687 6.01484 13.3741 6.02349 13.8636 5.74038L14.7764 5.21331C15.0381 5.06165 15.3744 5.15972 15.5145 5.42841C15.6476 5.68391 15.5537 5.99918 15.3023 6.14053L14.0371 6.84521C13.4219 7.18932 12.6706 7.18644 12.0566 6.83945L11.593 6.57693V11.7509C11.593 11.8345 11.6264 11.9153 11.6857 11.9747L13.1429 13.4319C13.494 13.783 13.7569 14.2107 13.9115 14.683L14.8848 17.6584C15.0179 18.0663 14.7966 18.499 14.3924 18.6309C13.9893 18.7628 13.5546 18.5444 13.4219 18.1364L12.6158 15.6762C12.4625 15.2064 12.1983 14.7737 11.8472 14.4234L10.3785 12.9555C10.2759 12.8528 10.0995 12.899 10.062 13.0408L9.61695 14.6995C9.54483 14.9673 9.43935 15.2228 9.30088 15.4619L7.69038 18.2518C7.4662 18.6392 6.97085 18.7752 6.58224 18.5485C6.19528 18.326 6.06218 17.8273 6.28637 17.44L7.81731 14.7901C7.95453 14.5511 8.06128 14.2956 8.13216 14.0286L8.67694 11.9949C8.68395 11.9689 8.68849 11.9413 8.68849 11.9141V6.57693L8.66253 6.58848ZM8.75195 2.75634C8.75195 1.97211 9.38741 1.33624 10.1716 1.33624C10.9575 1.33624 11.593 1.97211 11.593 2.75634C11.593 3.54181 10.9575 4.17769 10.1716 4.17769C9.38741 4.17769 8.75195 3.54181 8.75195 2.75634Z" fill="white"/>
</svg>
