<svg width="48" height="40" viewBox="0 0 48 40" fill="none" xmlns="http://www.w3.org/2000/svg">
<path d="M20.6665 0C16.9843 0 13.9993 2.98477 13.9993 6.66667V13.3333H7.33218C3.65002 13.3333 0.665039 16.3181 0.665039 20C0.665039 23.6819 3.65002 26.6667 7.33218 26.6667H13.9993V33.3333C13.9993 37.0152 16.9843 40 20.6665 40C22.8888 40 25.1112 40 27.3336 40C31.0158 40 34.0008 37.0152 34.0008 33.3333V26.6667H40.6679C44.3501 26.6667 47.335 23.6819 47.335 20C47.335 16.3181 44.3501 13.3333 40.6679 13.3333H34.0008V6.66667C34.0008 2.98477 31.0158 0 27.3336 0C25.1112 0 22.8888 0 20.6665 0Z" fill="black"/>
<path fill-rule="evenodd" clip-rule="evenodd" d="M20.6666 2.66797C18.4573 2.66797 16.6663 4.45883 16.6663 6.66797V16.0013H7.33232C5.12302 16.0013 3.33203 17.7922 3.33203 20.0013C3.33203 22.2104 5.12302 24.0013 7.33232 24.0013H16.6663V33.3346C16.6663 35.5438 18.4573 37.3346 20.6666 37.3346C22.8759 37.3346 24.6669 35.5438 24.6669 33.3346V24.0013H34.0009C36.2102 24.0013 38.0012 22.2104 38.0012 20.0013C38.0012 17.7922 36.2102 16.0013 34.0009 16.0013H24.6669V6.66797C24.6669 4.45883 22.8759 2.66797 20.6666 2.66797Z" fill="#FA9938"/>
</svg>
