<svg width="24" height="21" viewBox="0 0 24 21" fill="none" xmlns="http://www.w3.org/2000/svg">
<path fill-rule="evenodd" clip-rule="evenodd" d="M10.5 0.5C8.84315 0.5 7.5 1.84315 7.5 3.5V7.5H3.5C1.84315 7.5 0.5 8.84315 0.5 10.5C0.5 12.1569 1.84315 13.5 3.5 13.5H7.5V17.5C7.5 19.1569 8.84315 20.5 10.5 20.5H13.5H16.5V13.5H20.5H23.5V7.5H20.5H16.5V0.5H13.5H10.5ZM10.5 2.5C9.94772 2.5 9.5 2.94772 9.5 3.5V9.5H3.5C2.94772 9.5 2.5 9.94772 2.5 10.5C2.5 11.0523 2.94772 11.5 3.5 11.5H9.5V17.5C9.5 18.0523 9.94772 18.5 10.5 18.5C11.0523 18.5 11.5 18.0523 11.5 17.5V11.5H17.5C18.0523 11.5 18.5 11.0523 18.5 10.5C18.5 9.94771 18.0523 9.5 17.5 9.5H11.5V3.5C11.5 2.94772 11.0523 2.5 10.5 2.5Z" fill="black"/>
</svg>
