<svg width="24" height="20" viewBox="0 0 24 20" fill="none" xmlns="http://www.w3.org/2000/svg">
<path d="M10.3335 0C8.49255 0 7.00016 1.49239 7.00016 3.33333V6.66667H3.66683C1.82588 6.66667 0.333496 8.15905 0.333496 10C0.333496 11.841 1.82588 13.3333 3.66683 13.3333H7.00016V16.6667C7.00016 18.5076 8.49255 20 10.3335 20C11.4446 20 12.5557 20 13.6668 20C15.5078 20 17.0002 18.5076 17.0002 16.6667V13.3333H20.3335C22.1744 13.3333 23.6668 11.8409 23.6668 10C23.6668 8.15905 22.1744 6.66667 20.3335 6.66667H17.0002V3.33333C17.0002 1.49238 15.5078 0 13.6668 0C12.5557 0 11.4446 0 10.3335 0Z" fill="black"/>
<path fill-rule="evenodd" clip-rule="evenodd" d="M10.3337 1.33398C9.22909 1.33398 8.33366 2.22942 8.33366 3.33398V8.00065H3.66699C2.56242 8.00065 1.66699 8.89608 1.66699 10.0007C1.66699 11.1052 2.56242 12.0007 3.66699 12.0007H8.33366V16.6673C8.33366 17.7719 9.22909 18.6673 10.3337 18.6673C11.4382 18.6673 12.3337 17.7719 12.3337 16.6673V12.0007H17.0003C18.1049 12.0007 19.0003 11.1052 19.0003 10.0007C19.0003 8.89608 18.1049 8.00065 17.0003 8.00065H12.3337V3.33398C12.3337 2.22941 11.4382 1.33398 10.3337 1.33398Z" fill="white"/>
</svg>
