<svg width="24" height="21" viewBox="0 0 24 21" fill="none" xmlns="http://www.w3.org/2000/svg">
<path fill-rule="evenodd" clip-rule="evenodd" d="M0.5 18.5V20.5H23.5001V18.5C23.5001 14.8157 21.4093 11.6198 18.3495 10.0339C19.073 9.0427 19.5001 7.82123 19.5001 6.50003C19.5001 3.1863 16.8137 0.5 13.5 0.5H10.5001C7.18633 0.5 4.50003 3.1863 4.50003 6.50003C4.50003 7.82123 4.92706 9.0427 5.65064 10.0339C2.59081 11.6198 0.5 14.8157 0.5 18.5ZM14.5001 6.50003C14.5001 8.70918 12.7092 10.5001 10.5001 10.5001C8.2909 10.5001 6.50003 8.70918 6.50003 6.50003C6.50003 4.29087 8.2909 2.5 10.5001 2.5C12.7092 2.5 14.5001 4.29087 14.5001 6.50003ZM2.5 18.5C2.5 14.3416 5.87105 10.9705 10.0295 10.9705H10.9706C15.129 10.9705 18.5001 14.3416 18.5001 18.5H2.5Z" fill="black"/>
</svg>
