<svg width="25" height="20" viewBox="0 0 25 20" fill="none" xmlns="http://www.w3.org/2000/svg">
<path d="M10.9985 0C8.23711 0 5.99854 2.23858 5.99854 5C5.99854 6.58939 6.74013 8.00557 7.89618 8.9214C3.93777 9.8823 0.998535 13.4498 0.998535 17.7037C0.998535 18.9719 2.02662 20 3.29483 20H22.0356C23.3038 20 24.3319 18.9719 24.3319 17.7037C24.3319 13.4498 21.3926 9.8823 17.4342 8.9214C18.5903 8.00557 19.3319 6.58939 19.3319 5C19.3319 2.23858 17.0933 0 14.3319 0C14.2761 0 14.2205 0.000913193 14.1652 0.00272544C14.1099 0.000913193 14.0543 0 13.9985 0C13.9428 0 13.8872 0.000913193 13.8319 0.00272544C13.7765 0.000913193 13.721 0 13.6652 0C13.6094 0 13.5539 0.000913192 13.4985 0.00272544C13.4432 0.000913192 13.3876 0 13.3319 0C13.2761 0 13.2205 0.00091319 13.1652 0.00272544C13.1099 0.000913191 13.0543 0 12.9985 0C12.9428 0 12.8872 0.000913192 12.8319 0.00272544C12.7765 0.000913193 12.721 0 12.6652 0C12.6094 0 12.5539 0.000913197 12.4985 0.00272545C12.4432 0.000913197 12.3876 0 12.3319 0C12.2761 0 12.2205 0.000913195 12.1652 0.00272545C12.1099 0.000913195 12.0543 0 11.9985 0C11.9428 0 11.8872 0.000913185 11.8319 0.00272543C11.7765 0.00091319 11.721 0 11.6652 0C11.6094 0 11.5539 0.0009132 11.4985 0.00272546C11.4432 0.000913198 11.3876 0 11.3319 0C11.2761 0 11.2205 0.000913193 11.1652 0.00272544C11.1099 0.000913193 11.0543 0 10.9985 0Z" fill="black"/>
<path d="M10.9987 1.33398C8.97365 1.33398 7.33203 2.97561 7.33203 5.00065C7.33203 7.0257 8.97365 8.66732 10.9987 8.66732C13.0237 8.66732 14.6654 7.0257 14.6654 5.00065C14.6654 2.97561 13.0237 1.33398 10.9987 1.33398Z" fill="white"/>
<path d="M10.0357 10.0007C5.7811 10.0007 2.33203 13.4497 2.33203 17.7044C2.33203 18.2362 2.76316 18.6673 3.29499 18.6673H18.7024C19.2342 18.6673 19.6654 18.2362 19.6654 17.7044C19.6654 13.4497 16.2163 10.0007 11.9617 10.0007H10.0357Z" fill="white"/>
</svg>
