<svg width="44" height="41" viewBox="0 0 44 41" fill="none" xmlns="http://www.w3.org/2000/svg">
<path d="M0 38.4999V40.4999H44V38.4999C44 29.9385 38.3198 22.7037 30.5225 20.3586C33.2383 18.3556 35 15.1336 35 11.5001C35 5.42499 30.0751 0.500122 24 0.500122H20C13.9249 0.500122 9 5.42499 9 11.5001C9 15.1336 10.7617 18.3556 13.4775 20.3586C5.68016 22.7037 0 29.9385 0 38.4999Z" fill="black"/>
<path fill-rule="evenodd" clip-rule="evenodd" d="M20 20.5001C24.9706 20.5001 29 16.4707 29 11.5001C29 6.52956 24.9706 2.50012 20 2.50012C15.0294 2.50012 11 6.52956 11 11.5001C11 16.4707 15.0294 20.5001 20 20.5001ZM18.9412 21.5587C9.58482 21.5587 2 29.1435 2 38.4999H38C38 29.1435 30.4152 21.5587 21.0588 21.5587H18.9412Z" fill="#FA9938"/>
</svg>
