<svg width="25" height="31" viewBox="0 0 25 31" fill="none" xmlns="http://www.w3.org/2000/svg">
<path d="M3.88807 23.161C3.88399 23.1704 3.87998 23.18 3.87604 23.1895C3.62567 23.7974 3.50913 24.4354 3.50913 25.0831C3.50913 25.7311 3.62574 26.3666 3.86799 26.9731C3.87726 26.9963 3.88697 27.0194 3.8971 27.0422C4.15141 27.6156 4.50397 28.1311 4.95284 28.5738C5.40159 29.0165 5.92144 29.3616 6.49621 29.6096L6.5166 29.6183C7.14199 29.88 7.79978 30.0029 8.46943 30.0029C8.55165 30.0029 8.63365 30.0009 8.71537 29.997C8.79984 30.001 8.88454 30.0029 8.96943 30.0029C9.05165 30.0029 9.13365 30.0009 9.21537 29.997C9.29984 30.001 9.38454 30.0029 9.46943 30.0029C9.55165 30.0029 9.63365 30.0009 9.71538 29.997C9.79984 30.001 9.88454 30.0029 9.96943 30.0029C10.0517 30.0029 10.1336 30.0009 10.2154 29.997C10.2998 30.001 10.3845 30.0029 10.4694 30.0029C10.5517 30.0029 10.6336 30.0009 10.7154 29.997C10.7998 30.001 10.8845 30.0029 10.9694 30.0029C11.0517 30.0029 11.1336 30.0009 11.2154 29.997C11.2998 30.001 11.3845 30.0029 11.4694 30.0029C11.5517 30.0029 11.6336 30.0009 11.7154 29.997C11.7998 30.001 11.8845 30.0029 11.9694 30.0029C12.0517 30.0029 12.1336 30.0009 12.2154 29.997C12.2998 30.001 12.3845 30.0029 12.4694 30.0029C12.5517 30.0029 12.6336 30.0009 12.7154 29.997C12.7998 30.001 12.8845 30.0029 12.9694 30.0029C13.0517 30.0029 13.1336 30.0009 13.2154 29.997C13.2998 30.001 13.3845 30.0029 13.4694 30.0029C14.1319 30.0029 14.7794 29.8743 15.3927 29.6096C15.9675 29.3616 16.4874 29.0165 16.9361 28.5738C17.385 28.1311 17.7375 27.6156 17.9919 27.0422L18.0009 27.0216C18.2667 26.4035 18.3965 25.7511 18.3965 25.0831C18.3965 24.4191 18.2682 23.7674 17.9965 23.1507C17.8806 22.883 17.7435 22.6269 17.5847 22.3846C17.9033 22.0303 18.0971 21.5617 18.0971 21.0477C18.0971 20.3018 18.1374 19.7317 18.2023 19.3144C18.2703 18.9439 18.3724 18.6682 18.4845 18.4628C18.6054 18.2415 18.7777 18.0156 19.0224 17.788C19.3269 17.5049 19.74 17.1727 20.2787 16.7917C20.3028 16.7747 20.3265 16.7571 20.3497 16.7391C21.6496 15.7308 22.7 14.5953 23.4157 13.3106C24.1436 12.0038 24.5 10.5728 24.5 9.05656C24.5 7.68833 24.26 6.39409 23.7254 5.21797C23.2265 4.09671 22.5224 3.12279 21.6111 2.32388C20.7192 1.53217 19.6811 0.949335 18.5247 0.564533C17.384 0.184991 16.1824 0.00292969 14.9329 0.00292969C14.8462 0.00292969 14.7597 0.00368274 14.6735 0.00519431C14.5935 0.00368319 14.5133 0.00292969 14.4329 0.00292969C14.3462 0.00292969 14.2597 0.00368273 14.1735 0.00519431C14.0935 0.00368319 14.0133 0.00292969 13.9329 0.00292969C13.8462 0.00292969 13.7597 0.00368274 13.6735 0.00519431C13.5935 0.00368319 13.5133 0.00292969 13.4329 0.00292969C13.3462 0.00292969 13.2597 0.00368276 13.1735 0.00519437C13.0935 0.00368323 13.0133 0.00292969 12.9329 0.00292969C12.8462 0.00292969 12.7597 0.00368274 12.6735 0.00519431C12.5935 0.00368319 12.5133 0.00292969 12.4329 0.00292969C12.3462 0.00292969 12.2597 0.00368274 12.1735 0.00519431C12.0935 0.00368319 12.0133 0.00292969 11.9329 0.00292969C11.8462 0.00292969 11.7597 0.00368274 11.6735 0.00519433C11.5935 0.0036832 11.5133 0.00292969 11.4329 0.00292969C11.3462 0.00292969 11.2597 0.00368274 11.1735 0.00519431C11.0935 0.00368319 11.0133 0.00292969 10.9329 0.00292969C10.8462 0.00292969 10.7597 0.00368274 10.6735 0.00519431C10.5935 0.00368319 10.5133 0.00292969 10.4329 0.00292969C10.3462 0.00292969 10.2597 0.00368274 10.1735 0.00519431C10.0935 0.00368319 10.0133 0.00292969 9.93295 0.00292969C8.62988 0.00292969 7.38487 0.172871 6.21119 0.531317C5.02169 0.886952 3.9471 1.44573 3.0157 2.22086L3.00382 2.23082C2.06325 3.02602 1.33625 4.0138 0.813254 5.15704L0.808545 5.16741C0.274986 6.35153 0.0263575 7.67419 0.000345416 9.08531C-0.0189064 10.1297 0.768809 11.013 1.80858 11.113L7.09721 11.6215C7.2441 11.6356 7.39076 11.6334 7.53474 11.6155L7.59721 11.6215C7.7441 11.6356 7.89076 11.6334 8.03474 11.6155L8.06283 11.6182C7.97393 11.694 7.88016 11.7724 7.78137 11.8535C7.28956 12.195 6.84477 12.5369 6.45706 12.8798C6.03641 13.2409 5.65688 13.6341 5.33072 14.063C5.3213 14.0754 5.31203 14.0879 5.3029 14.1005C4.98186 14.5438 4.72011 15.0228 4.51659 15.5324C4.51247 15.5427 4.50843 15.5531 4.50448 15.5635C4.31535 16.0609 4.18026 16.5965 4.0859 17.1549C4.08367 17.1681 4.08157 17.1813 4.0796 17.1946C3.99994 17.7315 3.95059 18.3203 3.92636 18.9536C3.90296 19.5652 3.89164 20.2642 3.89164 21.0477C3.89164 21.5307 4.06282 21.9737 4.34783 22.3193C4.16833 22.5838 4.01524 22.8653 3.88807 23.161Z" fill="black"/>
<path d="M5.50912 25.0831C5.50912 24.6784 5.58119 24.3011 5.72532 23.9512C5.88054 23.5903 6.0912 23.2786 6.3573 23.0162C6.62339 22.7428 6.93383 22.5295 7.28863 22.3764C7.65451 22.2233 8.0481 22.1468 8.46942 22.1468C8.86856 22.1468 9.24553 22.2233 9.60032 22.3764C9.95511 22.5295 10.2656 22.7428 10.5317 23.0162C10.7977 23.2786 11.0084 23.5903 11.1636 23.9512C11.3188 24.3011 11.3965 24.6784 11.3965 25.0831C11.3965 25.4877 11.3188 25.8704 11.1636 26.2313C11.0084 26.5813 10.7977 26.8875 10.5317 27.1499C10.2656 27.4124 9.95511 27.6202 9.60032 27.7733C9.24553 27.9264 8.86856 28.0029 8.46942 28.0029C8.0481 28.0029 7.65451 27.9264 7.28863 27.7733C6.93383 27.6202 6.62339 27.4124 6.3573 27.1499C6.0912 26.8875 5.88054 26.5813 5.72532 26.2313C5.58119 25.8704 5.50912 25.4877 5.50912 25.0831ZM5.89163 21.0477C5.89163 20.2822 5.90272 19.6097 5.92489 19.0301C5.94707 18.4505 5.99142 17.9365 6.05794 17.4881C6.13555 17.0288 6.24088 16.6242 6.37393 16.2742C6.51806 15.9133 6.701 15.5798 6.92275 15.2736C7.15558 14.9674 7.4383 14.6721 7.77092 14.3878C8.10354 14.0925 8.50823 13.7808 8.98498 13.4528C9.49499 13.0372 9.91631 12.6599 10.2489 12.3209C10.5815 11.971 10.8421 11.6265 11.0306 11.2875C11.2191 10.9485 11.3521 10.5985 11.4297 10.2376C11.5073 9.87675 11.5461 9.47212 11.5461 9.02375C11.5461 8.37853 11.3798 7.85361 11.0472 7.44899C10.7257 7.04436 10.2877 6.84205 9.73337 6.84205C9.38966 6.84205 9.06813 6.88032 8.76878 6.95687C8.48051 7.03342 8.2255 7.17559 8.00376 7.38337C7.78201 7.59115 7.60461 7.87548 7.47157 8.23637C7.34961 8.59725 7.28863 9.06203 7.28863 9.63069L2 9.12217C2.02217 7.91923 2.23283 6.87485 2.63197 5.98905C3.0422 5.09231 3.59657 4.34867 4.29506 3.75813C5.00465 3.1676 5.83619 2.73016 6.7897 2.44583C7.75429 2.15056 8.80204 2.00293 9.93294 2.00293C10.9862 2.00293 11.973 2.15603 12.8932 2.46224C13.8135 2.76844 14.6118 3.22228 15.2881 3.82375C15.9755 4.42522 16.5132 5.16339 16.9013 6.03826C17.3004 6.91313 17.5 7.91923 17.5 9.05656C17.5 10.2486 17.2228 11.3422 16.6685 12.3373C16.1141 13.3325 15.2659 14.273 14.1239 15.1588C13.5363 15.5743 13.0485 15.9626 12.6604 16.3234C12.2724 16.6843 11.9619 17.078 11.7291 17.5045C11.4962 17.931 11.3299 18.4231 11.2302 18.9808C11.1415 19.5386 11.0971 20.2275 11.0971 21.0477H5.89163Z" fill="white"/>
</svg>
