<svg width="35" height="31" viewBox="0 0 35 31" fill="none" xmlns="http://www.w3.org/2000/svg">
<path d="M33.9805 19.2984C34.2755 18.1704 34.4245 17.0084 34.4245 15.8299C34.4245 13.9074 34.031 12.0414 33.2545 10.2834C32.5075 8.59293 31.441 7.07743 30.0845 5.77793C28.9265 4.66943 27.6 3.76093 26.141 3.07893C25.8035 2.92093 25.4435 2.84093 25.0705 2.84093C24.7695 2.84093 24.473 2.89343 24.1895 2.99743C24.095 3.03243 24.0055 3.07543 23.9195 3.12243C23.812 3.02593 23.699 2.93493 23.5745 2.85693L19.64 0.39243C19.2335 0.13793 18.766 0.00292969 18.288 0.00292969H13.288C12.5795 0.00292969 11.898 0.29993 11.418 0.81843C11.0695 1.19443 10.8475 1.66893 10.7775 2.16993C10.178 2.33043 9.5875 2.52793 9.0125 2.76043C7.2625 3.46943 5.6905 4.48493 4.34 5.77793C2.983 7.07743 1.9165 8.59293 1.17 10.2834C0.393498 12.0409 0 13.9074 0 15.8299C0 16.1524 0.0110007 16.4784 0.0335007 16.7994C0.0930007 17.6434 0.580998 18.3634 1.2745 18.7709C1.1625 19.0564 1.0915 19.3619 1.0725 19.6824L0.844997 23.5134C0.804497 24.1959 1.051 24.8729 1.52 25.3714C1.999 25.8794 2.675 26.1704 3.3755 26.1704C3.734 26.1704 4.086 26.0949 4.411 25.9499C5.746 27.2114 7.2935 28.2034 9.0125 28.8994C10.8205 29.6319 12.738 30.0029 14.712 30.0029H19.712C21.686 30.0029 23.6035 29.6319 25.4115 28.8994C26.282 28.5469 27.1185 28.1129 27.8985 27.6089C28.476 27.2359 28.8775 26.6349 29 25.9604C29.023 25.8344 29.026 25.7069 29.029 25.5799C29.3655 25.5379 29.6965 25.4429 30.0015 25.2954L33.5775 23.5669C34.4625 23.1394 35.0075 22.2674 34.9995 21.2924C34.993 20.4884 34.613 19.7609 33.9805 19.2984Z" fill="black"/>
<path fill-rule="evenodd" clip-rule="evenodd" d="M2.613 17.1243C2.3175 17.1508 2.049 16.9422 2.029 16.6592C2.0095 16.3842 2 16.1077 2 15.8297C2 14.1867 2.336 12.5927 2.9995 11.0907C3.64 9.64122 4.55651 8.33921 5.72351 7.2217C6.89052 6.1042 8.24952 5.22719 9.76353 4.61369C10.608 4.27169 11.48 4.02069 12.3735 3.86169C12.6425 3.81369 12.8345 3.58669 12.8145 3.32569L12.7555 2.54969C12.723 2.12918 13.2095 1.85569 13.5785 2.08669L17.5131 4.55119C17.8066 4.73469 17.8376 5.13419 17.5761 5.35719L14.0585 8.35821C13.7285 8.63971 13.2045 8.43671 13.1725 8.01571L13.1225 7.36221C13.098 7.0432 12.778 6.83121 12.453 6.90571C10.756 7.29621 9.19902 8.12671 7.93352 9.33872C6.12301 11.0722 5.12551 13.3772 5.12551 15.8297C5.12551 16.0172 5.13201 16.2042 5.14351 16.3897C5.15701 16.6057 5.03451 16.7987 4.84401 16.8882C4.61001 16.8367 4.37251 16.8012 4.132 16.8012C3.6295 16.8012 3.1545 16.9152 2.7295 17.1137L2.613 17.1243ZM26.9671 20.5133L27.6996 20.8533C28.0961 21.0373 28.1011 21.5758 27.7076 21.7658L24.1316 23.4938C23.5051 23.7968 22.7486 23.4483 22.6066 22.7908L21.7941 19.0243C21.7051 18.6108 22.1511 18.2787 22.5486 18.4633L23.1636 18.7488C23.4646 18.8883 23.8186 18.7298 23.9126 18.4228C24.3926 16.8547 24.4361 15.1457 23.9821 13.4307C23.7811 12.6737 23.4671 11.9442 23.0521 11.2722C22.0396 9.63322 20.6231 8.38922 18.9826 7.60671C18.7926 7.51571 18.6806 7.33571 18.6791 7.14671L18.9956 6.8772C19.5956 6.3647 19.9126 5.6387 19.8796 4.87469C20.0101 4.82669 20.1591 4.82669 20.2936 4.88969C21.5556 5.48019 22.6996 6.2627 23.7016 7.22221C24.8686 8.33971 25.7846 9.64122 26.4251 11.0912C27.0886 12.5922 27.4251 14.1867 27.4251 15.8292C27.4251 17.2237 27.1821 18.5838 26.7031 19.8813C26.6121 20.1278 26.7211 20.3993 26.9671 20.5133ZM21.8496 25.0933L21.9411 25.2168C22.1116 25.4468 22.0581 25.7708 21.8136 25.9283C21.1381 26.3648 20.4191 26.7383 19.6611 27.0453C18.0926 27.6803 16.4276 28.0023 14.7125 28.0023C12.9965 28.0023 11.3315 27.6803 9.76353 27.0453C8.24952 26.4323 6.89052 25.5543 5.72351 24.4373C5.48951 24.2133 5.26651 23.9823 5.05351 23.7443C4.87451 23.5443 4.57051 23.4988 4.34251 23.6463L3.673 24.0813C3.308 24.3178 2.817 24.0518 2.842 23.6308L3.0685 19.8003C3.1085 19.1303 3.803 18.6793 4.469 18.8913L8.28003 20.1018C8.69903 20.2353 8.77653 20.7698 8.41153 21.0068L7.84602 21.3733C7.57352 21.5503 7.53102 21.9188 7.75752 22.1473C7.81502 22.2058 7.87402 22.2633 7.93352 22.3208C9.74453 24.0543 12.1515 25.0093 14.7125 25.0093C16.6241 25.0093 18.4506 24.4768 20.0071 23.4853C20.1951 23.3653 20.4306 23.3688 20.6066 23.4803C20.8231 24.1493 21.2666 24.7098 21.8496 25.0933Z" fill="white"/>
</svg>
