<svg width="37" height="25" viewBox="0 0 37 25" fill="none" xmlns="http://www.w3.org/2000/svg">
<path d="M16.1973 0.76286C15.4115 1.11182 14.905 1.89096 14.905 2.75081V5.90435C6.90793 6.96795 0.738281 13.8148 0.738281 22.1027V22.7508C0.738281 23.6394 1.27882 24.4387 2.10354 24.7695C2.35828 24.8717 2.6243 24.9229 2.88844 24.9259H10.1132C10.6873 24.9194 11.2485 24.6857 11.6612 24.2541L13.8491 21.9661C14.1973 21.602 14.5626 21.2582 14.9432 20.9354C15.0749 21.6277 15.5377 22.2236 16.1973 22.5165C16.4736 22.6392 16.7662 22.7006 17.0572 22.7036H24.2331C24.7697 22.7091 25.3009 22.516 25.7145 22.1422L35.5478 13.2533C36.004 12.8409 36.2643 12.2547 36.2643 11.6397C36.2643 11.0247 36.004 10.4385 35.5478 10.0261L25.7145 1.13722C25.316 0.777065 24.8085 0.584627 24.292 0.575943H17.043C16.7567 0.580769 16.4691 0.642167 16.1973 0.76286Z" fill="black"/>
<path d="M26.9141 11.6406L17.0807 2.75172V7.93691C9.2567 7.93691 2.91406 14.2795 2.91406 22.1036V22.7517L5.10196 20.4637C8.22879 17.1938 12.5564 15.3443 17.0807 15.3443V20.5295L26.9141 11.6406Z" fill="white"/>
</svg>
