<svg width="39" height="30" viewBox="0 0 39 30" fill="none" xmlns="http://www.w3.org/2000/svg">
<path d="M37.2593 13.4663C36.7406 12.6182 35.806 12.0514 34.7411 12.0514V12.0194C36.4294 11.8198 37.691 10.6118 37.691 9.10151C37.691 8.85618 37.6443 8.31243 37.6408 8.28195C37.6123 8.04153 37.512 7.53957 37.5081 7.52482C36.5425 3.34045 31.7883 0.251953 25.8916 0.251953H20.9751C15.0769 0.251953 10.3213 3.34193 9.35764 7.52826C9.3542 7.54301 9.2539 8.04301 9.22588 8.28342C9.22244 8.3139 9.17573 8.85668 9.17573 9.10151V10.5882C8.75144 10.2672 8.2421 10.0848 7.70081 10.0848H2.78438C2.12755 10.0848 1.51054 10.3405 1.04594 10.8046C0.581828 11.2692 0.326172 11.8867 0.326172 12.543C0.326172 13.1512 0.545445 13.7259 0.947116 14.1762C0.558227 14.6758 0.326172 15.3036 0.326172 15.9845V16.9678C0.326172 17.6939 0.72391 18.3213 1.30946 18.6615V23.8508C1.30946 25.1325 2.13197 26.2225 3.27603 26.6286V26.9235C3.27603 28.4825 4.54446 29.7505 6.10297 29.7505H11.0194C12.5784 29.7505 13.8463 28.4825 13.8463 26.9235V26.8006H20.4053C21.1659 28.5347 22.897 29.7505 24.9083 29.7505H29.8247C31.8365 29.7505 33.5676 28.5347 34.3277 26.8006H34.7411C36.368 26.8006 37.691 25.4776 37.691 23.8508V18.6615C38.2765 18.3213 38.6743 17.6939 38.6743 16.9678V15.9845C38.6743 14.9201 38.1074 13.985 37.2593 13.4663Z" fill="black"/>
<path fill-rule="evenodd" clip-rule="evenodd" d="M21.4672 15.0015H21.9589C21.9589 14.4587 22.3994 14.0182 22.9422 14.0182H29.8252C30.368 14.0182 30.8085 14.4587 30.8085 15.0015C31.3512 15.0015 31.7918 15.442 31.7918 15.9848V16.9681H2.29309V15.9848C2.29309 15.442 2.73361 15.0015 3.27638 15.0015H4.54777L2.43714 12.8909C2.24491 12.6986 2.24491 12.3879 2.43714 12.1957C2.62938 12.0035 2.94059 12.0035 3.13233 12.1957L4.95535 14.0182H11.1427C11.6855 14.0182 12.126 14.4587 12.126 15.0015H13.1093C13.1093 14.4587 13.5498 14.0182 14.0926 14.0182H19.009C19.5518 14.0182 19.9923 14.4587 19.9923 15.0015H20.4839V9.82989C20.2229 9.98672 19.8802 10.0851 19.5006 10.0851C18.686 10.0851 18.0257 9.64455 18.0257 9.10177C18.0257 5.30038 19.3468 2.21875 20.9756 2.21875C21.2814 2.21875 21.5759 2.32691 21.8527 2.52799C22.0375 2.66221 22.2145 2.83773 22.3817 3.04963C22.6324 3.36723 22.861 3.76743 23.0616 4.23498C23.5955 5.48032 23.9254 7.20107 23.9254 9.10177C23.9254 9.64455 23.2652 10.0851 22.4505 10.0851C22.071 10.0851 21.7288 9.98672 21.4672 9.82989V15.0015ZM12.6176 10.0851C11.803 10.0851 11.1427 9.64455 11.1427 9.10177C11.1427 5.8166 14.4328 3.07372 18.831 2.38787C17.6526 3.84511 17.0424 6.48131 17.0424 9.10177C17.0424 9.64455 16.3821 10.0851 15.5675 10.0851C15.0208 10.0851 14.5434 9.88644 14.2882 9.59194C14.1815 9.46805 14.0036 9.46805 13.8969 9.59194C13.6422 9.88644 13.1648 10.0851 12.6176 10.0851ZM24.9087 9.10177C24.9087 6.48131 24.2986 3.84511 23.1206 2.38787C27.5184 3.07372 30.8085 5.8166 30.8085 9.10177C30.8085 9.64455 30.1482 10.0851 29.3335 10.0851C28.7868 10.0851 28.3094 9.88644 28.0543 9.59194C27.9476 9.46805 27.7696 9.46805 27.6629 9.59194C27.4082 9.88644 26.9309 10.0851 26.3837 10.0851C25.569 10.0851 24.9087 9.64455 24.9087 9.10177ZM24.9087 21.8845C26.538 21.8845 27.8586 23.2056 27.8586 24.8344C27.8586 26.4637 26.538 27.7838 24.9087 27.7838C23.2799 27.7838 21.9589 26.4637 21.9589 24.8344C21.9589 23.2056 23.2799 21.8845 24.9087 21.8845ZM24.9087 25.8177C25.4515 25.8177 25.892 25.3772 25.892 24.8344C25.892 24.2916 25.4515 23.8511 24.9087 23.8511C24.366 23.8511 23.9254 24.2916 23.9254 24.8344C23.9254 25.3772 24.366 25.8177 24.9087 25.8177ZM3.27638 17.9514H30.8085V23.8511C30.8085 24.3939 30.368 24.8344 29.8252 24.8344H28.8419C28.8419 22.6657 27.0774 20.9012 24.9087 20.9012C22.7401 20.9012 20.9756 22.6657 20.9756 24.8344H6.96371V26.9239C6.96371 27.3988 6.57876 27.7838 6.10334 27.7838C5.62841 27.7838 5.24296 27.3988 5.24296 26.9239V24.8344H4.25967C3.71689 24.8344 3.27638 24.3939 3.27638 23.8511V17.9514Z" fill="white"/>
</svg>
