<svg width="33" height="26" viewBox="0 0 33 26" fill="none" xmlns="http://www.w3.org/2000/svg">
<path d="M31.5508 11.4511C31.1112 10.7324 30.3192 10.252 29.4167 10.252V10.2249C30.8475 10.0557 31.9167 9.03195 31.9167 7.75195C31.9167 7.54404 31.8771 7.0832 31.8742 7.05737C31.85 6.85362 31.765 6.4282 31.7617 6.4157C30.9433 2.86945 26.9142 0.251953 21.9167 0.251953H17.75C12.7512 0.251953 8.72083 2.8707 7.90417 6.41862C7.90125 6.43112 7.81625 6.85487 7.7925 7.05862C7.78958 7.08445 7.75 7.54445 7.75 7.75195V9.01195C7.39042 8.73987 6.95875 8.58529 6.5 8.58529H2.33333C1.77667 8.58529 1.25375 8.80195 0.860002 9.19529C0.466669 9.58904 0.25 10.1124 0.25 10.6686C0.25 11.184 0.435834 11.6711 0.77625 12.0528C0.446667 12.4761 0.25 13.0082 0.25 13.5853V14.4186C0.25 15.034 0.587083 15.5657 1.08333 15.854V20.252C1.08333 21.3382 1.78042 22.262 2.75 22.6061V22.8561C2.75 24.1774 3.825 25.252 5.14583 25.252H9.3125C10.6337 25.252 11.7083 24.1774 11.7083 22.8561V22.752H17.2671C17.9117 24.2215 19.3787 25.252 21.0833 25.252H25.25C26.955 25.252 28.4221 24.2215 29.0662 22.752H29.4167C30.7954 22.752 31.9167 21.6307 31.9167 20.252V15.854C32.4129 15.5657 32.75 15.034 32.75 14.4186V13.5853C32.75 12.6832 32.2696 11.8907 31.5508 11.4511Z" fill="black"/>
<path fill-rule="evenodd" clip-rule="evenodd" d="M18.1672 12.7523H18.5838C18.5838 12.2923 18.9572 11.919 19.4172 11.919H25.2505C25.7105 11.919 26.0839 12.2923 26.0839 12.7523C26.5439 12.7523 26.9172 13.1257 26.9172 13.5857V14.419H1.9171V13.5857C1.9171 13.1257 2.29043 12.7523 2.75043 12.7523H3.82794L2.03918 10.9636C1.87626 10.8006 1.87626 10.5373 2.03918 10.3744C2.2021 10.2115 2.46585 10.2115 2.62835 10.3744L4.17336 11.919H9.41713C9.87713 11.919 10.2505 12.2923 10.2505 12.7523H11.0838C11.0838 12.2923 11.4571 11.919 11.9171 11.919H16.0838C16.5438 11.919 16.9172 12.2923 16.9172 12.7523H17.3338V8.36938C17.1126 8.5023 16.8222 8.58564 16.5005 8.58564C15.8101 8.58564 15.2505 8.2123 15.2505 7.7523C15.2505 4.53062 16.3701 1.91895 17.7505 1.91895C18.0097 1.91895 18.2592 2.01061 18.4938 2.18103C18.6505 2.29478 18.8005 2.44353 18.9422 2.62312C19.1547 2.89228 19.3484 3.23145 19.5184 3.6277C19.9709 4.68312 20.2505 6.14146 20.2505 7.7523C20.2505 8.2123 19.6909 8.58564 19.0005 8.58564C18.6788 8.58564 18.3888 8.5023 18.1672 8.36938V12.7523ZM10.6671 8.58564C9.97671 8.58564 9.41713 8.2123 9.41713 7.7523C9.41713 4.96812 12.2055 2.64353 15.933 2.06228C14.9342 3.29728 14.4171 5.53146 14.4171 7.7523C14.4171 8.2123 13.8576 8.58564 13.1671 8.58564C12.7038 8.58564 12.2992 8.41731 12.083 8.16773C11.9926 8.06272 11.8417 8.06272 11.7513 8.16773C11.5355 8.41731 11.1309 8.58564 10.6671 8.58564ZM21.0838 7.7523C21.0838 5.53146 20.5668 3.29728 19.5684 2.06228C23.2955 2.64353 26.0839 4.96812 26.0839 7.7523C26.0839 8.2123 25.5243 8.58564 24.8339 8.58564C24.3705 8.58564 23.9659 8.41731 23.7497 8.16773C23.6593 8.06272 23.5084 8.06272 23.418 8.16773C23.2022 8.41731 22.7976 8.58564 22.3338 8.58564C21.6434 8.58564 21.0838 8.2123 21.0838 7.7523ZM21.0838 18.5857C22.4647 18.5857 23.5839 19.7053 23.5839 21.0857C23.5839 22.4665 22.4647 23.5853 21.0838 23.5853C19.7034 23.5853 18.5838 22.4665 18.5838 21.0857C18.5838 19.7053 19.7034 18.5857 21.0838 18.5857ZM21.0838 21.919C21.5438 21.919 21.9172 21.5457 21.9172 21.0857C21.9172 20.6257 21.5438 20.2524 21.0838 20.2524C20.6238 20.2524 20.2505 20.6257 20.2505 21.0857C20.2505 21.5457 20.6238 21.919 21.0838 21.919ZM2.75043 15.2523H26.0839V20.2524C26.0839 20.7124 25.7105 21.0857 25.2505 21.0857H24.4172C24.4172 19.2478 22.9218 17.7523 21.0838 17.7523C19.2459 17.7523 17.7505 19.2478 17.7505 21.0857H5.87545V22.8565C5.87545 23.259 5.5492 23.5853 5.14628 23.5853C4.74378 23.5853 4.41711 23.259 4.41711 22.8565V21.0857H3.58377C3.12377 21.0857 2.75043 20.7124 2.75043 20.2524V15.2523Z" fill="#4DB882"/>
</svg>
