<svg width="29" height="32" viewBox="0 0 29 32" fill="none" xmlns="http://www.w3.org/2000/svg">
<path fill-rule="evenodd" clip-rule="evenodd" d="M28.5 21.5714L28.5 12.075C28.5 9.02501 27.2884 6.09994 25.1317 3.94328C22.975 1.78661 20.05 0.575012 17 0.575012H12C8.95 0.575012 6.02493 1.78661 3.86827 3.94328C1.7116 6.09994 0.5 9.02501 0.5 12.075L0.500028 21.5714H1.56876V30.2538H9.40001V28.8151H10.6232C11.5504 30.3791 13.2544 31.4278 15.206 31.4278H20.206C22.1576 31.4278 23.8616 30.3791 24.7888 28.8151H27.55V21.5714H28.5ZM21.5 12.075C21.5 9.55544 20.4991 7.13909 18.7175 5.35749C16.9359 3.5759 14.5195 2.57501 12 2.57501C9.48043 2.57501 7.06407 3.5759 5.28248 5.35749C3.50089 7.13908 2.5 9.55544 2.5 12.075L11.5 12.075V16.7215H2.50003V19.5714H3.56876V25.6413V26.8151V28.2538H4.4V26.8151H11.9575C12.2836 28.3092 13.6141 29.4278 15.206 29.4278C16.7978 29.4278 18.1284 28.3092 18.4545 26.8151H20.55V19.5714H21.5V16.7215H12.5V12.075H21.5ZM16.3131 26.2688C16.3206 26.2317 16.3265 26.194 16.3304 26.1557C16.3344 26.1165 16.3364 26.0769 16.3364 26.0367C16.3364 25.3999 15.8202 24.8836 15.1834 24.8836C14.6076 24.8836 14.1304 25.3057 14.0442 25.8574C14.0351 25.9157 14.0304 25.9755 14.0304 26.0364C14.0304 26.6732 14.5466 27.1894 15.1834 27.1894C15.7406 27.1894 16.2055 26.7942 16.3131 26.2688Z" fill="black"/>
<path fill-rule="evenodd" clip-rule="evenodd" d="M18.7175 5.35749C20.4991 7.13909 21.5 9.55544 21.5 12.075H12.5V16.7215H21.5V19.5714H20.55V26.8151H18.4545C18.1284 28.3092 16.7978 29.4278 15.206 29.4278C13.6141 29.4278 12.2836 28.3092 11.9575 26.8151H4.4V28.2538H3.56876V26.8151V25.6413V19.5714H2.50003V16.7215H11.5V12.075L2.5 12.075C2.5 9.55544 3.50089 7.13908 5.28248 5.35749C7.06407 3.5759 9.48043 2.57501 12 2.57501C14.5195 2.57501 16.9359 3.5759 18.7175 5.35749ZM16.3304 26.1557C16.3265 26.194 16.3206 26.2317 16.3131 26.2688C16.2055 26.7942 15.7406 27.1894 15.1834 27.1894C14.5466 27.1894 14.0304 26.6732 14.0304 26.0364C14.0304 25.9755 14.0351 25.9157 14.0442 25.8574C14.1304 25.3057 14.6076 24.8836 15.1834 24.8836C15.8202 24.8836 16.3364 25.3999 16.3364 26.0367C16.3364 26.0769 16.3344 26.1165 16.3304 26.1557Z" fill="#FB9C37"/>
</svg>
