<svg width="40" height="40" viewBox="0 0 40 40" fill="none" xmlns="http://www.w3.org/2000/svg">
<path d="M27.6512 18.44V16.3838H39.3818V14.3838C39.3818 10.5694 37.8665 6.91116 35.1693 4.21396C32.4721 1.51675 28.8139 0.0014801 24.9995 0.0014801H14.9995C11.1851 0.0014801 7.52687 1.51675 4.82967 4.21395C2.13246 6.91116 0.617188 10.5694 0.617188 14.3838V16.3838L12.3478 16.3838V18.44H0.617224V26.1547H2.01021V39.0015H17.0937V38.6506C17.7463 38.8779 18.4477 39.0015 19.1782 39.0015H29.1782C31.6211 39.0015 33.7382 37.6198 34.7952 35.5961H38.1436V26.1547H39.3818V18.44H27.6512Z" fill="black"/>
<path fill-rule="evenodd" clip-rule="evenodd" d="M23.7551 5.62817C26.0772 7.9503 27.3818 11.0998 27.3818 14.3838H15.6512V20.44H27.3818V24.1547H26.1436V33.5961H23.4123C22.9873 35.5434 21.253 37.0015 19.1782 37.0015C17.1034 37.0015 15.3691 35.5434 14.9441 33.5961H5.09366V37.0015H4.01021V33.5961V32.0661V24.1547H2.61722V20.44H14.3478V14.3838L2.61719 14.3838C2.61719 11.0998 3.92175 7.9503 6.24388 5.62817C8.56601 3.30604 11.7155 2.00148 14.9995 2.00148C18.2835 2.00148 21.433 3.30604 23.7551 5.62817ZM20.6437 32.7365C20.6386 32.7864 20.631 32.8356 20.6211 32.884C20.481 33.5688 19.8751 34.084 19.1488 34.084C18.3188 34.084 17.6459 33.4111 17.6459 32.5811C17.6459 32.5017 17.6521 32.4238 17.6639 32.3478C17.7762 31.6287 18.3982 31.0786 19.1488 31.0786C19.9788 31.0786 20.6516 31.7515 20.6516 32.5815C20.6516 32.6338 20.649 32.6856 20.6437 32.7365Z" fill="#4DB882"/>
</svg>
