<svg width="30" height="36" viewBox="0 0 30 36" fill="none" xmlns="http://www.w3.org/2000/svg">
<path fill-rule="evenodd" clip-rule="evenodd" d="M30 17.317H19.1063V14.8049H30V13.2489C30 9.7865 28.6245 6.46592 26.1763 4.01764C23.728 1.56937 20.4074 0.193939 16.945 0.193939H13.0549C9.59256 0.193939 6.27198 1.56937 3.82371 4.01764C1.37543 6.46592 0 9.7865 0 13.2489V14.8049L10.8937 14.8049V17.317H3.4038e-05V23.8787H1.29364V35.809H9.30192V32.6466H11.9051C12.806 34.5175 14.7187 35.809 16.9355 35.809H20.8256C23.0425 35.809 24.9551 34.5175 25.856 32.6466H28.8501V23.8787H30V17.317ZM24.5545 13.2514C24.5545 10.2017 23.343 7.27695 21.1865 5.12049C19.0301 2.96402 16.1053 1.75253 13.0556 1.75253C10.0059 1.75253 7.08106 2.96402 4.9246 5.12049C2.76813 7.27695 1.55664 10.2017 1.55664 13.2514L12.4504 13.2514V18.8756H1.55667V22.3253H2.85028V29.6723V31.0931V34.2556H3.85643V31.0931H13.0041C13.3988 32.9015 15.0094 34.2556 16.9362 34.2556C18.863 34.2556 20.4735 32.9015 20.8682 31.0931H23.4046V22.3253H24.5545V18.8756H13.6608V13.2514H24.5545ZM18.2762 30.4318C18.2853 30.3869 18.2924 30.3412 18.2971 30.2949C18.302 30.2475 18.3045 30.1995 18.3045 30.1509C18.3045 29.3801 17.6796 28.7552 16.9088 28.7552C16.2118 28.7552 15.6342 29.2661 15.5299 29.9338C15.5189 30.0045 15.5132 30.0768 15.5132 30.1505C15.5132 30.9213 16.1381 31.5462 16.9089 31.5462C17.5833 31.5462 18.146 31.0678 18.2762 30.4318Z" fill="black"/>
</svg>
