<svg width="43" height="33" viewBox="0 0 43 33" fill="none" xmlns="http://www.w3.org/2000/svg">
<path d="M40.9169 14.6669C40.343 13.7286 39.3089 13.1014 38.1307 13.1014V13.066C39.9987 12.8452 41.3945 11.5087 41.3945 9.83762C41.3945 9.56619 41.3428 8.96457 41.339 8.93085C41.3074 8.66485 41.1965 8.10947 41.1921 8.09315C40.1238 3.46353 34.8637 0.0463867 28.3395 0.0463867H22.8999C16.3741 0.0463867 11.1124 3.46516 10.0462 8.09696C10.0424 8.11328 9.93143 8.66648 9.90043 8.93248C9.89662 8.9662 9.84494 9.56673 9.84494 9.83762V11.4826C9.37551 11.1273 8.81197 10.9255 8.21307 10.9255H2.7735C2.04677 10.9255 1.36411 11.2084 0.850067 11.7219C0.336571 12.2359 0.0537109 12.9191 0.0537109 13.6453C0.0537109 14.3182 0.296316 14.9541 0.740729 15.4524C0.310459 16.005 0.0537109 16.6996 0.0537109 17.453V18.5409C0.0537109 19.3444 0.493773 20.0385 1.14163 20.4149V26.1563C1.14163 27.5744 2.05167 28.7804 3.31746 29.2297V29.5561C3.31746 31.281 4.72087 32.6838 6.44521 32.6838H11.8848C13.6097 32.6838 15.0125 31.281 15.0125 29.5561V29.4201H22.2695C23.111 31.3386 25.0263 32.6838 27.2516 32.6838H32.6912C34.917 32.6838 36.8323 31.3386 37.6733 29.4201H38.1307C39.9307 29.4201 41.3945 27.9563 41.3945 26.1563V20.4149C42.0423 20.0385 42.4824 19.3444 42.4824 18.5409V17.453C42.4824 16.2754 41.8552 15.2408 40.9169 14.6669Z" fill="black"/>
<path fill-rule="evenodd" clip-rule="evenodd" d="M23.4445 16.3651H23.9885C23.9885 15.7646 24.4759 15.2772 25.0764 15.2772H32.6919C33.2924 15.2772 33.7798 15.7646 33.7798 16.3651C34.3803 16.3651 34.8677 16.8525 34.8677 17.453V18.541H2.23012V17.453C2.23012 16.8525 2.7175 16.3651 3.31804 16.3651H4.72472L2.3895 14.0299C2.17681 13.8172 2.17681 13.4734 2.3895 13.2607C2.60218 13.0481 2.94651 13.0481 3.15866 13.2607L5.17566 15.2772H12.0214C12.6219 15.2772 13.1093 15.7646 13.1093 16.3651H14.1972C14.1972 15.7646 14.6846 15.2772 15.2852 15.2772H20.7248C21.3253 15.2772 21.8127 15.7646 21.8127 16.3651H22.3566V10.6432C22.0678 10.8167 21.6886 10.9255 21.2687 10.9255C20.3674 10.9255 19.6368 10.4381 19.6368 9.83761C19.6368 5.63171 21.0985 2.22217 22.9006 2.22217C23.2389 2.22217 23.5648 2.34184 23.871 2.56432C24.0755 2.71282 24.2714 2.90701 24.4563 3.14146C24.7337 3.49286 24.9867 3.93564 25.2086 4.45295C25.7993 5.8308 26.1643 7.73466 26.1643 9.83761C26.1643 10.4381 25.4338 10.9255 24.5325 10.9255C24.1125 10.9255 23.7339 10.8167 23.4445 10.6432V16.3651ZM13.6533 10.9255C12.7519 10.9255 12.0214 10.4381 12.0214 9.83761C12.0214 6.20287 15.6616 3.16811 20.5278 2.40929C19.224 4.02158 18.5489 6.9383 18.5489 9.83761C18.5489 10.4381 17.8184 10.9255 16.917 10.9255C16.3121 10.9255 15.784 10.7058 15.5016 10.3799C15.3836 10.2429 15.1867 10.2429 15.0687 10.3799C14.7869 10.7058 14.2587 10.9255 13.6533 10.9255ZM27.2523 9.83761C27.2523 6.9383 26.5772 4.02158 25.2739 2.40929C30.1396 3.16811 33.7798 6.20287 33.7798 9.83761C33.7798 10.4381 33.0492 10.9255 32.1479 10.9255C31.543 10.9255 31.0148 10.7058 30.7325 10.3799C30.6145 10.2429 30.4176 10.2429 30.2995 10.3799C30.0178 10.7058 29.4896 10.9255 28.8841 10.9255C27.9828 10.9255 27.2523 10.4381 27.2523 9.83761ZM27.2523 23.9806C29.055 23.9806 30.516 25.4422 30.516 27.2443C30.516 29.047 29.055 30.5075 27.2523 30.5075C25.4501 30.5075 23.9885 29.047 23.9885 27.2443C23.9885 25.4422 25.4501 23.9806 27.2523 23.9806ZM27.2523 28.3322C27.8528 28.3322 28.3402 27.8449 28.3402 27.2443C28.3402 26.6438 27.8528 26.1564 27.2523 26.1564C26.6517 26.1564 26.1643 26.6438 26.1643 27.2443C26.1643 27.8449 26.6517 28.3322 27.2523 28.3322ZM3.31804 19.6289H33.7798V26.1564C33.7798 26.7569 33.2924 27.2443 32.6919 27.2443H31.6039C31.6039 24.8449 29.6517 22.8926 27.2523 22.8926C24.8529 22.8926 22.9006 24.8449 22.9006 27.2443H7.39773V29.5561C7.39773 30.0816 6.97181 30.5075 6.44581 30.5075C5.92034 30.5075 5.49388 30.0816 5.49388 29.5561V27.2443H4.40596C3.80542 27.2443 3.31804 26.7569 3.31804 26.1564V19.6289Z" fill="#4DB882"/>
</svg>
