<svg width="70" height="60" viewBox="0 0 70 60" fill="none" xmlns="http://www.w3.org/2000/svg">
<path fill-rule="evenodd" clip-rule="evenodd" d="M30.0073 0H39.9673C56.2582 0 69.7102 13.256 69.9542 29.5499C70.2022 46.0898 56.9472 59.7488 40.4073 59.9968C40.2553 59.9988 30.1433 59.9998 29.9913 59.9998C13.7004 59.9998 0.247431 46.7438 0.003432 30.4499C-0.244567 13.91 13.0094 0.252001 29.5503 0.0040016C29.7013 0.00100161 29.8553 0 30.0073 0ZM30.3895 55.997C44.7465 55.782 56.2115 43.967 55.9965 29.61C55.7815 15.253 43.9675 3.78797 29.6095 4.00297C15.2515 4.21798 3.78749 16.032 4.00249 30.389C4.21749 44.748 16.0315 56.213 30.3895 55.997ZM34.0505 46H26.8195V42.307C26.0355 42.072 25.3055 41.766 24.6305 41.386C23.9555 41.006 23.3565 40.538 22.8335 39.983H18.9995V33.386H26.4485C26.4485 33.912 26.5365 34.391 26.7105 34.821C26.8845 35.253 27.1385 35.625 27.4725 35.939C27.8065 36.254 28.2165 36.498 28.7035 36.674C29.1905 36.849 29.7525 36.937 30.3915 36.937C31.1465 36.937 31.7205 36.783 32.1125 36.477C32.5045 36.17 32.7005 35.768 32.7005 35.271C32.7005 35.037 32.6285 34.821 32.4825 34.624C32.3375 34.427 32.1485 34.248 31.9165 34.088C31.6845 33.927 31.4195 33.784 31.1215 33.66C30.8235 33.536 30.5295 33.43 30.2385 33.343L26.1875 32.093C25.3745 31.845 24.6085 31.527 23.8895 31.14C23.1715 30.753 22.5425 30.274 22.0055 29.704C21.4685 29.135 21.0435 28.4589 20.7315 27.6769C20.4195 26.8959 20.2625 25.985 20.2625 24.948C20.2625 23.926 20.4225 23.009 20.7425 22.198C21.0615 21.387 21.5115 20.6819 22.0925 20.0829C22.6735 19.4829 23.3665 18.9909 24.1735 18.6039C24.9785 18.2169 25.8615 17.928 26.8195 17.738V14H34.0505V18.11C34.6605 18.315 35.2195 18.5489 35.7285 18.8119C36.2365 19.0749 36.6865 19.359 37.0785 19.666H40.9995V26.264H33.5495C33.5355 25.723 33.4485 25.259 33.2885 24.872C33.1295 24.4839 32.8965 24.152 32.5915 23.874C32.2865 23.597 31.9165 23.378 31.4805 23.217C31.0455 23.057 30.5445 22.976 29.9775 22.976C29.2665 22.976 28.7175 23.107 28.3335 23.37C27.9485 23.634 27.7565 23.9989 27.7565 24.4659C27.7565 24.7289 27.8365 24.9589 27.9955 25.1559C28.1555 25.3539 28.3735 25.536 28.6495 25.704C28.9245 25.872 29.2515 26.026 29.6295 26.165C30.0075 26.304 30.4055 26.438 30.8275 26.57L34.7045 27.819C36.6505 28.433 38.0885 29.291 39.0175 30.395C39.9465 31.498 40.4115 32.934 40.4115 34.701C40.4115 35.637 40.2625 36.506 39.9655 37.31C39.6675 38.113 39.2425 38.844 38.6905 39.501C38.1385 40.158 37.4705 40.725 36.6865 41.199C35.9025 41.674 35.0245 42.051 34.0505 42.328V46Z" fill="black"/>
</svg>
