<svg width="70" height="60" viewBox="0 0 70 60" fill="none" xmlns="http://www.w3.org/2000/svg">
<path d="M39.9673 0H30.0073C29.8553 0 29.7013 0.00100161 29.5503 0.0040016C13.0094 0.252001 -0.244575 13.91 0.00342432 30.4499C0.247423 46.7438 13.7004 59.9998 29.9913 59.9998C30.1433 59.9998 40.2553 59.9988 40.4073 59.9968C56.9472 59.7488 70.2022 46.0898 69.9542 29.5499C69.7102 13.256 56.2582 0 39.9673 0Z" fill="black"/>
<path d="M55.9965 29.61C56.2115 43.967 44.7465 55.782 30.3895 55.997C16.0315 56.213 4.21749 44.748 4.00249 30.389C3.78749 16.032 15.2515 4.21798 29.6095 4.00298C43.9675 3.78797 55.7815 15.253 55.9965 29.61ZM26.8195 46H34.0505V42.328C35.0245 42.051 35.9025 41.674 36.6865 41.199C37.4705 40.725 38.1385 40.158 38.6905 39.501C39.2425 38.844 39.6675 38.113 39.9655 37.31C40.2625 36.506 40.4115 35.637 40.4115 34.701C40.4115 32.934 39.9465 31.498 39.0175 30.395C38.0885 29.291 36.6505 28.433 34.7045 27.819L30.8275 26.5699C30.4055 26.4379 30.0075 26.304 29.6295 26.165C29.2515 26.026 28.9245 25.872 28.6495 25.704C28.3735 25.536 28.1555 25.3539 27.9955 25.1559C27.8365 24.9589 27.7565 24.7289 27.7565 24.4659C27.7565 23.9989 27.9485 23.634 28.3335 23.37C28.7175 23.107 29.2665 22.976 29.9775 22.976C30.5445 22.976 31.0455 23.057 31.4805 23.217C31.9165 23.378 32.2865 23.597 32.5915 23.874C32.8965 24.152 33.1295 24.484 33.2885 24.872C33.4485 25.259 33.5355 25.723 33.5495 26.264H40.9995V19.666H37.0785C36.6865 19.359 36.2365 19.0749 35.7285 18.8119C35.2195 18.5489 34.6605 18.315 34.0505 18.11V14H26.8195V17.738C25.8615 17.928 24.9785 18.2169 24.1735 18.6039C23.3665 18.9909 22.6735 19.4829 22.0925 20.0829C21.5115 20.6819 21.0615 21.387 20.7425 22.198C20.4225 23.009 20.2625 23.926 20.2625 24.948C20.2625 25.985 20.4195 26.8959 20.7315 27.6769C21.0435 28.4589 21.4685 29.135 22.0055 29.704C22.5425 30.274 23.1715 30.753 23.8895 31.14C24.6085 31.527 25.3745 31.845 26.1875 32.093L30.2385 33.343C30.5295 33.43 30.8235 33.536 31.1215 33.66C31.4195 33.784 31.6845 33.927 31.9165 34.088C32.1485 34.248 32.3375 34.427 32.4825 34.624C32.6285 34.821 32.7005 35.037 32.7005 35.271C32.7005 35.768 32.5045 36.17 32.1125 36.477C31.7205 36.783 31.1465 36.937 30.3915 36.937C29.7525 36.937 29.1905 36.849 28.7035 36.674C28.2165 36.498 27.8065 36.254 27.4725 35.939C27.1385 35.625 26.8845 35.253 26.7105 34.821C26.5365 34.391 26.4485 33.912 26.4485 33.386H18.9995V39.983H22.8335C23.3565 40.538 23.9555 41.006 24.6305 41.386C25.3055 41.766 26.0355 42.072 26.8195 42.307V46Z" fill="#4DB882"/>
</svg>
