<svg width="45" height="54" viewBox="0 0 45 54" fill="none" xmlns="http://www.w3.org/2000/svg">
<path d="M28.6594 25.9747H45V35.8173H43.2751V48.969H38.7841C37.4327 51.7754 34.5637 53.7127 31.2384 53.7127C31.2384 53.7127 26.4297 53.7127 25.4033 53.7127C22.0781 53.7127 19.209 51.7754 17.8577 48.969H13.9529V53.7127H1.94046V35.8173H5.1057e-05V25.9747H16.3406V22.2066L0 22.2066V19.8725C0 14.6789 2.06314 9.69807 5.73556 6.02566C9.40798 2.35324 14.3888 0.2901 19.5824 0.2901C20.565 0.2901 25.4175 0.2901 25.4175 0.2901C30.6111 0.2901 35.592 2.35324 39.2644 6.02566C42.9368 9.69807 44.9999 14.6789 44.9999 19.8725V22.2066H28.6594V25.9747Z" fill="black"/>
<path fill-rule="evenodd" clip-rule="evenodd" d="M31.7769 7.67651C35.0116 10.9112 36.8288 15.2984 36.8288 19.8729H20.4883V28.3092H36.8288V33.4837H35.104V46.6354H31.2994C30.7073 49.3481 28.2915 51.3791 25.4013 51.3791C22.5111 51.3791 20.0953 49.3481 19.5032 46.6354H5.78172V51.3791H4.27249V46.6354V44.5042V33.4837H2.33208V28.3092H18.6726V19.8729L2.33203 19.8729C2.33203 15.2984 4.14927 10.9112 7.38397 7.6765C10.6187 4.44181 15.0059 2.62457 19.5804 2.62457C24.155 2.62457 28.5422 4.44181 31.7769 7.67651ZM27.4428 45.4381C27.4356 45.5076 27.4251 45.5762 27.4113 45.6435C27.2161 46.5975 26.372 47.3151 25.3604 47.3151C24.2042 47.3151 23.2669 46.3778 23.2669 45.2216C23.2669 45.111 23.2754 45.0025 23.292 44.8965C23.4484 43.895 24.3148 43.1286 25.3603 43.1286C26.5165 43.1286 27.4538 44.0659 27.4538 45.2221C27.4538 45.295 27.4501 45.3671 27.4428 45.4381Z" fill="#FA9938"/>
</svg>
