<svg width="110" height="60" viewBox="0 0 110 60" fill="none" xmlns="http://www.w3.org/2000/svg">
<path d="M108.504 13.058C106.633 9.93797 103.173 7.99997 99.4749 7.99997C97.9509 7.99997 96.4479 8.35297 95.0839 8.99397C94.6679 8.39297 94.1339 7.87797 93.4829 7.50097L90.2329 5.62498C89.4769 5.18798 88.6159 4.95598 87.7439 4.95198C87.6359 4.87698 87.5249 4.80699 87.4099 4.73999L82.8789 2.12399C82.1729 1.71699 81.3709 1.502 80.5569 1.502C80.4869 1.502 80.4169 1.503 80.3469 1.506C78.2019 0.528999 75.9829 0 73.9699 0H63.974C61.388 0 59.184 0.887998 57.767 2.49899C56.791 3.60999 56.459 5.11698 56.879 6.53198C57.296 7.93797 58.389 9.01297 59.802 9.40697C60.113 9.50497 61.241 10.008 63.08 10.983L62.46 12H44C43.244 12 42.508 12.081 41.791 12.217L40.863 11.288C41.105 8.26097 40.02 5.22398 37.8411 3.04499C36.0591 1.263 33.6891 0.185 31.1681 0.0130004C31.0431 0.00400048 30.9171 0 30.7911 0H20.7951C19.3401 0 17.9781 0.56 16.9601 1.579L16.7191 1.81899C15.8271 2.71199 15.2581 3.84299 15.0731 5.06798C13.8481 5.25298 12.7171 5.82198 11.8241 6.71398L11.5791 6.95898C10.5051 8.03397 9.93215 9.49797 10.0072 10.978C10.0531 11.888 10.2252 12.767 10.4911 13.611C10.4671 13.602 10.4442 13.589 10.4202 13.581L6.58317 12.227C6.14517 12.073 5.69617 11.999 5.25317 11.999C3.85617 11.999 2.51917 12.734 1.78818 14.001L0.535182 16.1719C-0.426815 17.8399 -0.0638169 19.9559 1.39818 21.2089L4.48817 23.8549C5.04117 24.3289 5.71217 24.6419 6.43017 24.7629L7.82016 24.9949L9.59616 26.0199C6.47617 26.2299 4.00017 28.8279 4.00017 31.9999V33.9999C4.00017 35.7709 4.77617 37.3599 6.00017 38.4589V51.9998C6.00017 56.4108 9.58916 59.9998 14.0001 59.9998H95.9969C100.408 59.9998 103.997 56.4108 103.997 51.9998V38.4589C105.221 37.3599 105.997 35.7709 105.997 33.9999V31.9999C105.997 30.3459 105.324 28.8469 104.238 27.7599C104.413 27.6719 104.594 27.5989 104.765 27.5009C107.213 26.0869 108.952 23.8009 109.661 21.0639C110.37 18.3279 109.959 15.4839 108.504 13.058Z" fill="black"/>
<path fill-rule="evenodd" clip-rule="evenodd" d="M56 40.0136H44C42.896 40.0136 42 39.1176 42 38.0136V35.9996C42 34.8946 42.896 33.9996 44 33.9996H56C57.104 33.9996 58 34.8946 58 35.9996V38.0136C58 39.1176 57.104 40.0136 56 40.0136ZM60 37.9996H90.0001V51.9996C90.0001 54.2086 88.2091 55.9996 86.0001 55.9996H14C11.791 55.9996 10 54.2086 10 51.9996V37.9996H40V38.0136C40 40.2196 41.794 42.0136 44 42.0136H56C58.206 42.0136 60 40.2196 60 38.0136V37.9996ZM90.0001 29.9995C91.1051 29.9995 92.0001 30.8956 92.0001 31.9996V33.9996C92.0001 35.1036 91.1051 35.9996 90.0001 35.9996H60C60 33.7936 58.206 31.9996 56 31.9996H44C41.794 31.9996 40 33.7936 40 35.9996H10C8.896 35.9996 8 35.1036 8 33.9996V31.9996C8 30.8956 8.896 29.9995 10 29.9995H36V23.9995C36 19.5815 39.582 15.9995 44 15.9995H56C60.418 15.9995 64.0001 19.5815 64.0001 23.9995V29.9995H90.0001ZM39.5 29.9995H60.5V23.9995C60.5 21.5185 58.481 19.4995 56 19.4995H44C41.519 19.4995 39.5 21.5185 39.5 23.9995V29.9995ZM81.4871 10.9655C81.9781 11.2485 82.1461 11.8765 81.8621 12.3675L79.6641 16.1755C79.3811 16.6665 78.7531 16.8345 78.2621 16.5505L75.0131 14.6746C74.5221 14.3916 74.3541 13.7636 74.6371 13.2736L74.7691 13.0455C74.8581 12.8915 74.8051 12.6935 74.6511 12.6045C74.4971 12.5155 74.2471 12.3705 74.0921 12.2815C73.9381 12.1925 73.7411 12.2465 73.6521 12.4005C73.4741 12.7085 73.0791 12.8146 72.7711 12.6356L68.3021 10.0565C68.0461 9.90754 67.929 9.60953 68.001 9.33553C68.029 9.22653 67.958 9.11254 67.861 9.05654C64.656 7.21554 61.882 5.83453 60.878 5.55452C60.697 5.50452 60.647 5.28152 60.771 5.14052C62.265 3.44152 66.1101 3.65055 69.7961 5.70455C69.8951 5.75955 70.028 5.76554 70.109 5.68554C70.311 5.48854 70.6261 5.44052 70.8831 5.58852L75.4131 8.20354C75.7191 8.38054 75.7381 8.74954 75.5781 9.06454C75.5011 9.21554 75.5561 9.40353 75.7051 9.48953C75.8591 9.57853 76.1091 9.72255 76.2631 9.81155C76.4181 9.90055 76.6151 9.84754 76.7041 9.69354L76.8361 9.46554C77.1191 8.97454 77.7471 8.80553 78.2371 9.08953L81.4871 10.9655ZM9.194 21.1696L7.09 20.8175L4 18.1705L5.253 16.0005L9.09 17.3535L10.445 18.9985L26.036 28.0006H21.025L9.194 21.1696ZM16.802 15.7816C15.025 14.5476 14.098 12.6795 14.002 10.7765C13.983 10.4065 14.146 10.0505 14.408 9.78753L14.653 9.54253C15.374 8.82253 16.543 8.82253 17.263 9.54253L19.306 11.5845C19.714 11.9925 20.309 12.1525 20.866 12.0035C21.424 11.8535 21.859 11.4185 22.009 10.8605C22.158 10.3035 21.998 9.70853 21.59 9.30053L19.548 7.25854C18.827 6.53754 18.827 5.36854 19.548 4.64754L19.789 4.40654C20.081 4.11454 20.487 3.97553 20.899 4.00353C22.399 4.10653 23.87 4.72652 25.017 5.87353C26.699 7.55553 27.253 9.93154 26.692 12.0775C26.605 12.4075 26.679 12.7575 26.92 12.9985L34.585 20.6635C34.213 21.7085 34 22.8285 34 23.9995V27.9116L23.006 16.9165C22.764 16.6755 22.415 16.6015 22.085 16.6885C20.304 17.1555 18.351 16.8576 16.802 15.7816ZM66.0001 23.9995C66.0001 21.5835 65.139 19.3656 63.708 17.6356L67.3021 11.7885L71.7711 14.3675L66.0001 24.9945V23.9995ZM95.0781 15.1155C96.9391 18.2195 95.8911 22.2346 92.7681 24.0366C90.7091 25.2256 88.2691 25.1466 86.3411 24.0486C86.0451 23.8806 85.6881 23.8616 85.3931 24.0316L78.5191 27.9995H67.4421L82.6221 19.2355C82.9181 19.0645 83.0811 18.7445 83.0831 18.4035C83.0971 16.1125 84.3251 13.8915 86.5151 12.7295C89.4951 11.1495 93.3431 12.2215 95.0781 15.1155ZM91.3841 21.6386L93.2301 18.4406L91.3841 15.2426H87.6921L85.8451 18.4406L87.6921 21.6386H91.3841Z" fill="#B274F0"/>
</svg>
