<svg width="110" height="60" viewBox="0 0 110 60" fill="none" xmlns="http://www.w3.org/2000/svg">
<path fill-rule="evenodd" clip-rule="evenodd" d="M99.4749 7.99997C103.173 7.99997 106.633 9.93797 108.504 13.058C109.959 15.4839 110.37 18.3279 109.661 21.0639C108.952 23.8009 107.213 26.0869 104.765 27.5009C104.658 27.5622 104.547 27.6136 104.436 27.6651C104.37 27.696 104.303 27.7269 104.238 27.7599C105.324 28.8469 105.997 30.3459 105.997 31.9999V33.9999C105.997 35.7709 105.221 37.3599 103.997 38.4589V51.9998C103.997 56.4108 100.408 59.9998 95.9969 59.9998H14.0002C9.58919 59.9998 6.0002 56.4108 6.0002 51.9998V38.4589C4.7762 37.3599 4.00021 35.7709 4.00021 33.9999V31.9999C4.00021 28.8279 6.4762 26.2299 9.59619 26.0199L7.82019 24.9949L6.4302 24.7629C5.7122 24.6419 5.0412 24.3289 4.4882 23.8549L1.39821 21.2089C-0.0637845 19.9559 -0.426782 17.8399 0.535215 16.1719L1.78821 14.001C2.51921 12.734 3.85621 11.999 5.2532 11.999C5.6962 11.999 6.1452 12.073 6.5832 12.227L10.4202 13.581C10.4334 13.5854 10.4463 13.5913 10.4592 13.5972C10.4698 13.6021 10.4804 13.6069 10.4912 13.611C10.2252 12.767 10.0532 11.888 10.0072 10.978C9.93218 9.49797 10.5052 8.03397 11.5792 6.95898L11.8242 6.71398C12.7172 5.82198 13.8482 5.25298 15.0732 5.06798C15.2582 3.84299 15.8272 2.71199 16.7192 1.81899L16.9602 1.579C17.9782 0.56 19.3402 0 20.7951 0H30.7911C30.9171 0 31.0431 0.00400048 31.1681 0.0130004C33.6891 0.185 36.0591 1.263 37.8411 3.04499C40.0201 5.22398 41.1051 8.26097 40.8631 11.288L41.7911 12.217C42.5081 12.081 43.2441 12 44.0001 12H62.46L63.08 10.983C61.241 10.008 60.113 9.50497 59.802 9.40697C58.389 9.01297 57.296 7.93797 56.879 6.53198C56.459 5.11698 56.791 3.60999 57.767 2.49899C59.184 0.887998 61.388 0 63.974 0H73.97C75.983 0 78.202 0.528999 80.3469 1.506C80.4169 1.503 80.4869 1.502 80.5569 1.502C81.3709 1.502 82.1729 1.71699 82.8789 2.12399L87.4099 4.73999C87.5249 4.80699 87.6359 4.87698 87.7439 4.95198C88.6159 4.95598 89.4769 5.18798 90.2329 5.62498L93.4829 7.50097C94.1339 7.87797 94.6679 8.39297 95.0839 8.99397C96.4479 8.35297 97.9509 7.99997 99.4749 7.99997ZM44.0001 40.0136H56.0001C57.1041 40.0136 58.0001 39.1176 58.0001 38.0136V35.9996C58.0001 34.8946 57.1041 33.9996 56.0001 33.9996H44.0001C42.8961 33.9996 42.0001 34.8946 42.0001 35.9996V38.0136C42.0001 39.1176 42.8961 40.0136 44.0001 40.0136ZM90.0001 37.9996H60.0001V38.0136C60.0001 40.2196 58.2061 42.0136 56.0001 42.0136H44.0001C41.7941 42.0136 40.0001 40.2196 40.0001 38.0136V37.9996H10V51.9996C10 54.2086 11.791 55.9996 14 55.9996H86.0001C88.2091 55.9996 90.0001 54.2086 90.0001 51.9996V37.9996ZM92.0001 31.9995C92.0001 30.8955 91.1051 29.9995 90.0001 29.9995H64.0001V23.9995C64.0001 19.5815 60.4181 15.9995 56.0001 15.9995H44.0001C39.5821 15.9995 36.0001 19.5815 36.0001 23.9995V29.9995H10C8.89604 29.9995 8.00004 30.8955 8.00004 31.9995V33.9996C8.00004 35.1036 8.89604 35.9996 10 35.9996H40.0001C40.0001 33.7936 41.7941 31.9995 44.0001 31.9995H56.0001C58.2061 31.9995 60.0001 33.7936 60.0001 35.9996H90.0001C91.1051 35.9996 92.0001 35.1036 92.0001 33.9996V31.9995ZM60.5001 29.9995H39.5001V23.9995C39.5001 21.5185 41.5191 19.4995 44.0001 19.4995H56.0001C58.4811 19.4995 60.5001 21.5185 60.5001 23.9995V29.9995ZM81.8621 12.3675C82.1461 11.8765 81.9781 11.2485 81.4871 10.9655L78.2371 9.08953C77.7471 8.80553 77.1191 8.97454 76.8361 9.46554L76.7041 9.69354C76.6151 9.84754 76.4181 9.90055 76.2631 9.81155C76.1861 9.76705 76.0851 9.70879 75.9841 9.65054C75.8831 9.59228 75.7821 9.53403 75.7051 9.48953C75.5561 9.40353 75.5011 9.21554 75.5781 9.06454C75.7381 8.74954 75.7191 8.38054 75.4131 8.20354L70.8831 5.58852C70.6261 5.44052 70.3111 5.48854 70.1091 5.68554C70.0281 5.76554 69.8951 5.75955 69.7961 5.70455C66.1101 3.65055 62.2651 3.44152 60.7711 5.14052C60.6471 5.28152 60.6971 5.50452 60.8781 5.55452C61.8821 5.83453 64.6561 7.21554 67.8611 9.05654C67.9581 9.11254 68.0291 9.22653 68.0011 9.33553C67.9291 9.60953 68.0461 9.90754 68.3021 10.0565L72.7711 12.6356C73.0791 12.8146 73.4741 12.7085 73.6521 12.4005C73.7411 12.2465 73.9381 12.1925 74.0921 12.2815C74.2006 12.3439 74.3558 12.4337 74.4919 12.5125C74.5502 12.5462 74.6049 12.5779 74.6511 12.6045C74.8051 12.6935 74.8581 12.8915 74.7691 13.0455L74.6371 13.2736C74.3541 13.7636 74.5221 14.3916 75.0131 14.6746L78.2621 16.5505C78.7531 16.8345 79.3811 16.6665 79.6641 16.1755L81.8621 12.3675ZM7.09003 20.8175L9.19404 21.1696L21.025 28.0006H26.036L10.445 18.9985L9.09003 17.3535L5.25303 16.0005L4.00003 18.1705L7.09003 20.8175ZM14.002 10.7765C14.098 12.6795 15.025 14.5476 16.802 15.7816C18.351 16.8576 20.304 17.1555 22.085 16.6885C22.415 16.6015 22.764 16.6755 23.006 16.9165L34.0001 27.9116V23.9995C34.0001 22.8285 34.2131 21.7085 34.5851 20.6635L26.92 12.9985C26.6791 12.7575 26.6051 12.4075 26.6921 12.0775C27.2531 9.93154 26.699 7.55553 25.017 5.87353C23.87 4.72652 22.399 4.10653 20.899 4.00353C20.487 3.97553 20.081 4.11454 19.789 4.40654L19.548 4.64754C18.827 5.36854 18.827 6.53754 19.548 7.25854L21.59 9.30053C21.998 9.70853 22.1581 10.3035 22.0091 10.8605C21.8591 11.4185 21.424 11.8535 20.866 12.0035C20.309 12.1525 19.714 11.9925 19.306 11.5845L17.263 9.54253C16.543 8.82253 15.374 8.82253 14.653 9.54253L14.408 9.78753C14.146 10.0505 13.983 10.4065 14.002 10.7765ZM63.7081 17.6356C65.1391 19.3656 66.0001 21.5835 66.0001 23.9995V24.9945L71.7711 14.3675L67.3021 11.7885L63.7081 17.6356ZM92.7681 24.0366C95.8911 22.2346 96.9391 18.2195 95.0781 15.1155C93.3431 12.2215 89.4951 11.1495 86.5151 12.7295C84.3251 13.8915 83.0971 16.1125 83.0831 18.4035C83.0811 18.7445 82.9181 19.0645 82.6221 19.2355L67.4421 27.9995H78.5191L85.3931 24.0316C85.6881 23.8616 86.0451 23.8806 86.3411 24.0486C88.2691 25.1466 90.7091 25.2256 92.7681 24.0366ZM93.2301 18.4405L91.3841 21.6386H87.6921L85.8451 18.4405L87.6921 15.2425H91.3841L93.2301 18.4405Z" fill="black"/>
</svg>
