<svg width="20" height="13" viewBox="0 0 20 13" fill="none" xmlns="http://www.w3.org/2000/svg">
<path fill-rule="evenodd" clip-rule="evenodd" d="M7.58187 1.00295C7.58187 0.607642 7.81474 0.249438 8.17603 0.0890055C8.31121 0.0289785 8.45487 0.000854474 8.5971 0.00304872H13.5662C13.8147 -0.00078493 14.061 0.088044 14.2525 0.261115L19.1691 4.70556C19.3789 4.89515 19.4985 5.16467 19.4985 5.44739C19.4985 5.73012 19.3789 5.99963 19.1691 6.18923L14.2525 10.6337C14.0689 10.7996 13.835 10.8881 13.5971 10.8917H8.59709C8.45486 10.8939 8.3112 10.8658 8.17603 10.8058C8.15156 10.7949 8.12768 10.7831 8.10442 10.7705L7.22128 11.6941C7.02863 11.8955 6.7656 12.0032 6.49748 12.003H1.49854C1.37334 12.003 1.24701 11.9795 1.1262 11.931C0.747043 11.7789 0.498535 11.4115 0.498535 11.0029V10.6789C0.498535 6.55317 3.58941 3.14938 7.58187 2.65679V1.00295ZM8.58187 1.00293L13.4985 5.44737L8.58187 9.89182V7.29923C6.31972 7.29923 4.1559 8.22399 2.59249 9.85893L1.49854 11.0029V10.6789C1.49854 6.76684 4.66985 3.59552 8.58187 3.59552V1.00293Z" fill="black"/>
</svg>
