<svg width="45" height="42" viewBox="0 0 45 42" fill="none" xmlns="http://www.w3.org/2000/svg">
<path fill-rule="evenodd" clip-rule="evenodd" d="M0 9.98101H9.33605C10.2105 4.76888 14.7435 0.797333 20.2041 0.797333C20.9914 0.797333 24.7959 0.797333 24.7959 0.797333C30.2565 0.797333 34.7895 4.76888 35.664 9.98101H45V41.2055H0V9.98101Z" fill="black"/>
<path fill-rule="evenodd" clip-rule="evenodd" d="M25.7154 11.8179C25.7154 8.77472 23.2484 6.30772 20.2052 6.30772C17.162 6.30772 14.695 8.77472 14.695 11.8179H11.0216C11.0216 6.74592 15.1332 2.63425 20.2052 2.63425C25.2772 2.63425 29.3889 6.74592 29.3889 11.8179H25.7154ZM25.7154 11.8179H14.695V17.3281V21.0016H11.0216V11.8179H1.83789V39.3689H38.5726V11.8179H29.3889V21.0016H25.7154V17.3281V11.8179Z" fill="#FA9938"/>
</svg>
