<svg width="35" height="31" viewBox="0 0 35 31" fill="none" xmlns="http://www.w3.org/2000/svg">
<path d="M2 30.0015C0.89543 30.0015 0 29.106 0 28.0015V20.0015C0 18.5209 0.804397 17.2282 2 16.5366V8.24314C0.794086 7.43628 0 6.06276 0 4.50146V2.00146C0 0.896895 0.89543 0.00146484 2 0.00146484H33C34.1046 0.00146484 35 0.896895 35 2.00146V4.50146C35 6.06276 34.2059 7.43628 33 8.24314V16.5366C34.1956 17.2282 35 18.5209 35 20.0015V28.0015C35 29.106 34.1046 30.0015 33 30.0015H2Z" fill="black"/>
<path d="M6 15.5015C6 14.1208 7.11929 13.0015 8.5 13.0015H11C11.5523 13.0015 12 12.5537 12 12.0015V9.50146C12 9.22532 12.2239 9.00146 12.5 9.00146C12.7761 9.00146 13 9.22532 13 9.50146V12.0015C13 13.106 12.1046 14.0015 11 14.0015V17.0015H6V15.5015Z" fill="white"/>
<path d="M8.5 9.00146C7.67157 9.00146 7 9.67304 7 10.5015C7 11.3299 7.67157 12.0015 8.5 12.0015C9.32843 12.0015 10 11.3299 10 10.5015C10 9.67304 9.32843 9.00146 8.5 9.00146Z" fill="white"/>
<path d="M16 16.0015V17.0015H24V16.0015H16Z" fill="white"/>
<path d="M20 14.0015H24V15.0015H20V14.0015Z" fill="white"/>
<path fill-rule="evenodd" clip-rule="evenodd" d="M28 2.00146V4.50146C28 5.71094 27.1411 6.71982 26 6.95146V18.0015C27.1046 18.0015 28 18.8969 28 20.0015V28.0015H2V20.0015C2 18.8969 2.89543 18.0015 4 18.0015V6.95146C2.85888 6.71982 2 5.71094 2 4.50146V2.00146H28ZM5 18.0015H25V6.95146C23.8589 6.71982 23 5.71094 23 4.50146H21C21 5.88218 19.8807 7.00146 18.5 7.00146C17.1193 7.00146 16 5.88218 16 4.50146H14C14 5.88218 12.8807 7.00146 11.5 7.00146C10.1193 7.00146 9 5.88218 9 4.50146H7C7 5.71094 6.14112 6.71982 5 6.95146V18.0015ZM13.4954 20.5127C12.1605 20.5177 11.4983 22.0956 12.4461 23.0139L15.0139 25.5015L17.5619 22.9947C18.5025 22.0693 17.8279 20.4965 16.493 20.5015C16.0443 20.5032 15.6424 20.6968 15.3689 21.0032C15.1381 21.2616 14.9985 21.5996 15 21.9703C14.9976 21.3792 14.6369 20.8713 14.1194 20.6421C13.9293 20.5579 13.7182 20.5119 13.4954 20.5127Z" fill="white"/>
</svg>
