<svg width="54" height="35" viewBox="0 0 54 35" fill="none" xmlns="http://www.w3.org/2000/svg">
<path d="M10.75 14.5023C8.67893 14.5023 7 16.1813 7 18.2523C7 20.3234 8.67893 22.0023 10.75 22.0023H18.25C20.3211 22.0023 22 20.3234 22 18.2523C22 16.1813 20.3211 14.5023 18.25 14.5023H10.75Z" fill="black"/>
<path d="M32 14.5023C29.2386 14.5023 27 16.7409 27 19.5023V32.0023H37V19.5023C37 16.7409 34.7614 14.5023 32 14.5023Z" fill="black"/>
<path fill-rule="evenodd" clip-rule="evenodd" d="M0 7.00293C0 3.13694 3.13401 0.00292969 7 0.00292969H47C50.866 0.00292969 54 3.13694 54 7.00293V34.0029H0V7.00293ZM11.5 7.00235C10.1193 7.00235 9 5.88306 9 4.50235L9 2.00293H7C4.23858 2.00293 2 4.24151 2 7.00293V32.0029H42V7.00293C42 4.24151 39.7614 2.00293 37 2.00293H35V4.50235C35 5.88306 33.8807 7.00235 32.5 7.00235C31.1193 7.00235 30 5.88306 30 4.50235V2.00293H28V4.50235C28 5.88306 26.8807 7.00235 25.5 7.00235C24.1193 7.00235 23 5.88306 23 4.50235V2.00293H21V4.50235C21 5.88306 19.8807 7.00235 18.5 7.00235C17.1193 7.00235 16 5.88306 16 4.50235V2.00293H14L14 4.50235C14 5.88306 12.8807 7.00235 11.5 7.00235Z" fill="black"/>
</svg>
