<svg width="29" height="25" viewBox="0 0 29 25" fill="none" xmlns="http://www.w3.org/2000/svg">
<path fill-rule="evenodd" clip-rule="evenodd" d="M15 6.99945C15 5.3426 13.6569 3.99945 12 3.99945C10.3431 3.99945 9 5.3426 9 6.99945H7C7 4.23803 9.23858 1.99945 12 1.99945C14.7614 1.99945 17 4.23803 17 6.99945H15ZM15 6.99945H9V9.99945V11.9995H7V6.99945H2V21.9995H22V6.99945H17V11.9995H15V9.99945V6.99945Z" fill="#FA9938"/>
<path fill-rule="evenodd" clip-rule="evenodd" d="M0 24.0014V5.0014H5.28988C6.15043 2.10992 8.82898 0.00140381 12 0.00140381H17C20.171 0.00140381 22.8496 2.10991 23.7101 5.0014H29V24.0014H0ZM12 4.0014C13.6569 4.0014 15 5.34455 15 7.0014H9C9 5.34455 10.3431 4.0014 12 4.0014ZM7 7.0014V12.0014H9V10.0014V7.0014H7ZM17 7.0014V12.0014H15V10.0014V7.0014H17ZM17 7.0014H22V22.0014H2V7.0014H7C7 4.23998 9.23858 2.0014 12 2.0014C14.7614 2.0014 17 4.23998 17 7.0014Z" fill="black"/>
</svg>
