<svg width="5557" height="3514" viewBox="0 0 5557 3514" fill="none" xmlns="http://www.w3.org/2000/svg">
<path fill-rule="evenodd" clip-rule="evenodd" d="M2488.68 671.733V227.24C2488.68 102.303 2589.73 0.996094 2714.92 0.996094H4162.38C4287.07 0.996094 4388.63 102.303 4388.63 227.24V573.795H5330.31C5390.64 573.795 5447.95 597.626 5490.19 640.059C5532.92 682.492 5556.55 740.059 5556.55 800.038V3287.56C5556.55 3412.5 5455.5 3513.75 5330.31 3513.75H227.236C102.551 3513.75 0.992188 3412.5 0.992188 3287.51V1719.64C0.992188 1594.65 102.551 1493.4 227.236 1493.4H498.73V897.972C498.73 773.035 599.785 671.728 724.974 671.728H2488.67L2488.68 671.733Z" fill="black"/>
<path fill-rule="evenodd" clip-rule="evenodd" d="M333.061 3287.55V2807.83H1114.8V3287.55H1221.41V1968.39H723.94V1719.65H226.464V3287.54H333.061V3287.55ZM830.432 2412.64H332.93V2554.78H830.432V2412.64ZM404.017 2448.12H368.44V2519.19H404.017V2448.12ZM546.243 1897.35H404.082V2039.49H546.243V1897.35ZM475.176 1932.83H439.645V2003.9H475.176V1932.83ZM865.909 2412.64H1114.64V2554.78H865.909V2412.64ZM901.413 2448.12H936.95V2519.19H901.413V2448.12Z" fill="#B274F0"/>
<path fill-rule="evenodd" clip-rule="evenodd" d="M2638.8 1719.66H1643.83V2217.13H2638.8V1719.66ZM1963.74 1879.6H1821.61V2021.73H1963.74V1879.6ZM1892.65 1915.08H1857.11V1986.14H1892.65V1915.08ZM2319.02 1879.6H2461.16V1950.67H2319.02V1879.6Z" fill="#FB9C37"/>
<path d="M4952.36 800.09H4899.05V1364.93H4952.36V800.09Z" fill="#88D0AC"/>
<path d="M3513.44 800.109H3460.13V1364.95H3513.44V800.109Z" fill="#88D0AC"/>
<path d="M3993.08 800.084H3939.77V1364.92H3993.08V800.084Z" fill="#88D0AC"/>
<path d="M4472.72 800.084H4419.41V1364.92H4472.72V800.084Z" fill="#88D0AC"/>
<path d="M2216.61 927.881H2145.55V1436.73H2216.61V927.881Z" fill="#F3A797"/>
<path fill-rule="evenodd" clip-rule="evenodd" d="M1470.17 969.112V1395.51H2216.27V1644.27H724.061V898.021H2216.27V969.112H1470.17ZM1221.3 1111.29H972.933V1253.42H1221.3V1111.29ZM1043.82 1146.74V1217.83H1008.13V1146.74H1043.82Z" fill="#E84F30"/>
<path fill-rule="evenodd" clip-rule="evenodd" d="M3384.7 1719.72H2714.01V227.316H3784.4V724.7H3460.11C3418.39 724.7 3384.7 758.436 3384.7 800.065V1719.72L3384.7 1719.72ZM3068.46 1399.91H2918.13V1506.44H2891.99V1541.94H2918.13V1542.04H3068.46V1541.94H3094.6V1506.44H3068.46V1399.91ZM3580.27 404.939H3430.45V511.525H3404.31V547.07H3606.92V511.525H3580.27V404.939ZM2918.13 404.939V511.525H2891.99V547.07H3094.6V511.525H3068.46V404.939H2918.13ZM3068.46 902.423H2918.13V1009.01H2891.99V1044.56H3094.6V1009.01H3068.46V902.423Z" fill="#C9731D"/>
<path fill-rule="evenodd" clip-rule="evenodd" d="M4383.7 2217.11V1950.59C4383.7 1922.29 4372.64 1895.19 4352.53 1875.23C4332.42 1855.22 4305.77 1844.01 4277.11 1844.01C4248.96 1844.01 4221.81 1855.22 4201.7 1875.23C4182.09 1895.19 4170.53 1922.29 4170.53 1950.59V2217.11H3460.12V1297.55H4952.33V3287.49H4384.2V2217.11H4383.7L4383.7 2217.11ZM3726.58 1439.68C3702.95 1439.68 3680.33 1449.03 3663.74 1465.73C3647.15 1482.37 3637.59 1504.94 3637.59 1528.52H3744.18V1439.68H3726.58ZM3779.88 1564.07V1652.86H3886.46V1564.07H3779.88ZM4028.75 1528.52C4028.75 1504.94 4019.19 1482.37 4002.6 1465.73C3986.01 1449.03 3963.39 1439.68 3939.76 1439.68H3922.16V1528.52H4028.75ZM3744.18 1564.07H3637.59C3637.59 1587.6 3647.15 1610.22 3663.74 1626.86C3680.33 1643.5 3702.95 1652.86 3726.58 1652.86H3744.18V1564.07ZM3886.46 1439.68H3779.88V1528.52H3886.46V1439.68ZM4774.85 1564.07H4668.26V1652.86H4685.86C4709.49 1652.86 4732.11 1643.5 4748.71 1626.86C4765.3 1610.22 4774.85 1587.6 4774.85 1564.07ZM3922.16 1564.07V1652.86H3939.76C3963.39 1652.86 3986.01 1643.5 4002.6 1626.86C4019.19 1610.22 4028.75 1587.6 4028.75 1564.07H3922.16ZM4668.26 1439.68V1528.52H4774.85C4774.85 1504.94 4765.3 1482.37 4748.71 1465.73C4732.11 1449.03 4709.49 1439.68 4685.86 1439.68H4668.26ZM4614.97 1439.68C4591.34 1439.68 4568.72 1449.03 4552.12 1465.73C4535.53 1482.37 4525.98 1504.94 4525.98 1528.52H4632.57V1439.68H4614.97ZM4632.57 1564.07H4525.98C4525.98 1587.6 4535.53 1610.22 4552.12 1626.86C4568.72 1643.5 4591.34 1652.86 4614.97 1652.86H4632.57V1564.07ZM4952.83 800.117V871.158H3460.12V800.117H4952.83ZM4259.52 2026.01C4264.54 2026.01 4269.07 2027.87 4272.08 2031.24C4275.6 2034.55 4277.62 2039.08 4277.62 2043.81C4277.62 2048.48 4275.6 2053.01 4272.08 2056.37C4269.07 2059.69 4264.54 2061.55 4259.52 2061.55H4224.32C4219.29 2061.55 4214.77 2059.69 4211.75 2056.37C4208.23 2053.01 4206.22 2048.48 4206.22 2043.81C4206.22 2039.08 4208.23 2034.55 4211.75 2031.24C4214.77 2027.87 4219.29 2026.01 4224.32 2026.01H4259.52Z" fill="#12A159"/>
<path fill-rule="evenodd" clip-rule="evenodd" d="M2714.02 1795.14H2784.91V1866.23H2856.3V1937.32H2927.19V2008.36H2998.08V2079.4H3069.47V2150.44H3140.36V2221.58H3211.75V2292.62H3708.99V3287.59H3309.29V3012.28C3309.29 2958.28 3265.55 2914.54 3211.75 2914.54C3157.46 2914.54 3113.72 2958.28 3113.72 3012.28V3287.59H2714.02V1795.14V1795.14ZM2909.59 2559.19V2665.77H2873.9V2701.32H2909.59V2701.37H3051.37V2701.32H3087.07V2665.77H3051.37V2559.19C3051.37 2540.38 3044.33 2522.28 3030.76 2508.96C3017.69 2495.64 2999.59 2488.15 2980.48 2488.15C2961.88 2488.15 2943.78 2495.64 2930.21 2508.96C2917.13 2522.28 2909.59 2540.38 2909.59 2559.19ZM2944.79 2559.14C2944.79 2539.53 2960.88 2523.64 2980.48 2523.64V2630.23H2944.79V2559.14ZM3549.11 2665.77H3513.41V2559.24C3513.41 2540.38 3505.87 2522.28 3492.8 2508.96C3479.23 2495.64 3461.13 2488.15 3442.52 2488.15C3403.31 2488.15 3371.13 2519.97 3371.13 2559.24V2665.77H3335.94V2701.32H3371.13V2701.37H3513.41V2701.32H3549.11V2665.77ZM3442.52 2523.64V2630.23H3406.83V2559.14C3406.83 2539.53 3422.92 2523.64 3442.52 2523.64ZM3252.48 3095.08C3262.03 3095.08 3270.08 3103.03 3270.08 3112.88C3270.08 3122.68 3262.03 3130.63 3252.48 3130.63C3242.42 3130.63 3234.38 3122.68 3234.38 3112.88C3234.38 3103.03 3242.42 3095.08 3252.48 3095.08Z" fill="#FBCE37"/>
<path fill-rule="evenodd" clip-rule="evenodd" d="M2291.69 2292.57V3287.54H1883.44V2914.44H1687.87V3287.54H1296.72V2292.57H2291.69ZM1439 2488.04V2683.47H1634.57V2488.04H1439ZM1563.68 2523.49H1598.88V2647.87H1563.68V2523.49ZM2131.81 2488.04H1936.74V2683.47H2131.81V2488.04ZM2096.61 2523.49V2647.87H2060.92V2523.49H2096.61ZM1804.01 3077.33V3112.88H1733.12V3077.33H1804.01Z" fill="#FF8F68"/>
</svg>
