<svg width="26" height="30" viewBox="0 0 26 30" fill="none" xmlns="http://www.w3.org/2000/svg">
<path d="M6.5 0C3.18629 0 0.5 2.68629 0.5 6V24C0.5 27.3137 3.18629 30 6.5 30H19.5C22.8137 30 25.5 27.3137 25.5 24V6C25.5 2.68629 22.8137 0 19.5 0H6.5Z" fill="black"/>
<path fill-rule="evenodd" clip-rule="evenodd" d="M6.5 2C4.29086 2 2.5 3.79086 2.5 6V24C2.5 26.2091 4.29086 28 6.5 28H14.5C16.7091 28 18.5 26.2091 18.5 24V6C18.5 3.79086 16.7091 2 14.5 2H6.5ZM4.5 6C4.5 4.89543 5.39543 4 6.5 4H14.5C15.6046 4 16.5 4.89543 16.5 6V20C16.5 21.1046 15.6046 22 14.5 22H6.5C5.39543 22 4.5 21.1046 4.5 20V6ZM8.5 25C8.5 24.4477 8.94772 24 9.5 24H11.5C12.0523 24 12.5 24.4477 12.5 25C12.5 25.5523 12.0523 26 11.5 26H9.5C8.94772 26 8.5 25.5523 8.5 25Z" fill="white"/>
</svg>
