<svg width="78" height="61" viewBox="0 0 78 61" fill="none" xmlns="http://www.w3.org/2000/svg">
<path fill-rule="evenodd" clip-rule="evenodd" d="M48.9998 0H58.9998C69.4768 0 77.9997 8.52297 77.9997 18.9999C77.9997 24.0319 76.0317 28.7979 72.4568 32.4199C66.5493 38.4062 49.7545 55.8013 47.203 58.4441C47.0041 58.6501 46.8917 58.7665 46.8778 58.7808C46.1248 59.5628 45.0848 60.0038 43.9999 60.0038H33.9999C32.9139 60.0038 31.8749 59.5628 31.1209 58.7808L31.1077 58.7672C30.512 58.1495 11.8487 38.8007 5.55298 32.4189C1.97199 28.7899 0 24.0239 0 18.9999C0 8.52297 8.52297 0 18.9999 0H28.9999C32.6679 0 36.0929 1.051 38.9999 2.85799C41.9069 1.051 45.3318 0 48.9998 0ZM33.9999 19C33.9999 10.72 40.7199 4 48.9998 4C57.2898 4 63.9998 10.72 63.9998 19C63.9998 23.1499 62.3068 26.8769 59.6098 29.6099C53.1518 36.1539 33.9999 56.0038 33.9999 56.0038C33.9999 56.0038 14.856 36.1529 8.39999 29.6099C5.703 26.8769 4 23.1499 4 19C4 10.72 10.72 4 19 4C27.2899 4 33.9999 10.72 33.9999 19Z" fill="black"/>
</svg>
