<svg width="78" height="61" viewBox="0 0 78 61" fill="none" xmlns="http://www.w3.org/2000/svg">
<path d="M58.9998 0H48.9998C45.3318 0 41.9069 1.051 38.9999 2.85799C36.0929 1.051 32.6679 0 28.9999 0H18.9999C8.52297 0 0 8.52297 0 18.9999C0 24.0239 1.97199 28.7899 5.55298 32.4189C11.919 38.8719 30.9299 58.5828 31.1209 58.7808C31.8749 59.5628 32.9139 60.0038 33.9999 60.0038H43.9999C45.0848 60.0038 46.1248 59.5628 46.8778 58.7808C47.0698 58.5828 66.0888 38.8729 72.4568 32.4199C76.0317 28.7979 77.9997 24.0319 77.9997 18.9999C77.9997 8.52297 69.4768 0 58.9998 0Z" fill="black"/>
<path d="M48.9998 4C40.7199 4 33.9999 10.72 33.9999 18.9999C33.9999 10.72 27.2899 4 18.9999 4C10.72 4 4 10.72 4 18.9999C4 23.1499 5.703 26.8769 8.39999 29.6099C14.856 36.1529 33.9999 56.0038 33.9999 56.0038C33.9999 56.0038 53.1518 36.1539 59.6098 29.6099C62.3068 26.8769 63.9998 23.1499 63.9998 18.9999C63.9998 10.72 57.2898 4 48.9998 4Z" fill="#EE6392"/>
</svg>
