<svg width="46" height="35" viewBox="0 0 46 35" fill="none" xmlns="http://www.w3.org/2000/svg">
<path d="M0.103516 3.5015C0.103516 1.84464 1.44666 0.501495 3.10352 0.501495H31.1035C32.7604 0.501495 34.1035 1.84464 34.1035 3.5015V6.83609C35.8762 7.38793 37.3808 8.58766 38.3128 10.2016C39.2755 11.8682 39.4558 13.7142 39.1041 15.3855L45.6341 28.8681L45.6397 28.88C45.9235 29.4864 45.9722 30.1766 45.7761 30.8168C45.5801 31.457 45.1534 32.0017 44.5787 32.3452L44.5656 32.353L41.5662 34.0841C41.1933 34.2991 40.7845 34.4795 40.3742 34.5015H31.1035H3.10352C1.44666 34.5015 0.103516 33.1583 0.103516 31.5015V3.5015Z" fill="black"/>
<path fill-rule="evenodd" clip-rule="evenodd" d="M3.10352 2.5015C2.55123 2.5015 2.10352 2.94921 2.10352 3.5015V31.5015C2.10352 32.0538 2.55123 32.5015 3.10352 32.5015H21.1035C21.6558 32.5015 22.1035 32.0538 22.1035 31.5015V24.5779L20.047 21.5456C20.0843 21.859 20.1035 22.178 20.1035 22.5015C20.1035 26.9198 16.5218 30.5015 12.1035 30.5015C7.68524 30.5015 4.10352 26.9198 4.10352 22.5015C4.10352 18.0832 7.68524 14.5015 12.1035 14.5015C12.9651 14.5015 13.7948 14.6377 14.5724 14.8897C14.4708 14.1369 14.485 13.3685 14.6188 12.6119C13.9317 13.1682 13.0565 13.5015 12.1035 13.5015C9.89438 13.5015 8.10352 11.7106 8.10352 9.5015C8.10352 7.29236 9.89438 5.5015 12.1035 5.5015C14.2494 5.5015 16.0006 7.19123 16.0991 9.31272C16.6743 8.5846 17.3867 7.96418 18.2059 7.49125L18.2071 7.49055C19.3997 6.80308 20.7496 6.4676 22.1035 6.5042V3.5015C22.1035 2.94921 21.6558 2.5015 21.1035 2.5015H3.10352ZM10.9035 9.5015C10.9035 10.1642 11.4408 10.7015 12.1035 10.7015C12.7663 10.7015 13.3035 10.1642 13.3035 9.5015C13.3035 8.83875 12.7663 8.3015 12.1035 8.3015C11.4408 8.3015 10.9035 8.83875 10.9035 9.5015ZM8.90352 22.5015C8.90352 24.2688 10.3362 25.7015 12.1035 25.7015C13.8708 25.7015 15.3035 24.2688 15.3035 22.5015C15.3035 20.7342 13.8708 19.3015 12.1035 19.3015C10.3362 19.3015 8.90352 20.7342 8.90352 22.5015ZM19.2059 9.22329C20.4464 8.5082 21.9201 8.31496 23.3031 8.68604C24.6861 9.05711 25.8651 9.96214 26.5811 11.2022C27.2801 12.4121 27.4143 13.7704 27.1333 15.0365L20.2764 18.9965C19.04 18.6082 17.9306 17.811 17.2293 16.5998C16.5132 15.3595 16.3192 13.8855 16.6899 12.5022C17.0606 11.1188 17.9656 9.93937 19.2059 9.22329ZM33.8283 29.7279C33.9021 29.8855 33.9147 30.0649 33.8638 30.2313C33.8128 30.3977 33.7019 30.5392 33.5526 30.6285L30.5674 32.3514C30.2613 32.5279 29.8468 32.4345 29.6493 32.1407L21.3292 19.873L27.3664 16.3859L33.8283 29.7279ZM24.8007 19.4314C24.9674 19.3304 25.1845 19.3836 25.2855 19.5503L31.3667 29.5841C31.4678 29.7508 31.4145 29.9679 31.2478 30.0689C31.0811 30.1699 30.8641 30.1167 30.763 29.95L24.6818 19.9162C24.5808 19.7495 24.634 19.5325 24.8007 19.4314Z" fill="#63A8EE"/>
</svg>
