<svg width="47" height="22" viewBox="0 0 47 22" fill="none" xmlns="http://www.w3.org/2000/svg">
<g filter="url(#filter0_ddd_1131_2960)">
<mask id="path-1-outside-1_1131_2960" maskUnits="userSpaceOnUse" x="-0.142578" y="0.00296021" width="45" height="21" fill="black">
<rect fill="white" x="-0.142578" y="0.00296021" width="45" height="21"/>
<path d="M3.30032 12.172C3.21895 12.172 3.15406 12.2348 3.14376 12.3254L2.85742 14.4997L3.14376 16.6359C3.14479 16.7255 3.21895 16.7884 3.30032 16.7884C3.37963 16.7884 3.44349 16.7266 3.45688 16.6359L3.79574 14.4987L3.45688 12.3244C3.44452 12.2348 3.37963 12.172 3.30032 12.172ZM4.91019 10.9844C4.8968 10.8906 4.82985 10.8268 4.74746 10.8268C4.66506 10.8268 4.59605 10.8937 4.58472 10.9844C4.58472 10.9845 4.1995 14.4997 4.1995 14.4997L4.58472 17.9368C4.59605 18.0295 4.66403 18.0954 4.74746 18.0954C4.82985 18.0954 4.8968 18.0305 4.91019 17.9378L5.34794 14.4997L4.91019 10.9844ZM10.9727 7.74197C10.8151 7.74197 10.6843 7.87072 10.6771 8.03551L10.3702 14.5028L10.6771 18.6825C10.6854 18.8463 10.8151 18.975 10.9727 18.975C11.1293 18.975 11.2601 18.8463 11.2694 18.6825V18.6826L11.6154 14.5029L11.2694 8.03562C11.2601 7.87185 11.1303 7.74207 10.9727 7.74207V7.74197ZM7.83434 9.98951C7.7128 9.98951 7.61392 10.0863 7.60465 10.2151L7.2596 14.4998L7.60465 18.6404C7.61392 18.7692 7.7128 18.866 7.83434 18.866C7.95382 18.866 8.05373 18.7692 8.06403 18.6404L8.45645 14.4998L8.06403 10.214C8.063 10.0853 7.95485 9.98848 7.83434 9.98848V9.98951ZM14.1616 18.9721C14.3573 18.9721 14.5169 18.8145 14.5241 18.6126L14.8249 14.504L14.5252 5.89427C14.5169 5.69239 14.3583 5.5348 14.1626 5.5348C13.9648 5.5348 13.8052 5.69342 13.799 5.8953L13.5323 14.504L13.799 18.6147C13.8052 18.8155 13.9648 18.9731 14.1616 18.9731V18.9721ZM20.6897 18.9916C20.9595 18.9916 21.181 18.7702 21.1861 18.4972V18.5003V18.4972L21.3962 14.506L21.1861 4.56249C21.181 4.29057 20.9585 4.06809 20.6897 4.06809C20.4198 4.06809 20.1973 4.28954 20.1932 4.56352L20.0057 14.504C20.0057 14.5101 20.1932 18.5014 20.1932 18.5014C20.1973 18.7712 20.4208 18.9937 20.6897 18.9937V18.9916ZM17.4009 18.9782C17.6357 18.9782 17.8242 18.7898 17.8304 18.5498V18.5529L18.0858 14.506L17.8304 5.8335C17.8242 5.59351 17.6347 5.40605 17.4009 5.40605C17.165 5.40605 16.9755 5.59351 16.9704 5.8335L16.7438 14.506L16.9714 18.5518C16.9765 18.7887 17.165 18.9772 17.4019 18.9772L17.4009 18.9782ZM9.3989 18.9391C9.53794 18.9391 9.65124 18.8279 9.66154 18.6806L10.0313 14.5009L9.66154 10.5241C9.66051 10.3768 9.53897 10.2666 9.3989 10.2666C9.25779 10.2666 9.14449 10.3778 9.13625 10.5261L8.81077 14.5009L9.13625 18.6806C9.14552 18.8279 9.25779 18.9391 9.3989 18.9391ZM6.28832 18.7104C6.39029 18.7104 6.47269 18.6301 6.48402 18.5189L6.89911 14.4998L6.48402 10.3294C6.47166 10.2182 6.38926 10.1378 6.28729 10.1378C6.18429 10.1378 6.10189 10.2182 6.09159 10.3294L5.72595 14.4998L6.09159 18.5178C6.09262 18.6291 6.18429 18.7104 6.28729 18.7104H6.28832ZM19.0417 5.68827C18.7873 5.68827 18.5833 5.89118 18.5782 6.1497L18.3711 14.505L18.5782 18.5261C18.5833 18.7815 18.7873 18.9844 19.0417 18.9844C19.2961 18.9844 19.499 18.7825 19.5052 18.523V18.5261L19.7379 14.505L19.5052 6.14764C19.499 5.88912 19.2961 5.68724 19.0417 5.68724V5.68827ZM12.5641 18.9803C12.7402 18.9803 12.8854 18.8371 12.8937 18.6538L13.2171 14.5029L12.8937 6.55655C12.8844 6.37321 12.7402 6.23004 12.5641 6.23004C12.3869 6.23004 12.2417 6.37321 12.2345 6.55655L11.9481 14.5029L12.2345 18.6538C12.2417 18.8351 12.3869 18.9782 12.5641 18.9782V18.9803ZM16.1742 18.5868V18.5848L16.4523 14.5019L16.1742 5.60175C16.168 5.3803 15.9929 5.20726 15.7776 5.20726C15.5613 5.20726 15.3873 5.3803 15.3811 5.60175L15.1349 14.5009L15.3821 18.5858C15.3883 18.8052 15.5624 18.9772 15.7787 18.9772C15.9939 18.9772 16.168 18.8042 16.1752 18.5838L16.1742 18.5868ZM37.186 9.37152C36.5268 9.37152 35.8975 9.50541 35.3238 9.7454C34.9406 5.40605 31.3027 2.00296 26.8645 2.00296C25.7788 2.00296 24.72 2.2172 23.7848 2.57872C23.4212 2.7188 23.3244 2.86403 23.3213 3.14522V18.4251C23.3254 18.7197 23.5541 18.9648 23.8414 18.9947C23.8538 18.9948 37.1005 19.003 37.186 19.003C39.8444 19.003 42.0002 16.8472 42.0002 14.1888C42.0002 11.5293 39.8454 9.37358 37.186 9.37358V9.37152ZM22.3366 3.13183C22.0472 3.13183 21.8103 3.36873 21.8062 3.66125L21.5888 14.506L21.8062 18.4416C21.8103 18.729 22.0472 18.9659 22.3366 18.9659C22.625 18.9659 22.8619 18.729 22.8671 18.4375V18.4426L23.1029 14.506L22.8671 3.66022C22.8629 3.36976 22.625 3.13183 22.3366 3.13183Z"/>
</mask>
<path d="M3.30032 12.172C3.21895 12.172 3.15406 12.2348 3.14376 12.3254L2.85742 14.4997L3.14376 16.6359C3.14479 16.7255 3.21895 16.7884 3.30032 16.7884C3.37963 16.7884 3.44349 16.7266 3.45688 16.6359L3.79574 14.4987L3.45688 12.3244C3.44452 12.2348 3.37963 12.172 3.30032 12.172ZM4.91019 10.9844C4.8968 10.8906 4.82985 10.8268 4.74746 10.8268C4.66506 10.8268 4.59605 10.8937 4.58472 10.9844C4.58472 10.9845 4.1995 14.4997 4.1995 14.4997L4.58472 17.9368C4.59605 18.0295 4.66403 18.0954 4.74746 18.0954C4.82985 18.0954 4.8968 18.0305 4.91019 17.9378L5.34794 14.4997L4.91019 10.9844ZM10.9727 7.74197C10.8151 7.74197 10.6843 7.87072 10.6771 8.03551L10.3702 14.5028L10.6771 18.6825C10.6854 18.8463 10.8151 18.975 10.9727 18.975C11.1293 18.975 11.2601 18.8463 11.2694 18.6825V18.6826L11.6154 14.5029L11.2694 8.03562C11.2601 7.87185 11.1303 7.74207 10.9727 7.74207V7.74197ZM7.83434 9.98951C7.7128 9.98951 7.61392 10.0863 7.60465 10.2151L7.2596 14.4998L7.60465 18.6404C7.61392 18.7692 7.7128 18.866 7.83434 18.866C7.95382 18.866 8.05373 18.7692 8.06403 18.6404L8.45645 14.4998L8.06403 10.214C8.063 10.0853 7.95485 9.98848 7.83434 9.98848V9.98951ZM14.1616 18.9721C14.3573 18.9721 14.5169 18.8145 14.5241 18.6126L14.8249 14.504L14.5252 5.89427C14.5169 5.69239 14.3583 5.5348 14.1626 5.5348C13.9648 5.5348 13.8052 5.69342 13.799 5.8953L13.5323 14.504L13.799 18.6147C13.8052 18.8155 13.9648 18.9731 14.1616 18.9731V18.9721ZM20.6897 18.9916C20.9595 18.9916 21.181 18.7702 21.1861 18.4972V18.5003V18.4972L21.3962 14.506L21.1861 4.56249C21.181 4.29057 20.9585 4.06809 20.6897 4.06809C20.4198 4.06809 20.1973 4.28954 20.1932 4.56352L20.0057 14.504C20.0057 14.5101 20.1932 18.5014 20.1932 18.5014C20.1973 18.7712 20.4208 18.9937 20.6897 18.9937V18.9916ZM17.4009 18.9782C17.6357 18.9782 17.8242 18.7898 17.8304 18.5498V18.5529L18.0858 14.506L17.8304 5.8335C17.8242 5.59351 17.6347 5.40605 17.4009 5.40605C17.165 5.40605 16.9755 5.59351 16.9704 5.8335L16.7438 14.506L16.9714 18.5518C16.9765 18.7887 17.165 18.9772 17.4019 18.9772L17.4009 18.9782ZM9.3989 18.9391C9.53794 18.9391 9.65124 18.8279 9.66154 18.6806L10.0313 14.5009L9.66154 10.5241C9.66051 10.3768 9.53897 10.2666 9.3989 10.2666C9.25779 10.2666 9.14449 10.3778 9.13625 10.5261L8.81077 14.5009L9.13625 18.6806C9.14552 18.8279 9.25779 18.9391 9.3989 18.9391ZM6.28832 18.7104C6.39029 18.7104 6.47269 18.6301 6.48402 18.5189L6.89911 14.4998L6.48402 10.3294C6.47166 10.2182 6.38926 10.1378 6.28729 10.1378C6.18429 10.1378 6.10189 10.2182 6.09159 10.3294L5.72595 14.4998L6.09159 18.5178C6.09262 18.6291 6.18429 18.7104 6.28729 18.7104H6.28832ZM19.0417 5.68827C18.7873 5.68827 18.5833 5.89118 18.5782 6.1497L18.3711 14.505L18.5782 18.5261C18.5833 18.7815 18.7873 18.9844 19.0417 18.9844C19.2961 18.9844 19.499 18.7825 19.5052 18.523V18.5261L19.7379 14.505L19.5052 6.14764C19.499 5.88912 19.2961 5.68724 19.0417 5.68724V5.68827ZM12.5641 18.9803C12.7402 18.9803 12.8854 18.8371 12.8937 18.6538L13.2171 14.5029L12.8937 6.55655C12.8844 6.37321 12.7402 6.23004 12.5641 6.23004C12.3869 6.23004 12.2417 6.37321 12.2345 6.55655L11.9481 14.5029L12.2345 18.6538C12.2417 18.8351 12.3869 18.9782 12.5641 18.9782V18.9803ZM16.1742 18.5868V18.5848L16.4523 14.5019L16.1742 5.60175C16.168 5.3803 15.9929 5.20726 15.7776 5.20726C15.5613 5.20726 15.3873 5.3803 15.3811 5.60175L15.1349 14.5009L15.3821 18.5858C15.3883 18.8052 15.5624 18.9772 15.7787 18.9772C15.9939 18.9772 16.168 18.8042 16.1752 18.5838L16.1742 18.5868ZM37.186 9.37152C36.5268 9.37152 35.8975 9.50541 35.3238 9.7454C34.9406 5.40605 31.3027 2.00296 26.8645 2.00296C25.7788 2.00296 24.72 2.2172 23.7848 2.57872C23.4212 2.7188 23.3244 2.86403 23.3213 3.14522V18.4251C23.3254 18.7197 23.5541 18.9648 23.8414 18.9947C23.8538 18.9948 37.1005 19.003 37.186 19.003C39.8444 19.003 42.0002 16.8472 42.0002 14.1888C42.0002 11.5293 39.8454 9.37358 37.186 9.37358V9.37152ZM22.3366 3.13183C22.0472 3.13183 21.8103 3.36873 21.8062 3.66125L21.5888 14.506L21.8062 18.4416C21.8103 18.729 22.0472 18.9659 22.3366 18.9659C22.625 18.9659 22.8619 18.729 22.8671 18.4375V18.4426L23.1029 14.506L22.8671 3.66022C22.8629 3.36976 22.625 3.13183 22.3366 3.13183Z" fill="white"/>
<path d="M3.14376 12.3254L5.12664 12.5866L5.12896 12.5689L5.13097 12.5512L3.14376 12.3254ZM2.85742 14.4997L0.874542 14.2386L0.839847 14.5021L0.87515 14.7654L2.85742 14.4997ZM3.14376 16.6359L5.14363 16.613L5.14223 16.4911L5.12603 16.3702L3.14376 16.6359ZM3.45688 16.6359L1.48155 16.3227L1.47989 16.3332L1.47835 16.3437L3.45688 16.6359ZM3.79574 14.4987L5.77107 14.8119L5.8203 14.5014L5.77189 14.1907L3.79574 14.4987ZM3.45688 12.3244L1.47563 12.5977L1.47803 12.615L1.48073 12.6324L3.45688 12.3244ZM4.91019 10.9844L6.89487 10.7372L6.89264 10.7194L6.89009 10.7015L4.91019 10.9844ZM4.58472 10.9844L2.60016 10.7363L2.58472 10.8599V10.9844H4.58472ZM4.1995 14.4997L2.2114 14.2819L2.18726 14.5022L2.21194 14.7225L4.1995 14.4997ZM4.58472 17.9368L2.59716 18.1596L2.59828 18.1695L2.59949 18.1795L4.58472 17.9368ZM4.91019 17.9378L6.88965 18.2238L6.89205 18.2071L6.89418 18.1905L4.91019 17.9378ZM5.34794 14.4997L7.33192 14.7523L7.36373 14.5025L7.33261 14.2526L5.34794 14.4997ZM10.9727 7.74197H12.9727V5.74197H10.9727V7.74197ZM10.6771 8.03551L12.6749 8.13033L12.6752 8.12293L10.6771 8.03551ZM10.3702 14.5028L8.37243 14.408L8.3667 14.5288L8.37555 14.6493L10.3702 14.5028ZM10.6771 18.6825L12.6746 18.582L12.6734 18.559L12.6717 18.5361L10.6771 18.6825ZM11.2694 18.6825H13.2694L9.27256 18.5695L11.2694 18.6825ZM11.2694 18.6826H9.26936L13.2625 18.8477L11.2694 18.6826ZM11.6154 14.5029L13.6086 14.668L13.6199 14.5321L13.6126 14.3961L11.6154 14.5029ZM11.2694 8.03562L13.2665 7.92875L13.2662 7.92259L11.2694 8.03562ZM10.9727 7.74207H8.97272V9.74207H10.9727V7.74207ZM7.83434 9.98951V11.9895H9.83434V9.98951H7.83434ZM7.60465 10.2151L9.5982 10.3756L9.59888 10.3672L9.59949 10.3587L7.60465 10.2151ZM7.2596 14.4998L5.26606 14.3393L5.2529 14.5026L5.26651 14.6659L7.2596 14.4998ZM7.60465 18.6404L9.59949 18.4968L9.59868 18.4855L9.59774 18.4743L7.60465 18.6404ZM8.06403 18.6404L6.07295 18.4517L6.07157 18.4663L6.0704 18.4809L8.06403 18.6404ZM8.45645 14.4998L10.4475 14.6885L10.4651 14.503L10.4481 14.3175L8.45645 14.4998ZM8.06403 10.214L6.06409 10.23L6.06476 10.3134L6.07236 10.3964L8.06403 10.214ZM7.83434 9.98848V7.98848H5.83434V9.98848H7.83434ZM14.1616 18.9721V16.9721H12.1616V18.9721H14.1616ZM14.5241 18.6126L12.5295 18.4666L12.5267 18.5039L12.5254 18.5412L14.5241 18.6126ZM14.8249 14.504L16.8196 14.65L16.8274 14.5423L16.8237 14.4344L14.8249 14.504ZM14.5252 5.89427L16.524 5.82468L16.5235 5.8127L14.5252 5.89427ZM13.799 5.8953L15.7981 5.95724L15.7981 5.95649L13.799 5.8953ZM13.5323 14.504L11.5332 14.442L11.5302 14.5378L11.5364 14.6335L13.5323 14.504ZM13.799 18.6147L15.7981 18.5531L15.797 18.5191L15.7948 18.4851L13.799 18.6147ZM14.1616 18.9731V20.9731H16.1616V18.9731H14.1616ZM20.6897 18.9916V16.9916H18.6897V18.9916H20.6897ZM21.1861 18.4972H23.1861L19.1865 18.4595L21.1861 18.4972ZM21.1861 18.4972L19.1889 18.3921L19.1861 18.4446V18.4972H21.1861ZM21.3962 14.506L23.3935 14.6112L23.3973 14.5375L23.3958 14.4638L21.3962 14.506ZM21.1861 4.56249L19.1865 4.60036L19.1866 4.60474L21.1861 4.56249ZM20.1932 4.56352L22.1929 4.60123L22.193 4.59359L20.1932 4.56352ZM20.0057 14.504L18.0061 14.4663L18.0057 14.4851V14.504H20.0057ZM20.1932 18.5014L22.193 18.4708L22.1925 18.4392L22.191 18.4075L20.1932 18.5014ZM20.6897 18.9937V20.9937H22.6897V18.9937H20.6897ZM17.4009 18.9782L15.9867 17.564L12.5725 20.9782H17.4009V18.9782ZM17.8304 18.5498H19.8304L15.8311 18.4983L17.8304 18.5498ZM17.8304 18.5529H15.8304L19.8264 18.6788L17.8304 18.5529ZM18.0858 14.506L20.0819 14.632L20.0877 14.5396L20.085 14.4471L18.0858 14.506ZM17.8304 5.8335L15.8311 5.88498L15.8313 5.89238L17.8304 5.8335ZM16.9704 5.8335L18.9697 5.88573L18.9699 5.8764L16.9704 5.8335ZM16.7438 14.506L14.7444 14.4538L14.7423 14.5361L14.7469 14.6184L16.7438 14.506ZM16.9714 18.5518L18.9709 18.5084L18.9702 18.4739L18.9682 18.4395L16.9714 18.5518ZM17.4019 18.9772L18.8161 20.3914L22.2304 16.9772H17.4019V18.9772ZM9.66154 18.6806L7.66932 18.5043L7.6677 18.5227L7.66642 18.5411L9.66154 18.6806ZM10.0313 14.5009L12.0235 14.6771L12.0395 14.4964L12.0227 14.3157L10.0313 14.5009ZM9.66154 10.5241L7.66159 10.5381L7.66219 10.6238L7.67013 10.7092L9.66154 10.5241ZM9.13625 10.5261L11.1296 10.6894L11.1317 10.6632L11.1332 10.6371L9.13625 10.5261ZM8.81077 14.5009L6.81744 14.3376L6.8044 14.4969L6.81681 14.6561L8.81077 14.5009ZM9.13625 18.6806L11.1323 18.555L11.1314 18.5401L11.1302 18.5253L9.13625 18.6806ZM6.48402 18.5189L4.4946 18.3134L4.49431 18.3162L6.48402 18.5189ZM6.89911 14.4998L8.88852 14.7053L8.90936 14.5036L8.88927 14.3018L6.89911 14.4998ZM6.48402 10.3294L8.47419 10.1313L8.47305 10.1199L8.47179 10.1085L6.48402 10.3294ZM6.09159 10.3294L4.10009 10.145L4.09924 10.1547L6.09159 10.3294ZM5.72595 14.4998L3.73359 14.3252L3.71798 14.5032L3.73418 14.6811L5.72595 14.4998ZM6.09159 18.5178L8.09151 18.4993L8.09075 18.4178L8.08336 18.3366L6.09159 18.5178ZM19.0417 5.68827V7.68827H21.0417V5.68827H19.0417ZM18.5782 6.1497L20.5776 6.19925L20.5778 6.18954L18.5782 6.1497ZM18.3711 14.505L16.3718 14.4555L16.3699 14.5317L16.3738 14.6078L18.3711 14.505ZM18.5782 18.5261L20.5778 18.4858L20.5771 18.4545L20.5755 18.4232L18.5782 18.5261ZM19.5052 18.523H21.5052L17.5057 18.4754L19.5052 18.523ZM19.5052 18.5261H17.5052L21.5018 18.6417L19.5052 18.5261ZM19.7379 14.505L21.7346 14.6206L21.7396 14.535L21.7372 14.4493L19.7379 14.505ZM19.5052 6.14764L17.5057 6.19544L17.5059 6.20333L19.5052 6.14764ZM19.0417 5.68724V3.68724H17.0417V5.68724H19.0417ZM12.5641 18.9803H10.5641V20.9803H12.5641V18.9803ZM12.8937 18.6538L10.8997 18.4984L10.8971 18.5312L10.8957 18.564L12.8937 18.6538ZM13.2171 14.5029L15.211 14.6583L15.2202 14.5401L15.2154 14.4216L13.2171 14.5029ZM12.8937 6.55655L14.892 6.47522L14.8916 6.46539L14.8911 6.45556L12.8937 6.55655ZM12.2345 6.55655L10.236 6.47796L10.2358 6.48453L12.2345 6.55655ZM11.9481 14.5029L9.94942 14.4309L9.94564 14.5358L9.95287 14.6406L11.9481 14.5029ZM12.2345 18.6538L14.2329 18.5743L14.2317 18.5452L14.2297 18.5162L12.2345 18.6538ZM12.5641 18.9782H14.5641V16.9782H12.5641V18.9782ZM16.1742 18.5868H14.1742L18.0715 19.2193L16.1742 18.5868ZM16.1742 18.5848L14.1788 18.4489L14.1742 18.5168V18.5848H16.1742ZM16.4523 14.5019L18.4477 14.6378L18.4544 14.5387L18.4513 14.4394L16.4523 14.5019ZM16.1742 5.60175L14.1749 5.65754L14.1752 5.66421L16.1742 5.60175ZM15.3811 5.60175L13.3819 5.54596L13.3818 5.54645L15.3811 5.60175ZM15.1349 14.5009L13.1357 14.4456L13.1332 14.5337L13.1386 14.6217L15.1349 14.5009ZM15.3821 18.5858L17.3813 18.5295L17.3804 18.4972L17.3785 18.465L15.3821 18.5858ZM16.1752 18.5838L18.1741 18.6491L14.2778 17.9513L16.1752 18.5838ZM37.186 9.37152H39.186V7.37152H37.186V9.37152ZM35.3238 9.7454L33.3315 9.92131L33.5721 12.6461L36.0956 11.5905L35.3238 9.7454ZM23.7848 2.57872L24.5038 4.44501L24.5059 4.44419L23.7848 2.57872ZM23.3213 3.14522L21.3214 3.12324L21.3213 3.13423V3.14522H23.3213ZM23.3213 18.4251H21.3213V18.4391L21.3215 18.4531L23.3213 18.4251ZM23.8414 18.9947L23.6347 20.984L23.7295 20.9939L23.8248 20.9946L23.8414 18.9947ZM37.186 9.37358H35.186V11.3736H37.186V9.37358ZM21.8062 3.66125L23.8058 3.70132L23.806 3.68941L21.8062 3.66125ZM21.5888 14.506L19.5892 14.4659L19.5877 14.5412L19.5919 14.6163L21.5888 14.506ZM21.8062 18.4416L23.806 18.4129L23.8054 18.3721L23.8031 18.3313L21.8062 18.4416ZM22.8671 18.4375H24.8671L20.8674 18.4022L22.8671 18.4375ZM22.8671 18.4426H20.8671L24.8635 18.5623L22.8671 18.4426ZM23.1029 14.506L25.0993 14.6256L25.1042 14.5442L25.1025 14.4625L23.1029 14.506ZM22.8671 3.66022L20.8673 3.68858L20.8674 3.69614L20.8675 3.7037L22.8671 3.66022ZM3.30032 10.172C2.04563 10.172 1.26316 11.1614 1.15655 12.0996L5.13097 12.5512C5.04495 13.3082 4.39226 14.172 3.30032 14.172V10.172ZM1.16088 12.0643L0.874542 14.2386L4.8403 14.7609L5.12664 12.5866L1.16088 12.0643ZM0.87515 14.7654L1.16149 16.9016L5.12603 16.3702L4.83969 14.234L0.87515 14.7654ZM1.14389 16.6589C1.15874 17.9507 2.2332 18.7884 3.30032 18.7884V14.7884C4.2047 14.7884 5.13084 15.5003 5.14363 16.613L1.14389 16.6589ZM3.30032 18.7884C4.57231 18.7884 5.30855 17.7869 5.4354 16.9282L1.47835 16.3437C1.57843 15.6662 2.18694 14.7884 3.30032 14.7884V18.7884ZM5.4322 16.9491L5.77107 14.8119L1.82042 14.1855L1.48155 16.3227L5.4322 16.9491ZM5.77189 14.1907L5.43302 12.0164L1.48073 12.6324L1.8196 14.8067L5.77189 14.1907ZM5.43812 12.0511C5.31636 11.1683 4.56489 10.172 3.30032 10.172V14.172C2.19437 14.172 1.57268 13.3012 1.47563 12.5977L5.43812 12.0511ZM6.89009 10.7015C6.76303 9.81212 6.00539 8.82679 4.74746 8.82679V12.8268C3.65431 12.8268 3.03058 11.9692 2.9303 11.2672L6.89009 10.7015ZM4.74746 8.82679C3.49584 8.82679 2.71561 9.81274 2.60016 10.7363L6.56927 11.2324C6.47649 11.9747 5.83428 12.8268 4.74746 12.8268V8.82679ZM2.58472 10.9844C2.58761 10.8769 2.59636 10.7689 2.59644 10.7682C2.59647 10.7679 2.5965 10.7676 2.59651 10.7675C2.59652 10.7674 2.59652 10.7674 2.5965 10.7676C2.59647 10.7679 2.59641 10.7684 2.59632 10.7693C2.59614 10.7709 2.59587 10.7734 2.5955 10.7767C2.59478 10.7833 2.5937 10.7932 2.59229 10.8061C2.58947 10.8318 2.58533 10.8696 2.58006 10.9176C2.56953 11.0137 2.55448 11.1511 2.53643 11.3158C2.50031 11.6454 2.45216 12.0848 2.40401 12.5242C2.35586 12.9636 2.30771 13.4031 2.27159 13.7326C2.25353 13.8974 2.23849 14.0347 2.22795 14.1308C2.22269 14.1789 2.21855 14.2166 2.21573 14.2424C2.21432 14.2553 2.21324 14.2651 2.21251 14.2718C2.21214 14.2751 2.21187 14.2776 2.21168 14.2793C2.21159 14.2802 2.21152 14.2808 2.21147 14.2812C2.21145 14.2814 2.21143 14.2816 2.21142 14.2817C2.21141 14.2818 2.21141 14.2818 2.21141 14.2818C2.2114 14.2819 2.2114 14.2819 4.1995 14.4997C6.1876 14.7176 6.1876 14.7176 6.1876 14.7176C6.18761 14.7175 6.18761 14.7175 6.18762 14.7174C6.18763 14.7173 6.18765 14.7172 6.18767 14.717C6.18772 14.7165 6.18779 14.7159 6.18788 14.7151C6.18806 14.7134 6.18834 14.7108 6.1887 14.7075C6.18943 14.7009 6.19051 14.691 6.19192 14.6781C6.19475 14.6524 6.19888 14.6146 6.20415 14.5666C6.21468 14.4704 6.22973 14.3331 6.24779 14.1683C6.2839 13.8388 6.33206 13.3994 6.38021 12.96C6.42836 12.5205 6.47651 12.0811 6.51263 11.7516C6.53068 11.5868 6.54573 11.4494 6.55627 11.3533C6.56153 11.3052 6.56567 11.2675 6.56849 11.2417C6.56991 11.2288 6.57099 11.2189 6.57172 11.2122C6.57209 11.2089 6.57237 11.2063 6.57256 11.2046C6.57265 11.2037 6.57273 11.203 6.57279 11.2025C6.57282 11.2022 6.57285 11.2019 6.57289 11.2016C6.57291 11.2014 6.57295 11.201 6.57299 11.2007C6.57307 11.1999 6.58183 11.0919 6.58472 10.9844H2.58472ZM2.21194 14.7225L2.59716 18.1596L6.57227 17.7141L6.18706 14.277L2.21194 14.7225ZM2.59949 18.1795C2.71249 19.104 3.4896 20.0954 4.74746 20.0954V16.0954C5.83845 16.0954 6.4796 16.955 6.56994 17.6942L2.59949 18.1795ZM4.74746 20.0954C6.01434 20.0954 6.76317 19.0994 6.88965 18.2238L2.93074 17.6519C3.03044 16.9617 3.64537 16.0954 4.74746 16.0954V20.0954ZM6.89418 18.1905L7.33192 14.7523L3.36396 14.2471L2.92621 17.6852L6.89418 18.1905ZM7.33261 14.2526L6.89487 10.7372L2.92552 11.2315L3.36327 14.7469L7.33261 14.2526ZM10.9727 5.74197C9.68234 5.74197 8.73026 6.77702 8.67903 7.9481L12.6752 8.12293C12.6384 8.96441 11.9479 9.74197 10.9727 9.74197V5.74197ZM8.67936 7.9407L8.37243 14.408L12.3679 14.5976L12.6749 8.13033L8.67936 7.9407ZM8.37555 14.6493L8.68249 18.829L12.6717 18.5361L12.3648 14.3564L8.37555 14.6493ZM8.67964 18.783C8.73764 19.9357 9.67586 20.975 10.9727 20.975V16.975C11.9544 16.975 12.6331 17.7569 12.6746 18.582L8.67964 18.783ZM10.9727 20.975C12.2661 20.975 13.2014 19.9406 13.2662 18.7956L9.27256 18.5695C9.31883 17.752 9.9925 16.975 10.9727 16.975V20.975ZM9.26936 18.6825V18.6826H13.2694V18.6825H9.26936ZM13.2625 18.8477L13.6086 14.668L9.62226 14.3379L9.27618 18.5176L13.2625 18.8477ZM13.6126 14.3961L13.2665 7.92875L9.27222 8.14249L9.61829 14.6098L13.6126 14.3961ZM13.2662 7.92259C13.2021 6.79126 12.2802 5.74207 10.9727 5.74207V9.74207C9.98045 9.74207 9.31805 8.95243 9.27256 8.14864L13.2662 7.92259ZM12.9727 7.74207V7.74197H8.97272V7.74207H12.9727ZM7.83434 7.98951C6.56899 7.98951 5.68739 8.99403 5.60982 10.0715L9.59949 10.3587C9.54045 11.1786 8.85661 11.9895 7.83434 11.9895V7.98951ZM5.6111 10.0545L5.26606 14.3393L9.25315 14.6604L9.5982 10.3756L5.6111 10.0545ZM5.26651 14.6659L5.61156 18.8065L9.59774 18.4743L9.2527 14.3338L5.26651 14.6659ZM5.60982 18.784C5.68739 19.8615 6.56903 20.866 7.83434 20.866V16.866C8.85657 16.866 9.54045 17.6768 9.59949 18.4968L5.60982 18.784ZM7.83434 20.866C9.09959 20.866 9.97268 19.8621 10.0577 18.7999L6.0704 18.4809C6.13477 17.6762 6.80805 16.866 7.83434 16.866V20.866ZM10.0551 18.8291L10.4475 14.6885L6.46538 14.3111L6.07295 18.4517L10.0551 18.8291ZM10.4481 14.3175L10.0557 10.0317L6.07236 10.3964L6.46479 14.6822L10.4481 14.3175ZM10.064 10.198C10.0536 8.89886 8.9796 7.98848 7.83434 7.98848V11.9885C6.9301 11.9885 6.07242 11.2717 6.06409 10.23L10.064 10.198ZM5.83434 9.98848V9.98951H9.83434V9.98848H5.83434ZM14.1616 20.9721C15.4815 20.9721 16.4789 19.9139 16.5229 18.684L12.5254 18.5412C12.5549 17.7151 13.233 16.9721 14.1616 16.9721V20.9721ZM16.5188 18.7586L16.8196 14.65L12.8302 14.3579L12.5295 18.4666L16.5188 18.7586ZM16.8237 14.4344L16.5239 5.82468L12.5264 5.96385L12.8261 14.5735L16.8237 14.4344ZM16.5235 5.8127C16.474 4.60007 15.4913 3.5348 14.1626 3.5348V7.5348C13.2253 7.5348 12.5598 6.78471 12.5268 5.97583L16.5235 5.8127ZM14.1626 3.5348C12.8422 3.5348 11.8379 4.59438 11.8 5.8341L15.7981 5.95649C15.7725 6.79246 15.0875 7.5348 14.1626 7.5348V3.5348ZM11.8 5.83335L11.5332 14.442L15.5313 14.5659L15.7981 5.95724L11.8 5.83335ZM11.5364 14.6335L11.8032 18.7442L15.7948 18.4851L15.5281 14.3744L11.5364 14.6335ZM11.8 18.6762C11.8383 19.922 12.8494 20.9731 14.1616 20.9731V16.9731C15.0803 16.9731 15.7721 17.7091 15.7981 18.5531L11.8 18.6762ZM16.1616 18.9731V18.9721H12.1616V18.9731H16.1616ZM20.6897 20.9916C22.0791 20.9916 23.1606 19.8676 23.1858 18.535L19.1865 18.4595C19.2013 17.6728 19.8399 16.9916 20.6897 16.9916V20.9916ZM19.1861 18.4972V18.5003H23.1861V18.4972H19.1861ZM23.1861 18.5003V18.4972H19.1861V18.5003H23.1861ZM23.1833 18.6024L23.3935 14.6112L19.399 14.4009L19.1889 18.3921L23.1833 18.6024ZM23.3958 14.4638L23.1857 4.52023L19.1866 4.60474L19.3967 14.5483L23.3958 14.4638ZM23.1858 4.52462C23.1605 3.19321 22.0782 2.06809 20.6897 2.06809V6.06809C19.8388 6.06809 19.2014 5.38793 19.1865 4.60036L23.1858 4.52462ZM20.6897 2.06809C19.3043 2.06809 18.2136 3.18958 18.1934 4.53345L22.193 4.59359C22.181 5.3895 21.5353 6.06809 20.6897 6.06809V2.06809ZM18.1936 4.52581L18.0061 14.4663L22.0054 14.5417L22.1928 4.60123L18.1936 4.52581ZM18.0057 14.504C18.0057 14.5696 18.0577 15.6622 18.1017 16.5987C18.1251 17.098 18.1485 17.5972 18.1661 17.9714C18.1749 18.1586 18.1822 18.3145 18.1873 18.4237C18.1899 18.4782 18.1919 18.5211 18.1933 18.5504C18.194 18.565 18.1945 18.5762 18.1949 18.5837C18.195 18.5875 18.1952 18.5904 18.1953 18.5923C18.1953 18.5933 18.1953 18.594 18.1954 18.5945C18.1954 18.5947 18.1954 18.5949 18.1954 18.595C18.1954 18.5951 18.1954 18.5951 18.1954 18.5951C18.1954 18.5952 18.1954 18.5952 20.1932 18.5014C22.191 18.4075 22.191 18.4075 22.191 18.4075C22.191 18.4074 22.191 18.4074 22.191 18.4073C22.191 18.4072 22.191 18.407 22.191 18.4068C22.1909 18.4063 22.1909 18.4056 22.1909 18.4046C22.1908 18.4027 22.1906 18.3999 22.1905 18.3961C22.1901 18.3885 22.1896 18.3773 22.1889 18.3627C22.1875 18.3335 22.1855 18.2906 22.1829 18.236C22.1778 18.1269 22.1705 17.971 22.1617 17.7838C22.1441 17.4096 22.1207 16.9105 22.0973 16.4112C22.0475 15.3506 22.0057 14.4445 22.0057 14.504H18.0057ZM18.1934 18.5319C18.214 19.8791 19.3131 20.9937 20.6897 20.9937V16.9937C21.5286 16.9937 22.1806 17.6633 22.193 18.4708L18.1934 18.5319ZM22.6897 18.9937V18.9916H18.6897V18.9937H22.6897ZM17.4009 20.9782C18.7648 20.9782 19.7968 19.8803 19.8297 18.6012L15.8311 18.4983C15.8516 17.6992 16.5067 16.9782 17.4009 16.9782V20.9782ZM15.8304 18.5498V18.5529H19.8304V18.5498H15.8304ZM19.8264 18.6788L20.0819 14.632L16.0898 14.38L15.8344 18.4269L19.8264 18.6788ZM20.085 14.4471L19.8295 5.77461L15.8313 5.89238L16.0867 14.5649L20.085 14.4471ZM19.8297 5.78201C19.7966 4.49352 18.7545 3.40605 17.4009 3.40605V7.40605C16.5149 7.40605 15.8519 6.69349 15.8311 5.88498L19.8297 5.78201ZM17.4009 3.40605C16.0528 3.40605 14.9988 4.48753 14.9708 5.79059L18.9699 5.8764C18.9522 6.69948 18.2773 7.40605 17.4009 7.40605V3.40605ZM14.971 5.78126L14.7444 14.4538L18.7431 14.5583L18.9697 5.88573L14.971 5.78126ZM14.7469 14.6184L14.9745 18.6642L18.9682 18.4395L18.7406 14.3937L14.7469 14.6184ZM14.9719 18.5953C15.0001 19.8945 16.0525 20.9772 17.4019 20.9772V16.9772C18.2775 16.9772 18.953 17.6829 18.9709 18.5084L14.9719 18.5953ZM15.9877 17.563L15.9867 17.564L18.8151 20.3925L18.8161 20.3914L15.9877 17.563ZM9.3989 20.9391C10.684 20.9391 11.58 19.9171 11.6567 18.8201L7.66642 18.5411C7.72253 17.7386 8.39189 16.9391 9.3989 16.9391V20.9391ZM11.6538 18.8568L12.0235 14.6771L8.03909 14.3246L7.66932 18.5043L11.6538 18.8568ZM12.0227 14.3157L11.653 10.3389L7.67013 10.7092L8.0399 14.686L12.0227 14.3157ZM11.6615 10.5101C11.6523 9.19515 10.5682 8.26658 9.3989 8.26658V12.2666C8.50972 12.2666 7.66873 11.5584 7.66159 10.5381L11.6615 10.5101ZM9.3989 8.26658C8.12063 8.26658 7.20215 9.2843 7.13933 10.4152L11.1332 10.6371C11.0868 11.4713 10.3949 12.2666 9.3989 12.2666V8.26658ZM7.14292 10.3629L6.81744 14.3376L10.8041 14.6641L11.1296 10.6894L7.14292 10.3629ZM6.81681 14.6561L7.14228 18.8358L11.1302 18.5253L10.8047 14.3456L6.81681 14.6561ZM7.1402 18.8062C7.21008 19.9166 8.11355 20.9391 9.3989 20.9391V16.9391C10.402 16.9391 11.081 17.7391 11.1323 18.555L7.1402 18.8062ZM6.28832 20.7104C7.55527 20.7104 8.37313 19.7092 8.47373 18.7215L4.49431 18.3162C4.57226 17.551 5.22532 16.7104 6.28832 16.7104V20.7104ZM8.47344 18.7243L8.88852 14.7053L4.90969 14.2944L4.4946 18.3134L8.47344 18.7243ZM8.88927 14.3018L8.47419 10.1313L4.49385 10.5275L4.90894 14.6979L8.88927 14.3018ZM8.47179 10.1085C8.36397 9.13819 7.55592 8.13783 6.28729 8.13783V12.1378C5.2226 12.1378 4.57935 11.2981 4.49625 10.5503L8.47179 10.1085ZM6.28729 8.13783C5.02757 8.13783 4.19383 9.13292 4.10011 10.145L8.08308 10.5138C8.00996 11.3034 7.34101 12.1378 6.28729 12.1378V8.13783ZM4.09924 10.1547L3.73359 14.3252L7.7183 14.6745L8.08395 10.5041L4.09924 10.1547ZM3.73418 14.6811L4.09982 18.6991L8.08336 18.3366L7.71772 14.3186L3.73418 14.6811ZM4.09168 18.5364C4.10353 19.8163 5.15978 20.7104 6.28729 20.7104V16.7104C7.20881 16.7104 8.08172 17.4418 8.09151 18.4993L4.09168 18.5364ZM6.28729 20.7104H6.28832V16.7104H6.28729V20.7104ZM19.0417 3.68827C17.6698 3.68827 16.6048 4.79115 16.5786 6.10987L20.5778 6.18954C20.5618 6.9912 19.9047 7.68827 19.0417 7.68827V3.68827ZM16.5788 6.10016L16.3718 14.4555L20.3705 14.5545L20.5776 6.19924L16.5788 6.10016ZM16.3738 14.6078L16.5808 18.6289L20.5755 18.4232L20.3685 14.4022L16.3738 14.6078ZM16.5786 18.5664C16.6053 19.8901 17.6782 20.9844 19.0417 20.9844V16.9844C19.8963 16.9844 20.5614 17.6729 20.5778 18.4858L16.5786 18.5664ZM19.0417 20.9844C20.4176 20.9844 21.4734 19.88 21.5046 18.5706L17.5057 18.4754C17.5246 17.6851 18.1745 16.9844 19.0417 16.9844V20.9844ZM17.5052 18.523V18.5261H21.5052V18.523H17.5052ZM21.5018 18.6417L21.7346 14.6206L17.7413 14.3894L17.5085 18.4105L21.5018 18.6417ZM21.7372 14.4493L21.5044 6.09196L17.5059 6.20333L17.7387 14.5607L21.7372 14.4493ZM21.5046 6.09985C21.4733 4.7888 20.4149 3.68724 19.0417 3.68724V7.68724C18.1773 7.68724 17.5247 6.98943 17.5057 6.19544L21.5046 6.09985ZM17.0417 5.68724V5.68827H21.0417V5.68724H17.0417ZM12.5641 20.9803C13.872 20.9803 14.8382 19.9323 14.8916 18.7436L10.8957 18.564C10.9326 17.742 11.6084 16.9803 12.5641 16.9803V20.9803ZM14.8876 18.8092L15.211 14.6583L11.2231 14.3476L10.8997 18.4984L14.8876 18.8092ZM15.2154 14.4216L14.892 6.47522L10.8953 6.63788L11.2187 14.5843L15.2154 14.4216ZM14.8911 6.45556C14.832 5.28588 13.8815 4.23004 12.5641 4.23004V8.23004C11.5988 8.23004 10.9368 7.46054 10.8962 6.65755L14.8911 6.45556ZM12.5641 4.23004C11.2608 4.23004 10.2833 5.27435 10.236 6.47796L14.2329 6.63514C14.2 7.47208 13.513 8.23004 12.5641 8.23004V4.23004ZM10.2358 6.48453L9.94942 14.4309L13.9468 14.575L14.2332 6.62857L10.2358 6.48453ZM9.95287 14.6406L10.2392 18.7914L14.2297 18.5162L13.9434 14.3653L9.95287 14.6406ZM10.236 18.7333C10.2841 19.9419 11.2683 20.9782 12.5641 20.9782V16.9782C13.5055 16.9782 14.1992 17.7282 14.2329 18.5743L10.236 18.7333ZM10.5641 18.9782V18.9803H14.5641V18.9782H10.5641ZM18.1742 18.5868V18.5848H14.1742V18.5868H18.1742ZM18.1696 18.7207L18.4477 14.6378L14.4569 14.366L14.1788 18.4489L18.1696 18.7207ZM18.4513 14.4394L18.1732 5.53929L14.1752 5.66421L14.4532 14.5644L18.4513 14.4394ZM18.1734 5.54596C18.1381 4.28072 17.114 3.20726 15.7776 3.20726V7.20726C14.8718 7.20726 14.1979 6.47988 14.175 5.65754L18.1734 5.54596ZM15.7776 3.20726C14.4369 3.20726 13.4171 4.28411 13.3819 5.54596L17.3803 5.65754C17.3575 6.47649 16.6857 7.20726 15.7776 7.20726V3.20726ZM13.3818 5.54645L13.1357 14.4456L17.1342 14.5562L17.3803 5.65705L13.3818 5.54645ZM13.1386 14.6217L13.3858 18.7066L17.3785 18.465L17.1313 14.3801L13.1386 14.6217ZM13.3829 18.6421C13.4188 19.9149 14.4511 20.9772 15.7787 20.9772V16.9772C16.6736 16.9772 17.3578 17.6955 17.3813 18.5295L13.3829 18.6421ZM15.7787 20.9772C17.12 20.9772 18.1332 19.9006 18.1741 18.6491L14.1763 18.5184C14.2028 17.7078 14.8679 16.9772 15.7787 16.9772V20.9772ZM14.2778 17.9513L14.2768 17.9544L18.0715 19.2193L18.0726 19.2162L14.2778 17.9513ZM37.186 7.37152C36.2538 7.37152 35.3627 7.5612 34.552 7.90033L36.0956 11.5905C36.4323 11.4496 36.7998 11.3715 37.186 11.3715V7.37152ZM37.316 9.56949C36.8427 4.20899 32.3503 0.00296021 26.8645 0.00296021V4.00296C30.2551 4.00296 33.0385 6.60311 33.3315 9.92131L37.316 9.56949ZM26.8645 0.00296021C25.521 0.00296021 24.2182 0.266948 23.0637 0.713253L24.5059 4.44419C25.2218 4.16745 26.0367 4.00296 26.8645 4.00296V0.00296021ZM23.0658 0.712442C22.7736 0.825018 22.2515 1.05729 21.8464 1.57191C21.3926 2.1483 21.3254 2.76229 21.3214 3.12324L25.3212 3.1672C25.3203 3.24697 25.303 3.64775 24.9893 4.04621C24.7242 4.3829 24.4324 4.47251 24.5038 4.44501L23.0658 0.712442ZM21.3213 3.14522V18.4251H25.3213V3.14522H21.3213ZM21.3215 18.4531C21.3399 19.7709 22.3483 20.8503 23.6347 20.984L24.0482 17.0054C24.7598 17.0794 25.3109 17.6685 25.3211 18.3972L21.3215 18.4531ZM23.8248 20.9946C23.8481 20.9948 37.1085 21.003 37.186 21.003V17.003C37.186 17.003 37.1858 17.003 37.1851 17.003C37.1844 17.003 37.1836 17.003 37.1825 17.003C37.1803 17.003 37.1773 17.003 37.1735 17.003C37.1659 17.0029 37.1551 17.0029 37.1413 17.0029C37.1138 17.0029 37.0742 17.0029 37.0233 17.0029C36.9216 17.0028 36.775 17.0027 36.5898 17.0026C36.2193 17.0024 35.6948 17.0021 35.0678 17.0017C33.8137 17.0009 32.1495 16.9999 30.4875 16.9989C27.1534 16.9968 23.854 16.9948 23.8581 16.9948L23.8248 20.9946ZM37.186 21.003C40.949 21.003 44.0002 17.9518 44.0002 14.1888H40.0002C40.0002 15.7426 38.7398 17.003 37.186 17.003V21.003ZM44.0002 14.1888C44.0002 10.4253 40.9506 7.37358 37.186 7.37358V11.3736C38.7403 11.3736 40.0002 12.6334 40.0002 14.1888H44.0002ZM39.186 9.37358V9.37152H35.186V9.37358H39.186ZM22.3366 1.13183C20.9298 1.13183 19.8256 2.27101 19.8064 3.63308L23.806 3.68941C23.795 4.46645 23.1645 5.13183 22.3366 5.13183V1.13183ZM19.8066 3.62117L19.5892 14.4659L23.5884 14.5461L23.8058 3.70132L19.8066 3.62117ZM19.5919 14.6163L19.8092 18.5519L23.8031 18.3313L23.5858 14.3957L19.5919 14.6163ZM19.8064 18.4703C19.826 19.8392 20.9421 20.9659 22.3366 20.9659V16.9659C23.1522 16.9659 23.7946 17.6187 23.806 18.4129L19.8064 18.4703ZM22.3366 20.9659C23.7437 20.9659 24.8428 19.8269 24.8667 18.4728L20.8674 18.4022C20.881 17.6311 21.5063 16.9659 22.3366 16.9659V20.9659ZM20.8671 18.4375V18.4426H24.8671V18.4375H20.8671ZM24.8635 18.5623L25.0993 14.6256L21.1065 14.3864L20.8706 18.323L24.8635 18.5623ZM25.1025 14.4625L24.8666 3.61673L20.8675 3.7037L21.1034 14.5495L25.1025 14.4625ZM24.8669 3.63185C24.8475 2.26959 23.74 1.13183 22.3366 1.13183V5.13183C21.51 5.13183 20.8783 4.46993 20.8673 3.68858L24.8669 3.63185Z" fill="black" mask="url(#path-1-outside-1_1131_2960)"/>
</g>
<defs>
<filter id="filter0_ddd_1131_2960" x="0.839844" y="0.00296021" width="46.1602" height="21" filterUnits="userSpaceOnUse" color-interpolation-filters="sRGB">
<feFlood flood-opacity="0" result="BackgroundImageFix"/>
<feColorMatrix in="SourceAlpha" type="matrix" values="0 0 0 0 0 0 0 0 0 0 0 0 0 0 0 0 0 0 127 0" result="hardAlpha"/>
<feOffset dx="3"/>
<feComposite in2="hardAlpha" operator="out"/>
<feColorMatrix type="matrix" values="0 0 0 0 0 0 0 0 0 0 0 0 0 0 0 0 0 0 1 0"/>
<feBlend mode="normal" in2="BackgroundImageFix" result="effect1_dropShadow_1131_2960"/>
<feColorMatrix in="SourceAlpha" type="matrix" values="0 0 0 0 0 0 0 0 0 0 0 0 0 0 0 0 0 0 127 0" result="hardAlpha"/>
<feOffset dx="2"/>
<feComposite in2="hardAlpha" operator="out"/>
<feColorMatrix type="matrix" values="0 0 0 0 0 0 0 0 0 0 0 0 0 0 0 0 0 0 1 0"/>
<feBlend mode="normal" in2="effect1_dropShadow_1131_2960" result="effect2_dropShadow_1131_2960"/>
<feColorMatrix in="SourceAlpha" type="matrix" values="0 0 0 0 0 0 0 0 0 0 0 0 0 0 0 0 0 0 127 0" result="hardAlpha"/>
<feOffset dx="1"/>
<feComposite in2="hardAlpha" operator="out"/>
<feColorMatrix type="matrix" values="0 0 0 0 0 0 0 0 0 0 0 0 0 0 0 0 0 0 1 0"/>
<feBlend mode="normal" in2="effect2_dropShadow_1131_2960" result="effect3_dropShadow_1131_2960"/>
<feBlend mode="normal" in="SourceGraphic" in2="effect3_dropShadow_1131_2960" result="shape"/>
</filter>
</defs>
</svg>
