<svg width="44" height="35" viewBox="0 0 44 35" fill="none" xmlns="http://www.w3.org/2000/svg">
<g filter="url(#filter0_dddddddd_315_241)">
<mask id="path-1-outside-1_315_241" maskUnits="userSpaceOnUse" x="0.105469" y="0.501495" width="24" height="34" fill="black">
<rect fill="white" x="0.105469" y="0.501495" width="24" height="34"/>
<path fill-rule="evenodd" clip-rule="evenodd" d="M3.10547 2.5015C2.55318 2.5015 2.10547 2.94921 2.10547 3.5015V31.5015C2.10547 32.0538 2.55318 32.5015 3.10547 32.5015H21.1055C21.6578 32.5015 22.1055 32.0538 22.1055 31.5015V3.5015C22.1055 2.94921 21.6578 2.5015 21.1055 2.5015H3.10547ZM16.1055 9.5015C16.1055 11.7106 14.3146 13.5015 12.1055 13.5015C9.89633 13.5015 8.10547 11.7106 8.10547 9.5015C8.10547 7.29236 9.89633 5.5015 12.1055 5.5015C14.3146 5.5015 16.1055 7.29236 16.1055 9.5015ZM10.9055 9.5015C10.9055 10.1642 11.4427 10.7015 12.1055 10.7015C12.7682 10.7015 13.3055 10.1642 13.3055 9.5015C13.3055 8.83875 12.7682 8.3015 12.1055 8.3015C11.4427 8.3015 10.9055 8.83875 10.9055 9.5015ZM20.1055 22.5015C20.1055 26.9198 16.5237 30.5015 12.1055 30.5015C7.68719 30.5015 4.10547 26.9198 4.10547 22.5015C4.10547 18.0832 7.68719 14.5015 12.1055 14.5015C16.5237 14.5015 20.1055 18.0832 20.1055 22.5015ZM8.90547 22.5015C8.90547 24.2688 10.3382 25.7015 12.1055 25.7015C13.8728 25.7015 15.3055 24.2688 15.3055 22.5015C15.3055 20.7342 13.8728 19.3015 12.1055 19.3015C10.3382 19.3015 8.90547 20.7342 8.90547 22.5015Z"/>
</mask>
<path fill-rule="evenodd" clip-rule="evenodd" d="M3.10547 2.5015C2.55318 2.5015 2.10547 2.94921 2.10547 3.5015V31.5015C2.10547 32.0538 2.55318 32.5015 3.10547 32.5015H21.1055C21.6578 32.5015 22.1055 32.0538 22.1055 31.5015V3.5015C22.1055 2.94921 21.6578 2.5015 21.1055 2.5015H3.10547ZM16.1055 9.5015C16.1055 11.7106 14.3146 13.5015 12.1055 13.5015C9.89633 13.5015 8.10547 11.7106 8.10547 9.5015C8.10547 7.29236 9.89633 5.5015 12.1055 5.5015C14.3146 5.5015 16.1055 7.29236 16.1055 9.5015ZM10.9055 9.5015C10.9055 10.1642 11.4427 10.7015 12.1055 10.7015C12.7682 10.7015 13.3055 10.1642 13.3055 9.5015C13.3055 8.83875 12.7682 8.3015 12.1055 8.3015C11.4427 8.3015 10.9055 8.83875 10.9055 9.5015ZM20.1055 22.5015C20.1055 26.9198 16.5237 30.5015 12.1055 30.5015C7.68719 30.5015 4.10547 26.9198 4.10547 22.5015C4.10547 18.0832 7.68719 14.5015 12.1055 14.5015C16.5237 14.5015 20.1055 18.0832 20.1055 22.5015ZM8.90547 22.5015C8.90547 24.2688 10.3382 25.7015 12.1055 25.7015C13.8728 25.7015 15.3055 24.2688 15.3055 22.5015C15.3055 20.7342 13.8728 19.3015 12.1055 19.3015C10.3382 19.3015 8.90547 20.7342 8.90547 22.5015Z" fill="#FA9938"/>
<path d="M4.10547 3.5015C4.10547 4.05378 3.65776 4.5015 3.10547 4.5015V0.501495C1.44861 0.501495 0.105469 1.84464 0.105469 3.5015H4.10547ZM4.10547 31.5015V3.5015H0.105469V31.5015H4.10547ZM3.10547 30.5015C3.65775 30.5015 4.10547 30.9492 4.10547 31.5015H0.105469C0.105469 33.1583 1.44861 34.5015 3.10547 34.5015V30.5015ZM21.1055 30.5015H3.10547V34.5015H21.1055V30.5015ZM20.1055 31.5015C20.1055 30.9492 20.5532 30.5015 21.1055 30.5015V34.5015C22.7623 34.5015 24.1055 33.1583 24.1055 31.5015H20.1055ZM20.1055 3.5015V31.5015H24.1055V3.5015H20.1055ZM21.1055 4.5015C20.5532 4.5015 20.1055 4.05378 20.1055 3.5015H24.1055C24.1055 1.84464 22.7623 0.501495 21.1055 0.501495V4.5015ZM3.10547 4.5015H21.1055V0.501495H3.10547V4.5015ZM12.1055 15.5015C15.4192 15.5015 18.1055 12.8152 18.1055 9.5015H14.1055C14.1055 10.6061 13.21 11.5015 12.1055 11.5015V15.5015ZM6.10547 9.5015C6.10547 12.8152 8.79176 15.5015 12.1055 15.5015V11.5015C11.0009 11.5015 10.1055 10.6061 10.1055 9.5015H6.10547ZM12.1055 3.5015C8.79176 3.5015 6.10547 6.18779 6.10547 9.5015H10.1055C10.1055 8.39693 11.0009 7.5015 12.1055 7.5015V3.5015ZM18.1055 9.5015C18.1055 6.18779 15.4192 3.5015 12.1055 3.5015V7.5015C13.21 7.5015 14.1055 8.39693 14.1055 9.5015H18.1055ZM12.1055 8.7015C12.5473 8.7015 12.9055 9.05967 12.9055 9.5015H8.90547C8.90547 11.2688 10.3382 12.7015 12.1055 12.7015V8.7015ZM11.3055 9.5015C11.3055 9.05967 11.6636 8.7015 12.1055 8.7015V12.7015C13.8728 12.7015 15.3055 11.2688 15.3055 9.5015H11.3055ZM12.1055 10.3015C11.6636 10.3015 11.3055 9.94332 11.3055 9.5015H15.3055C15.3055 7.73418 13.8728 6.3015 12.1055 6.3015V10.3015ZM12.9055 9.5015C12.9055 9.94332 12.5473 10.3015 12.1055 10.3015V6.3015C10.3382 6.3015 8.90547 7.73418 8.90547 9.5015H12.9055ZM12.1055 32.5015C17.6283 32.5015 22.1055 28.0243 22.1055 22.5015H18.1055C18.1055 25.8152 15.4192 28.5015 12.1055 28.5015V32.5015ZM2.10547 22.5015C2.10547 28.0243 6.58262 32.5015 12.1055 32.5015V28.5015C8.79176 28.5015 6.10547 25.8152 6.10547 22.5015H2.10547ZM12.1055 12.5015C6.58262 12.5015 2.10547 16.9786 2.10547 22.5015H6.10547C6.10547 19.1878 8.79176 16.5015 12.1055 16.5015V12.5015ZM22.1055 22.5015C22.1055 16.9786 17.6283 12.5015 12.1055 12.5015V16.5015C15.4192 16.5015 18.1055 19.1878 18.1055 22.5015H22.1055ZM12.1055 23.7015C11.4427 23.7015 10.9055 23.1642 10.9055 22.5015H6.90547C6.90547 25.3734 9.23359 27.7015 12.1055 27.7015V23.7015ZM13.3055 22.5015C13.3055 23.1642 12.7682 23.7015 12.1055 23.7015V27.7015C14.9774 27.7015 17.3055 25.3734 17.3055 22.5015H13.3055ZM12.1055 21.3015C12.7682 21.3015 13.3055 21.8388 13.3055 22.5015H17.3055C17.3055 19.6296 14.9774 17.3015 12.1055 17.3015V21.3015ZM10.9055 22.5015C10.9055 21.8388 11.4427 21.3015 12.1055 21.3015V17.3015C9.23359 17.3015 6.90547 19.6296 6.90547 22.5015H10.9055Z" fill="black" mask="url(#path-1-outside-1_315_241)"/>
<path d="M34.736 29.3039L34.7359 29.304C34.9147 29.686 34.9454 30.1207 34.8219 30.524C34.6984 30.9273 34.4296 31.2704 34.0676 31.4868L34.061 31.4907L34.0544 31.4946L31.0692 33.2175L31.0688 33.2178C30.3137 33.653 29.3175 33.4344 28.8226 32.7006C28.8222 32.7 28.8218 32.6993 28.8214 32.6987L20.5036 20.4343L20.2286 20.029L19.9788 19.9505C18.5317 19.4961 17.2065 18.5526 16.3658 17.1009L16.3652 17.0998C15.5165 15.6298 15.2866 13.8829 15.7259 12.2434C16.1652 10.6038 17.2379 9.20596 18.7078 8.35726L18.7084 8.35691C20.1787 7.50944 21.9252 7.28043 23.5642 7.7202L23.3536 8.50521L23.5642 7.7202C25.2031 8.15995 26.6004 9.23242 27.4489 10.7019L34.736 29.3039ZM34.736 29.3039L34.7302 29.292L28.2683 15.95L28.0547 15.5091M34.736 29.3039L28.0547 15.5091M28.0547 15.5091L28.1115 15.2532C28.4399 13.7734 28.288 12.1545 27.449 10.7022L28.0547 15.5091Z" fill="#FA9938" stroke="black" stroke-width="2"/>
</g>
<defs>
<filter id="filter0_dddddddd_315_241" x="0.105469" y="0.501495" width="43.791" height="34" filterUnits="userSpaceOnUse" color-interpolation-filters="sRGB">
<feFlood flood-opacity="0" result="BackgroundImageFix"/>
<feColorMatrix in="SourceAlpha" type="matrix" values="0 0 0 0 0 0 0 0 0 0 0 0 0 0 0 0 0 0 127 0" result="hardAlpha"/>
<feOffset dx="8"/>
<feComposite in2="hardAlpha" operator="out"/>
<feColorMatrix type="matrix" values="0 0 0 0 0 0 0 0 0 0 0 0 0 0 0 0 0 0 1 0"/>
<feBlend mode="normal" in2="BackgroundImageFix" result="effect1_dropShadow_315_241"/>
<feColorMatrix in="SourceAlpha" type="matrix" values="0 0 0 0 0 0 0 0 0 0 0 0 0 0 0 0 0 0 127 0" result="hardAlpha"/>
<feOffset dx="7"/>
<feComposite in2="hardAlpha" operator="out"/>
<feColorMatrix type="matrix" values="0 0 0 0 0 0 0 0 0 0 0 0 0 0 0 0 0 0 1 0"/>
<feBlend mode="normal" in2="effect1_dropShadow_315_241" result="effect2_dropShadow_315_241"/>
<feColorMatrix in="SourceAlpha" type="matrix" values="0 0 0 0 0 0 0 0 0 0 0 0 0 0 0 0 0 0 127 0" result="hardAlpha"/>
<feOffset dx="6"/>
<feComposite in2="hardAlpha" operator="out"/>
<feColorMatrix type="matrix" values="0 0 0 0 0 0 0 0 0 0 0 0 0 0 0 0 0 0 1 0"/>
<feBlend mode="normal" in2="effect2_dropShadow_315_241" result="effect3_dropShadow_315_241"/>
<feColorMatrix in="SourceAlpha" type="matrix" values="0 0 0 0 0 0 0 0 0 0 0 0 0 0 0 0 0 0 127 0" result="hardAlpha"/>
<feOffset dx="5"/>
<feComposite in2="hardAlpha" operator="out"/>
<feColorMatrix type="matrix" values="0 0 0 0 0 0 0 0 0 0 0 0 0 0 0 0 0 0 1 0"/>
<feBlend mode="normal" in2="effect3_dropShadow_315_241" result="effect4_dropShadow_315_241"/>
<feColorMatrix in="SourceAlpha" type="matrix" values="0 0 0 0 0 0 0 0 0 0 0 0 0 0 0 0 0 0 127 0" result="hardAlpha"/>
<feOffset dx="4"/>
<feComposite in2="hardAlpha" operator="out"/>
<feColorMatrix type="matrix" values="0 0 0 0 0 0 0 0 0 0 0 0 0 0 0 0 0 0 1 0"/>
<feBlend mode="normal" in2="effect4_dropShadow_315_241" result="effect5_dropShadow_315_241"/>
<feColorMatrix in="SourceAlpha" type="matrix" values="0 0 0 0 0 0 0 0 0 0 0 0 0 0 0 0 0 0 127 0" result="hardAlpha"/>
<feOffset dx="3"/>
<feComposite in2="hardAlpha" operator="out"/>
<feColorMatrix type="matrix" values="0 0 0 0 0 0 0 0 0 0 0 0 0 0 0 0 0 0 1 0"/>
<feBlend mode="normal" in2="effect5_dropShadow_315_241" result="effect6_dropShadow_315_241"/>
<feColorMatrix in="SourceAlpha" type="matrix" values="0 0 0 0 0 0 0 0 0 0 0 0 0 0 0 0 0 0 127 0" result="hardAlpha"/>
<feOffset dx="2"/>
<feComposite in2="hardAlpha" operator="out"/>
<feColorMatrix type="matrix" values="0 0 0 0 0 0 0 0 0 0 0 0 0 0 0 0 0 0 1 0"/>
<feBlend mode="normal" in2="effect6_dropShadow_315_241" result="effect7_dropShadow_315_241"/>
<feColorMatrix in="SourceAlpha" type="matrix" values="0 0 0 0 0 0 0 0 0 0 0 0 0 0 0 0 0 0 127 0" result="hardAlpha"/>
<feOffset dx="1"/>
<feComposite in2="hardAlpha" operator="out"/>
<feColorMatrix type="matrix" values="0 0 0 0 0 0 0 0 0 0 0 0 0 0 0 0 0 0 1 0"/>
<feBlend mode="normal" in2="effect7_dropShadow_315_241" result="effect8_dropShadow_315_241"/>
<feBlend mode="normal" in="SourceGraphic" in2="effect8_dropShadow_315_241" result="shape"/>
</filter>
</defs>
</svg>
