<svg width="24" height="20" viewBox="0 0 24 20" fill="none" xmlns="http://www.w3.org/2000/svg">
<path d="M10.4399 0C4.93689 0 0.439941 4.49695 0.439941 10C0.439941 15.503 4.93689 20 10.4399 20C11.5511 20 12.6622 20 13.7733 20C19.2763 20 23.7733 15.503 23.7733 10C23.7733 4.5013 19.324 0 13.7733 0C12.6622 0 11.5511 0 10.4399 0Z" fill="black"/>
<path fill-rule="evenodd" clip-rule="evenodd" d="M10.4401 1.33325C5.67344 1.33325 1.77344 5.23325 1.77344 9.99992C1.77344 14.7666 5.67344 18.6666 10.4401 18.6666C15.2068 18.6666 19.1068 14.7666 19.1068 9.99992C19.1068 5.23325 15.2501 1.33325 10.4401 1.33325ZM14.4268 13.8566C14.2534 14.1166 13.9501 14.2033 13.6901 14.0299C11.6534 12.7733 9.09677 12.5133 6.06344 13.2066C5.7601 13.2933 5.5001 13.0766 5.41344 12.8166C5.32677 12.5133 5.54344 12.2533 5.80344 12.1666C9.09677 11.4299 11.9568 11.7333 14.2101 13.1199C14.5134 13.2499 14.5568 13.5966 14.4268 13.8566ZM15.4668 11.4733C15.2501 11.7766 14.8601 11.9066 14.5568 11.6899C12.2168 10.2599 8.66344 9.82659 5.93344 10.6933C5.58677 10.7799 5.19677 10.6066 5.1101 10.2599C5.02344 9.91325 5.19677 9.52325 5.54344 9.43659C8.70677 8.48325 12.6068 8.95992 15.2934 10.6066C15.5534 10.7366 15.6834 11.1699 15.4668 11.4733ZM15.5534 9.04659C12.7801 7.39992 8.14344 7.22658 5.5001 8.04992C5.06677 8.17992 4.63344 7.91992 4.50344 7.52992C4.37344 7.09658 4.63344 6.66325 5.02344 6.53325C8.1001 5.62325 13.1701 5.79659 16.3768 7.70325C16.7668 7.91992 16.8968 8.43992 16.6801 8.82992C16.4634 9.13325 15.9434 9.26325 15.5534 9.04659Z" fill="white"/>
</svg>
