<svg width="31" height="21" viewBox="0 0 31 21" fill="none" xmlns="http://www.w3.org/2000/svg">
<path d="M11.4536 0.00328362C11.4182 0.00281139 11.3827 0.00281203 11.3474 0.00328362H11.3039C10.2454 -0.00144327 9.22778 0.412005 8.47252 1.15377C7.71631 1.89648 7.28445 2.90808 7.27115 3.96793C7.27108 3.97351 7.27104 3.97909 7.27104 3.98467V4.81808H3.25919C2.3948 4.81808 1.56581 5.16146 0.954595 5.77267C0.343377 6.38389 0 7.21288 0 8.07726V10.0031C0 10.0213 0.000370106 10.0394 0.00111 10.0575C0.0151964 10.9022 0.356869 11.7093 0.955252 12.3077C0.988124 12.3406 1.02163 12.3727 1.05573 12.404C0.996252 12.5551 0.963584 12.7198 0.963584 12.892V16.7437C0.963584 17.6081 1.30697 18.4371 1.91818 19.0483C2.52939 19.6595 3.35839 20.0029 4.22278 20.0029H25.8511C26.7155 20.0029 27.5445 19.6595 28.1557 19.0483C28.7669 18.4371 29.1103 17.6081 29.1103 16.7437V12.892C29.1103 12.7198 29.0776 12.5551 29.0182 12.404C29.0523 12.3727 29.0858 12.3406 29.1186 12.3077C29.717 11.7093 30.0587 10.9022 30.0728 10.0575C30.0735 10.0394 30.0739 10.0213 30.0739 10.0031V8.07726C30.0739 7.21288 29.7305 6.38389 29.1193 5.77267C28.5077 5.16112 27.6779 4.81808 26.814 4.81808H22.8028V3.98467C22.8028 3.97909 22.8028 3.97351 22.8027 3.96793C22.7894 2.90808 22.3576 1.89648 21.6014 1.15377C20.8461 0.412005 19.8285 -0.00144327 18.77 0.00328362H18.7265C18.6911 0.00281203 18.6557 0.00281139 18.6203 0.00328362H15.4726C15.4606 0.00323019 15.4487 0.00323015 15.4367 0.00328362H15.3932C15.3578 0.00281203 15.3224 0.00281139 15.287 0.00328362H14.7869C14.7515 0.00281139 14.7161 0.00281203 14.6807 0.00328362H14.6372C14.6252 0.00323015 14.6132 0.00323019 14.6013 0.00328362H11.4536Z" fill="black"/>
<path d="M10.3432 2.93208C10.6226 2.65272 11.0008 2.49466 11.3958 2.49213H15.345C15.7401 2.49466 16.1183 2.65272 16.3976 2.93208C16.677 3.21144 16.8351 3.5896 16.8376 3.98467V5.18833H18.1363V3.98467C18.1274 3.27677 17.839 2.60111 17.3339 2.10504C16.8288 1.60897 16.1481 1.33275 15.4401 1.33662H15.3836C15.3547 1.33615 15.3258 1.33615 15.2969 1.33662H11.444C11.4151 1.33615 11.3862 1.33615 11.3573 1.33662H11.3007C10.5928 1.33275 9.91205 1.60897 9.40696 2.10504C8.90187 2.60111 8.61343 3.27677 8.60454 3.98467V5.18833H9.90329V3.98467C9.90581 3.5896 10.0639 3.21144 10.3432 2.93208Z" fill="white"/>
<path d="M15.2964 13.9507C15.5518 13.9507 15.7967 13.8492 15.9773 13.6687C16.1579 13.4881 16.2593 13.2432 16.2593 12.9878V12.0248C16.2593 11.7695 16.1579 11.5245 15.9773 11.3439C15.7967 11.1634 15.5518 11.0619 15.2964 11.0619H11.4447C11.1893 11.0619 10.9442 11.1634 10.7636 11.3439C10.583 11.5245 10.4816 11.7695 10.4816 12.0248V12.9878C10.4816 13.2432 10.583 13.4881 10.7636 13.6687C10.9442 13.8492 11.1891 13.9507 11.4445 13.9507H15.2964Z" fill="white"/>
<path d="M1.33421 10.018C1.33396 10.0131 1.33372 10.0081 1.3335 10.0031V8.07727C1.3335 7.5665 1.5364 7.07665 1.89756 6.71548C2.25873 6.35432 2.74858 6.15141 3.25935 6.15141H23.4809C23.9916 6.15141 24.4821 6.35432 24.8433 6.71548C25.2045 7.07665 25.4074 7.5665 25.4074 8.07727V10.0031C25.4072 10.0081 25.4069 10.0131 25.4067 10.018C25.4028 10.5234 25.2003 11.0073 24.8426 11.3649C24.4815 11.7261 23.9916 11.929 23.4809 11.929H17.2225C17.1978 11.4351 16.9833 10.9696 16.6248 10.629C16.2671 10.2892 15.7926 10.0996 15.2992 10.0994H15.2966H11.4449L11.4417 10.0994C10.9483 10.0996 10.4738 10.2892 10.1161 10.629C9.75754 10.9696 9.54377 11.4351 9.51905 11.929H3.26001C2.74924 11.929 2.25939 11.7261 1.89822 11.3649C1.54057 11.0073 1.33811 10.5234 1.33421 10.018Z" fill="white"/>
<path d="M4.22294 18.6696C3.71217 18.6696 3.22232 18.4667 2.86115 18.1055C2.49998 17.7444 2.29708 17.2545 2.29708 16.7437V12.892C4.92563 12.892 6.98623 12.8439 9.51839 12.8439V12.892L9.51905 12.9402C9.51905 13.451 9.72195 13.9408 10.0831 14.302C10.4443 14.6631 10.9341 14.866 11.4449 14.866H15.296C15.8067 14.866 16.2966 14.6631 16.6578 14.302C17.0189 13.9408 17.2218 13.451 17.2218 12.9402V12.892L17.2225 12.8439C19.7546 12.8439 21.8152 12.892 24.4438 12.892V16.7437C24.4438 17.2545 24.2409 17.7444 23.8797 18.1055C23.5186 18.4667 23.0287 18.6696 22.5179 18.6696H4.22294Z" fill="white"/>
</svg>
