<svg width="23" height="22" viewBox="0 0 23 22" fill="none" xmlns="http://www.w3.org/2000/svg">
<g filter="url(#filter0_ddd_1131_2957)">
<mask id="path-1-outside-1_1131_2957" maskUnits="userSpaceOnUse" x="0.815918" y="0.00296021" width="20" height="21" fill="black">
<rect fill="white" x="0.815918" y="0.00296021" width="20" height="21"/>
<path fill-rule="evenodd" clip-rule="evenodd" d="M17.0423 5.91362V6.50852C16.2443 6.34203 15.5194 5.92715 14.9717 5.32333C15.5922 5.71205 16.3102 5.91674 17.0423 5.91362ZM13.1606 2.47818C13.1737 2.54756 13.187 2.61747 13.187 2.68548H11.1487V13.8502C11.1468 14.3444 10.9902 14.8256 10.7008 15.2263C10.4115 15.6269 10.0039 15.9269 9.53542 16.0841C9.06689 16.2412 8.5609 16.2478 8.08848 16.1027C7.61613 15.9577 7.20106 15.6684 6.9015 15.2754H6.90135C6.8984 15.2716 6.89546 15.2677 6.89253 15.2638C6.90006 15.2677 6.90761 15.2716 6.91518 15.2754H6.90173C7.23058 15.4408 7.59391 15.5261 7.96203 15.5243C8.58745 15.5255 9.18781 15.2785 9.63135 14.8376C10.0749 14.3966 10.3254 13.7977 10.3278 13.1723V2.00296H13.1409V2.36267C13.1459 2.40072 13.1532 2.43937 13.1606 2.47818ZM8.69527 8.70366V10.9082C8.12856 10.7291 7.51518 10.7698 6.97713 11.0223C6.43908 11.2748 6.01579 11.7206 5.79145 12.271C5.56711 12.8214 5.55816 13.436 5.76637 13.9927C5.97162 14.5415 6.37305 14.9943 6.89253 15.2638C6.62922 14.9151 6.4678 14.5 6.42639 14.0647C6.38453 13.6247 6.46704 13.1817 6.66454 12.7862C6.86204 12.3907 7.16659 12.0586 7.54354 11.8277C7.92049 11.5968 8.35469 11.4763 8.79673 11.48C9.04078 11.48 9.2834 11.5173 9.51614 11.5907V8.73152C9.24407 8.69548 8.96966 8.68007 8.69527 8.6854V8.70364L8.68144 8.6806V8.04881C7.52387 7.89156 6.34717 8.131 5.34311 8.72813C4.33904 9.32525 3.56683 10.2448 3.15231 11.337C2.73779 12.4292 2.70541 13.6296 3.06045 14.7425C3.41549 15.8555 4.13702 16.8154 5.10743 17.4658C4.40928 16.7439 3.93647 15.8344 3.74677 14.8483C3.55708 13.8621 3.65871 12.8421 4.03924 11.9127C4.41977 10.9834 5.06274 10.185 5.88959 9.61516C6.71644 9.04527 7.69136 8.72854 8.69527 8.70366ZM17.8586 9.38176C16.4624 9.387 15.0997 8.95479 13.9618 8.14584V13.8504C13.9575 14.8745 13.6494 15.8743 13.0765 16.7232C12.5036 17.5721 11.6917 18.2318 10.7436 18.619C9.79547 19.0061 8.75381 19.1032 7.75048 18.898C6.74716 18.6927 5.82732 18.1943 5.10742 17.4659C5.88571 17.982 6.78913 18.2777 7.72189 18.3219C8.65465 18.3661 9.58198 18.157 10.4056 17.7169C11.2291 17.2767 11.9182 16.6219 12.3998 15.8218C12.8814 15.0218 13.1374 14.1063 13.1409 13.1725V7.48176C14.2783 8.29683 15.643 8.734 17.0423 8.73152V6.52716C17.3104 6.58615 17.5841 6.61554 17.8586 6.61478V9.38176ZM13.9618 3.04538C14.038 3.89536 14.393 4.6963 14.9717 5.32352C14.5058 5.03365 14.1061 4.64898 13.7986 4.19451C13.4912 3.74004 13.2828 3.22596 13.187 2.68567H13.9618V3.04538Z"/>
</mask>
<path fill-rule="evenodd" clip-rule="evenodd" d="M17.0423 5.91362V6.50852C16.2443 6.34203 15.5194 5.92715 14.9717 5.32333C15.5922 5.71205 16.3102 5.91674 17.0423 5.91362ZM13.1606 2.47818C13.1737 2.54756 13.187 2.61747 13.187 2.68548H11.1487V13.8502C11.1468 14.3444 10.9902 14.8256 10.7008 15.2263C10.4115 15.6269 10.0039 15.9269 9.53542 16.0841C9.06689 16.2412 8.5609 16.2478 8.08848 16.1027C7.61613 15.9577 7.20106 15.6684 6.9015 15.2754H6.90135C6.8984 15.2716 6.89546 15.2677 6.89253 15.2638C6.90006 15.2677 6.90761 15.2716 6.91518 15.2754H6.90173C7.23058 15.4408 7.59391 15.5261 7.96203 15.5243C8.58745 15.5255 9.18781 15.2785 9.63135 14.8376C10.0749 14.3966 10.3254 13.7977 10.3278 13.1723V2.00296H13.1409V2.36267C13.1459 2.40072 13.1532 2.43937 13.1606 2.47818ZM8.69527 8.70366V10.9082C8.12856 10.7291 7.51518 10.7698 6.97713 11.0223C6.43908 11.2748 6.01579 11.7206 5.79145 12.271C5.56711 12.8214 5.55816 13.436 5.76637 13.9927C5.97162 14.5415 6.37305 14.9943 6.89253 15.2638C6.62922 14.9151 6.4678 14.5 6.42639 14.0647C6.38453 13.6247 6.46704 13.1817 6.66454 12.7862C6.86204 12.3907 7.16659 12.0586 7.54354 11.8277C7.92049 11.5968 8.35469 11.4763 8.79673 11.48C9.04078 11.48 9.2834 11.5173 9.51614 11.5907V8.73152C9.24407 8.69548 8.96966 8.68007 8.69527 8.6854V8.70364L8.68144 8.6806V8.04881C7.52387 7.89156 6.34717 8.131 5.34311 8.72813C4.33904 9.32525 3.56683 10.2448 3.15231 11.337C2.73779 12.4292 2.70541 13.6296 3.06045 14.7425C3.41549 15.8555 4.13702 16.8154 5.10743 17.4658C4.40928 16.7439 3.93647 15.8344 3.74677 14.8483C3.55708 13.8621 3.65871 12.8421 4.03924 11.9127C4.41977 10.9834 5.06274 10.185 5.88959 9.61516C6.71644 9.04527 7.69136 8.72854 8.69527 8.70366ZM17.8586 9.38176C16.4624 9.387 15.0997 8.95479 13.9618 8.14584V13.8504C13.9575 14.8745 13.6494 15.8743 13.0765 16.7232C12.5036 17.5721 11.6917 18.2318 10.7436 18.619C9.79547 19.0061 8.75381 19.1032 7.75048 18.898C6.74716 18.6927 5.82732 18.1943 5.10742 17.4659C5.88571 17.982 6.78913 18.2777 7.72189 18.3219C8.65465 18.3661 9.58198 18.157 10.4056 17.7169C11.2291 17.2767 11.9182 16.6219 12.3998 15.8218C12.8814 15.0218 13.1374 14.1063 13.1409 13.1725V7.48176C14.2783 8.29683 15.643 8.734 17.0423 8.73152V6.52716C17.3104 6.58615 17.5841 6.61554 17.8586 6.61478V9.38176ZM13.9618 3.04538C14.038 3.89536 14.393 4.6963 14.9717 5.32352C14.5058 5.03365 14.1061 4.64898 13.7986 4.19451C13.4912 3.74004 13.2828 3.22596 13.187 2.68567H13.9618V3.04538Z" fill="white"/>
<path d="M17.0423 6.50852L16.6339 8.46637C17.2233 8.58933 17.8367 8.44023 18.3039 8.06044C18.7711 7.68066 19.0423 7.11061 19.0423 6.50852H17.0423ZM17.0423 5.91362H19.0423C19.0423 5.38172 18.8304 4.87172 18.4535 4.49641C18.0766 4.12109 17.5657 3.91138 17.0338 3.91364L17.0423 5.91362ZM14.9717 5.32333L16.0335 3.62848C15.1871 3.09816 14.0791 3.2737 13.438 4.0397C12.7969 4.80569 12.8193 5.92725 13.4904 6.66708L14.9717 5.32333ZM13.187 2.68548V4.68548C14.2916 4.68548 15.187 3.79005 15.187 2.68548H13.187ZM13.1606 2.47818L11.1957 2.85123L11.1957 2.85125L13.1606 2.47818ZM11.1487 2.68548V0.685482C10.0441 0.685482 9.14867 1.58091 9.14867 2.68548H11.1487ZM11.1487 13.8502L13.1487 13.8579V13.8502H11.1487ZM10.7008 15.2263L9.07944 14.0553L9.07944 14.0553L10.7008 15.2263ZM9.53542 16.0841L10.1716 17.9802L10.1716 17.9802L9.53542 16.0841ZM8.08848 16.1027L7.50141 18.0146L7.50141 18.0146L8.08848 16.1027ZM6.9015 15.2754L8.49204 14.0629C8.11373 13.5667 7.52549 13.2754 6.9015 13.2754V15.2754ZM6.90135 15.2754L5.31268 16.4904C5.69109 16.9852 6.27843 17.2754 6.90135 17.2754V15.2754ZM6.91518 15.2754V17.2754C7.84116 17.2754 8.64606 16.6398 8.8607 15.739C9.07535 14.8383 8.64362 13.908 7.81715 13.4904L6.91518 15.2754ZM6.90173 15.2754V13.2754C5.97507 13.2754 5.16977 13.912 4.95578 14.8136C4.7418 15.7152 5.17517 16.6457 6.003 17.0621L6.90173 15.2754ZM7.96203 15.5243L7.96595 13.5242L7.95199 13.5243L7.96203 15.5243ZM9.63135 14.8376L8.22129 13.4192L8.22128 13.4192L9.63135 14.8376ZM10.3278 13.1723L12.3278 13.1801V13.1723H10.3278ZM10.3278 2.00296V0.00296021C9.22323 0.00296021 8.3278 0.898391 8.3278 2.00296L10.3278 2.00296ZM13.1409 2.00296H15.1409C15.1409 0.898391 14.2455 0.00296021 13.1409 0.00296021V2.00296ZM13.1409 2.36267H11.1409C11.1409 2.44917 11.1465 2.53559 11.1577 2.62137L13.1409 2.36267ZM8.69527 8.70366H10.6953C10.6953 8.16464 10.4777 7.64843 10.0919 7.27204C9.70602 6.89564 9.18458 6.69092 8.64572 6.70427L8.69527 8.70366ZM8.69527 10.9082L8.09246 12.8152C8.70021 13.0073 9.36314 12.8982 9.8773 12.5215C10.3915 12.1448 10.6953 11.5456 10.6953 10.9082H8.69527ZM5.79145 12.271L3.93939 11.5161L3.93939 11.5161L5.79145 12.271ZM5.76637 13.9927L3.89312 14.6934L3.89312 14.6934L5.76637 13.9927ZM6.42639 14.0647L4.43538 14.2541L4.43538 14.2541L6.42639 14.0647ZM7.54354 11.8277L6.49881 10.1223L6.4988 10.1223L7.54354 11.8277ZM8.79673 11.48L8.77996 13.48C8.78575 13.48 8.79153 13.4801 8.79732 13.48L8.79673 11.48ZM9.51614 11.5907L8.91442 13.4981C9.52209 13.6898 10.1847 13.5805 10.6986 13.2037C11.2125 12.827 11.5161 12.2279 11.5161 11.5907H9.51614ZM9.51614 8.73152H11.5161C11.5161 7.72844 10.7731 6.88053 9.77873 6.74883L9.51614 8.73152ZM8.69527 8.6854L8.65641 6.68578C7.56719 6.70694 6.69527 7.59598 6.69527 8.6854H8.69527ZM8.69527 8.70364L6.98028 9.73263C7.44279 10.5035 8.36278 10.871 9.22913 10.6311C10.0955 10.3911 10.6953 9.60261 10.6953 8.70364H8.69527ZM8.68144 8.6806H6.68144C6.68144 9.04309 6.77996 9.39875 6.96645 9.70958L8.68144 8.6806ZM8.68144 8.04881H10.6814C10.6814 7.04828 9.94209 6.20169 8.95067 6.06701L8.68144 8.04881ZM5.34311 8.72813L6.3654 10.4471H6.3654L5.34311 8.72813ZM3.15231 11.337L1.28245 10.6274H1.28245L3.15231 11.337ZM3.06045 14.7425L1.15506 15.3504H1.15506L3.06045 14.7425ZM5.10743 17.4658L3.99396 19.1271C4.84359 19.6966 5.98595 19.5332 6.64192 18.7485C7.2979 17.9637 7.2561 16.8105 6.54502 16.0753L5.10743 17.4658ZM3.74677 14.8483L1.78278 15.2261V15.2261L3.74677 14.8483ZM4.03924 11.9127L5.89009 12.6706H5.89009L4.03924 11.9127ZM5.88959 9.61516L7.02458 11.2619H7.02458L5.88959 9.61516ZM13.9618 8.14584L15.1206 6.51576C14.5106 6.08215 13.7096 6.02535 13.0446 6.36853C12.3796 6.71172 11.9618 7.39747 11.9618 8.14584H13.9618ZM17.8586 9.38176L17.8661 11.3817C18.9677 11.3776 19.8586 10.4834 19.8586 9.38176H17.8586ZM13.9618 13.8504L15.9618 13.8588V13.8504H13.9618ZM10.7436 18.619L9.98752 16.7674L9.98751 16.7674L10.7436 18.619ZM7.75048 18.898L7.34963 20.8574H7.34963L7.75048 18.898ZM5.10742 17.4659L6.2126 15.799C5.35829 15.2326 4.21403 15.4038 3.56285 16.1954C2.91167 16.987 2.9644 18.1428 3.68494 18.8718L5.10742 17.4659ZM7.72189 18.3219L7.62727 20.3197L7.72189 18.3219ZM12.3998 15.8218L10.6863 14.7904L10.6863 14.7904L12.3998 15.8218ZM13.1409 13.1725L15.1409 13.1799V13.1725H13.1409ZM13.1409 7.48176L14.3058 5.85608C13.6964 5.41938 12.894 5.36018 12.2271 5.70273C11.5602 6.04528 11.1409 6.73204 11.1409 7.48176H13.1409ZM17.0423 8.73152L17.0459 10.7315C18.149 10.7296 19.0423 9.8347 19.0423 8.73152H17.0423ZM17.0423 6.52716L17.4722 4.57391C16.8804 4.44366 16.2615 4.58872 15.7893 4.96835C15.317 5.34797 15.0423 5.92123 15.0423 6.52716H17.0423ZM17.8586 6.61478H19.8586C19.8586 6.08339 19.6471 5.57384 19.2708 5.19861C18.8946 4.82338 18.3844 4.61332 17.853 4.61479L17.8586 6.61478ZM14.9717 5.32352L13.9151 7.02166C14.765 7.55042 15.8748 7.36954 16.5128 6.5983C17.1507 5.82707 17.1204 4.70299 16.4417 3.96734L14.9717 5.32352ZM13.9618 3.04538H11.9618C11.9618 3.10499 11.9644 3.16458 11.9697 3.22396L13.9618 3.04538ZM13.7986 4.19451L15.4551 3.07377L15.4551 3.07377L13.7986 4.19451ZM13.187 2.68567V0.685669C12.5955 0.685669 12.0343 0.947498 11.6543 1.40079C11.2743 1.85408 11.1145 2.45233 11.2177 3.03475L13.187 2.68567ZM13.9618 2.68567H15.9618C15.9618 1.5811 15.0663 0.685669 13.9618 0.685669V2.68567ZM19.0423 6.50852V5.91362H15.0423V6.50852H19.0423ZM13.4904 6.66708C14.3219 7.58376 15.4223 8.21362 16.6339 8.46637L17.4508 4.55068C17.0662 4.47045 16.717 4.27054 16.453 3.97958L13.4904 6.66708ZM17.0338 3.91364C16.6801 3.91514 16.3333 3.81626 16.0335 3.62848L13.9099 7.01819C14.8511 7.60783 15.9402 7.91833 17.0508 7.9136L17.0338 3.91364ZM15.187 2.68548C15.187 2.3959 15.1315 2.13701 15.1255 2.10511L11.1957 2.85125C11.1993 2.87045 11.2005 2.87679 11.2013 2.88125C11.2019 2.88457 11.2007 2.87823 11.1989 2.86602C11.1958 2.84408 11.187 2.77786 11.187 2.68548H15.187ZM11.1487 4.68548H13.187V0.685482H11.1487V4.68548ZM13.1487 13.8502V2.68548H9.14867V13.8502H13.1487ZM12.3222 16.3972C12.8561 15.6579 13.1452 14.7699 13.1487 13.8579L9.14868 13.8426C9.14839 13.919 9.12417 13.9934 9.07944 14.0553L12.3222 16.3972ZM10.1716 17.9802C11.0362 17.6901 11.7883 17.1365 12.3222 16.3972L9.07944 14.0553C9.03471 14.1172 8.9717 14.1636 8.89926 14.1879L10.1716 17.9802ZM7.50141 18.0146C8.37322 18.2823 9.30697 18.2703 10.1716 17.9802L8.89926 14.1879C8.82682 14.2122 8.74859 14.2132 8.67555 14.1908L7.50141 18.0146ZM5.31096 16.4879C5.86376 17.2131 6.62974 17.7469 7.50141 18.0146L8.67555 14.1908C8.60253 14.1684 8.53835 14.1237 8.49204 14.0629L5.31096 16.4879ZM6.9015 13.2754H6.90135V17.2754H6.9015V13.2754ZM8.49001 14.0605C8.48957 14.0599 8.48917 14.0594 8.4888 14.0589L5.29627 16.4688C5.30175 16.476 5.30722 16.4832 5.31268 16.4904L8.49001 14.0605ZM5.97139 17.0391C5.98511 17.0462 5.99906 17.0533 6.01321 17.0605L7.81715 13.4904C7.81616 13.4899 7.815 13.4893 7.81368 13.4886L5.97139 17.0391ZM6.91518 13.2754H6.90173V17.2754H6.91518V13.2754ZM7.95199 13.5243C7.89938 13.5246 7.84745 13.5124 7.80046 13.4887L6.003 17.0621C6.61371 17.3693 7.28845 17.5277 7.97207 17.5242L7.95199 13.5243ZM8.22128 13.4192C8.15344 13.4867 8.06161 13.5245 7.96595 13.5243L7.95811 17.5243C9.11329 17.5265 10.2222 17.0704 11.0414 16.2559L8.22128 13.4192ZM8.32781 13.1645C8.32744 13.2602 8.28912 13.3518 8.22129 13.4192L11.0414 16.2559C11.8606 15.4415 12.3233 14.3353 12.3278 13.1801L8.32781 13.1645ZM8.3278 2.00296V13.1723H12.3278V2.00296H8.3278ZM13.1409 0.00296021H10.3278V4.00296H13.1409V0.00296021ZM15.1409 2.36267V2.00296H11.1409V2.36267H15.1409ZM15.1255 2.10514C15.1235 2.09484 15.1223 2.08862 15.1213 2.08299C15.1203 2.07773 15.1199 2.07547 15.1198 2.07501C15.1198 2.07462 15.1202 2.07711 15.1209 2.08174C15.1216 2.08639 15.1228 2.09399 15.1241 2.10397L11.1577 2.62137C11.1714 2.72681 11.1903 2.82305 11.1957 2.85123L15.1255 2.10514ZM6.69527 8.70366V10.9082H10.6953V8.70366H6.69527ZM9.29808 9.00121C8.25227 8.67063 7.12034 8.7458 6.12743 9.21178L7.82682 12.8328C7.91001 12.7938 8.00484 12.7875 8.09246 12.8152L9.29808 9.00121ZM6.12743 9.21178C5.13452 9.67776 4.35339 10.5004 3.93939 11.5161L7.64351 13.0259C7.67819 12.9408 7.74364 12.8719 7.82682 12.8328L6.12743 9.21178ZM3.93939 11.5161C3.5254 12.5318 3.50888 13.6661 3.89312 14.6934L7.63963 13.2921C7.60744 13.206 7.60882 13.111 7.64351 13.0259L3.93939 11.5161ZM3.89312 14.6934C4.27187 15.706 5.01266 16.5416 5.97134 17.039L7.81373 13.4886C7.73343 13.4469 7.67136 13.3769 7.63963 13.2921L3.89312 14.6934ZM8.4887 14.0587C8.44843 14.0054 8.42374 13.9419 8.4174 13.8753L4.43538 14.2541C4.51186 15.058 4.81001 15.8247 5.29637 16.4689L8.4887 14.0587ZM8.4174 13.8753C8.411 13.808 8.42362 13.7403 8.45383 13.6798L4.87525 11.8926C4.51046 12.6231 4.35806 13.4413 4.43538 14.2541L8.4174 13.8753ZM8.45383 13.6798C8.48404 13.6193 8.53062 13.5685 8.58828 13.5332L6.4988 10.1223C5.80257 10.5488 5.24004 11.1622 4.87525 11.8926L8.45383 13.6798ZM8.58828 13.5332C8.64594 13.4978 8.71235 13.4794 8.77996 13.48L8.81349 9.48012C7.99702 9.47328 7.19504 9.69577 6.49881 10.1223L8.58828 13.5332ZM8.79732 13.48C8.83704 13.48 8.87653 13.4861 8.91442 13.4981L10.1179 9.68339C9.69027 9.5485 9.24452 9.47992 8.79613 9.48005L8.79732 13.48ZM11.5161 11.5907V8.73152H7.51614V11.5907H11.5161ZM9.77873 6.74883C9.40674 6.69957 9.03157 6.67849 8.65641 6.68578L8.73413 10.685C8.90776 10.6816 9.0814 10.6914 9.25356 10.7142L9.77873 6.74883ZM6.69527 8.6854V8.70364H10.6953V8.6854H6.69527ZM10.4103 7.67466L10.3964 7.65162L6.96645 9.70958L6.98028 9.73263L10.4103 7.67466ZM10.6814 8.6806V8.04881H6.68144V8.6806H10.6814ZM8.95067 6.06701C7.34526 5.84892 5.71332 6.18101 4.32081 7.00914L6.3654 10.4471C6.98102 10.081 7.70249 9.93419 8.41222 10.0306L8.95067 6.06701ZM4.32081 7.00914C2.9283 7.83728 1.85733 9.11264 1.28245 10.6274L5.02217 12.0467C5.27632 11.3771 5.74979 10.8132 6.3654 10.4471L4.32081 7.00914ZM1.28245 10.6274C0.707567 12.1421 0.662663 13.8069 1.15506 15.3504L4.96585 14.1347C4.74817 13.4523 4.76802 12.7163 5.02217 12.0467L1.28245 10.6274ZM1.15506 15.3504C1.64745 16.8939 2.64812 18.2251 3.99396 19.1271L6.2209 15.8044C5.62592 15.4056 5.18353 14.8171 4.96585 14.1347L1.15506 15.3504ZM6.54502 16.0753C6.11696 15.6327 5.82708 15.0751 5.71077 14.4705L1.78278 15.2261C2.04587 16.5937 2.70159 17.8551 3.66984 18.8562L6.54502 16.0753ZM5.71077 14.4705C5.59446 13.8658 5.65677 13.2404 5.89009 12.6706L2.18839 11.1549C1.66064 12.4437 1.5197 13.8584 1.78278 15.2261L5.71077 14.4705ZM5.89009 12.6706C6.1234 12.1008 6.51762 11.6113 7.02458 11.2619L4.7546 7.9684C3.60786 8.75877 2.71615 9.86602 2.18839 11.1549L5.89009 12.6706ZM7.02458 11.2619C7.53154 10.9125 8.1293 10.7183 8.74482 10.703L8.64572 6.70427C7.25343 6.73878 5.90133 7.17804 4.7546 7.9684L7.02458 11.2619ZM12.8029 9.77592C14.2815 10.827 16.0521 11.3886 17.8661 11.3817L17.8511 7.38177C16.8728 7.38544 15.9179 7.0826 15.1206 6.51576L12.8029 9.77592ZM15.9618 13.8504V8.14584H11.9618V13.8504H15.9618ZM14.7343 17.842C15.5286 16.665 15.9558 15.2788 15.9617 13.8588L11.9618 13.842C11.9591 14.4703 11.7701 15.0836 11.4187 15.6044L14.7343 17.842ZM11.4996 20.4706C12.8142 19.9338 13.9399 19.019 14.7343 17.842L11.4187 15.6044C11.0672 16.1251 10.5692 16.5299 9.98752 16.7674L11.4996 20.4706ZM7.34963 20.8574C8.74076 21.142 10.1851 21.0074 11.4996 20.4706L9.98751 16.7674C9.40588 17.0049 8.76685 17.0645 8.15134 16.9385L7.34963 20.8574ZM3.68494 18.8718C4.6831 19.8818 5.95849 20.5728 7.34963 20.8574L8.15134 16.9385C7.53583 16.8126 6.97153 16.5069 6.5299 16.06L3.68494 18.8718ZM7.8165 16.3242C7.24428 16.2971 6.69006 16.1156 6.2126 15.799L4.00224 19.1328C5.08135 19.8483 6.33397 20.2584 7.62727 20.3197L7.8165 16.3242ZM9.46285 15.953C8.95761 16.223 8.38872 16.3513 7.8165 16.3242L7.62727 20.3197C8.92058 20.3809 10.2064 20.091 11.3483 19.4808L9.46285 15.953ZM10.6863 14.7904C10.3908 15.2812 9.96809 15.683 9.46285 15.953L11.3483 19.4808C12.4902 18.8705 13.4456 17.9625 14.1133 16.8532L10.6863 14.7904ZM11.1409 13.1651C11.1388 13.738 10.9817 14.2996 10.6863 14.7904L14.1133 16.8532C14.781 15.7439 15.1361 14.4746 15.1409 13.1799L11.1409 13.1651ZM11.1409 7.48176V13.1725H15.1409V7.48176H11.1409ZM17.0388 6.73152C16.0586 6.73326 15.1026 6.42703 14.3058 5.85608L11.9759 9.10745C13.454 10.1666 15.2275 10.7347 17.0459 10.7315L17.0388 6.73152ZM15.0423 6.52716V8.73152H19.0423V6.52716H15.0423ZM17.853 4.61479C17.725 4.61514 17.5973 4.60143 17.4722 4.57391L16.6124 8.48041C17.0235 8.57088 17.4432 8.61593 17.8641 8.61477L17.853 4.61479ZM19.8586 9.38176V6.61478H15.8586V9.38176H19.8586ZM16.4417 3.96734C16.1621 3.66434 15.9906 3.27741 15.9538 2.86679L11.9697 3.22396C12.0853 4.5133 12.6239 5.72826 13.5017 6.6797L16.4417 3.96734ZM12.1422 5.31524C12.6069 6.00214 13.211 6.58354 13.9151 7.02166L16.0283 3.62538C15.8006 3.48376 15.6054 3.29581 15.4551 3.07377L12.1422 5.31524ZM11.2177 3.03475C11.3624 3.85135 11.6774 4.62835 12.1422 5.31524L15.4551 3.07377C15.3049 2.85173 15.2031 2.60056 15.1563 2.33659L11.2177 3.03475ZM13.9618 0.685669H13.187V4.68567H13.9618V0.685669ZM15.9618 3.04538V2.68567H11.9618V3.04538H15.9618Z" fill="black" mask="url(#path-1-outside-1_1131_2957)"/>
</g>
<defs>
<filter id="filter0_ddd_1131_2957" x="0.815918" y="0.00296021" width="22.0425" height="21" filterUnits="userSpaceOnUse" color-interpolation-filters="sRGB">
<feFlood flood-opacity="0" result="BackgroundImageFix"/>
<feColorMatrix in="SourceAlpha" type="matrix" values="0 0 0 0 0 0 0 0 0 0 0 0 0 0 0 0 0 0 127 0" result="hardAlpha"/>
<feOffset dx="3"/>
<feComposite in2="hardAlpha" operator="out"/>
<feColorMatrix type="matrix" values="0 0 0 0 0 0 0 0 0 0 0 0 0 0 0 0 0 0 1 0"/>
<feBlend mode="normal" in2="BackgroundImageFix" result="effect1_dropShadow_1131_2957"/>
<feColorMatrix in="SourceAlpha" type="matrix" values="0 0 0 0 0 0 0 0 0 0 0 0 0 0 0 0 0 0 127 0" result="hardAlpha"/>
<feOffset dx="2"/>
<feComposite in2="hardAlpha" operator="out"/>
<feColorMatrix type="matrix" values="0 0 0 0 0 0 0 0 0 0 0 0 0 0 0 0 0 0 1 0"/>
<feBlend mode="normal" in2="effect1_dropShadow_1131_2957" result="effect2_dropShadow_1131_2957"/>
<feColorMatrix in="SourceAlpha" type="matrix" values="0 0 0 0 0 0 0 0 0 0 0 0 0 0 0 0 0 0 127 0" result="hardAlpha"/>
<feOffset dx="1"/>
<feComposite in2="hardAlpha" operator="out"/>
<feColorMatrix type="matrix" values="0 0 0 0 0 0 0 0 0 0 0 0 0 0 0 0 0 0 1 0"/>
<feBlend mode="normal" in2="effect2_dropShadow_1131_2957" result="effect3_dropShadow_1131_2957"/>
<feBlend mode="normal" in="SourceGraphic" in2="effect3_dropShadow_1131_2957" result="shape"/>
</filter>
</defs>
</svg>
