<svg width="72" height="35" viewBox="0 0 72 35" fill="none" xmlns="http://www.w3.org/2000/svg">
<path d="M13.4905 0.545959C12.305 0.699572 11.4896 1.56625 11.2731 2.57832C11.2531 2.67182 11.2382 2.76567 11.2283 2.85952C11.1312 2.86917 11.0342 2.88411 10.9376 2.90446C9.95345 3.11192 9.07992 3.89262 8.90367 5.06325L7.58094 4.47076H3.9364L0.855469 9.76734L5.39795 13.0084H2.97066V34.5014H67.3741V13.664L69.3775 13.1312L71.1429 6.59161L66.3303 1.81487H56.3303L49.7706 3.55943L49.4219 4.8511C48.8775 4.73273 48.3123 4.6704 47.7329 4.6704H37.7329C35.1149 4.6704 32.7868 5.94307 31.3521 7.90668L29.504 6.07237C29.5764 4.6259 29.0568 3.154 27.9445 2.04997C26.9034 1.01664 25.5407 0.502842 24.1851 0.501528L13.4905 0.545959Z" fill="black"/>
<path fill-rule="evenodd" clip-rule="evenodd" d="M55.3735 32.5093H4.9701V21.6867H24.2914V20.0191H4.9701V15.0163H55.3735V20.0191H36.0522V21.6867H55.3735V32.5093ZM25.9724 19.1855H34.373V22.5207H25.9724V19.1855Z" fill="#B274F0"/>
<path d="M14.3189 4.57718C14.7014 4.95681 14.7014 5.5723 14.3189 5.95193C13.9365 6.33155 13.3163 6.33155 12.9339 5.95193L12.0761 5.10052C11.6589 4.6865 10.955 4.80361 10.8787 5.38419C10.7494 6.36702 11.0651 7.39648 11.8258 8.15152C12.7256 9.04465 14.0123 9.31977 15.1505 8.97689L19.5551 13.3487H23.9874L17.3666 6.7773C17.7121 5.64761 17.4349 4.37051 16.535 3.47738C15.7743 2.72234 14.7371 2.40898 13.7469 2.5373C13.162 2.6131 13.044 3.31175 13.4611 3.72578L14.3189 4.57718Z" fill="#B274F0"/>
<path d="M8.18763 9.4849L14.9302 13.3487H11.5699L7.34757 10.9291L6.92754 11.6512L3.5 9.20563L4.76009 7.03936L8.60766 8.76281L8.18763 9.4849Z" fill="#B274F0"/>
<path d="M33.7018 13.3487H31.9115C31.8722 13.0764 31.8519 12.798 31.8519 12.5149C31.8519 9.29145 34.4847 6.67832 37.7323 6.67832C40.98 6.67832 43.6127 9.29145 43.6127 12.5149C43.6127 12.798 43.5924 13.0764 43.5532 13.3487H41.7628C41.8191 13.0795 41.8486 12.8006 41.8486 12.5149C41.8486 10.2585 40.0057 8.4293 37.7323 8.4293C35.459 8.4293 33.6161 10.2585 33.6161 12.5149C33.6161 12.8006 33.6456 13.0795 33.7018 13.3487Z" fill="#B274F0"/>
<path fill-rule="evenodd" clip-rule="evenodd" d="M47.4249 13.3487H51.6562L52.883 12.131L53.4119 12.656L57.747 11.5031L58.9086 7.2003L55.7351 4.05047L51.4 5.20339L50.2384 9.50614L50.7674 10.0312L47.4249 13.3487ZM56.5759 7.8225C56.3842 7.11249 55.8255 6.55791 55.1102 6.36766C54.3948 6.17741 53.6315 6.3804 53.1079 6.90017C52.5842 7.41993 52.3797 8.17751 52.5714 8.88753C52.7631 9.59754 53.3218 10.1521 54.0371 10.3424C54.7525 10.5326 55.5158 10.3296 56.0394 9.80986C56.5631 9.2901 56.7676 8.53252 56.5759 7.8225Z" fill="#B274F0"/>
</svg>
