<svg width="68" height="35" viewBox="0 0 68 35" fill="none" xmlns="http://www.w3.org/2000/svg">
<g filter="url(#filter0_dddddddd_315_221)">
<path fill-rule="evenodd" clip-rule="evenodd" d="M54.1685 32.5015H3.76502V21.6788H23.0863V20.0112H3.76502V15.0085H54.1685V20.0112H34.8471V21.6788H54.1685V32.5015ZM24.7674 19.1776H33.1679V22.5128H24.7674V19.1776Z" fill="#FA9938"/>
<path d="M13.1139 4.56932C13.4963 4.94895 13.4963 5.56444 13.1139 5.94407C12.7314 6.3237 12.1113 6.3237 11.7288 5.94407L10.871 5.09266C10.4539 4.67864 9.74996 4.79575 9.67359 5.37634C9.54432 6.35916 9.86003 7.38862 10.6207 8.14366C11.5206 9.03679 12.8073 9.31191 13.9454 8.96904L18.3501 13.3409H22.7823L16.1615 6.76944C16.507 5.63975 16.2298 4.36265 15.33 3.46953C14.5693 2.71449 13.5321 2.40112 12.5419 2.52944C11.9569 2.60524 11.8389 3.3039 12.2561 3.71792L13.1139 4.56932Z" fill="#FA9938"/>
<path d="M6.98255 9.47705L13.7251 13.3409H10.3649L6.14249 10.9212L5.72246 11.6433L2.29492 9.19778L3.55501 7.0315L7.40258 8.75495L6.98255 9.47705Z" fill="#FA9938"/>
<path d="M32.4968 13.3409H30.7064C30.6672 13.0685 30.6469 12.7901 30.6469 12.5071C30.6469 9.28359 33.2796 6.67046 36.5273 6.67046C39.7749 6.67046 42.4077 9.28359 42.4077 12.5071C42.4077 12.7901 42.3874 13.0685 42.3481 13.3409H40.5578C40.614 13.0717 40.6435 12.7928 40.6435 12.5071C40.6435 10.2506 38.8006 8.42144 36.5273 8.42144C34.2539 8.42144 32.411 10.2506 32.411 12.5071C32.411 12.7928 32.4405 13.0717 32.4968 13.3409Z" fill="#FA9938"/>
<path fill-rule="evenodd" clip-rule="evenodd" d="M46.2199 13.3409H50.4512L51.678 12.1232L52.2068 12.6481L56.5419 11.4952L57.7035 7.19244L54.53 4.04261L50.1949 5.19553L49.0334 9.49828L49.5623 10.0233L46.2199 13.3409ZM55.3708 7.81465C55.1792 7.10463 54.6204 6.55005 53.9051 6.3598C53.1897 6.16955 52.4265 6.37254 51.9028 6.89231C51.3791 7.41208 51.1746 8.16965 51.3663 8.87967C51.558 9.58968 52.1167 10.1443 52.8321 10.3345C53.5474 10.5248 54.3107 10.3218 54.8343 9.802C55.358 9.28224 55.5625 8.52466 55.3708 7.81465Z" fill="#FA9938"/>
<path d="M2.76502 32.5015C2.76502 33.0538 3.21274 33.5015 3.76502 33.5015H54.1685C54.7208 33.5015 55.1685 33.0538 55.1685 32.5015V21.6788C55.1685 21.3307 54.9906 21.0241 54.7207 20.845C54.9906 20.666 55.1685 20.3594 55.1685 20.0112V15.0085C55.1685 14.4562 54.7208 14.0085 54.1685 14.0085H51.1981L51.7001 13.5102C51.9276 13.644 52.2023 13.6841 52.4639 13.6145L56.7989 12.4616C57.1442 12.3698 57.4142 12.1007 57.5073 11.7558L58.6689 7.45308C58.7626 7.10622 58.6629 6.73579 58.4079 6.4827L55.2345 3.33286C54.9823 3.08259 54.6163 2.98489 54.273 3.0762L49.9379 4.22912C49.5927 4.32094 49.3226 4.58998 49.2295 4.9349L48.0679 9.23765C47.9977 9.49791 48.0362 9.77143 48.1676 9.99871L45.5154 12.6311C45.2278 12.9165 45.1409 13.3472 45.2953 13.7218C45.3394 13.8289 45.4007 13.9253 45.4753 14.0085H43.0927C43.2207 13.8658 43.3088 13.6853 43.3379 13.4835C43.3839 13.1641 43.4077 12.838 43.4077 12.5071C43.4077 8.72427 40.3201 5.67046 36.5273 5.67046C32.7344 5.67046 29.6469 8.72427 29.6469 12.5071C29.6469 12.838 29.6706 13.1641 29.7166 13.4835C29.7457 13.6853 29.8338 13.8658 29.9619 14.0085H23.5269C23.6014 13.9253 23.6628 13.8289 23.7069 13.7218C23.8612 13.3472 23.7743 12.9165 23.4867 12.6311L17.2571 6.44791C17.4538 5.14297 17.0464 3.76422 16.0344 2.75978C15.0443 1.77707 13.6954 1.3716 12.4134 1.53773C11.6744 1.63349 11.1788 2.16363 11.0453 2.78761C10.9416 3.27228 11.0563 3.78315 11.3509 4.19254C10.9383 3.89515 10.4237 3.7807 9.93825 3.88302C9.32005 4.01333 8.78012 4.50097 8.68213 5.24592L9.67359 5.37634L8.68213 5.24592C8.51372 6.52624 8.92556 7.87007 9.91628 8.85341C10.9296 9.85919 12.3174 10.2602 13.6278 10.0627L17.6031 14.0085H14.4697C14.5725 13.8939 14.6498 13.7545 14.6914 13.5981C14.808 13.1602 14.6155 12.6985 14.2223 12.4732L8.34024 9.10251C8.4176 8.89383 8.42368 8.66352 8.35448 8.44855C8.26759 8.17861 8.07018 7.95825 7.81137 7.84233L3.9638 6.11888C3.49705 5.9098 2.94776 6.08661 2.69061 6.5287L1.43052 8.69497C1.1709 9.1413 1.29378 9.71191 1.71411 10.0118L5.14165 12.4574C5.37068 12.6208 5.65795 12.6801 5.93299 12.6209C6.15586 12.5729 6.35399 12.4506 6.4964 12.2766L9.51859 14.0085H3.76502C3.21274 14.0085 2.76502 14.4562 2.76502 15.0085V20.0112C2.76502 20.3594 2.94292 20.6659 3.21276 20.845C2.94292 21.0241 2.76502 21.3307 2.76502 21.6788V32.5015ZM39.7817 13.9715C39.792 13.9841 39.8025 13.9964 39.8132 14.0085H33.2413C33.2521 13.9964 33.2626 13.9841 33.2728 13.9715C33.4627 13.7379 33.5372 13.4311 33.4756 13.1363C33.4334 12.934 33.411 12.7237 33.411 12.5071C33.411 10.81 34.7991 9.42144 36.5273 9.42144C38.2554 9.42144 39.6435 10.81 39.6435 12.5071C39.6435 12.7237 39.6212 12.934 39.5789 13.1364C39.5173 13.4311 39.5918 13.7379 39.7817 13.9715ZM53.6481 7.32621C54.0209 7.42537 54.3076 7.71295 54.4054 8.07528C54.5031 8.43704 54.3996 8.82456 54.1299 9.09226C53.8594 9.36075 53.4625 9.46741 53.0891 9.36811C52.7162 9.26894 52.4296 8.98137 52.3317 8.61904C52.2341 8.25728 52.3375 7.86976 52.6073 7.60206C52.8778 7.33356 53.2747 7.2269 53.6481 7.32621ZM25.7674 21.5128V20.1776H32.1679V21.5128H25.7674Z" stroke="black" stroke-width="2" stroke-linejoin="round"/>
</g>
<defs>
<filter id="filter0_dddddddd_315_221" x="0.294922" y="0.501587" width="67.4082" height="33.9999" filterUnits="userSpaceOnUse" color-interpolation-filters="sRGB">
<feFlood flood-opacity="0" result="BackgroundImageFix"/>
<feColorMatrix in="SourceAlpha" type="matrix" values="0 0 0 0 0 0 0 0 0 0 0 0 0 0 0 0 0 0 127 0" result="hardAlpha"/>
<feOffset dx="8"/>
<feComposite in2="hardAlpha" operator="out"/>
<feColorMatrix type="matrix" values="0 0 0 0 0 0 0 0 0 0 0 0 0 0 0 0 0 0 1 0"/>
<feBlend mode="normal" in2="BackgroundImageFix" result="effect1_dropShadow_315_221"/>
<feColorMatrix in="SourceAlpha" type="matrix" values="0 0 0 0 0 0 0 0 0 0 0 0 0 0 0 0 0 0 127 0" result="hardAlpha"/>
<feOffset dx="7"/>
<feComposite in2="hardAlpha" operator="out"/>
<feColorMatrix type="matrix" values="0 0 0 0 0 0 0 0 0 0 0 0 0 0 0 0 0 0 1 0"/>
<feBlend mode="normal" in2="effect1_dropShadow_315_221" result="effect2_dropShadow_315_221"/>
<feColorMatrix in="SourceAlpha" type="matrix" values="0 0 0 0 0 0 0 0 0 0 0 0 0 0 0 0 0 0 127 0" result="hardAlpha"/>
<feOffset dx="6"/>
<feComposite in2="hardAlpha" operator="out"/>
<feColorMatrix type="matrix" values="0 0 0 0 0 0 0 0 0 0 0 0 0 0 0 0 0 0 1 0"/>
<feBlend mode="normal" in2="effect2_dropShadow_315_221" result="effect3_dropShadow_315_221"/>
<feColorMatrix in="SourceAlpha" type="matrix" values="0 0 0 0 0 0 0 0 0 0 0 0 0 0 0 0 0 0 127 0" result="hardAlpha"/>
<feOffset dx="5"/>
<feComposite in2="hardAlpha" operator="out"/>
<feColorMatrix type="matrix" values="0 0 0 0 0 0 0 0 0 0 0 0 0 0 0 0 0 0 1 0"/>
<feBlend mode="normal" in2="effect3_dropShadow_315_221" result="effect4_dropShadow_315_221"/>
<feColorMatrix in="SourceAlpha" type="matrix" values="0 0 0 0 0 0 0 0 0 0 0 0 0 0 0 0 0 0 127 0" result="hardAlpha"/>
<feOffset dx="4"/>
<feComposite in2="hardAlpha" operator="out"/>
<feColorMatrix type="matrix" values="0 0 0 0 0 0 0 0 0 0 0 0 0 0 0 0 0 0 1 0"/>
<feBlend mode="normal" in2="effect4_dropShadow_315_221" result="effect5_dropShadow_315_221"/>
<feColorMatrix in="SourceAlpha" type="matrix" values="0 0 0 0 0 0 0 0 0 0 0 0 0 0 0 0 0 0 127 0" result="hardAlpha"/>
<feOffset dx="3"/>
<feComposite in2="hardAlpha" operator="out"/>
<feColorMatrix type="matrix" values="0 0 0 0 0 0 0 0 0 0 0 0 0 0 0 0 0 0 1 0"/>
<feBlend mode="normal" in2="effect5_dropShadow_315_221" result="effect6_dropShadow_315_221"/>
<feColorMatrix in="SourceAlpha" type="matrix" values="0 0 0 0 0 0 0 0 0 0 0 0 0 0 0 0 0 0 127 0" result="hardAlpha"/>
<feOffset dx="2"/>
<feComposite in2="hardAlpha" operator="out"/>
<feColorMatrix type="matrix" values="0 0 0 0 0 0 0 0 0 0 0 0 0 0 0 0 0 0 1 0"/>
<feBlend mode="normal" in2="effect6_dropShadow_315_221" result="effect7_dropShadow_315_221"/>
<feColorMatrix in="SourceAlpha" type="matrix" values="0 0 0 0 0 0 0 0 0 0 0 0 0 0 0 0 0 0 127 0" result="hardAlpha"/>
<feOffset dx="1"/>
<feComposite in2="hardAlpha" operator="out"/>
<feColorMatrix type="matrix" values="0 0 0 0 0 0 0 0 0 0 0 0 0 0 0 0 0 0 1 0"/>
<feBlend mode="normal" in2="effect7_dropShadow_315_221" result="effect8_dropShadow_315_221"/>
<feBlend mode="normal" in="SourceGraphic" in2="effect8_dropShadow_315_221" result="shape"/>
</filter>
</defs>
</svg>
