<svg width="29" height="32" viewBox="0 0 29 32" fill="none" xmlns="http://www.w3.org/2000/svg">
<path fill-rule="evenodd" clip-rule="evenodd" d="M11.9884 0C10.3688 0 8.94898 0.855634 8.15642 2.13953H7.17578H5.5H4.5C2.01472 2.13953 0 4.15426 0 6.63954V9.27907H1H2.13942V27.2434C2.13942 29.7286 4.15414 31.7434 6.63942 31.7434H7.64001H9.31579H18.6859H19.6865H21.3623C23.8476 31.7434 25.8623 29.7286 25.8623 27.2434V9.27907H26.3256H28.0014V6.63954C28.0014 4.15425 25.9866 2.13953 23.5014 2.13953H21.8256H20.8256H19.8449C19.0524 0.855634 17.6326 0 16.013 0H14.6642C14.6094 0 14.5549 0.000976849 14.5007 0.00291406C14.4464 0.000976849 14.3919 0 14.3372 0H13.3372H12.9884H11.9884Z" fill="black"/>
<path fill-rule="evenodd" clip-rule="evenodd" d="M11.9884 2.5C10.8838 2.5 9.98837 3.39543 9.98837 4.5V4.63953H4.5C3.39543 4.63953 2.5 5.53497 2.5 6.63954V6.77907H22.8256V6.63954C22.8256 5.53497 21.9301 4.63953 20.8256 4.63953H15.3372V4.5C15.3372 3.39543 14.4418 2.5 13.3372 2.5H11.9884ZM4.63942 7.84802H20.6859V27.2434C20.6859 28.3479 19.7905 29.2434 18.6859 29.2434H6.63942C5.53485 29.2434 4.63942 28.3479 4.63942 27.2434V7.84802ZM17.4766 10.5224C17.4766 10.227 17.7161 9.98755 18.0115 9.98755C18.3069 9.98755 18.5464 10.227 18.5464 10.5224V26.569C18.5464 26.8644 18.3069 27.1038 18.0115 27.1038C17.7161 27.1038 17.4766 26.8644 17.4766 26.569V10.5224ZM15.872 9.98755C15.5766 9.98755 15.3371 10.227 15.3371 10.5224V26.569C15.3371 26.8644 15.5766 27.1038 15.872 27.1038C16.1674 27.1038 16.4069 26.8644 16.4069 26.569V10.5224C16.4069 10.227 16.1674 9.98755 15.872 9.98755ZM13.1976 10.5224C13.1976 10.227 13.437 9.98755 13.7324 9.98755C14.0279 9.98755 14.2673 10.227 14.2673 10.5224V26.569C14.2673 26.8644 14.0279 27.1038 13.7324 27.1038C13.437 27.1038 13.1976 26.8644 13.1976 26.569V10.5224ZM11.5929 9.98755C11.2975 9.98755 11.058 10.227 11.058 10.5224V26.569C11.058 26.8644 11.2975 27.1038 11.5929 27.1038C11.8883 27.1038 12.1278 26.8644 12.1278 26.569V10.5224C12.1278 10.227 11.8883 9.98755 11.5929 9.98755ZM8.91849 10.5224C8.91849 10.227 9.15797 9.98755 9.45337 9.98755C9.74878 9.98755 9.98826 10.227 9.98826 10.5224V26.569C9.98826 26.8644 9.74878 27.1038 9.45337 27.1038C9.15797 27.1038 8.91849 26.8644 8.91849 26.569V10.5224ZM7.31384 9.98755C7.01843 9.98755 6.77896 10.227 6.77896 10.5224V26.569C6.77896 26.8644 7.01843 27.1038 7.31384 27.1038C7.60925 27.1038 7.84872 26.8644 7.84872 26.569V10.5224C7.84872 10.227 7.60925 9.98755 7.31384 9.98755Z" fill="#E84F30"/>
</svg>
