<svg width="29" height="32" viewBox="0 0 29 32" fill="none" xmlns="http://www.w3.org/2000/svg">
<path fill-rule="evenodd" clip-rule="evenodd" d="M11.9884 -0.000915527C10.3688 -0.000915527 8.94898 0.854719 8.15642 2.13862H7.17578H5.5H4.5C2.01472 2.13862 0 4.15334 0 6.63862V9.27815H1H2.13942V27.2425C2.13942 29.7277 4.15414 31.7425 6.63942 31.7425H7.64001H9.31579H18.6859H19.6865H21.3623C23.8476 31.7425 25.8623 29.7277 25.8623 27.2425V9.27815H26.3256H28.0014V6.63862C28.0014 4.15334 25.9866 2.13862 23.5014 2.13862H21.8256H20.8256H19.8449C19.0524 0.854718 17.6326 -0.000915527 16.013 -0.000915527H14.6642C14.6094 -0.000915527 14.5549 6.13218e-05 14.5007 0.00199853C14.4464 6.13218e-05 14.3919 -0.000915527 14.3372 -0.000915527H13.3372H12.9884H11.9884Z" fill="black"/>
<path fill-rule="evenodd" clip-rule="evenodd" d="M11.9884 2.49908C10.8838 2.49908 9.98837 3.39451 9.98837 4.49908V4.63862H4.5C3.39543 4.63862 2.5 5.53405 2.5 6.63862V6.77815H22.8256V6.63862C22.8256 5.53405 21.9301 4.63862 20.8256 4.63862H15.3372V4.49908C15.3372 3.39452 14.4418 2.49908 13.3372 2.49908H11.9884ZM4.63942 7.8471H20.6859V27.2425C20.6859 28.347 19.7905 29.2425 18.6859 29.2425H6.63942C5.53485 29.2425 4.63942 28.347 4.63942 27.2425V7.8471ZM17.4766 10.5215C17.4766 10.2261 17.7161 9.98664 18.0115 9.98664C18.3069 9.98664 18.5464 10.2261 18.5464 10.5215V26.568C18.5464 26.8634 18.3069 27.1029 18.0115 27.1029C17.7161 27.1029 17.4766 26.8634 17.4766 26.568V10.5215ZM15.872 9.98664C15.5766 9.98664 15.3371 10.2261 15.3371 10.5215V26.568C15.3371 26.8634 15.5766 27.1029 15.872 27.1029C16.1674 27.1029 16.4069 26.8634 16.4069 26.568V10.5215C16.4069 10.2261 16.1674 9.98664 15.872 9.98664ZM13.1976 10.5215C13.1976 10.2261 13.437 9.98664 13.7324 9.98664C14.0279 9.98664 14.2673 10.2261 14.2673 10.5215V26.568C14.2673 26.8634 14.0279 27.1029 13.7324 27.1029C13.437 27.1029 13.1976 26.8634 13.1976 26.568V10.5215ZM11.5929 9.98664C11.2975 9.98664 11.058 10.2261 11.058 10.5215V26.568C11.058 26.8634 11.2975 27.1029 11.5929 27.1029C11.8883 27.1029 12.1278 26.8634 12.1278 26.568V10.5215C12.1278 10.2261 11.8883 9.98664 11.5929 9.98664ZM8.91849 10.5215C8.91849 10.2261 9.15797 9.98664 9.45337 9.98664C9.74878 9.98664 9.98826 10.2261 9.98826 10.5215V26.568C9.98826 26.8634 9.74878 27.1029 9.45337 27.1029C9.15797 27.1029 8.91849 26.8634 8.91849 26.568V10.5215ZM7.31384 9.98664C7.01843 9.98664 6.77896 10.2261 6.77896 10.5215V26.568C6.77896 26.8634 7.01843 27.1029 7.31384 27.1029C7.60925 27.1029 7.84872 26.8634 7.84872 26.568V10.5215C7.84872 10.2261 7.60925 9.98664 7.31384 9.98664Z" fill="#E84F30"/>
</svg>
