<svg width="25" height="30" viewBox="0 0 25 30" fill="none" xmlns="http://www.w3.org/2000/svg">
<path d="M10.25 0.00614122C10.3328 0.00206307 10.4162 0 10.5 0C10.5838 0 10.6672 0.00206308 10.75 0.00614124C10.8328 0.00206307 10.9162 0 11 0C11.0838 0 11.1672 0.00206307 11.25 0.00614121C11.3328 0.00206307 11.4162 0 11.5 0C11.5838 0 11.6672 0.00206308 11.75 0.00614125C11.8328 0.00206309 11.9162 0 12 0C12.0838 0 12.1672 0.00206307 12.25 0.00614121C12.3328 0.00206307 12.4162 0 12.5 0C12.5838 0 12.6672 0.00206307 12.75 0.00614121C12.8328 0.00206307 12.9162 0 13 0C13.0838 0 13.1672 0.00206307 13.25 0.0061412C13.3328 0.00206307 13.4162 0 13.5 0C13.5838 0 13.6672 0.00206307 13.75 0.00614121C13.8328 0.00206307 13.9162 0 14 0C14.0838 0 14.1672 0.00206307 14.25 0.00614121C14.3328 0.00206307 14.4162 0 14.5 0C14.5838 0 14.6672 0.00206307 14.75 0.00614121C14.8328 0.00206307 14.9162 0 15 0C17.2413 0 19.1381 1.47467 19.7732 3.50667C22.6838 3.64904 25 6.05403 25 9V23C25 26.866 21.866 30 18 30H7C3.13402 30 0 26.866 0 23V9C0 6.05403 2.31617 3.64904 5.22681 3.50667C5.86188 1.47467 7.75872 0 10 0C10.0838 0 10.1672 0.00206307 10.25 0.00614122Z" fill="black"/>
<path fill-rule="evenodd" clip-rule="evenodd" d="M10 1.99805C8.34314 1.99805 7 3.34119 7 4.99805V5.49805H5.5C3.56702 5.49805 2 7.06505 2 8.99805H18C18 7.06505 16.433 5.49805 14.5 5.49805H13V4.99805C13 3.34119 11.6569 1.99805 10 1.99805ZM18 22.998V10.998H2V22.998C2 25.7595 4.23859 27.998 7 27.998H13C15.7614 27.998 18 25.7595 18 22.998ZM5.5 13.498C4.94772 13.498 4.5 13.9458 4.5 14.498V23.498C4.5 24.6026 5.39543 25.498 6.5 25.498V14.498C6.5 13.9458 6.05228 13.498 5.5 13.498ZM9 14.498C9 13.9458 9.44771 13.498 10 13.498C10.5523 13.498 11 13.9458 11 14.498V24.498C11 25.0503 10.5523 25.498 10 25.498C9.44771 25.498 9 25.0503 9 24.498V14.498ZM14.5 13.498C13.9477 13.498 13.5 13.9458 13.5 14.498V25.498C14.6046 25.498 15.5 24.6026 15.5 23.498V14.498C15.5 13.9458 15.0523 13.498 14.5 13.498Z" fill="white"/>
</svg>
