<svg width="63" height="35" viewBox="0 0 63 35" fill="none" xmlns="http://www.w3.org/2000/svg">
<path d="M12.5694 12.0029C11.9007 12.0029 11.2762 12.3371 10.9053 12.8935L8.01726 17.2256C7.79574 17.5579 8.03393 18.0029 8.43328 18.0029H17.499C17.7752 18.0029 17.999 17.7791 17.999 17.5029V12.5029C17.999 12.2268 17.7752 12.0029 17.499 12.0029H12.5694Z" fill="black"/>
<path d="M11.999 26.0029C13.1036 26.0029 13.999 26.8984 13.999 28.0029C13.999 29.1075 13.1036 30.0029 11.999 30.0029C10.8945 30.0029 9.99902 29.1075 9.99902 28.0029C9.99902 26.8984 10.8945 26.0029 11.999 26.0029Z" fill="black"/>
<path d="M43.999 26.0029C45.1036 26.0029 45.999 26.8984 45.999 28.0029C45.999 29.1075 45.1036 30.0029 43.999 30.0029C42.8945 30.0029 41.999 29.1075 41.999 28.0029C41.999 26.8984 42.8945 26.0029 43.999 26.0029Z" fill="black"/>
<path fill-rule="evenodd" clip-rule="evenodd" d="M11.999 34.0029H21.999L22.002 34.0029C24.6144 34.0029 26.8369 32.3333 27.6605 30.0029H38.3395C39.1631 32.3333 41.3866 34.0029 43.999 34.0029H53.999C56.611 34.0025 58.8331 32.333 59.6566 30.0029H60C61.6569 30.0029 63 28.6598 63 27.0029V6.00293C63 2.68922 60.3137 0.00292969 57 0.00292969H26C22.6863 0.00292969 20 2.68922 20 6.00293V8.00293L12.6163 8.00294C10.6296 8.00294 8.77169 8.9864 7.65461 10.6293L1.03826 20.3604C0.361744 21.3554 0 22.5308 0 23.734V26.0029C0 28.2121 1.79086 30.0029 4 30.0029H6.34337C7.16674 32.3324 9.38786 34.0017 11.999 34.0029ZM47 2.00293C49.2091 2.00293 51 3.79379 51 6.00293V27.0029C51 27.5552 50.5523 28.0029 50 28.0029C50 24.7213 47.3416 22.0029 44.0394 22.0029C40.7372 22.0029 38.0788 24.7213 38.0788 28.0029H24C22.8954 28.0029 22 27.1075 22 26.0029V6.00293C22 3.79379 23.7909 2.00293 26 2.00293H47ZM18 10.0029C19.1046 10.0029 20 10.8984 20 12.0029L20 26.0029C20 27.1075 19.1046 28.0029 18 28.0029H17.9214C17.9214 24.7213 15.263 22.0029 11.9608 22.0029C8.65856 22.0029 6.00016 24.7213 6.00016 28.0029H4C2.89543 28.0029 2 27.1075 2 26.0029V23.734C2 22.9318 2.24116 22.1482 2.69218 21.4849L9.30852 11.7539C10.0532 10.6586 11.2919 10.0029 12.6163 10.0029H18ZM16.002 28.0029C16.002 25.7938 14.2111 24.0029 12.002 24.0029C9.79281 24.0029 8.00195 25.7938 8.00195 28.0029C8.00195 30.2121 9.79281 32.0029 12.002 32.0029C14.2111 32.0029 16.002 30.2121 16.002 28.0029ZM43.998 24.0029C46.2072 24.0029 47.998 25.7938 47.998 28.0029C47.998 30.2121 46.2072 32.0029 43.998 32.0029C41.7889 32.0029 39.998 30.2121 39.998 28.0029C39.998 25.7938 41.7889 24.0029 43.998 24.0029Z" fill="black"/>
</svg>
