<svg width="28" height="22" viewBox="0 0 28 22" fill="none" xmlns="http://www.w3.org/2000/svg">
<g filter="url(#filter0_ddd_1131_2948)">
<path d="M11.2983 6.02997C11.315 5.72576 11.3565 5.42273 11.4227 5.12391C11.4251 5.11344 11.4276 5.103 11.4302 5.0926C11.6219 4.34282 11.9716 3.64267 12.4558 3.03902C12.9154 2.45567 13.4881 1.97101 14.1394 1.61402C14.1476 1.6095 14.1559 1.6051 14.1643 1.60081C14.8293 1.26037 15.5572 1.06037 16.3028 1.01326L11.2983 6.02997ZM11.2983 6.02997C8.5696 5.46514 6.35371 4.33746 4.50175 2.23407C4.45591 2.18176 4.3735 2.09281 4.25924 2.01216C4.14062 1.92842 3.92223 1.80754 3.6256 1.80754C3.3162 1.80754 3.08506 1.93824 2.94754 2.04826C2.82256 2.14824 2.74071 2.25733 2.69925 2.31586C2.69266 2.32516 2.68624 2.33456 2.67998 2.34407C2.00868 3.36393 1.87222 4.61346 2.05333 5.72794C2.13115 6.20681 2.27117 6.68458 2.46976 7.13471C2.03622 7.41664 1.98773 7.87791 1.98004 8.01366C1.96324 8.2234 1.96377 8.43419 1.98163 8.64386C1.98291 8.65885 1.98452 8.67381 1.98647 8.68872C2.10954 9.62924 2.4802 10.5202 3.06053 11.2705C3.21867 11.4749 3.39082 11.6669 3.5754 11.8453C3.38398 12.2331 3.49554 12.6086 3.5477 12.7471C4.07781 14.1852 4.99513 15.0138 5.90233 15.5213C5.89039 15.5254 5.87852 15.5294 5.86672 15.5334C5.80379 15.5546 5.74288 15.5752 5.68456 15.5953L5.68453 15.5952L5.67159 15.5998C4.69751 15.9497 3.65963 16.0857 2.62854 15.9986C2.46061 15.9722 2.12907 15.9241 1.7825 16.0974C1.56746 16.2049 1.28724 16.4467 1.2224 16.8596C1.1693 17.1978 1.29853 17.4505 1.34863 17.5388C1.44556 17.7096 1.57929 17.8292 1.60644 17.8535C1.60786 17.8548 1.60899 17.8558 1.6098 17.8565C1.64792 17.8912 1.68865 17.9228 1.73163 17.9512C2.00206 18.1297 2.26812 18.2836 2.53511 18.4275C3.34165 18.8672 4.19427 19.2165 5.07747 19.4691L5.07746 19.4692L5.08675 19.4717C9.58085 20.7104 14.7105 19.82 18.1695 16.382C20.8054 13.766 21.7496 10.2419 21.8183 6.81111C22.4619 6.29047 23.0328 5.68553 23.5155 5.01243C23.7302 4.73676 23.8423 4.39469 23.8322 4.04508C23.8321 4.036 23.832 4.02478 23.8317 4.01354L23.8317 4.01309C23.8311 3.99445 23.8294 3.93091 23.816 3.85385C23.8052 3.79196 23.7669 3.58938 23.6072 3.39049C23.4904 3.24496 23.3476 3.14725 23.2009 3.08782C23.2385 2.99196 23.2732 2.89479 23.3047 2.79647C23.3171 2.75789 23.3271 2.71865 23.3347 2.67896C23.3375 2.66788 23.3401 2.65708 23.342 2.64828C23.354 2.59342 23.3881 2.42823 23.3496 2.22301C23.3029 1.97418 23.1631 1.73549 22.9338 1.57168C22.9011 1.54832 22.867 1.52695 22.8317 1.50769C22.6678 1.41822 22.4841 1.37134 22.2974 1.37134C22.1118 1.37134 21.9291 1.41766 21.766 1.50607C21.1921 1.81687 20.5882 2.06784 19.9638 2.25528C19.5564 1.90536 19.0997 1.61687 18.6083 1.39916C18.5999 1.39542 18.5914 1.3918 18.5828 1.38829C17.8611 1.09221 17.0816 0.963963 16.303 1.01325L11.2983 6.02997ZM22.6812 4.06432H22.6961C22.6903 4.06678 22.6845 4.06924 22.6787 4.0717L22.676 4.07182C22.6778 4.06932 22.6795 4.06682 22.6812 4.06432Z" fill="white" stroke="black" stroke-width="2" stroke-linejoin="round"/>
</g>
<defs>
<filter id="filter0_ddd_1131_2948" x="0.209473" y="0.00296021" width="27.6235" height="20.9987" filterUnits="userSpaceOnUse" color-interpolation-filters="sRGB">
<feFlood flood-opacity="0" result="BackgroundImageFix"/>
<feColorMatrix in="SourceAlpha" type="matrix" values="0 0 0 0 0 0 0 0 0 0 0 0 0 0 0 0 0 0 127 0" result="hardAlpha"/>
<feOffset dx="3"/>
<feComposite in2="hardAlpha" operator="out"/>
<feColorMatrix type="matrix" values="0 0 0 0 0 0 0 0 0 0 0 0 0 0 0 0 0 0 1 0"/>
<feBlend mode="normal" in2="BackgroundImageFix" result="effect1_dropShadow_1131_2948"/>
<feColorMatrix in="SourceAlpha" type="matrix" values="0 0 0 0 0 0 0 0 0 0 0 0 0 0 0 0 0 0 127 0" result="hardAlpha"/>
<feOffset dx="2"/>
<feComposite in2="hardAlpha" operator="out"/>
<feColorMatrix type="matrix" values="0 0 0 0 0 0 0 0 0 0 0 0 0 0 0 0 0 0 1 0"/>
<feBlend mode="normal" in2="effect1_dropShadow_1131_2948" result="effect2_dropShadow_1131_2948"/>
<feColorMatrix in="SourceAlpha" type="matrix" values="0 0 0 0 0 0 0 0 0 0 0 0 0 0 0 0 0 0 127 0" result="hardAlpha"/>
<feOffset dx="1"/>
<feComposite in2="hardAlpha" operator="out"/>
<feColorMatrix type="matrix" values="0 0 0 0 0 0 0 0 0 0 0 0 0 0 0 0 0 0 1 0"/>
<feBlend mode="normal" in2="effect2_dropShadow_1131_2948" result="effect3_dropShadow_1131_2948"/>
<feBlend mode="normal" in="SourceGraphic" in2="effect3_dropShadow_1131_2948" result="shape"/>
</filter>
</defs>
</svg>
