<svg width="28" height="20" viewBox="0 0 28 20" fill="none" xmlns="http://www.w3.org/2000/svg">
<path d="M3.48216 0.850854C3.07697 0.850854 2.77549 1.02214 2.59851 1.16373C2.43818 1.29199 2.33531 1.4301 2.28662 1.49883C2.27788 1.51117 2.26936 1.52366 2.26104 1.53628C1.52556 2.65366 1.38445 4.00706 1.57734 5.19406C1.6476 5.62641 1.76558 6.05943 1.9297 6.47561C1.5554 6.83629 1.50776 7.29972 1.49947 7.44494C1.48146 7.67336 1.48217 7.90289 1.50163 8.13122C1.50332 8.15112 1.50547 8.17098 1.50806 8.19078C1.6402 9.20062 2.03817 10.1573 2.66128 10.9629C2.78809 11.1268 2.92329 11.2833 3.06617 11.4318C2.94046 11.8543 3.05472 12.2317 3.11 12.3793C3.56885 13.6239 4.29942 14.4435 5.07154 14.9987C4.69663 15.1095 4.31369 15.1885 3.92679 15.2353L2.34094 15.2406C2.12666 15.2212 1.80403 15.2269 1.47101 15.3934C1.18923 15.5343 0.819027 15.8528 0.733381 16.3983C0.663313 16.8445 0.833916 17.1769 0.898481 17.2906C1.02368 17.5112 1.19438 17.6628 1.22214 17.6874L1.38699 17.8158C1.38699 17.8158 2.50841 18.7175 4.88276 19.4002C6.30575 19.8093 7.76284 20.008 9.20269 19.9915C10.1977 20.0028 11.1952 20.0029 12.1902 19.9915C15.7205 20.0318 19.1711 18.7853 21.789 16.1837L21.7893 16.1835L21.7892 16.1841C24.5055 13.4886 25.489 9.88281 25.5832 6.39467C26.2112 5.87092 26.7706 5.26954 27.248 4.60469L27.2475 4.60459L27.2477 4.6043C27.5071 4.26889 27.6427 3.85388 27.6313 3.42958C27.6312 3.41932 27.631 3.40698 27.6306 3.39453L27.6306 3.39365V3.3933C27.6299 3.36918 27.6275 3.28701 27.6102 3.1874C27.5961 3.1065 27.5456 2.83844 27.3341 2.57497C27.2518 2.47244 27.1597 2.38782 27.0624 2.31921C27.0686 2.30046 27.0747 2.28168 27.0808 2.26286C27.0964 2.21424 27.1091 2.16483 27.119 2.11487C27.1218 2.10354 27.1244 2.09274 27.1264 2.08371C27.1417 2.01386 27.1865 1.79742 27.1359 1.52756C27.0745 1.19978 26.8901 0.88519 26.5882 0.669564C26.5448 0.638544 26.4996 0.610171 26.4527 0.584598C26.2404 0.468683 26.0024 0.407947 25.7605 0.407947C24.654 0.407947 23.5475 0.407947 22.441 0.407947C22.3274 0.407947 22.2146 0.421345 22.105 0.447561C21.386 0.152968 20.6137 0.0131568 19.8383 0.0363927C18.6846 0.00181565 17.4865 -0.0279254 16.3348 0.0449736C15.535 0.095519 14.7539 0.310074 14.0405 0.67527C14.0294 0.680963 14.0184 0.686813 14.0074 0.692817C13.3096 1.07527 12.6961 1.59444 12.2035 2.21929C11.7803 2.74709 11.453 3.3436 11.2352 3.98164C10.0085 3.35571 8.91477 2.51313 7.926 1.39018C7.87285 1.32955 7.77039 1.21828 7.62521 1.1158C7.47407 1.00911 7.1899 0.850854 6.80165 0.850854C5.69515 0.850854 4.58866 0.850854 3.48216 0.850854Z" fill="black"/>
<path d="M22.984 3.41546C22.3038 3.70819 21.5887 3.91202 20.8564 4.02194C21.1988 3.96325 21.7026 3.34699 21.9031 3.09755C22.2077 2.7213 22.4399 2.29178 22.5878 1.83081C22.5878 1.79657 22.6221 1.74766 22.5878 1.72321C22.5706 1.71379 22.5512 1.70885 22.5316 1.70885C22.5119 1.70885 22.4926 1.71379 22.4753 1.72321C21.6802 2.15381 20.8339 2.48246 19.9565 2.70139C19.9259 2.71073 19.8934 2.71157 19.8624 2.70381C19.8313 2.69606 19.803 2.68 19.7804 2.65737C19.7121 2.57605 19.6386 2.49926 19.5604 2.4275C19.2025 2.10687 18.7965 1.84446 18.3572 1.64984C17.7642 1.40656 17.1236 1.3012 16.484 1.34171C15.8633 1.38091 15.2573 1.5474 14.7037 1.83081C14.1585 2.1296 13.6794 2.53553 13.2951 3.02419C12.8908 3.52715 12.599 4.11084 12.4392 4.73601C12.3074 5.33067 12.2924 5.94528 12.3952 6.54565C12.3952 6.64836 12.3952 6.66303 12.3071 6.64836C8.8199 6.13481 5.95871 4.89741 3.62085 2.24164C3.51814 2.12426 3.46434 2.12426 3.3812 2.24164C2.36389 3.78717 2.85787 6.23263 4.12951 7.44069C4.30069 7.60209 4.47676 7.7586 4.66262 7.90532C4.07958 7.86393 3.51078 7.70593 2.98992 7.44069C2.8921 7.37711 2.8383 7.41134 2.83341 7.52872C2.81955 7.69146 2.81955 7.85508 2.83341 8.01782C2.93547 8.79772 3.24282 9.53653 3.72405 10.1587C4.20528 10.7808 4.84311 11.264 5.57233 11.5588C5.75009 11.635 5.93532 11.6924 6.125 11.73C5.58525 11.8363 5.03167 11.8528 4.48654 11.7789C4.36916 11.7545 4.32514 11.8181 4.36916 11.9305C5.08813 13.8869 6.64833 14.4836 7.7928 14.8162C7.94931 14.8406 8.10582 14.8406 8.2819 14.8798C8.2819 14.8798 8.28189 14.8798 8.25255 14.9091C7.91508 15.5254 6.55051 15.9411 5.92447 16.1563C4.78179 16.5667 3.56349 16.7236 2.3541 16.616C2.16336 16.5867 2.11934 16.5916 2.07043 16.616C2.02152 16.6405 2.07043 16.6943 2.12423 16.7432C2.36878 16.9046 2.61332 17.0464 2.86765 17.1834C3.62479 17.5964 4.42523 17.9244 5.25442 18.1616C9.54864 19.3452 14.3809 18.4746 17.604 15.271C20.1375 12.7571 21.0276 9.28945 21.0276 5.8169C21.0276 5.68485 21.189 5.60659 21.282 5.53812C21.9229 5.03871 22.488 4.44891 22.9595 3.78717C23.0412 3.68853 23.0831 3.56294 23.0769 3.43503C23.0769 3.36166 23.0769 3.37634 22.984 3.41546Z" fill="white"/>
</svg>
