<svg width="25" height="22" viewBox="0 0 25 22" fill="none" xmlns="http://www.w3.org/2000/svg">
<path d="M2.46976 7.13471C2.27117 6.68458 2.13115 6.20681 2.05333 5.72794C1.87222 4.61346 2.00868 3.36393 2.67998 2.34407C2.68624 2.33456 2.69266 2.32516 2.69925 2.31586C2.74071 2.25733 2.82256 2.14824 2.94754 2.04826C3.08506 1.93824 3.3162 1.80754 3.6256 1.80754C3.92223 1.80754 4.14062 1.92842 4.25924 2.01216C4.3735 2.09281 4.45591 2.18177 4.50175 2.23407C6.35371 4.33746 8.5696 5.46515 11.2983 6.02997C11.315 5.72576 11.3565 5.42273 11.4227 5.12391C11.4251 5.11344 11.4276 5.103 11.4302 5.0926C11.6219 4.34284 11.9715 3.64271 12.4557 3.03907C12.9154 2.4557 13.488 1.97102 14.1394 1.61402C14.1476 1.6095 14.1559 1.6051 14.1643 1.60081C14.8293 1.26037 15.5573 1.06037 16.3028 1.01326L2.46976 7.13471ZM2.46976 7.13471C2.03622 7.41664 1.98772 7.87791 1.98004 8.01366C1.96324 8.2234 1.96377 8.43419 1.98163 8.64386C1.98291 8.65885 1.98452 8.67381 1.98647 8.68872C2.10954 9.62924 2.4802 10.5202 3.06053 11.2705C3.21867 11.4749 3.39082 11.6669 3.5754 11.8453C3.384 12.233 3.49552 12.6086 3.54769 12.747C4.07779 14.1852 4.99512 15.0138 5.90233 15.5213C5.8904 15.5254 5.87853 15.5294 5.86673 15.5334C5.8038 15.5546 5.74288 15.5752 5.68456 15.5953L5.68453 15.5952L5.67159 15.5998C4.69751 15.9497 3.65963 16.0857 2.62854 15.9986C2.46061 15.9722 2.12908 15.9241 1.7825 16.0974C1.56746 16.2049 1.28724 16.4467 1.2224 16.8596C1.1693 17.1978 1.29853 17.4505 1.34863 17.5388C1.44556 17.7096 1.57928 17.8292 1.60644 17.8535C1.60786 17.8548 1.60899 17.8558 1.6098 17.8565C1.64791 17.8912 1.68865 17.9228 1.73163 17.9512C2.00202 18.1296 2.26804 18.2836 2.53499 18.4274C3.34157 18.8671 4.19423 19.2165 5.07747 19.4691L5.07746 19.4692L5.08675 19.4717C9.58059 20.7103 14.7099 19.8201 18.1689 16.3826L2.46976 7.13471ZM23.5155 5.0124C23.7302 4.73673 23.8423 4.39465 23.8322 4.04504C23.8321 4.03597 23.832 4.02477 23.8317 4.01354L23.8317 4.0131C23.8311 3.99446 23.8294 3.93092 23.816 3.85387C23.8052 3.79198 23.7669 3.5894 23.6072 3.3905C23.4904 3.24497 23.3477 3.14725 23.2009 3.08782C23.2385 2.99196 23.2732 2.89479 23.3047 2.79647C23.3171 2.75789 23.3271 2.71865 23.3347 2.67896C23.3375 2.66787 23.3401 2.65707 23.342 2.64827C23.354 2.59342 23.3881 2.42822 23.3496 2.22302C23.3029 1.97419 23.1631 1.7355 22.9338 1.57169C22.9011 1.54832 22.867 1.52695 22.8317 1.50768C22.6678 1.41822 22.4841 1.37134 22.2974 1.37134C22.1118 1.37134 21.9291 1.41767 21.766 1.50607C21.1921 1.81687 20.5882 2.06784 19.9638 2.25528C19.5564 1.90536 19.0997 1.61687 18.6083 1.39916C18.5999 1.39542 18.5914 1.3918 18.5828 1.38829C17.8611 1.09221 17.0816 0.963963 16.303 1.01325L23.5155 5.0124ZM23.5155 5.0124C23.0328 5.68552 22.4619 6.29047 21.8183 6.81111C21.7496 10.242 20.8054 13.7663 18.1692 16.3823L23.5155 5.0124Z" fill="white" stroke="black" stroke-width="2" stroke-linejoin="round"/>
</svg>
