<svg width="24" height="21" viewBox="0 0 24 21" fill="none" xmlns="http://www.w3.org/2000/svg">
<path d="M2.21373 20.5C1.47735 20.5 0.880398 19.903 0.880398 19.1667V16.2889C0.880398 15.5526 1.47735 14.9556 2.21373 14.9556H3.02024L7.15495 10.175L3.36416 6.0444H2.18001C1.44363 6.0444 0.84668 5.44745 0.84668 4.71107V1.83333C0.84668 1.09695 1.44363 0.5 2.18001 0.5H11.3129C11.6221 0.5 11.9068 0.605273 12.133 0.781936C12.3591 0.605273 12.6438 0.5 12.953 0.5H22.0859C22.8223 0.5 23.4192 1.09695 23.4192 1.83333V4.71107C23.4192 5.44745 22.8223 6.0444 22.0859 6.0444H21.1912L17.42 10.3617L21.4737 14.9556H22.1533C22.8897 14.9556 23.4867 15.5526 23.4867 16.2889V19.1667C23.4867 19.903 22.8897 20.5 22.1533 20.5H13.0205C12.7035 20.5 12.4124 20.3894 12.1835 20.2047C11.9547 20.3894 11.6636 20.5 11.3466 20.5H2.21373Z" fill="black"/>
<path d="M13.0192 16.2896H14.0138L10.5409 12.0064L7.15217 16.2896H8.01198V19.1673H2.21243V16.2896H3.6286L8.93924 10.1493L3.94892 4.71172H2.17871V1.83398H7.97827V4.71172H7.32076L10.5409 8.82755L13.7947 4.71172H12.9517V1.83398H18.7513V4.71172H17.2508L12.3111 10.3668L17.5374 16.2896H18.8187V19.1673H13.0192V16.2896Z" fill="white"/>
</svg>
