<svg width="44" height="31" viewBox="0 0 44 31" fill="none" xmlns="http://www.w3.org/2000/svg">
<path d="M4.67206 1.49773C1.19514 1.99389 -0.923204 5.60875 0.395671 8.88155L2.88098 15.0448C3.18294 15.7945 3.6484 16.4647 4.23868 17.0069C4.53706 17.2818 4.86483 17.5203 5.21329 17.7203L26.2207 29.7773C27.1528 30.3123 28.1797 30.541 29.1804 30.4952C29.3474 30.5028 29.5143 30.5028 29.6804 30.4952C29.8474 30.5028 30.0142 30.5028 30.1804 30.4952C30.3474 30.5028 30.5142 30.5028 30.6804 30.4952C30.8474 30.5028 31.0142 30.5028 31.1804 30.4952C31.3474 30.5028 31.5142 30.5028 31.6804 30.4952C31.8474 30.5028 32.0142 30.5028 32.1804 30.4952C32.3474 30.5028 32.5142 30.5028 32.6804 30.4952C32.8474 30.5028 33.0143 30.5028 33.1804 30.4952C33.3474 30.5028 33.5142 30.5028 33.6804 30.4952C34.3405 30.5254 34.998 30.4353 35.6187 30.2336C36.847 29.8365 37.9442 28.9995 38.6433 27.7959L42.7699 20.6906C44.2792 18.0919 43.3788 14.7749 40.7773 13.2818L19.7699 1.22475C18.8673 0.706723 17.8369 0.459266 16.8042 0.506715C16.6379 0.499081 16.4711 0.499047 16.3042 0.506715C16.1379 0.499081 15.9711 0.499047 15.8042 0.506715C15.6379 0.499081 15.4711 0.499047 15.3042 0.506715C15.1379 0.499081 14.9711 0.499047 14.8042 0.506715C14.6379 0.499081 14.4711 0.499047 14.3042 0.506715C14.1379 0.499081 13.9711 0.499047 13.8042 0.506715C13.6379 0.499081 13.4711 0.499047 13.3042 0.506715C13.1379 0.499081 12.9711 0.499047 12.8042 0.506715C12.6379 0.499081 12.4711 0.499047 12.3042 0.506715C11.9652 0.491151 11.6238 0.507176 11.2844 0.55566L4.67206 1.49773Z" fill="black"/>
<path d="M23.6412 19.3419C23.7765 19.4142 23.9161 19.4491 24.06 19.4464C24.206 19.445 24.3444 19.4125 24.4752 19.3492L25.0059 18.4353C24.9969 18.289 24.9528 18.1545 24.8736 18.0318C24.7975 17.9083 24.6965 17.8116 24.5704 17.7419C24.4668 17.6798 24.3576 17.6411 24.2429 17.6259C24.1301 17.6118 24.0182 17.6194 23.9071 17.6489C23.798 17.6795 23.6949 17.7321 23.5977 17.8069C23.5006 17.8816 23.416 17.9809 23.3441 18.1048C23.2734 18.2266 23.2291 18.349 23.2114 18.472C23.1949 18.593 23.2006 18.7081 23.2285 18.8174C23.2596 18.9258 23.31 19.0239 23.3798 19.1119C23.4516 19.2011 23.5387 19.2777 23.6412 19.3419Z" fill="white"/>
<path d="M19.6978 17.1665C19.5543 17.1454 19.411 17.0937 19.2679 17.0116C19.1309 16.933 19.0461 16.843 19.0135 16.7418C18.983 16.6417 18.9944 16.5457 19.0478 16.4538C19.0768 16.4039 19.1124 16.3658 19.1546 16.3394C19.1988 16.3141 19.2455 16.2984 19.2949 16.2921C19.3462 16.2869 19.3981 16.2901 19.4506 16.3015C19.503 16.313 19.5524 16.332 19.5988 16.3586L20.3242 16.775L20.0945 17.1705C19.9736 17.1889 19.8414 17.1876 19.6978 17.1665Z" fill="white"/>
<path d="M27.4235 20.8855C27.4412 20.7625 27.4843 20.6421 27.5527 20.5243C27.6247 20.4004 27.7098 20.3001 27.8081 20.2234C27.9064 20.1466 28.0101 20.093 28.1192 20.0624C28.2303 20.033 28.3417 20.0263 28.4532 20.0424C28.568 20.0576 28.6771 20.0963 28.7808 20.1584C28.8887 20.2177 28.977 20.2924 29.0456 20.3824C29.1175 20.4715 29.1663 20.5701 29.1922 20.6782C29.2201 20.7875 29.2242 20.903 29.2045 21.0248C29.1848 21.1467 29.1389 21.2695 29.067 21.3934C28.9974 21.5132 28.9145 21.6121 28.8182 21.69C28.7231 21.7659 28.6204 21.8201 28.5101 21.8527C28.4018 21.8864 28.2898 21.8967 28.1739 21.8834C28.0611 21.8693 27.9514 21.8317 27.8446 21.7704C27.7398 21.7102 27.6527 21.6336 27.5832 21.5404C27.5157 21.4484 27.4676 21.3463 27.4388 21.2339C27.4121 21.1226 27.407 21.0065 27.4235 20.8855Z" fill="white"/>
<path fill-rule="evenodd" clip-rule="evenodd" d="M11.5667 2.53566C12.328 2.42673 13.1067 2.5761 13.7745 2.95935L34.7819 15.0164C36.4268 15.9605 36.9903 18.0509 36.0406 19.6862L31.914 26.7915C31.4727 27.5513 30.7812 28.0795 30.0023 28.331C29.1073 28.6222 28.0959 28.5475 27.2164 28.0427L6.20904 15.9857C5.98568 15.8575 5.77875 15.7064 5.59291 15.535C5.22055 15.1933 4.92653 14.7701 4.73604 14.2969L2.25073 8.13358C1.42219 6.07755 2.74937 3.79238 4.95479 3.47767L11.5667 2.53566ZM7.17418 7.85541C6.60462 8.83609 5.34216 9.17237 4.35565 8.60617C3.36915 8.03998 3.03087 6.78497 3.60043 5.80429C4.16999 4.82361 5.43245 4.48733 6.41896 5.05353C6.75865 5.24849 7.02233 5.52626 7.19917 5.84672C7.53269 6.45292 7.54762 7.21242 7.17418 7.85541ZM26.0937 15.5562L27.4629 16.342L25.2321 20.1831L25.8427 20.5335L25.3659 21.3544L23.8244 20.4697L23.894 20.3499C23.7527 20.3433 23.6154 20.3231 23.4819 20.2891C23.3505 20.2563 23.2264 20.2064 23.1095 20.1393C22.8698 20.0017 22.6735 19.8331 22.5207 19.6336C22.3711 19.4332 22.2667 19.2174 22.2074 18.9864C22.1502 18.7565 22.1387 18.5195 22.173 18.2755C22.2084 18.0295 22.2922 17.7926 22.4244 17.5649C22.5567 17.3372 22.719 17.1481 22.9112 16.9974C23.1067 16.8459 23.3173 16.7378 23.543 16.6729C23.7707 16.6092 24.0077 16.5921 24.2539 16.6215C24.5021 16.6521 24.7451 16.7357 24.9829 16.8721C25.1139 16.9473 25.2292 17.0308 25.329 17.1227C25.4299 17.2126 25.5195 17.3106 25.5976 17.4167L26.0552 16.6287L25.6169 16.3771L26.0937 15.5562ZM17.5827 14.0151C17.6106 13.9671 17.6211 13.9119 17.6144 13.8495C17.6097 13.7882 17.5864 13.7242 17.5445 13.6576C17.5038 13.5889 17.4449 13.5192 17.3678 13.4483C17.2928 13.3786 17.1998 13.3119 17.089 13.2483C17.0467 13.224 16.999 13.202 16.946 13.1823C16.8942 13.1605 16.8419 13.1465 16.7892 13.1401C16.7384 13.135 16.6897 13.1403 16.6429 13.1561C16.5993 13.171 16.5636 13.2024 16.5357 13.2504C16.5218 13.2743 16.5115 13.299 16.5048 13.3245C16.5001 13.3511 16.502 13.3801 16.5105 13.4117C16.5191 13.4432 16.5353 13.4778 16.5591 13.5154C16.5861 13.5522 16.6249 13.5918 16.6755 13.6342L17.1794 14.0712C17.3617 14.2291 17.505 14.3779 17.6092 14.5176C17.7134 14.6574 17.7847 14.7914 17.8229 14.9199C17.8611 15.0484 17.87 15.172 17.8494 15.2907C17.8308 15.4105 17.7885 15.5274 17.7224 15.6412C17.6191 15.819 17.4863 15.9505 17.324 16.0357C17.1636 16.1221 16.9888 16.171 16.7996 16.1822C16.6136 16.1926 16.4221 16.1706 16.2253 16.1163C16.0294 16.0651 15.8448 15.9897 15.6715 15.8903C15.5587 15.8255 15.46 15.7595 15.3754 15.6924C15.2928 15.6263 15.2212 15.5599 15.1606 15.4932C15.102 15.4276 15.0527 15.362 15.0129 15.2965C14.9762 15.2302 14.9452 15.1632 14.9201 15.0955L14.373 14.7815L14.8567 13.9486L15.7121 14.4395L15.7017 14.4575C15.67 14.5166 15.6586 14.5779 15.6673 14.6415C15.6772 14.7031 15.7007 14.7645 15.7377 14.8257C15.7767 14.888 15.8268 14.9474 15.8881 15.0039C15.9505 15.0584 16.021 15.1081 16.0996 15.1532C16.2809 15.2573 16.4262 15.3101 16.5355 15.3116C16.646 15.3111 16.7227 15.2738 16.7656 15.1999C16.7992 15.142 16.8075 15.0815 16.7904 15.0184C16.7745 14.9534 16.7221 14.8793 16.6332 14.7964L16.1243 14.3405C15.8001 14.0612 15.5924 13.7875 15.501 13.5193C15.4107 13.2492 15.4398 12.9862 15.5883 12.7306C15.6753 12.5808 15.7895 12.4652 15.9307 12.3838C16.0732 12.3004 16.2298 12.2505 16.4006 12.234C16.5725 12.2155 16.753 12.2286 16.9421 12.2731C17.1331 12.3189 17.3213 12.395 17.5067 12.5014C17.6337 12.5742 17.7419 12.647 17.8313 12.7196C17.9219 12.7903 17.9996 12.8601 18.0643 12.9292C18.1289 12.9983 18.1806 13.0666 18.2193 13.134C18.2612 13.2007 18.2949 13.2653 18.3203 13.3279L18.8463 13.6297L18.3625 14.4626L17.5827 14.0151ZM13.8182 10.5881L15.2992 11.4381L13.9733 13.7211L14.3511 13.938L13.8743 14.7589L12.5474 13.9974L12.7005 13.7337C12.5381 13.7683 12.3702 13.7705 12.197 13.7403C12.0237 13.7101 11.8434 13.6413 11.656 13.5337C11.4827 13.4343 11.3352 13.3136 11.2134 13.1718C11.0916 13.03 11.0045 12.8722 10.9523 12.6984C10.9033 12.5238 10.8931 12.3355 10.9217 12.1335C10.9524 11.9327 11.0321 11.7215 11.1608 11.4998L11.7455 10.4931L11.3375 10.2589L11.8142 9.43793L13.1986 10.2324L12.1371 12.0601C12.0165 12.2678 11.9794 12.4543 12.0258 12.6194C12.0735 12.7826 12.1829 12.9133 12.3542 13.0116C12.4751 13.081 12.6064 13.1071 12.748 13.0898C12.8897 13.0726 13.0192 13.0138 13.1367 12.9134L13.8431 11.697L13.3414 11.409L13.8182 10.5881ZM19.4277 17.8744C19.5047 17.8759 19.5913 17.875 19.6873 17.8715L19.5899 18.0393L20.8956 18.7887L21.3724 17.9678L20.9522 17.7267L21.6083 16.5971C21.7382 16.3734 21.8141 16.164 21.8361 15.9689C21.8601 15.7749 21.8405 15.5959 21.7773 15.4318C21.7152 15.2657 21.6128 15.1137 21.4699 14.9757C21.3302 14.8369 21.1626 14.7115 20.9671 14.5993C20.7153 14.4547 20.455 14.3546 20.1864 14.299C19.9198 14.2445 19.6432 14.2282 19.3564 14.2501L19.309 14.9979C19.4826 15.0043 19.6514 15.0306 19.8153 15.0767C19.9825 15.1221 20.1607 15.1991 20.3501 15.3078C20.4408 15.3598 20.5192 15.4168 20.5853 15.4787C20.6526 15.5387 20.7025 15.6032 20.7348 15.6724C20.7684 15.7396 20.7834 15.8108 20.78 15.8861C20.7777 15.9593 20.754 16.0349 20.7087 16.1128L20.6531 16.2087C20.5651 16.1289 20.4657 16.0479 20.3549 15.9657C20.2473 15.8826 20.122 15.8 19.9789 15.7179C19.7835 15.6057 19.5947 15.5307 19.4125 15.4927C19.2336 15.4539 19.0662 15.4484 18.9104 15.4761C18.7557 15.5019 18.6148 15.5595 18.4876 15.649C18.3624 15.7396 18.2581 15.8568 18.1745 16.0006C18.0922 16.1424 18.0428 16.2899 18.0265 16.4429C18.0113 16.594 18.0279 16.7434 18.0765 16.8911C18.1282 17.038 18.2125 17.1796 18.3295 17.3159C18.4496 17.4515 18.6033 17.573 18.7907 17.6805C18.8653 17.7233 18.9367 17.7577 19.005 17.7835C19.0721 17.8114 19.1406 17.8321 19.2107 17.8457C19.2796 17.8612 19.3519 17.8708 19.4277 17.8744ZM27.1418 19.4415C26.9444 19.5918 26.7801 19.7799 26.649 20.0056C26.5168 20.2333 26.4319 20.4695 26.3945 20.7144C26.3603 20.9584 26.3728 21.1959 26.432 21.427C26.4912 21.6581 26.5977 21.875 26.7513 22.0777C26.9069 22.2815 27.1107 22.4557 27.3626 22.6003C27.6124 22.7437 27.8641 22.8309 28.1175 22.8618C28.3729 22.8938 28.6161 22.8776 28.847 22.8131C29.0811 22.7477 29.2949 22.6387 29.4883 22.486C29.6849 22.3326 29.8487 22.143 29.9798 21.9173C30.1109 21.6915 30.1926 21.4561 30.2248 21.2109C30.259 20.9669 30.2455 20.7288 30.1843 20.4966C30.123 20.2644 30.0146 20.0463 29.8589 19.8425C29.7053 19.6398 29.5066 19.4685 29.2628 19.3285C29.0189 19.1886 28.7703 19.1032 28.5169 19.0722C28.2635 19.0413 28.0204 19.0576 27.7874 19.1209C27.5545 19.1843 27.3393 19.2912 27.1418 19.4415Z" fill="white"/>
</svg>
