<svg width="54" height="35" viewBox="0 0 54 35" fill="none" xmlns="http://www.w3.org/2000/svg">
<path d="M4.05413 9.07311C2.20989 9.07311 0.714844 10.5682 0.714844 12.4124V21.7331C0.714844 23.1651 1.61621 24.3865 2.88253 24.861C2.86618 24.995 2.85776 25.1315 2.85776 25.2699V31.1622C2.85776 33.0064 4.3528 34.5015 6.19704 34.5015H47.802C49.6462 34.5015 51.1413 33.0064 51.1413 31.1622V25.2699C51.1413 25.1314 51.1329 24.9949 51.1165 24.8609C52.3826 24.3863 53.2838 23.1649 53.2838 21.7331V12.4124C53.2838 10.5682 51.7888 9.07311 49.9445 9.07311H42.5709V7.85861C42.5709 3.79537 39.277 0.501465 35.2137 0.501465H18.7863C14.723 0.501465 11.4291 3.79537 11.4291 7.85861V9.07311H4.05413Z" fill="black"/>
<path d="M18.7863 2.50146C15.8276 2.50146 13.4291 4.89994 13.4291 7.85861V10.2153H15.572V7.32295C15.572 5.84361 16.7713 4.64438 18.2506 4.64438H25.7498C27.2291 4.64438 28.4284 5.84361 28.4284 7.32295V10.2153H30.5709V7.85861C30.5709 4.89994 28.1724 2.50146 25.2137 2.50146H18.7863Z" fill="#FCDA69"/>
<path d="M4.85776 25.2699C4.85776 24.5302 5.45737 23.9306 6.19704 23.9306H15.5706V24.7371C15.5706 25.4768 16.1703 26.0764 16.9099 26.0764H27.0877C27.8273 26.0764 28.427 25.4768 28.427 24.7371V23.9306H37.802C38.5417 23.9306 39.1413 24.5302 39.1413 25.2699V31.1622C39.1413 31.9018 38.5417 32.5015 37.802 32.5015H6.19704C5.45737 32.5015 4.85776 31.9018 4.85776 31.1622V25.2699Z" fill="#FCDA69"/>
<path d="M4.05413 23.0723H15.5706V22.2731C15.5706 21.5335 16.1703 20.9339 16.9099 20.9339H27.0877C27.8273 20.9339 28.427 21.5335 28.427 22.2731V23.0723H39.9445C40.6842 23.0723 41.2838 22.4727 41.2838 21.7331V12.4124C41.2838 11.6727 40.6842 11.0731 39.9445 11.0731H4.05413C3.31446 11.0731 2.71484 11.6727 2.71484 12.4124V21.7331C2.71484 22.4727 3.31446 23.0723 4.05413 23.0723Z" fill="#FCDA69"/>
<path d="M17.819 22.6448C17.5231 22.6448 17.2833 22.8847 17.2833 23.1806V23.8233C17.2833 24.1192 17.5231 24.359 17.819 24.359H26.1756C26.4714 24.359 26.7113 24.1192 26.7113 23.8233V23.1806C26.7113 22.8847 26.4714 22.6448 26.1756 22.6448H17.819Z" fill="#FCDA69"/>
</svg>
