<svg width="24" height="20" viewBox="0 0 24 20" fill="none" xmlns="http://www.w3.org/2000/svg">
<path d="M5.9473 1.73823C6.35346 1.75125 6.7457 1.5898 7.0232 1.29293C7.77891 0.48306 8.78174 0.0494778 9.79978 0H13.4663C13.7916 0.0104164 14.1158 0.0598942 14.4314 0.148433C15.1258 0.342439 15.7786 0.723939 16.3095 1.29293C16.5558 1.55595 16.8925 1.7135 17.2491 1.73563L17.3528 1.73823H17.3854C19.7424 1.65881 21.6745 3.59105 21.5948 5.94776C21.5811 6.354 21.7435 6.74591 22.0405 7.02325C23.7634 8.63388 23.7634 11.3656 22.0405 12.9762C21.7435 13.2535 21.5811 13.6468 21.5948 14.053C21.6743 16.4045 19.7499 18.3341 17.3992 18.2612C17.3946 18.2612 17.39 18.2612 17.3854 18.2612H17.3528L17.2491 18.2638C17.1074 18.2729 16.9689 18.3029 16.838 18.3524C16.7857 18.3719 16.7345 18.3953 16.6849 18.4214C16.5959 18.4683 16.5103 18.5255 16.4325 18.5906C16.3894 18.6271 16.3483 18.6662 16.3095 18.7078C15.5392 19.532 14.5046 19.963 13.4663 19.9995C13.4434 19.9995 13.4279 19.9995 13.4048 19.9995C13.3552 19.9995 13.3056 19.9995 13.256 19.9995H13.0196C12.9853 19.9995 12.9511 19.9995 12.9168 19.9995H12.7219C12.6849 19.9995 12.6478 19.9995 12.6108 19.9995H12.3515C12.3122 20.0008 12.2729 19.9995 12.2337 19.9982L12.0552 19.9995C12.0182 19.9995 11.9811 19.9995 11.9441 19.9995H11.7219C11.6849 19.9995 11.6478 19.9995 11.6108 19.9995H11.3886C11.3516 19.9995 11.3145 19.9995 11.2775 19.9995H11.0553C11.0182 19.9995 10.9812 19.9995 10.9442 19.9995H10.7372C10.6946 19.9995 10.6521 19.9995 10.6095 19.9995H10.0529C10.019 19.9995 9.98515 19.9995 9.95126 19.9995H9.79978C9.4542 19.9812 9.11079 19.9187 8.77779 19.8133C8.12965 19.6101 7.52249 19.2417 7.0232 18.7078C6.79774 18.4669 6.49648 18.3133 6.17361 18.2716C6.09911 18.2625 6.02347 18.2586 5.9473 18.2612C5.8 18.2664 5.65434 18.2638 5.51075 18.2534C3.35667 18.0985 1.66319 16.2626 1.73786 14.053C1.75161 13.6468 1.58914 13.2535 1.29223 12.9762C-0.430744 11.3656 -0.430744 8.63388 1.29223 7.02325C1.58914 6.74591 1.75161 6.354 1.73786 5.94776C1.65823 3.59105 3.59031 1.65881 5.9473 1.73823Z" fill="black"/>
<path fill-rule="evenodd" clip-rule="evenodd" d="M12.0021 2.20284C10.9188 1.04371 9.08059 1.04371 7.99725 2.20284C7.45693 2.78096 6.69311 3.09735 5.90225 3.07062C4.31658 3.01703 3.01679 4.31682 3.07038 5.90249C3.0971 6.69335 2.78072 7.45717 2.2026 7.9975C1.04347 9.08084 1.04347 10.919 2.2026 12.0024C2.78072 12.5427 3.0971 13.3065 3.07038 14.0974C3.01679 15.683 4.31658 16.9828 5.90224 16.9292C6.69311 16.9025 7.45693 17.2189 7.99725 17.797C9.08059 18.9561 10.9188 18.9561 12.0021 17.797C12.5424 17.2189 13.3063 16.9025 14.0971 16.9292C15.6828 16.9828 16.9826 15.683 16.929 14.0974C16.9023 13.3065 17.2187 12.5427 17.7968 12.0024C18.9559 10.919 18.9559 9.08084 17.7968 7.9975C17.2187 7.45717 16.9023 6.69335 16.929 5.90249C16.9826 4.31682 15.6828 3.01703 14.0971 3.07062C13.3063 3.09735 12.5424 2.78096 12.0021 2.20284ZM9.60258 12.0567H9.92254V12.0582H9.92357V13.0802H7.76544V13.0787H7.76441V12.0567H8.084L6.77577 10.6381H6.21742V9.6161H8.37555V10.6381H8.06187L8.8374 11.4632L12.0744 7.94493H11.7607V6.92293H13.958V7.94493H13.3605L9.60258 12.0567Z" fill="white"/>
</svg>
