<svg width="29" height="35" viewBox="0 0 29 35" fill="none" xmlns="http://www.w3.org/2000/svg">
<path fill-rule="evenodd" clip-rule="evenodd" d="M0 29.2743L0.000185966 34.0015L24.7081 34.0013V26.8584C27.1991 26.023 28.9982 23.6698 28.9981 20.8975V0.00146484H12.2727V10.93C12.1111 10.9171 11.9476 10.9106 11.7827 10.9106H7.45455C4.09063 10.9106 1.36364 13.6376 1.36364 17.0015C1.36364 19.0875 2.41225 20.9285 4.0111 22.0263C1.62271 23.5527 0 26.1022 0 29.2743ZM14.2727 2.00146H17V10.1833H14.2727V2.00146ZM17 11.5469H14.2727V14.2742H17V11.5469ZM3.36364 17.0015C3.36364 14.7421 5.1952 12.9106 7.45455 12.9106C9.7139 12.9106 11.5455 14.7421 11.5455 17.0015C11.5455 19.2608 9.7139 21.0924 7.45455 21.0924C5.1952 21.0924 3.36364 19.2608 3.36364 17.0015ZM16.9999 15.6378H14.2728L14.2728 20.4106C14.2727 21.5403 13.357 22.456 12.2273 22.456H9.50002C5.35788 22.456 2 25.3204 2 29.2742L2.00011 32.0015L12.7143 32.0014V25.1833C15.0813 25.1833 17 23.2645 17 20.8976L16.9999 15.6378Z" fill="black"/>
</svg>
