<svg width="25" height="22" viewBox="0 0 25 22" fill="none" xmlns="http://www.w3.org/2000/svg">
<g filter="url(#filter0_ddd_1131_2951)">
<mask id="path-1-outside-1_1131_2951" maskUnits="userSpaceOnUse" x="0.832031" y="0.00296021" width="21" height="21" fill="black">
<rect fill="white" x="0.832031" y="0.00296021" width="21" height="21"/>
<path fill-rule="evenodd" clip-rule="evenodd" d="M4.05174 14.4718L2.83203 19.003L7.41315 17.7816C9.19535 18.7398 11.2642 19.0249 13.2401 18.5844C15.216 18.1439 16.9664 17.0075 18.17 15.3837C19.3737 13.7599 19.9499 11.7575 19.793 9.74412C19.636 7.73072 18.7564 5.8413 17.3155 4.42258C15.8747 3.00386 13.9692 2.151 11.9488 2.02051C9.92841 1.89001 7.9286 2.49063 6.31633 3.71216C4.70407 4.93368 3.5875 6.69416 3.17153 8.67056C2.75556 10.647 3.06808 12.7067 4.05174 14.4718ZM7.91736 16.2536L7.63404 16.086L5.07457 16.7661L5.75646 14.2371L5.57878 13.9449C4.92766 12.8874 4.58355 11.6703 4.58477 10.4292C4.58254 8.93244 5.07677 7.47696 5.99043 6.2896C6.9041 5.10225 8.18588 4.24971 9.63602 3.86484C11.0862 3.47997 12.6232 3.5844 14.0077 4.16185C15.3921 4.7393 16.5461 5.75732 17.2899 7.05729C18.0338 8.35726 18.3256 9.86614 18.1199 11.3488C17.9142 12.8315 17.2226 14.2046 16.1528 15.2543C15.083 16.3039 13.6952 16.9711 12.2056 17.1519C10.716 17.3326 9.20824 17.0168 7.91736 16.2536ZM13.9418 11.5444C14.1498 11.5917 14.3443 11.6857 14.5104 11.8193C14.5588 11.8477 14.6117 11.8771 14.667 11.9077C14.985 12.084 15.3828 12.3045 15.4564 12.6432C15.4924 12.8376 15.4673 13.0384 15.3844 13.218C15.2433 13.5153 15.0311 13.7734 14.7665 13.9697C14.5019 14.1659 14.193 14.2943 13.8669 14.3436C13.2947 14.4083 12.7156 14.3173 12.191 14.0801C11.6861 13.9077 11.2027 13.6779 10.7504 13.3952C9.84913 12.8389 9.06469 12.1134 8.44065 11.2589C8.24863 10.9988 8.0707 10.7286 7.90762 10.4495C7.6816 10.0851 7.51012 9.68976 7.39861 9.27597C7.3547 9.10374 7.33212 8.9268 7.33138 8.74909C7.32036 8.43264 7.38065 8.11775 7.5078 7.82762C7.63496 7.53749 7.82573 7.2795 8.06609 7.07266C8.20454 6.94976 8.37568 6.86944 8.55888 6.84139C8.74207 6.81334 8.92949 6.83877 9.09852 6.9146C9.42625 7.19079 9.66786 7.55478 9.79481 7.96356C9.95903 8.25514 10.0357 8.58768 10.0157 8.92152C9.92561 9.22418 9.76045 9.4993 9.53551 9.72142C9.47125 9.77627 9.43083 9.85386 9.42277 9.93784C9.41471 10.0218 9.43963 10.1056 9.49229 10.1717C10.1097 11.2296 11.0675 12.0483 12.2102 12.4947C12.2738 12.5295 12.3479 12.5399 12.4186 12.524C12.4894 12.5081 12.5519 12.4671 12.5944 12.4085C12.6576 12.3319 12.7208 12.2313 12.7875 12.1253C12.9334 11.8932 13.0956 11.6351 13.3099 11.5463C13.5176 11.4977 13.7338 11.4971 13.9418 11.5444Z"/>
</mask>
<path fill-rule="evenodd" clip-rule="evenodd" d="M4.05174 14.4718L2.83203 19.003L7.41315 17.7816C9.19535 18.7398 11.2642 19.0249 13.2401 18.5844C15.216 18.1439 16.9664 17.0075 18.17 15.3837C19.3737 13.7599 19.9499 11.7575 19.793 9.74412C19.636 7.73072 18.7564 5.8413 17.3155 4.42258C15.8747 3.00386 13.9692 2.151 11.9488 2.02051C9.92841 1.89001 7.9286 2.49063 6.31633 3.71216C4.70407 4.93368 3.5875 6.69416 3.17153 8.67056C2.75556 10.647 3.06808 12.7067 4.05174 14.4718ZM7.91736 16.2536L7.63404 16.086L5.07457 16.7661L5.75646 14.2371L5.57878 13.9449C4.92766 12.8874 4.58355 11.6703 4.58477 10.4292C4.58254 8.93244 5.07677 7.47696 5.99043 6.2896C6.9041 5.10225 8.18588 4.24971 9.63602 3.86484C11.0862 3.47997 12.6232 3.5844 14.0077 4.16185C15.3921 4.7393 16.5461 5.75732 17.2899 7.05729C18.0338 8.35726 18.3256 9.86614 18.1199 11.3488C17.9142 12.8315 17.2226 14.2046 16.1528 15.2543C15.083 16.3039 13.6952 16.9711 12.2056 17.1519C10.716 17.3326 9.20824 17.0168 7.91736 16.2536ZM13.9418 11.5444C14.1498 11.5917 14.3443 11.6857 14.5104 11.8193C14.5588 11.8477 14.6117 11.8771 14.667 11.9077C14.985 12.084 15.3828 12.3045 15.4564 12.6432C15.4924 12.8376 15.4673 13.0384 15.3844 13.218C15.2433 13.5153 15.0311 13.7734 14.7665 13.9697C14.5019 14.1659 14.193 14.2943 13.8669 14.3436C13.2947 14.4083 12.7156 14.3173 12.191 14.0801C11.6861 13.9077 11.2027 13.6779 10.7504 13.3952C9.84913 12.8389 9.06469 12.1134 8.44065 11.2589C8.24863 10.9988 8.0707 10.7286 7.90762 10.4495C7.6816 10.0851 7.51012 9.68976 7.39861 9.27597C7.3547 9.10374 7.33212 8.9268 7.33138 8.74909C7.32036 8.43264 7.38065 8.11775 7.5078 7.82762C7.63496 7.53749 7.82573 7.2795 8.06609 7.07266C8.20454 6.94976 8.37568 6.86944 8.55888 6.84139C8.74207 6.81334 8.92949 6.83877 9.09852 6.9146C9.42625 7.19079 9.66786 7.55478 9.79481 7.96356C9.95903 8.25514 10.0357 8.58768 10.0157 8.92152C9.92561 9.22418 9.76045 9.4993 9.53551 9.72142C9.47125 9.77627 9.43083 9.85386 9.42277 9.93784C9.41471 10.0218 9.43963 10.1056 9.49229 10.1717C10.1097 11.2296 11.0675 12.0483 12.2102 12.4947C12.2738 12.5295 12.3479 12.5399 12.4186 12.524C12.4894 12.5081 12.5519 12.4671 12.5944 12.4085C12.6576 12.3319 12.7208 12.2313 12.7875 12.1253C12.9334 11.8932 13.0956 11.6351 13.3099 11.5463C13.5176 11.4977 13.7338 11.4971 13.9418 11.5444Z" fill="white"/>
<path d="M2.83203 19.003L0.900777 18.4831C0.715057 19.173 0.911504 19.9096 1.41612 20.4155C1.92074 20.9213 2.65688 21.1195 3.34726 20.9355L2.83203 19.003ZM4.05174 14.4718L5.983 14.9917C6.11835 14.4889 6.05226 13.9531 5.79877 13.4982L4.05174 14.4718ZM7.41315 17.7816L8.36028 16.02C7.9123 15.7792 7.38938 15.718 6.89792 15.8491L7.41315 17.7816ZM18.17 15.3837L19.7768 16.5747L18.17 15.3837ZM19.793 9.74412L17.799 9.89957V9.89957L19.793 9.74412ZM17.3155 4.42258L18.7188 2.99746V2.99746L17.3155 4.42258ZM6.31633 3.71216L5.10855 2.11802L5.10855 2.11802L6.31633 3.71216ZM3.17153 8.67056L1.21441 8.25865L3.17153 8.67056ZM7.63404 16.086L8.65252 14.3647C8.19086 14.0916 7.63882 14.0153 7.12039 14.1531L7.63404 16.086ZM7.91736 16.2536L6.89889 17.9749L6.89951 17.9752L7.91736 16.2536ZM5.07457 16.7661L3.14353 16.2455C2.95756 16.9352 3.15359 17.6717 3.6578 18.1778C4.162 18.6838 4.89783 18.8825 5.58822 18.699L5.07457 16.7661ZM5.75646 14.2371L7.6875 14.7578C7.82998 14.2293 7.74967 13.6656 7.4653 13.198L5.75646 14.2371ZM5.57878 13.9449L7.28765 12.9058L7.28188 12.8964L5.57878 13.9449ZM4.58477 10.4292L6.58477 10.4312L6.58476 10.4262L4.58477 10.4292ZM5.99043 6.2896L7.57548 7.50929L5.99043 6.2896ZM9.63602 3.86484L9.12299 1.93176V1.93176L9.63602 3.86484ZM14.0077 4.16185L14.7776 2.31598V2.31598L14.0077 4.16185ZM17.2899 7.05729L19.0259 6.06403L17.2899 7.05729ZM18.1199 11.3488L20.1009 11.6236V11.6236L18.1199 11.3488ZM12.2056 17.1519L11.9647 15.1664H11.9647L12.2056 17.1519ZM14.5104 11.8193L13.2567 13.3777C13.3331 13.4391 13.4138 13.4948 13.4983 13.5444L14.5104 11.8193ZM14.667 11.9077L15.6367 10.1585L15.6367 10.1585L14.667 11.9077ZM15.4564 12.6432L17.4229 12.2788C17.4192 12.2585 17.4151 12.2384 17.4107 12.2183L15.4564 12.6432ZM15.3844 13.218L17.1912 14.0755C17.1942 14.0691 17.1973 14.0626 17.2002 14.0562L15.3844 13.218ZM13.8669 14.3436L14.0918 16.3309C14.1164 16.3281 14.141 16.3249 14.1655 16.3212L13.8669 14.3436ZM12.191 14.0801L13.015 12.2578C12.957 12.2315 12.8977 12.2081 12.8374 12.1875L12.191 14.0801ZM10.7504 13.3952L11.8104 11.6992L11.8008 11.6932L10.7504 13.3952ZM8.44065 11.2589L10.0558 10.0794L10.0498 10.0712L8.44065 11.2589ZM7.90762 10.4495L9.63448 9.44053C9.62558 9.4253 9.61648 9.41018 9.60718 9.39519L7.90762 10.4495ZM7.39861 9.27597L5.4606 9.77006C5.46284 9.77884 5.46514 9.7876 5.4675 9.79635L7.39861 9.27597ZM7.33138 8.74909L9.33136 8.74074C9.33128 8.72032 9.33088 8.6999 9.33017 8.6795L7.33138 8.74909ZM7.5078 7.82762L9.33961 8.63043L9.33961 8.63042L7.5078 7.82762ZM8.06609 7.07266L9.37067 8.5886C9.37844 8.58191 9.38617 8.57516 9.39384 8.56835L8.06609 7.07266ZM8.55888 6.84139L8.86155 8.81835L8.86155 8.81835L8.55888 6.84139ZM9.09852 6.9146L10.3874 5.38527C10.2451 5.26539 10.0869 5.16595 9.91715 5.08981L9.09852 6.9146ZM9.79481 7.96356L7.88481 8.55675C7.92673 8.69173 7.98284 8.82188 8.05219 8.94502L9.79481 7.96356ZM10.0157 8.92152L11.9326 9.49214C11.9763 9.34536 12.003 9.19404 12.0121 9.04116L10.0157 8.92152ZM9.53551 9.72142L10.834 11.2426C10.8708 11.2112 10.9064 11.1785 10.9408 11.1445L9.53551 9.72142ZM9.42277 9.93784L11.4136 10.1289L11.4136 10.1289L9.42277 9.93784ZM9.49229 10.1717L11.2197 9.16362C11.1709 9.08007 11.1162 9.00017 11.0558 8.92455L9.49229 10.1717ZM12.2102 12.4947L13.1693 10.7397C13.0946 10.6988 13.0173 10.6628 12.938 10.6318L12.2102 12.4947ZM12.4186 12.524L11.9807 10.5725L11.9807 10.5725L12.4186 12.524ZM12.5944 12.4085L11.0521 11.1351C11.0258 11.167 11.0005 11.1997 10.9761 11.2332L12.5944 12.4085ZM12.7875 12.1253L11.0942 11.061L11.0942 11.061L12.7875 12.1253ZM13.3099 11.5463L12.8543 9.59892C12.7484 9.62368 12.6448 9.65704 12.5443 9.69864L13.3099 11.5463ZM4.76329 19.5228L5.983 14.9917L2.12049 13.9519L0.900777 18.4831L4.76329 19.5228ZM6.89792 15.8491L2.3168 17.0705L3.34726 20.9355L7.92838 19.7141L6.89792 15.8491ZM12.8049 16.6323C11.2975 16.9683 9.71932 16.7508 8.36028 16.02L6.46602 19.5431C8.67137 20.7288 11.2309 21.0814 13.6752 20.5365L12.8049 16.6323ZM16.5633 14.1927C15.6465 15.4296 14.3123 16.2963 12.8049 16.6323L13.6752 20.5365C16.1197 19.9916 18.2863 18.5855 19.7768 16.5747L16.5633 14.1927ZM17.799 9.89957C17.9185 11.4317 17.4801 12.9559 16.5633 14.1927L19.7768 16.5747C21.2673 14.5638 21.9814 12.0834 21.7869 9.58868L17.799 9.89957ZM15.9123 5.8477C17.0102 6.92869 17.6796 8.36743 17.799 9.89957L21.7869 9.58868C21.5924 7.09401 20.5026 4.75391 18.7188 2.99746L15.9123 5.8477ZM11.8199 4.01635C13.3614 4.11591 14.8143 4.7666 15.9123 5.8477L18.7188 2.99746C16.935 1.24113 14.577 0.186092 12.0777 0.0246669L11.8199 4.01635ZM7.52411 5.30629C8.75312 4.37514 10.2784 3.91678 11.8199 4.01635L12.0777 0.0246669C9.57846 -0.136757 7.10407 0.60613 5.10855 2.11802L7.52411 5.30629ZM5.12865 9.08248C5.44523 7.57833 6.29523 6.23734 7.52411 5.30629L5.10855 2.11802C3.1129 3.63001 1.72977 5.81 1.21441 8.25865L5.12865 9.08248ZM5.79877 13.4982C5.04981 12.1543 4.81209 10.5866 5.12865 9.08248L1.21441 8.25865C0.699025 10.7074 1.08634 13.2591 2.30471 15.4454L5.79877 13.4982ZM6.61557 17.8072L6.89889 17.9749L8.93584 14.5324L8.65252 14.3647L6.61557 17.8072ZM5.58822 18.699L8.14769 18.0189L7.12039 14.1531L4.56092 14.8332L5.58822 18.699ZM3.82542 13.7165L3.14353 16.2455L7.00561 17.2868L7.6875 14.7578L3.82542 13.7165ZM3.86994 14.9841L4.04761 15.2763L7.4653 13.198L7.28763 12.9058L3.86994 14.9841ZM2.58477 10.4273C2.58319 12.0395 3.03024 13.6203 3.87569 14.9935L7.28188 12.8964C6.82508 12.1544 6.58391 11.3011 6.58476 10.4312L2.58477 10.4273ZM4.40539 5.06992C3.22231 6.60739 2.58188 8.49274 2.58477 10.4322L6.58476 10.4262C6.58319 9.37214 6.93122 8.34654 7.57548 7.50929L4.40539 5.06992ZM9.12299 1.93176C7.24729 2.42957 5.58839 3.53254 4.40539 5.06992L7.57548 7.50929C8.2198 6.67195 9.12446 6.06985 10.1491 5.79792L9.12299 1.93176ZM14.7776 2.31598C12.9867 1.56899 10.9986 1.43397 9.12299 1.93176L10.1491 5.79792C11.1737 5.52598 12.2598 5.59981 13.2377 6.00772L14.7776 2.31598ZM19.0259 6.06403C18.0626 4.38044 16.5686 3.063 14.7776 2.31598L13.2377 6.00772C14.2156 6.41559 15.0297 7.13421 15.554 8.05055L19.0259 6.06403ZM20.1009 11.6236C20.3674 9.70252 19.9892 7.74771 19.0259 6.06403L15.554 8.05055C16.0783 8.9668 16.2837 10.0298 16.1389 11.074L20.1009 11.6236ZM17.5535 16.6818C18.9384 15.323 19.8344 13.5447 20.1009 11.6236L16.1389 11.074C15.994 12.1182 15.5068 13.0862 14.7521 13.8267L17.5535 16.6818ZM12.4465 19.1373C14.3731 18.9035 16.1688 18.0405 17.5535 16.6818L14.7521 13.8267C13.9973 14.5673 13.0174 15.0387 11.9647 15.1664L12.4465 19.1373ZM6.89951 17.9752C8.56975 18.9627 10.52 19.3711 12.4465 19.1373L11.9647 15.1664C10.9119 15.2942 9.84673 15.0709 8.93521 14.532L6.89951 17.9752ZM15.7641 10.261C15.361 9.93677 14.8894 9.70881 14.3853 9.59417L13.4983 13.4946C13.4103 13.4746 13.3276 13.4347 13.2567 13.3777L15.7641 10.261ZM15.6367 10.1585C15.5764 10.1251 15.5458 10.108 15.5225 10.0943L13.4983 13.5444C13.5717 13.5874 13.647 13.629 13.6973 13.6569L15.6367 10.1585ZM17.4107 12.2183C17.2325 11.3984 16.7054 10.8966 16.4077 10.6568C16.1017 10.4105 15.7663 10.2304 15.6367 10.1585L13.6973 13.6569C13.7821 13.7039 13.8304 13.731 13.8722 13.7566C13.9126 13.7812 13.9158 13.7858 13.899 13.7723C13.8837 13.7601 13.8168 13.7049 13.7394 13.6004C13.6579 13.4903 13.555 13.3116 13.502 13.0681L17.4107 12.2183ZM17.2002 14.0562C17.4565 13.5011 17.5344 12.8802 17.4229 12.2788L13.4899 13.0076C13.4505 12.7951 13.4781 12.5757 13.5685 12.3798L17.2002 14.0562ZM15.958 15.576C16.4857 15.1846 16.9093 14.6694 17.1912 14.0755L13.5775 12.3604C13.5772 12.3611 13.5765 12.3622 13.5749 12.3634L15.958 15.576ZM14.1655 16.3212C14.8148 16.2231 15.4304 15.9674 15.958 15.576L13.5749 12.3634C13.5734 12.3645 13.5711 12.3656 13.5683 12.366L14.1655 16.3212ZM11.367 15.9025C12.2201 16.2882 13.1616 16.4362 14.0918 16.3309L13.642 12.3563C13.4277 12.3805 13.211 12.3464 13.015 12.2578L11.367 15.9025ZM9.69042 15.0912C10.2726 15.4551 10.8948 15.7509 11.5446 15.9728L12.8374 12.1875C12.4773 12.0645 12.1327 11.9006 11.8104 11.6992L9.69042 15.0912ZM6.82551 12.4385C7.60237 13.5022 8.57866 14.4051 9.70001 15.0971L11.8008 11.6932C11.1196 11.2728 10.527 10.7246 10.0558 10.0794L6.82551 12.4385ZM6.18076 11.4584C6.37987 11.7992 6.5971 12.1291 6.83151 12.4467L10.0498 10.0712C9.90016 9.86851 9.76153 9.65798 9.63448 9.44053L6.18076 11.4584ZM5.4675 9.79635C5.62977 10.3985 5.87929 10.9737 6.20806 11.5037L9.60718 9.39519C9.4839 9.19645 9.39046 8.98097 9.32972 8.75558L5.4675 9.79635ZM5.3314 8.75744C5.33283 9.09901 5.37622 9.43909 5.4606 9.77006L9.33662 8.78188C9.33318 8.76839 9.33142 8.75458 9.33136 8.74074L5.3314 8.75744ZM5.676 7.02482C5.42855 7.58944 5.31114 8.20247 5.33259 8.81868L9.33017 8.6795C9.32959 8.66281 9.33275 8.64607 9.33961 8.63043L5.676 7.02482ZM6.76151 5.55672C6.29451 5.95861 5.92344 6.46022 5.676 7.02482L9.33961 8.63042C9.34647 8.61477 9.35696 8.6004 9.37067 8.5886L6.76151 5.55672ZM8.25621 4.86442C7.69252 4.95072 7.16531 5.19795 6.73834 5.57697L9.39384 8.56835C9.24377 8.70157 9.05885 8.78815 8.86155 8.81835L8.25621 4.86442ZM9.91715 5.08981C9.39666 4.85631 8.81988 4.77813 8.25621 4.86442L8.86155 8.81835C8.66427 8.84856 8.46232 8.82122 8.2799 8.73939L9.91715 5.08981ZM11.7048 7.37037C11.4644 6.59612 11.007 5.90742 10.3874 5.38527L7.80967 8.44393C7.84554 8.47416 7.87136 8.51344 7.88481 8.55675L11.7048 7.37037ZM12.0121 9.04116C12.0551 8.32327 11.8902 7.60847 11.5374 6.9821L8.05219 8.94502C8.02785 8.90181 8.01628 8.85208 8.01929 8.80188L12.0121 9.04116ZM10.9408 11.1445C11.405 10.6861 11.7463 10.1179 11.9326 9.49214L8.09884 8.3509C8.10491 8.33049 8.11589 8.31248 8.13025 8.2983L10.9408 11.1445ZM11.4136 10.1289C11.372 10.5622 11.1636 10.9612 10.834 11.2426L8.23702 8.20025C7.77886 8.59134 7.48963 9.14555 7.43192 9.74674L11.4136 10.1289ZM11.0558 8.92455C11.3265 9.26387 11.4552 9.69566 11.4136 10.1289L7.43192 9.74673C7.37421 10.348 7.55277 10.9474 7.92873 11.4188L11.0558 8.92455ZM12.938 10.6318C12.2146 10.3492 11.6094 9.83141 11.2197 9.16362L7.7649 11.1797C8.60996 12.6278 9.9204 13.7473 11.4825 14.3576L12.938 10.6318ZM11.9807 10.5725C12.3838 10.4821 12.8064 10.5413 13.1693 10.7397L11.2511 14.2497C11.7413 14.5176 12.312 14.5977 12.8566 14.4754L11.9807 10.5725ZM10.9761 11.2332C11.22 10.8974 11.5775 10.663 11.9807 10.5725L12.8566 14.4755C13.4012 14.3532 13.8837 14.0367 14.2126 13.5838L10.9761 11.2332ZM11.0942 11.061C11.0769 11.0885 11.064 11.109 11.0519 11.128C11.0401 11.1466 11.0321 11.1588 11.0265 11.1671C11.0209 11.1755 11.0201 11.1764 11.0232 11.1722C11.0261 11.1682 11.0359 11.1548 11.0521 11.1351L14.1367 13.6818C14.2994 13.4847 14.4356 13.2615 14.4807 13.1897L11.0942 11.061ZM12.5443 9.69864C11.9918 9.9276 11.6452 10.3076 11.4749 10.5159C11.2964 10.7342 11.1535 10.9667 11.0942 11.061L14.4807 13.1897C14.5198 13.1275 14.5416 13.0932 14.5612 13.0639C14.5799 13.0361 14.5821 13.0349 14.5712 13.0483C14.5611 13.0606 14.5213 13.1082 14.4505 13.1682C14.379 13.2287 14.2548 13.3197 14.0754 13.394L12.5443 9.69864ZM14.3853 9.59417C13.8812 9.47953 13.3576 9.48115 12.8543 9.59892L13.7655 13.4937C13.6776 13.5143 13.5863 13.5146 13.4983 13.4946L14.3853 9.59417Z" fill="black" mask="url(#path-1-outside-1_1131_2951)"/>
</g>
<defs>
<filter id="filter0_ddd_1131_2951" x="0.832031" y="0.00296021" width="23.9863" height="21" filterUnits="userSpaceOnUse" color-interpolation-filters="sRGB">
<feFlood flood-opacity="0" result="BackgroundImageFix"/>
<feColorMatrix in="SourceAlpha" type="matrix" values="0 0 0 0 0 0 0 0 0 0 0 0 0 0 0 0 0 0 127 0" result="hardAlpha"/>
<feOffset dx="3"/>
<feComposite in2="hardAlpha" operator="out"/>
<feColorMatrix type="matrix" values="0 0 0 0 0 0 0 0 0 0 0 0 0 0 0 0 0 0 1 0"/>
<feBlend mode="normal" in2="BackgroundImageFix" result="effect1_dropShadow_1131_2951"/>
<feColorMatrix in="SourceAlpha" type="matrix" values="0 0 0 0 0 0 0 0 0 0 0 0 0 0 0 0 0 0 127 0" result="hardAlpha"/>
<feOffset dx="2"/>
<feComposite in2="hardAlpha" operator="out"/>
<feColorMatrix type="matrix" values="0 0 0 0 0 0 0 0 0 0 0 0 0 0 0 0 0 0 1 0"/>
<feBlend mode="normal" in2="effect1_dropShadow_1131_2951" result="effect2_dropShadow_1131_2951"/>
<feColorMatrix in="SourceAlpha" type="matrix" values="0 0 0 0 0 0 0 0 0 0 0 0 0 0 0 0 0 0 127 0" result="hardAlpha"/>
<feOffset dx="1"/>
<feComposite in2="hardAlpha" operator="out"/>
<feColorMatrix type="matrix" values="0 0 0 0 0 0 0 0 0 0 0 0 0 0 0 0 0 0 1 0"/>
<feBlend mode="normal" in2="effect2_dropShadow_1131_2951" result="effect3_dropShadow_1131_2951"/>
<feBlend mode="normal" in="SourceGraphic" in2="effect3_dropShadow_1131_2951" result="shape"/>
</filter>
</defs>
</svg>
