<svg width="34" height="31" viewBox="0 0 34 31" fill="none" xmlns="http://www.w3.org/2000/svg">
<path d="M2.0706 30.501C0.966027 30.501 0.0705971 29.6055 0.0705971 28.501V24.1844C0.0705971 23.0798 0.966027 22.1844 2.0706 22.1844H3.28036L9.48243 15.0134L3.79623 8.81758H2.02002C0.91545 8.81758 0.0200195 7.92215 0.0200195 6.81758V2.50098C0.0200195 1.39641 0.91545 0.500977 2.02002 0.500977H15.7194C16.1832 0.500977 16.6102 0.658886 16.9494 0.923881C17.2887 0.658886 17.7157 0.500977 18.1795 0.500977H31.8789C32.9834 0.500977 33.8789 1.39641 33.8789 2.50098V6.81758C33.8789 7.92215 32.9834 8.81758 31.8789 8.81758H30.5367L24.88 15.2935L30.9606 22.1844H31.98C33.0846 22.1844 33.98 23.0798 33.98 24.1844V28.501C33.98 29.6055 33.0846 30.501 31.98 30.501H18.2807C17.8052 30.501 17.3685 30.3351 17.0253 30.058C16.6821 30.3351 16.2454 30.501 15.7699 30.501H2.0706Z" fill="black"/>
<path d="M18.2787 24.1854H19.7708L14.5613 17.7606L9.47825 24.1854H10.768V28.502H2.06864V24.1854H4.1929L12.1589 14.9749L4.67339 6.81856H2.01807V2.50195H10.7174V6.81856H9.73114L14.5613 12.9923L19.442 6.81856H18.1776V2.50195H26.8769V6.81856H24.6262L17.2166 15.3012L25.0561 24.1854H26.9781V28.502H18.2787V24.1854Z" fill="white"/>
</svg>
