<svg width="34" height="27" viewBox="0 0 34 27" fill="none" xmlns="http://www.w3.org/2000/svg">
<g filter="url(#filter0_dddddddd_1018_583)">
<path d="M16.1369 20.5179H17.3423L13.1336 15.3274L9.02704 20.5179H10.069V24.0053H3.04086V20.5179H4.75703L11.1927 13.0768L5.14522 6.48736H3V3H10.0281V6.48736H9.23134L13.1336 11.4751L17.0767 6.48736H16.0552V3H23.0833V6.48736H21.265L15.2788 13.3404L21.6123 20.5179H23.165V24.0053H16.1369V20.5179Z" fill="white"/>
<path d="M13.1461 17.4106L14.8346 19.4929V20.5179V24.0053V25.3076H16.1369H23.165H24.4674V24.0053V20.5179V19.2156H23.165H22.2L17.0118 13.3361L21.8566 7.78968H23.0833H24.3856V6.48736V3V1.69767H23.0833H16.0552H14.7529V3V6.48736V7.32691L13.1389 9.3684L11.3305 7.05688V6.48736V3V1.69767H10.0281H3H1.69767V3V6.48736V7.78968H3H4.57278L9.44862 13.1025L4.16155 19.2156H3.04086H1.73854V20.5179V24.0053V25.3076H3.04086H10.069H11.3713V24.0053V20.5179V19.6538L13.1461 17.4106Z" stroke="black" stroke-width="2.60465"/>
</g>
<defs>
<filter id="filter0_dddddddd_1018_583" x="0.395508" y="0.395386" width="33.374" height="26.2145" filterUnits="userSpaceOnUse" color-interpolation-filters="sRGB">
<feFlood flood-opacity="0" result="BackgroundImageFix"/>
<feColorMatrix in="SourceAlpha" type="matrix" values="0 0 0 0 0 0 0 0 0 0 0 0 0 0 0 0 0 0 127 0" result="hardAlpha"/>
<feOffset dx="8"/>
<feComposite in2="hardAlpha" operator="out"/>
<feColorMatrix type="matrix" values="0 0 0 0 0 0 0 0 0 0 0 0 0 0 0 0 0 0 1 0"/>
<feBlend mode="normal" in2="BackgroundImageFix" result="effect1_dropShadow_1018_583"/>
<feColorMatrix in="SourceAlpha" type="matrix" values="0 0 0 0 0 0 0 0 0 0 0 0 0 0 0 0 0 0 127 0" result="hardAlpha"/>
<feOffset dx="7"/>
<feComposite in2="hardAlpha" operator="out"/>
<feColorMatrix type="matrix" values="0 0 0 0 0 0 0 0 0 0 0 0 0 0 0 0 0 0 1 0"/>
<feBlend mode="normal" in2="effect1_dropShadow_1018_583" result="effect2_dropShadow_1018_583"/>
<feColorMatrix in="SourceAlpha" type="matrix" values="0 0 0 0 0 0 0 0 0 0 0 0 0 0 0 0 0 0 127 0" result="hardAlpha"/>
<feOffset dx="6"/>
<feComposite in2="hardAlpha" operator="out"/>
<feColorMatrix type="matrix" values="0 0 0 0 0 0 0 0 0 0 0 0 0 0 0 0 0 0 1 0"/>
<feBlend mode="normal" in2="effect2_dropShadow_1018_583" result="effect3_dropShadow_1018_583"/>
<feColorMatrix in="SourceAlpha" type="matrix" values="0 0 0 0 0 0 0 0 0 0 0 0 0 0 0 0 0 0 127 0" result="hardAlpha"/>
<feOffset dx="5"/>
<feComposite in2="hardAlpha" operator="out"/>
<feColorMatrix type="matrix" values="0 0 0 0 0 0 0 0 0 0 0 0 0 0 0 0 0 0 1 0"/>
<feBlend mode="normal" in2="effect3_dropShadow_1018_583" result="effect4_dropShadow_1018_583"/>
<feColorMatrix in="SourceAlpha" type="matrix" values="0 0 0 0 0 0 0 0 0 0 0 0 0 0 0 0 0 0 127 0" result="hardAlpha"/>
<feOffset dx="4"/>
<feComposite in2="hardAlpha" operator="out"/>
<feColorMatrix type="matrix" values="0 0 0 0 0 0 0 0 0 0 0 0 0 0 0 0 0 0 1 0"/>
<feBlend mode="normal" in2="effect4_dropShadow_1018_583" result="effect5_dropShadow_1018_583"/>
<feColorMatrix in="SourceAlpha" type="matrix" values="0 0 0 0 0 0 0 0 0 0 0 0 0 0 0 0 0 0 127 0" result="hardAlpha"/>
<feOffset dx="3"/>
<feComposite in2="hardAlpha" operator="out"/>
<feColorMatrix type="matrix" values="0 0 0 0 0 0 0 0 0 0 0 0 0 0 0 0 0 0 1 0"/>
<feBlend mode="normal" in2="effect5_dropShadow_1018_583" result="effect6_dropShadow_1018_583"/>
<feColorMatrix in="SourceAlpha" type="matrix" values="0 0 0 0 0 0 0 0 0 0 0 0 0 0 0 0 0 0 127 0" result="hardAlpha"/>
<feOffset dx="2"/>
<feComposite in2="hardAlpha" operator="out"/>
<feColorMatrix type="matrix" values="0 0 0 0 0 0 0 0 0 0 0 0 0 0 0 0 0 0 1 0"/>
<feBlend mode="normal" in2="effect6_dropShadow_1018_583" result="effect7_dropShadow_1018_583"/>
<feColorMatrix in="SourceAlpha" type="matrix" values="0 0 0 0 0 0 0 0 0 0 0 0 0 0 0 0 0 0 127 0" result="hardAlpha"/>
<feOffset dx="1"/>
<feComposite in2="hardAlpha" operator="out"/>
<feColorMatrix type="matrix" values="0 0 0 0 0 0 0 0 0 0 0 0 0 0 0 0 0 0 1 0"/>
<feBlend mode="normal" in2="effect7_dropShadow_1018_583" result="effect8_dropShadow_1018_583"/>
<feBlend mode="normal" in="SourceGraphic" in2="effect8_dropShadow_1018_583" result="shape"/>
</filter>
</defs>
</svg>
