<svg width="39" height="30" viewBox="0 0 39 30" fill="none" xmlns="http://www.w3.org/2000/svg">
<path d="M3.26034 21.6834L9.46241 14.5124L3.77621 8.3166H0V0H38.8588V8.3166H35.5167L29.86 14.7925L35.9406 21.6834H38.96V30H0.0505775V21.6834H3.26034Z" fill="black"/>
<path d="M18.2607 23.6834H19.7527L14.5432 17.2587L9.46018 23.6834H10.7499V28H2.05058V23.6834H4.17483L12.1408 14.473L4.65532 6.3166H2V2H10.6993V6.3166H9.71307L14.5432 12.4903L19.424 6.3166H18.1595V2H26.8588V6.3166H24.6081L17.1985 14.7992L25.0381 23.6834H26.96V28H18.2607V23.6834Z" fill="white"/>
</svg>
