<svg width="39" height="34" viewBox="0 0 39 34" fill="none" xmlns="http://www.w3.org/2000/svg">
<path d="M12.2083 1C6.05273 1 1 5.82095 1 11.8438V22.1562C1 28.1791 6.05273 33 12.2083 33H26.7917C32.9473 33 38 28.1791 38 22.1562V11.8438C38 5.82094 32.9473 1 26.7917 1H12.2083Z" fill="black" stroke="white" stroke-width="2"/>
<path d="M4 11.5C4 7.35787 7.35786 4 11.5 4H22.5C26.6421 4 30 7.35786 30 11.5V22.5C30 26.6421 26.6421 30 22.5 30H11.5C7.35787 30 4 26.6421 4 22.5V11.5Z" fill="#E84F30"/>
<path d="M8.20764 25.75C7.55713 25.75 7.02979 25.2277 7.02979 24.5833V22.0653C7.02979 21.421 7.55713 20.8986 8.20764 20.8986H8.92011L12.5727 16.7156L9.22392 13.1014H8.17786C7.52734 13.1014 7 12.579 7 11.9347V9.41667C7 8.77233 7.52734 8.25 8.17786 8.25H16.2458C16.519 8.25 16.7704 8.34211 16.9702 8.49669C17.17 8.34211 17.4215 8.25 17.6946 8.25H25.7626C26.4131 8.25 26.9404 8.77233 26.9404 9.41667V11.9347C26.9404 12.579 26.4131 13.1014 25.7626 13.1014H24.9721L21.6407 16.879L25.2218 20.8986H25.8221C26.4727 20.8986 27 21.421 27 22.0653V24.5833C27 25.2277 26.4727 25.75 25.8221 25.75H17.7542C17.4742 25.75 17.217 25.6532 17.0149 25.4916C16.8128 25.6532 16.5556 25.75 16.2756 25.75H8.20764Z" fill="black"/>
<path d="M17.7531 22.0666H18.6318L15.5638 18.3189L12.5703 22.0666H13.3298V24.5846H8.20654V22.0666H9.45758L14.149 16.6939L9.74055 11.936H8.17676V9.41797H13.3V11.936H12.7192L15.5638 15.5373L18.4382 11.936H17.6936V9.41797H22.8168V11.936H21.4913L17.1276 16.8842L21.7445 22.0666H22.8764V24.5846H17.7531V22.0666Z" fill="white"/>
</svg>
