<svg width="14" height="14" viewBox="0 0 14 14" fill="none" xmlns="http://www.w3.org/2000/svg">
<path d="M7.86785 0.499999C7.86785 0.223857 8.09171 0 8.36785 0H13.5C13.7761 0 14 0.223858 14 0.5V2.19087C14 2.38346 13.8439 2.53958 13.6513 2.53958C13.5572 2.53958 13.4671 2.57762 13.4014 2.64507L9.46824 6.68605C9.27847 6.88101 9.27942 7.19193 9.47039 7.38573L13.3978 11.3714C13.4597 11.4343 13.5442 11.4697 13.6324 11.4697C13.8144 11.4697 13.9619 11.6171 13.9619 11.7991V13.5C13.9619 13.7761 13.738 14 13.4619 14H8.3297C8.05356 14 7.8297 13.7761 7.8297 13.5V11.9026C7.8297 11.6635 8.02351 11.4697 8.2626 11.4697C8.64556 11.4697 8.83991 11.0089 8.57264 10.7347L7.4161 9.54772C7.21955 9.34601 6.89525 9.34636 6.69913 9.54849L5.4698 10.8155C5.23253 11.0601 5.40581 11.4697 5.74655 11.4697C5.95951 11.4697 6.13215 11.6423 6.13215 11.8553V13.5C6.13215 13.7761 5.90829 14 5.63215 14H0.5C0.223857 14 0 13.7761 0 13.5V11.9323C0 11.6768 0.207122 11.4697 0.46262 11.4697C0.587554 11.4697 0.707177 11.4191 0.794277 11.3296L4.62806 7.38719C4.81743 7.19246 4.81669 6.88215 4.62639 6.68832L0.659776 2.6482C0.591562 2.57872 0.498282 2.53958 0.400915 2.53958C0.200564 2.53958 0.0381471 2.37716 0.0381471 2.17681V0.499999C0.0381471 0.223857 0.262005 0 0.538147 0H5.6703C5.94644 0 6.1703 0.223858 6.1703 0.5V2.108C6.1703 2.34635 5.97708 2.53958 5.73872 2.53958C5.35628 2.53958 5.16281 3.00022 5.43056 3.2733L6.67965 4.54729C6.87625 4.7478 7.19937 4.74713 7.39514 4.54582L8.62156 3.28461C8.89216 3.00634 8.69499 2.53958 8.30684 2.53958C8.06439 2.53958 7.86785 2.34303 7.86785 2.10059V0.499999Z" fill="black"/>
</svg>
