<svg width="32" height="20" viewBox="0 0 32 20" fill="none" xmlns="http://www.w3.org/2000/svg">
<path d="M0.89092 9.99091C0.876895 12.0637 1.05116 14.1335 1.41157 16.1746L1.42165 16.2316L1.43663 16.2876C1.63691 17.0356 2.02956 17.7182 2.57584 18.2669C3.12183 18.8153 3.80216 19.2106 4.54902 19.4128C5.17011 19.5819 6.12872 19.6873 7.10767 19.7618C8.12436 19.8393 9.2848 19.8912 10.3747 19.9262C12.5559 19.9962 14.5016 20 14.5474 20H14.572C14.667 20 15.3738 19.9996 16.3744 19.9864C17.263 19.9989 17.8557 20 17.8807 20H17.9054C18.0679 20 20.0207 19.9988 22.1726 19.9346C23.2475 19.9026 24.3837 19.8545 25.3763 19.782C26.3323 19.7121 27.2662 19.6128 27.8714 19.4517L27.8745 19.4509L27.8775 19.45C28.6237 19.2477 29.3037 18.853 29.85 18.3058C30.3963 17.7586 30.7901 17.078 30.9927 16.3317L31.0082 16.275L31.0185 16.2171C31.3834 14.1773 31.5628 12.1085 31.5545 10.0362C31.5794 7.95009 31.4033 5.86845 31.0315 3.81703L31.0216 3.7622L31.0071 3.7084C30.5986 2.18999 29.4166 1.00153 27.9005 0.587964C27.2822 0.417979 26.3241 0.31264 25.3473 0.238178C24.3315 0.160738 23.1703 0.108829 22.0792 0.0738251C19.8953 0.00376709 17.9444 0 17.898 0H17.8721C17.7762 0 17.0521 0 16.0304 0.0129721C15.1647 0.00108821 14.5896 0 14.5647 0H14.5388C14.3769 0 12.4245 0 10.273 0.0624124C9.19803 0.0935947 8.0619 0.140665 7.06928 0.212199C6.11293 0.281118 5.17938 0.379291 4.57429 0.538925L4.56019 0.542646L4.54617 0.546674C3.80512 0.759621 3.13159 1.16004 2.58998 1.70895C2.04841 2.25784 1.6569 2.93678 1.4525 3.68039L1.43628 3.73938L1.42554 3.79961C1.06102 5.8429 0.882079 7.91517 0.89092 9.99091Z" fill="black"/>
<path d="M14.5722 18.6666H14.5476C14.4712 18.6666 6.82712 18.6517 4.89856 18.126C4.37746 17.9851 3.90238 17.7092 3.52088 17.326C3.13938 16.9429 2.86484 16.4658 2.72476 15.9426C2.37796 13.9787 2.21049 11.987 2.22444 9.9925C2.21548 7.9947 2.38748 6.00023 2.73831 4.0337C2.88236 3.50966 3.15816 3.03158 3.53925 2.64534C3.92035 2.2591 4.39394 1.97768 4.91458 1.82807C6.79016 1.33325 14.2235 1.33325 14.5389 1.33325H14.5648C14.6425 1.33325 22.3062 1.3481 24.2151 1.87384C25.2736 2.16207 26.1005 2.99212 26.3864 4.05473C26.7438 6.02656 26.9126 8.02685 26.8879 10.0308C26.8966 12.0262 26.7242 14.0182 26.3728 15.9822C26.2309 16.5048 25.9553 16.9811 25.5733 17.3636C25.1913 17.7462 24.7163 18.0218 24.1953 18.1631C22.3222 18.6616 14.8877 18.6666 14.5722 18.6666V18.6666ZM12.1076 6.28758L12.1014 13.7098L18.5242 9.99868L12.1076 6.28758Z" fill="white"/>
</svg>
