<svg width="90" height="60" viewBox="0 0 90 60" fill="none" xmlns="http://www.w3.org/2000/svg">
<path fill-rule="evenodd" clip-rule="evenodd" d="M6.22217 47.5605C6.27979 47.5605 6.34082 47.5498 6.40479 47.5498H6.45605H6.49121C6.60498 47.5498 6.71875 47.5547 6.83203 47.5615C6.96094 47.5537 7.09131 47.5498 7.22217 47.5498V47.5605C7.27979 47.5605 7.34082 47.5498 7.40479 47.5498H7.45605C7.58154 47.5498 7.70703 47.5537 7.83252 47.5615C7.96143 47.5537 8.09131 47.5498 8.22217 47.5498V47.5605C8.27979 47.5605 8.34082 47.5498 8.40479 47.5498H8.45605L8.60449 47.5518C8.68066 47.5537 8.75684 47.5566 8.83301 47.5615C8.96191 47.5537 9.09131 47.5498 9.22217 47.5498V47.5605C9.27979 47.5605 9.34082 47.5498 9.40479 47.5498H9.45605C9.58105 47.5498 9.70605 47.5537 9.83057 47.5615C9.9375 47.5547 10.0449 47.5498 10.1533 47.5498C10.4819 44.0527 11.4785 40.1426 12.7471 36.3906H12.1689C9.62012 36.3906 7.77588 34.3096 7.77588 32.04C7.77588 31.6699 7.8252 31.2998 7.91895 30.9502C7.86377 30.5498 7.86377 30.1396 7.9248 29.7305C7.96875 29.4404 8.04395 29.1504 8.14893 28.8701C8.11816 28.3604 8.1748 27.8398 8.32812 27.3301C8.90918 25.4053 10.9131 24.0029 13.0498 24.2559C13.3765 24.2178 13.7119 24.2158 14.0503 24.2559C14.3755 24.2178 14.7095 24.2158 15.0464 24.2559C15.3735 24.2168 15.7095 24.2158 16.0488 24.2559C16.375 24.2178 16.7095 24.2158 17.0479 24.2559C17.3228 24.2236 17.604 24.2168 17.8877 24.2393C18.2207 23.5674 18.5225 22.9736 18.7798 22.4756C19.0801 21.8955 19.3203 21.4453 19.481 21.1504C19.3169 20.9404 19.1719 20.71 19.0498 20.4697C18.9897 20.3496 18.939 20.2305 18.8882 20.1104C18.8872 20.1006 18.8828 20.0996 18.8828 20.0996L18.855 20.0244L18.8452 20L16.6709 14.29C14.043 7.38965 19.1431 0 26.5259 0H67.4531C75.0879 0 80.2671 7.77051 77.3271 14.8105L75.1729 19.9805C74.4521 21.71 73.0991 22.7998 71.5752 23.2695C71.8804 24.1309 72.1797 25.002 72.4702 25.8789C73.2236 25.3984 74.1187 25.1201 75.0791 25.1201L75.1577 25.1211H75.2021L75.3677 25.1289C75.4385 25.1328 75.5088 25.1387 75.5786 25.1455L75.7568 25.1309C75.8633 25.124 75.9707 25.1201 76.0791 25.1201C76.1733 25.1201 76.2666 25.123 76.3589 25.1279C76.4331 25.1318 76.5068 25.1377 76.5801 25.1455C76.7441 25.1289 76.9106 25.1201 77.0791 25.1201L77.1992 25.1211L77.3765 25.1289L77.4629 25.1357L77.5791 25.1455L77.7456 25.1309C77.8555 25.124 77.9668 25.1201 78.0791 25.1201C78.248 25.1201 78.415 25.1289 78.5796 25.1455L78.7583 25.1309L78.8896 25.124C78.9526 25.1211 79.0156 25.1201 79.0791 25.1201C79.248 25.1201 79.4146 25.1289 79.5791 25.1455L79.7656 25.1309C79.8691 25.124 79.9736 25.1201 80.0791 25.1201C80.248 25.1201 80.4146 25.1289 80.5791 25.1455L80.7656 25.1309C80.8691 25.124 80.9736 25.1201 81.0791 25.1201C81.248 25.1201 81.4146 25.1289 81.5791 25.1455L81.7656 25.1309C81.8691 25.124 81.9736 25.1201 82.0791 25.1201C82.248 25.1201 82.4146 25.1289 82.5791 25.1455L82.7656 25.1309C82.8691 25.124 82.9736 25.1201 83.0791 25.1201C83.248 25.1201 83.4146 25.1289 83.5791 25.1455L83.7656 25.1309C83.8691 25.124 83.9736 25.1201 84.0791 25.1201C84.248 25.1201 84.4146 25.1289 84.5791 25.1455C84.7437 25.1289 84.9102 25.1201 85.0791 25.1201C87.7642 25.1201 89.9448 27.2998 89.9448 29.9902C89.9448 39.2803 84.2378 47.2305 76.1392 50.54C75.5342 53.9502 74.1792 56.79 72.0449 58.8604C71.2988 59.5801 70.3022 59.9805 69.2642 59.9805H49.2012C49.0381 59.9932 48.8745 60 48.71 60H6.22217C2.78613 60 0 57.21 0 53.7695C0 50.3398 2.78613 47.5498 6.22217 47.5498V47.5605ZM22.583 18.5801C22.5859 18.5801 22.5889 18.5898 22.5918 18.5996C22.6021 18.6201 22.6118 18.6504 22.625 18.6699H22.6748H22.731C23.563 18.6201 24.374 18.8301 25.064 19.25C25.252 19.0996 25.4082 18.9004 25.5181 18.6504L26.0981 17.3301C27.2119 14.7998 28.5469 12.3701 30.0869 10.0801L30.5449 9.39062C30.6968 9.16016 30.9521 9.03027 31.2261 9.03027C31.8301 9.03027 32.228 9.65039 31.9741 10.2002C30.5532 13.2695 28.8071 17.25 27.146 21.5996L27.3501 21.8799H27.9492L29.0889 20.3105C29.8931 19.2002 31.2041 18.5801 32.5679 18.6699C33.9321 18.75 35.1592 19.5195 35.8232 20.7197C35.8232 20.7197 36.813 22.5 38.1538 25.2695C38.1538 25.2695 38.624 25.1602 39.2358 25.0098C40.4678 24.25 41.2891 22.8799 41.2891 21.3301V21.2305C40.5039 21.0098 39.7939 20.4697 39.3721 19.6299C38.5659 18.0205 39.7378 16.1299 41.5391 16.1299H42.7729C44.5718 16.1299 45.7441 18.0205 44.938 19.6299C44.5161 20.4697 43.8071 21.0098 43.021 21.2305V21.3301C43.021 22.5205 43.5068 23.6006 44.291 24.3906C45.0098 24.6006 45.6641 24.9902 46.1899 25.5C46.5601 25.5996 46.9502 25.6602 47.354 25.6602C49.7471 25.6602 51.686 23.7197 51.686 21.3301V19.5898H53.418V21.3301C53.418 24.6699 50.7031 27.3906 47.354 27.3906H47.3262C47.4639 27.8701 47.5132 28.3701 47.4829 28.8496C47.5386 29 47.5864 29.1523 47.626 29.3076C47.6602 29.4434 47.6875 29.5801 47.708 29.7197C47.7812 30.21 47.7651 30.71 47.6709 31.1895C47.7251 31.4697 47.7529 31.75 47.7529 32.0303C47.7529 34.2998 45.9121 36.3799 43.3628 36.3799H42.8071C44.0649 40.0098 45.0718 43.79 45.4062 47.1504C45.7461 50.5605 45.354 53.6104 44.2139 55.9805H59.2642C61.293 54.0195 62.2529 51.0801 62.4648 47.5703C70.229 45.4902 75.9448 38.4102 75.9448 29.9902C75.9448 29.5098 75.5571 29.1201 75.0791 29.1201C74.5991 29.1201 74.2119 29.5098 74.2119 29.9902C74.2119 37.4297 69.2808 43.71 62.5088 45.75C62.4131 34.5498 55.8848 18.7998 51.896 10.2002C51.6421 9.65039 52.042 9.03027 52.644 9.03027C52.9219 9.03027 53.1802 9.16992 53.332 9.40039L53.8501 10.2002C55.293 12.4199 56.563 14.7402 57.6479 17.1504L58.25 18.4902C58.8818 19.8896 60.8872 19.8604 61.481 18.4395L63.6348 13.2695C65.4761 8.86035 62.2329 4 57.4531 4H26.5259C21.9429 4 18.7778 8.58984 20.4102 12.8701L22.583 18.5801ZM34.1729 12.7002C33.3682 11.0898 34.5391 9.18945 36.3408 9.18945H37.5752C39.374 9.18945 40.5459 11.0898 39.7402 12.7002C38.5938 14.9902 35.3188 14.9902 34.1729 12.7002ZM35.7231 11.9297C35.8672 12.21 36.0869 12.4199 36.3408 12.5498L36.5732 12.6406L36.6265 12.6514C36.644 12.6533 36.6616 12.6553 36.6792 12.6602C36.8608 12.7002 37.0532 12.7002 37.2368 12.6602L37.2832 12.6514C37.3027 12.6484 37.3223 12.6465 37.3408 12.6406L37.5752 12.5498C37.8262 12.4199 38.0459 12.21 38.1899 11.9297C38.4199 11.4697 38.0859 10.9297 37.5752 10.9297H36.3408C35.8271 10.9297 35.4932 11.4697 35.7231 11.9297ZM50.1372 12.7002C48.9912 14.9902 45.7158 14.9902 44.5698 12.7002C43.7651 11.0898 44.936 9.18945 46.7378 9.18945H47.9712C49.771 9.18945 50.9419 11.0898 50.1372 12.7002ZM46.7378 10.9297C46.2241 10.9297 45.8901 11.4697 46.1201 11.9297C46.2642 12.21 46.4839 12.4199 46.7378 12.5498L46.9702 12.6406L47.0234 12.6514C47.041 12.6533 47.0586 12.6553 47.0762 12.6602C47.2578 12.7002 47.4502 12.7002 47.6338 12.6602C47.6509 12.6553 47.6685 12.6533 47.6855 12.6514L47.7378 12.6406L47.9712 12.5498C48.2231 12.4199 48.4429 12.21 48.5869 11.9297C48.8169 11.4697 48.4829 10.9297 47.9712 10.9297H46.7378ZM40.9209 18.8604C41.0649 19.1504 41.2852 19.3496 41.5391 19.4805L41.771 19.5703C41.8052 19.5801 41.8408 19.5898 41.877 19.5898H42.4351C42.4692 19.5898 42.5049 19.5801 42.5391 19.5703L42.7729 19.4805C43.0249 19.3496 43.2451 19.1504 43.3892 18.8604C43.5293 18.5801 43.46 18.2695 43.2681 18.0703C43.1455 17.9424 42.9727 17.8604 42.7729 17.8604H41.5391C41.0249 17.8604 40.6919 18.4004 40.9209 18.8604ZM29.6538 25.9004H26.1099C25.7539 25.9004 25.4199 25.7295 25.2109 25.4395L23.2041 22.6699C23.2041 22.6699 21.542 25.6699 19.6299 29.9102L12.6401 28.2402C12.4302 28.1904 12.2148 28.2998 12.1592 28.4902C12.1021 28.6699 12.2271 28.8604 12.436 28.9102L19.3369 30.5605L19.2559 30.7402L19.2202 30.8301L12.3218 30.0195C12.1069 29.9902 11.9102 30.1299 11.8818 30.3203C11.853 30.5098 12.0049 30.6904 12.2202 30.71L18.9268 31.5L18.8428 31.6895H12.1689C11.9521 31.6895 11.7759 31.8496 11.7759 32.04C11.7759 32.2402 11.9521 32.3906 12.1689 32.3906H18.5449C15.8101 38.8799 13.1021 47.1602 14.2812 52.4395H11.5649C10.5991 52.4395 9.63721 52.3105 8.70312 52.0703L7.08789 51.6406C6.88184 51.5801 6.66895 51.5498 6.45605 51.5498H6.22217C4.99512 51.5498 4 52.5498 4 53.7695C4 55 4.99512 56 6.22217 56H38.71C39.2671 56 39.8188 55.7998 40.165 55.3604C43.814 50.7705 40.5361 40.2598 37.2188 32.3906H43.5952C43.812 32.3906 43.9878 32.2402 43.9878 32.04C43.9878 31.8496 43.812 31.6895 43.5952 31.6895H36.9209L36.8418 31.5098L43.647 30.71C43.8618 30.6904 44.0132 30.5098 43.9849 30.3203C43.9561 30.1299 43.7588 29.9902 43.5439 30.0195L36.5488 30.8398C36.5122 30.75 36.4741 30.6699 36.437 30.5801L43.4302 28.9102C43.6401 28.8604 43.7642 28.6699 43.708 28.4902C43.6865 28.417 43.6411 28.3555 43.5815 28.3105C43.4868 28.2393 43.3555 28.21 43.2271 28.2402L36.144 29.9297C34.228 25.6797 32.5591 22.6699 32.5591 22.6699L30.5532 25.4395C30.3442 25.7295 30.0098 25.9004 29.6538 25.9004ZM27.4712 35.8105L26.478 33.5996C26.3081 33.2197 26.5532 32.7598 26.9302 32.7598H28.915C29.1763 32.7598 29.374 32.9795 29.415 33.2412C29.4331 33.3574 29.4199 33.4824 29.3672 33.5996L28.374 35.8105C28.187 36.2305 27.6582 36.2305 27.4712 35.8105ZM21.0381 30.2305C22.416 27.5596 25.418 27.5596 26.7969 30.2305C26.9561 30.54 26.9561 30.9404 26.7969 31.25C25.418 33.9199 22.416 33.9199 21.0381 31.25C20.8779 30.9404 20.8779 30.54 21.0381 30.2305ZM23.9561 32.6602C23.9927 32.6504 24.0273 32.627 24.0562 32.5898C24.8442 31.5703 24.8442 29.9004 24.0562 28.8906C24.0127 28.834 23.9551 28.8096 23.8989 28.8164C23.8545 28.8223 23.8115 28.8467 23.7778 28.8906C22.9897 29.9004 22.9897 31.5703 23.7778 32.5898C23.8262 32.6533 23.8936 32.6768 23.9561 32.6602ZM34.8081 31.25C33.4292 33.9199 30.4272 33.9199 29.0479 31.25C28.8892 30.9404 28.8892 30.54 29.0479 30.2305C30.4272 27.5596 33.4292 27.5596 34.8081 30.2305C34.9668 30.54 34.9668 30.9404 34.8081 31.25ZM32.0669 32.5898C32.855 31.5703 32.855 29.9004 32.0669 28.8906C32.0278 28.8398 31.9771 28.8145 31.9263 28.8154C31.8765 28.8154 31.8271 28.8408 31.7891 28.8906C31.1899 29.6582 31.0464 30.8066 31.3579 31.7607C31.4565 32.0625 31.6001 32.3447 31.7891 32.5898C31.8306 32.6436 31.8848 32.6689 31.9385 32.665C31.9854 32.6621 32.0312 32.6367 32.0669 32.5898Z" fill="black"/>
</svg>
