<svg width="71" height="29" viewBox="0 0 71 29" fill="none" xmlns="http://www.w3.org/2000/svg">
<path fill-rule="evenodd" clip-rule="evenodd" d="M18.4719 6.64569C18.5483 6.53271 18.5483 6.38462 18.4719 6.27165C17.81 5.29295 16.3687 5.29295 15.7067 6.27165C15.6303 6.38462 15.6303 6.53271 15.7067 6.64569C16.3687 7.62438 17.81 7.62438 18.4719 6.64569ZM17.0225 5.77948C17.0596 5.74295 17.1191 5.74295 17.1562 5.77948C17.5344 6.15228 17.5344 6.76246 17.1562 7.13525C17.1191 7.17178 17.0596 7.17178 17.0225 7.13525C16.6443 6.76246 16.6443 6.15228 17.0225 5.77948Z" fill="black"/>
<path fill-rule="evenodd" clip-rule="evenodd" d="M22.9991 6.27165C23.0755 6.38462 23.0755 6.53271 22.9991 6.64569C22.3372 7.62438 20.8959 7.62438 20.234 6.64569C20.1575 6.53271 20.1575 6.38462 20.234 6.27165C20.8959 5.29295 22.3372 5.29295 22.9991 6.27165ZM21.6834 5.77948C21.6463 5.74295 21.5868 5.74295 21.5498 5.77948C21.1716 6.15228 21.1716 6.76246 21.5498 7.13525C21.5868 7.17178 21.6463 7.17178 21.6834 7.13525C22.0616 6.76246 22.0616 6.15228 21.6834 5.77948Z" fill="black"/>
<path d="M18.9409 7.19984C18.784 7.19984 18.6824 7.36538 18.7533 7.50528L19.1654 8.31761C19.2433 8.47116 19.4626 8.47116 19.5405 8.31761L19.9525 7.50528C20.0235 7.36538 19.9219 7.19984 19.765 7.19984H18.9409Z" fill="black"/>
<path fill-rule="evenodd" clip-rule="evenodd" d="M41.5435 4.12058H42.1298C42.9857 4.12058 43.5423 5.02126 43.1596 5.78676C42.6145 6.87692 41.0588 6.87692 40.5137 5.78676C40.131 5.02126 40.6876 4.12058 41.5435 4.12058ZM41.5435 5.71297C41.5792 5.73058 41.6162 5.74477 41.6541 5.75552C41.6706 5.76021 41.6873 5.76425 41.7041 5.76764C41.7914 5.78526 41.8819 5.78526 41.9692 5.76764C41.986 5.76425 42.0027 5.76021 42.0192 5.75552C42.0571 5.74477 42.0942 5.73058 42.1298 5.71297C42.25 5.65366 42.3545 5.55549 42.423 5.41847C42.532 5.20053 42.3735 4.94411 42.1298 4.94411H41.5435C41.2998 4.94411 41.1413 5.20053 41.2503 5.41847C41.3188 5.55549 41.4234 5.65366 41.5435 5.71297Z" fill="black"/>
<path fill-rule="evenodd" clip-rule="evenodd" d="M45.6302 9.08088C45.4297 9.4819 45.0924 9.7354 44.719 9.84139V9.88528C44.719 11.0223 45.6408 11.9441 46.7778 11.9441C47.9149 11.9441 48.8366 11.0223 48.8366 9.88528V9.06175H49.6602V9.88528C49.6602 11.4772 48.3697 12.7676 46.7778 12.7676C46.6353 12.7676 46.4952 12.7573 46.3582 12.7373C46.3634 12.7797 46.3661 12.8226 46.3661 12.8658V14.0028C46.3661 15.1399 45.4443 16.0616 44.3072 16.0616C43.1702 16.0616 42.2484 15.1399 42.2484 14.0028V12.8658C42.2484 12.8226 42.251 12.7797 42.2562 12.7373C42.1192 12.7573 41.9791 12.7676 41.8366 12.7676C40.2448 12.7676 38.9543 11.4772 38.9543 9.88528V9.06175H39.7778V9.88528C39.7778 11.0223 40.6996 11.9441 41.8366 11.9441C42.9737 11.9441 43.8955 11.0223 43.8955 9.88528V9.84138C43.5221 9.73539 43.1848 9.48189 42.9843 9.08088C42.6016 8.31538 43.1582 7.41469 44.0141 7.41469H44.6004C45.4563 7.41469 46.0129 8.31538 45.6302 9.08088ZM44.1247 9.04964C44.0868 9.03888 44.0497 9.0247 44.0141 9.00708C43.8939 8.94778 43.7894 8.84961 43.7209 8.71259C43.6119 8.49465 43.7704 8.23822 44.0141 8.23822H44.6004C44.8441 8.23822 45.0026 8.49465 44.8936 8.71259C44.8251 8.84961 44.7205 8.94778 44.6004 9.00708C44.5647 9.0247 44.5277 9.03888 44.4898 9.04964C44.4733 9.05433 44.4566 9.05837 44.4398 9.06175H44.1747C44.1579 9.05837 44.1412 9.05433 44.1247 9.04964ZM43.0719 12.8658C43.0719 12.8029 43.0969 12.7425 43.1414 12.698L43.7249 12.1145C44.0465 11.7929 44.5679 11.7929 44.8896 12.1145L45.473 12.698C45.5175 12.7425 45.5425 12.8029 45.5425 12.8658V14.0028C45.5425 14.685 44.9895 15.2381 44.3072 15.2381C43.625 15.2381 43.0719 14.685 43.0719 14.0028V12.8658Z" fill="black"/>
<path fill-rule="evenodd" clip-rule="evenodd" d="M47.071 4.12058H46.4847C45.6288 4.12058 45.0721 5.02126 45.4549 5.78676C46 6.87692 47.5557 6.87692 48.1008 5.78676C48.4835 5.02126 47.9269 4.12058 47.071 4.12058ZM46.4847 5.71297C46.5203 5.73058 46.5574 5.74477 46.5953 5.75552C46.6118 5.76021 46.6285 5.76425 46.6452 5.76764C46.7326 5.78526 46.8231 5.78526 46.9104 5.76764C46.9272 5.76425 46.9439 5.76021 46.9604 5.75552C46.9983 5.74477 47.0353 5.73058 47.071 5.71297C47.1911 5.65366 47.2957 5.55549 47.3642 5.41847C47.4731 5.20053 47.3147 4.94411 47.071 4.94411H46.4847C46.241 4.94411 46.0825 5.20053 46.1915 5.41847C46.26 5.55549 46.3645 5.65366 46.4847 5.71297Z" fill="black"/>
<path fill-rule="evenodd" clip-rule="evenodd" d="M35.3013 28.0029H61.3402L61.8191 27.5394C62.9198 26.4743 63.478 25.0675 63.7162 23.588C67.5408 22.0858 70.2484 18.3606 70.2484 14.0029C70.2484 12.8659 69.3266 11.9441 68.1896 11.9441H61.9107C61.7616 11.5009 61.6081 11.0615 61.4516 10.6279C62.2063 10.478 62.899 9.98373 63.2472 9.14907L64.2713 6.69395C65.5988 3.51151 63.2607 0.00292969 59.8125 0.00292969H36.8796C35.28 0.00292969 33.9183 0.771942 33.0659 1.91612C32.9299 1.65491 32.8144 1.43716 32.7238 1.26827L32.558 0.961055L32.5134 0.879023L32.5013 0.856505L32.0418 0.0176953L14.943 0.0141889L14.4449 0.848463L14.4278 0.879023L14.3834 0.961055L14.2181 1.26666C14.0761 1.53206 13.8731 1.91648 13.6254 2.40062C13.3781 2.88316 13.0859 3.46542 12.7653 4.1281L7.94708 4.12006C7.19241 4.13615 6.39115 4.57686 6.11837 5.48242C6.07071 5.64166 6.04418 5.79607 6.03603 5.94405C6.02678 6.11294 6.04106 6.27539 6.07509 6.4298C6.00698 6.55366 5.95139 6.68877 5.91113 6.83513C5.89012 6.91234 5.87328 6.99276 5.86101 7.0748C5.81869 7.3611 5.83844 7.62489 5.90494 7.86455C5.81577 8.08008 5.76471 8.32296 5.76471 8.59479C5.76471 9.82204 6.81719 10.5008 7.703 10.5008H9.99319C9.28913 12.3441 8.6351 14.3064 8.16231 16.2269C7.73602 17.9592 7.43559 19.7398 7.41176 21.4126H3.29412C1.4748 21.4126 0 22.8875 0 24.7067C0 26.5259 1.4748 28.0008 3.29412 28.0008H35.2991L35.3013 28.0029ZM17.3724 3.47083L15.885 1.41998C15.885 1.41998 14.6524 3.6408 13.2347 6.78319L8.05229 5.54653C7.89692 5.50945 7.73722 5.59157 7.69559 5.72993C7.65395 5.8683 7.74616 6.01053 7.90153 6.0476L13.0177 7.26844C12.9888 7.33352 12.9599 7.39895 12.9309 7.46471L7.81711 6.86515C7.65764 6.84645 7.51133 6.94643 7.49034 7.08845C7.46934 7.23047 7.5816 7.36076 7.74108 7.37946L12.7137 7.96247L12.6513 8.10711H7.70301C7.54216 8.10711 7.41176 8.22324 7.41176 8.36649C7.41176 8.50974 7.54216 8.62586 7.70301 8.62586H12.4304C10.403 13.4357 8.39505 19.5739 9.26884 23.4906H7.25565C6.53926 23.4906 5.82593 23.3971 5.13373 23.2125L3.93637 22.8932C3.78336 22.8524 3.62569 22.8317 3.46735 22.8317H3.29412C2.38447 22.8317 1.64706 23.5692 1.64706 24.4788C1.64706 25.3884 2.38447 26.1259 3.29412 26.1259H27.3808C27.7936 26.1259 28.2032 25.9788 28.4598 25.6554C31.1647 22.247 28.7345 14.4594 26.2755 8.62586H31.0028C31.1637 8.62586 31.2941 8.50974 31.2941 8.36649C31.2941 8.22324 31.1637 8.10711 31.0028 8.10711H26.0546L25.9959 7.97095L31.0409 7.37946C31.2003 7.36076 31.3126 7.23047 31.2916 7.08845C31.2706 6.94643 31.1243 6.84645 30.9648 6.86515L25.7787 7.47319C25.7509 7.4101 25.7232 7.34732 25.6955 7.28485L30.8804 6.0476C31.0358 6.01053 31.128 5.8683 31.0863 5.72993C31.0447 5.59157 30.885 5.50945 30.7296 5.54653L25.4785 6.79957C24.0578 3.64852 22.8209 1.41998 22.8209 1.41998L21.3335 3.47083C21.1786 3.68443 20.9307 3.81087 20.6668 3.81087H18.039C17.7752 3.81087 17.5273 3.68443 17.3724 3.47083ZM51.5772 1.64999C53.8498 1.64999 55.3908 3.9624 54.5159 6.05987L53.4918 8.51499C53.2097 9.19108 52.2567 9.20427 51.956 8.53623L51.6703 7.90135C51.1545 6.75509 50.5511 5.65029 49.8655 4.59678L49.6191 4.21825C49.5471 4.10761 49.4241 4.04088 49.2921 4.04088C49.0058 4.04088 48.8164 4.33791 48.9368 4.59759C50.8329 8.68529 53.9346 16.1722 53.9808 21.4945C57.1988 20.5243 59.5425 17.5373 59.5425 14.0029C59.5425 13.7755 59.7269 13.5912 59.9543 13.5912C60.1817 13.5912 60.3661 13.7755 60.3661 14.0029C60.3661 18.0037 57.6491 21.3698 53.9596 22.3569C53.8594 24.0235 53.4028 25.4225 52.4384 26.3559H35.9678C31.9097 22.4287 36.8443 10.2571 39.4691 4.59822C39.5896 4.33823 39.4 4.04088 39.1134 4.04088C38.9831 4.04088 38.8614 4.10584 38.7888 4.21409L38.5719 4.5378C37.84 5.63008 37.2056 6.78464 36.6761 7.98811L36.4008 8.61381C36.1292 9.2312 35.2456 9.20888 35.0055 8.57855L33.9729 5.86785C33.1973 3.83191 34.7009 1.64999 36.8796 1.64999H51.5772Z" fill="black"/>
</svg>
