<svg width="110" height="61" viewBox="0 0 110 61" fill="none" xmlns="http://www.w3.org/2000/svg">
<path fill-rule="evenodd" clip-rule="evenodd" d="M31.8399 0.0332491C32.1705 -0.00776657 32.5049 -0.00776657 32.8355 0.0342256C32.9683 0.0176241 33.1021 0.00785843 33.2359 0.00395218C33.4371 -0.000930633 33.6382 0.00883499 33.8379 0.0342256C34.1695 -0.00679001 34.5044 -0.00776657 34.836 0.0342256C34.9844 0.0156709 35.1338 0.00492874 35.2837 0.00297562L35.4551 0.00492874L35.5958 0.0107881C35.6763 0.0156709 35.7569 0.0234834 35.8365 0.0342256C36.1685 -0.00776657 36.5044 -0.00776657 36.8365 0.0342256C37.1685 -0.00776657 37.5044 -0.00776657 37.8365 0.0342256C38.1685 -0.00776657 38.5044 -0.00776657 38.8365 0.0342256C38.9112 0.02446 38.9864 0.0176241 39.0616 0.0127412C39.1382 0.00688187 39.2154 0.00395218 39.2925 0.00297562C39.4742 0.00102249 39.6563 0.0117647 39.837 0.0342256C40.1695 -0.00776657 40.5064 -0.00776657 40.8384 0.0342256C41.7125 -0.0751494 42.6143 0.103562 43.3956 0.577194L70.0098 16.5772C70.586 16.9229 71.045 17.3936 71.3716 17.9356C71.5118 18.167 71.6275 18.4122 71.7173 18.6661C71.8677 19.0889 71.9468 19.5362 71.9498 19.9874C72.042 19.9874 72.1338 19.9903 72.2256 19.9932L72.2813 19.9961C72.4468 19.9903 72.6128 19.9864 72.7798 19.9864C72.9468 19.9864 73.1128 19.9903 73.2784 19.9961C73.4449 19.9903 73.6119 19.9864 73.7798 19.9864C73.9473 19.9864 74.1143 19.9903 74.2803 19.9961C74.4463 19.9903 74.6124 19.9864 74.7798 19.9864C74.9473 19.9864 75.1138 19.9903 75.2798 19.9961C75.4459 19.9903 75.6124 19.9864 75.7798 19.9864C75.9468 19.9864 76.1138 19.9903 76.2793 19.9961C76.4454 19.9903 76.6124 19.9864 76.7798 19.9864C76.9473 19.9864 77.1138 19.9903 77.2798 19.9961C77.4459 19.9903 77.6124 19.9864 77.7798 19.9864C80.3389 19.9864 82.7247 20.7227 84.7369 21.9961L84.7667 21.9971C84.9327 21.9903 85.0992 21.9864 85.2667 21.9864C85.4317 21.9864 85.5962 21.9893 85.7603 21.9971C85.9283 21.9903 86.0972 21.9864 86.2667 21.9864C86.4322 21.9864 86.5972 21.9893 86.7618 21.9971C86.9293 21.9903 87.0977 21.9864 87.2667 21.9864C87.4322 21.9864 87.5972 21.9893 87.7618 21.9971C87.9293 21.9903 88.0977 21.9864 88.2667 21.9864C88.4322 21.9864 88.5972 21.9893 88.7618 21.9971C88.9293 21.9903 89.0977 21.9864 89.2667 21.9864C89.4322 21.9864 89.5972 21.9893 89.7618 21.9971C89.9293 21.9903 90.0977 21.9864 90.2667 21.9864C90.4322 21.9864 90.5972 21.9893 90.7618 21.9971C90.9293 21.9903 91.0977 21.9864 91.2667 21.9864C91.4322 21.9864 91.5972 21.9893 91.7618 21.9971C91.9293 21.9903 92.0977 21.9864 92.2667 21.9864C92.4322 21.9864 92.5972 21.9893 92.7618 21.9971C92.9293 21.9903 93.0977 21.9864 93.2667 21.9864C93.4322 21.9864 93.5972 21.9893 93.7618 21.9971C93.9293 21.9903 94.0977 21.9864 94.2667 21.9864C96.1968 21.9864 98.0918 22.4971 99.7618 23.4571C101.432 24.4268 102.818 25.8165 103.781 27.4864C104.205 28.2266 104.54 28.9971 104.782 29.8067C105.09 30.8272 105.25 31.9073 105.249 32.9864C105.248 34.917 104.739 36.8067 103.773 38.4766C103.674 38.6465 103.57 38.8165 103.461 38.9864C103.704 39.0967 103.943 39.2168 104.176 39.3467C104.461 39.5069 104.741 39.6768 105.016 39.8565C105.604 40.2569 106.154 40.7071 106.658 41.2071C107.69 42.2364 108.509 43.4668 109.066 44.8165C109.625 46.1573 109.913 47.6065 109.913 49.0567V53.9571C109.913 56.167 108.122 57.9571 105.913 57.9571H96.3575C95.6729 59.1768 94.3658 60.0069 92.8658 60.0069H52.6939C51.1939 60.0069 49.8868 59.1768 49.2017 57.9571H39.4966C37.2867 57.9571 35.4966 56.167 35.4966 53.9571V49.0567C35.4966 48.6963 35.5147 48.3272 35.5508 47.9668H7.99664C5.78765 47.9668 3.99664 46.1768 3.99664 43.9668V27.5069C3.26373 27.1065 2.65777 26.4864 2.2857 25.6963L0.387749 21.7071C-0.503364 19.8272 0.188531 17.587 1.98052 16.5372L29.3145 0.546921C29.6495 0.353562 30.0054 0.210983 30.3711 0.120163C30.8526 0.00102249 31.3506 -0.0282744 31.8399 0.0332491ZM31.3335 4.00684L4.00049 19.9869L5.89847 23.9869H7.99649V43.9669H13.9905V28.9769C13.9905 28.4969 14.0595 28.0269 14.1915 27.5769C14.4255 26.7769 14.8565 26.0469 15.4535 25.4469C16.3905 24.5069 17.6615 23.9869 18.9855 23.9869C19.3025 23.9869 19.6185 24.0169 19.9275 24.0769C20.2595 24.1369 20.5845 24.2369 20.8975 24.3669C21.5035 24.6169 22.0545 24.9869 22.5185 25.4469C22.9825 25.9169 23.3495 26.4669 23.6015 27.0669C23.8515 27.6769 23.9815 28.3269 23.9815 28.9769V43.9669H38.1875C39.4885 41.8269 41.5515 40.2569 43.9625 39.5769C43.0015 38.5469 42.2755 37.3169 41.8345 35.9769H34.8405C34.5995 35.9769 34.3685 35.8769 34.1975 35.7069C34.0275 35.5369 33.9315 35.3069 33.9315 35.0669V32.9069C33.9315 32.6669 34.0275 32.4368 34.1975 32.2668C34.3685 32.0968 34.5995 31.9969 34.8405 31.9969H35.9695V27.9969C35.9755 27.5869 36.0435 27.1869 36.1685 26.8069C36.3305 26.3169 36.5885 25.8569 36.9315 25.4569C37.5395 24.7469 38.3785 24.2669 39.3005 24.1169C40.2225 23.9569 41.1705 24.1269 41.9785 24.5969C42.7865 25.0769 43.4035 25.8169 43.7225 26.6969C44.6375 25.6169 45.7745 24.7569 47.0565 24.1569C48.3375 23.5669 49.7325 23.2568 51.1455 23.2568C52.4305 23.2568 53.7035 23.5168 54.8915 24.0068H55.9505L57.9485 20.0068L31.3335 4.00684ZM58.7675 32.9769C58.7675 37.9469 62.8025 41.9669 67.7795 41.9669C72.7555 41.9669 76.7905 37.9469 76.7905 32.9769C76.7905 28.0069 72.7555 23.9869 67.7795 23.9869C62.8025 23.9869 58.7675 28.0069 58.7675 32.9769ZM80.2855 46.4169C78.6515 44.7969 76.4435 43.8969 74.1435 43.8969H61.4055C59.0985 43.8969 56.8855 44.8069 55.2525 46.4369C53.6195 48.0669 52.6995 50.2769 52.6935 52.5869V56.0068H82.8655V52.5369C82.8465 50.2369 81.9195 48.0369 80.2855 46.4169ZM50.6955 52.5369C50.7015 50.1869 51.4815 47.9069 52.9155 46.0469C54.3495 44.1769 56.3575 42.8469 58.6275 42.2369C58.0175 42.0569 57.3855 41.9669 56.7495 41.9669H46.5995C45.6665 41.9669 44.7435 42.1468 43.8815 42.5068C43.0205 42.8568 42.2375 43.3869 41.5775 44.0469C40.9175 44.6969 40.3945 45.4869 40.0375 46.3469C39.8775 46.7269 39.7525 47.1269 39.6625 47.5369C39.5525 48.0369 39.4965 48.5469 39.4965 49.0569V53.9569H50.6955V52.5369ZM91.5265 42.5068C90.6645 42.1468 89.7415 41.9669 88.8095 41.9669H78.6585C78.0485 41.9769 77.4405 42.0569 76.8505 42.2169C79.1355 42.8169 81.1585 44.1468 82.6045 46.0168C84.0505 47.8868 84.8375 50.1769 84.8425 52.5369V53.9569H95.9125V49.0569C95.9125 48.1269 95.7285 47.2069 95.3715 46.3469C95.0145 45.4869 94.4905 44.6969 93.8315 44.0469C93.5085 43.7169 93.1575 43.4269 92.7805 43.1769C92.6065 43.0569 92.4265 42.9469 92.2425 42.8469C92.0115 42.7169 91.7715 42.6068 91.5265 42.5068ZM57.3095 36.3269C56.9535 35.2469 56.7675 34.1169 56.7595 32.9769C56.7595 31.8369 56.9415 30.7069 57.2995 29.6169C56.5545 28.2569 55.3775 27.1769 53.9525 26.5569C53.1465 26.2069 52.2875 26.0169 51.4205 25.9869C50.7555 25.9569 50.0855 26.0269 49.4315 26.1969C47.9265 26.5769 46.5915 27.4569 45.6395 28.6769C44.6855 29.9069 44.1685 31.4169 44.1685 32.9669C44.1685 34.5269 44.6855 36.0368 45.6395 37.2568C46.5915 38.4868 47.9265 39.3669 49.4315 39.7469C50.9375 40.1269 52.5285 40.0068 53.9525 39.3868C55.3775 38.7668 56.5545 37.6869 57.2995 36.3269H57.3095ZM84.2635 25.9869C83.9625 25.9869 83.6635 25.9969 83.3675 26.0369C83.0695 26.0769 82.7745 26.1369 82.4855 26.2069C82.0625 26.3169 81.6505 26.4669 81.2535 26.6569C81.0875 26.7369 80.9245 26.8169 80.7645 26.9169C79.6995 27.5269 78.8145 28.4069 78.1995 29.4669C78.5895 30.5969 78.7895 31.7869 78.7885 32.9769C78.7865 33.5969 78.7295 34.2269 78.6205 34.8369C78.5225 35.3969 78.3825 35.9369 78.1995 36.4769C78.8125 37.5369 79.6955 38.4169 80.7585 39.0369C81.8205 39.6469 83.0265 39.9669 84.2535 39.9669C85.4805 39.9669 86.6865 39.6469 87.7495 39.0369C88.8125 38.4169 89.6965 37.5369 90.3105 36.4769C90.9245 35.4169 91.2485 34.2069 91.2485 32.9769C91.2495 32.2969 91.1485 31.6069 90.9515 30.9569C90.7975 30.4469 90.5845 29.9569 90.3155 29.4869C89.7025 28.4169 88.8205 27.5369 87.7575 26.9269C86.6965 26.3069 85.4905 25.9869 84.2635 25.9869Z" fill="black"/>
</svg>
