<svg width="90" height="60" viewBox="0 0 90 60" fill="none" xmlns="http://www.w3.org/2000/svg">
<path fill-rule="evenodd" clip-rule="evenodd" d="M6.72802 0.0626221C4.84423 0.305786 3.49316 1.42297 2.85107 2.85364C1.41796 3.49622 0.299799 4.85657 0.0600524 6.76379C-0.22608 9.06165 0.510248 11.4679 2.27001 13.2384C3.64013 14.6183 5.3872 15.3741 7.16699 15.5138L8.07079 16.4249L7.21679 17.2745C5.43017 17.4093 3.6748 18.1583 2.30224 19.5197C0.514154 21.2921 -0.228034 23.7023 0.061029 25.9972C0.199213 27.0929 0.634271 28.0079 1.25536 28.7081C1.31054 28.7706 1.36718 28.8312 1.42529 28.8898L1.51367 28.9786L1.59179 29.0509C1.68163 29.1329 1.77392 29.212 1.86913 29.2863C1.95605 29.3546 2.0454 29.42 2.13671 29.4816C2.21923 29.5372 2.3037 29.59 2.38964 29.6407C2.53857 29.7286 2.69189 29.8077 2.84911 29.879C3.37206 31.049 4.37499 32.0109 5.76318 32.4562C3.6162 34.9142 2.31591 38.13 2.31591 41.6505V43.4366C2.31591 46.1085 3.37597 48.673 5.26708 50.5607C7.15478 52.4513 9.72021 53.5109 12.3921 53.5109H12.4272C13.999 57.3204 17.75 60.0011 22.1269 60.0011C22.2949 60.0011 22.4619 59.9972 22.6279 59.9894C22.7935 59.9972 22.96 60.0011 23.1269 60.0011L23.3442 59.9991L23.6255 59.9894C23.7915 59.9972 23.959 60.0011 24.1269 60.0011C24.2954 60.0011 24.4629 59.9972 24.6294 59.9894C24.7944 59.9972 24.96 60.0011 25.1269 60.0011L25.3799 59.9982L25.6265 59.9894L25.8818 59.9982L26.1269 60.0011C26.2944 60.0011 26.4609 59.9972 26.6265 59.9894C26.7925 59.9972 26.959 60.0011 27.1269 60.0011C27.2944 60.0011 27.4614 59.9972 27.6269 59.9894C27.7925 59.9972 27.9595 60.0011 28.1269 60.0011C28.2944 60.0011 28.4614 59.9972 28.6269 59.9894C28.7925 59.9972 28.9595 60.0011 29.1269 60.0011L29.3745 59.9982L29.6269 59.9894L29.8979 59.9982L30.1269 60.0011C30.2944 60.0011 30.4614 59.9972 30.6269 59.9894C30.7925 59.9972 30.9595 60.0011 31.1269 60.0011C31.2944 60.0011 31.4614 59.9972 31.6269 59.9894C31.7925 59.9972 31.9595 60.0011 32.1269 60.0011C36.5039 60.0011 40.2549 57.3204 41.8271 53.5109H49.832C51.4038 57.3204 55.1548 60.0011 59.5322 60.0011C59.7002 60.0011 59.8677 59.9972 60.0337 59.9894C60.1987 59.9972 60.3652 60.0011 60.5322 60.0011C60.6992 60.0011 60.8657 59.9972 61.0308 59.9894C61.1968 59.9972 61.3643 60.0011 61.5322 60.0011C61.6997 60.0011 61.8662 59.9972 62.0317 59.9894L62.2895 59.9982L62.5322 60.0011C62.6997 60.0011 62.8667 59.9972 63.0322 59.9894C63.1977 59.9972 63.3643 60.0011 63.5322 60.0011C63.6997 60.0011 63.8657 59.9972 64.0312 59.9894C64.1973 59.9972 64.3643 60.0011 64.5322 60.0011C64.6997 60.0011 64.8667 59.9972 65.0322 59.9894L65.3286 59.9991L65.5322 60.0011C65.6997 60.0011 65.8667 59.9972 66.0322 59.9894L66.3296 59.9991L66.5322 60.0011C66.6997 60.0011 66.8667 59.9972 67.0322 59.9894C67.1977 59.9972 67.3647 60.0011 67.5322 60.0011C67.6997 60.0011 67.8667 59.9972 68.0322 59.9894C68.1977 59.9972 68.3647 60.0011 68.5322 60.0011C68.6997 60.0011 68.8667 59.9972 69.0322 59.9894C69.1977 59.9972 69.3647 60.0011 69.5322 60.0011C73.9092 60.0011 77.6602 57.3195 79.2319 53.5109H79.269C82.6143 53.5109 85.7632 51.922 87.751 49.2325C89.7402 46.5392 90.334 43.0607 89.3501 39.8634L84.1401 22.9347C82.333 17.0675 76.9131 13.0626 70.7739 13.0626H40.6367C42.2734 11.3087 42.9526 8.98547 42.6758 6.76672C42.436 4.85657 41.3179 3.49719 39.8862 2.85364C39.2441 1.42297 37.8921 0.305786 36.0078 0.0626221L35.9961 0.0616455C35.5088 0.00012207 35.0166 -0.0145264 34.5264 0.0167236C34.3433 0.00500488 34.1602 -0.000854492 33.9766 0.00109863L33.6982 0.00793457L33.5268 0.0167236C33.1929 -0.00476074 32.8574 -0.00476074 32.5229 0.0167236C32.1909 -0.00476074 31.8574 -0.00476074 31.5249 0.0167236C31.1929 -0.00476074 30.8594 -0.00476074 30.5268 0.0167236L30.3579 0.00793457L30.1748 0.0020752L29.9258 0.00109863C29.7925 0.00305176 29.6592 0.00793457 29.5259 0.0167236C29.1934 -0.00476074 28.8594 -0.00476074 28.5264 0.0167236C28.3901 0.00793457 28.2539 0.00305176 28.1172 0.00109863C27.9194 -0.000854492 27.7217 0.00402832 27.5244 0.0167236C27.1924 -0.00476074 26.8594 -0.00476074 26.5273 0.0167236C26.1948 -0.00476074 25.8608 -0.00476074 25.5278 0.0167236C24.1064 -0.0750732 22.6616 0.224731 21.3682 0.919067C20.4238 0.412231 19.3989 0.115356 18.3608 0.0284424L18.1602 0.0137939L17.8599 0.00305176C17.6426 -0.00183105 17.4253 0.00305176 17.2085 0.0167236C17.041 0.00598145 16.8735 0.00012207 16.706 0.00109863L16.4687 0.00402832L16.209 0.0167236C15.876 -0.00476074 15.542 -0.00476074 15.209 0.0167236L15.0303 0.00695801C14.8828 0.00109863 14.7353 -0.000854492 14.5879 0.00109863C14.4614 0.00305176 14.335 0.00793457 14.2085 0.0167236C14.042 0.00598145 13.875 0.00012207 13.708 0.00109863L13.4419 0.00598145L13.209 0.0167236C12.876 -0.00476074 12.542 -0.00476074 12.209 0.0167236C12.0937 0.0098877 11.9785 0.00402832 11.8633 0.0020752L11.6553 0.00109863C11.5063 0.0020752 11.3574 0.00695801 11.209 0.0167236C10.9976 0.00305176 10.7856 -0.00183105 10.5742 0.0020752C10.4521 0.00402832 10.3306 0.00891113 10.209 0.0167236C10.0474 0.00598145 9.88525 0.00109863 9.72314 0.00109863C9.55175 0.00012207 9.38036 0.00598145 9.20898 0.0167236C8.87988 -0.00476074 8.5498 -0.00378418 8.2207 0.0167236L8.11572 0.0098877C7.94091 0.00109863 7.76562 -0.00183105 7.59081 0.00109863C7.30663 0.00598145 7.02245 0.0255127 6.74023 0.0616455L6.72802 0.0626221ZM10.4209 27.6281C11.4141 26.6437 11.7451 25.2531 11.4121 24.005L24.0039 11.4113C25.2519 11.7452 26.6421 11.4132 27.6279 10.421C28.4873 9.55579 28.8462 8.38196 28.707 7.26184C28.6069 6.46497 27.6621 6.27551 27.0952 6.84583L26.1772 7.77063C25.8472 8.10364 25.314 8.10852 24.9883 7.77844C24.6592 7.44739 24.6631 6.9093 24.9941 6.57532L25.9111 5.65149C26.478 5.0802 26.2881 4.13196 25.4971 4.0304C24.3852 3.89075 23.2192 4.25208 22.3613 5.11731C21.374 6.1095 21.0469 7.51086 21.376 8.76672L16.957 13.2189L8.76806 21.3761C7.51025 21.047 6.10986 21.3761 5.11816 22.3615C4.53222 22.9415 4.17773 23.6622 4.05224 24.4122C3.99169 24.7716 3.98437 25.1378 4.02929 25.4991C4.1289 26.2892 5.08007 26.4786 5.65087 25.9142L6.57421 24.9952C6.81835 24.754 7.16992 24.6857 7.47119 24.7931C7.58349 24.8331 7.68847 24.8976 7.77831 24.9865C8.10693 25.3126 8.10302 25.8478 7.77001 26.1788L6.84716 27.0958C6.27392 27.6632 6.4663 28.6075 7.2622 28.7062C8.38329 28.8458 9.55712 28.4855 10.4209 27.6281ZM20.3799 17.8019C20.3022 17.7238 20.1763 17.7238 20.0981 17.8019L18.9463 18.9464L17.7383 20.1652C17.7002 20.2032 17.6802 20.2521 17.6802 20.3058C17.6802 20.3575 17.7002 20.4083 17.7383 20.4464L21.3242 24.005C21.1992 24.4728 21.1675 24.9611 21.2295 25.4406C21.3325 26.2394 21.6948 27.0128 22.3149 27.6281C23.1792 28.4855 24.353 28.8458 25.4741 28.7062C25.8589 28.6583 26.1025 28.4122 26.187 28.1075C26.2768 27.7823 26.1851 27.3888 25.8892 27.0958L24.9663 26.1788C24.7559 25.9698 24.6768 25.6798 24.73 25.4113C24.7612 25.255 24.8374 25.1066 24.959 24.9865C25.29 24.6583 25.8271 24.6642 26.1631 24.9952L27.085 25.9142C27.6562 26.4786 28.605 26.2892 28.707 25.4991C28.8462 24.3859 28.4849 23.2198 27.6182 22.3615C26.6279 21.3761 25.2261 21.047 23.9702 21.3761L20.3799 17.8019ZM12.5122 15.1398C12.5659 15.1398 12.6162 15.1173 12.6543 15.0812L15.0142 12.7325C15.0615 12.6847 15.0801 12.6202 15.0698 12.5587C15.0635 12.5187 15.0449 12.4806 15.0142 12.4493L11.3599 8.76868C11.689 7.51086 11.3623 6.1095 10.375 5.11731C9.94531 4.68372 9.43896 4.37708 8.90038 4.19641C8.36328 4.01575 7.79394 3.96106 7.23828 4.0304C6.44824 4.13196 6.25829 5.0802 6.82519 5.65149L7.74218 6.57532C8.07324 6.9093 8.07714 7.44739 7.74804 7.77844C7.42187 8.10852 6.88915 8.10364 6.55712 7.77063L5.64111 6.84583C5.32275 6.52551 4.88525 6.44446 4.54492 6.57629C4.27929 6.67981 4.07275 6.91223 4.02929 7.26184C3.89013 8.38196 4.24902 9.55579 5.1079 10.421C6.09423 11.4132 7.48388 11.7452 8.73193 11.4132L12.3721 15.0792C12.4082 15.1173 12.46 15.1398 12.5122 15.1398ZM38.7471 17.0626C35.853 17.0626 33.124 18.3175 31.2412 20.464C32.437 22.0988 32.9102 24.0909 32.668 26.0001L32.646 26.1505L34.9189 22.8947C35.853 21.5568 37.3809 20.7618 39.0122 20.7618H44.1963C44.7251 20.7618 45.2339 20.9728 45.6079 21.3468C45.9829 21.7218 46.1929 22.2296 46.1929 22.7589V29.3478C46.1929 30.4503 45.2978 31.3448 44.1963 31.3448H32.8501C32.105 31.3448 31.4243 30.9308 31.0791 30.2697C30.9189 29.963 30.8433 29.6232 30.853 29.2872C30.5542 29.5226 30.2261 29.7189 29.8809 29.8732C29.4043 30.9454 28.5244 31.8419 27.314 32.3282C26.9028 32.4933 26.4536 32.6105 25.9692 32.671C24.126 32.9005 22.209 32.4679 20.6089 31.3761C19.8359 31.5665 19.0381 31.6671 18.2251 31.6671H16.3003C10.7852 31.6671 6.31591 36.1349 6.31591 41.6515V43.4366C6.31591 45.049 6.95507 46.5948 8.09521 47.7335C9.2329 48.8732 10.7812 49.5109 12.3921 49.5109C12.3921 44.1359 16.751 39.7775 22.1269 39.7775C27.5039 39.7775 31.8623 44.1359 31.8623 49.5109H49.7969C49.7969 44.1359 54.1562 39.7775 59.5322 39.7775C64.9102 39.7775 69.269 44.1359 69.269 49.5109C71.3452 49.5109 73.3003 48.5255 74.5342 46.8546C75.7681 45.1837 76.1382 43.0255 75.5268 41.0402L70.3169 24.1124C69.0268 19.923 65.1572 17.0626 60.7739 17.0626H38.7471ZM49.8013 22.7589C49.8013 21.6564 50.6963 20.7618 51.7978 20.7618H58.9409C62.7812 20.7618 66.0781 23.4952 66.791 27.2687L67.1123 28.9767C67.1689 29.2726 67.1567 29.5743 67.081 29.8595C67.0078 30.1359 66.8755 30.3966 66.689 30.6212C66.3091 31.0792 65.7461 31.3448 65.1509 31.3448H51.7978C50.6963 31.3448 49.8013 30.4503 49.8013 29.3478V22.7589ZM28.6172 49.5109C28.6172 45.9269 25.7109 43.0216 22.1269 43.0216C18.543 43.0216 15.6372 45.9269 15.6372 49.5109C15.6372 53.0958 18.543 56.0011 22.1269 56.0011C25.7109 56.0011 28.6172 53.0958 28.6172 49.5109ZM18.8843 49.5109C18.8843 47.7179 20.3379 46.2667 22.1289 46.2667C23.9219 46.2667 25.374 47.7179 25.374 49.5109C25.374 51.3048 23.9219 52.756 22.1289 52.756C20.3379 52.756 18.8843 51.3048 18.8843 49.5109ZM59.5322 56.0011C63.1162 56.0011 66.022 53.0958 66.022 49.5109C66.022 45.9269 63.1162 43.0216 59.5322 43.0216C55.9482 43.0216 53.042 45.9269 53.042 49.5109C53.042 53.0958 55.9482 56.0011 59.5322 56.0011ZM59.5342 46.2667C61.3271 46.2667 62.7793 47.7179 62.7793 49.5109C62.7793 51.3048 61.3271 52.756 59.5342 52.756C57.7432 52.756 56.2891 51.3048 56.2891 49.5109C56.2891 47.7179 57.7432 46.2667 59.5342 46.2667Z" fill="black"/>
</svg>
