<svg width="70" height="60" viewBox="0 0 70 60" fill="none" xmlns="http://www.w3.org/2000/svg">
<path fill-rule="evenodd" clip-rule="evenodd" d="M0 56C0 58.2091 1.79086 60 4 60H66C68.2091 60 70 58.2091 70 56V40C70 37.0389 68.3912 34.4535 66 33.0703V16.4834C68.4118 14.8696 70 12.1226 70 9V4C70 1.79086 68.2091 0 66 0H4C1.79086 0 0 1.79086 0 4V9C0 12.1226 1.58817 14.8696 4 16.4834V33.0703C1.60879 34.4535 0 37.0389 0 40V56ZM56 9V4H4V9C4 11.419 5.71776 13.4367 8 13.9V36C5.79086 36 4 37.7909 4 40V56H56V40C56 37.7909 54.2091 36 52 36V13.9C54.2822 13.4367 56 11.419 56 9ZM50 36H10V13.9C12.2822 13.4367 14 11.419 14 9H18C18 11.7614 20.2386 14 23 14C25.7614 14 28 11.7614 28 9H32C32 11.7614 34.2386 14 37 14C39.7614 14 42 11.7614 42 9H46C46 11.419 47.7178 13.4367 50 13.9V36ZM24.8923 46.0248C22.9966 44.1883 24.3211 41.0326 26.9909 41.0225C27.4365 41.0209 27.8585 41.1129 28.2389 41.2812C29.2738 41.7397 29.9953 42.7554 29.9999 43.9377C29.997 43.1963 30.2761 42.5202 30.7377 42.0034C31.2848 41.3907 32.0887 41.0034 32.9859 41C35.6557 40.99 37.005 44.1357 35.1239 45.9864L30.0277 51L24.8923 46.0248ZM12 31C12 28.2386 14.2386 26 17 26H22C23.1046 26 24 25.1046 24 24V19C24 18.4477 24.4477 18 25 18C25.5523 18 26 18.4477 26 19V24C26 26.2091 24.2091 28 22 28V34H12V31ZM17 18C15.3431 18 14 19.3431 14 21C14 22.6569 15.3431 24 17 24C18.6569 24 20 22.6569 20 21C20 19.3431 18.6569 18 17 18ZM32 34V32H48V34H32ZM40 28H48V30H40V28Z" fill="black"/>
</svg>
