<svg width="110" height="60" viewBox="0 0 110 60" fill="none" xmlns="http://www.w3.org/2000/svg">
<path fill-rule="evenodd" clip-rule="evenodd" d="M102 20.9999C102 25.4339 100.279 29.4649 97.4877 32.4949C104.659 34.2649 110 40.7339 110 48.4438V51.9998C110 54.2088 108.209 55.9998 106 55.9998H87.9997C87.9997 58.2088 86.2087 59.9998 83.9997 59.9998H25.9999C23.7909 59.9998 21.9999 58.2088 21.9999 55.9998H3.99999C1.79099 55.9998 0 54.2088 0 51.9998V48.4438C0 40.7339 5.34098 34.2649 12.512 32.4949C9.71997 29.4649 7.99997 25.4339 7.99997 20.9999C7.99997 11.626 15.6259 3.99999 24.9999 3.99999H38.0509C41.3869 1.49699 45.5168 0 49.9998 0H59.9998C64.4818 0 68.6118 1.49699 71.9478 3.99999H84.9997C94.3737 3.99999 102 11.626 102 20.9999ZM49.9995 36C58.8355 36 65.9995 28.837 65.9995 20C65.9995 11.163 58.8355 4 49.9995 4C41.1635 4 33.9995 11.163 33.9995 20C33.9995 28.837 41.1635 36 49.9995 36ZM34.2475 30.132C32.3585 27.207 31.2495 23.733 31.2495 20C31.2495 16.803 32.0575 13.792 33.4745 11.155C31.1975 9.19303 28.2405 8 24.9995 8C17.8195 8 12.0005 13.82 12.0005 21C12.0005 28.18 17.8195 34 24.9995 34C28.6185 34 31.8905 32.519 34.2475 30.132ZM25.9995 52V56H73.9995V52C73.9995 44.268 67.7315 38 59.9995 38H39.9995C32.2675 38 25.9995 44.268 25.9995 52ZM95.9995 48.4441C95.9995 41.5711 90.4285 36 83.5555 36H65.7775C65.6007 36 65.4276 36.0118 65.2539 36.0236C65.1899 36.0279 65.1259 36.0323 65.0615 36.036C71.8305 38.188 76.7495 44.528 76.7495 52H95.9995V48.4441ZM87.9995 21C87.9995 13.82 82.1795 8 74.9995 8C71.7585 8 68.8016 9.19303 66.5246 11.155C67.9416 13.792 68.7495 16.803 68.7495 20C68.7495 23.733 67.6405 27.207 65.7525 30.132C68.1096 32.519 71.3805 34 74.9995 34C82.1795 34 87.9995 28.18 87.9995 21ZM23.2495 52C23.2495 44.528 28.1685 38.187 34.9375 36.036C34.8741 36.0323 34.8108 36.028 34.7475 36.0237C34.5733 36.0119 34.399 36 34.2215 36H16.4435C9.57248 36 4.00049 41.5711 4.00049 48.4441V52H23.2495Z" fill="black"/>
</svg>
