<svg width="88" height="60" viewBox="0 0 88 60" fill="none" xmlns="http://www.w3.org/2000/svg">
<path fill-rule="evenodd" clip-rule="evenodd" d="M87.3333 12.6667C87.3333 5.67106 81.6623 0 74.6667 0H12.6667C5.67106 0 0 5.67106 0 12.6667V56C0 57.0609 0.42144 58.0783 1.17161 58.8285C1.92177 59.5786 2.93921 60 4.00009 60L4.98594 60L5.00009 60L5.98035 60L6.00009 60L6.97608 59.9999L7.00009 60L7.99339 60L8.00009 60L8.99406 60L9.00009 60L9.99456 60L10.0001 60L10.995 60L11.0001 60L11.9953 60L12.0001 60L12.9956 60L13.0001 60L13.9958 60L14.0001 60C31.0174 59.9996 45.5181 59.9997 60.2912 59.9999C67.7807 59.9999 75.3403 60 83.3333 60C85.5425 60 87.3333 58.2091 87.3333 56V12.6667ZM16.1333 8.33232C16.1333 10.7256 18.0734 12.6657 20.4667 12.6657C22.8599 12.6657 24.8 10.7256 24.8 8.33232L24.8 4H28.2667V8.33232C28.2667 10.7256 30.2068 12.6657 32.6 12.6657C34.9932 12.6657 36.9333 10.7256 36.9333 8.33232V4H40.4V8.33232C40.4 10.7256 42.3401 12.6657 44.7333 12.6657C47.1266 12.6657 49.0667 10.7256 49.0667 8.33232V4H52.5333V8.33232C52.5333 10.7256 54.4734 12.6657 56.8667 12.6657C59.2599 12.6657 61.2 10.7256 61.2 8.33232V4H64.6667C69.4531 4 73.3333 7.8802 73.3333 12.6667V56H64.6667V34.3323C64.6667 34.2952 64.6664 34.2574 64.666 34.2203C64.6638 34.0528 64.657 33.8865 64.6455 33.7215C64.3324 29.2197 60.5813 25.665 56 25.665C51.3255 25.665 47.5154 29.3658 47.3397 33.9973C47.3355 34.1082 47.3333 34.2197 47.3333 34.3316V55.999L4 56V12.6667C4 7.8802 7.8802 4 12.6667 4H16.1333L16.1333 8.33232ZM19.1667 25.665C15.5768 25.665 12.6667 28.5751 12.6667 32.165C12.6667 35.7548 15.5768 38.665 19.1667 38.665H32.1667C35.7565 38.665 38.6667 35.7548 38.6667 32.165C38.6667 28.5751 35.7565 25.665 32.1667 25.665H19.1667Z" fill="black"/>
</svg>
