<svg width="70" height="61" viewBox="0 0 70 61" fill="none" xmlns="http://www.w3.org/2000/svg">
<path fill-rule="evenodd" clip-rule="evenodd" d="M65.6878 21.7709C67.3988 24.3179 69.2748 27.4149 69.8868 31.9398C69.9628 32.5018 69.9998 33.1028 69.9998 33.7768V36.5238C69.9998 37.0748 69.9738 37.5718 69.9208 38.0438C69.8298 38.8438 69.7018 39.6528 69.5388 40.4458C69.3698 41.2678 69.1778 41.9768 68.9418 42.7898C68.7858 43.3248 68.0368 45.2318 67.8318 45.6758C66.6148 48.5888 65.3638 50.6838 63.8698 52.2938L63.7808 52.3878C63.6728 52.5018 63.5638 52.6168 63.4678 52.7128C63.2888 52.8938 63.1088 53.0728 62.9298 53.2398C62.7678 53.3918 62.5998 53.5388 62.4318 53.6838L62.2728 53.8218C57.9328 57.5288 51.7998 59.5397 43.5219 59.9668L43.4519 59.9698C42.6099 59.9998 40.5969 60.0018 39.9999 60.0018H29.9999C29.4029 60.0018 27.3899 59.9998 26.5479 59.9698L26.4779 59.9668C18.1999 59.5397 12.067 57.5288 7.69098 53.7908L7.56798 53.6838C7.39998 53.5388 7.23198 53.3918 7.07798 53.2468C6.89098 53.0728 6.71098 52.8938 6.54698 52.7288C6.43598 52.6178 6.32698 52.5028 6.21998 52.3878L6.12998 52.2938L6.09498 52.2558C4.61099 50.6568 3.34399 48.5198 2.107 45.5308C1.931 45.1048 1.21299 43.3218 1.058 42.7898C0.821996 41.9768 0.629996 41.2668 0.460997 40.4468C0.297998 39.6528 0.169002 38.8438 0.0790021 38.0428C0.0260023 37.5718 0 37.0748 0 36.5238V33.7768C0 33.1028 0.0369988 32.5018 0.112999 31.9398C0.724997 27.4149 2.601 24.3179 4.31199 21.7709C4.57799 21.3759 5.65798 19.8669 5.96798 19.4789C6.41298 18.9189 8.04897 16.3369 9.20897 14.3929C7.26498 12.9319 5.99998 10.6149 5.99998 8.00193C5.99998 3.58994 9.58897 0.00195312 14 0.00195312H55.9998C60.4108 0.00195312 63.9998 3.58994 63.9998 8.00193C63.9998 10.6149 62.7348 12.9319 60.7908 14.3929C61.9508 16.3369 63.5858 18.9169 64.0288 19.4739C64.3498 19.8689 65.4268 21.3819 65.6878 21.7709ZM13.9703 12.002H46.0453C48.2543 12.002 50.0453 10.211 50.0453 8.00196C50.0453 5.79295 48.2543 4.00195 46.0453 4.00195H13.9703C11.7613 4.00195 9.97031 5.79295 9.97031 8.00196C9.97031 10.211 11.7613 12.002 13.9703 12.002ZM54.2493 44.006C46.1833 46.246 38.1043 47.976 30.0073 48.006C21.9103 47.976 13.8313 46.246 5.76531 44.006C6.55431 45.906 7.6013 48.036 8.9953 49.536C9.03601 49.5781 9.07622 49.6214 9.11637 49.6647C9.19064 49.7448 9.2647 49.8246 9.3413 49.896C9.4843 50.046 9.6283 50.186 9.7773 50.326C9.84008 50.382 9.90398 50.4381 9.96847 50.4947C10.0766 50.5895 10.1863 50.6858 10.2953 50.786C13.7313 53.716 18.8893 55.576 26.6853 55.976C27.8063 56.016 32.2083 56.016 33.3283 55.976C41.1243 55.576 46.2823 53.716 49.7193 50.786C49.8283 50.6858 49.9381 50.5894 50.0462 50.4946C50.1107 50.438 50.1746 50.382 50.2373 50.326C50.3863 50.186 50.5303 50.046 50.6723 49.896C50.7507 49.8236 50.8259 49.7425 50.9013 49.6614C50.9405 49.6192 50.9797 49.577 51.0193 49.536C52.4133 48.036 53.4603 45.906 54.2493 44.006ZM50.9763 22.002C50.1413 20.979 46.6923 15.438 46.0383 14.002H13.9773C13.3243 15.438 9.87531 20.979 9.03931 22.002C16.0613 23.371 23.0413 23.998 30.0083 24.002C36.9743 23.998 43.9553 23.371 50.9763 22.002ZM4.0083 32.768L5.19231 31.417C6.16631 30.307 7.54031 29.67 8.96331 29.67C10.3853 29.67 11.7593 30.307 12.7333 31.417L15.2223 34.256C15.6593 34.755 16.2923 34.755 16.7303 34.256L19.2193 31.417C20.1923 30.307 21.5673 29.67 22.9893 29.67C24.4123 29.67 25.7863 30.307 26.7593 31.417L29.2493 34.256C29.6863 34.755 30.3193 34.755 30.7563 34.256L33.2453 31.417C34.2193 30.307 35.5933 29.67 37.0163 29.67C38.4383 29.67 39.8133 30.307 40.7863 31.417L43.2753 34.256C43.4943 34.506 43.7553 34.638 44.0283 34.638C44.3023 34.638 44.5643 34.506 44.7833 34.256L47.2723 31.417C48.2453 30.307 49.6203 29.67 51.0423 29.67C52.4643 29.669 53.8383 30.306 54.8123 31.416L56.0083 32.78C56.0056 32.749 56.0031 32.7178 56.0005 32.6864C55.995 32.6165 55.9893 32.546 55.9803 32.477C55.5023 28.9489 54.1143 26.523 52.4173 24.002H51.1563C44.3033 25.324 37.1903 25.998 30.0063 26.002C22.8253 25.998 15.7123 25.324 8.8593 24.002H7.59731C5.90131 26.523 4.51329 28.9489 4.03529 32.477C4.02663 32.5409 4.02152 32.6058 4.01642 32.6707C4.01386 32.7031 4.0113 32.7356 4.0083 32.768ZM55.8343 38.656L51.7963 34.051C51.3593 33.552 50.7253 33.552 50.2883 34.051L47.7993 36.886C46.8253 37.996 45.4503 38.636 44.0283 38.636C42.6063 38.636 41.2323 37.996 40.2583 36.886L37.7703 34.051C37.3333 33.553 36.6993 33.553 36.2613 34.051L33.7733 36.886C32.7993 37.996 31.4253 38.636 30.0033 38.636C28.5803 38.636 27.2063 37.996 26.2323 36.886L23.7433 34.051C23.3073 33.553 22.6723 33.553 22.2353 34.051L19.7463 36.886C18.7733 37.996 17.3993 38.636 15.9763 38.636C14.5533 38.636 13.1793 37.996 12.2063 36.886L9.7163 34.051C9.2803 33.553 8.6463 33.553 8.2083 34.051L4.17931 38.646C4.19882 38.7652 4.21586 38.8845 4.23296 39.0043C4.26318 39.2158 4.2936 39.4289 4.3383 39.646C4.4873 40.366 4.6643 41.006 4.8593 41.676L6.3033 42.076C12.8283 43.886 21.4203 45.976 30.0023 46.006C38.5953 45.976 47.1873 43.886 53.7123 42.076L55.1563 41.676C55.3513 41.006 55.5273 40.366 55.6773 39.646C55.7224 39.4241 55.7529 39.2107 55.7835 38.9975C55.7997 38.884 55.8159 38.7706 55.8343 38.656Z" fill="black"/>
</svg>
