<svg width="79" height="61" viewBox="0 0 79 61" fill="none" xmlns="http://www.w3.org/2000/svg">
<path fill-rule="evenodd" clip-rule="evenodd" d="M69.9829 25.3498C72.3269 25.3498 74.5469 26.3718 76.0729 28.1528C77.5979 29.9338 78.2669 32.2838 77.9059 34.5998C76.7399 42.1068 72.7809 48.8597 66.7589 53.6167C61.5459 57.7357 54.9689 60.0037 48.24 60.0037C47.1405 60.0037 35.6792 59.9807 27.7319 59.9647C23.5143 59.9562 20.2864 59.9497 20.1221 59.9497C19.5341 59.9497 18.9471 59.8207 18.4051 59.5687C17.4371 59.1167 16.6841 58.2847 16.3231 57.2797C13.8791 56.8397 11.7751 55.1427 10.6811 52.7237C10.4341 52.1757 10.2061 51.6057 10.0051 51.0277C9.34409 49.1317 9.4351 47.1007 10.1361 45.3158C9.9111 45.1038 9.69509 44.8808 9.50109 44.6308C9.4241 44.5308 9.35109 44.4278 9.28309 44.3208L6.71911 40.2888C6.48111 39.9138 5.62711 38.3278 5.43611 37.8618C5.12111 37.0908 4.87211 36.2888 4.69811 35.4748L0.102125 14.0799C-0.389874 11.6489 0.935122 9.24488 3.25411 8.36388L3.49511 8.27288C4.06511 8.05588 4.66311 7.94588 5.27211 7.94588H17.7411C17.7838 7.90447 17.8265 7.86301 17.8692 7.82156C18.138 7.56064 18.4064 7.29995 18.6921 7.05488C24.01 2.5079 30.845 0.00390625 37.942 0.00390625H47.942C56.0999 0.00390625 64.0989 3.32289 69.8889 9.11188C71.3039 10.5259 72.0829 12.4069 72.0829 14.4069C72.0829 16.4069 71.3029 18.2868 69.8889 19.7018L66.1399 23.4498C65.8899 23.6998 65.7439 24.0688 65.7509 24.4348C65.7539 24.6248 65.7999 24.8888 65.9979 25.0728C66.2359 25.2948 66.5029 25.3408 66.6879 25.3408C66.7739 25.3408 66.8609 25.3438 66.9459 25.3498H69.9829ZM4.91675 12.0127L4.67575 12.1037C4.20175 12.2837 3.92377 12.7887 4.02377 13.2867L8.60977 34.6357C8.73577 35.2227 8.91276 35.7946 9.13876 36.3456L16.4248 33.5777C16.2588 33.0037 16.0418 32.4466 15.7778 31.9126L6.14377 12.4806C5.91477 12.0316 5.39075 11.8327 4.91675 12.0127ZM15.9728 42.3947C16.7888 42.0847 17.3308 41.2837 17.3168 40.4067L16.7978 35.5967L10.0958 38.1437L12.6598 42.1767C13.1898 42.8577 14.0978 43.1077 14.9138 42.7977L15.9728 42.3947ZM16.1088 44.5047C15.8568 44.6007 15.6188 44.7207 15.3988 44.8627C13.8568 45.8517 13.1397 47.8667 13.7828 49.7117C13.9487 50.1857 14.1308 50.6427 14.3278 51.0777C14.8538 52.2427 15.8528 53.1467 17.0708 53.3507C18.4148 53.5747 19.6028 54.5257 20.1018 55.9567C20.3538 55.8607 20.5818 55.7137 20.7848 55.5217C21.1898 55.1367 21.4938 54.5727 21.6908 53.8757C21.8398 53.3537 21.9278 52.7567 21.9548 52.1067C21.9718 51.6727 21.9618 51.2157 21.9238 50.7397C21.8278 49.5507 21.5558 48.2507 21.0968 46.9327C20.4528 45.0887 18.6638 44.0257 16.8728 44.3027C16.6168 44.3417 16.3608 44.4087 16.1088 44.5047ZM63.9548 33.9856C64.3338 31.5516 62.4478 29.3506 59.9828 29.3506H56.6888V29.3426C55.4618 29.3426 54.2348 28.8967 53.2748 28.0027C51.1838 26.0577 51.2928 22.6406 53.3128 20.6216L57.0618 16.8736C58.4238 15.5116 58.4238 13.3036 57.0618 11.9406C47.3728 2.25464 31.7048 1.19061 21.2938 10.0956C17.6198 13.2376 15.0598 17.1326 13.5918 21.3246L18.2338 30.6887L18.2358 30.6916C18.6318 30.3976 19.0838 30.1657 19.5888 30.0297C21.7298 29.4567 23.9288 30.7267 24.5028 32.8657C25.0758 35.0057 23.8058 37.2046 21.6658 37.7776C21.0318 37.9476 20.3978 37.9397 19.7968 37.8107L20.0448 40.1107C20.0538 40.1947 20.0588 40.2786 20.0608 40.3636C20.0688 40.9226 19.9728 41.4636 19.8008 41.9756C21.5728 42.6736 23.0228 44.1217 23.6868 46.0247C24.2128 47.5357 24.5408 49.0467 24.6588 50.5187C24.7058 51.1007 24.7178 51.6727 24.6958 52.2177C24.6958 52.2217 24.6953 52.2254 24.6948 52.2292C24.6943 52.2329 24.6938 52.2367 24.6938 52.2407C33.8178 57.7727 45.7428 57.2227 54.2798 50.4787C59.7668 46.1447 62.9878 40.2077 63.9548 33.9856ZM25.9098 22.1806C24.8018 24.0986 22.3478 24.7557 20.4298 23.6487C18.5108 22.5417 17.8538 20.0877 18.9608 18.1697C20.0688 16.2517 22.5228 15.5936 24.4408 16.7016C26.3598 17.8096 27.0178 20.2626 25.9098 22.1806ZM37.2988 10.7076C37.8728 12.8476 36.6028 15.0467 34.4618 15.6197C32.3218 16.1927 30.1218 14.9237 29.5488 12.7837C28.9748 10.6437 30.2458 8.44461 32.3858 7.87161C34.5258 7.29761 36.7258 8.56761 37.2988 10.7076ZM50.6298 15.5586C49.5228 17.4766 47.0688 18.1337 45.1498 17.0266C43.2308 15.9186 42.5738 13.4656 43.6818 11.5476C44.7898 9.62864 47.2428 8.97162 49.1618 10.0796C51.0808 11.1876 51.7378 13.6396 50.6298 15.5586ZM46.6668 45.6587C47.2398 47.7987 45.9698 49.9977 43.8298 50.5707C41.6898 51.1447 39.4898 49.8747 38.9158 47.7347C38.3428 45.5957 39.6128 43.3967 41.7528 42.8227C43.8928 42.2497 46.0928 43.5197 46.6668 45.6587ZM55.7858 34.7937C57.7048 35.9017 58.3618 38.3546 57.2538 40.2726C56.1468 42.1906 53.6928 42.8487 51.7738 41.7407C49.8548 40.6327 49.1978 38.1807 50.3058 36.2617C51.4128 34.3437 53.8668 33.6867 55.7858 34.7937ZM31.0658 41.4167C32.9838 42.5237 33.6418 44.9767 32.5338 46.8947C31.4258 48.8137 28.9718 49.4707 27.0528 48.3627C25.1348 47.2557 24.4768 44.8027 25.5848 42.8837C26.6928 40.9657 29.1468 40.3087 31.0658 41.4167Z" fill="black"/>
</svg>
