<svg width="26" height="30" viewBox="0 0 26 30" fill="none" xmlns="http://www.w3.org/2000/svg">
<path fill-rule="evenodd" clip-rule="evenodd" d="M0.911133 11.2C0.911133 8.32812 3.23925 6 6.11113 6H7.91113V5C7.91113 2.23858 10.1497 0 12.9111 0H18.9111C20.0157 0 20.9111 0.89543 20.9111 2V4C20.9111 5.10457 20.0157 6 18.9111 6H20.7111C23.583 6 25.9111 8.32812 25.9111 11.2C25.9111 12.3388 25.2313 13.3189 24.2552 13.7563L23.2424 24.56C22.9533 27.6433 20.3653 30 17.2686 30H9.55367C6.45693 30 3.86892 27.6433 3.57987 24.56L2.56702 13.7563C1.59101 13.3189 0.911133 12.3388 0.911133 11.2ZM9.91113 5C9.91113 3.34315 11.2543 2 12.9111 2H13.9111V4H12.9111C12.3588 4 11.9111 4.44772 11.9111 5V7H9.91113V5ZM2.91113 11.2C2.91113 9.43269 4.34382 8 6.11113 8H15.7111C17.4784 8 18.9111 9.43269 18.9111 11.2C18.9111 11.6418 18.553 12 18.1111 12H3.71113C3.26931 12 2.91113 11.6418 2.91113 11.2ZM5.57114 24.3734L4.59863 14H17.2236L16.2511 24.3734C16.0584 26.4288 14.3331 28 12.2686 28H9.55367C7.48918 28 5.76384 26.4288 5.57114 24.3734ZM13.661 19.2236C13.7944 18.0379 12.8666 17 11.6735 17H10.1487C8.95563 17 8.0279 18.038 8.16129 19.2236L8.61129 23.2236C8.7251 24.2353 9.5807 25 10.5988 25H11.2235C12.2416 25 13.0972 24.2353 13.211 23.2236L13.661 19.2236Z" fill="black"/>
</svg>
