<svg width="110" height="60" viewBox="0 0 110 60" fill="none" xmlns="http://www.w3.org/2000/svg">
<path fill-rule="evenodd" clip-rule="evenodd" d="M7.99997 0H102C106.411 0 110 3.58899 110 7.99997V51.9998C110 56.4108 106.411 59.9998 102 59.9998H7.99997C3.58899 59.9998 0 56.4108 0 51.9998V7.99997C0 3.58899 3.58899 0 7.99997 0ZM95.9996 8C95.9996 5.79 94.2096 4 91.9996 4H7.99952C5.78951 4 3.99951 5.79 3.99951 8V52C3.99951 54.21 5.78951 56 7.99952 56H91.9996C94.2096 56 95.9996 54.21 95.9996 52V8ZM9.04453 38.269C8.99953 34.465 8.99952 25.544 8.99952 21.751C9.00052 19.346 10.7135 17.282 13.0775 16.838C13.0845 16.837 13.0925 16.836 13.0995 16.834C14.0195 16.669 14.8635 16.207 15.5355 15.535C16.2235 14.847 16.6905 13.978 16.8895 13.045C17.3445 10.723 19.3815 9.04399 21.7365 9.04399C30.4976 9 69.4677 9 78.2419 9H78.2476C80.6526 9.001 82.7166 10.714 83.1606 13.077C83.1626 13.085 83.1636 13.092 83.1646 13.1C83.3306 14.02 83.7926 14.864 84.4636 15.535C85.1526 16.224 86.0206 16.691 86.9536 16.889C89.2696 17.344 90.9446 19.369 90.9546 21.73C90.9996 25.5337 90.9996 34.45 90.9996 38.2442V38.248C90.9986 40.653 89.2856 42.717 86.9216 43.161C86.9146 43.162 86.9066 43.164 86.8996 43.165C85.9796 43.331 85.1356 43.793 84.4636 44.464C83.7756 45.152 83.3086 46.021 83.1096 46.954C82.6546 49.277 80.6176 50.955 78.2626 50.955C69.4996 51 30.5145 51 21.7515 51C19.3465 50.999 17.2825 49.286 16.8385 46.922C16.8375 46.914 16.8355 46.907 16.8345 46.9C16.6685 45.979 16.2065 45.135 15.5355 44.464C14.8465 43.776 13.9785 43.309 13.0455 43.11C10.7295 42.656 9.05453 40.63 9.04453 38.269ZM13.6305 19.787C12.6855 19.964 12.0005 20.79 11.9995 21.752C11.9995 25.541 11.9995 34.459 12.0445 38.247C12.0445 39.188 12.7145 39.996 13.6385 40.169C15.1495 40.486 16.5485 41.235 17.6565 42.343C18.7645 43.451 19.5135 44.85 19.7865 46.369C19.9645 47.314 20.7895 47.999 21.7515 48H21.7538C30.5192 48 69.4873 48 78.2476 47.955C79.1876 47.955 79.9956 47.285 80.1696 46.36C80.4856 44.85 81.2346 43.451 82.3426 42.343C83.4506 41.235 84.8496 40.486 86.3686 40.212C87.3136 40.035 87.9996 39.209 87.9996 38.247V38.2432C87.9996 34.453 87.9996 25.5397 87.9546 21.752C87.9546 20.811 87.2846 20.004 86.3606 19.83C84.8496 19.514 83.4506 18.764 82.3426 17.657C81.2346 16.549 80.4856 15.149 80.2126 13.631C80.0346 12.685 79.2096 12 78.2476 12H78.2419C69.4697 12 30.5107 12 21.7515 12.044C20.8115 12.044 20.0035 12.714 19.8295 13.639C19.5135 15.149 18.7645 16.549 17.6565 17.657C16.5485 18.764 15.1495 19.514 13.6305 19.787ZM53.4196 43H47.3156V39.999C46.6526 39.808 46.0376 39.558 45.4676 39.25C44.8976 38.942 44.3916 38.562 43.9496 38.111H40.7136V32.751H47.0035C47.0035 33.178 47.0765 33.567 47.2235 33.917C47.3705 34.267 47.5856 34.57 47.8666 34.825C48.1476 35.081 48.4956 35.28 48.9056 35.422C49.3166 35.565 49.7915 35.635 50.3316 35.635C50.9686 35.635 51.4526 35.511 51.7836 35.262C52.1136 35.012 52.2806 34.685 52.2806 34.282C52.2806 34.092 52.2176 33.917 52.0956 33.757C51.9736 33.597 51.8136 33.451 51.6186 33.32C51.4216 33.19 51.1986 33.074 50.9466 32.973C50.6956 32.873 50.4476 32.786 50.2016 32.715L46.7826 31.7C46.0956 31.498 45.4486 31.24 44.8416 30.925C44.2346 30.611 43.7046 30.223 43.2516 29.759C42.7976 29.296 42.4396 28.747 42.1756 28.112C41.9126 27.477 41.7805 26.738 41.7805 25.895C41.7805 25.064 41.9155 24.319 42.1845 23.66C42.4545 23.001 42.8346 22.429 43.3246 21.942C43.8156 21.455 44.4006 21.055 45.0806 20.74C45.7616 20.425 46.5066 20.191 47.3156 20.037V17H53.4196V20.339C53.9346 20.505 54.4066 20.695 54.8356 20.909C55.2646 21.123 55.6446 21.354 55.9756 21.604H59.2856V26.963H52.9966C52.9836 26.524 52.9106 26.147 52.7756 25.832C52.6416 25.518 52.4456 25.248 52.1886 25.023C51.9306 24.797 51.6186 24.619 51.2506 24.488C50.8826 24.358 50.4596 24.293 49.9806 24.293C49.3816 24.293 48.9176 24.399 48.5926 24.613C48.2676 24.827 48.1066 25.124 48.1066 25.504C48.1066 25.717 48.1736 25.904 48.3076 26.064C48.4426 26.225 48.6276 26.373 48.8606 26.509C49.0926 26.646 49.3686 26.77 49.6866 26.883C50.0056 26.996 50.3436 27.106 50.6986 27.213L53.9716 28.228C55.6146 28.727 56.8276 29.424 57.6116 30.32C58.3966 31.216 58.7886 32.382 58.7886 33.819C58.7886 34.579 58.6636 35.285 58.4126 35.939C58.1606 36.592 57.8026 37.185 57.3366 37.719C56.8706 38.253 56.3066 38.713 55.6446 39.099C54.9826 39.485 54.2406 39.791 53.4196 40.016V43Z" fill="black"/>
</svg>
