<svg width="110" height="60" viewBox="0 0 110 60" fill="none" xmlns="http://www.w3.org/2000/svg">
<path fill-rule="evenodd" clip-rule="evenodd" d="M98 7C98 3.13401 94.866 0 91 0H19C15.134 0 12 3.13401 12 7V19C12 20.0736 12.2417 21.0907 12.6736 22H7C3.13401 22 0 25.134 0 29V53C0 56.866 3.13401 60 7 60H103C106.866 60 110 56.866 110 53V29C110 25.134 106.866 22 103 22H97.3264C97.7583 21.0907 98 20.0736 98 19V7ZM55 4C53.3431 4 52 5.34315 52 7V27C52 28.6569 53.3431 30 55 30H81C82.6569 30 84 28.6569 84 27V7C84 5.34315 82.6569 4 81 4H55ZM4 29C4 27.3431 5.34315 26 7 26H9C10.6569 26 12 27.3431 12 29V53C12 54.6569 10.6569 56 9 56H7C5.34315 56 4 54.6569 4 53V29ZM16 37C16 35.3431 17.3431 34 19 34H81C82.6569 34 84 35.3431 84 37V39C84 40.6569 82.6569 42 81 42H19C17.3431 42 16 40.6569 16 39V37ZM16 49C16 47.3431 17.3431 46 19 46H81C82.6569 46 84 47.3431 84 49V53C84 54.6569 82.6569 56 81 56H19C17.3431 56 16 54.6569 16 53V49ZM91 26C89.3431 26 88 27.3431 88 29V53C88 54.6569 89.3431 56 91 56H93C94.6569 56 96 54.6569 96 53V29C96 27.3431 94.6569 26 93 26H91ZM16 7C16 5.34315 17.3431 4 19 4H45C46.6569 4 48 5.34315 48 7V27C48 28.6569 46.6569 30 45 30H19C17.3431 30 16 28.6569 16 27V7Z" fill="black"/>
</svg>
