<svg width="91" height="60" viewBox="0 0 91 60" fill="none" xmlns="http://www.w3.org/2000/svg">
<path fill-rule="evenodd" clip-rule="evenodd" d="M84.96 28V48.0801C85.7153 48.1895 86.4414 48.4199 87.1118 48.7578C87.4297 48.918 87.7354 49.1035 88.0254 49.3105C88.2847 49.4941 88.5317 49.6973 88.7651 49.918C88.9341 50.0781 89.0957 50.2461 89.249 50.4219C90.3506 51.6934 90.958 53.3184 90.96 55V56C90.96 57.0605 90.5386 58.0781 89.7886 58.8281C89.4209 59.1953 88.9893 59.4844 88.5195 59.6836C88.0308 59.8906 87.501 60 86.96 60H4.95996C3.89941 60 2.88184 59.5781 2.13184 58.8281C1.38135 58.0781 0.959961 57.0605 0.959961 56V55C0.961914 53.3184 1.56934 51.6934 2.67139 50.4219C3.26904 49.7324 3.99072 49.1719 4.79199 48.7656C5.46729 48.4238 6.19873 48.1895 6.95996 48.0801V28C6.61475 28.0039 6.27246 27.9629 5.94043 27.8789C5.55176 27.7812 5.17822 27.625 4.83301 27.4141C4.59766 27.2715 4.37891 27.1035 4.17969 26.916C4.03174 26.7773 3.89453 26.627 3.76904 26.4668C3.6958 26.373 3.62646 26.2754 3.56152 26.1758L3.48096 26.0469C3.43115 25.9629 3.38428 25.877 3.34033 25.7891L1.34033 21.7891C1.09863 21.3027 0.958984 20.7734 0.929688 20.2305C0.923828 20.123 0.922363 20.0156 0.925293 19.9082C0.928223 19.7988 0.935547 19.6895 0.947266 19.5801C0.982422 19.2578 1.05664 18.9395 1.16846 18.6348C1.35596 18.125 1.64502 17.6582 2.01807 17.2637C2.3916 16.8691 2.84131 16.5547 3.34033 16.3398L39.3403 0.339844C39.6279 0.212891 39.9287 0.121094 40.2368 0.0644531C40.4746 0.0214844 40.7168 0 40.96 0H50.96C51.5112 0.00195312 52.0562 0.117188 52.5601 0.339844L88.5601 16.3398C89.0562 16.5605 89.5024 16.8789 89.8711 17.2793C90.2402 17.6777 90.5239 18.1465 90.7056 18.6582C90.8867 19.1699 90.9624 19.7129 90.9272 20.2559C90.917 20.4121 90.8975 20.5664 90.8691 20.7207C90.8491 20.8301 90.8242 20.9395 90.7949 21.0469C90.7231 21.3105 90.6245 21.5664 90.5 21.8105L88.5 25.8105C88.168 26.4648 87.6621 27.0156 87.0376 27.4023C86.4131 27.7871 85.6943 27.9941 84.96 28ZM74 52H8C7.20459 52 6.44141 52.3164 5.87891 52.8789C5.31592 53.4414 5 54.2051 5 55V56H77V55C77 54.5879 76.9155 54.1855 76.7559 53.8145C76.6069 53.4688 76.3931 53.1504 76.1211 52.8789C75.5586 52.3164 74.7954 52 74 52ZM40.96 4L4.95996 20L6.95996 24H74.96L76.96 20L40.96 4ZM40.96 20C39.9712 20 39.0044 19.707 38.1821 19.1582C37.7749 18.8848 37.4126 18.5566 37.1045 18.1836C36.79 17.8027 36.5317 17.375 36.3403 16.9141C35.9619 16 35.8633 14.9941 36.0562 14.0254C36.249 13.0547 36.7251 12.1641 37.4243 11.4648C38.1235 10.7656 39.0146 10.2891 39.9844 10.0957C40.9546 9.90234 41.96 10.002 42.8735 10.3809C43.7871 10.7598 44.5679 11.4004 45.1172 12.2227C45.6665 13.0449 45.96 14.0117 45.96 15C45.96 15.6562 45.8306 16.3066 45.5796 16.9141C45.3281 17.5195 44.96 18.0703 44.4956 18.5352C44.0313 19 43.48 19.3672 42.8735 19.6191C42.2666 19.8711 41.6167 20 40.96 20ZM10.96 50V26H70.96V50H63.46V35C63.46 33.6738 62.9331 32.4023 61.9956 31.4648C61.0576 30.5273 59.7861 30 58.46 30C57.1338 30 55.8623 30.5273 54.9243 31.4648C53.9868 32.4023 53.46 33.6738 53.46 35V50H45.96V35C45.96 33.6738 45.4331 32.4023 44.4956 31.4648C43.5576 30.5273 42.2861 30 40.96 30C39.6338 30 38.3623 30.5273 37.4243 31.4648C36.4868 32.4023 35.96 33.6738 35.96 35V50H28.46V35C28.46 33.6738 27.9331 32.4023 26.9956 31.4648C26.0576 30.5273 24.7861 30 23.46 30C22.1338 30 20.8623 30.5273 19.9243 31.4648C18.9868 32.4023 18.46 33.6738 18.46 35V50H10.96Z" fill="black"/>
</svg>
