<svg width="78" height="61" viewBox="0 0 78 61" fill="none" xmlns="http://www.w3.org/2000/svg">
<path fill-rule="evenodd" clip-rule="evenodd" d="M68.6898 36.0019H72.4998C75.5327 36.0019 77.9997 38.4689 77.9997 41.5019V44.5019C77.9997 47.5338 75.5327 50.0018 72.4998 50.0018H67.9998V54.5018C67.9998 57.5338 65.5328 60.0018 62.4998 60.0018L33.9999 60.0038C32.9139 60.0038 31.8749 59.5628 31.1209 58.7798L31.1115 58.77C30.5956 58.2353 11.8628 38.815 5.55298 32.4189C1.97199 28.7899 0 24.0239 0 18.9999C0 8.52297 8.52297 0 18.9999 0H28.9999C32.6679 0 36.0929 1.051 38.9999 2.85799C41.9069 1.051 45.3318 0 48.9998 0H58.9998C69.4768 0 77.9997 8.52297 77.9997 18.9999C77.9997 24.0309 76.0317 28.7979 72.4568 32.4199C71.6768 33.2099 70.7078 34.1989 69.6108 35.3209C69.3378 35.6019 69.0208 35.8169 68.6898 36.0019ZM64 41.5C64 40.672 63.329 40 62.5 40H54V31.5C54 30.672 53.329 30 52.5 30H49.5C48.672 30 48 30.672 48 31.5V40H39.5C38.672 40 38 40.672 38 41.5V44.5C38 45.328 38.672 46 39.5 46H48V54.5C48 55.328 48.672 56 49.5 56H52.5C53.329 56 54 55.328 54 54.5V46H62.5C63.329 46 64 45.328 64 44.5V41.5ZM41.006 48.75H39.5C37.157 48.75 35.25 46.844 35.25 44.5V41.5C35.25 39.156 37.157 37.25 39.5 37.25H45.25V31.5C45.25 29.156 47.157 27.25 49.5 27.25H52.5C54.844 27.25 56.75 29.156 56.75 31.5V32.5241C57.852 31.3961 58.826 30.4021 59.61 29.6081C62.307 26.8751 64 23.1481 64 18.9981C64 10.7181 57.29 3.99805 49 3.99805C40.72 3.99805 34 10.7181 34 18.9981C34 10.7181 27.29 3.99805 19 3.99805C10.72 3.99805 4 10.7181 4 18.9981C4 23.1481 5.703 26.8751 8.40001 29.6081C14.856 36.1511 34 56.0021 34 56.0021C34 56.0021 36.993 52.9 41.006 48.75Z" fill="black"/>
</svg>
