<svg width="67" height="60" viewBox="0 0 67 60" fill="none" xmlns="http://www.w3.org/2000/svg">
<path fill-rule="evenodd" clip-rule="evenodd" d="M58.4896 59.9999C55.6713 59.9833 52.3281 59.9778 49.1288 59.9779C48.9253 59.9925 48.72 60 48.5132 60L48.4896 59.9999C47.0599 59.9915 45.4952 59.9859 43.8827 59.9825C42.035 59.9855 40.4175 59.9896 39.221 59.993C38.5439 59.9949 38.0017 59.9967 37.6289 59.9979L37.0537 60C36.9113 60.0005 36.7696 59.9935 36.6291 59.979L35.5715 59.9801C35.4404 59.9931 35.3074 59.9997 35.1728 59.9997H27.1206L27.0537 60C27.0444 60 27.0352 60 27.0259 60C27.0147 59.9999 27.0035 59.9999 26.9923 59.9997H8.48663C3.82975 59.9997 0 56.2421 0 51.5242V18.704C0 18.3608 0.0432262 18.0277 0.124532 17.7098C0.0432262 17.3919 0 17.0588 0 16.7156V8.47549C0 3.75761 3.82975 0 8.48663 0H35.4753C40.1322 0 43.9619 3.75761 43.9619 8.47549V16.7156C43.9619 17.0588 43.9187 17.3919 43.8374 17.7098C43.9187 18.0277 43.9619 18.3608 43.9619 18.704V19.5294H49.3794C49.4687 19.5279 49.5577 19.5279 49.6464 19.5294H59.3794C63.499 19.4574 67 22.7249 67 26.9606C67 27.2505 66.9692 27.5332 66.9106 27.8056C66.969 28.0778 66.9998 28.3602 66.9998 28.6498V51.5742C66.9998 56.2714 63.1408 60 58.5132 60L58.4896 59.9999ZM25.4753 4C27.9455 4 29.9619 5.98911 29.9619 8.47549V16.7156H4V8.47549C4 5.98911 6.01646 4 8.48663 4H25.4753ZM7.22634 14.7265C7.62963 14.7265 7.98251 14.3784 7.98251 13.9806V10.0023C7.98251 9.60452 7.62963 9.25643 7.22634 9.25643C6.82305 9.25643 6.47017 9.60452 6.47017 10.0023V13.9806C6.47017 14.3784 6.82305 14.7265 7.22634 14.7265ZM47.6055 39.9881C45.5891 35.9104 40.3463 33.971 36.2125 36.0596C32.1796 38.0984 30.516 43.3696 32.6333 47.3478C34.3473 50.5304 38.0273 52.2708 41.6066 51.6244C44.2784 51.1271 46.194 49.5855 47.5047 47.2981C48.8154 44.9111 48.6642 42.2258 47.6055 39.9881ZM40.2455 38.1979C39.973 38.2651 39.6904 38.2919 39.4021 38.3193C39.0503 38.3527 38.69 38.3869 38.3298 38.4963C36.3638 39.1427 34.801 41.0324 34.7506 43.1209C34.7506 43.3696 34.6498 43.6182 34.549 43.8171C34.3473 44.2647 33.9944 44.3641 33.5911 44.3144C33.1374 44.2149 32.9358 43.9663 32.8854 43.469C32.835 42.0269 33.1878 40.6843 33.9944 39.4908C35.3051 37.5514 37.1704 36.5072 39.5397 36.4077H39.9934C40.4471 36.4077 40.8 36.5569 40.8504 37.0044C41.0016 37.6012 40.6992 38.0487 40.2455 38.1979ZM27.0379 28.6498H52.9998V51.5742C52.9998 54.0109 50.9834 56 48.5132 56C40.0945 55.9503 27.0379 56 27.0379 56V28.6498ZM48.3115 49.436C49.5718 47.7949 50.1264 45.7561 50.1768 43.7173C50.1768 41.6287 49.6222 39.5401 48.5132 37.8494C44.934 32.3794 36.3136 31.8821 32.1294 36.9543C28.651 41.1812 29.1047 47.4966 33.2889 51.1267C37.7755 55.0054 44.7827 54.1601 48.3115 49.436ZM29.9619 21.6877V18.704H4V51.5242C4 54.0106 6.01646 55.9997 8.48663 55.9997H25.1728V26.4118C25.1728 23.8259 27.2901 21.6877 29.9619 21.6877ZM7.98251 31.3846C7.98251 31.7824 7.62963 32.1305 7.22634 32.1305C6.82305 32.1305 6.47017 31.7824 6.47017 31.3846V22.4336C6.47017 22.0358 6.82305 21.6877 7.22634 21.6877C7.62963 21.6877 7.98251 22.0358 7.98251 22.4336V31.3846ZM53 26.9606H26.9876C26.9876 25.071 28.5504 23.5294 30.466 23.5294H49.4208C51.3868 23.4797 53 25.0213 53 26.9606Z" fill="black"/>
</svg>
