<svg width="91" height="60" viewBox="0 0 91 60" fill="none" xmlns="http://www.w3.org/2000/svg">
<path fill-rule="evenodd" clip-rule="evenodd" d="M52.1001 0.586L88.1149 22.5859C89.8959 23.6739 90.5409 25.9489 89.5959 27.8099L87.5669 31.8099C86.8849 33.1529 85.5059 33.9999 84 33.9999V55.9998C84 58.2088 82.209 59.9998 80 59.9998H10.0002C7.79122 59.9998 6.00023 58.2088 6.00023 55.9998V33.9999C4.48523 33.9999 3.10023 33.1439 2.42323 31.7889L0.423241 27.7889C-0.506756 25.9299 0.142247 23.6689 1.91524 22.5859L37.9301 0.586C38.5701 0.195002 39.2931 0 40.0151 0H50.0151C50.7371 0 51.4601 0.195002 52.1001 0.586ZM35.0004 45.9979C35.5524 45.9979 36.0004 45.5499 36.0004 44.9979V42.9979C36.0004 42.4459 35.5524 41.9979 35.0004 41.9979H34.0004V37.9979C34.0004 34.6849 31.3144 31.998 28.0004 31.998C24.6874 31.998 22.0004 34.6849 22.0004 37.9979V41.9979H21.0004C20.4484 41.9979 20.0004 42.4459 20.0004 42.9979V44.9979C20.0004 45.5499 20.4484 45.9979 21.0004 45.9979H35.0004ZM4.00049 25.998L40.0154 3.99805L76.0302 25.998L74.0003 29.998H70.0003V55.9979H60.0003V37.9979C60.0003 34.6849 57.3143 31.998 54.0003 31.998C50.6873 31.998 48.0003 34.6849 48.0003 37.9979V55.9979H10.0005V29.998H6.00048L4.00049 25.998Z" fill="black"/>
</svg>
