<svg width="78" height="60" viewBox="0 0 78 60" fill="none" xmlns="http://www.w3.org/2000/svg">
<path fill-rule="evenodd" clip-rule="evenodd" d="M6.35189 16.8604C6.22933 16.1689 6.22835 15.4707 6.34457 14.792C6.46859 14.0674 6.7264 13.3662 7.11166 12.7207C7.48177 12.1006 7.95687 11.5605 8.51107 11.1201C9.06869 10.6699 9.70687 10.3203 10.3978 10.0996C10.5008 10.0654 10.6053 10.0342 10.7103 10.0088C10.7879 9.98926 10.8661 9.97266 10.9447 9.95996L26.9388 7.14062V7C26.9388 6.12891 27.1004 5.27539 27.4076 4.47949C27.7562 3.57617 28.2918 2.74707 28.992 2.0498C29.7889 1.25 30.7591 0.669922 31.8158 0.330078C32.4959 0.110352 33.2118 0 33.9388 0C34.1053 0 34.2708 0.00585938 34.4354 0.0175781C34.6024 0.00585938 34.7703 0 34.9388 0L35.1092 0.00195312C35.2181 0.00488281 35.327 0.00976562 35.4349 0.0175781L35.6009 0.0078125C35.7132 0.00292969 35.826 0 35.9388 0L36.1146 0.00195312C36.222 0.00488281 36.3289 0.00976562 36.4359 0.0175781C36.6029 0.00585938 36.7703 0 36.9388 0L37.119 0.00195312L37.2577 0.00683594L37.4364 0.0175781C37.6029 0.00585938 37.7708 0 37.9388 0C38.1053 0 38.2708 0.00585938 38.4359 0.0175781C38.6029 0.00585938 38.7703 0 38.9388 0C39.1053 0 39.2708 0.00585938 39.4359 0.0175781C39.6029 0.00585938 39.7703 0 39.9388 0L40.1673 0.00390625L40.4359 0.0175781C40.6029 0.00585938 40.7703 0 40.9388 0L41.1678 0.00390625L41.4359 0.0175781C41.6029 0.00585938 41.7703 0 41.9388 0L42.1678 0.00390625L42.4359 0.0175781C42.6029 0.00585938 42.7703 0 42.9388 0L43.1131 0.00195312C43.221 0.00488281 43.3285 0.00976562 43.4359 0.0175781C43.6029 0.00585938 43.7703 0 43.9388 0C45.7957 0 47.576 0.740234 48.889 2.0498C49.2254 2.38574 49.5233 2.75391 49.7816 3.14551L54.9647 2.25977C55.4178 2.18164 55.8739 2.15625 56.3241 2.18164L56.3328 2.18262L56.4779 2.19238L56.4901 2.19336C56.8241 2.16602 57.1566 2.16504 57.4867 2.19336C57.6917 2.17578 57.8968 2.16895 58.1009 2.17285C58.2293 2.17578 58.3577 2.18262 58.4852 2.19336C58.8202 2.16504 59.1541 2.16602 59.4852 2.19336C59.7933 2.16797 60.1009 2.16504 60.4061 2.18652L60.4881 2.19336C60.8221 2.16602 61.1561 2.16602 61.4862 2.19336C61.6121 2.18262 61.7376 2.17676 61.8636 2.17383C62.0716 2.16895 62.2791 2.17578 62.4852 2.19336C62.8197 2.16504 63.1541 2.16602 63.4852 2.19336C63.8202 2.16504 64.1541 2.16602 64.4852 2.19336C64.6522 2.17969 64.8192 2.17285 64.9857 2.17285C65.1014 2.17188 65.2166 2.17578 65.3314 2.18262L65.4847 2.19336C65.908 2.15723 66.3314 2.16699 66.7479 2.2207C67.1834 2.27734 67.6117 2.38086 68.0247 2.53027C68.5077 2.70996 68.971 2.9502 69.3997 3.25C69.868 3.57324 70.2835 3.95898 70.6366 4.39355C70.9383 4.76562 71.1947 5.17285 71.3997 5.60645C71.4813 5.7793 71.5545 5.95508 71.6195 6.13477C71.6776 6.2959 71.7288 6.45996 71.7728 6.62598C71.8099 6.76562 71.8421 6.90723 71.869 7.0498L71.889 7.16016C71.9681 7.66016 71.9847 8.15039 71.9408 8.65039C71.9149 8.9502 71.8661 9.24023 71.7948 9.54004C71.7528 9.70996 71.703 9.87988 71.6458 10.0498L77.3641 20.71C77.5887 21.1299 77.7367 21.5801 77.8021 22.0498C77.952 23.1504 77.952 24.25 77.8021 25.3398C77.7835 25.4785 77.7581 25.6143 77.7259 25.7471C77.6722 25.9688 77.5999 26.1836 77.5101 26.3906C75.6517 30.6797 70.7557 34 65.0399 34L64.8831 33.999L64.5394 33.9912C64.3734 33.9971 64.2074 34 64.0399 34C63.8724 34 63.7059 33.9971 63.5399 33.9912C63.3739 33.9971 63.2074 34 63.0399 34C62.8724 34 62.7054 33.9971 62.5394 33.9912C62.3734 33.9971 62.2074 34 62.0399 34C61.8724 34 61.7054 33.9971 61.5394 33.9912C61.3734 33.9971 61.2074 34 61.0399 34C60.8724 34 60.7054 33.9971 60.5394 33.9912C60.3734 33.9971 60.2069 34 60.0399 34C59.8724 34 59.7059 33.9971 59.5399 33.9912L59.2952 33.9971L59.0399 34C58.8724 34 58.7064 33.9971 58.5404 33.9912L58.2801 33.999L58.0399 34C57.8719 34 57.7044 33.9971 57.5379 33.9912L57.2474 33.999L57.0399 34L56.7791 33.9971L56.5413 33.9912L56.224 33.999L56.0399 34C55.8729 34 55.7059 33.9971 55.5404 33.9912L55.2977 33.998L55.0951 34H55.0399C53.6097 34 52.2313 33.793 50.9388 33.4141V38.29L51.0409 38.3252L51.1839 38.3701C52.1927 38.71 53.1209 39.2803 53.889 40.0498C54.1405 40.3008 54.3709 40.5693 54.5794 40.8516C54.658 40.959 54.7337 41.0684 54.8065 41.1797L54.89 41.3115C55.0848 41.626 55.2542 41.9551 55.3968 42.2959C55.7513 43.1436 55.9388 44.0615 55.9388 45V46.0703C57.4256 46.29 58.8138 46.9805 59.888 48.0498C61.202 49.3604 61.9388 51.1396 61.9388 53V56C61.9388 58.21 60.1488 60 57.9388 60H19.9398C17.7298 60 15.9398 58.21 15.9398 56V53C15.9398 51.1396 16.6771 49.3604 17.993 48.0498C18.2498 47.7939 18.5243 47.5576 18.8143 47.3457C18.8905 47.29 18.9681 47.2354 19.0467 47.1826C19.1302 47.126 19.2147 47.0723 19.3006 47.0195C19.4725 46.915 19.6483 46.8184 19.828 46.7305C20.4901 46.4004 21.203 46.1797 21.9388 46.0703V45C21.9388 44.9062 21.9408 44.8125 21.9442 44.7188L21.9515 44.5752L21.952 44.5674C21.9598 44.4424 21.971 44.3193 21.9852 44.1953C22.0042 44.0303 22.0291 43.8672 22.0594 43.7061L22.1121 43.4512C22.2332 42.917 22.4163 42.3994 22.6576 41.9092C22.43 41.9121 22.202 41.9102 21.974 41.9014C21.6414 41.9141 21.3079 41.9141 20.9744 41.9014C20.6419 41.9141 20.3079 41.9141 19.9744 41.9014C19.6419 41.9141 19.3079 41.9141 18.9744 41.9014C18.6419 41.9141 18.3079 41.9141 17.9744 41.9014C17.6419 41.9141 17.3079 41.9141 16.9744 41.9014L16.6878 41.9082L16.388 41.9102C16.2503 41.9102 16.1121 41.9062 15.9744 41.9014C15.6419 41.9141 15.3079 41.9141 14.9744 41.9014C14.641 41.9141 14.3075 41.9141 13.973 41.9014C13.6327 41.9141 13.2913 41.9141 12.95 41.9004C7.27181 41.8604 2.41781 38.5596 0.568687 34.29L0.525718 34.1904C0.388023 33.8398 0.275718 33.4902 0.191734 33.1299L0.190757 33.1201C0.0349953 32.4502 -0.0260398 31.7598 0.010093 31.0703C0.0408547 30.5 0.138999 29.9199 0.305991 29.3604C0.382652 29.1006 0.485679 28.8506 0.614097 28.6104L6.52572 17.5703C6.49056 17.4561 6.45736 17.3379 6.42855 17.2207L6.38265 17.0195L6.35189 16.8604ZM57.9388 7.7998C57.8416 7.28027 57.5457 6.83008 57.1156 6.53027C56.9725 6.42969 56.8187 6.34961 56.6576 6.29004C56.4349 6.20703 56.1991 6.16699 55.9608 6.16992C55.8534 6.17188 55.7454 6.18164 55.6385 6.2002L36.9388 9.40039V7C36.9388 6.2002 36.6229 5.44043 36.0609 4.87988C35.4979 4.32031 34.7347 4 33.9388 4C33.6268 4 33.3206 4.0498 33.0286 4.14062C32.5765 4.29004 32.1595 4.54004 31.8177 4.87988C31.2547 5.44043 30.9388 6.2002 30.9388 7V10.5L11.6385 13.9004C11.4085 13.9805 11.1956 14.0898 11.0096 14.2402C10.8245 14.3906 10.6659 14.5703 10.5428 14.7695C10.2948 15.1904 10.2049 15.6797 10.2899 16.1504C10.3758 16.6299 10.6297 17.0605 11.0067 17.3604C11.1927 17.5098 11.4017 17.6201 11.6248 17.7002C11.8529 17.7705 12.0946 17.8096 12.3387 17.7998L30.9388 14.5996V42H28.9388C28.4378 42 27.9495 42.1299 27.5164 42.3604C27.2616 42.5 27.0257 42.6699 26.8177 42.8799C26.2547 43.4404 25.9388 44.2002 25.9388 45V48H41.9388V45C41.9388 44.2002 41.6229 43.4404 41.0609 42.8799C40.7308 42.5498 40.3338 42.2998 39.9007 42.1602C39.5936 42.0498 39.2699 42 38.9388 42H36.9388V13.5L56.2386 10.0996C56.5028 10.0605 56.7567 9.96973 56.9857 9.83984C57.2147 9.7002 57.4149 9.52051 57.5726 9.31055C57.7308 9.08984 57.8455 8.84961 57.9076 8.58984C57.9315 8.49023 57.9476 8.38965 57.9569 8.2998C57.9715 8.12988 57.9657 7.95996 57.9388 7.7998ZM63.909 23.4004C63.8988 23.1328 63.8753 22.8652 63.8387 22.5996L57.9388 11.5996C57.7957 11.6797 57.6497 11.75 57.5008 11.8203C57.2225 11.9404 56.9349 12.0303 56.6395 12.0996L55.8387 12.2002L61.0399 21.9004H48.8387L53.8387 12.5L51.2396 13L46.1395 22.5996C45.9759 23.3301 46.0106 24.0898 46.2396 24.7998C47.5399 27.7998 51.0399 30 55.0399 30C59.0399 30 62.5399 27.7998 63.8387 24.7998C63.9032 24.3359 63.9266 23.8682 63.909 23.4004ZM21.7386 32.7998C21.9188 32.0801 21.9515 31.3301 21.8387 30.5996L15.8387 19.2998L13.6395 19.7002L19.1395 30H6.73861L12.2386 19.7998H12.0399C11.8827 19.7998 11.7279 19.7803 11.5726 19.7598C11.4124 19.7402 11.2537 19.71 11.0975 19.6699C10.7645 19.5898 10.4427 19.46 10.1395 19.2998L4.13949 30.5C4.08236 30.6963 4.04281 30.8936 4.02084 31.0898C4.01351 31.1533 4.00814 31.2168 4.00472 31.2803C3.98763 31.5996 4.01546 31.9102 4.08675 32.2207C4.12582 32.3799 4.17562 32.54 4.23861 32.7002C5.53988 35.7002 9.03988 37.9004 13.0399 37.9004C13.9276 37.9453 14.8119 37.8594 15.6668 37.6504C16.5335 37.4375 17.37 37.0986 18.1478 36.6406C19.6917 35.7402 20.9398 34.4004 21.7386 32.7998ZM22.9388 50C22.4725 50 22.0179 50.1104 21.6077 50.3105C21.3177 50.46 21.0506 50.6504 20.8177 50.8799C20.2547 51.4404 19.9398 52.2002 19.9398 53V56H47.9388V53C47.9388 52.5049 47.8182 52.0254 47.5926 51.5986C47.4539 51.3359 47.2752 51.0938 47.0609 50.8799C46.4979 50.3203 45.7347 50 44.9388 50H22.9388Z" fill="black"/>
</svg>
