<svg width="66" height="60" viewBox="0 0 66 60" fill="none" xmlns="http://www.w3.org/2000/svg">
<path fill-rule="evenodd" clip-rule="evenodd" d="M15.5548 59.6605C16.0618 59.8806 16.6109 60.0004 17.166 60.0004L27.2511 60.0004C27.8501 60.0004 28.3482 59.9705 28.8482 59.8705C28.9792 59.8405 29.1103 59.8104 29.2383 59.7704C31.9596 58.9303 33.5028 57.2203 34.2019 54.67L37.8004 54.67C38.4545 57.1003 39.9826 58.8403 42.5409 59.7304C42.962 59.8704 43.4041 59.9504 43.8491 59.9504C47.4884 59.9105 51.2095 59.9105 54.8473 59.9504C55.3893 59.9504 55.9254 59.8405 56.4234 59.6205C58.4877 58.7404 59.8918 57.2302 60.1869 54.8699C60.3039 53.9298 60.2899 52.8797 60.0639 52.0596C59.9382 51.6024 59.815 51.1436 59.6911 50.6825C59.5115 50.0137 59.3306 49.34 59.1388 48.6593C59.3778 48.4992 59.5698 48.3292 59.7338 48.1692C60.2129 47.7192 60.757 47.049 61 45.7988C64.8815 44.6087 66.9377 40.5783 65.4295 36.6579C65.4235 36.6379 65.4165 36.6178 65.4105 36.5978C64.2974 33.8275 61.9481 32.1073 58.4997 32.1073H49.6977C49.499 31.1369 49.2993 30.1709 49.0994 29.2034C48.9985 28.7151 48.8976 28.2264 48.7966 27.7366C48.6046 26.8165 48.4135 25.8964 48.2225 24.9663C48.3865 24.9463 48.5475 24.9164 48.7065 24.8764C48.8246 24.8864 48.9436 24.8965 49.0646 24.8965C49.5356 24.8965 50.0307 24.7964 50.5158 24.6264C50.8368 24.5064 51.1478 24.3664 51.4359 24.1664C52.942 23.1663 54.6853 22.8861 56.4785 22.8061H56.5685C58.5097 22.6861 59.5368 21.8961 60.1739 21.136C60.861 20.3159 61.5 19.1057 61.113 17.0054C60.6079 14.2751 59.7569 11.6648 58.2027 9.27452C58.1497 9.19451 58.1077 9.12454 58.0716 9.06454C57.6456 8.37446 57.2496 7.94449 56.8825 7.65446C56.8215 7.54445 56.7545 7.43436 56.6815 7.32434C55.1823 5.12408 52.251 2.98387 48.9206 1.61371C46.2143 0.503584 43.2829 -0.0765814 40.8126 0.0134291L31.7277 0.0134291C30.8436 -0.0265756 30.0025 0.023567 29.2334 0.153582C28.4893 0.283597 27.8172 0.613568 27.2742 1.08362C27.1772 1.09362 27.0811 1.10365 26.9871 1.11366L26.6311 1.14369C26.3041 1.10368 25.968 1.10368 25.631 1.14369C25.2749 1.10368 24.9089 1.1037 24.5419 1.16371C21.6075 1.59376 17.347 4.454 14.4937 7.81439C12.4764 10.1847 11.2333 12.7749 11.0173 14.7151C10.7212 15.1852 10.5052 15.7452 10.3812 16.4553C10.0241 18.5055 9.97213 20.5359 10.2142 22.5561C10.0141 22.5561 9.81313 22.5661 9.61311 22.5761C9.28107 22.5561 8.94603 22.5561 8.61299 22.5761C8.28095 22.5561 7.94591 22.5561 7.61288 22.5761C6.04169 22.4661 4.4295 22.8862 3.04334 23.8563C3.03934 23.8613 3.03559 23.8638 3.03183 23.8663C3.02808 23.8688 3.02433 23.8713 3.02033 23.8763C-0.248054 26.2066 -1.00515 30.407 1.44614 33.7874C1.44773 33.7927 1.44961 33.7952 1.45163 33.7979C1.4534 33.8002 1.45528 33.8027 1.45716 33.8074C2.6963 35.4976 3.94944 37.2079 5.20158 38.9181L8.89302 43.9585C9.49409 44.8786 10.1462 45.4688 10.9393 45.8088C11.1553 46.949 11.6673 47.6491 12.1744 48.1492C12.3624 48.3392 12.5774 48.5291 12.8315 48.7091C12.5204 49.7892 12.2154 50.8894 11.9274 51.9895C11.9231 52.0018 11.9188 52.0179 11.9147 52.0331C11.9121 52.0427 11.9097 52.0519 11.9074 52.0596C11.4763 53.8498 11.6853 55.3199 12.2394 56.52C12.8405 57.8202 13.8846 58.9205 15.5548 59.6605ZM29.8473 4.11011C32.9923 5.83012 34.7163 8.67019 36.2383 11.6602C38.3183 10.6502 39.4853 10.2901 43.2383 9.58012C40.9553 6.2401 34.0573 3.40011 29.8473 4.11011ZM28.4783 5.07008C26.9562 4.92008 25.9922 5.73016 25.2822 6.90017C23.9122 9.08018 23.6082 11.5602 23.4562 14.1502C27.0072 12.0202 30.8113 11.4102 34.8693 11.8702V11.71C33.8543 9.64 32.6373 7.76002 30.8622 6.24001C30.1512 5.63 29.3913 5.17008 28.4783 5.07008ZM36.8473 12.93C37.2553 14.45 37.6463 15.9601 38.0393 17.4801C38.3313 18.6201 38.6243 19.7503 38.9273 20.9003C38.9437 20.9003 38.9601 20.8917 38.9767 20.8829C38.9855 20.8783 38.9943 20.8737 39.0033 20.8702C39.0283 20.8602 39.0543 20.8502 39.0793 20.8502C41.2093 19.4302 43.6443 18.9202 46.1804 18.8202C46.9924 18.7702 47.1954 18.5601 47.0424 17.7501C46.6374 15.5201 45.9774 13.39 44.7093 11.46C44.678 11.4105 44.6492 11.3644 44.6225 11.3217C44.5845 11.261 44.5509 11.2072 44.5204 11.1602C44.3884 10.9402 44.3194 10.8301 44.2194 10.7801C44.1094 10.7301 43.9633 10.7501 43.6583 10.8001C43.5867 10.807 43.5069 10.8187 43.4171 10.8318C43.3766 10.8377 43.3341 10.8439 43.2893 10.8501C43.0356 10.8501 42.7829 10.8999 42.5291 10.9498L42.5283 10.95C40.4993 11.36 38.5723 12.07 36.8473 12.93ZM17.3692 47.2703C16.8112 49.1503 16.2531 51.0803 15.7461 53.0003C15.3911 54.4803 15.8472 55.4403 17.1162 56.0003C17.4202 56.0003 17.6732 56.0003 17.9272 55.9503C19.2462 55.5403 19.9562 54.6805 20.2602 53.4105C20.3618 53.0426 20.4716 52.681 20.5827 52.3157C20.6105 52.2242 20.6384 52.1325 20.6662 52.0404C20.6833 51.9843 20.7003 51.9284 20.7173 51.8726C20.8399 51.4705 20.9607 51.0744 21.0722 50.6705H40.1953C40.6013 50.6705 40.8033 50.7702 40.9053 51.1802C40.9517 51.3322 41.0003 51.4784 41.05 51.6277C41.0657 51.6748 41.0815 51.7223 41.0973 51.7703L41.1126 51.817C41.2616 52.2715 41.4109 52.7268 41.5143 53.2103C41.7673 54.5203 42.4773 55.4903 43.7963 55.9503H44.7093C45.4194 55.6403 45.9774 55.1905 46.0793 54.3705C46.1294 53.9705 46.1804 53.5105 46.0793 53.1605C45.6223 51.4305 45.1664 49.7603 44.6584 48.0303C44.4053 47.2203 44.1513 46.3603 43.8983 45.5003C43.9573 45.5003 43.9823 45.4802 44.0023 45.4602C44.0163 45.4602 44.0293 45.4502 44.0503 45.4502H45.8254C46.9414 45.4502 46.9924 45.4004 46.9924 44.3303V42.1504H48.6664C50.8974 42.0504 52.3184 40.0703 51.5574 38.0903C51.0504 36.8203 49.9344 36.1103 48.3614 36.1103H36.2893C35.7823 33.5803 35.2623 31.0702 34.7423 28.5602C34.6866 28.2904 34.6309 28.0207 34.5753 27.7511C34.1111 25.5025 33.648 23.2593 33.1953 21.0001H37.6083C37.1013 18.4101 36.5433 15.8202 35.5793 13.3402C35.5283 13.1902 35.2753 13.0301 35.1223 13.0301C33.4993 12.7801 31.8253 12.7801 30.1512 13.0301C27.8692 13.3901 25.6882 14.1002 23.7602 15.3702C23.4562 15.5202 23.3552 15.7201 23.4052 16.0301C23.5006 16.7875 23.5837 17.5448 23.6669 18.3022L23.6842 18.4601L23.6849 18.4667C23.7737 19.2745 23.8625 20.0825 23.9632 20.9003C24.0438 21.4026 24.1522 21.8958 24.2586 22.3802L24.2762 22.4601L24.2792 22.4735C24.3682 22.8688 24.455 23.2546 24.5212 23.6403L24.6134 23.5992C25.9527 23.0029 27.2921 22.4065 28.6803 21.8102C29.6953 26.6802 30.6593 31.4003 31.5213 36.1103C31.3183 36.1603 31.2173 36.1604 31.0643 36.1604H16.0502C15.6952 36.1604 15.5432 36.0102 15.3402 35.7602C13.4132 33.1202 11.4851 30.4803 9.55812 27.9003C8.54311 26.4803 6.66611 26.1703 5.2971 27.1403C3.87709 28.1503 3.57206 29.9801 4.63807 31.4501C5.87908 33.1401 7.13409 34.8503 8.3881 36.5603L8.39112 36.5703C8.59119 36.8429 8.79129 37.1155 8.99136 37.3881C10.0463 38.8252 11.1003 40.2612 12.1451 41.6902C12.3981 42.1002 12.7032 42.2002 13.1592 42.2002H14.7822V44.5803C14.7822 45.3404 14.9341 45.5003 15.6952 45.5003H17.8762C17.6732 46.1603 17.5212 46.7103 17.3692 47.2703ZM39.501 46.6191L39.5083 46.6404C39.5294 46.697 39.5497 46.7602 39.5705 46.8246C39.5754 46.8398 39.5803 46.8551 39.5853 46.8704C33.7533 46.8704 28.0212 46.8703 22.2392 46.8103L22.25 46.7674C22.3475 46.3811 22.4467 45.9879 22.5942 45.6504C22.6352 45.5704 22.7422 45.5203 22.8352 45.4803C22.8496 45.4671 22.8636 45.4626 22.8772 45.4582C22.8843 45.4559 22.8913 45.4537 22.8982 45.4502C22.9631 45.4109 23.0492 45.4199 23.1434 45.4297L23.1482 45.4302C23.1982 45.4402 23.2512 45.4502 23.3042 45.4502H38.5213C38.9773 45.4502 39.2313 45.6003 39.3323 46.0603C39.369 46.2342 39.4319 46.4175 39.501 46.6191ZM22.7482 23.8903C22.9122 23.9003 23.0712 23.9101 23.2022 23.9401C22.8472 21.3001 22.4412 18.6601 21.9342 15.9801C19.6012 15.8201 17.2172 15.9301 14.8331 16.5301C14.4781 16.6401 14.3262 16.7902 14.2752 17.1402C13.8182 19.5302 13.9711 21.9101 14.5282 24.2401C14.7312 24.9501 14.9851 25.1102 15.6952 24.8502C15.7409 24.8382 15.7822 24.8225 15.8216 24.8076C15.8478 24.7977 15.873 24.7881 15.8982 24.7802C15.9393 24.7606 15.9808 24.7453 16.0258 24.7286C16.0498 24.7198 16.0747 24.7105 16.1012 24.7001C18.1302 23.9901 20.1592 23.5302 22.2892 23.8402C22.4362 23.8602 22.5952 23.8803 22.7482 23.8903ZM14.9342 15.2701C17.3182 14.7601 19.6522 14.3502 22.1372 14.6102C22.3402 11.1602 22.7462 7.86015 25.0792 5.12013C21.3262 5.68013 15.0872 11.9201 14.9342 15.2701Z" fill="black"/>
</svg>
