<svg width="78" height="60" viewBox="0 0 78 60" fill="none" xmlns="http://www.w3.org/2000/svg">
<path fill-rule="evenodd" clip-rule="evenodd" d="M67.9998 12H69.9998C74.4107 12 77.9997 15.5889 77.9997 19.9999V51.9998C77.9997 56.4108 74.4107 59.9998 69.9998 59.9998H7.99997C3.58899 59.9998 0 56.4108 0 51.9998V31.9999C0 29.9679 0.768001 28.1149 2.021 26.7029C2.02017 26.6932 2.01933 26.6835 2.01849 26.6738C2.00925 26.5665 1.99999 26.4591 1.99999 26.3509V21.9999C1.99999 17.5889 5.58898 14 9.99997 14L10.003 10.016H10.005C9.99997 8.96997 10.403 7.93997 11.171 7.17198L17.1709 1.172C17.9369 0.406 18.9599 0 20.0009 0H62.9998C65.7568 0 67.9998 2.24299 67.9998 4.99998V12ZM45.9995 16C42.6855 16 39.9995 18.687 39.9995 22C39.9995 25.313 37.3125 28 33.9995 28H7.99951C5.79051 28 3.99951 29.791 3.99951 32V52C3.99951 54.209 5.79051 56 7.99951 56H59.9995C62.2086 56 63.9996 54.209 63.9996 52V20C63.9996 17.791 62.2086 16 59.9995 16H45.9995ZM5.99951 26.351C6.62551 26.128 7.29751 26 7.99951 26H11.9995V18H9.99952C7.79051 18 5.99951 19.791 5.99951 22V26.351ZM17.9995 10C19.1035 10 19.9995 9.104 19.9995 8V4L13.9995 10H17.9995ZM53.9986 5C53.9986 4.448 53.5516 4 52.9986 4H21.9985V8C21.9985 10.209 20.2085 12 17.9995 12H13.9995V26H33.9986C36.2016 26 38.0046 24.222 37.9986 22.019C37.9886 17.599 41.5816 14 45.9986 14H52.9986C53.5516 14 53.9986 13.553 53.9986 13V5ZM33.8245 15.049C33.8245 15.598 33.3805 16.042 32.8315 16.042H18.9935C18.4445 16.042 17.9995 15.598 17.9995 15.049C17.9995 14.5 18.4445 14.056 18.9935 14.056H32.8315C33.3805 14.056 33.8245 14.5 33.8245 15.049ZM33.8245 22.993C33.8245 23.542 33.3805 23.986 32.8315 23.986H18.9935C18.4445 23.986 17.9995 23.542 17.9995 22.993C17.9995 22.444 18.4445 22 18.9935 22H32.8315C33.3805 22 33.8245 22.444 33.8245 22.993ZM33.8245 19.021C33.8245 19.569 33.3805 20.014 32.8315 20.014H18.9935C18.4445 20.014 17.9995 19.569 17.9995 19.021C17.9995 18.473 18.4445 18.028 18.9935 18.028H32.8315C33.3805 18.028 33.8245 18.473 33.8245 19.021Z" fill="black"/>
</svg>
