<svg width="79" height="60" viewBox="0 0 79 60" fill="none" xmlns="http://www.w3.org/2000/svg">
<path fill-rule="evenodd" clip-rule="evenodd" d="M73.4405 22.4789C74.8965 22.7329 76.1645 23.5389 77.0105 24.7469C77.8535 25.9499 78.1755 27.4089 77.9175 28.8539C77.4495 31.4799 75.1685 33.3869 72.4925 33.3869H66.6035L67.7395 36.4879C68.3785 38.2339 68.2955 40.1229 67.5075 41.8079C66.7135 43.5009 65.3035 44.7818 63.5375 45.4138C62.7755 45.6868 61.9795 45.8258 61.1725 45.8258H51.1735C49.7186 45.8258 48.3426 45.3618 47.1986 44.5638L48.6766 48.6178C49.4086 50.6248 49.3146 52.7978 48.4116 54.7348C47.5076 56.6738 45.9016 58.1438 43.8886 58.8748L41.7846 59.6388C41.1256 59.8788 40.4356 59.9998 39.7346 59.9998H29.7356C27.4726 59.9998 25.4266 58.7498 24.3926 56.7388L19.9747 48.1308C18.3767 48.6878 16.7147 48.9778 15.0307 48.9778C8.73969 48.9778 3.06771 45.0118 0.91472 39.1079C-0.457275 35.3449 -0.281274 31.2739 1.41172 27.6429C3.10671 24.0079 6.11971 21.2499 9.89369 19.8789C11.2607 19.3829 12.6927 19.0879 14.1517 19.0019C14.2397 18.9969 14.3267 18.9939 14.4157 18.9939H14.4207C14.5007 18.9939 14.5774 19.0042 14.6542 19.0144C14.6975 19.0202 14.7407 19.026 14.7847 19.0299C14.7919 19.0261 14.7981 19.0213 14.8045 19.0164C14.8096 19.0125 14.8149 19.0085 14.8207 19.0049L20.8967 15.3499C22.1787 14.5799 23.4246 13.721 24.5986 12.799L32.5086 6.59198C32.5546 5.71198 32.7686 4.83998 33.1546 4.01798C33.9476 2.32499 35.3566 1.043 37.1236 0.410998C37.8856 0.137999 38.6816 0 39.4886 0H49.4876C51.6925 0 53.7305 1.04599 55.0315 2.73199H65.2545C66.5385 2.73199 67.7905 3.18399 68.7795 4.00298C69.9175 4.94798 70.6145 6.27798 70.7435 7.74897C70.8725 9.21897 70.4165 10.649 69.4615 11.775L69.1405 12.153H70.0135C72.3155 12.153 74.3955 13.601 75.1885 15.7559C75.6965 17.1359 75.6335 18.6309 75.0115 19.9649C74.5355 20.9849 73.7745 21.8119 72.8235 22.3719L73.4405 22.4789ZM48.3627 39.8735C48.9247 41.4085 50.6387 42.2026 52.1907 41.6466C53.7427 41.0906 54.5457 39.3965 53.9837 37.8605L42.2997 5.94853C41.7377 4.41353 40.0237 3.61951 38.4717 4.17552C36.9187 4.73052 36.1157 6.42555 36.6777 7.96055L48.3627 39.8735ZM50.0727 21.2245C50.3577 22.0005 51.2247 22.4005 52.0097 22.1185L60.5317 19.0515C61.3167 18.7685 61.7207 17.9105 61.4357 17.1355C61.1507 16.3595 60.2827 15.9595 59.4977 16.2425L50.9757 19.3096C50.1907 19.5916 49.7867 20.4495 50.0727 21.2245ZM48.4537 16.2405C49.0927 16.7715 50.0457 16.6885 50.5827 16.0565L56.4127 9.18553C56.9497 8.55353 56.8657 7.61051 56.2267 7.07951C55.5867 6.54951 54.6337 6.63151 54.0967 7.26451L48.2667 14.1345C47.7297 14.7665 47.8137 15.7095 48.4537 16.2405ZM62.7547 26.4185L53.8227 24.8616C53.0007 24.7176 52.2167 25.2605 52.0717 26.0735C51.9267 26.8865 52.4757 27.6625 53.2977 27.8055L62.2297 29.3625C63.0517 29.5065 63.8357 28.9636 63.9807 28.1506C64.1257 27.3376 63.5767 26.5625 62.7547 26.4185ZM46.1167 39.6176L35.0877 9.65153L27.0687 15.9445C25.7587 16.9715 24.3867 17.9175 22.9587 18.7765L16.8816 22.4315C16.5416 22.6365 16.3557 23.0205 16.4057 23.4105L17.3826 30.9116C17.5836 32.2126 18.0437 33.4605 18.7347 34.5845L22.8497 40.9326C23.0707 41.2736 23.4796 41.4486 23.8816 41.3746L30.9847 40.0695C33.8207 39.5485 36.7057 39.3305 39.5887 39.4185L46.1167 39.6176ZM21.7577 42.6865C21.5327 42.4975 21.3337 42.2736 21.1677 42.0186L17.0277 35.6306C16.1917 34.2726 15.6457 32.7876 15.3967 31.1696L14.4187 23.6685C14.3897 23.4405 14.3946 23.2145 14.4166 22.9925C13.3636 23.0515 12.3017 23.2586 11.2597 23.6376C5.53965 25.7146 2.59065 32.0275 4.67265 37.7355C6.75465 43.4445 13.0796 46.3886 18.7996 44.3106C19.8926 43.9136 20.8827 43.3595 21.7577 42.6865ZM31.7049 41.9797C31.5855 41.9972 31.4661 42.0147 31.3477 42.0366L24.2447 43.3416C24.2341 43.3436 24.2235 43.3443 24.2128 43.3451C24.2023 43.3458 24.1916 43.3466 24.1807 43.3486L22.9797 44.2716C22.9053 44.3286 22.8281 44.382 22.7509 44.4353C22.7076 44.4652 22.6644 44.4951 22.6217 44.5256L27.9517 54.9105C28.4127 55.8075 29.4717 56.2236 30.4207 55.8776L32.5247 55.1135C34.6047 54.3585 35.6777 52.0626 34.9207 49.9876L31.9847 41.9365C31.8917 41.9523 31.7983 41.966 31.7049 41.9797Z" fill="black"/>
</svg>
