<svg width="90" height="61" viewBox="0 0 90 61" fill="none" xmlns="http://www.w3.org/2000/svg">
<path fill-rule="evenodd" clip-rule="evenodd" d="M80.7867 11.523C81.5057 11.284 82.2527 11.162 83.0047 11.162C86.8617 11.162 89.9997 14.304 89.9997 18.1649V44.0019C89.9997 49.5158 85.5137 54.0018 79.9997 54.0018H69.1588C67.6128 57.5288 64.0918 60.0018 59.9998 60.0018H48.9998C45.0808 60.0018 41.7479 57.4788 40.5159 53.9758C40.4608 53.9787 40.4059 53.9824 40.3511 53.9861C40.2346 53.994 40.1181 54.0018 39.9999 54.0018H29.1589C27.6129 57.5288 24.0919 60.0018 19.9999 60.0018H8.99997C4.03799 60.0018 0 55.9648 0 51.0018C0 46.3778 3.50599 42.5569 7.99997 42.0579V24.1649C7.99997 21.1459 9.92396 18.4779 12.787 17.5229L30.7869 11.523C31.5059 11.284 32.2529 11.162 33.0049 11.162C33.6003 11.162 34.9138 11.1788 36.3657 11.1974C38.9008 11.2299 41.8577 11.2678 42.1509 11.231C42.6049 8.93697 44.1629 6.99898 46.4008 6.10298L60.4008 0.504C61.2358 0.170001 62.1108 0 63.0028 0H73.0028C76.8607 0 80.0007 3.14099 80.0007 7.00298V10.541C80.0007 10.981 79.9467 11.409 79.8687 11.83L80.7867 11.523ZM66.0005 7.00192C66.0005 4.88192 63.8565 3.43188 61.8865 4.21188L47.8865 9.81186C46.7475 10.2719 46.0005 11.3719 46.0005 12.6019V30.0019H43.0005C40.2395 30.0019 38.0005 32.2419 38.0005 35.0019C38.0005 37.7619 40.2395 40.002 43.0005 40.002H44.0005C47.3145 40.002 50.0005 37.3119 50.0005 34.0019V18.9719L64.1145 13.3219C65.2535 12.8719 66.0005 11.7618 66.0005 10.5418V7.00192ZM35.9995 44.002V18.162C35.9995 16.112 33.9935 14.6719 32.0515 15.3119L14.0525 21.3119C12.8275 21.7219 12.0005 22.872 12.0005 24.162V46.002H9.00049C6.23949 46.002 4.00049 48.242 4.00049 51.002C4.00049 53.762 6.23949 56.002 9.00049 56.002H10.0005C13.3145 56.002 16.0005 53.312 16.0005 50.002V30.6719L31.9995 25.3319V40.002H28.9995C26.2395 40.002 24.0005 42.242 24.0005 45.002C24.0005 47.762 26.2395 50.002 28.9995 50.002H29.9995C33.3135 50.002 35.9995 47.312 35.9995 44.002ZM75.9996 44.002V18.162C75.9996 16.112 73.9936 14.6719 72.0516 15.3119L54.0515 21.3119C52.8265 21.7219 51.9995 22.872 51.9995 24.162V46.002H48.9995C46.2385 46.002 43.9995 48.242 43.9995 51.002C43.9995 53.762 46.2385 56.002 48.9995 56.002H49.9995C53.3135 56.002 55.9995 53.312 55.9995 50.002V30.6719L71.9995 25.3319V40.002H68.9995C66.2385 40.002 63.9995 42.242 63.9995 45.002C63.9995 47.762 66.2385 50.002 68.9995 50.002H69.9995C73.3136 50.002 75.9996 47.312 75.9996 44.002Z" fill="black"/>
</svg>
