<svg width="79" height="60" viewBox="0 0 79 60" fill="none" xmlns="http://www.w3.org/2000/svg">
<path fill-rule="evenodd" clip-rule="evenodd" d="M21.7097 0C21.5414 0 21.3747 0.00637534 21.2097 0.0188976C21.0447 0.00637534 20.8779 0 20.7097 0C17.1109 0 14.1935 2.91737 14.1935 6.51613C14.1935 6.81391 14.2135 7.10702 14.2522 7.3942C11.7408 8.56436 10 11.1112 10 14.0645V19.5161C10 21.7489 11.3916 23.6566 13.3548 24.4192V32L13.3316 32C12.0902 32 10.8683 32.1695 9.68177 32.5229C8.54783 32.8607 7.47387 33.3415 6.47052 33.9655L6.45181 33.9773C5.46322 34.5997 4.56873 35.3455 3.77064 36.2031L3.76921 36.2047C2.96956 37.0649 2.29235 38.0204 1.73654 39.0594C1.17801 40.095 0.754864 41.194 0.458481 42.3438C0.148629 43.5373 0 44.7619 0 46.0064C0 47.2525 0.149022 48.4787 0.459709 49.6736C0.756873 50.8166 1.1794 51.9102 1.73204 52.9449L1.74106 52.9617C2.2945 53.9861 2.96489 54.9307 3.7503 55.7876C3.76334 55.8018 3.77648 55.8159 3.78973 55.8299C4.58506 56.6728 5.47347 57.4067 6.45181 58.0227L6.47052 58.0344C7.47387 58.6585 8.54783 59.1393 9.68177 59.4771C10.8683 59.8305 12.0902 60 13.3316 60C13.4987 60 13.6653 59.9969 13.8316 59.9908C13.9979 59.9969 14.1646 60 14.3316 60C14.4987 60 14.6654 59.9969 14.8316 59.9908C14.9979 59.9969 15.1646 60 15.3316 60C15.4987 60 15.6653 59.9969 15.8316 59.9908C15.9979 59.9969 16.1646 60 16.3316 60C16.4987 60 16.6653 59.9969 16.8316 59.9908C16.9979 59.9969 17.1646 60 17.3316 60C17.4987 60 17.6653 59.9969 17.8316 59.9908C17.9979 59.9969 18.1646 60 18.3316 60C18.4987 60 18.6653 59.9969 18.8316 59.9908C18.9979 59.9969 19.1646 60 19.3316 60C19.4987 60 19.6653 59.9969 19.8316 59.9908C19.9979 59.9969 20.1646 60 20.3316 60C20.4987 60 20.6653 59.9969 20.8316 59.9908C20.9979 59.9969 21.1646 60 21.3316 60C21.4987 60 21.6653 59.9969 21.8316 59.9908C21.9979 59.9969 22.1646 60 22.3316 60C22.4987 60 22.6653 59.9969 22.8316 59.9908C22.9979 59.9969 23.1646 60 23.3316 60C24.3407 60 25.3369 59.888 26.3118 59.6563H53.1852L53.2224 59.6561L53.247 59.6558C53.8221 59.7477 54.4022 59.7991 54.9858 59.8085L55.0183 59.8089C55.2389 59.8107 55.4628 59.8081 55.6888 59.8001C55.7877 59.8041 55.8867 59.8069 55.9858 59.8085L56.0183 59.8089C56.2389 59.8107 56.4628 59.8081 56.6888 59.8001C56.7877 59.8041 56.8867 59.8069 56.9858 59.8085L57.0183 59.8089C57.2389 59.8107 57.4628 59.8081 57.6888 59.8001C57.7877 59.8041 57.8867 59.8069 57.9858 59.8085L58.0183 59.8089C58.2389 59.8107 58.4627 59.8081 58.6888 59.8001C58.7877 59.8041 58.8867 59.8069 58.9858 59.8085L59.0183 59.8089C59.2389 59.8107 59.4628 59.8081 59.6888 59.8001C59.7877 59.8041 59.8867 59.8069 59.9858 59.8085L60.0183 59.8089C60.2389 59.8107 60.4628 59.8081 60.6888 59.8001C60.7877 59.8041 60.8867 59.8069 60.9858 59.8085L61.0183 59.8089C61.2389 59.8107 61.4628 59.8081 61.6888 59.8001C61.7877 59.8041 61.8867 59.8069 61.9858 59.8085L62.0183 59.8089C62.2389 59.8107 62.4628 59.8081 62.6888 59.8001C62.7877 59.8041 62.8867 59.8069 62.9858 59.8085L63.0183 59.8089C63.2389 59.8107 63.4628 59.8081 63.6888 59.8001C63.7877 59.8041 63.8867 59.8069 63.9858 59.8085L64.0183 59.8089C64.2389 59.8107 64.4627 59.8081 64.6887 59.8001C64.7876 59.8041 64.8867 59.8069 64.9858 59.8085L65.0183 59.8089C65.7231 59.8145 66.4611 59.7761 67.1964 59.6563H74.6365C76.8457 59.6563 78.6365 57.8654 78.6365 55.6563V45.3571C78.6365 44.2233 78.1648 43.1997 77.4069 42.4718C77.4119 42.3903 77.4144 42.3081 77.4144 42.2253V37.9223C77.4144 35.7132 75.6235 33.9223 73.4144 33.9223H71.9247C71.1859 33.4118 70.3921 32.9763 69.5441 32.6719C68.2669 32.2052 66.9156 32.0255 65.5723 32.0255C65.4087 32.0255 65.2455 32.0284 65.0827 32.0343C65.0229 32.0322 64.9631 32.0305 64.9034 32.0292V24.4192C66.8666 23.6566 68.2582 21.7489 68.2582 19.5161V14.0645C68.2582 11.1112 66.5175 8.56436 64.006 7.3942C64.0447 7.10702 64.0647 6.81391 64.0647 6.51613C64.0647 2.91737 61.1473 0 57.5485 0C57.3803 0 57.2136 0.00637549 57.0485 0.018898C56.8835 0.00637545 56.7168 0 56.5485 0C56.3803 0 56.2136 0.00637549 56.0485 0.018898C55.8835 0.00637522 55.7168 0 55.5485 0C55.3803 0 55.2136 0.00637549 55.0485 0.018898C54.8835 0.00637558 54.7168 0 54.5485 0C54.3803 0 54.2136 0.00637532 54.0485 0.0188976C53.8835 0.00637532 53.7168 0 53.5485 0C53.3803 0 53.2136 0.0063755 53.0485 0.0188981C52.8835 0.0063752 52.7168 0 52.5485 0C52.3803 0 52.2136 0.00637546 52.0485 0.018898C51.8835 0.00637516 51.7168 0 51.5485 0C51.3803 0 51.2136 0.00637534 51.0485 0.0188976C50.8835 0.00637534 50.7168 0 50.5485 0C50.3803 0 50.2136 0.00637525 50.0485 0.0188974C49.8835 0.00637529 49.7168 0 49.5485 0C49.3803 0 49.2136 0.00637535 49.0485 0.0188977C48.8835 0.00637538 48.7168 0 48.5485 0C48.3803 0 48.2136 0.00637534 48.0485 0.0188976C47.8835 0.00637534 47.7168 0 47.5485 0C46.9569 0 46.3837 0.0788484 45.8388 0.22661C45.294 0.0788484 44.7207 0 44.1291 0C43.9609 0 43.7941 0.00637549 43.6291 0.018898C43.4641 0.00637545 43.2973 0 43.1291 0C42.9609 0 42.7941 0.00637549 42.6291 0.018898C42.4641 0.00637522 42.2973 0 42.1291 0C41.9609 0 41.7941 0.00637549 41.6291 0.018898C41.4641 0.00637558 41.2973 0 41.1291 0C40.9609 0 40.7941 0.00637532 40.6291 0.0188976C40.4641 0.00637532 40.2973 0 40.1291 0C39.9609 0 39.7941 0.0063755 39.6291 0.0188981C39.4641 0.0063752 39.2973 0 39.1291 0C38.9609 0 38.7941 0.00637546 38.6291 0.018898C38.4641 0.00637516 38.2973 0 38.1291 0C37.9609 0 37.7941 0.00637533 37.6291 0.0188976C37.4641 0.00637533 37.2973 0 37.1291 0C36.9609 0 36.7941 0.00637526 36.6291 0.0188975C36.4641 0.0063753 36.2973 0 36.1291 0C35.9609 0 35.7941 0.00637535 35.6291 0.0188977C35.4641 0.00637538 35.2973 0 35.1291 0C34.9609 0 34.7941 0.00637534 34.6291 0.0188976C34.4641 0.00637534 34.2973 0 34.1291 0C33.5375 0 32.9643 0.0788485 32.4194 0.22661C31.8745 0.0788485 31.3013 0 30.7097 0C30.5414 0 30.3747 0.00637549 30.2097 0.018898C30.0446 0.00637545 29.8779 0 29.7097 0C29.5414 0 29.3747 0.00637534 29.2097 0.0188976C29.0447 0.00637534 28.8779 0 28.7097 0C28.5414 0 28.3747 0.00637548 28.2097 0.018898C28.0446 0.00637558 27.8779 0 27.7097 0C27.5414 0 27.3747 0.00637532 27.2097 0.0188975C27.0447 0.00637532 26.8779 0 26.7097 0C26.5414 0 26.3747 0.00637534 26.2097 0.0188976C26.0447 0.00637534 25.8779 0 25.7097 0C25.5414 0 25.3747 0.0063753 25.2097 0.0188975C25.0447 0.00637531 24.8779 0 24.7097 0C24.5414 0 24.3747 0.00637535 24.2097 0.0188976C24.0447 0.00637535 23.8779 0 23.7097 0C23.5414 0 23.3747 0.00637526 23.2097 0.0188975C23.0446 0.00637529 22.8779 0 22.7097 0C22.5414 0 22.3747 0.00637534 22.2097 0.0188977C22.0447 0.00637537 21.8779 0 21.7097 0ZM24.0645 10.7097C24.1185 10.7097 24.1721 10.711 24.2255 10.7135C23.7102 11.7184 23.4194 12.8575 23.4194 14.0645V19.5161C23.4194 20.4314 23.6533 21.2921 24.0645 22.0416L24.0645 32.0968C24.0645 32.2615 24.0329 32.4189 23.9753 32.5631C23.471 32.7321 23.0115 32.999 22.6194 33.341C22.0133 33.2507 21.5484 32.728 21.5484 32.0968V24.129C21.5484 23.6658 21.1729 23.2903 20.7097 23.2903C20.2465 23.2903 19.871 23.6658 19.871 24.129V32.0968C19.871 32.661 19.4995 33.1386 18.9877 33.2981C18.5065 33.0646 18.0109 32.8616 17.5024 32.6885C17.4082 32.5121 17.3548 32.3107 17.3548 32.0968L17.3548 13.2258C16.8916 13.2258 16.5161 13.6013 16.5161 14.0645V19.5161C16.5161 20.2109 15.9529 20.7742 15.2581 20.7742C14.5633 20.7742 14 20.2109 14 19.5161V14.0645C14 12.2117 15.502 10.7097 17.3548 10.7097H24.0645ZM50.3991 33.1043C50.7054 32.8748 50.9036 32.5089 50.9036 32.0968V13.2258C51.3668 13.2258 51.7423 13.6013 51.7423 14.0645V19.5161C51.7423 20.2109 52.3055 20.7742 53.0004 20.7742C53.6952 20.7742 54.2584 20.2109 54.2584 19.5161V14.0645C54.2584 12.2117 52.7564 10.7097 50.9036 10.7097H44.1939C44.1399 10.7097 44.0863 10.711 44.033 10.7135C44.5482 11.7184 44.839 12.8575 44.839 14.0645V19.5161C44.839 20.4314 44.6051 21.2921 44.1939 22.0416V32.0968C44.1939 32.1858 44.2031 32.2727 44.2207 32.3565H44.7511C45.3851 32.3565 45.9846 32.5039 46.5172 32.7664C46.6393 32.5725 46.71 32.3429 46.71 32.0968V24.129C46.71 23.6658 47.0855 23.2903 47.5487 23.2903C48.0119 23.2903 48.3874 23.6658 48.3874 24.129V32.0968C48.3874 32.7916 48.9507 33.3548 49.6455 33.3548C49.7395 33.3548 49.8311 33.3445 49.9192 33.325C50.0777 33.2482 50.2377 33.1746 50.3991 33.1043ZM37.4571 32.3565C37.4747 32.2727 37.4839 32.1858 37.4839 32.0968L37.484 13.2258C37.9472 13.2258 38.3227 13.6013 38.3227 14.0645V19.5161C38.3227 20.2109 38.8859 20.7742 39.5807 20.7742C40.2755 20.7742 40.8388 20.2109 40.8388 19.5161L40.8388 14.0645C40.8388 12.2117 39.3368 10.7097 37.4839 10.7097H30.7743C28.9214 10.7097 27.4194 12.2117 27.4194 14.0645V19.5161C27.4194 20.2109 27.9827 20.7742 28.6775 20.7742C29.3723 20.7742 29.9356 20.2109 29.9356 19.5161V14.0645C29.9356 13.6013 30.3111 13.2258 30.7743 13.2258L30.7743 32.0968C30.7743 32.1858 30.7835 32.2727 30.8011 32.3565H31.0783C31.7724 32.3565 32.442 32.5364 33.0291 32.8644C33.193 32.652 33.2904 32.3858 33.2904 32.0968V24.129C33.2904 23.6658 33.6659 23.2903 34.1291 23.2903C34.5923 23.2903 34.9678 23.6658 34.9678 24.129V32.0968C34.9678 32.4297 35.0972 32.7325 35.3083 32.9575C35.9208 32.5765 36.6438 32.3565 37.4182 32.3565H37.4571ZM20.7097 4C22.0993 4 23.2258 5.12651 23.2258 6.51613C23.2258 7.90575 22.0993 9.03226 20.7097 9.03226C19.3201 9.03226 18.1935 7.90575 18.1935 6.51613C18.1935 5.12651 19.3201 4 20.7097 4ZM36.6452 6.51613C36.6452 5.12651 35.5187 4 34.1291 4C32.7395 4 31.613 5.12651 31.613 6.51613C31.613 7.90575 32.7395 9.03226 34.1291 9.03226C35.5187 9.03226 36.6452 7.90575 36.6452 6.51613ZM50.0649 6.51613C50.0649 5.12651 48.9384 4 47.5487 4C46.1591 4 45.0326 5.12651 45.0326 6.51613C45.0326 7.90575 46.1591 9.03226 47.5487 9.03226C48.9384 9.03226 50.0649 7.90575 50.0649 6.51613ZM10.8237 55.6435C11.6215 55.8812 12.4575 56 13.3316 56C14.2058 56 15.0418 55.8812 15.8396 55.6435C16.6459 55.4059 17.3927 55.0707 18.0802 54.6378C18.7762 54.205 19.4042 53.6872 19.9644 53.0847C20.533 52.4736 21.0168 51.7989 21.4157 51.0605C21.823 50.3136 22.1371 49.5158 22.3577 48.6671C22.5784 47.8099 22.6887 46.923 22.6887 46.0064C22.6887 45.0813 22.5784 44.1944 22.3577 43.3456C22.1371 42.4884 21.823 41.6906 21.4157 40.9523C21.0168 40.2054 20.533 39.5307 19.9644 38.9281C19.4042 38.317 18.7762 37.795 18.0802 37.3622C17.3927 36.9293 16.6459 36.5941 15.8396 36.3565C15.0418 36.1188 14.2058 36 13.3316 36C12.4575 36 11.6215 36.1188 10.8237 36.3565C10.0259 36.5941 9.27901 36.9293 8.58307 37.3622C7.89561 37.795 7.26756 38.317 6.69892 38.9281C6.13877 39.5307 5.65924 40.2054 5.26034 40.9523C4.86145 41.6906 4.55167 42.4884 4.331 43.3456C4.11033 44.1944 4 45.0813 4 46.0064C4 46.9315 4.11033 47.8184 4.331 48.6671C4.55167 49.5158 4.86145 50.3136 5.26034 51.0605C5.65924 51.7989 6.13877 52.4736 6.69892 53.0847C7.26756 53.6872 7.89561 54.205 8.58307 54.6378C9.27901 55.0707 10.0259 55.4059 10.8237 55.6435ZM15.3558 51.5315C14.7447 51.8455 14.07 52.0025 13.3316 52.0025C12.6017 52.0025 11.9313 51.8455 11.3202 51.5315C10.7091 51.209 10.1829 50.7761 9.74157 50.233C9.30023 49.6813 8.95226 49.0448 8.69765 48.3234C8.45152 47.5935 8.32845 46.8211 8.32845 46.0064C8.32845 45.1831 8.45152 44.4065 8.69765 43.6766C8.95226 42.9467 9.30023 42.3102 9.74157 41.767C10.1829 41.2154 10.7091 40.7825 11.3202 40.4685C11.9313 40.146 12.6017 39.9847 13.3316 39.9847C14.0615 39.9847 14.732 40.146 15.3431 40.4685C15.9542 40.7825 16.4804 41.2154 16.9217 41.767C17.3715 42.3102 17.7195 42.9467 17.9656 43.6766C18.2118 44.4065 18.3348 45.1831 18.3348 46.0064C18.3348 46.8211 18.2118 47.5935 17.9656 48.3234C17.728 49.0448 17.3885 49.6813 16.9472 50.233C16.5058 50.7761 15.9754 51.209 15.3558 51.5315ZM44.7511 36.3565H37.4182V39.8574H39.0605V48.9981L31.0783 36.3565H25.2476V39.8574H26.8135V52.168H25.2222V55.6563H32.5423V52.168H30.9255V43.1801L38.9586 55.6563H43.1852V39.8574H44.7511V36.3565ZM60.83 55.6563V52.3463C60.3038 53.2714 59.7904 53.9504 59.2896 54.3832C58.7889 54.816 58.2202 55.164 57.5837 55.4271C56.9557 55.6902 56.1112 55.8175 55.0503 55.809C54.5241 55.8006 53.9979 55.7411 53.4717 55.6308C52.9455 55.512 52.4362 55.3507 51.944 55.147C51.4517 54.9349 50.968 54.6845 50.4927 54.3959C50.0259 54.0989 49.6015 53.7594 49.2196 53.3775C48.2775 52.4269 47.5434 51.3278 47.0172 50.0802C46.4995 48.8241 46.2406 47.4577 46.2406 45.9809C46.2406 45.0728 46.3509 44.1944 46.5716 43.3456C46.7923 42.4969 47.1021 41.7034 47.501 40.965C47.8998 40.2266 48.3794 39.5561 48.9395 38.9535C49.5082 38.3425 50.1362 37.8205 50.8237 37.3876C51.5196 36.9548 52.2665 36.6196 53.0643 36.3819C53.8621 36.1443 54.6981 36.0255 55.5722 36.0255C56.5737 36.0255 57.4437 36.1613 58.182 36.4328C58.9204 36.6959 59.714 37.1924 60.5627 37.9223H63.4144V42.2253H59.4806C59.0902 41.6227 58.721 41.1857 58.373 40.9141C58.0335 40.6425 57.6601 40.4176 57.2527 40.2393C56.8538 40.0611 56.2937 39.972 55.5722 39.972C54.8593 39.972 54.1973 40.1332 53.5863 40.4558C52.9752 40.7783 52.4447 41.2154 51.9949 41.767C51.5536 42.3102 51.2056 42.9552 50.951 43.7021C50.6964 44.4405 50.5691 45.2001 50.5691 45.9809C50.5691 46.7532 50.6836 47.4874 50.9128 48.1833C51.1419 48.8793 51.4899 49.5073 51.9567 50.0675C52.4235 50.6191 52.9667 51.0435 53.5863 51.3405C54.2058 51.6376 54.8678 51.7861 55.5722 51.7861C56.4719 51.7861 57.2569 51.523 57.9274 50.9968C58.5979 50.4706 59.0817 49.7534 59.3787 48.8453H55.6996V45.3571H64.6365V55.6563H60.83Z" fill="black"/>
</svg>
