<svg width="95" height="60" viewBox="0 0 95 60" fill="none" xmlns="http://www.w3.org/2000/svg">
<path fill-rule="evenodd" clip-rule="evenodd" d="M71.0366 16.0879C71.6826 16.0293 72.3311 16 72.98 16C78.8149 16 84.4106 18.3174 88.5361 22.4434C92.6621 26.5693 94.98 32.165 94.98 38C94.98 43.835 92.6621 49.4307 88.5361 53.5566C84.4106 57.6826 78.8149 60 72.98 60H62.98C58.1958 59.9941 53.5439 58.4297 49.729 55.542C45.9146 52.6553 43.1445 48.6025 41.8398 44H10.98C8.8584 44 6.82324 43.1572 5.32324 41.6572C3.82275 40.1562 2.97998 38.1221 2.97998 36V28C2.98779 27.7822 3.01123 27.5645 3.0498 27.3496C2.39404 26.625 1.88232 25.7939 1.53174 24.8994C1.17236 23.9834 0.982422 23.001 0.97998 22V18C0.97998 15.8779 1.82275 13.8438 3.32324 12.3428C4.82324 10.8428 6.8584 10 8.97998 10H16.2798V9.54004C16.2852 7.00977 17.2935 4.58496 19.0835 2.79688C20.8735 1.00781 23.2998 0.00292969 25.8301 0H44.1299C46.6602 0.00292969 49.0864 1.00781 50.8765 2.79688C52.6665 4.58496 53.6748 7.00977 53.6802 9.54004V10H60.98C62.8242 10 64.6118 10.6367 66.0405 11.8027C67.4692 12.9688 68.4512 14.5928 68.8198 16.4004C69.5537 16.2578 70.2935 16.1543 71.0366 16.0879ZM22.71 12V9.54004C22.71 8.71289 23.0386 7.91895 23.6235 7.33398C23.8594 7.09766 24.1294 6.90332 24.4214 6.75586C24.6553 6.6377 24.9033 6.54883 25.1597 6.49219C25.2749 6.4668 25.3916 6.44824 25.5098 6.43652C25.6157 6.42578 25.7222 6.41992 25.8296 6.41992H34.1699C34.9971 6.41992 35.791 6.74902 36.376 7.33398C36.4409 7.39941 36.5029 7.4668 36.5615 7.53711C36.6367 7.62695 36.7065 7.7207 36.7705 7.81738L36.8613 7.96289L36.9419 8.1084C36.9858 8.19434 37.0259 8.28223 37.062 8.37109C37.2109 8.73926 37.2896 9.13574 37.2896 9.54004V12H39.7197V9.54004C39.7197 8.81152 39.5762 8.09082 39.2974 7.41797C39.0181 6.74512 38.6089 6.13379 38.0938 5.61914C37.5781 5.10449 36.9663 4.69629 36.293 4.41895C36.0381 4.31348 35.7759 4.22754 35.5093 4.16211C35.0718 4.05371 34.6221 3.99902 34.1699 4H25.8296C24.3594 4 22.9492 4.58301 21.9087 5.62207C20.8682 6.66113 20.2822 8.06934 20.2798 9.54004V12H22.71ZM34.02 24.1504H25.98C25.397 24.1504 24.8721 24.4004 24.5063 24.7988C24.3408 24.9795 24.208 25.1904 24.1172 25.4229C24.0288 25.6484 23.98 25.8936 23.98 26.1504V28.1504C23.98 29.2549 24.8755 30.1504 25.98 30.1504H34.02C34.5161 30.1504 34.9702 29.9697 35.3198 29.6709C35.7485 29.3037 36.02 28.7588 36.02 28.1504V26.1504C36.02 25.5713 35.7734 25.0498 35.3799 24.6846C35.0234 24.3525 34.5454 24.1504 34.02 24.1504ZM44.8301 28C43.1362 31.0605 42.248 34.502 42.25 38C42.25 38.6699 42.29 39.3398 42.3501 40H10.98C10.4487 40 9.92822 39.8945 9.44678 39.6943C8.9668 39.4951 8.52588 39.2021 8.15137 38.8281C7.40137 38.0781 6.97998 37.0605 6.97998 36V28H21.98V28.1504C21.98 29.2109 22.4014 30.2285 23.1514 30.9785C23.4434 31.2705 23.7759 31.5127 24.1362 31.7002C24.2554 31.7627 24.3779 31.8184 24.5024 31.8682C24.6719 31.9355 24.8462 31.9912 25.0239 32.0352C25.3345 32.1113 25.6553 32.1504 25.98 32.1504H34.0298C35.0908 32.1504 36.1084 31.7285 36.8584 30.9785C37.0518 30.7852 37.2231 30.5742 37.3711 30.3496C37.4258 30.2666 37.4771 30.1816 37.5254 30.0947C37.5713 30.0127 37.6143 29.9287 37.6543 29.8438C37.8994 29.3184 38.0298 28.7412 38.0298 28.1504V28H44.8301ZM54.98 18.8604V18C54.98 16.9395 54.5586 15.9219 53.8086 15.1719C53.0581 14.4219 52.041 14 50.98 14H8.97998C7.91895 14 6.90186 14.4219 6.15137 15.1719C5.8042 15.5195 5.52734 15.9248 5.33008 16.3643C5.10156 16.874 4.97998 17.4307 4.97998 18V22C4.97998 22.4043 5.04102 22.8018 5.1582 23.1807C5.34863 23.7969 5.68701 24.3643 6.15137 24.8281C6.38135 25.0576 6.63623 25.2568 6.90967 25.4219C7.16553 25.5762 7.4375 25.7021 7.72021 25.7959C8.12305 25.9297 8.54785 26 8.97998 26H21.98C22 25.4756 22.1226 24.9648 22.3359 24.4951C22.543 24.0391 22.8359 23.6221 23.2031 23.2676C23.9492 22.5498 24.9448 22.1494 25.98 22.1504H33.98C35.0151 22.1494 36.0107 22.5498 36.7568 23.2676C37.5024 23.9863 37.9409 24.9658 37.98 26H46.0698C48.3198 22.8389 51.4048 20.3672 54.98 18.8604ZM52.9795 23.0332C55.9399 21.0557 59.4199 20 62.98 20C67.7539 20 72.332 21.8965 75.708 25.2725C79.0835 28.6475 80.98 33.2266 80.98 38C80.98 41.5605 79.9243 45.04 77.9463 48C75.9688 50.96 73.1572 53.2676 69.8682 54.6299C66.5791 55.9922 62.96 56.3486 59.4683 55.6543C55.9766 54.96 52.7695 53.2451 50.252 50.7275C47.7349 48.2109 46.0205 45.0029 45.3257 41.5117C44.6313 38.0195 44.9878 34.4004 46.3501 31.1113C47.7124 27.8223 50.0195 25.0117 52.9795 23.0332ZM49.2681 39.1777C49.3975 39.0488 49.4702 38.873 49.4702 38.6904V37.3096C49.4702 37.127 49.3975 36.9512 49.2681 36.8223C49.1387 36.6924 48.9629 36.6201 48.7798 36.6201H48.0898L48.021 36.623L47.9565 36.6318L47.9194 36.6396C47.8867 36.6475 47.8545 36.6572 47.8228 36.6699C47.7378 36.7041 47.6606 36.7539 47.5957 36.8184C47.5303 36.8828 47.4785 36.959 47.4434 37.0439C47.4082 37.1279 47.3901 37.2188 47.3901 37.3096V38.6904C47.3901 38.7812 47.4082 38.8721 47.4434 38.9561C47.4785 39.041 47.5303 39.1172 47.5957 39.1816C47.6606 39.2461 47.7378 39.2959 47.8228 39.3301C47.8774 39.3525 47.9346 39.3672 47.9932 39.374C48.0254 39.3779 48.0576 39.3799 48.0898 39.3799H48.7798C48.9629 39.3799 49.1387 39.3076 49.2681 39.1777ZM61.6035 22.9727C61.5938 23.0215 61.5894 23.0703 61.5898 23.1201V23.8096C61.5898 23.9932 61.6626 24.1689 61.792 24.2979C61.8462 24.3525 61.9087 24.3965 61.9766 24.4297C62.0703 24.4756 62.1738 24.5 62.2798 24.5H63.6602C63.8428 24.5 64.0186 24.4277 64.1479 24.2979C64.2773 24.1689 64.3501 23.9932 64.3501 23.8096V23.1201C64.3511 23.0283 64.3345 22.9375 64.3003 22.8525C64.2661 22.7676 64.2158 22.6904 64.1514 22.626C64.1313 22.6055 64.1104 22.5869 64.0879 22.5693L64.0376 22.5322C64.0166 22.5186 63.9946 22.5059 63.9722 22.4951L63.9263 22.4736C63.8418 22.4385 63.7515 22.4199 63.6602 22.4199H62.2798C62.1885 22.4199 62.0981 22.4385 62.0137 22.4736L61.9521 22.5029L61.9092 22.5283L61.8916 22.54C61.8545 22.5654 61.8198 22.5938 61.7886 22.626C61.7241 22.6904 61.6738 22.7676 61.6396 22.8525C61.624 22.8916 61.6118 22.9316 61.6035 22.9727ZM53.4199 49.4902L53.9102 49C53.979 48.9365 54.0342 48.8594 54.0718 48.7734C54.1099 48.6865 54.1289 48.5938 54.1289 48.5C54.1289 48.4062 54.1099 48.3135 54.0718 48.2266C54.0342 48.1406 53.979 48.0635 53.9102 48L52.9102 47C52.8911 46.9795 52.8711 46.9609 52.8501 46.9434C52.8267 46.9229 52.8022 46.9043 52.7764 46.8877C52.7466 46.8691 52.7153 46.8525 52.6831 46.8379C52.5967 46.8008 52.5039 46.7812 52.4102 46.7812C52.3613 46.7812 52.313 46.7861 52.2656 46.7969L52.1973 46.8145L52.1372 46.8379C52.0962 46.8555 52.0576 46.877 52.0215 46.9023C51.981 46.9307 51.9438 46.9639 51.9102 47L51.4199 47.4902C51.3521 47.5547 51.2983 47.6318 51.2612 47.7178C51.2476 47.75 51.2363 47.7832 51.228 47.8164C51.2202 47.8467 51.2144 47.877 51.2104 47.9082C51.207 47.9355 51.2056 47.9629 51.2056 47.9902C51.2056 48.084 51.2246 48.1758 51.2612 48.2617C51.2983 48.3477 51.3521 48.4258 51.4199 48.4902L52.4199 49.4902C52.4844 49.5576 52.562 49.6113 52.6479 49.6484C52.7339 49.6855 52.8267 49.7041 52.9199 49.7041C53.0137 49.7041 53.106 49.6855 53.1919 49.6484C53.2314 49.6318 53.269 49.6113 53.3042 49.5879C53.3462 49.5596 53.3848 49.5264 53.4199 49.4902ZM52.9102 28.9502L53.9102 27.9502V28C53.9443 27.9717 53.9756 27.9404 54.0039 27.9062C54.0391 27.8633 54.0688 27.8164 54.0928 27.7656C54.1182 27.7119 54.1362 27.6543 54.147 27.5957C54.1543 27.5557 54.1577 27.5156 54.1577 27.4746C54.1577 27.375 54.1357 27.2754 54.0928 27.1846C54.0498 27.0938 53.9873 27.0137 53.9102 26.9502L53.4199 26.46C53.3555 26.3926 53.2778 26.3379 53.1919 26.3018C53.106 26.2646 53.0137 26.2451 52.9199 26.2451C52.8267 26.2451 52.7339 26.2646 52.6479 26.3018C52.562 26.3379 52.4844 26.3926 52.4199 26.46L51.4199 27.46C51.3511 27.5234 51.2959 27.6006 51.2578 27.6875C51.2202 27.7734 51.2007 27.8662 51.2007 27.96C51.2007 28.0537 51.2202 28.1465 51.2578 28.2334C51.2959 28.3193 51.3511 28.3965 51.4199 28.46L51.9102 28.9502C51.9736 29.0195 52.0508 29.0742 52.1372 29.1123L52.1982 29.1357L52.2407 29.1475C52.2959 29.1621 52.3525 29.1689 52.4102 29.1689C52.5039 29.1689 52.5967 29.1494 52.6831 29.1123C52.769 29.0742 52.8462 29.0195 52.9102 28.9502ZM64.3003 53.1475C64.3345 53.0625 64.3511 52.9717 64.3501 52.8799V52.1904C64.3501 52.0068 64.2773 51.8311 64.1479 51.7021C64.0186 51.5723 63.8428 51.5 63.6602 51.5H62.2798C62.2124 51.5 62.146 51.5098 62.0825 51.5283C61.9736 51.5605 61.8735 51.6201 61.792 51.7021C61.6626 51.8311 61.5898 52.0068 61.5898 52.1904V52.8799C61.5894 52.9238 61.5928 52.9668 61.6001 53.0098C61.6084 53.0566 61.6216 53.1025 61.6396 53.1475C61.6738 53.2324 61.7241 53.3096 61.7886 53.374C61.8525 53.4395 61.9292 53.4912 62.0137 53.5264C62.0981 53.5615 62.1885 53.5801 62.2798 53.5801H63.6602C63.7515 53.5801 63.8418 53.5615 63.9263 53.5264C64.0107 53.4912 64.0874 53.4395 64.1514 53.374C64.2158 53.3096 64.2661 53.2324 64.3003 53.1475ZM70.7051 40.5791C70.7876 40.5312 70.8589 40.4678 70.915 40.3936C70.9673 40.3242 71.0063 40.2451 71.0298 40.1602L71.0474 40.0947C71.0552 40.0566 71.0601 40.0176 71.0615 39.9785C71.063 39.9453 71.062 39.9121 71.0586 39.8789C71.0483 39.7852 71.019 39.6934 70.9722 39.6113C70.9253 39.5283 70.8618 39.4561 70.7856 39.3994C70.7095 39.3428 70.6226 39.3018 70.5298 39.2803L64.3301 37.6201C64.27 37.3857 64.1494 37.1719 63.98 37C63.894 36.9258 63.8003 36.8623 63.7002 36.8096V27.6201C63.6797 27.4502 63.5977 27.293 63.4697 27.1797C63.3413 27.0664 63.1763 27.0039 63.0049 27.0039C62.834 27.0039 62.6685 27.0664 62.5405 27.1797C62.4126 27.293 62.3306 27.4502 62.3101 27.6201V36.8496C62.2437 36.8877 62.1812 36.9316 62.1235 36.9814C62.0908 37.0098 62.0596 37.0391 62.0298 37.0703L60.52 36.6602C60.4448 36.6396 60.3677 36.6328 60.2915 36.6387C60.1875 36.6455 60.0854 36.6758 59.9937 36.7285C59.9219 36.7705 59.8589 36.8232 59.8071 36.8857C59.7437 36.9619 59.6963 37.0527 59.6699 37.1504C59.6533 37.2109 59.6455 37.2725 59.646 37.334C59.6465 37.3848 59.6528 37.4355 59.6641 37.4844C59.6792 37.5518 59.7041 37.6162 59.7388 37.6768C59.8311 37.8359 59.9824 37.9521 60.1602 38L61.6699 38.3701C61.7285 38.6016 61.8496 38.8125 62.02 38.9805C62.1016 39.0674 62.1963 39.1416 62.2998 39.2002V41.4902C62.3203 41.6602 62.4023 41.8164 62.5303 41.9297C62.6587 42.0439 62.8237 42.1064 62.9951 42.1064C63.0732 42.1064 63.1504 42.0938 63.2231 42.0684C63.3096 42.0381 63.3901 41.9912 63.4595 41.9297C63.5874 41.8164 63.6694 41.6602 63.6899 41.4902V39.2197C63.7954 39.1592 63.8926 39.085 63.98 39L70.1802 40.6504C70.2539 40.6699 70.3296 40.6768 70.4043 40.6719C70.5093 40.6641 70.6123 40.6328 70.7051 40.5791ZM73.4702 49.5303L74.4702 48.5303C74.5474 48.4688 74.6108 48.3916 74.6562 48.3037C74.7012 48.2168 74.7271 48.1201 74.7319 48.0215C74.7368 47.9229 74.7202 47.8242 74.6836 47.7324C74.6597 47.6719 74.6274 47.6162 74.5879 47.5654C74.5669 47.5391 74.5444 47.5137 74.52 47.4902L74.0298 47C73.9663 46.9307 73.8892 46.876 73.8027 46.8379C73.772 46.8242 73.7402 46.8135 73.7075 46.8047C73.6499 46.7891 73.5903 46.7812 73.5298 46.7812C73.436 46.7812 73.3433 46.8008 73.2568 46.8379C73.1709 46.876 73.0938 46.9307 73.0298 47L72.0298 48C71.9609 48.0635 71.9058 48.1406 71.8682 48.2266C71.8306 48.3135 71.811 48.4062 71.811 48.5C71.811 48.5938 71.8306 48.6865 71.8682 48.7734C71.9058 48.8594 71.9609 48.9365 72.0298 49L72.4702 49.5303C72.5337 49.5986 72.6108 49.6543 72.6973 49.6924C72.7666 49.7227 72.8403 49.7412 72.9155 49.7471L72.9702 49.749C73.0181 49.749 73.0659 49.7441 73.1128 49.7344C73.1572 49.7246 73.2007 49.7109 73.2432 49.6924C73.3291 49.6543 73.4062 49.5986 73.4702 49.5303ZM73.98 28.9404L74.4702 28.4502C74.5107 28.4131 74.5469 28.3701 74.5771 28.3242C74.5981 28.292 74.6162 28.2578 74.6318 28.2227C74.6694 28.1367 74.689 28.0439 74.689 27.9502C74.689 27.8564 74.6694 27.7627 74.6318 27.6768C74.5942 27.5908 74.5391 27.5137 74.4702 27.4502L73.4702 26.4502C73.4355 26.4121 73.397 26.3789 73.355 26.3506C73.3325 26.335 73.3086 26.3203 73.2842 26.3076L73.2432 26.2881C73.1567 26.25 73.064 26.2305 72.9702 26.2305C72.876 26.2305 72.7832 26.25 72.6973 26.2881C72.6338 26.3164 72.5757 26.3525 72.5244 26.3975L72.4702 26.4502L71.98 26.9404C71.9111 27.0039 71.856 27.0811 71.8179 27.167C71.8018 27.2041 71.7891 27.2432 71.7793 27.2822C71.7671 27.334 71.7607 27.3867 71.7607 27.4404C71.7607 27.5342 71.7803 27.627 71.8179 27.7129C71.856 27.7988 71.9111 27.876 71.98 27.9404L72.98 28.9404C73.0166 28.9795 73.0576 29.0146 73.1021 29.0439L73.1528 29.0752L73.207 29.1016C73.293 29.1396 73.3862 29.1592 73.48 29.1592C73.5737 29.1592 73.667 29.1396 73.7529 29.1016C73.8389 29.0645 73.9165 29.0088 73.98 28.9404ZM77.1602 39.3799H77.8501C77.9414 39.3809 78.0322 39.3643 78.1172 39.3301C78.2021 39.2959 78.2793 39.2461 78.3442 39.1816C78.4097 39.1172 78.4614 39.041 78.4966 38.9561C78.5317 38.8721 78.5498 38.7812 78.5498 38.6904V37.3096C78.5498 37.2676 78.5459 37.2256 78.5381 37.1836C78.5293 37.1357 78.5156 37.0889 78.4966 37.0439C78.4614 36.959 78.4097 36.8828 78.3442 36.8184C78.3022 36.7764 78.2544 36.7412 78.2031 36.7109L78.1616 36.6895L78.1172 36.6699C78.0322 36.6357 77.9414 36.6191 77.8501 36.6201H77.1602C76.9771 36.6201 76.8013 36.6924 76.6719 36.8223C76.5933 36.9004 76.5356 36.9961 76.5029 37.0996C76.4883 37.1455 76.4785 37.1924 76.4736 37.2402L76.4702 37.3096V38.6904C76.4702 38.873 76.5425 39.0488 76.6719 39.1777C76.7388 39.2451 76.8179 39.2969 76.9038 39.3311C76.9844 39.3633 77.0713 39.3799 77.1602 39.3799ZM62.7729 37.3418C62.668 37.375 62.5713 37.4326 62.4922 37.5117C62.3628 37.6416 62.29 37.8164 62.29 38C62.2983 38.0674 62.3159 38.1328 62.3423 38.1943C62.3828 38.2871 62.4434 38.3711 62.5205 38.4395C62.5933 38.5049 62.6782 38.5527 62.7695 38.582C62.8389 38.6045 62.9111 38.6162 62.9849 38.6162C63.1562 38.6162 63.3213 38.5537 63.4497 38.4395C63.5776 38.3262 63.6597 38.1699 63.6802 38C63.6802 37.9082 63.6621 37.8174 63.6265 37.7334C63.6084 37.6904 63.5864 37.6494 63.5605 37.6104C63.5352 37.5732 63.5063 37.5391 63.4746 37.5078C63.4092 37.4443 63.332 37.3936 63.2471 37.3594C63.1621 37.3252 63.0713 37.3086 62.98 37.3096C62.9092 37.3096 62.8394 37.3203 62.7729 37.3418Z" fill="black"/>
</svg>
