<svg width="74" height="60" viewBox="0 0 74 60" fill="none" xmlns="http://www.w3.org/2000/svg">
<path fill-rule="evenodd" clip-rule="evenodd" d="M43.9999 15.9999H65.9998C70.4108 15.9999 73.9997 19.5889 73.9997 23.9999V55.9998C73.9997 58.2088 72.2088 59.9998 69.9998 59.9998H3.99999C1.79099 59.9998 0 58.2088 0 55.9998V7.99997C0 3.58899 3.58899 0 7.99997 0H35.9999C40.4109 0 43.9999 3.58899 43.9999 7.99997V15.9999ZM59.9995 24C59.9995 21.791 58.2085 20 55.9995 20H37.9995C35.7905 20 33.9995 21.791 33.9995 24V55.999H43.9995V50.999C43.9995 49.343 45.3425 47.999 46.9995 47.999C48.6565 47.999 49.9995 49.343 49.9995 50.999V55.999H59.9995V24ZM55.9995 27.999V29.999C55.9995 31.103 55.1035 31.999 53.9995 31.999H51.9995C50.8955 31.999 49.9995 31.103 49.9995 29.999V27.999C49.9995 26.895 50.8955 25.999 51.9995 25.999H53.9995C55.1035 25.999 55.9995 26.895 55.9995 27.999ZM43.9995 27.999V29.999C43.9995 31.103 43.1035 31.999 41.9995 31.999H39.9995C38.8955 31.999 37.9995 31.103 37.9995 29.999V27.999C37.9995 26.895 38.8955 25.999 39.9995 25.999H41.9995C43.1035 25.999 43.9995 26.895 43.9995 27.999ZM55.9995 37.999V39.999C55.9995 41.104 55.1035 41.999 53.9995 41.999H51.9995C50.8955 41.999 49.9995 41.104 49.9995 39.999V37.999C49.9995 36.895 50.8955 35.999 51.9995 35.999H53.9995C55.1035 35.999 55.9995 36.895 55.9995 37.999ZM43.9995 37.999V39.999C43.9995 41.104 43.1035 41.999 41.9995 41.999H39.9995C38.8955 41.999 37.9995 41.104 37.9995 39.999V37.999C37.9995 36.895 38.8955 35.999 39.9995 35.999H41.9995C43.1035 35.999 43.9995 36.895 43.9995 37.999ZM29.9995 8C29.9995 5.791 28.2085 4 25.9995 4H7.99951C5.79051 4 3.99951 5.791 3.99951 8V55.999H13.9995V48.999C13.9995 47.342 15.3425 45.999 16.9995 45.999C18.6565 45.999 19.9995 47.342 19.9995 48.999V55.999H29.9995V8ZM25.9995 22V24C25.9995 25.104 25.1035 25.999 23.9995 25.999H21.9995C20.8955 25.999 19.9995 25.104 19.9995 24V22C19.9995 20.896 20.8955 20 21.9995 20H23.9995C25.1035 20 25.9995 20.896 25.9995 22ZM13.9995 31.999V33.999C13.9995 35.104 13.1035 35.999 11.9995 35.999H9.99952C8.89552 35.999 7.99951 35.104 7.99951 33.999V31.999C7.99951 30.895 8.89552 29.999 9.99952 29.999H11.9995C13.1035 29.999 13.9995 30.895 13.9995 31.999ZM13.9995 12V14C13.9995 15.105 13.1035 16 11.9995 16H9.99952C8.89552 16 7.99951 15.105 7.99951 14V12C7.99951 10.896 8.89552 10 9.99952 10H11.9995C13.1035 10 13.9995 10.896 13.9995 12ZM13.9995 22V24C13.9995 25.104 13.1035 25.999 11.9995 25.999H9.99952C8.89552 25.999 7.99951 25.104 7.99951 24V22C7.99951 20.896 8.89552 20 9.99952 20H11.9995C13.1035 20 13.9995 20.896 13.9995 22ZM25.9995 12V14C25.9995 15.105 25.1035 16 23.9995 16H21.9995C20.8955 16 19.9995 15.105 19.9995 14V12C19.9995 10.896 20.8955 10 21.9995 10H23.9995C25.1035 10 25.9995 10.896 25.9995 12ZM25.9995 31.999V33.999C25.9995 35.104 25.1035 35.999 23.9995 35.999H21.9995C20.8955 35.999 19.9995 35.104 19.9995 33.999V31.999C19.9995 30.895 20.8955 29.999 21.9995 29.999H23.9995C25.1035 29.999 25.9995 30.895 25.9995 31.999Z" fill="black"/>
</svg>
