<svg width="95" height="60" viewBox="0 0 95 60" fill="none" xmlns="http://www.w3.org/2000/svg">
<path fill-rule="evenodd" clip-rule="evenodd" d="M2.28694 25.7164C2.65912 26.5 3.26599 27.1239 4.00018 27.5203V44.0002C4.00018 46.2094 5.79104 48.0002 8.00018 48.0002H46.0002V50.0803C46.0002 50.2435 46.0102 50.4064 46.0301 50.5683C46.2768 52.5757 47.1643 54.4491 48.5574 55.9111C48.9195 56.319 49.5072 56.9326 49.951 57.392C50.205 57.6549 50.441 57.8972 50.6132 58.0735L50.8978 58.364C51.0099 58.4781 51.1288 58.5853 51.2537 58.6851C51.7329 59.0679 52.2712 59.3782 52.8514 59.6006C53.2544 59.7555 53.6755 59.8675 54.1083 59.9325L54.1119 59.933C54.3951 59.9753 54.6922 59.9993 55.0002 59.9993C55.1679 59.9993 55.335 59.9922 55.5009 59.9783C55.6637 59.992 55.8303 59.9993 56.0002 59.9993C56.1679 59.9993 56.335 59.9922 56.501 59.9783C56.6637 59.992 56.8303 59.9993 57.0002 59.9993C57.1679 59.9993 57.335 59.9922 57.501 59.9783C57.6637 59.992 57.8303 59.9993 58.0002 59.9993C58.1679 59.9993 58.335 59.9922 58.501 59.9783C58.6637 59.992 58.8303 59.9993 59.0002 59.9993C59.1679 59.9993 59.335 59.9922 59.501 59.9783C59.6637 59.992 59.8303 59.9993 60.0002 59.9993C60.1679 59.9993 60.335 59.9922 60.5009 59.9783C60.6637 59.992 60.8303 59.9993 61.0002 59.9993C61.1679 59.9993 61.335 59.9922 61.5009 59.9783C61.6637 59.992 61.8303 59.9993 62.0002 59.9993C62.1679 59.9993 62.335 59.9922 62.5009 59.9783C62.6637 59.992 62.8303 59.9993 63.0002 59.9993C63.1679 59.9993 63.335 59.9922 63.5009 59.9783C63.6637 59.992 63.8303 59.9993 64.0002 59.9993C64.1679 59.9993 64.335 59.9922 64.5009 59.9783C64.6637 59.992 64.8303 59.9993 65.0002 59.9993C65.7712 59.9993 66.528 59.8506 67.2314 59.5686C67.7857 59.3469 68.2957 59.0459 68.749 58.6833C68.8178 58.6282 68.8848 58.5709 68.9499 58.5113L71.7106 55.9861C71.747 55.9838 71.7833 55.9811 71.8197 55.978C72.1519 56.0058 72.4864 56.0059 72.8197 55.978C73.1519 56.0058 73.4864 56.0059 73.8197 55.978C74.1519 56.0058 74.4864 56.0059 74.8197 55.978C75.5007 56.035 76.1913 55.9756 76.8612 55.7975C77.3219 55.6768 77.7712 55.5031 78.1987 55.2773C78.2074 55.2727 78.216 55.2681 78.2246 55.2635C78.2584 55.2453 78.2919 55.2267 78.3251 55.2075L90.9951 47.9175L91.0032 47.9128C91.3707 47.7002 91.7 47.4566 91.9913 47.1967C92.8881 46.3993 93.5198 45.3505 93.8081 44.192C93.8899 43.8747 93.9449 43.5612 93.9775 43.2554C93.9851 43.1842 93.9908 43.1127 93.9946 43.0412C94.0199 42.563 93.9869 42.0911 93.9029 41.636L93.9013 41.6275C93.7762 40.9581 93.5372 40.3108 93.1917 39.7155L93.1859 39.7055L85.1258 25.7224L84.2792 24.2586C83.7608 23.3518 83.009 22.5942 82.0957 22.0693L81.3236 21.6156C81.7666 20.4735 82.0002 19.2488 82.0002 18.0002V10.0002C82.0002 7.34836 80.9463 4.80463 79.0713 2.92963C78.3553 2.2136 77.5427 1.61838 76.6657 1.15541C75.2389 0.402174 73.6383 0.000244606 72.0002 0.000244606H48.0002C46.5059 0.000244606 45.0459 0.334779 43.7203 0.962561L43.0392 0.558973C42.2617 0.0982722 41.3671 -0.0775237 40.5002 0.0315817C40.1682 -0.010201 39.8321 -0.0102011 39.5002 0.0315811C39.1682 -0.0102001 38.8321 -0.0101999 38.5002 0.0315814C38.1682 -0.0102001 37.8321 -0.0102 37.5002 0.0315816C37.1682 -0.0102001 36.8321 -0.0102 36.5002 0.0315815C36.1682 -0.0102001 35.8321 -0.0102 35.5002 0.0315815C35.1682 -0.0102001 34.8321 -0.0102 34.5002 0.0315816C34.1682 -0.0102015 33.8321 -0.0102017 33.5002 0.0315809C33.1682 -0.0102011 32.8321 -0.0102009 32.5002 0.0315814C32.1682 -0.0102 31.8322 -0.0102007 31.5002 0.0315807C30.6332 -0.0775314 29.7385 0.0983025 28.961 0.559078L1.96097 16.5591C0.182333 17.6131 -0.499994 19.8489 0.387037 21.7164L2.28694 25.7164ZM39.2501 18.0002V10.0002C39.253 9.64282 39.2764 9.2854 39.3199 8.92993L31.0001 4.00024L4.00008 20.0002L5.89998 24.0002H8.00008V44.0002H14.0001V29.0002C14.0001 27.6741 14.5269 26.4026 15.4644 25.4651C16.4024 24.5266 17.6739 24.0002 19.0001 24.0002C20.3262 24.0002 21.5977 24.5266 22.5357 25.4651C23.4732 26.4026 24.0001 27.6741 24.0001 29.0002V44.0002H47.2501V26.72C45.0684 26.5276 43.0382 25.5266 41.5577 23.9133C40.0772 22.2991 39.254 20.1897 39.2501 18.0002ZM43.9376 35.4211C43.8922 35.5374 43.8233 35.6438 43.7335 35.7336C43.5631 35.9045 43.3316 36.0002 43.0899 36.0002H32.9102C32.6685 36.0002 32.4371 35.9045 32.2667 35.7336C32.1729 35.6399 32.1016 35.5276 32.0567 35.4055C32.0196 35.3049 32.0001 35.1985 32.0001 35.0901V32.9104C32.0001 32.6692 32.0958 32.4377 32.2667 32.2668C32.3775 32.1555 32.5137 32.0764 32.6622 32.0344C32.7423 32.012 32.8258 32.0002 32.9102 32.0002H34.0001V28.0002C34.0001 26.9397 34.4215 25.9221 35.1715 25.1721C35.922 24.4221 36.939 24.0002 38.0001 24.0002C39.0611 24.0002 40.0782 24.4221 40.8287 25.1721C41.1334 25.4768 41.3839 25.8254 41.5738 26.2034C41.8516 26.7561 42.0001 27.3704 42.0001 28.0002V32.0002H43.0899C43.3316 32.0002 43.5631 32.0959 43.7335 32.2668C43.9044 32.4377 44.0001 32.6692 44.0001 32.9104V35.0901C44.0001 35.2043 43.9786 35.3167 43.9376 35.4211ZM68.0001 18.0002V10.0002C68.0001 8.40942 67.3678 6.88306 66.2428 5.75806C65.8131 5.32837 65.3253 4.97095 64.7979 4.69263C63.9434 4.24146 62.984 4.00024 62.0001 4.00024H48.0001C46.4088 4.00024 44.8829 4.63208 43.7574 5.75806C42.6324 6.88306 42.0001 8.40942 42.0001 10.0002V18.0002C42.0001 19.5911 42.6324 21.1174 43.7574 22.2424C44.8829 23.3684 46.4088 24.0002 48.0001 24.0002H50.0001V50.0803C50.1446 51.2561 50.672 52.3528 51.5001 53.2004C52.0401 53.8206 53.7501 55.5598 53.7501 55.5598C53.9127 55.6897 54.0933 55.7932 54.2852 55.8665C54.4195 55.9182 54.5592 55.9553 54.7022 55.9768C54.8004 55.9915 54.9 55.9993 55.0001 55.9993C55.2574 55.9993 55.5103 55.9495 55.7457 55.8547C55.9263 55.7825 56.0963 55.6829 56.2501 55.5598L59.7701 52.3401C59.7989 52.3147 59.8243 52.2854 59.8458 52.2542L59.8741 52.2073L59.8907 52.175C59.9185 52.1125 59.9332 52.0442 59.9332 51.9749C59.9332 51.9065 59.9185 51.8381 59.8907 51.7756C59.8785 51.7483 59.8643 51.7229 59.8477 51.6985C59.8253 51.6663 59.7994 51.637 59.7701 51.6106L58.4 50.3499C58.3087 50.2571 58.2569 50.1311 58.2569 50.0002C58.2569 49.9446 58.2662 49.8899 58.2838 49.8381C58.3077 49.7688 58.3472 49.7043 58.4 49.6506L59.8599 48.3499L59.8995 48.3059C59.9283 48.2708 59.9512 48.2317 59.9688 48.1897C59.9796 48.1643 59.9884 48.1379 59.9942 48.1106C60.0025 48.0745 60.0069 48.0374 60.0069 48.0002C60.0069 47.9348 59.9942 47.8704 59.9688 47.8108C59.9434 47.7502 59.9068 47.6956 59.8599 47.6506L58.3599 46.3499C58.3321 46.3215 58.3082 46.2903 58.2882 46.2571C58.2423 46.1799 58.2174 46.0911 58.2174 46.0002C58.2174 45.9377 58.2296 45.8752 58.252 45.8176C58.276 45.7561 58.3126 45.6985 58.3599 45.6506L59.8599 44.1506C59.9083 44.1038 59.9469 44.0481 59.9722 43.9856C59.9981 43.9241 60.0108 43.8577 60.0098 43.7903V42.0598C60.0094 41.9915 59.9947 41.9231 59.9674 41.8586C59.9532 41.8254 59.9356 41.7942 59.9146 41.7649C59.8956 41.7385 59.8741 41.7141 59.8502 41.6907L58.3902 40.3499C58.3419 40.304 58.3033 40.2473 58.2769 40.1858C58.2506 40.1243 58.2369 40.0579 58.2369 39.9905C58.2369 39.9231 58.2506 39.8567 58.2769 39.7942C58.3033 39.7327 58.3419 39.677 58.3902 39.6301L59.8702 38.3499C59.918 38.3049 59.9561 38.2512 59.982 38.1907C60.0084 38.1311 60.0216 38.0657 60.0216 38.0002C60.0216 37.9348 60.0084 37.8694 59.982 37.8098C59.9561 37.7493 59.918 37.6956 59.8702 37.6506L58.3702 36.3499C58.2784 36.2571 58.2271 36.1311 58.2271 36.0002C58.2271 35.8694 58.2784 35.7434 58.3702 35.6506L59.8702 34.1506C59.9185 34.1038 59.9566 34.0481 59.9825 33.9856L60.0011 33.9338C60.0142 33.887 60.0206 33.8391 60.0201 33.7903V24.1907L56.3101 17.7698C55.8897 17.9221 55.4469 17.9993 55.0001 18.0002C54.0626 18.0061 53.1534 17.6829 52.4298 17.0872C51.7066 16.4905 51.2159 15.6594 51.043 14.7385C50.9478 14.2297 50.9522 13.7112 51.0528 13.2112C51.1344 12.8059 51.2789 12.4124 51.484 12.0461C51.733 11.6008 52.0631 11.2112 52.4537 10.8938C52.7803 10.6292 53.149 10.4153 53.5479 10.2629C53.774 10.177 54.0064 10.1116 54.2418 10.0676C54.4547 10.0286 54.6705 10.0061 54.8868 10.0012C55.3551 9.99146 55.8253 10.0637 56.275 10.218C57.1612 10.5227 57.9127 11.1292 58.3975 11.9309C58.8824 12.7336 59.0699 13.6799 58.9278 14.6067C58.7857 15.5334 58.3228 16.3801 57.6202 17.0002L61.6202 24.0002H62.0001C63.5914 24.0002 65.1173 23.3684 66.2428 22.2424C67.3678 21.1174 68.0001 19.5911 68.0001 18.0002ZM52.0001 24.0002H54.0001V48.7307C54.0001 48.9954 53.8946 49.2502 53.7071 49.4377C53.5196 49.6252 53.2652 49.7307 53.0001 49.7307C52.7349 49.7307 52.4805 49.6252 52.293 49.4377C52.1055 49.2502 52.0001 48.9954 52.0001 48.7307V24.0002ZM79.7301 41.72L71.6602 27.72L70.8101 26.2502C70.6397 25.9495 70.3912 25.7004 70.0904 25.5305L67.3502 23.9202C65.8858 25.2512 63.9796 25.9924 62.0001 26.0002V33.7903C62.0015 34.1184 61.9376 34.4446 61.8121 34.7483C61.6871 35.052 61.5025 35.3284 61.2701 35.5598L60.9102 35.9202L61.1602 36.1301L61.2701 36.2297C61.7379 36.7004 62.0006 37.3372 62.0006 38.0002C62.0006 38.6633 61.7379 39.3 61.2701 39.7698L61.1602 39.8704L61.0001 40.0002L61.21 40.2004C61.4644 40.4377 61.6661 40.7258 61.8023 41.0461C61.9386 41.3665 62.0059 41.7122 62.0001 42.0598V43.7903C62.0015 44.1184 61.9376 44.4446 61.8121 44.7483C61.6871 45.052 61.5025 45.3284 61.2701 45.5598L60.9102 45.9202L61.1602 46.1399L61.2701 46.2405C61.397 46.3665 61.5079 46.5071 61.6002 46.6604C61.6187 46.6926 61.6358 46.7258 61.6505 46.76C61.7296 46.8821 61.793 47.0129 61.8404 47.1506V47.22C61.8887 47.3694 61.9224 47.5237 61.94 47.6799C61.9552 47.8528 61.9552 48.0276 61.94 48.2004L63.6002 51.0002C63.6441 51.0754 63.6925 51.1477 63.7452 51.217C63.8541 51.3596 63.9796 51.4875 64.1202 51.5999C64.171 51.636 64.2232 51.6702 64.276 51.7024C64.3331 51.7366 64.3912 51.7688 64.4503 51.8C64.8829 52.009 65.3765 52.0549 65.8404 51.9299C66.0103 51.886 66.1749 51.8225 66.3302 51.7405L79.0001 44.4504C79.1182 44.3821 79.2286 44.301 79.3302 44.2102C79.628 43.9465 79.8375 43.5969 79.9303 43.2102C79.9635 43.0852 79.9864 42.9583 80.0001 42.8303C80.0084 42.6731 79.9976 42.5159 79.9693 42.3625C79.9273 42.1379 79.8468 41.9202 79.7301 41.72Z" fill="black"/>
</svg>
