<svg width="90" height="60" viewBox="0 0 90 60" fill="none" xmlns="http://www.w3.org/2000/svg">
<path fill-rule="evenodd" clip-rule="evenodd" d="M86.6292 33.9347C87.4349 34.3427 88.1339 34.9336 88.6705 35.66H88.7205C89.1678 36.2708 89.4901 36.9638 89.6689 37.6995C89.8477 38.4351 89.8795 39.1988 89.7624 39.9467C89.6454 40.6947 89.3817 41.4121 88.9867 42.0579C88.5917 42.7037 88.073 43.2652 87.4605 43.71C84.4516 45.8939 81.0063 47.4016 77.3605 48.13C78.0553 49.5747 78.3125 51.191 78.1005 52.78C77.8343 54.7755 76.8537 56.6068 75.3403 57.9344C73.827 59.262 71.8836 59.9959 69.8705 60H59.8705C59.4893 60.0043 59.1083 59.9809 58.7305 59.93C57.4044 59.7564 56.1399 59.2648 55.0446 58.4972C53.9494 57.7296 53.0558 56.7087 52.4401 55.5214C51.8244 54.3342 51.5047 53.0157 51.5082 51.6782C51.5118 50.3408 51.8385 49.024 52.4605 47.84L34.4605 45.47C34.5317 46.5998 34.3701 47.7322 33.9859 48.7971C33.6017 49.8619 33.0029 50.8366 32.2267 51.6606C31.4504 52.4846 30.5133 53.1405 29.4733 53.5877C28.4333 54.0348 27.3125 54.2636 26.1805 54.26H16.1805C15.8157 54.2586 15.4515 54.2319 15.0905 54.18C14.0097 54.0383 12.9674 53.685 12.0231 53.1404C11.0788 52.5958 10.2511 51.8705 9.58714 51.006C8.92319 50.1415 8.43604 49.1546 8.1535 48.1018C7.87097 47.049 7.79859 45.9508 7.94049 44.87C8.14686 43.2781 8.8182 41.7823 9.87049 40.57C6.54892 38.9205 3.62234 36.5738 1.29049 33.69C0.603524 32.8461 0.170126 31.8246 0.0406548 30.7442C-0.0888165 29.6637 0.0909536 28.5687 0.559078 27.5864C1.0272 26.6041 1.76446 25.7747 2.68519 25.1948C3.60592 24.6148 4.67232 24.308 5.76049 24.31H12.7605C11.9944 21.2235 11.9944 17.9965 12.7605 14.91C13.8314 10.652 16.2927 6.87324 19.7543 4.17241C23.216 1.47159 27.4799 0.00322951 31.8705 2.52942e-05H41.8705C46.2604 -0.00502448 50.5267 1.45337 53.9949 4.14462C57.4631 6.83586 59.9353 10.6064 61.0205 14.86C61.8273 18.0464 61.8273 21.3836 61.0205 24.57C60.181 27.9091 58.4773 30.9683 56.0805 33.44C55.4866 34.0519 54.8554 34.6263 54.1905 35.16L65.8705 36.69C67.5871 36.2346 69.2044 35.465 70.6405 34.42C71.6213 33.6943 72.8104 33.305 74.0305 33.31H84.0305C84.9336 33.3127 85.8235 33.5266 86.6292 33.9347ZM35.8704 6.99934L33.8704 8.10934L31.8704 9.21934L29.8704 8.10934L27.8704 6.99934V4.53934C30.4875 3.8121 33.2533 3.8121 35.8704 4.53934V6.99934ZM25.4004 8.93008L27.3904 7.82008L29.3904 8.93008L31.3804 10.0401L31.3704 12.2401L31.3804 14.4501L29.3904 15.5501L27.3904 16.6601L25.4004 15.5501L23.4104 14.4501V12.2401V10.0401L25.4004 8.94008V8.93008ZM22.4002 29.4293V27.2193L22.3802 24.9793L20.3802 23.8893L18.3802 22.7693L16.6502 23.7693C17.2913 26.3044 18.5841 28.6279 20.4002 30.5093L22.4002 29.4293ZM27.3904 22.7996L25.4004 23.9096L23.4104 25.0196V27.2196V29.4296L25.4004 30.5296L27.3904 31.6396L29.3904 30.5296L31.3804 29.4296L31.3704 27.2196L31.3804 25.0196L29.3904 23.9096L27.3904 22.7996ZM34.3702 23.9096L36.3602 22.7996L38.3602 23.9096L40.3502 25.0196L40.3402 27.2196L40.3502 29.4296L38.3502 30.5296L36.3602 31.6396L34.3702 30.5296L32.3802 29.4296V27.2196V25.0196L34.3702 23.9096ZM43.3201 30.5198C45.1484 28.6444 46.449 26.3193 47.0901 23.7798L45.3201 22.7898L43.3201 23.9098L41.3201 24.9998V29.4298L43.3201 30.5198ZM22.4002 14.4398V12.2398L22.4402 10.0898L20.4402 8.99977C18.631 10.8581 17.3324 13.1522 16.6702 15.6598L18.4002 16.6598L20.4002 15.5498L22.4002 14.4398ZM34.3702 8.93008L36.3602 7.82008L38.3602 8.93008L40.3502 10.0401L40.3402 12.2401L40.3502 14.4501L38.3502 15.5501L36.3602 16.6601L34.3702 15.5501L32.3802 14.4501V12.2401V10.0401L34.3702 8.94008V8.93008ZM45.3304 16.6802L47.0904 15.6802C46.4564 13.1283 45.1592 10.7894 43.3304 8.90016L41.3304 10.0002V14.4602L43.3304 15.5702L45.3304 16.6802ZM20.9102 16.4293L22.9102 15.3093L24.9002 16.4293L26.8902 17.5293V19.7293V21.9393L24.9002 23.0393L22.9102 24.1493L20.9102 23.0393L18.9202 21.9393L18.9302 19.7293L18.9202 17.5293L20.9102 16.4293ZM40.8501 15.3093L38.8501 16.4293L36.8601 17.5293L36.8701 19.7293L36.8601 21.9393L38.8501 23.0393L40.8501 24.1493L42.8401 23.0393L44.8301 21.9393V19.7293V17.5293L42.8401 16.4293L40.8501 15.3093ZM35.8704 34.9298V32.4998L33.8704 31.3998L31.8704 30.2898L29.8704 31.3998L27.8704 32.4998V34.9298C30.4893 35.6437 33.2515 35.6437 35.8704 34.9298ZM75.4405 38.0001C75.3058 37.8143 75.1356 37.657 74.9398 37.5372C74.744 37.4174 74.5264 37.3376 74.2996 37.3022C74.0728 37.2669 73.8412 37.2768 73.6183 37.3314C73.3953 37.3859 73.1854 37.4841 73.0005 37.6201C66.7905 42.1601 60.1305 41.2901 56.8705 40.8601L21.7805 36.2401L21.7793 36.2399C18.5788 35.8199 11.8699 34.9393 7.07049 29.0001C6.92749 28.8185 6.74993 28.667 6.54807 28.5544C6.3462 28.4418 6.12403 28.3704 5.89438 28.3441C5.66473 28.3178 5.43216 28.3373 5.21009 28.4015C4.98802 28.4656 4.78085 28.5731 4.60055 28.7177C4.42025 28.8624 4.27039 29.0413 4.15963 29.2442C4.04886 29.447 3.97938 29.6698 3.9552 29.8997C3.93102 30.1296 3.95262 30.362 4.01875 30.5835C4.08488 30.8049 4.19423 31.0111 4.34049 31.1901C7.37195 34.8869 11.4954 37.5297 16.1205 38.7401C17.8268 39.201 19.5649 39.5353 21.3205 39.7401L56.4505 44.3601C58.1983 44.622 59.9632 44.7524 61.7305 44.7501C66.5111 44.7764 71.1773 43.2886 75.0605 40.5001C75.2562 40.3661 75.4222 40.1934 75.5483 39.9925C75.6744 39.7917 75.7578 39.5671 75.7935 39.3326C75.8291 39.0982 75.8161 38.8589 75.7554 38.6297C75.6947 38.4005 75.5875 38.1862 75.4405 38.0001ZM60.3803 47.4296C59.5374 47.3204 58.6811 47.4634 57.9194 47.8405C57.1578 48.2177 56.525 48.8121 56.101 49.5487C55.677 50.2852 55.4807 51.1309 55.5371 51.979C55.5934 52.827 55.8998 53.6393 56.4175 54.3133C56.9352 54.9873 57.6411 55.4928 58.4459 55.7659C59.2507 56.039 60.1184 56.0675 60.9394 55.8477C61.7604 55.628 62.4979 55.1699 63.0587 54.5312C63.6195 53.8926 63.9785 53.1021 64.0903 52.2596C64.2378 51.1273 63.93 49.9827 63.2345 49.0771C62.5389 48.1715 61.5123 47.579 60.3803 47.4296ZM60.0201 50.2098C59.7258 50.1707 59.4265 50.2198 59.1602 50.3509C58.8938 50.482 58.6724 50.6891 58.5238 50.9462C58.3753 51.2032 58.3064 51.4985 58.3258 51.7947C58.3452 52.091 58.452 52.3748 58.6328 52.6102C58.8136 52.8457 59.0602 53.0222 59.3414 53.1174C59.6226 53.2127 59.9257 53.2223 60.2123 53.1452C60.499 53.068 60.7563 52.9075 60.9518 52.6841C61.1472 52.4606 61.2719 52.1842 61.3101 51.8898C61.3612 51.496 61.2541 51.0981 61.0123 50.7832C60.7705 50.4682 60.4137 50.262 60.0201 50.2098ZM14.2506 42.0866C15.0154 41.7096 15.8749 41.5678 16.7203 41.6794C17.8524 41.8288 18.8789 42.4213 19.5745 43.3269C20.2701 44.2325 20.5779 45.3771 20.4303 46.5094C20.3201 47.355 19.9616 48.1488 19.4 48.7906C18.8385 49.4323 18.0992 49.893 17.2757 50.1145C16.4522 50.3359 15.5816 50.3081 14.7739 50.0346C13.9662 49.761 13.2579 49.2541 12.7384 48.5778C12.219 47.9015 11.9118 47.0864 11.8558 46.2355C11.7998 45.3846 11.9974 44.5362 12.4237 43.7977C12.85 43.0592 13.4858 42.4637 14.2506 42.0866ZM15.5016 44.6012C15.7675 44.4703 16.0662 44.4212 16.3601 44.4599C16.7545 44.5146 17.1113 44.7229 17.3529 45.0394C17.5945 45.3559 17.7013 45.7551 17.6501 46.1499C17.61 46.4436 17.4838 46.7188 17.2874 46.9408C17.0911 47.1628 16.8334 47.3217 16.5468 47.3973C16.2602 47.473 15.9577 47.4621 15.6773 47.3659C15.397 47.2698 15.1514 47.0928 14.9715 46.8572C14.7917 46.6216 14.6857 46.338 14.6669 46.0422C14.6481 45.7464 14.7173 45.4517 14.8659 45.1952C15.0144 44.9387 15.2356 44.732 15.5016 44.6012Z" fill="black"/>
</svg>
