<svg width="94" height="60" viewBox="0 0 94 60" fill="none" xmlns="http://www.w3.org/2000/svg">
<path fill-rule="evenodd" clip-rule="evenodd" d="M88.4261 25.5629L92.2611 29.5369C94.6381 31.9989 94.5691 35.9379 92.1081 38.3159L91.1451 39.2459C90.1881 40.1709 88.9281 40.6799 87.5981 40.6799C87.2931 40.6799 86.9901 40.6529 86.6941 40.5999C86.5371 42.6109 85.6631 44.5428 84.1651 45.9898C82.5921 47.5098 80.5201 48.3478 78.3331 48.3478C77.6721 48.3478 77.0111 48.2678 76.3681 48.1138L73.2391 50.6708C71.7401 51.8948 69.8491 52.5688 67.9141 52.5688H57.9112C56.9552 52.5688 56.0132 52.4078 55.1112 52.0888L54.4222 51.8468C53.8362 52.0268 53.2202 52.1198 52.5922 52.1198C50.9172 52.1198 49.2892 51.4288 48.1252 50.2238L41.0742 42.9179C40.8312 43.2509 40.5692 43.5739 40.2622 43.8699L30.7303 53.0788C29.3603 54.4038 27.5553 55.1328 25.6503 55.1328C25.1033 55.1328 24.5613 55.0638 24.0323 54.9428L22.4563 56.4658C21.5863 57.3068 20.5233 57.9618 19.3813 58.3598L15.3213 59.7768C14.8893 59.9268 14.4453 59.9998 14.0033 59.9998H4.00036C2.93436 59.9998 1.89037 59.5728 1.12337 58.7788C0.0393742 57.6568 -0.293622 56.0068 0.271376 54.5528L1.82737 50.5418C2.26537 49.4148 2.95637 48.3748 3.82636 47.5348L5.40336 46.0108C4.95936 43.6689 5.66036 41.1549 7.49835 39.3789L17.0303 30.1699C18.4003 28.8459 20.2043 28.1169 22.1103 28.1159C22.6573 28.1159 23.1993 28.1849 23.7273 28.3059L25.4063 26.6839L25.1143 26.3819C23.8473 25.0699 23.2233 23.2759 23.4023 21.4599C23.5813 19.6449 24.5473 18.0039 26.0533 16.9579C27.0723 16.2509 28.2733 15.8769 29.5273 15.8769C31.2473 15.8769 32.9253 16.5939 34.1303 17.8419L34.3363 18.0559L35.4303 16.9989C36.2663 16.1909 37.3343 15.7009 38.4782 15.5899L44.8972 9.38897C44.5972 6.84098 45.4712 4.22598 47.3992 2.36399C48.9762 0.839996 51.0532 0 53.2462 0H63.2492C65.5202 0 67.7271 0.936995 69.3041 2.57199C70.9791 4.30698 71.7501 6.58198 71.6441 8.82097C72.0771 8.70197 72.5291 8.63497 72.9931 8.63497C74.3881 8.63497 75.6911 9.18797 76.6621 10.195L77.5531 11.117C79.1661 12.789 79.7081 15.1729 78.9831 17.3699L85.4301 24.0499C86.5621 24.2029 87.6271 24.7359 88.4261 25.5629ZM57.3726 24.3677C58.5636 23.2167 58.5966 21.3187 57.4466 20.1267L54.5816 17.1587C53.4306 15.9667 51.5306 15.9337 50.3386 17.0847L43.8816 23.3247C42.6906 24.4757 42.6566 26.3737 43.8066 27.5647L46.6716 30.5327C47.8226 31.7257 49.7226 31.7587 50.9146 30.6067L57.3726 24.3677ZM52.4756 32.2277C51.2896 33.3737 51.2566 35.2817 52.4016 36.4687L55.2666 39.4367C56.4176 40.6287 58.3176 40.6617 59.5096 39.5107L65.9666 33.2707C67.1576 32.1197 67.1916 30.2217 66.0406 29.0307L63.1766 26.0627C62.0256 24.8697 60.1256 24.8367 58.9336 25.9887L52.4756 32.2277ZM63.7786 12.9727C63.2096 12.3827 62.2196 12.5977 61.9446 13.3697L61.3016 15.1767L59.4076 13.2147C58.9846 12.7757 58.2846 12.7637 57.8466 13.1877C57.4076 13.6117 57.3956 14.3117 57.8196 14.7507L72.3926 29.8497L70.0106 32.1517L60.4786 41.3607C58.7236 43.0567 55.9276 43.0077 54.2336 41.2517L46.5626 33.3047C45.7156 32.4267 44.3176 32.4027 43.4396 33.2507L31.2506 20.6207C30.4866 19.8287 29.2376 19.6167 28.3336 20.2447C27.1816 21.0447 27.0596 22.6397 27.9916 23.6047L51.0016 47.4457C51.8486 48.3237 53.2466 48.3477 54.1236 47.5007L56.4406 48.3177C57.8936 48.8307 59.5096 48.5487 60.7036 47.5737L65.1026 43.9787C65.4376 43.7057 65.9036 43.6497 66.2866 43.8497C67.9226 44.6997 69.9806 44.4667 71.3806 43.1137C72.6656 41.8727 73.0206 40.0457 72.4586 38.4647C72.3786 38.2387 72.4326 37.9897 72.6176 37.8387L74.0046 36.7057C74.8626 36.0047 76.0696 35.9277 77.0096 36.5137C77.4396 36.7807 77.9956 36.7227 78.3606 36.3707L79.3236 35.4397C80.2006 34.5917 80.2256 33.1927 79.3786 32.3157L75.5426 28.3417C75.1186 27.9027 74.4206 27.8907 73.9816 28.3147L64.3796 18.3667L65.1606 16.1717C65.4426 15.3807 65.2516 14.4997 64.6696 13.8957L63.7786 12.9727ZM69.9016 38.3997C70.7486 39.2777 70.7236 40.6767 69.8466 41.5247C68.9696 42.3727 67.5716 42.3477 66.7236 41.4697C65.8766 40.5917 65.9016 39.1927 66.7786 38.3457C67.6556 37.4977 69.0536 37.5227 69.9016 38.3997ZM35.6746 22.3237L38.7426 25.5027L38.8936 25.3567L41.2756 23.0547C41.7146 22.6307 41.7266 21.9317 41.3036 21.4927L50.9466 12.1747C52.6226 13.2017 54.8346 13.0267 56.3136 11.5977C58.0676 9.90269 58.1166 7.10468 56.4216 5.34968C54.7276 3.59368 51.9316 3.54467 50.1766 5.24067C48.6976 6.66868 48.4466 8.87468 49.4136 10.5857L39.7696 19.9037C39.3456 19.4647 38.6466 19.4527 38.2076 19.8757L35.8246 22.1787L35.6746 22.3237ZM51.6566 9.95369C50.8096 9.07669 50.8336 7.67768 51.7106 6.82968C52.5876 5.98168 53.9866 6.00669 54.8336 6.88469C55.6806 7.76169 55.6566 9.16068 54.7786 10.0087C53.9016 10.8557 52.5036 10.8317 51.6566 9.95369ZM17.9465 50.2027L27.4786 40.9937C28.7946 39.7227 28.8316 37.6237 27.5606 36.3067L24.4916 33.1287C23.2216 31.8117 21.1245 31.7747 19.8085 33.0467L10.2766 42.2557C8.96055 43.5277 8.92355 45.6257 10.1946 46.9427L13.2625 50.1207C14.5336 51.4377 16.6305 51.4747 17.9465 50.2027ZM29.6206 28.1727L25.9306 31.7387L28.9986 34.9167L32.6896 31.3507L29.6206 28.1727ZM9.67255 53.5897L11.8236 51.5097L8.75656 48.3317L6.60355 50.4107C6.14455 50.8547 5.78654 51.3937 5.55454 51.9897L3.99854 55.9997L8.05854 54.5837C8.66154 54.3727 9.21255 54.0337 9.67255 53.5897Z" fill="black"/>
</svg>
