<svg width="108" height="60" viewBox="0 0 108 60" fill="none" xmlns="http://www.w3.org/2000/svg">
<path fill-rule="evenodd" clip-rule="evenodd" d="M106.854 17.6104L105.513 19L106.874 20.4004C107.154 20.6914 107.389 21.0225 107.569 21.3828C107.64 21.5234 107.702 21.668 107.756 21.8164C107.947 22.3457 108.024 22.9092 107.983 23.4697C107.959 23.7344 107.909 23.9951 107.833 24.249C107.749 24.5303 107.634 24.8018 107.49 25.0586C107.216 25.5479 106.843 25.9746 106.394 26.3096L103.823 28.3096C102.343 29.417 100.542 30.0098 98.6934 30H83.9834V36.6699L88.8233 46H98.9834C100.84 46 102.621 46.7373 103.933 48.0498C105.246 49.3633 105.983 51.1436 105.983 53V56C105.983 57.0605 105.562 58.0781 104.812 58.8281C104.062 59.5781 103.044 60 101.983 60H55.9834C54.9224 60 53.9053 59.5781 53.1548 58.8281C52.4048 58.0781 51.9834 57.0605 51.9834 56H13.8936C12.3247 56.001 10.771 55.6904 9.32276 55.0889C7.87403 54.4863 6.55909 53.6025 5.45362 52.4902L1.45362 48.54C0.818857 47.9014 0.368174 47.1025 0.149424 46.2295C-0.0688378 45.3555 -0.0478417 44.4395 0.211436 43.5771C0.470713 42.7139 0.958018 41.9375 1.62208 41.3291C2.28565 40.7207 3.10157 40.3027 3.98341 40.1201V8C3.98341 5.87793 4.82618 3.84375 6.32667 2.34277C7.82667 0.842773 9.86183 0 11.9834 0H75.9834C78.105 0 80.1401 0.842773 81.6401 2.34277C83.1406 3.84375 83.9834 5.87793 83.9834 8H98.7036C100.555 7.97656 102.364 8.55957 103.854 9.66016L106.423 11.6602C106.871 12.002 107.241 12.4336 107.51 12.9287C107.641 13.1699 107.746 13.4229 107.825 13.6846C107.908 13.959 107.961 14.2422 107.983 14.5303C108.023 15.0938 107.943 15.6602 107.749 16.1914C107.554 16.7217 107.249 17.2061 106.854 17.6104ZM60.3233 38H11.9834V10C11.9834 9.46973 12.1943 8.96094 12.5693 8.58594C12.9443 8.21094 13.4531 8 13.9834 8H63.9834C64.2383 8 64.4883 8.04883 64.7212 8.1416C64.9722 8.24121 65.2026 8.3916 65.3975 8.58594C65.5596 8.74805 65.6909 8.93457 65.7881 9.1377C65.8447 9.25684 65.8897 9.38086 65.9219 9.50879C65.9624 9.66797 65.9834 9.83301 65.9834 10V13.25H69.9834V8C69.9834 7.8457 69.9746 7.69141 69.957 7.53906C69.9419 7.40723 69.9199 7.27637 69.8916 7.14648C69.7295 6.4043 69.3574 5.71777 68.812 5.17188C68.0615 4.42188 67.0444 4 65.9834 4H11.9834C10.9224 4 9.90528 4.42188 9.15479 5.17188C8.40479 5.92188 7.98341 6.93945 7.98341 8V42H62.3833L60.3233 38ZM83.8931 18.1699L88.043 15C88.2383 14.873 88.4658 14.8057 88.6983 14.8057C88.9307 14.8057 89.1582 14.873 89.353 15L91.9834 17L93.9834 14.8799L91.4131 12.8799C90.9038 12.5146 90.3291 12.2588 89.7246 12.123C89.3926 12.0479 89.0518 12.0098 88.708 12.0098C87.7378 12.0098 86.7915 12.3145 86.0034 12.8799L82.5532 15.5195C83.2549 16.249 83.7217 17.1719 83.8931 18.1699ZM41.2129 19.7207C41.2432 20.0205 41.313 20.3506 41.313 20.6504L41.3027 21.0908V21.5303C41.2915 21.6328 41.2744 21.7295 41.2573 21.8252C41.23 21.9805 41.2031 22.1328 41.2031 22.3008L41.188 22.4014L41.1694 22.4824C41.1602 22.5186 41.1494 22.5537 41.1372 22.5879C41.1211 22.6338 41.1021 22.6787 41.0806 22.7227C41.0547 22.7754 41.0254 22.8262 40.9927 22.875C40.936 22.959 40.8692 23.0371 40.793 23.1064C40.563 23.3164 40.2642 23.4346 39.9531 23.4404C39.7329 23.4971 39.5386 23.627 39.4024 23.8086C39.2661 23.9902 39.1958 24.2129 39.2031 24.4404C39.1968 24.5254 39.2095 24.6104 39.2393 24.6885C39.2554 24.7314 39.2764 24.7725 39.3027 24.8105C39.4678 25.0459 39.5615 25.3232 39.5728 25.6104C39.5689 25.7705 39.5313 25.9287 39.4624 26.0732L39.4321 26.1318L39.3858 26.21L39.3359 26.2793L39.2954 26.3291L39.2603 26.3682L39.2095 26.418L39.1729 26.4502C38.5928 26.9502 37.9131 27.4902 37.1729 28.0303C36.9326 28.2051 36.6358 28.2842 36.3403 28.2529C36.0444 28.2217 35.771 28.082 35.5728 27.8604C35.4766 27.7441 35.3496 27.6572 35.2066 27.6104C35.0635 27.5625 34.9097 27.5557 34.7627 27.5908C34.5899 27.624 34.4282 27.7002 34.292 27.8115C34.2163 27.874 34.1499 27.9463 34.0942 28.0264C34.0698 28.0615 34.0474 28.0977 34.0274 28.1348L34.0029 28.1846L33.9829 28.2305C33.9136 28.3818 33.8154 28.5186 33.6953 28.6328C33.6333 28.6924 33.565 28.7451 33.4917 28.791C33.2769 28.9268 33.0269 28.9961 32.773 28.9902C31.8692 28.8535 30.9741 28.6631 30.0928 28.4199C29.8501 28.3584 29.6362 28.2129 29.4888 28.0107C29.3789 27.8604 29.3101 27.6846 29.2881 27.501C29.2808 27.4375 29.2788 27.374 29.2827 27.3105V27.0107C29.2857 26.915 29.273 26.8203 29.2456 26.7295C29.229 26.6748 29.207 26.6221 29.1802 26.5713C29.1084 26.4355 29.0025 26.3223 28.8731 26.2402C28.8335 26.2109 28.7915 26.1846 28.7476 26.1621L28.6875 26.1338L28.6294 26.1123L28.5767 26.0957C28.5464 26.0879 28.5151 26.0811 28.4839 26.0762C28.3428 26.0537 28.1983 26.0654 28.063 26.1104C27.9243 26.1689 27.7774 26.2012 27.6294 26.2051C27.4834 26.209 27.3369 26.1865 27.1973 26.1367C26.916 26.0371 26.6821 25.835 26.543 25.5703C26.2691 25.0596 26.04 24.6113 25.8325 24.1885C25.6987 23.916 25.5742 23.6533 25.4531 23.3906C25.3613 23.2285 25.3135 23.0459 25.313 22.8604C25.3081 22.625 25.3745 22.3926 25.5029 22.1953C25.5845 22.0684 25.6895 21.959 25.8115 21.873C25.8457 21.8486 25.8814 21.8262 25.9185 21.8057C25.9556 21.7852 25.9937 21.7666 26.0327 21.75C26.1299 21.6572 26.2066 21.5449 26.2593 21.4219C26.312 21.2979 26.3389 21.165 26.3389 21.0303C26.3389 20.8955 26.312 20.7627 26.2593 20.6396C26.2066 20.5156 26.1299 20.4033 26.0327 20.3105C25.8755 20.2402 25.7339 20.1377 25.6172 20.0107C25.5664 19.9561 25.521 19.8965 25.481 19.834C25.4287 19.752 25.3858 19.6641 25.3535 19.5713C25.3272 19.4961 25.3081 19.418 25.2964 19.3389C25.2827 19.249 25.2788 19.1562 25.2852 19.0635C25.2974 18.8916 25.3438 18.7236 25.4229 18.5703C25.7046 17.8789 26.0386 17.21 26.4229 16.5703C26.4917 16.4082 26.5928 16.2627 26.7202 16.1416C26.7944 16.0713 26.8765 16.0107 26.9649 15.96L27.0567 15.9121C27.0913 15.8955 27.127 15.8809 27.1636 15.8672C27.3286 15.8076 27.5044 15.7822 27.6797 15.793C27.855 15.8037 28.0264 15.8506 28.1831 15.9307C28.2456 15.9502 28.3101 15.9609 28.375 15.9619C28.4248 15.9629 28.4751 15.958 28.5244 15.9482C28.6382 15.9258 28.7442 15.875 28.833 15.8008C28.959 15.7168 29.0664 15.6084 29.147 15.4805C29.228 15.3535 29.2813 15.21 29.3027 15.0605V14.9902C29.2876 14.8906 29.2876 14.79 29.3027 14.6904C29.3008 14.543 29.3272 14.3984 29.3794 14.2627C29.4214 14.1533 29.48 14.0508 29.5542 13.958C29.7202 13.75 29.9526 13.6055 30.2129 13.5508C30.9717 13.3281 31.7432 13.1514 32.523 13.0205C32.6846 12.9727 32.854 12.958 33.0215 12.9775C33.189 12.9971 33.3506 13.0508 33.4966 13.1348C33.6426 13.2188 33.77 13.332 33.8706 13.4668C33.9717 13.6025 34.044 13.7568 34.083 13.9199C34.1304 14.0566 34.2158 14.1758 34.3296 14.2646C34.4429 14.3535 34.5796 14.4072 34.7232 14.4199C34.8608 14.459 35.0064 14.4639 35.147 14.4365C35.2105 14.4238 35.2725 14.4043 35.3316 14.3789L35.377 14.3584L35.4277 14.3311C35.4644 14.3096 35.4995 14.2861 35.5327 14.2607C35.6314 14.1357 35.7534 14.0312 35.8921 13.9541C36.0308 13.876 36.1836 13.8271 36.3413 13.8086C36.3833 13.8037 36.4258 13.8008 36.4678 13.7998C36.5137 13.7988 36.5596 13.8008 36.6055 13.8057C36.6753 13.8135 36.7446 13.8262 36.8125 13.8457C36.9653 13.8887 37.1084 13.9619 37.2329 14.0605C37.9131 14.5303 38.5527 15.0303 39.1328 15.5303C39.1895 15.5723 39.2422 15.6201 39.29 15.6719C39.3652 15.7539 39.4287 15.8457 39.4785 15.9453C39.5039 15.9961 39.5254 16.0498 39.5435 16.1035C39.5571 16.1455 39.5689 16.1885 39.5776 16.2314C39.5864 16.2734 39.5933 16.3164 39.5977 16.3594L39.6016 16.4092L39.603 16.4707C39.5913 16.7578 39.4976 17.0352 39.333 17.2705C39.2632 17.3691 39.228 17.4893 39.2329 17.6104C39.2256 17.8379 39.2959 18.0605 39.4326 18.2422C39.4844 18.3115 39.5444 18.373 39.6113 18.4258C39.7202 18.5127 39.8467 18.5752 39.9829 18.6104C40.2881 18.6133 40.5816 18.7275 40.8081 18.9326C41.0347 19.1367 41.1787 19.417 41.2129 19.7207ZM30.9458 18.7549C30.3442 19.3496 29.9985 20.1553 29.9829 21C29.9829 21.4189 30.0654 21.833 30.2261 22.2197C30.3862 22.6064 30.6216 22.957 30.918 23.2529C31.2144 23.5479 31.5659 23.7822 31.9531 23.9414C32.0894 23.998 32.229 24.0439 32.3711 24.0801C32.5449 24.125 32.7222 24.1543 32.9014 24.1689L33.0264 24.1777L33.1729 24.1807C34.0191 24.1777 34.8306 23.8428 35.4331 23.249C36.0352 22.6543 36.3799 21.8467 36.3931 21C36.3945 20.7559 36.3677 20.5137 36.3135 20.2773C36.2905 20.1758 36.2627 20.0762 36.2295 19.9775L36.1958 19.8828L36.1553 19.7783L36.1074 19.668L36.0659 19.5801C36.0088 19.4648 35.9448 19.3525 35.8735 19.2441L35.8062 19.1455C35.7036 19.002 35.5894 18.8672 35.4639 18.7422C35.167 18.4463 34.8145 18.2119 34.4263 18.0537C34.0381 17.8955 33.6221 17.8164 33.2031 17.8203C32.3574 17.8252 31.5474 18.1611 30.9458 18.7549ZM46.4131 32.9297L47.1133 33L47.4932 32.9805H47.8233L48.4033 32.9004C48.4439 32.8945 48.4839 32.8857 48.5234 32.875C48.5713 32.8613 48.6182 32.8438 48.6636 32.8232C48.7891 32.7676 48.9028 32.6855 48.9961 32.582C49.0322 32.541 49.065 32.498 49.0942 32.4531C49.1177 32.417 49.1387 32.3799 49.1572 32.3408C49.2139 32.2227 49.2466 32.0928 49.2529 31.96C49.2954 31.7988 49.3901 31.6562 49.522 31.5547C49.6543 31.4541 49.8164 31.3994 49.9829 31.4004C50.061 31.4053 50.1367 31.4287 50.2031 31.4697C50.29 31.5312 50.3848 31.5791 50.4844 31.6133C50.5313 31.6289 50.5791 31.6416 50.6275 31.6504L50.7114 31.6621L50.7637 31.668L50.8032 31.6699C50.8638 31.668 50.9238 31.6602 50.9824 31.6455C51.04 31.6318 51.0962 31.6123 51.1499 31.5869C51.2583 31.5352 51.355 31.4609 51.4331 31.3701C51.813 30.9297 52.2129 30.4297 52.6133 29.8701C52.7476 29.6914 52.8096 29.4688 52.7876 29.2471C52.7769 29.1406 52.7471 29.0381 52.7007 28.9434C52.6719 28.8848 52.6367 28.8291 52.5957 28.7783C52.565 28.7393 52.5308 28.7031 52.4932 28.6699C52.4053 28.5977 52.3394 28.502 52.3027 28.3945C52.2656 28.2871 52.2588 28.1709 52.2832 28.0605C52.3096 27.9316 52.3667 27.8115 52.4507 27.71C52.5156 27.6318 52.5952 27.5664 52.6846 27.5176L52.729 27.4961L52.7632 27.4805C52.9336 27.4014 53.0786 27.2764 53.1812 27.1182C53.1983 27.0918 53.2139 27.0654 53.228 27.0381L53.2583 26.9756L53.2739 26.9375L53.2935 26.8838C53.3247 26.7891 53.3413 26.6904 53.3433 26.5898C53.2368 25.916 53.0933 25.248 52.9131 24.5898C52.9038 24.5518 52.8916 24.5146 52.877 24.4785C52.8594 24.4346 52.8379 24.3926 52.813 24.3525C52.7598 24.2676 52.6909 24.1934 52.6094 24.1338C52.4575 24.0225 52.271 23.9678 52.083 23.9805H51.8633C51.8154 23.9795 51.7676 23.9736 51.7212 23.9639C51.6602 23.9502 51.6011 23.9287 51.5454 23.9004C51.4468 23.8496 51.3613 23.7773 51.2959 23.6885C51.23 23.5996 51.1856 23.4961 51.166 23.3877C51.1602 23.3555 51.1567 23.3223 51.1553 23.2891C51.1524 23.2119 51.1616 23.1348 51.1831 23.0605C51.2695 22.8545 51.2769 22.624 51.2026 22.4131C51.1289 22.2021 50.9795 22.0264 50.7832 21.9199C50.1431 21.5898 49.6533 21.3301 49.1431 21.1104C49.0879 21.0762 49.0288 21.0488 48.9673 21.0303L48.895 21.0127C48.8452 21.0029 48.7944 20.999 48.7432 21C48.5669 20.998 48.3941 21.0479 48.2461 21.1445C48.1812 21.1865 48.1221 21.2373 48.0708 21.2939L48.0308 21.3418C48.0093 21.3682 47.9898 21.3965 47.9717 21.4268L47.9414 21.4805L47.9131 21.54C47.896 21.5645 47.877 21.5869 47.8569 21.6074C47.835 21.6299 47.811 21.6504 47.7861 21.6699C47.7505 21.6963 47.7119 21.7197 47.6714 21.7383C47.5747 21.7822 47.4688 21.7998 47.3633 21.79C47.2627 21.7979 47.1621 21.7803 47.0698 21.7402C46.9775 21.7002 46.896 21.6387 46.833 21.5605C46.8042 21.502 46.77 21.4463 46.7305 21.3945L46.6777 21.3301C46.6211 21.2666 46.5562 21.2109 46.4849 21.1641C46.335 21.0654 46.1621 21.0088 45.9829 21C45.8154 20.999 45.6504 21.041 45.5029 21.1201C44.9922 21.3184 44.4976 21.5557 44.023 21.8301C43.9839 21.8486 43.9463 21.8691 43.9102 21.8926L43.853 21.9326L43.8023 21.9727L43.7725 22L43.7363 22.0352L43.7012 22.0723C43.6196 22.165 43.5552 22.2734 43.5122 22.3916C43.4224 22.6387 43.4336 22.9111 43.543 23.1504L43.5552 23.1973L43.5635 23.2549C43.5679 23.3047 43.565 23.3545 43.5547 23.4033C43.5371 23.4873 43.4985 23.5654 43.4434 23.6299C43.3833 23.7266 43.3027 23.8086 43.208 23.8711C43.1128 23.9326 43.0054 23.9736 42.8931 23.9902C42.8174 23.9756 42.7393 23.9756 42.6631 23.9902C42.4634 23.9883 42.2691 24.0566 42.1143 24.1826C41.959 24.3086 41.8525 24.4844 41.813 24.6797C41.6455 25.248 41.5122 25.8262 41.4131 26.4102C41.3755 26.5312 41.3638 26.6592 41.3779 26.7861C41.3838 26.8379 41.3945 26.8896 41.4092 26.9404C41.4233 26.9893 41.4414 27.0371 41.4634 27.083L41.4966 27.1445C41.5606 27.2539 41.6465 27.3496 41.749 27.4248C41.8018 27.4639 41.8584 27.4961 41.918 27.5225L41.979 27.5469L42.0264 27.5625L42.0933 27.5801C42.1919 27.6201 42.2783 27.6855 42.3433 27.7695C42.4082 27.8545 42.4497 27.9541 42.4629 28.0605C42.4917 28.1641 42.4956 28.2734 42.4746 28.3789C42.4536 28.4854 42.4087 28.585 42.3433 28.6699C42.2481 28.7422 42.169 28.833 42.1099 28.9365C42.0508 29.04 42.0132 29.1553 41.999 29.2734L41.9961 29.3027L41.9927 29.3789C41.9927 29.4072 41.9942 29.4355 41.9971 29.4629C42.0025 29.5176 42.0127 29.5723 42.0283 29.626L42.0415 29.667L42.0576 29.71L42.0776 29.7568C42.1084 29.8223 42.1475 29.8838 42.1934 29.9404C42.3784 30.1963 42.5586 30.4443 42.7402 30.6836C42.9214 30.9209 43.1035 31.1504 43.293 31.3701C43.3765 31.4795 43.4839 31.5674 43.6069 31.6289C43.7305 31.6895 43.8657 31.7207 44.0029 31.7197C44.0923 31.7178 44.1802 31.7041 44.2651 31.6807C44.3858 31.6475 44.5 31.5928 44.603 31.5205C44.6753 31.4668 44.7632 31.4385 44.853 31.4404C44.9063 31.4404 44.959 31.4453 45.0103 31.4561C45.0425 31.4629 45.0747 31.4717 45.106 31.4824L45.1641 31.5059C45.2173 31.5293 45.2676 31.5596 45.314 31.5947C45.4463 31.6963 45.541 31.8389 45.583 32C45.582 32.2305 45.666 32.4531 45.8193 32.625C45.8569 32.667 45.8975 32.7051 45.9414 32.7393L46.0029 32.7832C46.0322 32.8027 46.063 32.8203 46.0947 32.8359C46.1362 32.8564 46.1792 32.874 46.2232 32.8887C46.2847 32.9092 46.3482 32.9229 46.4131 32.9297ZM45.7114 25.21C46.1607 24.7686 46.7632 24.5176 47.3931 24.5098V24.46C47.5855 24.4648 47.7754 24.4922 47.9585 24.541C48.0381 24.5615 48.1162 24.5869 48.1929 24.6162C48.2886 24.6523 48.3818 24.6953 48.4722 24.7432C48.5493 24.7852 48.6245 24.8311 48.6968 24.8809C48.7681 24.9297 48.8369 24.9824 48.9028 25.0391C48.9541 25.083 49.0034 25.1289 49.0508 25.1777C49.4883 25.624 49.7334 26.2246 49.7329 26.8506C49.7344 27.0039 49.7212 27.1572 49.6929 27.3076L49.6729 27.4043C49.6607 27.457 49.647 27.5088 49.6314 27.5605C49.6094 27.6318 49.584 27.7021 49.5557 27.7715C49.5025 27.9004 49.438 28.0244 49.3638 28.1416C49.2695 28.2891 49.1587 28.4258 49.0332 28.5498C48.9824 28.6016 48.9292 28.6514 48.874 28.6982C48.8213 28.7432 48.7661 28.7861 48.71 28.8262C48.5698 28.9258 48.419 29.0107 48.2603 29.0791C48.1265 29.1357 47.9878 29.1807 47.8467 29.2119C47.6817 29.249 47.5132 29.2686 47.3433 29.2705C47.0293 29.2686 46.7188 29.2041 46.4302 29.0801C46.1416 28.9561 45.8809 28.7764 45.6631 28.5498C45.2261 28.1045 44.9819 27.5049 44.9829 26.8799C44.9956 26.4434 45.125 26.0225 45.353 25.6572C45.4536 25.4961 45.5737 25.3457 45.7114 25.21ZM56.9834 14C55.9946 14 55.0278 14.293 54.2056 14.8428C53.3833 15.3916 52.7427 16.1729 52.3638 17.0869C51.9854 18 51.8867 19.0059 52.0796 19.9756C52.2725 20.9453 52.7485 21.8359 53.4478 22.5352C53.6934 22.7812 53.9629 22.999 54.251 23.1875C54.7827 23.5342 55.3789 23.7793 56.0078 23.9043C56.978 24.0967 57.9834 23.998 58.897 23.6191C59.8106 23.2412 60.5913 22.5996 61.1406 21.7783C61.3032 21.5352 61.4434 21.2793 61.5601 21.0146C61.7168 20.6572 61.8316 20.2822 61.9019 19.8984C61.9561 19.6035 61.9834 19.3027 61.9834 19C61.9834 17.6738 61.4566 16.4023 60.5191 15.4648C59.5811 14.5264 58.3096 14 56.9834 14ZM56.9834 21C56.5879 21 56.2012 20.8828 55.8721 20.6631C55.6914 20.542 55.5327 20.3936 55.4014 20.2236C55.2935 20.084 55.2041 19.9297 55.1358 19.7656C54.9844 19.4004 54.9448 18.998 55.022 18.6094C55.0991 18.2217 55.2896 17.8652 55.5693 17.5859L55.6348 17.5234L55.6777 17.4854L55.7324 17.4395L55.7774 17.4043C55.8262 17.3672 55.8765 17.333 55.9282 17.3008C56.1314 17.1748 56.3565 17.085 56.5933 17.0381C56.8023 16.9961 57.0156 16.9883 57.2251 17.0146C57.4038 17.0371 57.5801 17.083 57.7485 17.1523C58.1143 17.3037 58.4268 17.5596 58.6465 17.8887C58.8662 18.2178 58.9834 18.6045 58.9834 19C58.9834 19.5303 58.7725 20.0391 58.3975 20.4141C58.0225 20.7891 57.5137 21 56.9834 21ZM63.7422 17.2344C63.6294 16.8105 63.4761 16.3975 63.2832 16H78.9834C79.5386 16 80.0781 16.1543 80.5449 16.4385C80.6421 16.498 80.7363 16.5635 80.8267 16.6338C80.9238 16.709 81.0166 16.791 81.1045 16.8789C81.667 17.4414 81.9834 18.2041 81.9834 19C81.9834 19.7959 81.667 20.5586 81.1045 21.1211C80.542 21.6836 79.7788 22 78.9834 22H63.2832C63.7368 21.0654 63.9727 20.0391 63.9727 19C63.9727 18.4023 63.8945 17.8086 63.7422 17.2344ZM88.6978 23.1943C88.9307 23.1943 89.1582 23.127 89.353 23L91.9829 21L93.9629 23.1396L91.3931 25.1396C90.6021 25.7002 89.6572 26.001 88.688 26.001C87.7188 26.001 86.7739 25.7002 85.9829 25.1396L82.543 22.4902C83.25 21.7588 83.7207 20.832 83.8931 19.8301L88.043 23C88.2378 23.127 88.4653 23.1943 88.6978 23.1943ZM88.9834 50H75.9834L74.6636 46C74.5733 45.7451 74.4497 45.5049 74.2974 45.2861C74.0986 45 73.8506 44.75 73.5625 44.5469C73.3779 44.417 73.1807 44.3086 72.9741 44.2236C72.6108 44.0752 72.2202 43.999 71.8233 44H66.1333C65.502 44 64.8867 44.1992 64.375 44.5684C64.2398 44.666 64.1138 44.7744 63.9976 44.8916C63.8164 45.0752 63.6597 45.2803 63.5313 45.5039C63.4307 45.6797 63.3472 45.8652 63.2832 46.0596L61.9834 50H58.9834C58.9126 50 58.8418 50.0029 58.7715 50.0078C58.708 50.0117 58.645 50.0176 58.582 50.0264C58.3565 50.0576 58.1362 50.1133 57.9253 50.1924C57.5298 50.3418 57.1665 50.5742 56.8623 50.8789C56.2993 51.4414 55.9834 52.2041 55.9834 53V56H91.9834V53C91.9834 52.2041 91.6675 51.4414 91.1045 50.8789C90.542 50.3164 89.7788 50 88.9834 50ZM66.9834 48C66.9834 47.6045 67.1006 47.2178 67.3203 46.8887C67.54 46.5596 67.8525 46.3037 68.2183 46.1523C68.5835 46.001 68.9858 45.9609 69.3735 46.0381C69.7617 46.1152 70.1177 46.3057 70.3975 46.5859C70.4761 46.6641 70.5474 46.749 70.6113 46.8379C70.6528 46.8965 70.6914 46.957 70.7266 47.0195C70.7651 47.0879 70.7993 47.1582 70.8291 47.2295C70.8799 47.3516 70.919 47.4785 70.9448 47.6094C71.022 47.998 70.9824 48.4004 70.8311 48.7656C70.6797 49.1309 70.4233 49.4434 70.0947 49.6631C69.896 49.7959 69.6758 49.8916 69.4453 49.9463C69.2949 49.9814 69.1397 50 68.9834 50L68.8887 49.999L68.7905 49.9912C68.7105 49.9834 68.6314 49.9707 68.5532 49.9531L68.4556 49.9297C68.3799 49.9082 68.3052 49.8828 68.2324 49.8535C67.9863 49.7539 67.7603 49.6055 67.5693 49.4141C67.1943 49.0391 66.9834 48.5303 66.9834 48ZM69.9932 24.75V31.6602L66.4233 24.75H69.9932ZM53.313 52H53.2432H13.8931C11.7744 52.0176 9.73536 51.1943 8.22315 49.71L4.28321 45.71C4.21974 45.6465 4.16554 45.5762 4.12159 45.5C4.08253 45.4326 4.05079 45.3594 4.02833 45.2832L4.00733 45.1992C3.96778 45.0049 3.98683 44.8037 4.06202 44.6211C4.13673 44.4385 4.26417 44.2812 4.42823 44.1709C4.59229 44.0605 4.78517 44.001 4.98292 44H23.9829L26.8233 46.8301C27.1948 47.2012 27.6362 47.4961 28.1216 47.6963C28.6074 47.8975 29.1275 48 29.6533 48H48.313C49.3706 48.0166 50.3916 47.6143 51.1533 46.8799L53.9829 44.0498H61.2432C61.0044 44.4268 60.8096 44.8291 60.6631 45.25L59.9829 47.25H58.9829C58.2759 47.251 57.5806 47.3818 56.9297 47.6309C56.6675 47.7314 56.4126 47.8506 56.1675 47.9883C55.8579 48.1621 55.563 48.3652 55.2871 48.5967C54.2505 49.4648 53.5523 50.6699 53.313 52ZM66.1333 42H71.8233H72.2632L62.5332 23.1904C61.9111 24.0244 61.1108 24.71 60.1904 25.1963C59.2705 25.6826 58.2534 25.957 57.2134 26L65.5132 42.0605C65.7232 42 65.9233 42 66.1333 42Z" fill="black"/>
</svg>
