<svg width="110" height="60" viewBox="0 0 110 60" fill="none" xmlns="http://www.w3.org/2000/svg">
<path fill-rule="evenodd" clip-rule="evenodd" d="M17.4282 0C12.9046 0 8.84788 2.78563 7.22364 7.0085L3.50937 16.6667C3.50937 16.6667 0 27.5 0 32.2012V42.1334C0 46.2119 2.23457 49.7601 5.52348 51.6361L7.59339 52.8169C9.12374 57.0079 13.1456 60 17.8665 60C18.0341 60 18.2008 59.9962 18.3665 59.9888C18.5323 59.9962 18.699 60 18.8665 60C19.0341 60 19.2008 59.9962 19.3665 59.9888C19.5323 59.9962 19.699 60 19.8665 60C20.0341 60 20.2008 59.9962 20.3665 59.9888C20.5323 59.9962 20.6989 60 20.8665 60C21.0341 60 21.2008 59.9962 21.3665 59.9888C21.5323 59.9962 21.699 60 21.8665 60C22.0341 60 22.2008 59.9962 22.3665 59.9888C22.5323 59.9962 22.699 60 22.8665 60C23.0341 60 23.2008 59.9962 23.3665 59.9888C23.5323 59.9962 23.699 60 23.8665 60C24.0341 60 24.2008 59.9962 24.3665 59.9888C24.5323 59.9962 24.699 60 24.8665 60C25.0341 60 25.2008 59.9962 25.3665 59.9888C25.5323 59.9962 25.699 60 25.8665 60C26.0341 60 26.2008 59.9962 26.3665 59.9888C26.5323 59.9962 26.699 60 26.8665 60C27.0341 60 27.2008 59.9962 27.3665 59.9888C27.5323 59.9962 27.699 60 27.8665 60C32.4928 60 36.4482 57.1263 38.0449 53.0667H71.9543C73.5511 57.1264 77.5067 60 82.1329 60C82.3005 60 82.4672 59.9962 82.6329 59.9888C82.7987 59.9962 82.9653 60 83.1329 60C83.3005 60 83.4671 59.9962 83.6329 59.9888C83.7986 59.9962 83.9653 60 84.1329 60C84.3005 60 84.4672 59.9962 84.6329 59.9888C84.7986 59.9962 84.9653 60 85.1329 60C85.3005 60 85.4671 59.9962 85.6329 59.9888C85.7986 59.9962 85.9653 60 86.1329 60C86.3005 60 86.4671 59.9962 86.6329 59.9888C86.7986 59.9962 86.9653 60 87.1329 60C87.3005 60 87.4671 59.9962 87.6329 59.9888C87.7986 59.9962 87.9653 60 88.1329 60C88.3005 60 88.4671 59.9962 88.6329 59.9888C88.7986 59.9962 88.9653 60 89.1329 60C89.3005 60 89.4671 59.9962 89.6329 59.9888C89.7986 59.9962 89.9653 60 90.1329 60C90.3005 60 90.4671 59.9962 90.6329 59.9888C90.7986 59.9962 90.9653 60 91.1329 60C91.3005 60 91.4671 59.9962 91.6329 59.9888C91.7986 59.9962 91.9653 60 92.1329 60C96.8532 60 100.875 57.0081 102.406 52.8171L104.476 51.6362C107.766 49.7598 109.999 46.2112 109.999 42.1334V10.9333C109.999 4.89554 105.104 0 99.0662 0H17.4282ZM17.4282 4C14.5596 4 11.987 5.76645 10.957 8.44446L9.33326 12.6667H19.5999C21.5144 12.6667 23.0664 14.218 23.0664 16.1334V24.2609C23.0664 25.6407 22.2478 26.8886 20.9821 27.44L4 34.8237V42.1334C4 44.716 5.4118 46.9674 7.50542 48.1617C7.96427 42.8421 12.4275 38.6667 17.8665 38.6667C23.6102 38.6667 28.2665 43.3223 28.2665 49.0667H71.7329C71.7329 43.3223 76.3885 38.6667 82.1329 38.6667C87.5719 38.6667 92.0354 42.8421 92.4945 48.1617C94.5884 46.9674 95.9995 44.716 95.9995 42.1334V10.9333C95.9995 7.10458 92.8951 4 89.0662 4H17.4282ZM46.1739 23.0667V16.1334C46.1739 14.218 47.7253 12.6667 49.6405 12.6667H56.5737C58.4892 12.6667 60.0405 14.218 60.0405 16.1334V23.0667C60.0405 24.9819 58.4892 26.5332 56.5737 26.5332H49.6405C47.7253 26.5332 46.1739 24.9819 46.1739 23.0667ZM28.2665 16.1334C28.2665 14.218 29.8183 12.6667 31.7331 12.6667H38.6663C40.581 12.6667 42.1331 14.218 42.1331 16.1334V42.1334C42.1331 44.0486 40.581 45.6 38.6663 45.6H31.7331C29.8183 45.6 28.2665 44.0486 28.2665 42.1334V16.1334ZM77.9071 16.1334C77.9071 14.218 79.4583 12.6667 81.3738 12.6667H88.307C90.2223 12.6667 91.7736 14.218 91.7736 16.1334V23.0667C91.7736 24.9819 90.2223 26.5332 88.307 26.5332H81.3738C79.4583 26.5332 77.9071 24.9819 77.9071 23.0667V16.1334ZM62.0404 23.0667V16.1334C62.0404 14.218 63.5919 12.6667 65.5071 12.6667H72.4404C74.3559 12.6667 75.9072 14.218 75.9072 16.1334V23.0667C75.9072 24.9819 74.3559 26.5332 72.4404 26.5332H65.5071C63.5919 26.5332 62.0404 24.9819 62.0404 23.0667ZM17.8665 56C21.6955 56 24.7998 52.8957 24.7998 49.0667C24.7998 45.2378 21.6955 42.1334 17.8665 42.1334C14.0373 42.1334 10.9333 45.2378 10.9333 49.0667C10.9333 52.8957 14.0373 56 17.8665 56ZM17.8682 45.6C19.7827 45.6 21.3348 47.1513 21.3348 49.0667C21.3348 50.9819 19.7827 52.5332 17.8682 52.5332C15.9535 52.5332 14.4015 50.9819 14.4015 49.0667C14.4015 47.1513 15.9535 45.6 17.8682 45.6ZM82.1329 56C85.9616 56 89.0662 52.8957 89.0662 49.0667C89.0662 45.2378 85.9616 42.1334 82.1329 42.1334C78.304 42.1334 75.1994 45.2378 75.1994 49.0667C75.1994 52.8957 78.304 56 82.1329 56ZM82.1346 45.6C84.0499 45.6 85.6012 47.1513 85.6012 49.0667C85.6012 50.9819 84.0499 52.5332 82.1346 52.5332C80.2192 52.5332 78.6679 50.9819 78.6679 49.0667C78.6679 47.1513 80.2192 45.6 82.1346 45.6Z" fill="black"/>
</svg>
