<svg width="71" height="61" viewBox="0 0 71 61" fill="none" xmlns="http://www.w3.org/2000/svg">
<path fill-rule="evenodd" clip-rule="evenodd" d="M8.43151 34.0819C8.76172 34.0555 9.0956 34.0556 9.43151 34.0819C9.76171 34.0555 10.0956 34.0556 10.4315 34.0819C10.7617 34.0555 11.0956 34.0556 11.4315 34.0819C11.7617 34.0555 12.0956 34.0556 12.4315 34.0819C12.7617 34.0555 13.0956 34.0556 13.4315 34.0819C13.6112 34.0675 13.792 34.061 13.9737 34.0623L21.4786 25.5341C19.1981 24.5356 16.928 23.5371 14.6606 22.5398L14.659 22.5391C12.3513 21.5241 10.0465 20.5103 7.73659 19.4991C6.82559 19.1371 6.22359 18.6251 5.77559 18.0701C5.13759 17.2791 4.73559 16.3101 4.73559 14.9811C4.73559 14.8951 4.73859 14.8091 4.74359 14.7231C4.84159 13.2031 4.89059 11.6831 4.93959 10.1311C4.98598 7.26432 7.65097 4.95994 10.5164 5.25684C10.8444 5.22299 11.179 5.22188 11.5164 5.25684C11.8444 5.22299 12.179 5.22188 12.5164 5.25684C12.8444 5.22299 13.179 5.22188 13.5164 5.25684C13.8444 5.22299 14.179 5.22188 14.5164 5.25684C14.8444 5.22299 15.179 5.22188 15.5164 5.25684C15.8444 5.22299 16.179 5.22188 16.5164 5.25684C16.8444 5.22299 17.179 5.22188 17.5164 5.25684C17.8444 5.22299 18.179 5.22188 18.5164 5.25684C18.8443 5.22299 19.179 5.22188 19.5164 5.25684C19.9407 5.21304 20.3763 5.22405 20.8146 5.2971L20.8264 5.29919L20.8336 5.30061L20.8466 5.3031L20.8526 5.3041C21.761 5.4641 22.6557 5.62439 23.551 5.7848L23.5515 5.78489C24.357 5.92922 25.1632 6.07366 25.9806 6.2181C26.0046 6.2221 26.0276 6.2261 26.0516 6.2311C29.7618 6.95464 33.5122 7.5976 37.2277 8.23158C39.909 6.28008 42.5829 4.32171 45.2296 2.3361C46.5556 1.3421 47.9616 0.428101 49.6866 0.165101C50.5086 0.0250993 51.3009 -0.0263018 52.0609 0.0124364C52.4001 -0.00421159 52.7335 -0.00425261 53.0609 0.0124364C53.4001 -0.00421213 53.7335 -0.00425287 54.0609 0.0124369C54.4001 -0.00421161 54.7335 -0.00425278 55.0609 0.0124364C55.4001 -0.00421161 55.7335 -0.00425261 56.0609 0.0124364C56.4001 -0.00421161 56.7335 -0.00425261 57.0609 0.0124364C57.4001 -0.0042116 57.7335 -0.00425261 58.0609 0.0124364C58.4001 -0.00421162 58.7335 -0.0042526 59.0609 0.0124364C59.4001 -0.00421154 59.7335 -0.00425262 60.0609 0.0124362C60.4001 -0.00421174 60.7335 -0.00425254 61.0609 0.0124368C64.032 -0.133389 66.5584 0.994943 68.4996 3.4801C68.5126 3.4961 68.5246 3.5111 68.5366 3.5271C70.7806 6.4901 70.9666 9.8041 69.3506 13.1251C69.3236 13.1811 69.2956 13.2371 69.2656 13.2911C68.8748 14.0084 68.3844 14.6196 67.8662 15.2656L67.8016 15.3461L67.7211 15.454C65.3289 18.659 62.9372 21.8635 60.5826 25.1061C61.1563 28.2696 61.8734 32.2823 62.5697 36.1783L62.5703 36.1818L62.5706 36.1833L62.5709 36.1849L62.5711 36.1864L62.5717 36.1896C63.5762 41.8102 64.5371 47.1869 64.9616 49.4221C64.9676 49.4521 64.9726 49.4811 64.9776 49.5111C65.4816 52.5381 63.4766 55.0701 60.4506 55.3221C60.4226 55.3251 60.3956 55.3271 60.3676 55.3281L57.9296 55.4811L57.884 55.4839C57.1692 55.528 56.4544 55.572 55.7396 55.6611C55.3129 55.7143 54.9232 55.7173 54.5646 55.6803C54.2056 55.7144 53.8736 55.7122 53.5646 55.6803C53.2056 55.7144 52.8736 55.7122 52.5646 55.6803C52.2056 55.7144 51.8736 55.7122 51.5646 55.6803C51.2056 55.7144 50.8736 55.7122 50.5646 55.6803C50.2056 55.7144 49.8736 55.7122 49.5646 55.6803C49.2056 55.7144 48.8736 55.7122 48.5646 55.6803C48.2056 55.7144 47.8736 55.7122 47.5646 55.6803C47.2056 55.7144 46.8736 55.7122 46.5646 55.6803C46.2056 55.7144 45.8736 55.7122 45.5646 55.6803C44.315 55.7988 43.3915 55.478 42.6316 54.9981C41.9176 54.5471 41.2756 53.8891 40.8126 52.8271C39.966 50.912 38.6619 48.112 37.3319 45.2965C36.5586 45.9694 35.7851 46.6422 35.0106 47.3151C35.2698 48.0485 35.5341 48.8134 35.7596 49.4663L35.7607 49.4693L35.7627 49.475C35.8371 49.6904 35.9072 49.8935 35.9716 50.0791C35.9946 50.1481 36.0176 50.2181 36.0376 50.2881C36.6146 52.3091 36.2306 54.3121 34.9446 55.8841C33.9166 57.1531 32.3016 58.9901 31.9106 59.2641C30.8208 60.0273 29.841 60.1898 29.0186 60.0664C28.6644 60.1189 28.3302 60.1132 28.0186 60.0664C27.6644 60.1189 27.3302 60.1132 27.0186 60.0664C26.6644 60.1189 26.3302 60.1132 26.0186 60.0664C25.6644 60.1189 25.3302 60.1132 25.0186 60.0664C24.6644 60.1189 24.3302 60.1132 24.0186 60.0664C23.6644 60.1189 23.3302 60.1132 23.0186 60.0664C22.6644 60.1189 22.3302 60.1132 22.0186 60.0664C21.6644 60.1189 21.3302 60.1132 21.0186 60.0664C20.6644 60.1189 20.3302 60.1132 20.0186 60.0664C18.4581 60.2976 17.2862 59.3997 16.7236 58.8371L1.56059 43.6741C1.23759 43.4051 0.981586 43.1001 0.774586 42.8021C0.438586 42.3171 -1.01141 39.9911 1.21359 37.6991C1.44859 37.4571 3.09459 36.1731 4.22959 35.3081L4.25121 35.2917L4.26352 35.2824C4.27579 35.2731 4.28805 35.264 4.30059 35.2551C5.54635 34.3499 6.97002 33.9671 8.43151 34.0819ZM8.53259 38.1354C7.87259 37.9824 7.21259 38.0844 6.65359 38.4904C6.48441 38.6193 6.30115 38.7584 6.11295 38.9013C5.1153 39.6586 3.97878 40.5214 4.06459 40.5214L4.11595 40.5728C9.27749 45.7343 14.3887 50.8455 19.5506 56.0084C19.6391 56.096 20.6439 54.8475 21.472 53.8185C21.5986 53.6611 21.7211 53.5089 21.8356 53.3674C22.2926 52.8094 22.3946 52.0984 22.1916 51.3874C22.1266 51.1998 22.0555 50.9938 21.98 50.775C21.5242 49.454 20.9076 47.6674 20.5156 46.6654C20.3636 46.2594 20.4136 46.0054 20.7696 45.7004C22.4281 44.2619 24.081 42.8233 25.7339 41.3848C29.04 38.5073 32.3461 35.6299 35.6976 32.7524C35.8496 32.6004 41.7906 45.1424 44.4816 51.2354C44.6346 51.5904 44.8376 51.7424 45.2436 51.6924C46.0556 51.5904 46.8686 51.5394 47.6806 51.4894L50.1176 51.3364C50.7276 51.2854 51.1336 50.7784 51.0316 50.1684C50.608 47.9356 49.6491 42.5713 48.6458 36.9576C47.8467 32.4871 47.0194 27.8585 46.4116 24.5274C46.4116 24.2734 46.4626 23.9684 46.6146 23.7654C49.2545 20.1095 51.9454 16.5046 54.6364 12.8997L54.6366 12.8994C54.7104 12.8074 54.7841 12.717 54.8572 12.6273C55.1875 12.2224 55.5049 11.8333 55.7546 11.3764C56.6676 9.49743 56.6176 7.61843 55.3476 5.94343C54.0786 4.31843 52.3516 3.75943 50.3206 4.11543C49.328 4.25695 48.5557 4.83889 47.7977 5.41001C47.7416 5.45227 47.6856 5.49447 47.6296 5.53643C43.9736 8.27843 40.2676 10.9694 36.5606 13.6604C36.3576 13.8134 36.1546 13.8644 35.9006 13.8134C34.5551 13.5849 33.2096 13.3437 31.8641 13.1024C30.5186 12.8612 29.1731 12.6199 27.8276 12.3914C27.5267 12.34 27.2256 12.2887 26.9242 12.2373C23.0549 11.5771 19.1487 10.9108 15.2856 10.1574C14.4226 10.0049 13.5721 9.85268 12.7216 9.70043C11.8711 9.54818 11.0206 9.39593 10.1576 9.24343C9.54759 9.14143 8.93859 9.59843 8.93859 10.2084C8.88759 11.8334 8.83659 13.4074 8.73559 14.9814C8.73559 15.3874 8.83659 15.6414 9.24359 15.7934C11.6807 16.86 14.1053 17.9263 16.5299 18.9925C18.9543 20.0588 21.3787 21.125 23.8156 22.1914C25.2376 22.8004 27.9286 24.2734 27.8276 24.3744C23.3586 29.4524 18.8906 34.5294 14.4226 39.6074C14.2196 39.8614 14.0666 39.8614 13.7626 39.7594C12.6925 39.3144 10.5666 38.7121 9.10127 38.2969C8.89738 38.2392 8.70628 38.185 8.53259 38.1354Z" fill="black"/>
</svg>
