<svg width="78" height="60" viewBox="0 0 78 60" fill="none" xmlns="http://www.w3.org/2000/svg">
<path fill-rule="evenodd" clip-rule="evenodd" d="M70.9938 29.9999C73.4877 29.9999 75.8117 31.3419 77.0587 33.5009C77.9937 35.1199 78.2417 37.0059 77.7577 38.8129C77.2907 40.5559 76.1947 42.0229 74.6627 42.9639L52.4798 58.2778C52.4718 58.2833 52.4641 58.2888 52.4564 58.2943C52.4486 58.2998 52.4408 58.3053 52.4328 58.3108C50.7808 59.4158 48.8578 59.9998 46.8708 59.9998H36.8729C36.0579 59.9998 35.2419 59.8988 34.4509 59.7018C34.4229 59.6948 34.3949 59.6878 34.3679 59.6808L19.8089 55.7148C19.2369 55.8968 18.6289 55.9998 17.9969 55.9998H5.99998C2.69099 55.9998 0 53.3088 0 49.9998V33.9999C0 30.6909 2.69099 27.9999 5.99998 27.9999H20.5759C22.2109 25.6749 24.5069 23.8649 27.1799 22.8719C25.1939 20.4549 23.9999 17.3649 23.9999 14C23.9999 6.27998 30.2799 0 37.9999 0H47.9968C55.7168 0 61.9968 6.27998 61.9968 14C61.9968 17.3569 60.8078 20.4409 58.8298 22.8549C62.2808 24.1089 65.0778 26.6789 66.6368 29.9999H70.9938ZM38.0015 23.999C43.5245 23.999 48.0015 19.521 48.0015 13.999C48.0015 8.47703 43.5245 3.99902 38.0015 3.99902C32.4785 3.99902 28.0015 8.47703 28.0015 13.999C28.0015 19.521 32.4785 23.999 38.0015 23.999ZM6.00147 51.9991H8.00147C9.10547 51.9991 10.0015 51.1031 10.0015 49.9991V33.9991C10.0015 32.895 9.10547 31.999 8.00147 31.999H6.00147C4.89747 31.999 4.00146 32.895 4.00146 33.9991V49.9991C4.00146 51.1031 4.89747 51.9991 6.00147 51.9991ZM62.5015 39.5981C63.9365 38.7701 64.4275 36.935 63.5995 35.5C62.7705 34.064 60.9365 33.573 59.5015 34.401L46.4755 41.4281C46.1195 41.6201 45.9125 42.0081 45.9615 42.4091C46.0575 43.2031 45.9695 44.052 45.6425 44.914C44.9215 46.821 43.0085 48.0171 40.9695 47.9981L40.8375 47.997L40.8295 47.9961H25.0015C24.4495 47.9961 24.0015 47.5481 24.0015 46.9961C24.0015 46.4431 24.4495 45.9961 25.0015 45.9961H40.9755C40.9845 45.9961 40.9935 45.9981 41.0025 45.9981C42.6595 45.9981 44.0015 44.6551 44.0015 42.9991C44.0015 41.3431 42.6595 39.9991 41.0025 39.9991H31.1805C30.4045 39.9991 29.6385 39.818 28.9445 39.471L19.0574 34.5271C18.3634 34.1801 17.5975 33.9991 16.8215 33.9991H12.0015V49.9991H13.3875C13.7955 49.9991 14.2025 50.049 14.5985 50.148L35.4215 55.82C37.0645 56.23 38.8045 55.9281 40.2125 54.9851L62.5015 39.5981ZM22.2325 33.877L29.8385 37.682C30.2535 37.889 30.7175 37.9981 31.1805 37.9981L41.0025 37.9991C42.6425 37.9991 44.0995 38.7921 45.0125 40.0161C45.1685 39.8841 45.3405 39.7671 45.5265 39.6671L53.9575 35.119C53.5105 30.009 49.2275 25.9981 44.0015 25.9981H32.0015C27.2075 25.9981 23.2055 29.374 22.2325 33.877Z" fill="black"/>
</svg>
