<svg width="205" height="46" viewBox="0 0 205 46" fill="none" xmlns="http://www.w3.org/2000/svg">
<path fill-rule="evenodd" clip-rule="evenodd" d="M108.643 0.00012207H131.2V0.371706C132.527 0.127575 133.895 0.00012207 135.293 0.00012207H145.543V3.65411C149.082 1.34328 153.307 0.00012207 157.843 0.00012207H166.043C178.484 0.00012207 188.585 10.1042 188.585 22.5502V27.6763H154.866C156.247 30.6802 158.802 33.0339 161.942 34.1462C164.246 33.3299 166.236 31.8448 167.677 29.9252L168.908 28.2864H177.108L182.032 31.9819C182.265 31.6702 182.521 31.3738 182.8 31.0954C184.336 29.559 186.42 28.6958 188.593 28.6958H188.607H196.793H196.807C198.98 28.6958 201.064 29.559 202.6 31.0954C204.137 32.6318 205 34.7156 205 36.8884V36.901C205 39.0756 204.136 41.161 202.598 42.6987C201.061 44.2363 198.975 45.1002 196.801 45.1002H196.799H188.601H188.599C186.425 45.1002 184.339 44.2363 182.801 42.6987C181.909 41.8058 181.243 40.7281 180.842 39.5555C176.881 43.0085 171.704 45.1002 166.043 45.1002H157.843C145.401 45.1002 135.3 34.9961 135.3 22.5502C135.3 18.5102 136.364 14.717 138.227 11.4363C134.074 13.4102 131.2 17.6471 131.2 22.5502V34.848H135.3V45.1002H82V41.4414C78.4609 43.7548 74.2326 45.1002 69.6927 45.1002H61.4927C55.5532 45.1002 50.1469 42.7973 46.1181 39.0357C42.0902 42.7972 36.6831 45.1002 30.7427 45.1002H22.5427C10.1013 45.1002 0 34.9961 0 22.5502C0 10.1042 10.1013 0.00012207 22.5427 0.00012207H30.7427C36.6831 0.00012207 42.0902 2.30313 46.1181 6.06465C50.1469 2.30298 55.5532 0.00012207 61.4927 0.00012207H69.6927C76.1561 0.00012207 81.9879 2.72704 86.1 7.09261V0.00012207H104.55V0.371706C105.877 0.127575 107.245 0.00012207 108.643 0.00012207ZM104.55 22.5502C104.55 17.1985 107.974 12.6405 112.75 10.9515V34.848H108.65H104.55V22.5502ZM73.7855 22.5502C73.7855 17.2012 70.3645 12.645 65.5928 10.9541C60.821 12.645 57.4 17.2012 57.4 22.5502C57.4 27.8991 60.821 32.4553 65.5928 34.1462C70.3645 32.4553 73.7855 27.8991 73.7855 22.5502ZM18.45 22.5502C18.45 17.2012 21.871 12.645 26.6425 10.9543C28.9455 11.7704 30.9339 13.2542 32.3752 15.1722L33.606 16.81L39.6881 16.8102C39.2065 18.6427 38.95 20.5667 38.95 22.5502C38.95 24.5336 39.2065 26.4576 39.6881 28.2901L33.606 28.2903L32.3752 29.9281C30.9339 31.8461 28.9455 33.3299 26.6425 34.146C21.871 32.4553 18.45 27.8991 18.45 22.5502ZM169.019 17.424C167.639 14.4201 165.083 12.0665 161.943 10.954C158.802 12.0664 156.247 14.4201 154.867 17.424H169.019ZM38.8848 34.802C35.1445 39.7793 29.1927 43.0007 22.4948 43.0007C11.1846 43.0007 2.00207 33.815 2.00207 22.5008C2.00207 11.1865 11.1846 2.00074 22.4948 2.00074C29.1927 2.00074 35.1445 5.22219 38.8848 10.1996L33.9661 13.8912C31.3482 10.4076 27.1826 8.15294 22.4948 8.15294C14.5789 8.15294 8.15205 14.582 8.15205 22.5008C8.15205 30.4195 14.5789 36.8486 22.4948 36.8486C27.1826 36.8486 31.3482 34.5939 33.9661 31.1103L38.8848 34.802ZM61.5364 2.00074C50.2262 2.00074 41.0437 11.1865 41.0437 22.5008C41.0437 33.815 50.2262 43.0007 61.5364 43.0007C72.8467 43.0007 82.0292 33.815 82.0292 22.5008C82.0292 11.1865 72.8467 2.00074 61.5364 2.00074ZM61.5364 8.15294C69.4524 8.15294 75.8791 14.582 75.8791 22.5008C75.8791 30.4195 69.4524 36.8486 61.5364 36.8486C53.6204 36.8486 47.1937 30.4195 47.1937 22.5008C47.1937 14.582 53.6204 8.15294 61.5364 8.15294ZM188.636 30.8324C187.006 30.8324 185.444 31.4796 184.292 32.6315C183.14 33.7835 182.493 35.3459 182.493 36.975V36.9876C182.493 38.6185 183.141 40.1825 184.294 41.3357C185.447 42.4889 187.011 43.1368 188.642 43.1368H188.644C190.275 43.1368 191.839 42.4889 192.992 41.3357C194.145 40.1825 194.793 38.6185 194.793 36.9876V36.975C194.793 35.3459 194.146 33.7835 192.994 32.6315C191.842 31.4796 190.279 30.8324 188.65 30.8324H188.636ZM157.838 36.8486C150.977 36.8486 145.235 32.0193 143.826 25.5768H178.33V22.508L178.323 22.5008H178.33C178.33 11.1865 169.148 2.00074 157.838 2.00074C146.527 2.00074 137.345 11.1865 137.345 22.5008C137.345 33.815 146.527 43.0007 157.838 43.0007C164.537 43.0007 170.489 39.7783 174.23 34.7985L169.311 31.1068C166.694 34.5924 162.527 36.8486 157.838 36.8486ZM143.826 19.4246H171.849C170.44 12.9822 164.698 8.15294 157.838 8.15294C150.977 8.15294 145.235 12.9822 143.826 19.4246ZM120.968 7.86431C124.665 4.23785 129.729 2.00074 135.31 2.00074V8.15294C127.394 8.15294 120.968 14.582 120.968 22.5008V36.8486H125.068V43.0007H110.718V36.8486H114.818V2.00074H120.968V7.86431ZM98.4386 36.8486H94.3387V22.5008C94.3387 14.582 100.765 8.15294 108.681 8.15294V2.00074C103.1 2.00074 98.0364 4.23785 94.3387 7.86431V2.00074H88.1886V36.8486H84.0887V43.0007H98.4386V36.8486Z" fill="black"/>
</svg>
