<svg width="94" height="60" viewBox="0 0 94 60" fill="none" xmlns="http://www.w3.org/2000/svg">
<path fill-rule="evenodd" clip-rule="evenodd" d="M82.8501 25.8799H89.5C90.6929 25.8828 91.8359 26.3574 92.6792 27.2012C93.5225 28.0439 93.9976 29.1875 94 30.3799V47.5C93.9976 48.6924 93.5225 49.8359 92.6792 50.6787C91.8359 51.5225 90.6929 51.9971 89.5 52H79.29C78.3589 52.8252 77.2549 53.4141 76.0708 53.7305C75.4004 53.9102 74.7046 54.002 74 54H72.4702C72.1431 54.3652 71.7734 54.6885 71.3701 54.9629C71.0796 55.1602 70.771 55.332 70.4482 55.4766C69.6782 55.8213 68.8438 56 68 56H44C44 56.6123 43.8594 57.2109 43.5957 57.752C43.4033 58.1475 43.1455 58.5117 42.8286 58.8281C42.0781 59.5781 41.061 60 40 60H12C10.939 60 9.92188 59.5781 9.17139 58.8281C8.42139 58.0781 8 57.0605 8 56V55C8 53.1436 8.7373 51.3633 10.0503 50.0498C11.3628 48.7373 13.1436 48 15 48V47.1201C10.8589 45.9023 7.19482 43.4355 4.50977 40.0557C1.82471 36.6758 0.249512 32.5488 0 28.2402V27V26C0 24.4092 0.632324 22.8828 1.75732 21.7578C2.88281 20.6318 4.40869 20 6 20H6.1001C6.14111 19.8184 6.19189 19.6387 6.25146 19.4619C6.3042 19.3057 6.36377 19.1514 6.43018 19C6.15039 18.3701 6.00391 17.6895 6 17V15C6 11.0215 7.58057 7.20605 10.3936 4.39355C13.2065 1.58008 17.022 0 21 0H21.2798H31H31.2798C34.3892 0.0947266 37.3926 1.14844 39.8809 3.01465C42.3687 4.88184 44.2192 7.47168 45.1802 10.4297C46.6719 8.4375 48.6069 6.81934 50.832 5.70312C52.0845 5.0752 53.4102 4.61523 54.7734 4.33301C55.8315 4.11426 56.9126 4.00195 58 4H68C72.2437 4 76.313 5.68555 79.3135 8.68652C82.3145 11.6865 84 15.7568 84 20C83.9966 22.0156 83.606 24.0117 82.8501 25.8799ZM10.7344 17.9639C10.8203 17.9873 10.9097 18 11 18H31C31.2651 18 31.5195 17.8945 31.707 17.707C31.7852 17.6289 31.8486 17.54 31.8965 17.4434C31.9639 17.3066 32 17.1553 32 17V15.3604C32.0361 12.4336 30.9287 9.60938 28.9131 7.4873C26.8979 5.36621 24.1343 4.11426 21.21 4C19.748 3.97168 18.2949 4.23633 16.936 4.77637C15.5771 5.31641 14.3394 6.12207 13.2959 7.14648C12.252 8.1709 11.4229 9.39258 10.8569 10.7412C10.291 12.0898 9.99951 13.5381 10 15V17C10 17.2656 10.1055 17.5195 10.293 17.707C10.4165 17.8301 10.5688 17.918 10.7344 17.9639ZM79.25 47.9297L71 42.6602C70.6978 42.4854 70.4463 42.2344 70.271 41.9326C70.0957 41.6309 70.002 41.2891 70 40.9395V37.1299C70.0039 36.7822 70.0981 36.4424 70.2734 36.1426C70.2969 36.1025 70.3218 36.0635 70.3481 36.0254C70.4346 35.8975 70.5356 35.7812 70.6484 35.6777C70.7554 35.5791 70.873 35.4932 71 35.4199L79.2402 30C79.2876 29.9707 79.3398 29.9502 79.3936 29.9385C79.4258 29.9316 79.459 29.9277 79.4922 29.9268C79.5811 29.9258 79.6689 29.9473 79.7461 29.9912C79.8237 30.0352 79.8882 30.0986 79.9326 30.1758C79.9771 30.2529 80.0005 30.3408 80 30.4297V47.5C79.9995 47.5869 79.9761 47.6729 79.9316 47.749C79.8877 47.8242 79.8247 47.8867 79.7485 47.9307C79.6729 47.9736 79.5869 47.9971 79.499 47.9971C79.4619 47.9971 79.4253 47.9922 79.3896 47.9844C79.3408 47.9727 79.2935 47.9551 79.25 47.9297ZM25.0708 37.2207C23.7129 37.7617 22.2612 38.0264 20.7998 38C17.875 37.8857 15.1099 36.6348 13.0928 34.5127C11.0762 32.3916 9.96631 29.5674 10 26.6396V21C10 20.9131 10.0112 20.8271 10.0332 20.7441C10.0781 20.5752 10.1665 20.4189 10.2925 20.293C10.48 20.1055 10.7344 20 11 20H31C31.1436 20 31.2842 20.0312 31.4126 20.0898C31.521 20.1387 31.6211 20.207 31.707 20.293C31.8945 20.4805 32 20.7344 32 21V27C32 27.248 31.9917 27.4961 31.9751 27.7432C31.9546 28.041 31.9224 28.3369 31.8784 28.6318C31.8066 29.1094 31.7036 29.583 31.5698 30.0479C31.4517 30.458 31.3091 30.8613 31.1436 31.2559C30.5786 32.6045 29.7505 33.8252 28.7075 34.8496C27.665 35.874 26.4287 36.6797 25.0708 37.2207ZM37.4199 24.5898C37.2979 24.4668 37.1606 24.3604 37.0127 24.2734C36.8223 24.1621 36.6143 24.082 36.396 24.0381C36.0073 23.959 35.604 23.998 35.2378 24.1494C34.8711 24.2998 34.5581 24.5566 34.3374 24.8857L34.2974 24.9482C34.2681 24.9961 34.2407 25.0439 34.2158 25.0938C34.1807 25.1631 34.1494 25.2354 34.1226 25.3086C34.0415 25.5293 33.9995 25.7627 34 26V27C34 30.4473 32.6304 33.7539 30.1924 36.1924C27.7544 38.6299 24.4478 40 21 40C17.5522 40 14.2456 38.6299 11.8076 36.1924C9.36963 33.7539 8 30.4473 8 27V26C8 25.7969 7.96924 25.5967 7.91016 25.4062C7.81445 25.0996 7.64551 24.8174 7.41406 24.585C7.20605 24.377 6.95703 24.2197 6.68604 24.1211C6.46826 24.042 6.23633 24 6 24C5.46973 24 4.96094 24.21 4.58594 24.585C4.21094 24.9609 4 25.4688 4 26V27V28C4.23828 31.9854 5.87207 35.7598 8.61475 38.6611C11.3574 41.5635 15.0342 43.4072 19 43.8701V49C19 49.2646 18.9648 49.5254 18.8975 49.7764C18.8618 49.9102 18.8169 50.042 18.7627 50.1699C18.6133 50.5215 18.397 50.8457 18.1211 51.1211C17.5586 51.6836 16.7954 52 16 52H15C14.5337 52 14.0781 52.1084 13.668 52.3115C13.5386 52.376 13.4141 52.4492 13.2949 52.5312C13.147 52.6338 13.0078 52.749 12.8789 52.8779C12.5532 53.2041 12.3101 53.5967 12.1631 54.0234C12.0562 54.335 12 54.665 12 55V56H30V55C30 54.2041 29.6841 53.4414 29.1211 52.8779C28.8765 52.6328 28.5938 52.4355 28.2871 52.29C28.0889 52.1953 27.8804 52.123 27.6655 52.0742C27.5493 52.0479 27.4312 52.0283 27.312 52.0166C27.2085 52.0059 27.1045 52 27 52H26C25.2046 52 24.4414 51.6836 23.8789 51.1211C23.3159 50.5586 23 49.7949 23 49V43.8701C26.9658 43.4072 30.6426 41.5635 33.3853 38.6611C36.1279 35.7598 37.7617 31.9854 38 28V27V26C38.0005 25.4717 37.792 24.9648 37.4199 24.5898ZM50.3867 10.7246C52.5332 8.96289 55.2236 8 58 8C60.1152 7.99512 62.1938 8.5498 64.0254 9.60645C65.8574 10.6631 67.3774 12.1855 68.4312 14.0195C68.8291 14.7119 69.1553 15.4395 69.4067 16.1904C69.8218 17.4287 70.0332 18.7314 70.0278 20.0479C70.019 22.1621 69.4521 24.2373 68.3838 26.0625C68.2051 26.3672 68.0137 26.6631 67.8101 26.9502C67.5493 27.3174 67.2686 27.6689 66.9697 28.0029C66.7671 28.2285 66.5562 28.4473 66.3374 28.6572C65.6196 29.3467 64.8159 29.9463 63.9429 30.4404C62.103 31.4834 60.02 32.0205 57.9053 31.999C55.7905 31.9775 53.7188 31.3975 51.9004 30.3174C50.082 29.2383 48.5811 27.6963 47.5503 25.8496C47.0117 27.457 46.0308 28.8789 44.7197 29.9531C43.4092 31.0264 41.8218 31.708 40.1401 31.9199C40.2852 31.3584 40.4058 30.791 40.502 30.2197C40.6167 29.5381 40.6963 28.8506 40.7402 28.1602V27V26.5801C41.3198 26.3027 41.8237 25.8906 42.21 25.377C42.5962 24.8643 42.8535 24.2656 42.9595 23.6318C43.0654 22.999 43.0171 22.3486 42.8193 21.7383C42.7251 21.4473 42.5981 21.1699 42.4419 20.9102C42.3364 20.7344 42.2168 20.5664 42.085 20.4092C42.0396 20.3545 41.9927 20.3008 41.9443 20.249L41.8213 20.1221C41.3638 19.6709 40.8042 19.3369 40.1904 19.1484C39.5767 18.96 38.9263 18.9209 38.2944 19.0371C37.6626 19.1523 37.0684 19.418 36.561 19.8125C36.0537 20.2061 35.6484 20.7168 35.3804 21.2998C35.1641 21.332 34.9502 21.3789 34.7402 21.4404V15.3604V15.0703C36.647 14.0488 38.8579 13.749 40.9678 14.2246C43.0776 14.7002 44.9458 15.9199 46.2305 17.6602C46.7715 14.9365 48.2407 12.4854 50.3867 10.7246ZM54.1113 25.8203C55.2622 26.5898 56.6157 27 58 27C59.8569 27 61.6372 26.2627 62.9502 24.9502C64.2627 23.6367 65 21.8564 65 20C65 18.6152 64.5898 17.2617 63.8203 16.1113C63.6201 15.8115 63.3979 15.5293 63.1562 15.2666C62.9155 15.0039 62.6553 14.7607 62.3784 14.5381C62.0869 14.3037 61.7759 14.0938 61.4492 13.9092C61.2012 13.7686 60.9443 13.6426 60.6792 13.5332C59.3999 13.0029 57.9927 12.8643 56.6348 13.1348C55.2769 13.4043 54.0293 14.0713 53.0503 15.0498C52.0713 16.0293 51.4048 17.2764 51.1348 18.6348C50.8647 19.9922 51.0034 21.3994 51.5332 22.6787C52.063 23.958 52.96 25.0508 54.1113 25.8203ZM67.5601 30.2002C64.8564 32.7314 61.2607 34.0879 57.5591 33.9736C53.8574 33.8594 50.3521 32.2832 47.8101 29.5898C47.2964 30.2783 46.7051 30.9023 46.0503 31.4502C45.4609 31.9424 44.8198 32.373 44.1367 32.7344C42.6943 33.4971 41.1001 33.9297 39.4702 34C37.7402 38.5801 34.3633 42.3496 30 44.5703V46C30 46.4844 30.0879 46.96 30.2549 47.4053C30.4536 47.9346 30.7642 48.4209 31.1714 48.8281C31.9219 49.5781 32.939 50 34 50H38C38 50.5303 38.2109 51.0391 38.5859 51.4141C38.9609 51.7891 39.4697 52 40 52H58C58.5303 52 59.0391 51.7891 59.4141 51.4141C59.6318 51.1963 59.7944 50.9326 59.8921 50.6465C59.9629 50.4404 60 50.2217 60 50H64C65.061 50 66.0781 49.5781 66.8286 48.8281C67.3096 48.3477 67.6553 47.7568 67.8418 47.1152C67.9458 46.7559 68 46.3809 68 46V32C68.0005 31.373 67.8496 30.7559 67.5601 30.2002ZM44 47C44 47.2646 43.8945 47.5195 43.707 47.707C43.6392 47.7744 43.563 47.832 43.4805 47.877C43.3345 47.957 43.1694 48 43 48H41C40.7349 48 40.4805 47.8945 40.293 47.707C40.2134 47.6279 40.1489 47.5361 40.1006 47.4365C40.0352 47.3018 40 47.1523 40 47V39C40 38.7344 40.1055 38.4805 40.293 38.293C40.4805 38.1055 40.7349 38 41 38H43C43.1089 38 43.2158 38.0176 43.3174 38.0518C43.4629 38.1006 43.5967 38.1826 43.707 38.293C43.8169 38.4033 43.8989 38.5352 43.9478 38.6797C43.9819 38.7822 44 38.8906 44 39V47ZM51 47C51 47.2646 50.8945 47.5195 50.707 47.707C50.5195 47.8945 50.2651 48 50 48H48C47.7349 48 47.4805 47.8945 47.293 47.707C47.1055 47.5195 47 47.2646 47 47V39C47 38.7344 47.1055 38.4805 47.293 38.293C47.4805 38.1055 47.7349 38 48 38H50C50.1221 38 50.2422 38.0225 50.3545 38.0645C50.4224 38.0898 50.4873 38.123 50.5483 38.1631C50.605 38.2012 50.6582 38.2441 50.707 38.293C50.7944 38.3799 50.8643 38.4814 50.9136 38.5928C50.9702 38.7197 51 38.8584 51 39V47ZM58 47C58 47.2646 57.8945 47.5195 57.707 47.707C57.6479 47.7656 57.5825 47.8164 57.5122 47.8584C57.3867 47.9336 57.2461 47.9805 57.1001 47.9951L57 48H55C54.9253 48 54.8516 47.9912 54.7798 47.9746C54.7271 47.9629 54.6758 47.9473 54.626 47.9268C54.5024 47.877 54.3887 47.8027 54.293 47.707C54.1943 47.6084 54.1182 47.4902 54.0684 47.3623C54.0234 47.248 54 47.125 54 47V39C54 38.7344 54.1055 38.4805 54.293 38.293C54.4805 38.1055 54.7349 38 55 38H57C57.2651 38 57.5195 38.1055 57.707 38.293C57.8945 38.4805 58 38.7344 58 39V47Z" fill="black"/>
</svg>
