<svg width="90" height="60" viewBox="0 0 90 60" fill="none" xmlns="http://www.w3.org/2000/svg">
<path fill-rule="evenodd" clip-rule="evenodd" d="M9.97803 15.0406C10.0273 14.9508 10.0791 14.8619 10.1338 14.774C10.3403 14.441 10.5854 14.1246 10.8662 13.8404C10.8721 13.8404 10.877 13.8297 10.8828 13.8199L17.1738 7.52988C17.2529 7.4498 17.335 7.38047 17.4199 7.31016C18.1602 6.68027 19.0581 6.27012 20.0151 6.11973L20.3242 6.09043C23.7422 3.13047 27.4731 1.24961 30.7051 0.550391C31.9072 0.290625 33.0576 0.191016 34.1357 0.235938C34.293 0.229102 34.4487 0.226172 34.603 0.226172C34.7808 0.225196 34.957 0.229102 35.1309 0.235938C35.4692 0.222266 35.8013 0.223242 36.127 0.235938C36.4668 0.222266 36.8003 0.222266 37.1274 0.235938C37.2856 0.229102 37.4424 0.226172 37.5977 0.226172C37.7759 0.225196 37.9526 0.229102 38.1279 0.235938C38.4692 0.222266 38.8042 0.222266 39.1328 0.235938C39.4688 0.222266 39.7988 0.223242 40.1221 0.235938C40.4634 0.222266 40.7983 0.222266 41.127 0.235938C41.4668 0.222266 41.8003 0.222266 42.1274 0.235938C42.2803 0.230078 42.4316 0.226172 42.582 0.226172C42.7656 0.225196 42.9473 0.228125 43.1274 0.235938C44.9502 0.162696 46.5977 0.485938 47.9819 1.13438C48.9526 0.694922 49.9766 0.377539 51.0303 0.191992C51.1987 0.162696 51.3677 0.136328 51.5376 0.113867C52.1382 0.0328128 52.7451 -0.00527315 53.3579 0.000586227L53.6006 0.00449248L53.749 0.00937529C53.9517 0.00156279 54.1543 -0.0013669 54.3579 0.000586227L54.5024 0.00156279L54.7559 0.00937529L55.041 0.00253935L55.3579 0.000586227C55.4897 0.000586227 55.6211 0.00449248 55.7524 0.00937529C55.9536 0.00156279 56.1558 -0.0013669 56.3579 0.000586227C56.4897 0.000586227 56.6221 0.00449248 56.7534 0.00937529C56.9546 0.00156279 57.1558 -0.0013669 57.3579 0.000586227C57.4888 0.000586227 57.6196 0.00449248 57.75 0.00937529C57.9521 0.00156279 58.1548 -0.0013669 58.3579 0.000586227L58.5791 0.00351591L58.7505 0.00937529C58.9526 0.00156279 59.1548 -0.0013669 59.3579 0.000586227C59.4897 0.000586227 59.6216 0.00449248 59.7529 0.00937529C59.9541 0.00156279 60.1558 -0.0013669 60.3579 0.000586227L60.5435 0.00253935L60.7515 0.00937529C60.9531 0.00156279 61.1553 -0.0013669 61.3579 0.000586227L61.5601 0.00351591L61.7549 0.00937529C61.9556 0.00156279 62.1562 -0.0013669 62.3579 0.000586227C62.4902 0.000586227 62.6221 0.00449248 62.7539 0.00937529C62.9546 0.00156279 63.1562 -0.0013669 63.3579 0.000586227C66.564 0.0201175 69.6431 1.26035 71.9819 3.4498L71.9902 3.45762C71.9961 3.46152 72.002 3.46348 72.0078 3.47031C73.8042 5.19004 75.0532 7.39023 75.6001 9.81016C75.6509 10.0357 75.6953 10.2613 75.7334 10.4879C75.7891 10.816 75.8311 11.1451 75.8604 11.4752C75.8853 11.7564 75.9009 12.0387 75.9067 12.3209C75.9326 13.5338 75.7827 14.7447 75.46 15.9205C80.501 18.61 83.9321 23.9205 83.9321 30.0299C83.9321 34.1197 82.4009 37.8404 79.8828 40.6705C80.2739 40.7896 80.6602 40.9303 81.041 41.0797C82.7959 41.8004 84.3901 42.86 85.73 44.2105C87.0708 45.5504 88.1328 47.1402 88.8521 48.8902C89.5688 50.6402 89.9331 52.5104 89.9229 54.4V56.0006C89.9229 58.2105 88.1318 60.0006 85.9229 60.0006H39.9741C39.6143 60.0006 39.2656 59.9537 38.9336 59.8648C38.7847 59.8248 38.6387 59.776 38.4971 59.7193C38.3599 59.6646 38.2266 59.6021 38.0972 59.5338L38.0308 59.4977C37.1548 59.0104 36.481 58.2027 36.1675 57.233C34.2554 58.7027 31.9517 59.5934 29.543 59.7799C29.4082 59.7955 29.2729 59.8072 29.1377 59.8141C28.96 59.8229 28.7817 59.8238 28.604 59.817C28.5166 59.8131 28.4287 59.8082 28.3413 59.8004C28.0083 59.8287 27.6738 59.8287 27.3413 59.8004C27.1943 59.8131 27.0474 59.8199 26.9004 59.8219L26.6675 59.8199L26.5664 59.816L26.3848 59.8043L26.3394 59.8004C26.0107 59.8277 25.6802 59.8287 25.3521 59.8014L25.3403 59.8004C25.2324 59.8102 25.1245 59.816 25.0166 59.8189C24.9097 59.8219 24.8027 59.8219 24.6963 59.8199L24.5601 59.815L24.3408 59.8004C24.23 59.8092 24.1187 59.816 24.0073 59.8199L23.8608 59.8219L23.707 59.8209C23.5845 59.818 23.4619 59.8111 23.3394 59.8004C23.0083 59.8287 22.6748 59.8287 22.3442 59.8004C22.0508 59.8258 21.7563 59.8287 21.4634 59.8092L21.3433 59.8004C21.1367 59.818 20.9302 59.8248 20.7236 59.8209C20.5947 59.818 20.4663 59.8111 20.3384 59.8004C20.1562 59.815 19.9736 59.8209 19.791 59.8209C19.6411 59.8209 19.4912 59.8131 19.3418 59.8004C18.8843 59.8395 18.4233 59.8248 17.9697 59.7564C17.6504 59.7076 17.3345 59.6324 17.0259 59.5299C16.1289 59.2301 15.3218 58.7105 14.6782 58.0201L14.7002 58.0299C14.647 57.9898 14.5952 57.94 14.5439 57.8902L14.4858 57.8297C14.1934 57.5475 13.9297 57.2369 13.6982 56.902C13.4546 56.5494 13.2461 56.1705 13.0762 55.7701C12.7349 54.9801 12.5601 54.1197 12.5591 53.2506C11.6929 53.2506 10.8359 53.0797 10.0391 52.7398C9.24219 52.4 8.52197 51.9 7.92285 51.2701L7.6958 51.0406L7.56885 50.9098C6.55908 49.8102 6.00488 48.3697 6.01709 46.8805L6.01807 46.8102C6.06689 44.8404 6.58984 42.9 7.54395 41.1803C8.49805 39.4498 9.854 37.9801 11.498 36.8902C11.502 36.8805 11.5068 36.8805 11.5112 36.8805L11.7188 36.7438L11.7412 36.7291L11.7837 36.7027L11.8657 36.652L12.0283 36.5553L11.9629 36.5523L11.749 36.5357C11.5874 36.5504 11.4277 36.5602 11.2651 36.5602C10.5 36.5602 9.74414 36.4 9.03906 36.11C8.34277 35.8102 7.71094 35.3902 7.18018 34.8502L1.7041 29.3697C1.16797 28.8404 0.741211 28.2105 0.449219 27.5201C0.346191 27.274 0.260742 27.0221 0.192871 26.7662C0.0649414 26.2828 0 25.7867 0 25.2906C0 24.5299 0.151855 23.7701 0.449219 23.0602C0.745117 22.36 1.1792 21.7203 1.7251 21.1803L1.75781 21.15L6.40918 16.6998C6.93408 16.1803 7.55518 15.7604 8.23926 15.4703C8.50391 15.36 8.77637 15.2711 9.05371 15.2008C9.35693 15.1246 9.66602 15.0719 9.97803 15.0406ZM43.3696 27.7398C43.7256 25.3902 44.6479 23.1627 46.0571 21.2486C47.4663 19.3355 49.3198 17.7926 51.458 16.7555L48.562 13.86L49.8604 9.06602L54.6533 7.76816L58.1484 11.2633L57.0503 15.2574H57.9487C59.0903 15.2857 60.2271 15.4195 61.3442 15.6568C61.9482 14.0748 62.0713 12.3492 61.6982 10.6969C61.3252 9.04453 60.4727 7.53965 59.2471 6.3707C57.6406 4.86484 55.5264 4.01816 53.3252 3.99961C51.1235 3.98105 48.9951 4.7916 47.3638 6.27012C46.2437 7.34434 45.4238 8.69297 44.9858 10.1822C44.8223 10.7379 44.7144 11.3063 44.6616 11.8785C44.645 12.0592 44.6338 12.2398 44.6284 12.4205C44.6172 12.7818 44.6279 13.1432 44.6606 13.5025C44.6831 13.7477 44.7158 13.9908 44.7588 14.234L44.8037 14.4713C44.8232 14.568 44.8442 14.6637 44.8672 14.7584C44.9199 14.9674 44.9204 15.1861 44.8682 15.3951C44.8154 15.6041 44.7124 15.7975 44.5679 15.9566L37.2783 23.2467L42.6704 28.3395L43.3696 27.7398ZM12.5132 32.0338L17.1069 27.44L17.1768 27.3688C17.2236 27.317 17.2666 27.2633 17.3066 27.2076C17.3813 27.1021 17.4443 26.9889 17.4946 26.8688C17.5186 26.8121 17.5391 26.7545 17.5566 26.6959C17.5796 26.6197 17.5977 26.5426 17.6099 26.4645C17.6206 26.3961 17.6274 26.3268 17.6299 26.2564L17.6313 26.192C17.6313 25.9596 17.585 25.7291 17.4946 25.5152C17.4521 25.4127 17.3999 25.315 17.3389 25.2232C17.272 25.1227 17.1938 25.0289 17.1069 24.9439L16.8071 24.6441C16.7109 24.5338 16.6577 24.3912 16.6577 24.2447C16.6577 24.0982 16.7109 23.9557 16.8071 23.8453L17.606 23.0465C17.7168 22.9498 17.8589 22.8971 18.0054 22.8971C18.1523 22.8971 18.2939 22.9498 18.4048 23.0465C18.499 23.1285 18.6045 23.1949 18.7173 23.2438L18.7822 23.2701C18.8169 23.2828 18.8521 23.2936 18.8872 23.3023L18.9282 23.3131C18.9678 23.3229 19.0078 23.3297 19.0483 23.3355L19.1318 23.3443L19.2036 23.3453C19.4971 23.3453 19.7808 23.2389 20.0024 23.0465L26.3936 16.6559C26.5464 16.4801 26.646 16.2652 26.6816 16.0357C26.7168 15.8053 26.6865 15.5699 26.5933 15.357C26.4937 15.1578 26.4937 14.858 26.6934 14.7584C29.7812 11.5357 33.1201 8.56406 36.6792 5.8707C36.7578 5.8248 36.8232 5.75938 36.8687 5.68027C36.9141 5.60215 36.938 5.5123 36.938 5.42148C36.938 5.33066 36.9141 5.24082 36.8687 5.16172C36.853 5.13438 36.835 5.10898 36.8145 5.08457L36.7681 5.03672L36.7202 4.99863L36.6792 4.97227C33.3838 2.9752 27.0928 5.07188 21.8999 10.065L21.8516 10.1148L21.8066 10.149L21.7827 10.1646C21.7324 10.1949 21.6772 10.2154 21.6187 10.2252C21.5513 10.2359 21.4829 10.232 21.4185 10.2145C21.3774 10.2027 21.3379 10.1861 21.3008 10.1646C21.0869 10.0748 20.8525 10.0465 20.6235 10.0816C20.5483 10.0934 20.4746 10.1119 20.4033 10.1363L20.311 10.1725L20.2324 10.2105L20.1909 10.233L20.1084 10.2848L20.0503 10.3268L20.0024 10.3648L13.7114 16.6559C13.6494 16.7184 13.5952 16.7867 13.5488 16.8609C13.5078 16.9254 13.4731 16.9938 13.4453 17.0641C13.3989 17.1822 13.3706 17.3072 13.3623 17.4352C13.3438 17.7291 13.4326 18.0201 13.6118 18.2535C13.6704 18.3023 13.7173 18.3629 13.75 18.4322C13.7822 18.5006 13.7993 18.5768 13.7993 18.6529C13.7993 18.6822 13.7969 18.7105 13.792 18.7389L13.7876 18.7623C13.7793 18.8004 13.7666 18.8375 13.75 18.8736C13.7173 18.942 13.6704 19.0035 13.6118 19.0523L12.813 19.8512C12.7021 19.9469 12.5601 20.0006 12.4136 20.0006L12.3662 19.9996L12.314 19.9918L12.2534 19.9791C12.2227 19.9703 12.1929 19.9596 12.1636 19.9469C12.1323 19.9332 12.1025 19.9166 12.0742 19.8971C12.0532 19.8834 12.0332 19.8678 12.0142 19.8512L11.7144 19.5514C11.5518 19.3854 11.3574 19.2535 11.1431 19.1637C11.0386 19.1197 10.9302 19.0855 10.8198 19.0631C10.7036 19.0387 10.5854 19.027 10.4663 19.027C10.2334 19.027 10.0034 19.0729 9.78906 19.1637L9.70312 19.2027L9.63916 19.2359L9.52246 19.3043L9.45361 19.3502C9.36963 19.4098 9.29053 19.4771 9.21777 19.5514L4.52441 24.0445C4.3584 24.2076 4.22656 24.402 4.13623 24.6158C4.04639 24.8307 4 25.0611 4 25.2936C4 25.526 4.04639 25.7555 4.13623 25.9703C4.22656 26.1842 4.3584 26.3785 4.52441 26.5416L10.0166 32.0338C10.1797 32.1998 10.3735 32.3316 10.5879 32.4215C10.7358 32.484 10.8916 32.525 11.0498 32.5445C11.1211 32.5533 11.1929 32.5582 11.2651 32.5582C11.4312 32.5582 11.5957 32.5348 11.7544 32.4889C11.8179 32.4703 11.8804 32.4479 11.9419 32.4215L12.0293 32.3814L12.0952 32.3482C12.1494 32.3189 12.2021 32.2867 12.2529 32.2525C12.3462 32.1881 12.4336 32.1148 12.5132 32.0338ZM21.4385 39.024C21.6475 38.9723 21.8403 38.8688 22 38.7242L26.6934 33.7311L31.7861 39.1236L27.0928 43.817L27.0474 43.8697L27.0034 43.9273L26.9502 44.0074L26.9214 44.0553C26.8643 44.1568 26.8208 44.2652 26.7925 44.3785C26.769 44.4723 26.7559 44.5689 26.7534 44.6656C26.751 44.7828 26.7642 44.9 26.793 45.0152C27.2144 46.4654 27.2319 48.0035 26.8452 49.4645C26.458 50.9244 25.6807 52.2516 24.5962 53.3033C23.1338 54.7809 21.1792 55.6695 19.104 55.7994C18.8325 55.8482 18.5532 55.8287 18.2915 55.7408C18.0298 55.6539 17.7939 55.5025 17.6064 55.3004L17.3066 55.0006C17.0703 54.775 16.8823 54.5045 16.7539 54.2037C16.6255 53.9029 16.5591 53.5797 16.5591 53.2535C16.5591 52.9264 16.6255 52.6031 16.7539 52.3033C16.8823 52.0025 17.0703 51.7311 17.3066 51.5055L20.0029 48.8092C20.2817 48.5465 20.4849 48.2125 20.5898 47.8434C20.6953 47.4742 20.6997 47.0836 20.6021 46.7125C20.5049 46.3473 20.3115 46.0143 20.042 45.7486C19.7725 45.483 19.4365 45.2945 19.0693 45.2027L18.9277 45.1725L18.7974 45.1529C18.5156 45.1207 18.229 45.1461 17.9551 45.2271C17.5923 45.3346 17.2651 45.5367 17.0068 45.8141L14.311 48.5104C14.0854 48.7467 13.814 48.9342 13.5137 49.0631C13.2134 49.191 12.8901 49.2574 12.5635 49.2574C12.2368 49.2574 11.9136 49.191 11.6128 49.0631C11.4619 48.9986 11.3184 48.9195 11.1846 48.8268C11.0518 48.734 10.9282 48.6275 10.8159 48.5104L10.5161 48.2105C10.3936 48.0768 10.2915 47.9273 10.2124 47.7672C10.0825 47.5035 10.0146 47.2105 10.0171 46.9127C10.0498 45.5826 10.4028 44.2799 11.0459 43.1148C11.2012 42.8336 11.3726 42.5621 11.5586 42.3014C11.6318 42.1988 11.7075 42.0982 11.7856 41.9996C11.8501 41.9176 11.9165 41.8365 11.9844 41.7564C12.2632 41.4283 12.5674 41.1227 12.894 40.8424C13.1528 40.6197 13.4258 40.4127 13.7119 40.2223C14.2607 39.8609 14.8462 39.5621 15.457 39.3307C15.9976 39.1256 16.5576 38.9732 17.1304 38.8766C18.3511 38.6705 19.6016 38.7203 20.8018 39.023C20.9136 39.0514 21.0278 39.065 21.1421 39.0631C21.2036 39.0621 21.2651 39.0563 21.3262 39.0475L21.3931 39.0348L21.4385 39.024ZM69.9321 30.0367C69.9321 36.6549 64.5669 42.0201 57.9492 42.0201C51.3311 42.0201 45.9658 36.6549 45.9658 30.0367C45.9658 23.4186 51.3311 18.0543 57.9492 18.0543C64.5669 18.0543 69.9321 23.4186 69.9321 30.0367ZM47.9531 44.2848C47.4155 44.4098 46.8877 44.5777 46.3745 44.7877C45.1104 45.3063 43.9614 46.0709 42.9951 47.0377C42.0293 48.0035 41.2646 49.152 40.7461 50.4166C40.2271 51.6803 39.9648 53.0357 39.9741 54.402V55.9996H75.9233V54.402C75.9326 53.0357 75.6704 51.6803 75.1519 50.4166C75.0474 50.1617 74.9331 49.9117 74.8091 49.6676C74.3174 48.6969 73.6743 47.8092 72.9023 47.0377C71.936 46.0709 70.7876 45.3063 69.5234 44.7877C69.3662 44.7232 69.2075 44.6627 69.0474 44.6061C68.3208 44.3502 67.5684 44.1754 66.8042 44.0855C66.3848 44.0367 65.9619 44.0133 65.5381 44.0162H50.3594C49.5474 44.0113 48.7397 44.1012 47.9531 44.2848ZM28.0908 18.3531L21.7002 24.7447L41.1724 45.0152C43.1963 42.9967 45.8281 41.6979 48.6621 41.3209C46.0557 39.1891 44.2578 36.2291 43.5693 32.9322L28.0908 18.3531Z" fill="black"/>
</svg>
