<svg width="91" height="61" viewBox="0 0 91 61" fill="none" xmlns="http://www.w3.org/2000/svg">
<path fill-rule="evenodd" clip-rule="evenodd" d="M18.298 47.2443C18.6303 47.2598 18.964 47.2599 19.298 47.2443C19.6303 47.2598 19.964 47.2599 20.2979 47.2443C21.4637 47.2985 22.6462 47.1639 23.7984 46.828V50.2136C23.7984 56.1687 28.6258 60.9961 34.581 60.9961C34.7485 60.9961 34.9152 60.9923 35.081 60.9847C35.2467 60.9923 35.4134 60.9961 35.581 60.9961C35.7485 60.9961 35.9152 60.9923 36.0809 60.9847C36.2467 60.9923 36.4134 60.9961 36.581 60.9961C36.7485 60.9961 36.9152 60.9923 37.0809 60.9847C37.2467 60.9923 37.4134 60.9961 37.581 60.9961C37.7485 60.9961 37.9152 60.9923 38.0809 60.9847C38.2467 60.9923 38.4134 60.9961 38.581 60.9961C38.7485 60.9961 38.9152 60.9923 39.0809 60.9847C39.2467 60.9923 39.4134 60.9961 39.581 60.9961C39.7485 60.9961 39.9152 60.9923 40.0809 60.9847C40.2467 60.9923 40.4134 60.9961 40.581 60.9961C40.7485 60.9961 40.9152 60.9923 41.0809 60.9847C41.2467 60.9923 41.4134 60.9961 41.581 60.9961C41.7485 60.9961 41.9152 60.9923 42.0809 60.9847C42.2467 60.9923 42.4134 60.9961 42.581 60.9961C42.7485 60.9961 42.9152 60.9923 43.0809 60.9847C43.2467 60.9923 43.4134 60.9961 43.581 60.9961C43.7485 60.9961 43.9152 60.9923 44.0809 60.9847C44.2467 60.9923 44.4134 60.9961 44.581 60.9961C49.3063 60.9961 53.322 57.9563 54.7787 53.7254C55.3006 57.8259 58.8026 60.9961 63.0449 60.9961H81.7116C86.3139 60.9961 90.045 57.265 90.045 52.6627V52.0029C90.045 48.5492 89.6669 45.1058 88.9179 41.7346L88.5372 40.0219C88.186 38.441 87.399 37.0492 86.3197 35.9614L86.3293 35.9529L86.3708 35.9159C86.3878 35.9005 86.4049 35.8849 86.4218 35.8693C87.6815 34.708 88.588 32.8608 88.2369 30.7278L88.2332 30.7055L84.0317 6.05059L84.0293 6.03612C83.4498 2.56876 80.2115 0.996094 77.6803 0.996094H77.0763C77.0107 0.996094 76.9447 0.997148 76.8783 0.999263C76.8118 0.997148 76.7458 0.996094 76.6803 0.996094H76.0763C76.0107 0.996094 75.9447 0.997148 75.8783 0.999263C75.8118 0.997148 75.7458 0.996094 75.6803 0.996094H75.0763C75.0107 0.996094 74.9447 0.997148 74.8783 0.999263C74.8118 0.997148 74.7458 0.996094 74.6803 0.996094H74.0763C74.0107 0.996094 73.9447 0.997148 73.8783 0.999263C73.8118 0.997148 73.7458 0.996094 73.6803 0.996094H73.0763C73.0107 0.996094 72.9447 0.997148 72.8783 0.999263C72.8118 0.997148 72.7458 0.996094 72.6803 0.996094H72.0763C72.0107 0.996094 71.9447 0.997148 71.8783 0.999263C71.8118 0.997148 71.7458 0.996094 71.6803 0.996094H71.0763C71.0107 0.996094 70.9447 0.997148 70.8783 0.999263C70.8118 0.997148 70.7458 0.996094 70.6803 0.996094H70.0763C70.0107 0.996094 69.9447 0.997148 69.8783 0.999263C69.8118 0.997148 69.7458 0.996094 69.6803 0.996094H69.0763C69.0107 0.996094 68.9447 0.997148 68.8783 0.999263C68.8118 0.997148 68.7458 0.996094 68.6803 0.996094H68.0763C68.0107 0.996094 67.9447 0.997148 67.8783 0.999263C67.8118 0.997148 67.7458 0.996094 67.6803 0.996094H67.0763C64.545 0.996094 61.3056 2.56917 60.7269 6.03799L60.7248 6.05059L59.7388 11.8369C59.685 11.8415 59.6313 11.8472 59.5777 11.8539C59.2444 11.8119 58.9084 11.8123 58.5777 11.8539C58.2444 11.8119 57.9084 11.8123 57.5777 11.8539C57.2444 11.8119 56.9084 11.8123 56.5777 11.8539C56.2444 11.8119 55.9084 11.8123 55.5777 11.8539C55.2444 11.8119 54.9084 11.8123 54.5777 11.8539C54.2444 11.8119 53.9084 11.8123 53.5777 11.8539C53.2444 11.8119 52.9084 11.8123 52.5777 11.8539C52.2444 11.8119 51.9084 11.8123 51.5777 11.8539C50.7166 11.7454 49.8378 11.9195 49.0776 12.3584L46.3202 13.9505V4.99609C46.3202 2.78695 44.5293 0.996094 42.3202 0.996094C42.1206 0.996094 41.9225 1.00296 41.7263 1.01646C41.5928 1.00299 41.4573 0.996094 41.3202 0.996094C41.1206 0.996094 40.9225 1.00296 40.7263 1.01646C40.5928 1.00299 40.4573 0.996094 40.3202 0.996094C40.1206 0.996094 39.9225 1.00296 39.7263 1.01646C39.5928 1.00299 39.4573 0.996094 39.3202 0.996094C39.1206 0.996094 38.9225 1.00296 38.7263 1.01646C38.5928 1.00299 38.4573 0.996094 38.3202 0.996094C38.1206 0.996094 37.9225 1.00296 37.7263 1.01646C37.5928 1.00299 37.4573 0.996094 37.3202 0.996094C37.1206 0.996094 36.9225 1.00296 36.7263 1.01646C36.5928 1.00299 36.4573 0.996094 36.3202 0.996094C36.1206 0.996094 35.9225 1.00296 35.7263 1.01646C35.5928 1.00299 35.4573 0.996094 35.3202 0.996094C35.1206 0.996094 34.9225 1.00296 34.7263 1.01646C34.5928 1.00299 34.4573 0.996094 34.3202 0.996094C34.1206 0.996094 33.9225 1.00296 33.7263 1.01646C33.5928 1.00299 33.4573 0.996094 33.3202 0.996094C33.1206 0.996094 32.9225 1.00296 32.7263 1.01646C32.597 1.00342 32.4659 0.996536 32.3332 0.996114L32.3202 0.996094C27.6134 0.996094 23.7984 4.81162 23.7984 9.51801V26.1178C22.6617 25.7875 21.4717 25.6434 20.2783 25.6989C19.9459 25.6835 19.6122 25.6834 19.2783 25.6989C18.9459 25.6835 18.6122 25.6834 18.2783 25.6989C17.9459 25.6835 17.6122 25.6834 17.2783 25.6989C16.9459 25.6835 16.6122 25.6834 16.2783 25.6989C15.9459 25.6835 15.6122 25.6834 15.2783 25.6989C14.9459 25.6835 14.6122 25.6834 14.2783 25.6989C13.9459 25.6835 13.6122 25.6834 13.2783 25.6989C12.9459 25.6835 12.6122 25.6834 12.2783 25.6989C11.9459 25.6835 11.6122 25.6834 11.2782 25.6989C9.28846 25.6065 7.24979 26.0639 5.39674 27.1337C0.239493 30.1111 -1.52763 36.7054 1.44979 41.8626C3.53615 45.4765 7.39854 47.4257 11.298 47.2443C11.6303 47.2598 11.964 47.2599 12.298 47.2443C12.6303 47.2598 12.964 47.2599 13.2979 47.2443C13.6303 47.2598 13.964 47.2599 14.2979 47.2443C14.6303 47.2598 14.964 47.2599 15.298 47.2443C15.6303 47.2598 15.964 47.2599 16.2979 47.2443C16.6303 47.2598 16.964 47.2599 17.2979 47.2443C17.6303 47.2598 17.964 47.2599 18.298 47.2443ZM55.8389 41.7347C55.4343 43.5552 55.1379 45.3966 54.9509 47.2492C53.8178 43.278 50.4652 40.2426 46.3202 39.5704V33.8358C46.829 33.7674 47.3275 33.6007 47.7866 33.3357L56.9798 28.0284L56.5236 30.7055L56.52 30.727C56.1684 32.8605 57.0752 34.708 58.3348 35.8693L58.3703 35.9018L58.3911 35.9206L58.4284 35.9538L58.437 35.9614C57.3576 37.0492 56.5706 38.4412 56.2195 40.0224L55.8389 41.7347ZM32.32 4.99609C29.8226 4.99609 27.7982 7.02059 27.7982 9.51801V50.2136C27.7982 53.9596 30.8348 56.9961 34.5808 56.9961C38.3265 56.9961 41.3633 53.9596 41.3633 50.2136C41.3633 46.4676 38.3265 43.4308 34.5808 43.4308C33.7881 43.4308 33.027 43.5669 32.32 43.8168V4.99609ZM34.5808 52.2483C33.457 52.2483 32.5459 51.3374 32.5459 50.2136C32.5459 49.0898 33.457 48.1786 34.5808 48.1786C35.7046 48.1786 36.6154 49.0898 36.6154 50.2136C36.6154 51.3374 35.7046 52.2483 34.5808 52.2483ZM35.7865 29.8715L49.4224 21.9995C51.585 20.7509 52.326 17.9854 51.0775 15.8225L35.7865 24.6508V29.8715ZM14.1783 42.3461L24.3315 36.4844V31.2644L17.4581 35.2328C17.321 34.4949 17.0582 33.7671 16.6615 33.0802C14.7886 29.8361 10.6406 28.7249 7.39649 30.5978C4.15242 32.4707 3.04087 36.6186 4.91375 39.8627C6.78663 43.1068 10.9342 44.2184 14.1783 42.3461ZM11.8049 38.2338C10.8319 38.7957 9.58749 38.4623 9.02535 37.4891C8.46371 36.516 8.79704 35.2713 9.77031 34.7096C10.7436 34.1475 11.988 34.4811 12.5499 35.4541C13.1118 36.4274 12.7782 37.6721 11.8049 38.2338ZM67.6801 4.99609H67.0761C65.8603 4.99609 64.8322 5.72484 64.6714 6.7008L60.4666 31.3774C60.2725 32.555 61.4041 33.5962 62.871 33.5962H71.8852C73.3523 33.5962 74.4837 32.555 74.2899 31.3774L70.0847 6.7008C69.924 5.72484 68.8961 4.99609 67.6801 4.99609ZM70.4022 37.496H64.354C62.3233 37.496 60.5644 38.9067 60.1242 40.8894L59.7434 42.6025C59.0575 45.689 58.7114 48.841 58.7114 52.0029V52.6627C58.7114 55.0559 60.6516 56.9961 63.0448 56.9961H71.7114C74.1046 56.9961 76.0448 55.0559 76.0448 52.6627V52.0029C76.0448 48.841 75.6987 45.689 75.013 42.6025L74.6322 40.8894C74.1917 38.9067 72.4331 37.496 70.4022 37.496ZM70.4687 41.4377C71.4033 41.2301 72.3291 41.8194 72.5369 42.7538C73.25 45.9636 73.61 49.242 73.61 52.5301C73.61 53.4875 72.834 54.2635 71.8766 54.2635C70.9193 54.2635 70.1432 53.4875 70.1432 52.5301C70.1432 49.495 69.8112 46.4688 69.1526 43.5059C68.9451 42.5713 69.5341 41.6454 70.4687 41.4377Z" fill="black"/>
</svg>
