<svg width="106" height="60" viewBox="0 0 106 60" fill="none" xmlns="http://www.w3.org/2000/svg">
<path fill-rule="evenodd" clip-rule="evenodd" d="M50 60C52.6135 60 54.835 58.3296 55.6585 56H58.3929C59.4464 56.6347 60.6805 56.9998 62 56.9998H63.0998C64.0103 58.7805 65.863 59.9998 67.9999 59.9998H79.4999C81.6381 59.9998 83.49 58.7801 84.4001 56.9998H101.251C103.871 56.9998 106.001 54.8763 106.001 52.2498C106.001 51.0005 105.518 49.8637 104.729 49.0157C105.523 48.0623 106 46.8364 106 45.4998V18.5C106 15.4642 103.539 13 100.5 13H84.0001V6C84.0001 2.68816 81.3155 0 78 0H32C31.8029 0 31.6074 0.00713133 31.4138 0.0211498C31.2778 0.00716567 31.1397 0 31 0C30.8029 0 30.6074 0.00713089 30.4138 0.0211488C30.2778 0.0071654 30.1397 0 30 0C25.5819 0 22 3.58186 22 8V13H8.49997C8.41601 13 8.33265 13.0026 8.24998 13.0077C8.1673 13.0026 8.08394 13 7.99998 13C7.80814 13 7.6181 13.0077 7.43015 13.0229C7.28883 13.0078 7.14531 13 6.99998 13C3.1341 13 0 16.1341 0 20V49.9998C0 53.8657 3.1341 56.9998 6.99998 56.9998H8.09984C9.01033 58.7805 10.863 59.9998 12.9999 59.9998H24.4999C26.6381 59.9998 28.49 58.7801 29.4001 56.9998H32.8028C33.8404 58.7932 35.7795 60 38 60H50ZM70.0001 6C70.0001 4.896 69.105 4 68 4H32V41C32 41.553 31.553 42 31 42C30.448 42 30 41.553 30 41V4C27.791 4 26 5.791 26 8V48C26 50.209 27.791 52 30 52H34V50H30C28.896 50 28 49.104 28 48V46C28 44.896 28.896 44 30 44H68C69.105 44 70.0001 43.104 70.0001 42V6ZM42 48H68V46H31C30.448 46 30 46.448 30 47C30 47.553 30.448 48 31 48H36V54C36 55.104 36.896 56 38 56H40C41.105 56 42 55.104 42 54V48ZM70.001 51C70.001 50.448 69.553 50 69.001 50H44.001V52H69.001C69.553 52 70.001 51.553 70.001 51ZM72 46.9991L72.001 46.9998H90.4998C91.3286 46.9998 91.9998 46.3278 91.9998 45.4998V18.5C91.9998 17.672 91.3286 17 90.4998 17H74.0001V42C74.0001 43.7764 73.2278 45.3733 72 46.4722V46.9991ZM69.4999 55.9998H69.0543C69.4064 55.9961 69.7498 55.956 70.081 55.8831C69.9023 55.9582 69.706 55.9998 69.4999 55.9998ZM73.3318 48.4998C73.5974 48.9587 73.7921 49.4637 73.9009 49.9998H90.4998V48.4998H73.3318ZM73.9764 51.4998C73.924 52.0285 73.7893 52.5328 73.5853 52.9998H91.2505C91.6645 52.9998 92.0005 52.6645 92.0005 52.2498C92.0005 51.8358 91.6645 51.4998 91.2505 51.4998H73.9764ZM22.8042 51.4998C23.0655 52.0361 23.385 52.5388 23.7545 52.9998H17.5007V51.4998H22.8042ZM22.0154 48.4998C22.0471 49.0145 22.1275 49.516 22.252 49.9998H15.9999V54.4998C15.9999 55.3278 15.3287 55.9998 14.4999 55.9998H12.9999C12.1719 55.9998 11.5 55.3278 11.5 54.4998V49.9998H7.74998C7.33598 49.9998 6.99998 49.6645 6.99998 49.2498C6.99998 48.8358 7.33598 48.4998 7.74998 48.4998H22.0154ZM22 17V46.9998H6.99998C6.17199 46.9998 5.49999 47.6718 5.49999 48.4998V49.9998C5.49999 50.8278 6.17199 51.4998 6.99998 51.4998H9.99996V52.9998H6.99998C5.34324 52.9998 4 51.6565 4 49.9998V20C4 18.3432 5.34324 17 6.99998 17V44.7498C6.99998 45.1646 7.33598 45.4998 7.74998 45.4998C8.16472 45.4998 8.49997 45.1646 8.49997 44.7498V17H22Z" fill="black"/>
</svg>
