<svg width="90" height="60" viewBox="0 0 90 60" fill="none" xmlns="http://www.w3.org/2000/svg">
<path fill-rule="evenodd" clip-rule="evenodd" d="M88.1853 47.4068C88.4033 47.6478 88.6043 47.9088 88.8033 48.2048C88.8563 48.2788 88.9063 48.3538 88.9503 48.4258C90.6353 51.1448 90.2613 54.5948 88.0413 56.8138C88.0413 56.8138 86.2663 58.5758 86.1573 58.6848C85.3093 59.5328 84.1634 59.9998 82.9314 59.9998H25.9955C23.8195 59.9998 21.7316 58.9538 20.4056 57.1928C19.4866 55.9668 18.9996 54.5178 18.9996 53.0038V45.5638C18.9996 44.4449 19.0356 43.3119 19.1056 42.1949L19.6176 34.0019H11.9996C10.9396 34.0019 9.92159 33.5799 9.17159 32.8299L1.17162 24.8299C-0.390377 23.2679 -0.390377 20.7349 1.17162 19.1729L14.7786 5.56498C18.3666 1.97599 23.1375 0 28.2135 0H61.7864C66.8624 0 71.6334 1.97599 75.2214 5.56498L88.8283 19.1729C90.3903 20.7349 90.3903 23.2679 88.8283 24.8299L81.0294 32.6289C81.2294 32.7589 81.4274 32.8929 81.6114 33.0479C81.7414 33.1589 81.8564 33.2659 81.9534 33.3619C82.1074 33.5159 82.2564 33.6849 82.3834 33.8469C82.3962 33.8624 82.4122 33.883 82.4272 33.9021C82.4343 33.9113 82.4412 33.9201 82.4474 33.9279C82.5654 34.0809 82.6834 34.2489 82.8054 34.4409C82.8104 34.4479 82.8284 34.4779 82.8334 34.4849C82.9664 34.6979 83.0854 34.9159 83.1983 35.1549C83.1996 35.1576 83.2008 35.1605 83.202 35.1634C83.2049 35.17 83.2079 35.1769 83.2113 35.1839C83.4803 35.7709 83.6324 36.3649 83.6654 36.9539C83.6864 37.2189 83.7163 37.4829 83.7523 37.7439C83.7654 37.8389 83.7813 37.9339 83.7973 38.0279L83.8263 38.2069L83.8604 38.4219C83.8734 38.5139 83.8874 38.6049 83.9034 38.6949C83.9324 38.8549 84.0554 39.4619 84.0904 39.6109L84.1264 39.7469C84.1644 39.9009 84.2034 40.0569 84.2454 40.2089C84.2904 40.3709 84.4883 41.0119 84.5434 41.1759L84.5804 41.2879L84.6324 41.4449C84.6376 41.4616 84.6428 41.4784 84.648 41.4952C84.6704 41.5673 84.6928 41.6393 84.7204 41.7099C84.7344 41.7458 84.7543 41.7973 84.7775 41.8571C84.8646 42.0822 84.9972 42.425 85.0343 42.4969C85.0713 42.5659 85.1053 42.6369 85.1373 42.7079C85.1513 42.7359 85.1733 42.7839 85.1803 42.8019C85.2643 42.9869 85.3543 43.1699 85.4503 43.3629C85.5133 43.4929 85.5793 43.6219 85.6433 43.7439C85.7323 43.9128 85.8243 44.0799 85.9203 44.2479L85.9733 44.3419L86.0783 44.5258C86.1993 44.7309 86.3253 44.9318 86.4553 45.1308L86.5623 45.3008C86.7283 45.5498 86.9003 45.7948 87.0803 46.0358C87.4893 46.5578 88.0343 47.2378 88.1853 47.4068ZM55.2336 55.9948C56.3452 55.9924 57.4339 55.99 58.4827 55.99H62.3447C63.2587 55.99 64.0007 55.26 64.0007 54.359V54.085H31.9997C31.9997 56.0451 44.6513 56.0177 55.2336 55.9948ZM73.3277 55.857L50.7007 33.229L50.5067 33.423C49.8697 34.06 49.8777 35.101 50.5237 35.747L53.2547 38.478C53.9948 39.2182 54.7614 39.9881 55.5441 40.7741C63.0116 48.2738 71.9419 57.2428 73.3277 55.857ZM31.9897 52.999H63.9997V51.861C62.6417 50.594 61.0917 49.099 59.3197 47.354C59.0567 47.433 58.7937 47.48 58.5417 47.48H55.7657C55.7563 47.48 55.7469 47.4793 55.7374 47.4786C55.7277 47.4778 55.7178 47.477 55.7077 47.477C55.5177 47.475 55.3277 47.467 55.1367 47.441C55.0927 47.4372 55.0503 47.4295 55.008 47.4219C54.983 47.4173 54.958 47.4128 54.9327 47.409C54.8197 47.392 54.7067 47.373 54.5947 47.348C53.6827 47.143 52.8337 46.717 52.1287 46.106C51.8277 45.842 51.5497 45.546 51.3087 45.216L50.2867 43.816C50.2861 43.8148 50.2852 43.814 50.2843 43.8131C50.2837 43.8125 50.2831 43.8118 50.2827 43.811C50.2763 43.804 50.2699 43.7962 50.2648 43.7888C50.262 43.7846 50.2595 43.7806 50.2577 43.777C50.24 43.7545 50.2194 43.7342 50.1987 43.7138C50.1855 43.7008 50.1722 43.6877 50.1597 43.674C50.1537 43.6673 50.1477 43.6606 50.1418 43.6539C50.0968 43.6035 50.052 43.5531 50.0017 43.509C50.0002 43.5075 49.9982 43.506 49.9962 43.5045C49.9942 43.503 49.9922 43.5015 49.9907 43.5C49.7147 43.262 49.3767 43.102 49.0097 43.071C48.9607 43.067 48.9167 43.065 48.8777 43.065C48.8177 43.065 48.7447 43.071 48.6657 43.081C48.6567 43.082 48.6497 43.082 48.6417 43.083C48.5617 43.093 48.4787 43.108 48.3927 43.127L48.3657 43.133C48.2767 43.154 48.1887 43.179 48.1067 43.208C48.1057 43.2085 48.1049 43.209 48.1042 43.2095C48.1034 43.21 48.1027 43.2105 48.1017 43.211C47.9687 43.259 47.8517 43.318 47.7817 43.388C47.5047 43.627 47.2197 43.854 46.9297 44.075C46.8214 44.1573 46.7111 44.2364 46.6009 44.3155C46.5584 44.3459 46.516 44.3764 46.4737 44.407C46.422 44.4444 46.3707 44.482 46.3193 44.5197C46.2167 44.595 46.114 44.6703 46.0087 44.743L46.0677 44.79L46.0687 44.792L48.8887 47.05C49.1257 47.237 49.1657 47.585 48.9777 47.822C48.8787 47.945 48.7397 48.007 48.5977 48.02C48.5901 48.0209 48.5826 48.0234 48.575 48.0258C48.5656 48.0289 48.5561 48.032 48.5467 48.032C48.4257 48.032 48.3037 47.992 48.2027 47.911L45.0417 45.382C45.0062 45.4034 44.9708 45.4239 44.9353 45.4444C44.9178 45.4546 44.9002 45.4647 44.8827 45.475L44.8533 45.4927C44.7 45.5849 44.5458 45.6776 44.3917 45.765L44.3897 45.766L45.5987 46.733L46.6817 47.602C46.9187 47.789 46.9577 48.137 46.7697 48.374C46.6717 48.497 46.5337 48.558 46.3917 48.572C46.3836 48.5729 46.3758 48.5754 46.368 48.5779C46.3583 48.581 46.3486 48.584 46.3387 48.584C46.2177 48.584 46.0967 48.544 45.9947 48.463L43.3597 46.354L43.3277 46.329C43.2917 46.346 43.2567 46.363 43.2217 46.381C43.1782 46.403 43.1349 46.4251 43.0917 46.4472C42.9377 46.5259 42.7839 46.6045 42.6247 46.674L44.4737 48.153C44.7107 48.341 44.7497 48.689 44.5627 48.926C44.4647 49.048 44.3277 49.109 44.1867 49.124C44.1775 49.1245 44.1685 49.1273 44.1597 49.1301C44.1502 49.1331 44.141 49.136 44.1317 49.136C44.0107 49.136 43.8887 49.096 43.7867 49.015L41.4617 47.155C41.4517 47.159 41.4417 47.162 41.4317 47.166H41.4277C41.3957 47.178 41.3617 47.189 41.3297 47.202C41.0967 47.289 40.8617 47.37 40.6257 47.45C40.4567 47.507 40.2867 47.563 40.1157 47.617C39.8927 47.686 39.6677 47.751 39.4427 47.813L39.4143 47.821C39.2959 47.8543 39.1782 47.8874 39.0597 47.918C38.7757 47.99 38.4907 48.056 38.2037 48.117C38.1685 48.1244 38.1336 48.1323 38.0986 48.1402C38.0531 48.1506 38.0075 48.161 37.9617 48.17C37.5827 48.246 37.2027 48.312 36.8187 48.367C36.8187 48.367 35.2697 48.557 34.7497 48.584C34.5767 48.593 34.4097 48.62 34.2457 48.656C34.2383 48.6573 34.2309 48.658 34.2233 48.6587C34.2134 48.6597 34.2034 48.6607 34.1937 48.663C32.9377 48.958 31.9897 50.01 31.9897 51.344V52.999ZM75.2127 53.986C76.1557 53.043 76.2297 51.63 75.5497 50.532C75.5407 50.517 75.5277 50.505 75.5187 50.491C75.4277 50.349 75.3287 50.212 75.2127 50.084C74.8647 49.697 73.9027 48.467 73.9027 48.467C73.6707 48.157 73.4477 47.841 73.2347 47.519C73.208 47.479 73.1823 47.4386 73.1567 47.3983C73.1381 47.3691 73.1196 47.34 73.1007 47.311C72.9417 47.065 72.7857 46.817 72.6357 46.565C72.5869 46.482 72.5397 46.3979 72.4926 46.314C72.475 46.2826 72.4574 46.2513 72.4397 46.22C72.3237 46.016 72.2117 45.812 72.1027 45.605C72.0197 45.447 71.9387 45.287 71.8597 45.126C71.7497 44.903 71.6407 44.679 71.5377 44.453C71.5307 44.4375 71.5232 44.4217 71.5157 44.406C71.5082 44.3902 71.5007 44.3745 71.4937 44.359L71.4907 44.356C71.4867 44.346 71.4817 44.336 71.4767 44.326L68.5177 43.998C68.3887 43.983 68.2747 43.925 68.1887 43.84C68.1809 43.8322 68.1762 43.8229 68.1715 43.8136C68.1678 43.8061 68.164 43.7987 68.1587 43.792C68.0697 43.682 68.0147 43.542 68.0317 43.387C68.0677 43.086 68.3407 42.868 68.6407 42.903L70.9947 43.164C70.9297 42.9979 70.875 42.8285 70.8202 42.6589C70.8068 42.6173 70.7933 42.5756 70.7797 42.534C70.7702 42.5048 70.7601 42.4762 70.7499 42.4472C70.7471 42.4395 70.7444 42.4318 70.7417 42.424L70.7007 42.419L67.3467 42.046C67.2177 42.032 67.1037 41.974 67.0177 41.888C67.0114 41.8817 67.007 41.8735 67.0025 41.865C66.9985 41.8574 66.9944 41.8496 66.9887 41.843C66.8987 41.733 66.8437 41.592 66.8617 41.436C66.8967 41.135 67.1697 40.917 67.4707 40.952L68.8497 41.103L70.3887 41.274L70.3877 41.272H70.3897C70.3397 41.09 70.2917 40.904 70.2457 40.72C70.2394 40.6949 70.2328 40.6701 70.2262 40.6454C70.217 40.6111 70.2078 40.5769 70.1997 40.542L66.1757 40.095C66.0467 40.081 65.9327 40.023 65.8467 39.937C65.8401 39.9304 65.8359 39.922 65.8316 39.9134C65.8282 39.9064 65.8246 39.8993 65.8197 39.893C65.7287 39.783 65.6737 39.641 65.6907 39.484C65.7257 39.184 65.9987 38.966 66.2997 39.001L69.8897 39.399L69.8917 39.398L69.9667 39.406C69.9439 39.2798 69.9247 39.1533 69.9054 39.0265C69.896 38.9644 69.8866 38.9022 69.8767 38.84C69.8684 38.7889 69.86 38.7378 69.8515 38.6868C69.8292 38.5522 69.8068 38.4176 69.7887 38.282C69.7387 37.922 69.6987 37.559 69.6717 37.195C69.6717 37.095 69.6307 36.971 69.5707 36.843C69.5707 36.841 69.5697 36.84 69.5687 36.838C69.5317 36.759 69.4877 36.678 69.4387 36.601C69.4354 36.5958 69.4322 36.591 69.4292 36.586C69.4276 36.5834 69.4261 36.5808 69.4247 36.578C69.3767 36.504 69.3277 36.434 69.2797 36.371C69.2761 36.366 69.2725 36.362 69.2689 36.3575C69.2675 36.3558 69.2661 36.354 69.2647 36.352C69.2157 36.289 69.1677 36.233 69.1257 36.191C69.0977 36.163 69.0647 36.133 69.0277 36.102C68.7457 35.864 68.3937 35.738 68.0307 35.712C68.0282 35.712 68.0259 35.7115 68.0237 35.711C68.0214 35.7105 68.0192 35.71 68.0167 35.71C67.9527 35.7058 67.8887 35.7094 67.824 35.713C67.8119 35.7137 67.7998 35.7144 67.7877 35.715C67.7407 35.718 67.6937 35.713 67.6457 35.719C67.6398 35.7208 67.6314 35.7226 67.6227 35.7237C67.6166 35.7245 67.6104 35.725 67.6047 35.725C67.6032 35.7255 67.6019 35.7255 67.6008 35.7255C67.5997 35.7255 67.5987 35.7255 67.5977 35.726L65.8847 35.993C65.4807 36.056 65.0757 36.069 64.6757 36.042C63.7457 35.976 62.8437 35.678 62.0537 35.178C61.9577 35.115 61.8637 35.049 61.7717 34.981C61.7498 34.9647 61.7275 34.9492 61.7052 34.9337C61.6713 34.9102 61.6372 34.8866 61.6047 34.86C61.4527 34.743 61.3117 34.614 61.1757 34.48C61.1698 34.4745 61.1636 34.4693 61.1575 34.4641C61.1491 34.4571 61.1408 34.45 61.1327 34.442L60.0497 33.36L59.1707 32.48C58.3937 31.703 58.0657 30.216 58.2487 29.133C58.3117 28.762 58.1947 28.382 57.9207 28.109C57.3427 27.531 56.4027 27.527 55.8217 28.109L51.4077 32.522L51.9627 33.077L74.0417 55.157L75.2127 53.986ZM75.9997 22.001L62.3937 8.39399C59.5807 5.58098 55.7657 4 51.7877 4H47.9997C47.9997 7.314 44.4187 8 39.9997 8C35.5817 8 32.0007 7.314 32.0007 4H28.2137C24.2357 4 20.4197 5.58098 17.6067 8.39399L3.99963 22.001L11.9996 30.002L21.0347 20.967L20.3266 16.277C20.1566 15.187 20.9067 14.167 21.9967 13.997L23.4196 23.355C23.5676 24.539 23.6597 25.727 23.7227 26.918C23.7957 28.293 23.8137 29.67 23.7717 31.048C23.7697 31.1132 23.7679 31.1784 23.766 31.2435C23.7522 31.7213 23.7385 32.1991 23.7077 32.676L23.0977 42.445C23.0327 43.483 22.9996 44.523 22.9996 45.564V53.004C22.9996 53.678 23.2307 54.294 23.6067 54.795C24.1547 55.522 25.0187 55.999 25.9967 55.999H29.8597C29.4787 55.484 29.2497 54.861 29.2497 54.085C29.2497 53.909 29.2407 51.345 29.2407 51.345C29.2407 48.788 31.0187 46.585 33.5627 45.987C33.6307 45.971 33.6997 45.958 33.7687 45.947C34.0597 45.888 34.3347 45.853 34.6067 45.839C34.8647 45.825 35.7607 45.727 36.4567 45.642C36.7817 45.595 37.1027 45.539 37.4207 45.475L37.6327 45.428C37.8827 45.374 38.1317 45.318 38.3767 45.255C38.4557 45.235 38.7117 45.163 38.7117 45.163C38.9087 45.109 39.1047 45.052 39.2947 44.993C39.4437 44.946 39.5917 44.898 39.7457 44.845C39.9517 44.776 40.1577 44.705 40.3537 44.631C40.3537 44.631 40.5457 44.561 40.6077 44.542C40.7447 44.497 41.3427 44.235 41.5207 44.157C41.6107 44.1174 41.6974 44.0729 41.7846 44.0282C41.8029 44.0188 41.8213 44.0094 41.8397 44L41.9857 43.925L42.1137 43.862C42.2697 43.786 42.8767 43.462 43.0337 43.373C43.1797 43.29 43.3257 43.204 43.4647 43.121L43.5987 43.042C43.7427 42.953 44.2977 42.584 44.4417 42.485C44.5261 42.4264 44.6085 42.3658 44.6909 42.3053L44.6927 42.304L44.8627 42.18L45.0027 42.079C45.0907 42.016 45.1797 41.953 45.2647 41.888C45.4967 41.711 45.7257 41.529 45.9487 41.339C46.2637 41.052 46.6397 40.826 47.1077 40.647L47.1757 40.622C47.3557 40.558 47.5477 40.501 47.7427 40.456C47.7477 40.455 47.7594 40.4523 47.7711 40.4495C47.7829 40.4468 47.7947 40.444 47.7997 40.443C47.9677 40.406 48.1337 40.377 48.2887 40.357C48.2987 40.355 48.3307 40.352 48.3407 40.351C48.5397 40.327 48.7277 40.316 48.8787 40.316H51.2037L48.5797 37.692C46.8627 35.974 46.8547 33.187 48.5627 31.479L53.8777 26.165C54.5697 25.473 55.4627 25.069 56.4227 24.968C56.4339 24.8418 56.4448 24.7155 56.4556 24.5892C56.4909 24.1782 56.5262 23.7672 56.5767 23.358L56.6017 23.186L57.9967 13.997C58.9967 14.147 59.6967 14.997 59.6967 15.967V15.9672C59.6967 16.0671 59.6967 16.177 59.6767 16.277L58.9677 20.969L67.9997 30.002L75.9997 22.001Z" fill="black"/>
</svg>
