<svg width="72" height="60" viewBox="0 0 72 60" fill="none" xmlns="http://www.w3.org/2000/svg">
<path fill-rule="evenodd" clip-rule="evenodd" d="M4 35.9748C3.92655 36.0504 3.85386 36.1271 3.78195 36.2047C2.586 37.4869 1.66699 38.9701 1.01176 40.6124C0.326878 42.3203 0 44.1223 0 45.9809C0 47.2272 0.14905 48.4542 0.457281 49.6516L0.459709 49.6609C0.756873 50.8038 1.1794 51.8974 1.73204 52.9322L1.74106 52.949C2.2945 53.9734 2.96489 54.918 3.7503 55.7748L3.77064 55.7969C4.56873 56.6545 5.46322 57.4003 6.45181 58.0227L6.47052 58.0344C7.47386 58.6585 8.54782 59.1393 9.68177 59.4771C10.8683 59.8305 12.0902 60 13.3316 60C13.502 60 13.6719 59.9971 13.8415 59.9911C14.0045 59.9971 14.1679 60 14.3316 60C14.502 60 14.6719 59.9971 14.8415 59.9911C15.0045 59.9971 15.1679 60 15.3316 60C15.502 60 15.6719 59.9971 15.8414 59.9911C16.0045 59.9971 16.1679 60 16.3316 60C16.502 60 16.6719 59.9971 16.8415 59.9911C17.0045 59.9971 17.1679 60 17.3316 60C17.502 60 17.6719 59.9971 17.8415 59.9911C18.0045 59.9971 18.1679 60 18.3316 60C18.502 60 18.6719 59.9971 18.8415 59.9911C19.0045 59.9971 19.1679 60 19.3316 60C19.502 60 19.6719 59.9971 19.8415 59.9911C20.0045 59.9971 20.1679 60 20.3316 60C20.502 60 20.6719 59.9971 20.8415 59.9911C21.0045 59.9971 21.1679 60 21.3316 60C21.502 60 21.6719 59.9971 21.8415 59.9911C22.0045 59.9971 22.1679 60 22.3316 60C22.502 60 22.6719 59.9971 22.8415 59.9911C23.0045 59.9971 23.1679 60 23.3316 60C23.5616 60 23.7908 59.9946 24.0192 59.9838C24.1387 59.9945 24.2597 60 24.3819 60H63.0898C65.2989 60 67.0898 58.2091 67.0898 56V52.5118C67.0898 51.016 66.2688 49.712 65.0528 49.0258V46.2253H67.8892C70.0984 46.2253 71.8892 44.4345 71.8892 42.2253V36.3565C71.8892 34.1844 70.1579 32.4166 68 32.358V8C68 6.09281 67.4118 4.21905 66.2762 2.73785C65.1376 1.25267 63.2839 0 60.9333 0H11.0667C8.71612 0 6.86242 1.25267 5.72378 2.73785C4.58819 4.21905 4 6.09281 4 8V35.9748ZM50.9333 4H11.0667C9.37299 4 8 5.79087 8 8.00001V33.1525C9.68228 32.3767 11.4754 32.0001 13.3316 32.0001C14.6771 32.0001 16.0501 32.1652 17.3325 32.6351C18.1896 32.9438 18.9872 33.3965 19.7228 33.9224H21.1738L21.2074 33.9226C21.9386 32.9704 23.0886 32.3566 24.3819 32.3566H32.6442C34.4691 32.3566 36.0085 33.5786 36.4889 35.249C36.9692 33.5786 38.5086 32.3566 40.3335 32.3566H54V8.00001C54 5.79087 52.627 4 50.9333 4ZM33.4763 13.0769C33.3646 13.2045 33.187 13.2524 33.0263 13.1982C32.3732 12.9779 31.6888 12.8648 30.9996 12.8631L30.9968 12.8631C30.309 12.8569 29.6246 12.9617 28.9702 13.1736C28.8095 13.2257 28.6333 13.1763 28.5229 13.0484C28.4126 12.9205 28.3897 12.739 28.4647 12.5877L30.6245 8.23328C30.6955 8.09023 30.8414 7.99981 31.0011 8C31.1608 8.00019 31.3066 8.09095 31.3772 8.23418L33.537 12.6147C33.612 12.7669 33.5881 12.9492 33.4763 13.0769ZM35.9755 14.8365C36.0615 14.688 36.2293 14.6068 36.3991 14.6315L41.1367 15.3195C41.2948 15.3424 41.4262 15.4531 41.4756 15.605C41.525 15.7569 41.4839 15.9237 41.3696 16.0353L38.069 19.2576C37.9503 19.3735 37.7745 19.4086 37.6204 19.3472C37.4662 19.2858 37.3627 19.1394 37.3562 18.9737C37.3038 17.6398 36.8322 16.3564 36.0084 15.306C35.9025 15.171 35.8895 14.985 35.9755 14.8365ZM33.2459 25.1759C33.0914 25.2344 32.9856 25.3781 32.9756 25.543C32.9656 25.7079 33.0533 25.8634 33.1996 25.9402L37.0314 27.9519C37.1729 28.0262 37.3443 28.0137 37.4735 27.9197C37.6027 27.8257 37.6674 27.6665 37.6403 27.509L36.8914 23.1546C36.8628 22.9886 36.7379 22.8558 36.574 22.8171C36.4101 22.7785 36.2389 22.8415 36.1393 22.9772C35.4072 23.974 34.4023 24.7375 33.2459 25.1759ZM24.5266 27.9197C24.3974 27.8257 24.3327 27.6665 24.3598 27.509L25.1088 23.1546C25.1373 22.9886 25.2623 22.8558 25.4262 22.8171C25.5901 22.7785 25.7612 22.8415 25.8609 22.9772C26.593 23.974 27.5978 24.7375 28.7542 25.1759C28.9087 25.2344 29.0145 25.3781 29.0245 25.543C29.0345 25.7079 28.9469 25.8634 28.8006 25.9402L24.9687 27.9519C24.8272 28.0262 24.6558 28.0137 24.5266 27.9197ZM25.9922 15.306C26.0981 15.171 26.1111 14.985 26.0251 14.8365C25.9391 14.688 25.7713 14.6068 25.6015 14.6315L20.8639 15.3195C20.7058 15.3424 20.5744 15.4531 20.525 15.605C20.4756 15.7569 20.5166 15.9237 20.631 16.0353L23.9316 19.2576C24.0503 19.3735 24.2261 19.4086 24.3802 19.3472C24.5344 19.2858 24.6379 19.1394 24.6444 18.9737C24.6968 17.6398 25.1684 16.3564 25.9922 15.306ZM24.2642 18.4478L24.2683 18.4128C24.2715 18.3863 24.2749 18.3597 24.2784 18.3331C24.2733 18.3713 24.2686 18.4095 24.2642 18.4478ZM27.9931 14.5194C28.8833 13.9247 29.9298 13.6072 31.0004 13.6072C31.7113 13.6063 32.4155 13.7456 33.0726 14.0172C33.7299 14.2889 34.3271 14.6876 34.83 15.1905C35.3329 15.6934 35.7316 16.2906 36.0033 16.9478C36.2749 17.6051 36.4143 18.3095 36.4132 19.0207C36.4131 20.091 36.0956 21.1373 35.501 22.0273C34.9062 22.9175 34.0608 23.6112 33.0718 24.0209C32.0827 24.4306 30.9943 24.5378 29.9444 24.3289C28.8944 24.1201 27.9299 23.6046 27.1729 22.8476C26.4159 22.0906 25.9003 21.1261 25.6915 20.0761C25.4826 19.0261 25.5898 17.9377 25.9995 16.9487C26.4092 15.9596 27.103 15.1142 27.9931 14.5194ZM27.6112 19.0201C27.6131 18.1211 27.9705 17.2594 28.6055 16.6231C29.2405 15.9868 30.1014 15.6275 31.0003 15.6237C31.6724 15.6222 32.3298 15.8202 32.8893 16.1925C33.4488 16.5649 33.8852 17.0948 34.1434 17.7153C34.4016 18.3358 34.4699 19.0189 34.3396 19.6782C34.2094 20.3376 33.8865 20.9434 33.4118 21.4191C32.9371 21.8949 32.3319 22.2191 31.6729 22.3507C31.0138 22.4823 30.3306 22.4155 29.7095 22.1587C29.0885 21.9018 28.5576 21.4665 28.1841 20.9078C27.8106 20.3491 27.6112 19.6921 27.6112 19.0201ZM15.9542 40.7868C16.3361 41.0668 16.7647 41.5464 17.24 42.2253H21.1738V37.9223H18.3221C17.4649 37.1585 16.6798 36.6493 15.9669 36.3947C15.254 36.1315 14.3756 36 13.3316 36C12.0246 36 10.8025 36.2631 9.66518 36.7893C8.53639 37.307 7.55188 38.0199 6.71165 38.9281C5.87142 39.8277 5.20942 40.8844 4.72565 42.098C4.24188 43.3032 4 44.5975 4 45.9809C4 46.906 4.11033 47.7972 4.331 48.6544C4.55167 49.5031 4.86145 50.3009 5.26034 51.0477C5.65924 51.7861 6.13877 52.4609 6.69892 53.0719C7.26756 53.683 7.89561 54.205 8.58307 54.6378C9.27901 55.0707 10.0259 55.4059 10.8237 55.6435C11.6215 55.8812 12.4575 56 13.3316 56C14.3671 56 15.3304 55.8515 16.2215 55.5544C17.1212 55.2574 17.9274 54.85 18.6404 54.3323C19.3618 53.8146 19.9771 53.2035 20.4863 52.499C20.9955 51.7861 21.3817 51.0138 21.6448 50.182L17.5455 49.0363C17.3927 49.4182 17.1806 49.7874 16.909 50.1439C16.6374 50.4918 16.3191 50.8016 15.9542 51.0732C15.5977 51.3448 15.1988 51.5655 14.7575 51.7352C14.3161 51.8965 13.8409 51.9771 13.3316 51.9771C12.6017 51.9771 11.9313 51.8201 11.3202 51.506C10.7091 51.1835 10.1829 50.7507 9.74157 50.2075C9.30023 49.6643 8.95226 49.032 8.69765 48.3106C8.45152 47.5807 8.32845 46.8042 8.32845 45.9809C8.32845 45.1661 8.45576 44.398 8.71037 43.6766C8.96499 42.9467 9.31296 42.3102 9.7543 41.767C10.2041 41.2154 10.7346 40.7825 11.3456 40.4685C11.9567 40.146 12.6187 39.9847 13.3316 39.9847C13.8154 39.9847 14.278 40.0484 14.7193 40.1757C15.1606 40.2945 15.5722 40.4982 15.9542 40.7868ZM32.6442 36.3565H24.3819V39.8574H26.3806V52.5118H24.3819V56H39.8116V48.909H35.6868V51.4933C35.6868 51.6036 35.6614 51.7182 35.6104 51.837C35.5595 51.9559 35.4916 52.0662 35.4067 52.168C35.3304 52.2699 35.237 52.3548 35.1267 52.4227C35.0248 52.4821 34.9187 52.5118 34.8084 52.5118H30.6073V39.8574H32.6442V36.3565ZM44.8275 52.5118H46.8262V39.7301H44.4838V42.2253H40.3335V36.3565H57.8892V42.2253H53.7136V39.7301H51.0528V52.5118H53.0898V56H44.8275V52.5118Z" fill="black"/>
</svg>
