<svg width="94" height="60" viewBox="0 0 94 60" fill="none" xmlns="http://www.w3.org/2000/svg">
<path fill-rule="evenodd" clip-rule="evenodd" d="M87.7773 36.1179C89.6103 36.2059 91.3133 37.0349 92.4923 38.4249C93.6973 39.8449 94.2153 41.7039 93.9143 43.5259C93.1033 48.4328 90.3733 52.8328 86.2273 55.9158C82.6893 58.5468 78.2384 59.9958 73.6944 59.9958C72.0134 59.9958 52.1944 59.9728 52.1944 59.9728C50.9714 59.9728 49.8104 59.4038 49.0535 58.4388C48.4615 58.7678 47.8465 59.0598 47.2005 59.2878C45.8645 59.7608 44.4605 59.9998 43.0275 59.9998H33.0275C28.3425 59.9998 23.8775 57.4818 20.8496 53.4238H12.9546C11.5276 53.4238 10.1286 53.1858 8.79659 52.7138C5.5846 51.5778 2.9786 49.1558 1.45761 45.8948C-0.389386 41.9339 -0.485378 37.0899 1.19462 32.6069L4.3306 24.2349C5.2576 21.7009 7.73159 19.9999 10.4866 19.9999H17.5726C17.5086 19.6439 17.4626 19.2799 17.4626 18.9039C17.4626 16.2819 19.0476 14.023 21.3085 13.034V8.13597C21.3085 5.89798 22.6515 3.91399 24.7295 3.08299L31.4605 0.390999C32.1085 0.132 32.7885 0 33.4825 0H43.4835C45.3395 0 46.9805 0.936998 47.9625 2.36199L52.8884 0.390999C53.5364 0.132 54.2174 0 54.9114 0H64.9114C67.9064 0 70.3424 2.43299 70.3514 5.42698C70.5974 5.39298 70.8454 5.36598 71.0944 5.36598C74.0944 5.36598 76.5344 7.80897 76.5344 10.81V21.2389C80.9534 21.8639 85.1423 23.8069 88.3433 26.8189C89.5543 27.9589 90.2493 29.5569 90.2493 31.2019C90.2493 32.8479 89.5543 34.4459 88.3433 35.5849L87.7773 36.1179ZM34.9212 5.44357C34.9212 4.42357 33.8902 3.72558 32.9432 4.10458L26.2132 6.7966C25.6652 7.0156 25.3062 7.54559 25.3062 8.13559V16.5006H23.8642C22.5362 16.5006 21.4602 17.5776 21.4602 18.9046C21.4602 20.2326 22.5362 21.3086 23.8642 21.3086H24.3442C25.9382 21.3086 27.2293 20.0166 27.2293 18.4236V11.1986L34.0142 8.48355C34.5622 8.26455 34.9212 7.73456 34.9212 7.14456V5.44357ZM56.3502 5.44357C56.3502 4.42357 55.3193 3.72558 54.3723 4.10458L47.6422 6.7966C47.0942 7.0156 46.7352 7.54559 46.7352 8.13559V16.5006H45.2923C43.9653 16.5006 42.8892 17.5776 42.8892 18.9046C42.8892 20.2326 43.9653 21.3086 45.2923 21.3086H45.7733C47.3673 21.3086 48.6582 20.0166 48.6582 18.4236V11.1986L55.4433 8.48355C55.9913 8.26455 56.3502 7.73456 56.3502 7.14456V5.44357ZM25.7692 26.1066C26.3152 26.4096 26.8492 26.7036 27.2182 26.9026C28.0822 27.3686 28.7892 28.0636 29.2852 28.9096C30.5482 28.6016 31.4882 27.4716 31.4882 26.1146V16.8206L39.1792 14.2566V21.3076H37.7373C36.4103 21.3076 35.3342 22.3836 35.3342 23.7116C35.3342 25.0386 36.4103 26.1146 37.7373 26.1146H38.2182C39.8112 26.1146 41.1022 24.8236 41.1022 23.2306V10.8086C41.1022 9.82456 40.1382 9.12958 39.2042 9.44058L30.5512 12.3256C29.9622 12.5216 29.5653 13.0726 29.5653 13.6936V24.1916H28.1223C26.9623 24.1916 25.9942 25.0136 25.7692 26.1066ZM47.1483 26.5956C47.1483 27.6526 47.8352 28.5406 48.7832 28.8626C49.5192 28.0066 50.3303 27.2076 51.2213 26.4886C51.7613 26.0546 52.3323 25.6636 52.9173 25.2926V16.8206L60.6093 14.2566V21.3076H59.1662C57.9462 21.3076 56.9483 22.2206 56.7943 23.3996C58.6193 22.7536 60.5543 22.3836 62.5323 22.2896V10.8086C62.5323 9.82456 61.5673 9.12958 60.6333 9.44058L51.9802 12.3256C51.3913 12.5216 50.9932 13.0726 50.9932 13.6936V24.1916H49.5523C48.2243 24.1916 47.1483 25.2676 47.1483 26.5956ZM42.5753 29.7736L42.4223 29.8286C42.1223 29.9356 41.9452 30.2366 42.0092 30.5326L44.9132 43.2616C44.9932 43.6106 45.1062 43.9516 45.2492 44.2796L49.8632 42.6296C49.7572 42.2876 49.6213 41.9556 49.4533 41.6376L43.3523 30.0536C43.2073 29.7856 42.8753 29.6666 42.5753 29.7736ZM41.0542 40.5836L37.8853 32.1666C37.4543 31.0236 36.2192 30.3956 34.9772 30.6286C34.4563 30.7264 33.6411 30.8711 32.8663 31.0086C32.2786 31.1129 31.7143 31.2131 31.3192 31.2856C29.9192 31.5426 28.5402 31.9126 27.2012 32.3856H27.1982C25.8622 32.8586 24.5652 33.4356 23.3252 34.1106C22.9478 34.3157 22.4003 34.6178 21.8393 34.9273C21.183 35.2895 20.5083 35.6618 20.0662 35.9006C18.9512 36.5006 18.4222 37.7666 18.8632 38.9166L22.0102 47.3186C24.4022 53.7056 30.6053 57.3756 35.8643 55.5156C41.1233 53.6576 43.4472 46.9706 41.0542 40.5836ZM25.9542 41.6566C25.0942 41.9606 24.3162 42.3516 23.6502 42.7936C23.3372 43.0016 22.9192 42.7796 22.8822 42.3986C22.7442 40.9536 23.5702 39.5636 24.9832 39.0636C26.3962 38.5636 27.9482 39.1126 28.7982 40.3056C29.0232 40.6206 28.8493 41.0516 28.4713 41.0886C27.6703 41.1646 26.8152 41.3526 25.9542 41.6566ZM38.7092 43.3418C38.7205 43.3822 38.7315 43.4218 38.7453 43.4596C39.1623 45.1856 38.6322 47.1316 37.3372 48.6346C36.5022 49.6086 35.3653 50.4226 34.1173 50.8536C32.8773 51.3026 31.4672 51.3896 30.1832 51.1636C28.1972 50.8226 26.5042 49.6626 25.6812 48.0796C25.6666 48.0405 25.6482 48.0019 25.6293 47.9623C25.5865 47.8723 25.5413 47.7773 25.5322 47.6606C25.5587 47.1071 26.6482 47.0037 27.2558 46.9461C27.3596 46.9363 27.4493 46.9278 27.5172 46.9186C29.1042 46.7046 30.7083 46.3706 32.2263 45.8046C33.7633 45.2896 35.2132 44.5446 36.5712 43.7166C36.6294 43.6812 36.7038 43.6317 36.7898 43.5744C37.2935 43.2391 38.196 42.6381 38.5813 43.0456C38.6534 43.1417 38.682 43.2444 38.7092 43.3418ZM37.1303 37.3586C37.3553 37.6736 37.1812 38.1056 36.8032 38.1416C36.0022 38.2186 35.1473 38.4056 34.2863 38.7096C33.4263 39.0146 32.6482 39.4056 31.9822 39.8466C31.6692 40.0556 31.2512 39.8326 31.2142 39.4516C31.0762 38.0066 31.9023 36.6176 33.3153 36.1176C34.7283 35.6176 36.2803 36.1656 37.1303 37.3586ZM79.9653 42.8736C80.2043 41.4226 79.0103 40.1096 77.4503 40.1096H75.3633V40.1046C74.5863 40.1056 73.8093 39.8396 73.2003 39.3066C71.8763 38.1466 71.9463 36.1096 73.2243 34.9056L75.5993 32.6716C76.4623 31.8596 76.4623 30.5436 75.5993 29.7306C69.4633 23.9566 59.5403 23.3226 52.9463 28.6316C50.7263 30.4186 49.1563 32.6156 48.2083 34.9836L51.2213 40.7056C51.2333 40.7256 51.2413 40.7486 51.2523 40.7686C51.4423 40.6636 51.6433 40.5706 51.8673 40.5156C53.2223 40.1736 54.6152 40.9306 54.9782 42.2056C55.3422 43.4806 54.5372 44.7926 53.1812 45.1346C52.8722 45.2126 52.5663 45.2126 52.2663 45.1796L52.4143 46.4736C52.4223 46.5376 52.4263 46.6026 52.4273 46.6676C52.4313 46.9196 52.3963 47.1636 52.3443 47.4016C53.4113 47.8836 54.2772 48.7656 54.6972 49.8966C55.0442 50.8346 55.2603 51.7736 55.3383 52.6906C55.3693 53.0576 55.3772 53.4176 55.3632 53.7626C55.3622 53.7862 55.3593 53.8085 55.3564 53.8308C55.354 53.8492 55.3516 53.8676 55.3502 53.8866C61.0963 57.0366 68.5073 56.6696 73.8373 52.7056C77.3123 50.1216 79.3523 46.5826 79.9653 42.8736ZM69.0152 49.8326C69.3792 51.1076 68.5743 52.4186 67.2193 52.7606C65.8633 53.1016 64.4703 52.3456 64.1073 51.0696C63.7443 49.7946 64.5483 48.4826 65.9043 48.1416C67.2593 47.7996 68.6522 48.5566 69.0152 49.8326ZM71.5263 31.8876C70.8243 33.0316 69.2703 33.4236 68.0553 32.7636C66.8403 32.1026 66.4233 30.6406 67.1253 29.4966C67.8263 28.3526 69.3813 27.9616 70.5963 28.6216C71.8113 29.2816 72.2273 30.7436 71.5263 31.8876ZM74.7912 43.3546C76.0062 44.0156 76.4233 45.4776 75.7213 46.6216C75.0193 47.7656 73.4653 48.1566 72.2503 47.4966C71.0353 46.8366 70.6183 45.3736 71.3203 44.2296C72.0223 43.0866 73.5752 42.6946 74.7912 43.3546ZM63.0833 28.9956C63.4463 30.2706 62.6413 31.5826 61.2863 31.9246C59.9303 32.2666 58.5373 31.5096 58.1743 30.2336C57.8113 28.9576 58.6163 27.6466 59.9713 27.3056C61.3263 26.9636 62.7203 27.7206 63.0833 28.9956ZM59.1353 47.3036C60.3503 47.9636 60.7663 49.4256 60.0653 50.5686C59.3633 51.7126 57.8093 52.1046 56.5943 51.4436C55.3783 50.7836 54.9623 49.3216 55.6643 48.1786C56.3663 47.0346 57.9193 46.6426 59.1353 47.3036ZM55.8692 35.8356C55.1682 36.9786 53.6143 37.3706 52.3993 36.7106C51.1833 36.0506 50.7673 34.5886 51.4693 33.4446C52.1703 32.3016 53.7242 31.9086 54.9392 32.5686C56.1552 33.2296 56.5712 34.6916 55.8692 35.8356ZM19.6892 46.8256L18.9032 44.7276C18.4573 44.8143 17.7598 44.3514 17.3425 44.0744C17.2592 44.0191 17.187 43.9712 17.1302 43.9366C15.7722 43.1086 14.3222 42.3626 12.7852 41.8476C11.2672 41.2826 9.66322 40.9476 8.07622 40.7346C8.00716 40.7251 7.91565 40.7164 7.80977 40.7063C7.2012 40.6482 6.11777 40.5447 6.09221 39.9936C6.10056 39.8767 6.14567 39.7812 6.18852 39.6905C6.20728 39.6507 6.2256 39.6119 6.24022 39.5726C7.06322 37.9906 8.75621 36.8296 10.7422 36.4886C12.0262 36.2636 13.4362 36.3506 14.6772 36.7996C15.4102 37.0526 16.0982 37.4456 16.7162 37.9186C16.7642 36.5676 17.4502 35.2956 18.6232 34.4636C18.0492 33.8096 17.7392 32.9486 17.8252 32.0466C17.8612 31.6646 18.2792 31.4436 18.5932 31.6516C19.2582 32.0926 20.0362 32.4836 20.8972 32.7876C20.9988 32.8238 21.1 32.8532 21.201 32.8826C21.2451 32.8954 21.2892 32.9082 21.3332 32.9216L21.4051 32.8821C21.7733 32.6794 22.111 32.4935 22.3692 32.3526C23.6892 31.6356 25.0812 31.0146 26.5162 30.5056C26.5222 30.5036 26.5282 30.5016 26.5352 30.4996C26.6111 30.4731 26.6888 30.4503 26.7665 30.4275C26.8321 30.4083 26.8977 30.3891 26.9622 30.3676C26.7292 29.9426 26.3762 29.5736 25.9122 29.3236C25.442 29.0697 24.7077 28.6633 24.0144 28.2797C23.5062 27.9984 23.0201 27.7294 22.6762 27.5416C21.4322 26.8646 20.1322 26.2866 18.7932 25.8126L18.7902 25.8116C17.4542 25.3386 16.0792 24.9706 14.6832 24.7126C14.2616 24.6343 13.6479 24.525 13.0179 24.4128C12.2715 24.2799 11.5022 24.1429 11.0022 24.0486C9.75222 23.8126 8.50822 24.4526 8.08522 25.6086L4.93822 34.0096C2.54522 40.3976 4.86822 47.0826 10.1282 48.9436C13.3242 50.0736 16.8632 49.1486 19.6892 46.8256ZM11.5942 32.4346C10.1802 31.9346 9.35422 30.5446 9.49322 29.0996C9.52921 28.7186 9.94722 28.4956 10.2612 28.7046C10.9262 29.1466 11.7042 29.5366 12.5652 29.8416C13.4262 30.1466 14.2802 30.3326 15.0822 30.4096C15.4602 30.4466 15.6332 30.8766 15.4092 31.1926C14.5592 32.3856 13.0072 32.9346 11.5942 32.4346ZM49.6632 49.1436C49.5032 49.2016 49.3523 49.2726 49.2133 49.3566C48.2363 49.9466 47.7823 51.1486 48.1903 52.2486C48.2943 52.5306 48.4103 52.8026 48.5343 53.0626C48.8683 53.7566 49.5002 54.2956 50.2722 54.4176C51.1232 54.5506 51.8752 55.1186 52.1912 55.9706C52.3512 55.9146 52.4952 55.8266 52.6242 55.7106C52.8802 55.4826 53.0733 55.1456 53.1983 54.7306C53.2923 54.4186 53.3483 54.0636 53.3653 53.6756C53.3763 53.4176 53.3702 53.1436 53.3452 52.8606C53.2852 52.1526 53.1123 51.3776 52.8213 50.5906C52.4143 49.4916 51.2802 48.8576 50.1472 49.0236C49.9842 49.0466 49.8222 49.0866 49.6632 49.1436ZM49.5763 47.8866C50.0943 47.7016 50.4362 47.2236 50.4282 46.7006L50.0993 43.8336L45.8543 45.3516L47.4782 47.7556C47.8142 48.1616 48.3893 48.3106 48.9063 48.1266L49.5763 47.8866Z" fill="black"/>
</svg>
