<svg width="91" height="61" viewBox="0 0 91 61" fill="none" xmlns="http://www.w3.org/2000/svg">
<path fill-rule="evenodd" clip-rule="evenodd" d="M70.0218 28.5249C72.9638 29.6659 85.7148 34.8919 86.2668 35.1189C88.9188 36.2159 90.4438 39.0819 89.8918 41.9339C88.0708 51.3548 76.3718 58.5408 60.7829 59.8138C60.6729 59.8228 60.5639 59.8268 60.4559 59.8268C60.186 59.8268 59.4894 59.863 58.725 59.9028C57.7956 59.9512 56.7659 60.0048 56.2809 60.0048L16.343 60.0058C15.675 60.0058 15.028 59.8848 14.417 59.6648C13.079 59.3748 11.896 58.6638 11.01 57.6698L10.455 58.2468C9.38204 59.3638 7.88304 60.0058 6.34305 60.0058C4.79705 60.0058 3.34606 59.3928 2.25806 58.2828C2.20006 58.2228 2.14306 58.1618 2.08906 58.0978C1.99506 58.0028 1.89007 57.8918 1.77807 57.7718C-0.564925 55.3108 -0.597926 51.4478 1.71207 48.9488C1.92806 48.7168 2.17106 48.5138 2.43406 48.3388C2.55306 48.1408 2.68506 47.9498 2.84106 47.7728C2.97206 47.6218 3.24906 47.2748 3.81806 46.4778C6.27805 43.0289 7.03504 39.5409 7.21704 38.4859C7.28604 38.0039 7.52005 36.4649 7.56605 36.1999L7.56664 36.1962C7.65925 35.6265 7.93908 33.9048 9.35304 32.4529C10.421 31.3419 11.907 30.7299 13.538 30.7299C14.577 30.7299 15.484 30.9669 16.084 31.1239C16.124 31.1339 16.163 31.1439 16.199 31.1539C16.264 31.1569 16.333 31.1589 16.405 31.1609C16.485 31.1589 16.563 31.1569 16.634 31.1519C16.807 31.1009 17.094 30.9929 17.304 30.9019C17.574 30.6419 17.98 30.2419 18.395 29.8309C17.733 29.6879 17.105 29.4429 16.551 29.0809C16.037 28.7449 15.593 28.3339 15.21 27.8769C14.516 28.6619 13.632 29.2869 12.613 29.6679C12.022 29.8889 11.379 29.9999 10.703 29.9999L10.547 29.9979L9.49104 29.9729C8.42004 29.9469 7.40304 29.6389 6.55105 29.0809C4.81605 27.9469 3.78106 26.0329 3.78106 23.9629C3.78106 23.5859 3.82606 23.2209 3.89106 22.8619C3.02206 22.5199 2.22906 21.9889 1.59006 21.2829C0.431068 20.0029 -0.13593 18.2789 0.0350694 16.5529C0.247069 14.415 1.54907 12.635 3.37506 11.716V7.65397C3.37506 5.48898 4.67005 3.56899 6.67305 2.76199L12.571 0.382998C13.201 0.128999 13.863 0 14.538 0H24.538C26.487 0 28.164 1.081 29.066 2.66499C29.978 2.25599 30.964 2.00999 32.004 2.00999C32.217 2.00999 32.429 2.01899 32.641 2.03799L33.32 1.42299C33.421 1.33199 33.526 1.24599 33.636 1.165C34.673 0.402998 35.902 0 37.1889 0H37.2299L37.4149 0.00199889C38.6854 0.0109088 42.7481 0.00548556 45.283 0.00210175C46.1621 0.000928227 46.8575 0 47.1889 0H47.2309L47.4159 0.00199889C48.7299 0.0109989 49.9859 0.457997 51.0049 1.23099C52.0229 0.457997 53.2789 0.0109989 54.5939 0.00199889L54.7759 0H54.8199C55.1513 0 55.8469 0.000928259 56.7263 0.00210181C59.2619 0.00548562 63.3257 0.0109088 64.5938 0.00199889L64.7758 0H64.8209C66.1078 0 67.3358 0.402998 68.3728 1.165C68.4828 1.24499 68.5878 1.33199 68.6888 1.42299L69.3688 2.03799C69.5798 2.01899 69.7928 2.00999 70.0048 2.00999C74.4158 2.00999 78.0048 6.04698 78.0048 11.01C78.0048 15.7969 74.6628 19.7119 70.4668 19.9829C69.9488 21.3889 69.0748 22.6599 67.8958 23.6729C67.4348 25.1869 67.5938 26.8339 68.3288 28.2249C68.3402 28.2249 68.3513 28.2239 68.3626 28.2229C68.3741 28.2219 68.3857 28.2209 68.3978 28.2209C68.9548 28.2209 69.5018 28.3229 70.0218 28.5249ZM10.7457 52.1861L13.2416 49.5961L15.2916 47.4761L27.0806 35.2461L27.8787 34.416L29.2507 32.9861C30.1417 32.0561 30.1487 30.5361 29.2507 29.5961C28.2327 28.5361 27.0016 27.2661 26.3376 26.5861C25.9136 26.1361 25.2906 25.906 24.6826 26.046C24.6791 26.051 24.6756 26.051 24.6721 26.051C24.6686 26.051 24.6651 26.051 24.6616 26.056C23.9046 26.256 23.5376 26.9261 23.6436 27.5661C23.6856 27.8661 23.7067 28.196 23.6857 28.546C23.6822 28.606 23.6769 28.6636 23.6717 28.7211C23.6664 28.7786 23.6611 28.8361 23.6576 28.8961C23.6553 28.9162 23.653 28.9351 23.6506 28.954C23.646 28.9917 23.6413 29.0294 23.6367 29.0761C23.5227 29.7661 23.2756 30.4661 22.8946 30.9761C22.8306 31.0661 19.8037 34.0961 19.6207 34.2061C19.0827 34.5361 17.9017 35.0061 17.2797 35.1061C17.0607 35.1361 16.7346 35.156 16.4026 35.166C16.0846 35.156 15.7597 35.1361 15.5607 35.1161C15.4183 35.0873 15.2514 35.0429 15.0683 34.9941C14.6152 34.8733 14.0632 34.7261 13.5396 34.7261C13.0586 34.7261 12.5917 34.8561 12.2377 35.2261C11.7217 35.7561 11.5876 36.3961 11.5166 36.8361C11.4596 37.1661 11.1846 38.9961 11.1696 39.1061C10.9156 40.6161 9.96061 44.7561 7.0756 48.8061C7.0518 48.8389 7.02614 48.8743 6.99888 48.912C6.70212 49.3218 6.21533 49.994 5.85264 50.4062C6.00864 50.3962 6.17062 50.3861 6.34062 50.3861C8.05162 50.3861 9.60765 51.0761 10.7457 52.1861ZM37.4166 21.1461C38.9086 24.3061 38.6656 28.0261 36.7186 30.9461C36.7186 30.9461 36.0056 31.8261 36.0056 32.0061C36.0056 33.1161 40.4826 34.0061 46.0056 34.0061C51.5286 34.0061 56.0056 33.1161 56.0056 32.0061C56.0056 31.8261 55.2927 30.9461 55.2927 30.9461C53.3447 28.0261 53.1017 24.3061 54.5947 21.1461C56.0497 20.2461 57.0056 18.7261 57.0056 17.0061C57.0056 14.2461 54.5426 12.0061 51.5056 12.0061C49.5326 12.0061 47.8017 12.9561 46.8317 14.3761C46.4287 14.9561 45.5817 14.9561 45.1787 14.3761C44.2087 12.9561 42.4786 12.0061 40.5056 12.0061C37.4676 12.0061 35.0056 14.2461 35.0056 17.0061C35.0056 18.7261 35.9616 20.2461 37.4166 21.1461ZM50.2556 10.1161C50.6656 10.0461 51.0816 10.0061 51.5056 10.0061C55.1926 10.0061 58.2586 12.5061 58.8826 15.7761C59.2407 15.9161 59.6126 16.0061 60.0056 16.0061C62.2146 16.0061 64.0056 13.7661 64.0056 11.0061C64.0056 8.24611 62.2146 6.00611 60.0056 6.00611C59.7196 6.00611 59.4426 6.0461 59.1746 6.1261C58.5516 6.2961 57.8847 6.08613 57.4057 5.65613L56.0056 4.38611C55.6586 4.13611 55.2386 3.99609 54.8076 3.99609H54.6226C53.9096 4.00609 53.2537 4.3861 52.8997 5.0061L50.2556 10.1161ZM32.8367 6.1261C32.5687 6.0461 32.2916 6.00611 32.0056 6.00611C29.7966 6.00611 28.0056 8.24611 28.0056 11.0061C28.0056 13.7661 29.7966 16.0061 32.0056 16.0061C32.3996 16.0061 32.7707 15.9161 33.1287 15.7761C33.7527 12.5061 36.8196 10.0061 40.5056 10.0061C40.9296 10.0061 41.3456 10.0461 41.7556 10.1161L39.1116 5.0061C38.7576 4.3861 38.1017 4.00609 37.3887 3.99609H37.2036C36.7736 3.99609 36.3526 4.13611 36.0056 4.38611L34.6066 5.65613C34.1266 6.08613 33.4597 6.2961 32.8367 6.1261ZM50.7656 53.5661V54.2061C50.7656 54.7761 50.6497 55.3261 50.4577 55.8261C63.9387 54.7261 74.5097 48.7061 75.9647 41.1761C76.1567 40.1861 75.6457 39.1861 74.7387 38.8161C74.7387 38.8161 61.5167 33.3961 58.5767 32.2561C58.3067 32.1461 58.0037 32.2961 57.9347 32.5861C57.3777 34.8561 53.3736 36.0061 46.0056 36.0061C38.6446 36.0061 34.6406 34.8561 34.0786 32.5861C34.0076 32.3061 33.7036 32.1461 33.4296 32.2561C33.3416 32.2915 33.2437 32.3293 33.1369 32.3705C32.9416 32.4459 32.717 32.5327 32.4706 32.6361C32.2526 33.4661 31.8526 34.2461 31.2256 34.8961L20.1906 46.3461C19.8846 46.6661 20.1056 47.1961 20.5466 47.1961C21.0256 47.1961 21.5876 47.1961 22.1716 47.1861C22.1954 47.1832 22.2307 47.1796 22.2717 47.1754C22.3752 47.1648 22.5145 47.1505 22.5926 47.1361C22.9116 47.0561 23.6396 46.7062 23.8806 46.5262C24.0516 46.3962 24.3536 46.0762 24.4846 45.8962C24.5436 45.8162 24.6196 45.6861 24.6906 45.5561C25.2556 44.5961 26.5786 42.3561 29.1816 42.3561C30.8746 42.3561 32.0487 43.2261 32.4337 43.5161C32.5837 43.6261 33.0366 43.976 33.4276 44.286C33.5164 44.3601 33.7464 44.5216 33.9406 44.658C34.0612 44.7428 34.168 44.8178 34.2186 44.8561C35.0586 45.4661 38.1496 47.5261 42.4996 48.1961C43.8366 48.3961 44.2326 48.4062 44.2736 48.4062H45.0537C45.1718 48.4062 45.289 48.4087 45.4044 48.4112C45.5166 48.4137 45.6272 48.4161 45.7357 48.4161C48.5257 48.4461 50.7656 50.7561 50.7656 53.5661ZM47.9656 53.5961C47.9287 52.2661 46.8877 51.2061 45.6337 51.1661C45.1477 51.4361 44.6917 51.7761 44.2857 52.2061C43.3007 53.2561 42.8087 54.6161 42.8066 55.9761L46.3117 56.0061C47.2717 56.0161 48.0146 55.2061 47.9926 54.2261L47.9827 54.2061L47.9824 54.1806C47.9804 54.0241 47.978 53.8236 47.9656 53.5961ZM5.11662 55.4861C5.79562 56.1761 6.8916 56.1861 7.5706 55.4761L10.0526 52.8962C9.0916 51.9662 7.78262 51.3861 6.34062 51.3861C5.74662 51.3861 5.18062 51.4861 4.65062 51.6661C3.78061 52.6061 3.78761 54.0962 4.69261 55.0262C4.82489 55.1722 4.94729 55.2985 5.04538 55.3997C5.06816 55.4232 5.08962 55.4454 5.1096 55.4661L5.11662 55.4861ZM16.78 48.9117C16.7619 48.8973 16.7444 48.8833 16.7266 48.8661L13.3226 52.3962C13.3285 52.5973 13.3348 52.7985 13.341 52.9977C13.3453 53.135 13.3495 53.2714 13.3536 53.4062C13.3996 54.7262 14.4706 55.7961 15.7336 55.8061L17.6727 55.8261L18.7986 55.8361L41.8377 55.9761C41.8367 54.3661 42.4137 52.7361 43.5817 51.4961C43.6977 51.3661 43.8137 51.2562 43.9307 51.1562C43.3967 51.1198 42.6028 51.001 42.1087 50.9271C42.0588 50.9196 42.0119 50.9126 41.9686 50.9062C37.1616 50.1262 33.6087 47.8861 32.3737 46.9961C32.2847 46.9261 30.8117 45.8261 30.5457 45.6361C30.1897 45.3761 29.6466 45.0161 28.9216 45.0161C28.4226 45.0061 28.0147 45.2561 27.6857 45.6061C27.3286 45.9902 27.0525 46.4957 26.826 46.9103C26.7341 47.0786 26.6503 47.232 26.5726 47.3561C26.4566 47.5161 26.2447 47.7661 26.0327 48.0061C25.8007 48.2361 25.5686 48.4661 25.3936 48.5961C24.8996 48.9861 23.7606 49.5061 23.1656 49.6661C23.0379 49.6972 22.7697 49.7322 22.5644 49.7591C22.4401 49.7753 22.3388 49.7885 22.3057 49.7961L22.0788 49.7947C20.4512 49.7852 18.7659 49.7753 18.6636 49.7561C18.0446 49.6661 17.3856 49.3561 16.8216 48.9461C16.8072 48.9333 16.7934 48.9223 16.78 48.9117ZM6.53361 19.286C7.92961 19.286 9.06163 18.1461 9.06163 16.7461V10.3561L15.0076 7.96607C15.4876 7.76607 15.8026 7.29613 15.8026 6.77613V5.27612C15.8026 4.37612 14.8987 3.75607 14.0687 4.09607L8.17064 6.46607C7.69064 6.66607 7.37663 7.13613 7.37663 7.65613V15.046H6.23265C5.13065 15.046 4.12662 15.8461 4.01762 16.9461C3.89062 18.2161 4.87765 19.286 6.11265 19.286H6.53361ZM21.2916 10.0161C21.2916 9.25612 20.6416 8.6861 19.9296 8.7461L19.928 8.74625C19.8195 8.7562 19.7101 8.76624 19.5997 8.80603L12.0166 11.3561C11.5006 11.5261 11.1526 12.016 11.1526 12.566V21.8361H9.88866C9.8544 21.8361 9.82141 21.8412 9.78867 21.8462C9.75641 21.8512 9.72439 21.8561 9.69164 21.8561C9.66538 21.861 9.63888 21.8636 9.61261 21.866C9.58586 21.8686 9.55935 21.8711 9.53361 21.8761C8.53961 22.0461 7.78264 22.9161 7.78264 23.9661C7.78264 24.7061 8.16462 25.3561 8.74162 25.7361C8.99162 25.8961 9.29061 25.9661 9.58861 25.9761L10.6446 25.9961C10.8376 26.0061 11.0336 25.986 11.2156 25.916C12.1776 25.556 12.8656 24.636 12.8656 23.536V15.3261L19.5776 13.0761V19.286H18.3146C17.2446 19.286 16.3706 20.0961 16.2356 21.1361C16.2446 21.1361 16.2546 21.1361 16.2646 21.1261C16.2624 21.1432 16.2601 21.16 16.2579 21.1767C16.2469 21.2572 16.2366 21.3331 16.2366 21.416C16.2366 22.586 17.1796 23.536 18.3426 23.536H18.7637C20.1597 23.536 21.2916 22.3961 21.2916 20.9861V10.0161Z" fill="black"/>
</svg>
