<svg width="70" height="60" viewBox="0 0 70 60" fill="none" xmlns="http://www.w3.org/2000/svg">
<path fill-rule="evenodd" clip-rule="evenodd" d="M17.463 0.0165575C17.13 -0.00439487 16.7959 -0.00436424 16.463 0.0165575C16.13 -0.0043949 15.7959 -0.00436429 15.463 0.0165574C15.13 -0.00439487 14.7959 -0.00436422 14.463 0.0165575C14.13 -0.00439488 13.7959 -0.00436423 13.463 0.0165575C13.13 -0.0043949 12.7959 -0.00436429 12.463 0.0165574C12.13 -0.00439489 11.7959 -0.00436425 11.463 0.0165575C11.13 -0.00439484 10.7959 -0.00436403 10.463 0.0165578C10.13 -0.00439489 9.79594 -0.00436436 9.463 0.0165574C9.12999 -0.00439491 8.79594 -0.00436425 8.46299 0.0165575C6.25815 -0.122168 4.00769 0.658956 2.33305 2.33325C-0.741317 5.40762 -0.803964 10.4218 2.30664 13.5324C2.99512 14.2208 3.77685 14.7539 4.61016 15.1332C2.44965 18.6734 2.85902 23.3658 5.93986 26.4467L9.4932 30L5.93986 33.5534C2.85902 36.6342 2.44965 41.3266 4.61016 44.8668C3.77685 45.2462 2.99512 45.7792 2.30664 46.4677C-0.803964 49.5783 -0.741317 54.5924 2.33305 57.6668C4.0077 59.3411 6.25816 60.1222 8.46301 59.9835C8.79596 60.0044 9.12998 60.0044 9.46299 59.9835C9.79594 60.0044 10.13 60.0044 10.463 59.9835C10.7959 60.0044 11.13 60.0044 11.463 59.9835C11.7959 60.0044 12.13 60.0044 12.463 59.9835C12.7959 60.0044 13.13 60.0044 13.463 59.9835C13.7959 60.0044 14.13 60.0044 14.463 59.9835C14.7959 60.0044 15.13 60.0044 15.463 59.9835C15.7959 60.0044 16.13 60.0044 16.463 59.9835C16.7959 60.0044 17.13 60.0044 17.463 59.9835C19.638 60.1201 21.8601 59.3652 23.5322 57.6932C23.8341 57.3912 24.1062 57.0713 24.3485 56.737C24.3863 56.7354 24.4241 56.7336 24.4619 56.7316C24.795 56.7495 25.1288 56.7496 25.4619 56.7316C25.795 56.7495 26.1289 56.7496 26.4619 56.7316C26.795 56.7495 27.1289 56.7496 27.4619 56.7316C27.795 56.7495 28.1288 56.7496 28.4619 56.7316C28.795 56.7495 29.1288 56.7496 29.4619 56.7316C31.3827 56.8351 33.3297 56.3421 35.0004 55.2413C36.6712 56.342 38.6181 56.835 40.5388 56.7315C40.8719 56.7494 41.2057 56.7494 41.5387 56.7315C41.8718 56.7494 42.2057 56.7494 42.5387 56.7315C42.8718 56.7494 43.2057 56.7494 43.5387 56.7315C43.8718 56.7494 44.2057 56.7494 44.5387 56.7315C44.8718 56.7494 45.2057 56.7494 45.5387 56.7315C45.5762 56.7335 45.6137 56.7353 45.6512 56.7368C45.8936 57.0714 46.1658 57.3915 46.4679 57.6936C48.14 59.3658 50.3622 60.1209 52.5374 59.9842C52.8704 60.0052 53.2045 60.0051 53.5375 59.9842C53.8705 60.0052 54.2045 60.0051 54.5375 59.9842C54.8705 60.0052 55.2045 60.0051 55.5374 59.9842C55.8705 60.0052 56.2045 60.0051 56.5375 59.9842C56.8705 60.0052 57.2045 60.0051 57.5374 59.9842C57.8705 60.0052 58.2045 60.0051 58.5374 59.9842C58.8704 60.0052 59.2045 60.0051 59.5374 59.9842C59.8704 60.0052 60.2045 60.0051 60.5375 59.9842C60.8705 60.0052 61.2045 60.0051 61.5375 59.9842C63.7421 60.123 65.9924 59.3419 67.667 57.6672C70.7404 54.5932 70.8042 49.5789 67.6934 46.4681C67.005 45.7797 66.2233 45.2467 65.3901 44.8674C67.5511 41.3271 67.1418 36.6343 64.0608 33.5532L60.5076 30L64.0608 26.4468C67.1418 23.3658 67.5511 18.673 65.3901 15.1326C66.2233 14.7533 67.005 14.2203 67.6934 13.5319C70.8042 10.4211 70.7404 5.40681 67.667 2.33278C65.9923 0.658096 63.7421 -0.122935 61.5375 0.0157952C61.2045 -0.00512964 60.8705 -0.0051596 60.5375 0.0157953C60.2045 -0.00512964 59.8705 -0.00515964 59.5375 0.0157953C59.2045 -0.00512965 58.8705 -0.00515967 58.5375 0.0157952C58.2045 -0.00512965 57.8705 -0.00515965 57.5375 0.0157952C57.2045 -0.00512965 56.8705 -0.00515959 56.5375 0.0157954C56.2045 -0.00512962 55.8705 -0.00515953 55.5375 0.0157955C55.2045 -0.0051298 54.8705 -0.00515993 54.5375 0.0157953C54.2045 -0.00512993 53.8705 -0.00516031 53.5375 0.015795C53.2045 -0.00512962 52.8705 -0.00515956 52.5375 0.0157952C52.2826 -0.000225254 52.027 -0.00399773 51.7718 0.00451813C51.7448 0.00541685 51.7179 0.00645242 51.691 0.0076249C49.7957 0.0901477 47.9234 0.85088 46.4679 2.30637C46.1658 2.60852 45.8936 2.92863 45.6512 3.26317C45.6137 3.26474 45.5762 3.26653 45.5387 3.26856C45.2057 3.2506 44.8718 3.25058 44.5387 3.26855C44.2057 3.25059 43.8718 3.25058 43.5387 3.26856C43.2057 3.2506 42.8718 3.25058 42.5388 3.26855C42.2057 3.25059 41.8718 3.25058 41.5388 3.26855C41.2057 3.25059 40.8718 3.25058 40.5388 3.26856C38.6181 3.16498 36.6712 3.65801 35.0004 4.75876C33.3297 3.65794 31.3827 3.16487 29.4619 3.26844C29.1289 3.25046 28.795 3.25048 28.4619 3.26844C28.1289 3.25046 27.795 3.25048 27.4619 3.26844C27.1289 3.25046 26.795 3.25048 26.4619 3.26844C26.1289 3.25046 25.795 3.25048 25.4619 3.26844C25.1289 3.25046 24.795 3.25048 24.4619 3.26844C24.4241 3.2664 24.3863 3.26459 24.3485 3.26301C24.1062 2.9287 23.8341 2.6088 23.5322 2.30685C21.8601 0.634769 19.6381 -0.120119 17.463 0.0165575ZM49.295 5.13452C50.8181 3.61137 53.2995 3.62319 54.8372 5.16093C56.3747 6.6987 56.3867 9.18012 54.8636 10.7032C53.3405 12.2263 50.8591 12.2145 49.3214 10.6768C47.7836 9.13903 47.7718 6.65768 49.295 5.13452ZM44.1406 15.8577C38.9351 10.6522 34.612 10.5364 34.612 10.5364L36.3807 8.76774C38.4115 6.73686 41.72 6.75262 43.7703 8.80295L51.1958 16.2284C53.2461 18.2787 53.2619 21.5872 51.231 23.6181L49.4621 25.387C49.4621 25.387 49.3467 21.0639 44.1406 15.8577ZM44.1406 44.142C49.3467 38.9358 49.462 34.6127 49.462 34.6127L51.231 36.3816C53.2619 38.4125 53.2461 41.721 51.1958 43.7713L43.7703 51.1968C41.72 53.2471 38.4115 53.2628 36.3807 51.232L34.612 49.4633C34.612 49.4633 38.9351 49.3475 44.1406 44.142ZM25.3852 49.4634L23.6166 51.232C21.5858 53.2628 18.2773 53.2471 16.227 51.1968L8.80151 43.7713C6.75119 41.721 6.73542 38.4125 8.7663 36.3816L10.535 34.6129C10.535 34.6129 10.7594 38.335 14.8674 43.0794C15.1822 43.443 15.5119 43.7975 15.8564 44.142C21.0618 49.3474 25.3852 49.4634 25.3852 49.4634ZM15.8564 15.8577C10.8666 20.8475 10.5352 25.387 10.5352 25.387L8.7663 23.6181C6.73542 21.5872 6.75119 18.2787 8.80151 16.2284L16.227 8.80295C18.2773 6.75262 21.5858 6.73686 23.6166 8.76774L25.3852 10.5363C25.3852 10.5363 21.0617 10.6524 15.8564 15.8577ZM49.295 54.8652C50.8181 56.3883 53.2995 56.3765 54.8372 54.8388C56.3747 53.301 56.3867 50.8196 54.8636 49.2965C53.3405 47.7734 50.8591 47.7852 49.3214 49.3229C47.7836 50.8607 47.7718 53.342 49.295 54.8652ZM5.15949 5.16152C3.62175 6.69926 3.60993 9.18061 5.13309 10.7038C6.65624 12.2269 9.13759 12.2151 10.6753 10.6774C12.2131 9.13962 12.2249 6.65827 10.7017 5.13512C9.17868 3.61206 6.69726 3.62407 5.15949 5.16152ZM5.13309 49.2959C3.60993 50.8191 3.62175 53.3004 5.15949 54.8382C6.69726 56.3756 9.17868 56.3876 10.7017 54.8646C12.2249 53.3414 12.2131 50.8601 10.6753 49.3223C9.13759 47.7846 6.65624 47.7728 5.13309 49.2959ZM17.3116 20.2482C17.7298 19.7055 18.1876 19.1835 18.6849 18.6861C24.9333 12.4377 35.0638 12.4377 41.3122 18.6861C47.5605 24.9345 47.5605 35.0652 41.3122 41.3136C35.0638 47.5619 24.9333 47.5619 18.6849 41.3136C18.4082 41.0368 18.1437 40.7524 17.8914 40.4611C12.902 34.6987 12.7083 26.2208 17.3116 20.2482ZM42.0135 34.4221C41.3932 36.1109 40.4052 37.6951 39.0494 39.0508C34.0508 44.0495 25.9463 44.0495 20.9477 39.0508C20.8061 38.9092 20.6685 38.7651 20.5349 38.6187L24.672 35.7352C28.7397 32.9001 27.8354 26.6399 23.1316 25.0719L22.9016 24.9953C21.6428 24.5757 20.5829 23.7067 19.9246 22.5547C19.8752 22.4682 19.8238 22.3837 19.7707 22.3012C20.1261 21.8302 20.5185 21.3781 20.9477 20.9489C25.8756 16.0209 33.8219 15.9512 38.8353 20.7396C38.6545 21.499 38.7135 22.3326 39.0889 23.137C39.7439 24.5406 39.4509 26.204 38.3556 27.2992L36.2202 29.4347C33.9928 32.0049 36.4309 35.9076 39.7175 35.0331L42.0135 34.4221Z" fill="black"/>
</svg>
