<svg width="78" height="60" viewBox="0 0 78 60" fill="none" xmlns="http://www.w3.org/2000/svg">
<path fill-rule="evenodd" clip-rule="evenodd" d="M70.9938 29.9999C73.4877 29.9999 75.8117 31.3419 77.0587 33.5009C77.9937 35.1199 78.2417 37.0059 77.7577 38.8129C77.2907 40.5559 76.1947 42.0229 74.6627 42.9639L52.4798 58.2778L52.4558 58.2948L52.4328 58.3108C50.7808 59.4158 48.8578 59.9998 46.8708 59.9998H36.8729C36.0579 59.9998 35.2419 59.8988 34.4509 59.7018L34.4089 59.6908L34.3679 59.6808L19.8089 55.7148C19.2369 55.8968 18.6289 55.9998 17.9969 55.9998H5.99998C2.69099 55.9998 0 53.3088 0 49.9998V33.9999C0 30.6909 2.69099 27.9999 5.99998 27.9999H15.3639C15.1583 27.7901 14.9584 27.5873 14.7743 27.4007C14.7399 27.3658 14.7061 27.3316 14.6729 27.2979C11.66 24.2429 9.99997 20.2309 9.99997 15.9999C9.99997 7.17798 17.1779 0 25.9999 0H35.9969C38.5099 0 40.8809 0.594998 42.9989 1.631C45.1168 0.594998 47.4878 0 49.9998 0H59.9968C68.8198 0 75.9967 7.17798 75.9967 15.9999C75.9967 20.2369 74.3408 24.2489 71.3318 27.2979C70.6238 28.0159 69.7118 28.9469 68.6838 29.9999H70.9938ZM6.00147 52H8.00147C9.10547 52 10.0015 51.104 10.0015 50V34C10.0015 32.896 9.10547 32 8.00147 32H6.00147C4.89747 32 4.00146 32.896 4.00146 34V50C4.00146 51.104 4.89747 52 6.00147 52ZM62.5005 39.599C63.9355 38.771 64.4265 36.936 63.5985 35.501C62.7695 34.065 60.9355 33.574 59.5005 34.402L46.4755 41.429C46.1195 41.621 45.9125 42.009 45.9615 42.41C46.0575 43.204 45.9695 44.053 45.6425 44.915C44.9215 46.822 43.0085 48.018 40.9695 47.999L40.8375 47.998L40.8295 47.997H25.0015C24.4495 47.997 24.0015 47.549 24.0015 46.997C24.0015 46.444 24.4495 45.997 25.0015 45.997H40.9755C40.98 45.997 40.9845 45.9977 40.989 45.9985C40.9935 45.9993 40.998 46 41.0025 46C42.6595 46 44.0015 44.656 44.0015 43C44.0015 41.344 42.6595 40 41.0025 40H31.1805C30.4045 40 29.6385 39.819 28.9445 39.472L19.0574 34.528C18.3634 34.181 17.5975 34 16.8215 34H12.0015V50H13.3875C13.7955 50 14.2025 50.05 14.5985 50.149L35.4215 55.821C37.0645 56.231 38.8045 55.929 40.2125 54.986L62.5005 39.599ZM17.5215 24.489C20.2775 27.282 25.9235 33.106 30.5905 37.931C30.7845 37.971 30.9825 38 31.1805 38L41.0015 38.001C42.2235 38.001 43.3445 38.443 44.2135 39.173C49.0725 34.149 55.4905 27.528 58.4895 24.489C60.6465 22.302 62.0015 19.321 62.0015 16C62.0015 9.376 56.6325 4 50.0015 4C43.3775 4 38.0015 9.376 38.0015 16C38.0015 9.376 32.6325 4 26.0015 4C19.3775 4 14.0015 9.376 14.0015 16C14.0015 19.321 15.3635 22.302 17.5215 24.489Z" fill="black"/>
</svg>
