<svg width="94" height="60" viewBox="0 0 94 60" fill="none" xmlns="http://www.w3.org/2000/svg">
<path fill-rule="evenodd" clip-rule="evenodd" d="M54.2568 0.441996L90.8827 15.3589C92.7767 16.1299 93.9997 17.9519 93.9997 19.9999C93.9997 22.0469 92.7767 23.8699 90.8827 24.6409L79.9997 29.0729V49.9998C79.9997 59.2788 58.5688 59.9998 51.9998 59.9998H41.9999C36.5749 59.9998 21.0239 59.5018 15.772 54.1008H5.04399C3.59899 54.1008 2.223 53.4718 1.268 52.3758C0.292004 51.2548 -0.149999 49.7638 0.0540007 48.2838L1.788 35.7349C1.286 34.6259 0.999997 33.3579 0.999997 31.9999C0.999997 29.8479 1.74099 27.8509 2.99999 26.3889V24.5909C1.174 23.7939 0 22.0049 0 19.9999C0 17.9519 1.224 16.1299 3.11699 15.3589L39.7429 0.441996C40.4639 0.148997 41.2229 0 41.9999 0H51.9998C52.7778 0 53.5368 0.148997 54.2568 0.441996ZM79.3738 20.9324C80.2088 20.5924 80.2088 19.4024 79.3738 19.0624L42.7478 4.1425C42.2678 3.9525 41.7318 3.9525 41.2518 4.1425L4.62576 19.0624C3.79076 19.4024 3.79076 20.5924 4.62576 20.9324L6.99976 21.9025V28.2425C5.83676 28.7925 4.99976 30.2625 4.99976 32.0025C4.99976 34.2125 6.34276 36.0025 7.99977 36.0025C9.65677 36.0025 10.9998 34.2125 10.9998 32.0025C10.9998 30.2625 10.1628 28.7925 8.99977 28.2425V22.7125L41.2518 35.8525C41.7318 36.0425 42.2678 36.0425 42.7478 35.8525L79.3738 20.9324ZM20.2087 30.5335L20.2048 30.5325C19.9438 30.4825 19.6678 30.5324 19.4418 30.6824C19.1658 30.8724 18.9998 31.1825 18.9998 31.5125V39.8825C18.9998 40.1325 19.0898 40.3624 19.2528 40.5524C19.3428 40.6524 19.6088 40.9325 19.8238 41.0925C20.5518 41.6425 21.6178 42.1425 22.9528 42.5925C27.2468 44.0625 34.1798 45.0025 41.9998 45.0025C49.8198 45.0025 56.7528 44.0625 61.0458 42.5925C62.3808 42.1425 63.4478 41.6425 64.1758 41.0925C64.3908 40.9325 64.6568 40.6524 64.7468 40.5524C64.9098 40.3624 64.9998 40.1325 64.9998 39.8825V31.5125C64.9998 31.1825 64.8338 30.8724 64.5578 30.6824C64.3318 30.5324 64.0558 30.4825 63.7938 30.5325L63.7871 30.5343C63.7501 30.5437 63.7114 30.5536 63.6718 30.5725C63.6558 30.5725 63.6388 30.5825 63.6228 30.5925H63.6168L63.0698 30.8124L43.8788 38.6325C43.2798 38.8725 42.6468 39.0025 41.9998 39.0025C41.3518 39.0025 40.7198 38.8725 40.1208 38.6325L20.9298 30.8124L20.3828 30.5925H20.3768L20.3738 30.5907C20.3579 30.5813 20.3429 30.5725 20.3278 30.5725C20.2872 30.5531 20.2475 30.5432 20.2087 30.5335ZM41.9998 48.0025C34.3958 48.0025 22.6518 46.9524 17.9998 43.4224V50.0025C17.9998 53.3125 28.7448 56.0025 41.9998 56.0025C55.2548 56.0025 65.9998 53.3125 65.9998 50.0025V43.4224C61.3478 46.9524 49.6038 48.0025 41.9998 48.0025ZM10.3468 37.0325C9.68577 37.6325 8.87877 38.0025 7.99977 38.0025C7.17476 38.0025 6.40676 37.6825 5.76876 37.1425L4.01576 48.8325C3.92376 49.5025 4.40976 50.1025 5.04276 50.1025H10.9618C11.5908 50.1025 12.0758 49.5025 11.9898 48.8425L10.3468 37.0325Z" fill="black"/>
</svg>
