<svg width="70" height="60" viewBox="0 0 70 60" fill="none" xmlns="http://www.w3.org/2000/svg">
<path fill-rule="evenodd" clip-rule="evenodd" d="M53.3708 0.00900265C56.7538 0.186002 59.4688 2.80599 59.9308 6.15498C65.6328 7.08098 69.9998 12.04 69.9998 17.9999V47.9998C69.9998 54.6168 64.6168 59.9998 57.9998 59.9998H12C5.38398 59.9998 0 54.6168 0 47.9998V17.9999C0 12.047 4.35798 7.09198 10.05 6.15798C10.235 4.60699 10.929 3.17199 12.051 2.05C13.373 0.727001 15.1309 0 16.9999 0C17.1229 0 27.2469 0.00300268 27.3709 0.00900265C30.7009 0.184002 33.3849 2.72499 33.9079 5.99998H36.0709C36.2829 4.50898 36.9669 3.13399 38.0509 2.05C39.3729 0.727001 41.1319 0 43.0009 0C43.1229 0 53.2468 0.00300268 53.3708 0.00900265ZM8.99998 21.9983H50.9998C51.5518 21.9983 51.9998 21.5503 51.9998 20.9983V17.9983C51.9998 15.7893 50.2088 13.9983 47.9999 13.9983H12C9.79098 13.9983 7.99999 15.7893 7.99999 17.9983V20.9983C7.99999 21.5503 8.44798 21.9983 8.99998 21.9983ZM46.4999 31.9982C47.3289 31.9982 47.9999 31.3262 47.9999 30.4982V27.4982C47.9999 26.6702 47.3289 25.9982 46.4999 25.9982H43.4999C42.6719 25.9982 41.9999 26.6702 41.9999 27.4982V30.4982C41.9999 31.3262 42.6719 31.9982 43.4999 31.9982H46.4999ZM46.4999 41.9982C47.3289 41.9982 47.9999 41.3262 47.9999 40.4982V37.4982C47.9999 36.6702 47.3289 35.9982 46.4999 35.9982H43.4999C42.6719 35.9982 41.9999 36.6702 41.9999 37.4982V40.4982C41.9999 41.3262 42.6719 41.9982 43.4999 41.9982H46.4999ZM46.4999 51.9981C47.3289 51.9981 47.9999 51.3262 47.9999 50.4982V47.4982C47.9999 46.6702 47.3289 45.9982 46.4999 45.9982H43.4999C42.6719 45.9982 41.9999 46.6702 41.9999 47.4982V50.4982C41.9999 51.3262 42.6719 51.9981 43.4999 51.9981H46.4999ZM36.4999 31.9982C37.3289 31.9982 37.9999 31.3262 37.9999 30.4982V27.4982C37.9999 26.6702 37.3289 25.9982 36.4999 25.9982H33.4999C32.6719 25.9982 31.9999 26.6702 31.9999 27.4982V30.4982C31.9999 31.3262 32.6719 31.9982 33.4999 31.9982H36.4999ZM36.4999 41.9982C37.3289 41.9982 37.9999 41.3262 37.9999 40.4982V37.4982C37.9999 36.6702 37.3289 35.9982 36.4999 35.9982H33.4999C32.6719 35.9982 31.9999 36.6702 31.9999 37.4982V40.4982C31.9999 41.3262 32.6719 41.9982 33.4999 41.9982H36.4999ZM36.4999 51.9981C37.3289 51.9981 37.9999 51.3262 37.9999 50.4982V47.4982C37.9999 46.6702 37.3289 45.9982 36.4999 45.9982H33.4999C32.6719 45.9982 31.9999 46.6702 31.9999 47.4982V50.4982C31.9999 51.3262 32.6719 51.9981 33.4999 51.9981H36.4999ZM26.4999 31.9982C27.3289 31.9982 27.9999 31.3262 27.9999 30.4982V27.4982C27.9999 26.6702 27.3289 25.9982 26.4999 25.9982H23.4999C22.6719 25.9982 21.9999 26.6702 21.9999 27.4982V30.4982C21.9999 31.3262 22.6719 31.9982 23.4999 31.9982H26.4999ZM26.4999 41.9982C27.3289 41.9982 27.9999 41.3262 27.9999 40.4982V37.4982C27.9999 36.6702 27.3289 35.9982 26.4999 35.9982H23.4999C22.6719 35.9982 21.9999 36.6702 21.9999 37.4982V40.4982C21.9999 41.3262 22.6719 41.9982 23.4999 41.9982H26.4999ZM26.4999 51.9981C27.3289 51.9981 27.9999 51.3262 27.9999 50.4982V47.4982C27.9999 46.6702 27.3289 45.9982 26.4999 45.9982H23.4999C22.6719 45.9982 21.9999 46.6702 21.9999 47.4982V50.4982C21.9999 51.3262 22.6719 51.9981 23.4999 51.9981H26.4999ZM16.411 31.9982C17.239 31.9982 17.911 31.3262 17.911 30.4982V27.4982C17.911 26.6702 17.239 25.9982 16.411 25.9982H13.411C12.582 25.9982 11.911 26.6702 11.911 27.4982V30.4982C11.911 31.3262 12.582 31.9982 13.411 31.9982H16.411ZM16.411 41.9982C17.239 41.9982 17.911 41.3262 17.911 40.4982V37.4982C17.911 36.6702 17.239 35.9982 16.411 35.9982H13.411C12.582 35.9982 11.911 36.6702 11.911 37.4982V40.4982C11.911 41.3262 12.582 41.9982 13.411 41.9982H16.411ZM16.411 51.9981C17.239 51.9981 17.911 51.3262 17.911 50.4982V47.4982C17.911 46.6702 17.239 45.9982 16.411 45.9982H13.411C12.582 45.9982 11.911 46.6702 11.911 47.4982V50.4982C11.911 51.3262 12.582 51.9981 13.411 51.9981H16.411ZM45.9999 9.99829H47.9999C52.4178 9.99829 55.9998 13.5803 55.9998 17.9983V47.9982C55.9998 52.4161 52.4178 55.9981 47.9999 55.9981H12C7.58199 55.9981 4 52.4161 4 47.9982V17.9983C4 13.5803 7.58199 9.99829 12 9.99829H14V6.9983C14 5.28831 15.432 3.91131 17.162 4.00231C18.7839 4.08731 19.9999 5.54331 19.9999 7.1683V9.99829H39.9999V6.9983C39.9999 5.28831 41.4309 3.91131 43.1619 4.00231C44.7839 4.08731 45.9999 5.54331 45.9999 7.1683V9.99829Z" fill="black"/>
</svg>
