<svg width="91" height="61" viewBox="0 0 91 61" fill="none" xmlns="http://www.w3.org/2000/svg">
<path fill-rule="evenodd" clip-rule="evenodd" d="M85.9997 0.00195312C88.2087 0.00195312 89.9997 1.79195 89.9997 4.00194L90.0037 54.5048C90.0037 57.5378 87.5367 60.0047 84.5037 60.0047H72.5038C69.5308 60.0047 67.1078 57.6328 67.0128 54.6828C62.1738 58.0288 56.3188 60.0047 50.0038 60.0047H40.0039C34.2859 60.0047 28.9459 58.3838 24.3949 55.5958C23.8869 58.1068 21.6639 60.0047 19.0039 60.0047H7.00397C3.97098 60.0047 1.50399 57.5378 1.50399 54.5048V34.0048C1.50399 33.3138 1.69499 32.6738 2.00399 32.1058V25.0019C0.787995 24.0889 0 22.6359 0 21.0019V5.14193C0 2.30794 2.30599 0.00195312 5.14998 0.00195312H20.8599C23.1639 0.00195312 25.0959 1.53595 25.7469 3.62894C29.9909 1.32495 34.8439 0.00495147 40.0039 0.00495147H50.0038C56.7128 0.00495147 62.9068 2.22794 67.9078 5.96493C69.7978 2.44694 72.4418 0.00195312 75.9997 0.00195312H85.9997ZM5.50449 54.502C5.50449 55.332 6.17649 56.002 7.00449 56.002H9.00449C9.83349 56.002 10.5045 55.332 10.5045 54.502V34.002H5.50449V54.502ZM76.0036 34.002H69.0035V37.002C69.0035 37.552 69.4515 38.002 70.0035 38.002C70.5555 38.002 71.0035 38.452 71.0035 39.002V54.502C71.0035 55.332 71.6756 56.002 72.5035 56.002H74.5036C75.3326 56.002 76.0036 55.332 76.0036 54.502V34.002ZM12.0005 5.14197C12.0005 4.51197 11.4905 4.00195 10.8605 4.00195V17.4319C10.8575 17.7519 10.6035 18.002 10.2905 18.002C9.97449 18.002 9.7185 17.7419 9.7185 17.4319V4.00195H8.57549V17.4319C8.57549 17.7419 8.32049 18.002 8.00449 18.002C7.68949 18.002 7.43349 17.7419 7.43349 17.4319V4.00195H6.29049V17.4319C6.29049 17.7419 6.03449 18.002 5.71849 18.002C5.40849 18.002 5.15849 17.7519 5.15049 17.4419V4.00195H5.14049C4.51049 4.00195 4.00049 4.51197 4.00049 5.14197V21.002C4.00049 21.552 4.44849 22.002 5.00049 22.002H5.00449C5.55649 22.002 6.00449 22.452 6.00449 23.002V32.002H10.0045V23.002C10.0045 22.452 10.4525 22.002 11.0045 22.002C11.5545 22.002 12.0005 21.552 12.0005 21.002V5.14197ZM68.0005 32.002H76.0005V4.00195C71.5905 4.00195 68.0005 14.062 68.0005 24.002V32.002ZM66.0005 30.002C66.0005 15.642 54.3595 4.00195 40.0005 4.00195C25.6415 4.00195 14.0005 15.642 14.0005 30.002C14.0005 44.362 25.6415 56.002 40.0005 56.002C54.3595 56.002 66.0005 44.362 66.0005 30.002ZM54.0005 30.002C54.0005 37.722 47.7205 44.002 40.0005 44.002C32.2805 44.002 26.0005 37.722 26.0005 30.002C26.0005 22.282 32.2805 16.002 40.0005 16.002C47.7205 16.002 54.0005 22.282 54.0005 30.002ZM52.0005 30.002C52.0005 23.382 46.6275 18.002 40.0005 18.002C33.3735 18.002 28.0005 23.382 28.0005 30.002C28.0005 36.632 33.3735 42.002 40.0005 42.002C46.6275 42.002 52.0005 36.632 52.0005 30.002Z" fill="black"/>
</svg>
