<svg width="73" height="60" viewBox="0 0 73 60" fill="none" xmlns="http://www.w3.org/2000/svg">
<path fill-rule="evenodd" clip-rule="evenodd" d="M6 4C6 1.79086 7.79086 0 10 0H20H41H51C52.0609 0 53.0783 0.421427 53.8284 1.17157L64.8284 12.1716C65.5786 12.9217 66 13.9391 66 15V32H69C71.2091 32 73 33.7909 73 36V39.6148C73 41.1001 72.1905 42.3963 70.9886 43.0862V48.9138C72.1905 49.6037 73 50.8999 73 52.3852V56C73 58.2091 71.2091 60 69 60H62H60.8411H59H58.6537H52H50.8411H48.6537H43.4926H40.6137H33.4926H33.4857H30.6137H23.4857H21.1657H20H14H11.1657H10H4C1.79086 60 0 58.2091 0 56V52.3852C0 51.0006 0.703506 49.7803 1.77257 49.0623V42.9509C0.703506 42.2329 0 41.0126 0 39.628V36C0 33.7909 1.79086 32 4 32H6V4ZM10 4H38V14C38 16.2091 39.7909 18 42 18H52V32H50.8411C50.4619 32 50.0951 32.0528 49.7474 32.1514C49.3998 32.0528 49.0329 32 48.6537 32H33.4926C32.9899 32 32.5089 32.0927 32.0657 32.262C31.6225 32.0927 31.1415 32 30.6389 32H22.6811C20.9963 32 19.4921 33.0557 18.9194 34.6402L17.325 39.051L15.572 34.5487C14.9737 33.012 13.4936 32 11.8446 32H10V4ZM41 4L52 15H42C41.4477 15 41 14.5523 41 14V4ZM15 10C14.4477 10 14 10.4477 14 11C14 11.5523 14.4477 12 15 12H33C33.5523 12 34 11.5523 34 11C34 10.4477 33.5523 10 33 10H15ZM15 24C14.4477 24 14 24.4477 14 25C14 25.5523 14.4477 26 15 26H22C22.5523 26 23 25.5523 23 25C23 24.4477 22.5523 24 22 24H15ZM27 25C27 24.4477 27.4477 24 28 24H47C47.5523 24 48 24.4477 48 25C48 25.5523 47.5523 26 47 26H28C27.4477 26 27 25.5523 27 25ZM15 17C14.4477 17 14 17.4477 14 18C14 18.5523 14.4477 19 15 19H26C26.5523 19 27 18.5523 27 18C27 17.4477 26.5523 17 26 17H15ZM31 18C31 17.4477 31.4477 17 32 17H33C33.5523 17 34 17.4477 34 18C34 18.5523 33.5523 19 33 19H32C31.4477 19 31 18.5523 31 18ZM5.77257 52.3852H4V56H11.1657V52.3852H9.74514V41.277L15.5531 55.7625H19.0857L24.7931 40.8813V52.3852H23.4857V56H30.6137V52.3852H28.8663V39.628H30.6389V36H22.6811L17.464 50.4327L11.8446 36H4V39.628H5.77257V52.3852ZM48.6537 36H33.4926V39.9842H35.4914V52.3852H33.4926V56H48.6537V48.8364H44.5554V52.3852H39.6651V47.7546H43.4491V43.9288H39.6651V39.9842H44.5554V42.8206H48.6537V36ZM50.8411 36H59V39.6148H56.9886V52.3852H59V56H50.8411V52.3852H52.8149V39.6148H50.8411V36Z" fill="black"/>
</svg>
