<svg width="36" height="30" viewBox="0 0 36 30" fill="none" xmlns="http://www.w3.org/2000/svg">
<path fill-rule="evenodd" clip-rule="evenodd" d="M1.65097 9.25299L1.6629 9.22451C2.44154 7.40456 3.5091 5.80734 4.8699 4.45418C6.22643 3.05677 7.8111 1.96508 9.60966 1.18482L9.6301 1.17609C11.5063 0.386817 13.5099 0 15.6203 0H20.6203C22.6479 0 24.5845 0.392574 26.4106 1.18483C28.2092 1.96508 29.7939 3.05676 31.1504 4.45415C32.5086 5.80479 33.5748 7.39857 34.353 9.21428C35.1541 11.0339 35.5469 12.9822 35.5469 15.0364C35.5469 17.0948 35.1526 19.0626 34.3574 20.9212L34.3484 20.9418C33.5647 22.7182 32.4933 24.287 31.1359 25.6331C29.7785 26.979 28.1981 28.0397 26.4107 28.8152C24.5845 29.6074 22.6479 30 20.6203 30H15.6203C13.5099 30 11.5063 29.6132 9.63011 28.8239L9.60965 28.8152C7.82216 28.0397 6.24176 26.979 4.88441 25.6331C3.52698 24.287 2.45564 22.7182 1.67186 20.9418C1.66181 20.919 1.65218 20.896 1.64298 20.8729C0.909188 19.0258 0.546875 17.0749 0.546875 15.0364C0.546875 12.9983 0.909116 11.0638 1.65097 9.25299ZM3.50168 10.0112C2.86514 11.5649 2.54688 13.24 2.54688 15.0364C2.54688 16.8329 2.86514 18.5322 3.50168 20.1345C4.18718 21.6881 5.1175 23.0476 6.29264 24.2129C7.46778 25.3782 8.83878 26.3007 10.4056 26.9804C12.0215 27.6601 13.7597 28 15.6203 28C17.383 28 19.0478 27.6601 20.6147 26.9804C22.1815 26.3007 23.5525 25.3782 24.7277 24.2129C25.9028 23.0476 26.8331 21.6881 27.5186 20.1345C28.2041 18.5322 28.5469 16.8329 28.5469 15.0364C28.5469 13.24 28.2041 11.5649 27.5186 10.0112C26.8331 8.40897 25.9028 7.02521 24.7277 5.85995C23.5525 4.64612 22.1815 3.69935 20.6147 3.01961C19.0478 2.33986 17.383 2 15.6203 2C13.7597 2 12.0215 2.33986 10.4056 3.01961C8.83878 3.69935 7.46778 4.64612 6.29264 5.85995C5.1175 7.02521 4.18718 8.40897 3.50168 10.0112ZM6.69377 14.2325C6.59584 14.4715 6.54688 14.7292 6.54688 15.0056C6.54688 15.282 6.59584 15.5434 6.69377 15.7899C6.79923 16.0289 6.94236 16.2381 7.12315 16.4174C7.30394 16.5966 7.51486 16.7386 7.75591 16.8431C8.0045 16.9477 8.27192 17 8.55817 17C8.82936 17 9.08548 16.9477 9.32654 16.8431C9.56759 16.7386 9.77851 16.5966 9.9593 16.4174C10.1401 16.2381 10.2832 16.0289 10.3887 15.7899C10.4941 15.5434 10.5469 15.282 10.5469 15.0056C10.5469 14.7292 10.4941 14.4715 10.3887 14.2325C10.2832 13.986 10.1401 13.7731 9.9593 13.5938C9.77851 13.4071 9.56759 13.2614 9.32654 13.1569C9.08548 13.0523 8.82936 13 8.55817 13C8.27192 13 8.0045 13.0523 7.75591 13.1569C7.51486 13.2614 7.30394 13.4071 7.12315 13.5938C6.94236 13.7731 6.79923 13.986 6.69377 14.2325ZM13.6938 14.2325C13.5958 14.4715 13.5469 14.7292 13.5469 15.0056C13.5469 15.282 13.5958 15.5434 13.6938 15.7899C13.7992 16.0289 13.9424 16.2381 14.1231 16.4174C14.3039 16.5966 14.5149 16.7386 14.7559 16.8431C15.0045 16.9477 15.2719 17 15.5582 17C15.8294 17 16.0855 16.9477 16.3265 16.8431C16.5676 16.7386 16.7785 16.5966 16.9593 16.4174C17.1401 16.2381 17.2832 16.0289 17.3887 15.7899C17.4941 15.5434 17.5469 15.282 17.5469 15.0056C17.5469 14.7292 17.4941 14.4715 17.3887 14.2325C17.2832 13.986 17.1401 13.7731 16.9593 13.5938C16.7785 13.4071 16.5676 13.2614 16.3265 13.1569C16.0855 13.0523 15.8294 13 15.5582 13C15.2719 13 15.0045 13.0523 14.7559 13.1569C14.5149 13.2614 14.3039 13.4071 14.1231 13.5938C13.9424 13.7731 13.7992 13.986 13.6938 14.2325ZM20.5469 15.0056C20.5469 14.7292 20.5958 14.4715 20.6938 14.2325C20.7992 13.986 20.9424 13.7731 21.1231 13.5938C21.3039 13.4071 21.5149 13.2614 21.7559 13.1569C22.0045 13.0523 22.2719 13 22.5582 13C22.8294 13 23.0855 13.0523 23.3265 13.1569C23.5676 13.2614 23.7785 13.4071 23.9593 13.5938C24.1401 13.7731 24.2832 13.986 24.3887 14.2325C24.4941 14.4715 24.5469 14.7292 24.5469 15.0056C24.5469 15.282 24.4941 15.5434 24.3887 15.7899C24.2832 16.0289 24.1401 16.2381 23.9593 16.4174C23.7785 16.5966 23.5676 16.7386 23.3265 16.8431C23.0855 16.9477 22.8294 17 22.5582 17C22.2719 17 22.0045 16.9477 21.7559 16.8431C21.5149 16.7386 21.3039 16.5966 21.1231 16.4174C20.9424 16.2381 20.7992 16.0289 20.6938 15.7899C20.5958 15.5434 20.5469 15.282 20.5469 15.0056Z" fill="black"/>
</svg>
