<svg width="70" height="60" viewBox="0 0 70 60" fill="none" xmlns="http://www.w3.org/2000/svg">
<path fill-rule="evenodd" clip-rule="evenodd" d="M16.8857 0C16.7179 0 16.5511 0.00489005 16.3857 0.0145355C16.2203 0.00489005 16.0536 0 15.8857 0C11.215 0 7.42857 3.78639 7.42857 8.45714C7.42857 9.73567 7.71228 10.9479 8.22018 12.0344C3.54996 12.8502 0 16.9248 0 21.8286V31.4857C0 34.8299 2.63554 37.5585 5.94286 37.7079L5.94286 53.7714C5.94286 57.2114 8.73149 60 12.1714 60C12.3397 60 12.5065 59.9933 12.6714 59.9802C12.8364 59.9933 13.0031 60 13.1714 60C13.3397 60 13.5065 59.9933 13.6714 59.9802C13.8364 59.9933 14.0031 60 14.1714 60C14.3397 60 14.5065 59.9933 14.6714 59.9802C14.8364 59.9933 15.0031 60 15.1714 60C15.3397 60 15.5065 59.9933 15.6714 59.9802C15.8364 59.9933 16.0031 60 16.1714 60C16.3397 60 16.5065 59.9933 16.6714 59.9802C16.8364 59.9933 17.0031 60 17.1714 60C17.3397 60 17.5065 59.9933 17.6714 59.9802C17.8364 59.9933 18.0031 60 18.1714 60C18.3397 60 18.5065 59.9933 18.6714 59.9802C18.8364 59.9933 19.0031 60 19.1714 60C19.2431 60 19.3146 59.9988 19.3857 59.9964C19.4568 59.9988 19.5283 60 19.6 60C19.6958 60 19.791 59.9978 19.8857 59.9936C19.9804 59.9978 20.0757 60 20.1714 60C20.2431 60 20.3146 59.9988 20.3857 59.9964C20.4568 59.9988 20.5283 60 20.6 60C20.6958 60 20.791 59.9978 20.8857 59.9936C20.9804 59.9978 21.0757 60 21.1714 60C21.2431 60 21.3146 59.9988 21.3857 59.9964C21.4568 59.9988 21.5283 60 21.6 60C21.6958 60 21.791 59.9978 21.8857 59.9936C21.9804 59.9978 22.0757 60 22.1714 60C22.2431 60 22.3146 59.9988 22.3857 59.9964C22.4568 59.9988 22.5283 60 22.6 60C22.7683 60 22.9351 59.9933 23.1 59.9802C23.2649 59.9933 23.4317 60 23.6 60C23.7683 60 23.9351 59.9933 24.1 59.9802C24.2649 59.9933 24.4317 60 24.6 60C24.7683 60 24.9351 59.9933 25.1 59.9802C25.2649 59.9933 25.4317 60 25.6 60C25.7683 60 25.9351 59.9933 26.1 59.9802C26.2649 59.9933 26.4317 60 26.6 60C26.7683 60 26.9351 59.9933 27.1 59.9802C27.2649 59.9933 27.4317 60 27.6 60C27.7683 60 27.935 59.9933 28.1 59.9802C28.2649 59.9933 28.4317 60 28.6 60C28.7683 60 28.9351 59.9933 29.1 59.9802C29.2649 59.9933 29.4317 60 29.6 60C31.9088 60 33.9242 58.7438 35 56.8776C36.0758 58.7438 38.0912 60 40.4 60C40.5683 60 40.7351 59.9933 40.9 59.9802C41.0649 59.9933 41.2317 60 41.4 60C41.5683 60 41.7351 59.9933 41.9 59.9802C42.0649 59.9933 42.2317 60 42.4 60C42.5683 60 42.735 59.9933 42.9 59.9802C43.0649 59.9933 43.2317 60 43.4 60C43.5683 60 43.735 59.9933 43.9 59.9802C44.0649 59.9933 44.2317 60 44.4 60C44.5683 60 44.7351 59.9933 44.9 59.9802C45.0649 59.9933 45.2317 60 45.4 60C45.5683 60 45.735 59.9933 45.9 59.9802C46.0649 59.9933 46.2317 60 46.4 60C46.5683 60 46.735 59.9933 46.9 59.9802C47.0649 59.9933 47.2317 60 47.4 60C47.4717 60 47.5432 59.9988 47.6143 59.9964C47.6854 59.9988 47.7569 60 47.8286 60C47.9243 60 48.0196 59.9978 48.1143 59.9936C48.209 59.9978 48.3042 60 48.4 60C48.4717 60 48.5432 59.9988 48.6143 59.9964C48.6854 59.9988 48.7569 60 48.8286 60C48.9243 60 49.0196 59.9978 49.1143 59.9936C49.209 59.9978 49.3042 60 49.4 60C49.4717 60 49.5431 59.9988 49.6143 59.9964C49.6854 59.9988 49.7568 60 49.8286 60C49.9243 60 50.0196 59.9978 50.1143 59.9936C50.209 59.9978 50.3042 60 50.4 60C50.4717 60 50.5431 59.9988 50.6143 59.9964C50.6854 59.9988 50.7569 60 50.8286 60C50.9969 60 51.1636 59.9933 51.3286 59.9802C51.4935 59.9933 51.6603 60 51.8286 60C51.9969 60 52.1636 59.9933 52.3286 59.9802C52.4935 59.9933 52.6603 60 52.8286 60C52.9969 60 53.1636 59.9933 53.3286 59.9802C53.4935 59.9933 53.6603 60 53.8286 60C53.9969 60 54.1636 59.9933 54.3286 59.9802C54.4935 59.9933 54.6603 60 54.8286 60C54.9969 60 55.1636 59.9933 55.3286 59.9802C55.4935 59.9933 55.6603 60 55.8286 60C55.9969 60 56.1636 59.9933 56.3286 59.9802C56.4935 59.9933 56.6603 60 56.8286 60C56.9969 60 57.1636 59.9933 57.3286 59.9802C57.4935 59.9933 57.6603 60 57.8286 60C61.2685 60 64.0571 57.2114 64.0571 53.7714V37.7079C67.3645 37.5585 70 34.8299 70 31.4857V21.8286C70 16.9248 66.45 12.8502 61.7798 12.0344C62.2877 10.9479 62.5714 9.73567 62.5714 8.45714C62.5714 3.78639 58.785 0 54.1143 0C53.9464 0 53.7797 0.00489006 53.6143 0.0145355C53.4488 0.00489006 53.2821 0 53.1143 0C52.9464 0 52.7797 0.00489006 52.6143 0.0145355C52.4488 0.00489006 52.2821 0 52.1143 0C51.9464 0 51.7797 0.00489006 51.6143 0.0145355C51.4488 0.00489006 51.2821 0 51.1143 0C50.9464 0 50.7797 0.00489006 50.6143 0.0145355C50.4488 0.00489005 50.2821 0 50.1143 0C49.9464 0 49.7797 0.00489005 49.6143 0.0145355C49.4488 0.00489005 49.2821 0 49.1143 0C48.9464 0 48.7797 0.00489036 48.6143 0.0145364C48.4488 0.00489047 48.2821 0 48.1143 0C47.9464 0 47.7797 0.00489009 47.6143 0.0145356C47.4488 0.00489009 47.2821 0 47.1143 0C46.9464 0 46.7797 0.00489012 46.6143 0.0145356C46.4489 0.0048901 46.2821 0 46.1143 0C45.9464 0 45.7797 0.00489022 45.6143 0.0145359C45.4489 0.00489019 45.2821 0 45.1143 0C44.9464 0 44.7797 0.00489006 44.6143 0.0145355C44.4488 0.00489006 44.2821 0 44.1143 0C43.9074 0 43.7022 0.00742894 43.4991 0.0220346C43.3251 0.00744311 43.1491 0 42.9714 0C42.8031 0 42.6364 0.0066758 42.4714 0.0197771C42.3065 0.0066758 42.1397 0 41.9714 0C41.8031 0 41.6364 0.00667581 41.4714 0.0197771C41.3065 0.00667581 41.1397 0 40.9714 0C40.8031 0 40.6364 0.0066758 40.4714 0.019777C40.3065 0.0066758 40.1397 0 39.9714 0C39.8031 0 39.6364 0.00667586 39.4714 0.0197772C39.3065 0.00667585 39.1397 0 38.9714 0C38.8031 0 38.6364 0.00667596 38.4714 0.0197775C38.3065 0.00667595 38.1397 0 37.9714 0C37.8128 0 37.6556 0.00592756 37.5 0.0175732C37.3444 0.00592756 37.1872 0 37.0286 0L37 6.41508e-05L36.9714 0C36.8128 0 36.6556 0.00592758 36.5 0.0175733C36.3444 0.00592758 36.1872 0 36.0286 0L36 6.41509e-05L35.9714 0C35.8128 0 35.6556 0.00592759 35.5 0.0175733C35.3444 0.00592759 35.1872 0 35.0286 0L35 6.41515e-05L34.9714 0C34.8128 0 34.6556 0.00592756 34.5 0.0175732C34.3444 0.00592756 34.1872 0 34.0286 0L34 6.41507e-05L33.9714 0C33.8128 0 33.6556 0.00592756 33.5 0.0175732C33.3444 0.00592756 33.1872 0 33.0286 0L33 6.4151e-05L32.9714 0C32.8128 0 32.6556 0.00592757 32.5 0.0175732C32.3444 0.00592757 32.1872 0 32.0286 0C31.8603 0 31.6935 0.0066758 31.5286 0.0197771C31.3636 0.0066758 31.1969 0 31.0286 0C30.8603 0 30.6935 0.00667581 30.5286 0.0197771C30.3636 0.00667581 30.1969 0 30.0286 0C29.8603 0 29.6935 0.0066758 29.5286 0.0197771C29.3636 0.0066758 29.1969 0 29.0286 0C28.8603 0 28.6935 0.00667587 28.5286 0.0197773C28.3636 0.00667588 28.1969 0 28.0286 0C27.8603 0 27.6935 0.00667581 27.5286 0.0197771C27.3636 0.00667581 27.1969 0 27.0286 0C26.8509 0 26.6749 0.00744313 26.5009 0.0220347C26.2978 0.00742895 26.0926 0 25.8857 0C25.7179 0 25.5511 0.00489016 25.3857 0.0145358C25.2203 0.00489024 25.0536 0 24.8857 0C24.7179 0 24.5511 0.00489017 24.3857 0.0145358C24.2203 0.00489032 24.0536 0 23.8857 0C23.7179 0 23.5511 0.00489007 23.3857 0.0145355C23.2203 0.00489006 23.0536 0 22.8857 0C22.7179 0 22.5511 0.00489007 22.3857 0.0145355C22.2203 0.00489007 22.0536 0 21.8857 0C21.7179 0 21.5511 0.00489006 21.3857 0.0145355C21.2203 0.00489006 21.0536 0 20.8857 0C20.7179 0 20.5511 0.00489007 20.3857 0.0145355C20.2203 0.00489007 20.0536 0 19.8857 0C19.7179 0 19.5511 0.00489005 19.3857 0.0145355C19.2203 0.00489005 19.0536 0 18.8857 0C18.7179 0 18.5511 0.00489021 18.3857 0.0145359C18.2203 0.00489033 18.0536 0 17.8857 0C17.7179 0 17.5511 0.0048901 17.3857 0.0145356C17.2203 0.00489011 17.0536 0 16.8857 0ZM27.0286 4C25.7978 4 24.8 4.99777 24.8 6.22857L24.8 12.9143C24.8 14.5554 23.4696 15.8857 21.8286 15.8857H9.94286C6.66071 15.8857 4 18.5464 4 21.8286V31.4857C4 32.7165 4.99777 33.7143 6.22857 33.7143C7.45938 33.7143 8.45714 32.7165 8.45714 31.4857L8.45714 21.0857C8.45714 20.6754 8.78973 20.3429 9.2 20.3429C9.61027 20.3429 9.94286 20.6754 9.94286 21.0857L9.94286 53.7714C9.94286 55.0022 10.9406 56 12.1714 56C13.4022 56 14.4 55.0022 14.4 53.7714V39.6571C14.4 38.8366 15.0652 38.1714 15.8857 38.1714C16.7063 38.1714 17.3714 38.8366 17.3714 39.6571V53.7714C17.3714 55.0022 18.3692 56 19.6 56C20.8308 56 21.8286 55.0022 21.8286 53.7714V21.3429C21.8286 20.7906 22.2787 20.3499 22.8261 20.2765C26.4571 19.7891 29.2571 16.6787 29.2571 12.9143V6.22857C29.2571 4.99777 28.2594 4 27.0286 4ZM15.8857 4C13.4241 4 11.4286 5.99553 11.4286 8.45714C11.4286 10.9188 13.4241 12.9143 15.8857 12.9143C18.3473 12.9143 20.3429 10.9188 20.3429 8.45714C20.3429 5.99553 18.3473 4 15.8857 4ZM32.9714 4C34.2022 4 35.2 4.99777 35.2 6.22857L35.2 12.9143C35.2 14.5554 36.5304 15.8857 38.1714 15.8857H50.0571C53.3393 15.8857 56 18.5464 56 21.8286V31.4857C56 32.7165 55.0022 33.7143 53.7714 33.7143C52.5406 33.7143 51.5429 32.7165 51.5429 31.4857L51.5429 21.0857C51.5429 20.6754 51.2103 20.3429 50.8 20.3429C50.3897 20.3429 50.0571 20.6754 50.0571 21.0857L50.0571 53.7714C50.0571 55.0022 49.0594 56 47.8286 56C46.5978 56 45.6 55.0022 45.6 53.7714V39.6571C45.6 38.8366 44.9348 38.1714 44.1143 38.1714C43.2937 38.1714 42.6286 38.8366 42.6286 39.6571V53.7714C42.6286 55.0022 41.6308 56 40.4 56C39.1692 56 38.1714 55.0022 38.1714 53.7714V21.3429C38.1714 20.7906 37.7213 20.3499 37.1739 20.2765C33.5429 19.7891 30.7429 16.6787 30.7429 12.9143V6.22857C30.7429 4.99777 31.7406 4 32.9714 4ZM44.1143 4C46.5759 4 48.5714 5.99553 48.5714 8.45714C48.5714 10.9188 46.5759 12.9143 44.1143 12.9143C41.6527 12.9143 39.6571 10.9188 39.6571 8.45714C39.6571 5.99553 41.6527 4 44.1143 4Z" fill="black"/>
</svg>
