<svg width="78" height="60" viewBox="0 0 78 60" fill="none" xmlns="http://www.w3.org/2000/svg">
<path fill-rule="evenodd" clip-rule="evenodd" d="M71.2656 15.8969L76.2716 29.5799C80.7976 42.0159 76.0496 55.2008 65.6867 58.9738C63.8147 59.6538 61.8457 59.9998 59.8357 59.9998H49.8217C42.6687 59.9998 35.8498 55.7448 31.5168 48.9828C30.4018 49.1958 29.2808 49.3168 28.1628 49.3168H18.1478C16.1388 49.3168 14.1708 48.9728 12.2998 48.2908C1.93687 44.5188 -2.81211 31.3339 1.71387 18.8979L6.67285 5.27398C7.79485 2.11899 10.8318 0 14.2298 0H24.2448C24.7728 0 25.3048 0.0520003 25.8258 0.152C26.6288 0.308999 27.8778 0.537998 29.0748 0.756997C30.0408 0.933997 30.9738 1.105 31.6228 1.228C33.9988 1.68099 36.3618 2.32899 38.6767 3.16699C38.6877 3.17099 38.6987 3.17499 38.7087 3.17799C38.7097 3.17899 38.7107 3.17899 38.7117 3.17899C38.7277 3.18399 38.7437 3.18999 38.7597 3.19599C41.0667 4.03799 43.3177 5.07098 45.4507 6.26698C45.9303 6.53576 46.5842 6.90754 47.2837 7.30528C47.417 7.38108 47.552 7.45782 47.6877 7.53497C48.7387 8.13397 49.8357 8.75897 50.5467 9.15397C51.3197 9.58297 52.0007 10.141 52.5877 10.78C52.9637 10.728 53.3417 10.693 53.7187 10.693H63.7327C67.0986 10.693 70.1256 12.784 71.2656 15.8969ZM62.4989 30.9483L57.4949 17.2732C56.8139 15.4142 54.8639 14.3932 52.9029 14.7722C52.104 14.9264 50.8664 15.1522 49.6748 15.3698C48.7096 15.5459 47.7744 15.7166 47.1269 15.8392C44.9159 16.2582 42.7399 16.8572 40.6249 17.6272H40.6229L40.6199 17.6282C38.5109 18.3962 36.4639 19.3342 34.5059 20.4292C33.9427 20.7443 33.1403 21.2002 32.3068 21.6739C31.2253 22.2884 30.0914 22.9327 29.3589 23.3382C27.5999 24.3142 26.7639 26.3712 27.4599 28.2412L32.4289 41.8922C36.2069 52.2722 45.9999 58.2373 54.3049 55.2143C62.6079 52.1923 66.2769 41.3283 62.4989 30.9483ZM56.3029 25.7082C56.6579 26.2202 56.3839 26.9212 55.7869 26.9802C54.5209 27.1052 53.1719 27.4092 51.8129 27.9032C50.4539 28.3982 49.2249 29.0332 48.1749 29.7512C47.6799 30.0892 47.0199 29.7282 46.9619 29.1082C46.7439 26.7602 48.0479 24.5022 50.2799 23.6902C52.5109 22.8782 54.9609 23.7702 56.3029 25.7082ZM58.7943 35.4249C58.8128 35.4931 58.831 35.5597 58.8539 35.6232C59.5109 38.4262 58.6749 41.5892 56.6299 44.0312C55.3119 45.6142 53.5159 46.9373 51.5459 47.6363C49.5879 48.3663 47.3619 48.5072 45.3339 48.1422C42.1989 47.5862 39.5249 45.7012 38.2259 43.1302C38.2026 43.0667 38.1737 43.004 38.1442 42.94C38.0762 42.7926 38.0049 42.6379 37.9909 42.4483C38.0319 41.5486 39.7532 41.3811 40.7121 41.2878C40.8756 41.2719 41.0169 41.2581 41.1239 41.2432C43.6309 40.8962 46.1629 40.3522 48.5599 39.4332C50.9869 38.5962 53.2769 37.3852 55.4199 36.0402C55.5118 35.9826 55.6293 35.9021 55.7652 35.8089C56.5607 35.2636 57.986 34.2864 58.5949 34.9492C58.7065 35.1027 58.7515 35.2678 58.7943 35.4249ZM38.6579 32.6912C37.2979 33.1862 36.0699 33.8213 35.0189 34.5393C34.5239 34.8773 33.8639 34.5163 33.8069 33.8963C33.5879 31.5483 34.8919 29.2902 37.1239 28.4782C39.3549 27.6662 41.8059 28.5572 43.1469 30.4962C43.5019 31.0082 43.2279 31.7092 42.6309 31.7682C41.3659 31.8932 40.0159 32.1972 38.6579 32.6912ZM29.1099 40.8162L27.8979 37.4873C27.2883 38.1498 25.861 37.1708 25.0666 36.626C24.9318 36.5335 24.8152 36.4536 24.7239 36.3963C22.5799 35.0513 20.2899 33.8402 17.8629 33.0032C15.4669 32.0842 12.9339 31.5402 10.4269 31.1922C10.3208 31.1776 10.1812 31.1641 10.0196 31.1485C9.06184 31.0556 7.33584 30.8884 7.29391 29.9882C7.30791 29.7979 7.37968 29.6423 7.44789 29.4944C7.47716 29.431 7.50578 29.369 7.5289 29.3062C8.8279 26.7342 11.5019 24.8502 14.6369 24.2942C16.6649 23.9292 18.8909 24.0692 20.8499 24.7992C22.1629 25.2662 23.3959 26.0142 24.4649 26.9282C24.4469 24.7582 25.5009 22.6712 27.3639 21.3542C26.2579 20.2652 25.6699 18.6972 25.8199 17.0762C25.8779 16.4562 26.5379 16.0952 27.0329 16.4342C28.0829 17.1512 29.3119 17.7862 30.6709 18.2812C31.1109 18.4412 31.5479 18.5742 31.9829 18.6942C32.4279 18.4422 32.8369 18.2112 33.1619 18.0282C35.2299 16.8712 37.4119 15.8712 39.6489 15.0552C39.6669 15.0482 39.6859 15.0412 39.7039 15.0352L39.7059 15.0342C39.8696 14.9747 40.0346 14.9198 40.1998 14.8648C40.2868 14.8359 40.3739 14.8069 40.4609 14.7772C40.1199 13.9032 39.4719 13.1412 38.5899 12.6502C37.8769 12.2541 36.7795 11.6296 35.7241 11.0289C34.8745 10.5454 34.052 10.0773 33.4789 9.75622C31.5169 8.65522 29.4639 7.71518 27.3499 6.94518L27.3479 6.9442C27.3479 6.9442 27.3459 6.94423 27.3439 6.94323C25.2359 6.17623 23.0649 5.57719 20.8599 5.15819C20.2348 5.03961 19.3425 4.87599 18.4127 4.70548C17.1784 4.47913 15.8778 4.24062 15.0479 4.07921C13.0729 3.69521 11.1099 4.73419 10.4419 6.61419L5.4729 20.2672C1.69489 30.6452 5.36389 41.5102 13.6669 44.5322C18.8419 46.4163 24.5949 44.8072 29.1099 40.8162ZM15.9819 17.7062C13.7499 16.8932 12.4469 14.6362 12.6649 12.2882C12.7229 11.6672 13.3819 11.3072 13.8769 11.6452C14.9279 12.3632 16.1559 12.9982 17.5159 13.4922C18.8739 13.9872 20.2239 14.2912 21.4889 14.4162C22.0859 14.4752 22.3599 15.1762 22.0049 15.6882C20.6639 17.6262 18.2129 18.5182 15.9819 17.7062Z" fill="black"/>
</svg>
