<svg width="90" height="60" viewBox="0 0 90 60" fill="none" xmlns="http://www.w3.org/2000/svg">
<path fill-rule="evenodd" clip-rule="evenodd" d="M7.99609 58H38.2158C38.9263 59.2207 40.2358 60 41.686 60H75.9961C78.9658 60 81.5762 58.3594 82.9561 55.9395C86.9062 55.4707 89.9961 52.0801 89.9961 48V40C89.9961 35.9199 87.5059 32.4102 83.9961 30.8105V29.5C83.9961 23.8691 83.4463 18.9609 81.9658 15.4492C80.4961 11.9805 78.2661 9.58008 74.9961 8.55078C74.2861 3.73047 70.106 0 65.106 0H49.106C43.9561 0 39.6758 3.93945 39.1562 8.96094C38.7358 9.24023 38.376 9.58984 38.0859 10H37.9961H9.99609C9.80615 10 9.60596 10.0098 9.41602 10.0195C9.27588 10.0098 9.146 10 8.99609 10C8.89697 10 8.79492 10.0039 8.69287 10.0078L8.41602 10.0195C8.27588 10.0098 8.146 10 7.99609 10C3.59619 10 0 13.5996 0 18V50C0 54.4004 3.59619 58 7.99609 58ZM61.106 12V10C61.106 6.69922 58.4062 4 55.106 4H49.106C45.8062 4 43.106 6.69922 43.106 10V12C42.5762 12 41.9663 12.0801 41.356 12.3008C42.0762 12.9492 42.5962 13.8008 42.8462 14.7598C43.7959 14.2695 44.876 14 45.9961 14H58.0962C61.876 14 65.0962 17.0703 65.0962 21V24.5996C65.0962 26.3398 64.416 27.9609 63.2959 29.1895C65.5361 30.3809 67.0962 32.7402 67.0962 35.4004V49C67.0962 51.8105 64.9062 54 62.0962 54H42.876C42.7158 54.6602 42.3862 55.3105 41.8462 55.8496C41.7959 55.9004 41.7363 55.9492 41.686 56H65.9961C68.1958 56 69.9961 54.1992 69.9961 52V29.5C69.9961 19.5 68.3662 12 61.106 12ZM57.9961 10V12H45.9961V10C45.9961 8.30078 47.3062 7 48.9961 7H54.9961C56.6958 7 57.9961 8.30078 57.9961 10ZM45.9961 16C44.8862 16 43.8462 16.3691 42.9961 17.0098V28.4707C43.3262 28.4297 43.666 28.4004 43.9961 28.4004H45.0459C45.0962 28.0703 45.186 27.7598 45.3062 27.4609C45.916 26.0195 47.3462 25 48.9961 25H55.0962C56.7563 25 58.186 26.0195 58.7959 27.4609C58.916 27.7598 59.0059 28.0703 59.0562 28.4004H60.0962C60.4561 28.4004 60.7959 28.4297 61.1362 28.4805C62.3359 27.5508 63.0962 26.1191 63.0962 24.5996V21C63.0962 18.1992 60.7959 16 58.0962 16H45.9961ZM40.9961 49.5098C41.396 49.7305 41.7661 50.0293 42.0762 50.4102C42.4863 50.9004 42.7461 51.4395 42.8862 52H62.0962C63.7959 52 65.0962 50.6992 65.0962 49V35.4004C65.0962 33.1895 63.5659 31.25 61.5259 30.6191C60.9961 30.9199 60.4263 31.1699 59.8262 31.3301L59.5659 31.4004H59.0962V33C59.0962 33.3594 59.0562 33.6992 58.9663 34.0391C58.8262 34.5508 58.5962 35.0098 58.2759 35.4199C58.2256 35.4883 58.1753 35.5527 58.123 35.6152C58.061 35.6895 57.9966 35.7598 57.9263 35.8301L57.896 35.8008C57.0962 36.5 56.0962 37 54.9961 37H49.0962C47.9961 37 46.9961 36.5 46.1963 35.8008L46.1763 35.8301C46.0459 35.6992 45.9263 35.5703 45.8262 35.4199C45.5063 35.0098 45.2759 34.5508 45.1362 34.0391C45.0459 33.6992 44.9961 33.3594 44.9961 33V31.4004H44.5361L44.2759 31.3301C43.8359 31.2109 43.4062 31.0508 42.9961 30.8496V44C42.9961 45.6309 42.2158 47.0801 40.9961 48V49.5098ZM75.9961 40C75.9961 37.4004 74.2959 35.1992 71.9961 34.3008V52C74.1958 52 75.9961 50.1992 75.9961 48V40ZM47.9839 27.2812C47.3965 27.6328 46.9961 28.2773 46.9961 29V33C46.9961 33.2422 47.0415 33.4785 47.1245 33.6973C47.1919 33.875 47.2837 34.041 47.396 34.1895L47.5161 34.3008C48.0762 34.7793 48.626 35 49.0962 35H54.9961C55.4761 35 56.0259 34.7793 56.5859 34.3008L56.7061 34.1895C56.9561 33.8594 57.0962 33.4395 57.0962 33V29C57.0962 27.9102 56.1963 27 55.0962 27H48.9961C48.6289 27 48.2822 27.1035 47.9839 27.2812ZM39.9961 53C39.9961 52.7305 39.916 52.5 39.7759 52.3301C39.606 52.1191 39.3359 52 38.9961 52H7.99609C6.896 52 5.99609 51.0996 5.99609 50V48C5.99609 46.9004 6.896 46 7.99609 46H37.9961C39.106 46 39.9961 45.0996 39.9961 44V16C39.9961 14.9004 39.106 14 37.9961 14H9.99609V43C9.99609 43.5996 9.60596 44 8.99609 44C8.89795 44 8.8042 43.9883 8.7168 43.9668C8.61719 43.9434 8.52588 43.9062 8.44629 43.8594C8.16602 43.6895 7.99609 43.3906 7.99609 43V14C5.7959 14 3.99609 15.8008 3.99609 18V50C3.99609 52.1992 5.7959 54 7.99609 54H38.9961C39.3994 54 39.7065 53.8242 39.8682 53.5332C39.9512 53.3828 39.9961 53.2031 39.9961 53ZM37.9961 50V48H8.99609C8.396 48 7.99609 48.4004 7.99609 49C7.99609 49.5996 8.396 50 8.99609 50H37.9961Z" fill="black"/>
</svg>
