<svg width="70" height="60" viewBox="0 0 70 60" fill="none" xmlns="http://www.w3.org/2000/svg">
<path fill-rule="evenodd" clip-rule="evenodd" d="M43.7599 1.02399C46.6148 2.64699 54.8198 5.99998 61.9578 5.99998C66.3688 5.99998 69.9578 9.58897 69.9578 14V23.9999C69.9578 38.7219 55.2928 52.7628 41.6669 59.5768C41.1039 59.8588 40.4909 59.9998 39.8779 59.9998H29.9189C29.3069 59.9998 28.6939 59.8588 28.1309 59.5778C14.582 52.8058 0 38.7829 0 23.9599V14C0 9.58897 3.58799 5.99998 7.99997 5.99998C15.0109 5.99998 23.1779 2.64899 26.0339 1.027C27.2169 0.354999 28.5619 0 29.9229 0H39.8809C41.2409 0 42.5819 0.353997 43.7599 1.02399ZM55.999 13.9999C55.999 11.7909 54.208 9.99993 51.999 9.99993C43.999 9.99993 35.064 6.3439 31.824 4.5009C30.644 3.8299 29.19 3.83486 28.009 4.50486C24.779 6.33987 16 9.99993 8 9.99993C5.791 9.99993 4 11.7909 4 13.9999V23.9999C4 37.0039 17.916 50 29.919 56C41.915 50 55.999 37.0039 55.999 23.9999V13.9999ZM39.999 25.9999V37.9999C39.999 39.104 39.104 40 37.999 40H21.999C20.896 40 20 39.104 20 37.9999V25.9999C20 24.8959 20.896 23.9999 21.999 23.9999H23.999V18.9999C23.999 17.3429 25.342 15.9999 26.999 15.9999H32.999C34.656 15.9999 35.999 17.3429 35.999 18.9999V23.9999H37.999C39.104 23.9999 39.999 24.8959 39.999 25.9999ZM32.999 19.4999C32.999 19.0859 32.663 18.7499 32.249 18.7499H27.749C27.336 18.7499 26.999 19.0859 26.999 19.4999V23.2499H32.999V19.4999ZM31.285 32.7859C32.05 32.3409 32.571 31.5199 32.571 30.5709C32.571 29.1509 31.42 27.9999 29.999 27.9999C28.579 27.9999 27.428 29.1509 27.428 30.5709C27.428 31.5199 27.948 32.3409 28.714 32.7859V34.7149C28.714 35.4249 29.289 35.9999 29.999 35.9999C30.71 35.9999 31.285 35.4249 31.285 34.7149V32.7859Z" fill="black"/>
</svg>
