<svg width="56" height="61" viewBox="0 0 56 61" fill="none" xmlns="http://www.w3.org/2000/svg">
<path fill-rule="evenodd" clip-rule="evenodd" d="M4 5C1.79086 5 0 6.79086 0 9V57C0 59.2091 1.79086 61 4 61H52C54.2091 61 56 59.2091 56 57V9C56 6.79086 54.2091 5 52 5H44.4185C43.2317 2.06817 40.3574 0 37 0H19C15.6426 0 12.7683 2.06817 11.5815 5H4ZM15 8C15 5.79086 16.7909 4 19 4H27C29.2091 4 31 5.79086 31 8C31 10.2091 29.2091 12 27 12H19C16.7909 12 15 10.2091 15 8ZM11.0619 9C11.554 12.9463 14.9204 16 19 16H27C31.0796 16 34.446 12.9463 34.9381 9H42V57H4V9H11.0619ZM8 21.5C8 20.6716 8.67157 20 9.5 20C10.3284 20 11 20.6716 11 21.5C11 22.3284 10.3284 23 9.5 23C8.67157 23 8 22.3284 8 21.5ZM17.3945 34.0428C12.4213 34.0619 9.95411 40.0578 13.4853 43.5472L23.0514 53L32.5442 43.4742C36.0483 39.9579 33.5349 33.981 28.5617 34C26.8904 34.0064 25.393 34.7424 24.3739 35.9066C23.514 36.8884 22.9941 38.173 22.9996 39.5816C22.9909 37.3353 21.6471 35.4055 19.7192 34.5343C19.0107 34.2145 18.2246 34.0396 17.3945 34.0428ZM9.5 27C8.67157 27 8 27.6716 8 28.5C8 29.3284 8.67157 30 9.5 30C10.3284 30 11 29.3284 11 28.5C11 27.6716 10.3284 27 9.5 27ZM15 21.5C15 20.6716 15.6716 20 16.5 20H36.5C37.3284 20 38 20.6716 38 21.5C38 22.3284 37.3284 23 36.5 23H16.5C15.6716 23 15 22.3284 15 21.5ZM16.5 27C15.6716 27 15 27.6716 15 28.5C15 29.3284 15.6716 30 16.5 30H36.5C37.3284 30 38 29.3284 38 28.5C38 27.6716 37.3284 27 36.5 27H16.5Z" fill="black"/>
</svg>
