<svg width="111" height="61" viewBox="0 0 111 61" fill="none" xmlns="http://www.w3.org/2000/svg">
<path fill-rule="evenodd" clip-rule="evenodd" d="M24.7102 0.000503115C22.1883 -0.010024 19.764 0.975364 17.9645 2.74273C16.162 4.51298 15.1327 6.92415 15.101 9.45033C15.1008 9.46707 15.1007 9.4838 15.1007 9.50054V10.0009H8.00003C5.87829 10.0009 3.84345 10.8438 2.34315 12.3441C0.842861 13.8443 0 15.8792 0 18.0009V22.001C0 23.9816 0.734449 25.8864 2.05253 27.3515C2.01798 27.5629 2.00001 27.78 2.00001 28.0013V36.0013C2.00001 38.1231 2.84288 40.1579 4.34317 41.6582C5.84346 43.1585 7.87829 44.0014 10 44.0014H40.9899L40.1055 50.4571C40.005 51.0706 40.0257 51.6986 40.1673 52.3053C40.3233 52.9737 40.6223 53.6002 41.0435 54.1418C41.4649 54.6835 41.9987 55.1275 42.608 55.4432C43.2172 55.7588 43.8876 55.9387 44.5733 55.9705C44.6349 55.9733 44.6966 55.9748 44.7583 55.9748H51.9803C52.4315 56.3867 52.8796 56.6936 53.2203 56.9039C54.5112 57.7007 56.1139 58.2766 57.7418 58.7046C61.0569 59.5763 65.4137 60.0736 70.059 60.0736C70.2261 60.0736 70.3928 60.073 70.559 60.0717C70.7253 60.073 70.892 60.0736 71.059 60.0736C71.2261 60.0736 71.3928 60.073 71.5591 60.0717C71.7253 60.073 71.892 60.0736 72.059 60.0736C72.2261 60.0736 72.3928 60.073 72.5591 60.0717C72.7253 60.073 72.892 60.0736 73.059 60.0736C73.2261 60.0736 73.3928 60.073 73.559 60.0717C73.7253 60.073 73.892 60.0736 74.059 60.0736C74.2261 60.0736 74.3928 60.073 74.559 60.0717C74.7253 60.073 74.892 60.0736 75.059 60.0736C75.2261 60.0736 75.3928 60.073 75.559 60.0717C75.7253 60.073 75.892 60.0736 76.059 60.0736C76.2261 60.0736 76.3928 60.073 76.559 60.0717C76.7253 60.073 76.892 60.0736 77.059 60.0736C77.2261 60.0736 77.3928 60.073 77.559 60.0717C77.7253 60.073 77.892 60.0736 78.059 60.0736C78.2261 60.0736 78.3928 60.073 78.559 60.0717C78.7253 60.073 78.892 60.0736 79.059 60.0736C79.2261 60.0736 79.3928 60.073 79.559 60.0717C79.7253 60.073 79.892 60.0736 80.059 60.0736C84.7044 60.0736 89.0612 59.5763 92.3763 58.7046C94.0042 58.2766 95.6069 57.7007 96.8978 56.9039C97.9585 56.2491 100.059 54.6592 100.059 51.8736V48.1736C100.059 47.6551 99.9588 47.1513 99.7723 46.6859C99.9514 46.1745 100.059 45.6048 100.059 44.9738V38.4972L107.177 35.5762C107.42 35.4767 107.652 35.3537 107.87 35.2089C108.535 34.7674 109.082 34.168 109.459 33.4642C109.837 32.7606 110.035 31.9744 110.035 31.1756C110.035 30.3768 109.837 29.5904 109.459 28.8868C109.081 28.1831 108.536 27.5838 107.87 27.1423C107.652 26.9975 107.42 26.8745 107.177 26.7751L82.0772 16.475C81.9651 16.429 81.851 16.3881 81.7351 16.3525C81.0277 16.1348 80.2885 16.0581 79.5586 16.1223C79.226 16.093 78.8913 16.093 78.5586 16.1223C78.226 16.093 77.8913 16.093 77.5586 16.1223C77.226 16.093 76.8913 16.093 76.5586 16.1223C76.226 16.093 75.8913 16.093 75.5586 16.1223C75.226 16.093 74.8913 16.093 74.5586 16.1223C74.226 16.093 73.8913 16.093 73.5586 16.1223C73.226 16.093 72.8913 16.093 72.5586 16.1223C72.2259 16.093 71.8913 16.093 71.5586 16.1223C71.226 16.093 70.8914 16.093 70.5587 16.1223C69.8288 16.0581 69.0896 16.1348 68.3822 16.3525C68.2664 16.3881 68.1522 16.429 68.0401 16.475L67.867 16.5461C67.5746 14.9652 66.81 13.4968 65.6572 12.3441C64.1569 10.8438 62.1221 10.0009 60.0003 10.0009H52.6008L52.6008 9.50054L52.6008 9.49384C52.5987 8.23322 52.346 6.98561 51.8573 5.82356C51.3687 4.66151 50.6539 3.60819 49.7545 2.72488C48.8552 1.84157 47.7891 1.14588 46.6185 0.678266C45.4593 0.21524 44.2204 -0.0150141 42.9725 0.000503115H42.209C42.1303 -0.000476594 42.0514 -0.000477688 41.9725 0.000503115H41.209C41.1303 -0.000476594 41.0514 -0.000477688 40.9725 0.000503115H40.209C40.1303 -0.000476594 40.0514 -0.000477688 39.9725 0.000503115H39.209C39.1303 -0.000476594 39.0514 -0.000477688 38.9725 0.000503115H38.209C38.1303 -0.000476594 38.0514 -0.000477688 37.9725 0.000503115H37.209C37.1303 -0.000476594 37.0514 -0.000477688 36.9725 0.000503115H36.209C36.1303 -0.000476594 36.0514 -0.000477688 35.9725 0.000503115H35.209C35.1303 -0.000476594 35.0514 -0.000477688 34.9725 0.000503115H34.7102C34.6835 0.000391755 34.6569 0.00039184 34.6302 0.000503115H34.209C34.1303 -0.000476594 34.0514 -0.000477688 33.9725 0.000503115H33.7102C33.6835 0.000391755 33.6569 0.00039184 33.6302 0.000503115H33.209C33.1302 -0.000476593 33.0514 -0.000477688 32.9725 0.000503115H32.7102C32.6835 0.000391755 32.6569 0.00039184 32.6302 0.000503115H31.7102C31.6835 0.000391755 31.6569 0.00039184 31.6302 0.000503115H30.7102C30.6835 0.000391755 30.6569 0.00039184 30.6302 0.000503115H29.7102C29.6835 0.000391755 29.6569 0.00039184 29.6302 0.000503115H28.7102C28.6835 0.000391755 28.6569 0.00039184 28.6302 0.000503115H27.7102C27.6835 0.000391755 27.6569 0.00039184 27.6302 0.000503115H26.7102C26.6835 0.000391755 26.6569 0.00039184 26.6302 0.000503115H25.7102C25.6835 0.000391755 25.6569 0.00039184 25.6302 0.000503115H24.7102ZM21.7007 9.50054V12.0006H19.1007V9.50054C19.1191 8.03023 19.7182 6.62686 20.7673 5.59652C21.8164 4.56618 23.2303 3.99247 24.7007 4.0005H33.0008C33.7311 3.98857 34.4564 4.12195 35.1347 4.39288C35.813 4.66382 36.4306 5.06689 36.9517 5.57868C37.4728 6.09047 37.8869 6.70074 38.17 7.37403C38.4532 8.04731 38.5996 8.77016 38.6008 9.50054V12.0006H36.2008V9.50054C36.1955 8.67998 35.8673 7.89452 35.287 7.31429C34.7068 6.73405 33.9213 6.40576 33.1008 6.40052H24.8007C23.9802 6.40576 23.1947 6.73405 22.6145 7.31429C22.0342 7.89452 21.7059 8.67998 21.7007 9.50054ZM24.9996 30.2001H32.9997C33.5301 30.2001 34.0388 29.9894 34.4139 29.6143C34.789 29.2393 34.9997 28.7305 34.9997 28.2001V26.2001C34.9997 25.6697 34.789 25.1609 34.4139 24.7859C34.0388 24.4108 33.5301 24.2001 32.9997 24.2001H24.9996C24.4692 24.2001 23.9605 24.4108 23.5854 24.7859C23.2103 25.1609 22.9996 25.6697 22.9996 26.2001V28.2001C22.9996 28.7305 23.2103 29.2393 23.5854 29.6143C23.9605 29.9894 24.4692 30.2001 24.9996 30.2001ZM53.6003 23.701C53.8385 23.1642 53.9741 22.5876 54.0003 22.001V18.0009C54.0003 16.9401 53.5789 15.9226 52.8288 15.1725C52.0786 14.4223 51.0612 14.0009 50.0003 14.0009H8.00003C6.93915 14.0009 5.92173 14.4223 5.17158 15.1725C4.42143 15.9226 4 16.9401 4 18.0009V22.001C4 23.0618 4.42143 24.0793 5.17158 24.8294C5.92173 25.5796 6.93915 26.001 8.00003 26.001H21.0001C21.0515 24.9752 21.4955 24.0084 22.2401 23.301C22.9848 22.5935 23.973 22.1997 25.0001 22.201H33.0002C34.0273 22.1997 35.0156 22.5935 35.7602 23.301C36.5049 24.0084 36.9489 24.9752 37.0002 26.001H47.9003L53.6003 23.701ZM43.3003 35.5013C42.3709 36.5856 41.8727 37.9736 41.9003 39.4014V40.0014H10C8.93917 40.0014 7.92174 39.5799 7.17159 38.8298C6.42144 38.0796 6.00001 37.0622 6.00001 36.0013V28.0013H21.0001V28.1013C21.0001 29.1621 21.4215 30.1796 22.1717 30.9297C22.9218 31.6799 23.9393 32.1013 25.0001 32.1013H33.0002C34.0611 32.1013 35.0785 31.6799 35.8286 30.9297C36.5788 30.1796 37.0002 29.1621 37.0002 28.1013V27.9013H43.1003C42.5249 28.188 42.0416 28.6307 41.7057 29.1788C41.3698 29.7269 41.1946 30.3584 41.2003 31.0013C41.2209 31.6765 41.428 32.3329 41.7986 32.8977C42.1693 33.4625 42.689 33.9137 43.3003 34.2013V35.5013ZM70.5587 20.1755L95.6588 30.4756C95.7743 30.5522 95.8691 30.6563 95.9347 30.7784C96.0002 30.9005 96.0345 31.037 96.0345 31.1756C96.0345 31.3142 96.0002 31.4507 95.9347 31.5728C95.8691 31.695 95.7743 31.799 95.6588 31.8756L70.5587 42.1757C70.2329 42.276 69.8845 42.276 69.5587 42.1757L47.4585 33.0756V36.8757C47.9056 37.1415 48.272 37.5238 48.5186 37.9818C48.7652 38.4398 48.8827 38.9561 48.8585 39.4757C48.8585 41.0757 47.9585 42.2757 46.7585 42.2757C45.5585 42.2757 44.6585 40.9757 44.6585 39.4757C44.6343 38.9561 44.7519 38.4398 44.9984 37.9818C45.245 37.5238 45.6114 37.1415 46.0585 36.8757V32.4756L44.4585 31.7756C44.3243 31.7278 44.2082 31.6397 44.1262 31.5233C44.0441 31.407 44 31.268 44 31.1256C44 30.9832 44.0441 30.8443 44.1262 30.7279C44.2082 30.6115 44.3243 30.5234 44.4585 30.4756L69.5587 20.1755C69.8845 20.0753 70.2329 20.0753 70.5587 20.1755ZM70.059 44.2738C70.5104 44.2812 70.9566 44.1782 71.3591 43.9738L86.0592 37.8738V44.9738C86.0592 47.2738 78.8591 49.1738 70.059 49.1738C61.259 49.1738 54.0589 47.2738 54.0589 44.9738V37.8738L68.759 43.9738C69.1652 44.1676 69.609 44.27 70.059 44.2738ZM70.059 51.1736C67.759 51.1736 58.259 50.9736 54.0589 48.1736V51.8736C54.0589 54.1736 61.259 56.0736 70.059 56.0736C78.8591 56.0736 86.0592 54.1736 86.0592 51.8736V48.1736C81.8591 50.9736 72.3591 51.1736 70.059 51.1736ZM45.0583 43.7747C45.5702 44.09 46.1572 44.2627 46.7583 44.2747C47.41 44.2911 48.0468 44.0788 48.5583 43.6747L49.4583 51.0748C49.4801 51.1809 49.4786 51.2905 49.454 51.396C49.4294 51.5016 49.3822 51.6005 49.3157 51.686C49.2491 51.7716 49.1649 51.8417 49.0686 51.8915C48.9724 51.9413 48.8666 51.9698 48.7583 51.9748H44.7583C44.65 51.9698 44.5442 51.9413 44.448 51.8915C44.3517 51.8417 44.2675 51.7716 44.201 51.686C44.1344 51.6005 44.0872 51.5016 44.0626 51.396C44.038 51.2905 44.0365 51.1809 44.0583 51.0748L45.0583 43.7747Z" fill="black"/>
</svg>
