<svg width="94" height="60" viewBox="0 0 94 60" fill="none" xmlns="http://www.w3.org/2000/svg">
<path fill-rule="evenodd" clip-rule="evenodd" d="M3.98597 40.0996V8C3.98597 5.87988 4.82923 3.83984 6.32923 2.33984C7.8302 0.839844 9.8639 0 11.986 0H21.986H65.986H75.986C76.901 0 77.7999 0.150391 78.6481 0.450195L78.6539 0.459961C79.7672 0.849609 80.7902 1.49023 81.6451 2.33984C82.151 2.84961 82.5831 3.41992 82.9323 4.03027C83.0451 4.23047 83.1491 4.42969 83.2409 4.62988L83.2951 4.74023L83.3141 4.79004L83.3263 4.80957L83.339 4.84961L83.3702 4.91992L83.3781 4.9502L83.4191 5.0498L83.462 5.17969L83.4699 5.16992C83.8082 6.05957 83.986 7.01953 83.986 8V12H85.986C88.1071 12 90.1412 12.8398 91.6422 14.3398C92.4943 15.1904 93.1339 16.2197 93.5289 17.3301L93.5299 17.3398C93.8292 18.1797 93.986 19.0801 93.986 20V52C93.986 54.1201 93.1432 56.1504 91.6432 57.6504C90.5963 58.7002 89.2902 59.4297 87.8702 59.7695C87.4962 59.8604 87.1139 59.9297 86.7282 59.96C86.7199 59.96 86.712 59.96 86.7042 59.9697C86.466 59.9902 86.2272 60 85.986 60H75.986H69.986H59.986C58.9249 60 57.8868 59.79 56.9249 59.3896C56.2599 59.1104 55.6329 58.75 55.0612 58.2998L55.0529 58.29C54.7999 58.0996 54.5582 57.8799 54.3283 57.6504C53.8029 57.1299 53.358 56.54 53.004 55.9004H23.9059H23.6163H13.9059C12.3312 55.9199 10.7692 55.6201 9.30628 55.0303C7.83313 54.4404 6.49427 53.5498 5.36731 52.4297C5.3639 52.4297 1.44104 48.5098 1.43226 48.5C0.744268 47.7998 0.277959 46.9102 0.0909472 45.9502C0.0577441 45.7773 0.0338183 45.6035 0.0186816 45.4287C-0.00182622 45.1885 -0.00475591 44.9473 0.00891597 44.71C0.0411425 44.1602 0.164189 43.6104 0.373174 43.0996L0.379033 43.0898C0.589971 42.5801 0.882939 42.1113 1.24427 41.7012C1.51966 41.3877 1.8346 41.1084 2.18323 40.8701L2.18714 40.8604C2.73401 40.4902 3.34583 40.2295 3.98597 40.0996ZM53.1858 44.8V44.9L51.1858 46.9C50.4468 47.65 49.4408 48.08 48.3858 48.1H29.6858C29.1598 48.11 28.6367 48.01 28.1537 47.8C27.6707 47.6 27.2378 47.29 26.8858 46.9L23.9857 44H4.98575C4.93575 44 4.88576 44 4.83676 44.01C4.69376 44.03 4.55777 44.09 4.43777 44.17C4.27577 44.28 4.14977 44.44 4.07477 44.62C4.03276 44.72 4.00777 44.8299 4.00177 44.9399C3.99677 45.0199 4.00277 45.1099 4.01877 45.1899C4.05577 45.3799 4.14876 45.56 4.28576 45.7L8.18576 49.6C8.93476 50.34 9.82477 50.9299 10.8038 51.3199C11.7828 51.7199 12.8308 51.91 13.8858 51.9H53.1858V44.9L53.2858 44.8H53.1858ZM53.2858 38H11.9857V10C11.9857 9.47 12.1967 8.95996 12.5717 8.57996C12.7247 8.42996 12.9008 8.29996 13.0918 8.20996C13.1888 8.15996 13.2888 8.11997 13.3918 8.08997C13.5818 8.02997 13.7827 8 13.9857 8H63.9857C64.1967 8 64.4038 8.02998 64.6008 8.09998C64.7218 8.12998 64.8387 8.19 64.9507 8.25C65.0067 8.28 65.0617 8.30998 65.1147 8.34998C65.2157 8.41998 65.3117 8.48996 65.3997 8.57996C65.5677 8.74996 65.7028 8.95003 65.8008 9.16003C65.8627 9.29003 65.9098 9.42995 65.9408 9.56995C65.9708 9.70995 65.9857 9.86 65.9857 10V13.3H69.9857V8C69.9857 7.51 69.8968 7.02996 69.7278 6.57996L69.6568 6.41003C69.5988 6.27003 69.5328 6.14001 69.4588 6.01001C69.2838 5.71001 69.0678 5.42004 68.8148 5.17004C68.3878 4.74004 67.8758 4.41998 67.3188 4.22998C66.8948 4.07998 66.4437 4 65.9857 4H11.9857C10.9247 4 9.90777 4.42004 9.15677 5.17004C8.40677 5.92004 7.98575 6.94 7.98575 8V42H53.2858V38ZM41.2858 20.6C41.2858 20.54 41.2828 20.4899 41.2768 20.4399L41.2577 20.28L41.2357 20.15C41.2197 20.05 41.2038 19.95 41.1938 19.86C41.1888 19.8 41.1858 19.75 41.1858 19.7C41.1448 19.4 41.0017 19.1301 40.7827 18.9301C40.5647 18.7301 40.2817 18.61 39.9857 18.6C39.5857 18.6 39.2858 18.1 39.2858 17.6C39.2788 17.54 39.2848 17.4899 39.3018 17.4399C39.3188 17.3899 39.3478 17.34 39.3858 17.3C39.5708 17.07 39.6758 16.79 39.6858 16.5C39.6748 16.32 39.6247 16.15 39.5377 15.99C39.4517 15.84 39.3308 15.7 39.1858 15.6L38.6918 15.1899C38.2498 14.8199 37.7938 14.46 37.2858 14.1C37.0288 13.91 36.7118 13.83 36.3968 13.86C36.2518 13.88 36.1128 13.92 35.9848 13.99C35.8338 14.06 35.6968 14.17 35.5858 14.3C35.3558 14.47 35.0678 14.54 34.7858 14.5C34.4858 14.4 34.1858 14.2 34.1858 14C34.1478 13.83 34.0738 13.67 33.9698 13.53C33.8668 13.39 33.7357 13.2799 33.5847 13.1899C33.4337 13.1099 33.2678 13.06 33.0958 13.04C32.9868 13.03 32.8788 13.03 32.7728 13.05C32.7098 13.06 32.6468 13.08 32.5858 13.1C32.4921 13.1192 32.4007 13.1384 32.3112 13.1572C32.0748 13.2069 31.852 13.2538 31.6388 13.29L31.1208 13.4L30.7917 13.47C30.6207 13.51 30.4528 13.55 30.2858 13.6C30.0338 13.65 29.8087 13.79 29.6457 13.99C29.5777 14.07 29.5228 14.17 29.4808 14.26C29.4218 14.4 29.3888 14.55 29.3858 14.7V15.1C29.3598 15.24 29.3007 15.38 29.2147 15.5C29.1287 15.63 29.0158 15.73 28.8858 15.8C28.6828 15.94 28.4348 16.01 28.1858 16C28.0958 15.95 28.0017 15.91 27.9037 15.89C27.8307 15.87 27.7558 15.86 27.6808 15.85C27.5828 15.85 27.4848 15.85 27.3888 15.86C27.3108 15.87 27.2337 15.89 27.1587 15.92C26.9907 15.97 26.8358 16.0601 26.7028 16.1801C26.6458 16.2301 26.5938 16.28 26.5467 16.34C26.5378 16.3528 26.5291 16.3649 26.5206 16.3768C26.496 16.4111 26.4733 16.4428 26.4517 16.48L26.4198 16.53L26.3858 16.6C26.0268 17.24 25.7247 17.91 25.4857 18.6C25.4037 18.79 25.3698 18.99 25.3858 19.2C25.3808 19.43 25.4458 19.66 25.5698 19.85C25.6938 20.05 25.8738 20.2 26.0858 20.3C26.2688 20.48 26.3718 20.74 26.3718 21C26.3718 21.26 26.2688 21.51 26.0858 21.7C25.9488 21.76 25.8257 21.85 25.7227 21.95C25.6657 22.01 25.6138 22.07 25.5698 22.14C25.5018 22.25 25.4517 22.37 25.4207 22.49C25.3957 22.59 25.3838 22.69 25.3858 22.8C25.3598 22.97 25.3947 23.15 25.4857 23.3L25.5858 23.52L25.7028 23.78C25.7708 23.93 25.8407 24.08 25.9127 24.23C26.1237 24.66 26.3478 25.08 26.5858 25.5C26.7228 25.76 26.9558 25.96 27.2348 26.05C27.5148 26.14 27.8198 26.12 28.0858 26C28.3558 25.93 28.6408 25.97 28.8858 26.1C29.0158 26.19 29.1208 26.3 29.1908 26.45C29.2608 26.59 29.2938 26.74 29.2858 26.9V27.2C29.2558 27.45 29.3218 27.7 29.4698 27.9C29.6178 28.11 29.8388 28.25 30.0858 28.3C30.4108 28.4 30.7378 28.4799 31.0668 28.5599C31.6338 28.6999 32.2078 28.81 32.7858 28.9C33.0458 28.91 33.3018 28.84 33.5178 28.7C33.7338 28.55 33.8977 28.34 33.9857 28.1C34.0407 27.93 34.1478 27.78 34.2908 27.67C34.4338 27.56 34.6068 27.5 34.7858 27.5C34.9328 27.45 35.0937 27.45 35.2397 27.5C35.3857 27.56 35.5078 27.66 35.5858 27.8C35.7848 28.02 36.0558 28.1599 36.3488 28.1899C36.6418 28.2299 36.9388 28.16 37.1858 28C37.7497 27.5985 38.3136 27.1273 38.8246 26.7004C38.8609 26.67 38.897 26.6399 38.9328 26.61L39.1858 26.4C39.2278 26.36 39.2668 26.32 39.3028 26.28L39.3647 26.2C39.4137 26.13 39.4548 26.06 39.4878 25.98C39.5418 25.86 39.5748 25.73 39.5858 25.6C39.5838 25.52 39.5737 25.44 39.5587 25.37C39.5497 25.33 39.5388 25.29 39.5258 25.25C39.5128 25.2 39.4968 25.16 39.4798 25.12C39.4608 25.07 39.4388 25.03 39.4158 24.99C39.3778 24.92 39.3348 24.86 39.2858 24.8C39.1858 24.7 39.1858 24.6 39.1858 24.4C39.1938 24.18 39.2648 23.97 39.3888 23.79C39.5128 23.62 39.6858 23.48 39.8858 23.4C40.0748 23.39 40.2588 23.34 40.4268 23.26C40.5318 23.21 40.6308 23.1499 40.7218 23.0699L40.7868 23.01C40.8198 22.98 40.8508 22.95 40.8798 22.91C40.9148 22.87 40.9467 22.83 40.9767 22.78C41.0157 22.73 41.0507 22.67 41.0807 22.6C41.1277 22.51 41.1628 22.4 41.1858 22.3C41.1858 22.15 41.2117 22.02 41.2357 21.9L41.2407 21.87C41.2637 21.76 41.2858 21.64 41.2858 21.5V20.6ZM29.9857 21C30.0077 20.16 30.3528 19.36 30.9478 18.76C31.5438 18.17 32.3438 17.82 33.1858 17.8C33.5948 17.79 34.0018 17.86 34.3808 18.02C34.6168 18.11 34.8388 18.24 35.0408 18.39L35.1508 18.48L35.2718 18.59C35.3108 18.62 35.3488 18.66 35.3858 18.7C35.5728 18.89 35.7348 19.0999 35.8668 19.3199C35.9388 19.4499 36.0007 19.58 36.0547 19.71C36.1197 19.87 36.1708 20.0299 36.2088 20.1899C36.2608 20.4199 36.2868 20.66 36.2858 20.9C36.2878 21.31 36.2097 21.71 36.0547 22.09C35.9007 22.47 35.6728 22.81 35.3858 23.1C35.0818 23.39 34.7217 23.63 34.3267 23.78C33.9317 23.94 33.5098 24.01 33.0858 24C32.6798 24.02 32.2738 23.97 31.8918 23.83C31.7048 23.76 31.5257 23.6699 31.3567 23.5599C31.3007 23.5299 31.2467 23.49 31.1927 23.45L31.0838 23.37C31.0098 23.31 30.9388 23.2499 30.8708 23.1899C30.6718 22.9899 30.5028 22.77 30.3668 22.53C30.3018 22.42 30.2448 22.3099 30.1958 22.1899C30.0438 21.8099 29.9717 21.4 29.9857 21ZM46.3858 32.8C46.4858 32.8 46.6107 32.82 46.7357 32.85L46.9217 32.88L46.9987 32.89L47.0858 32.9H47.6858C47.7858 32.9 47.8858 32.875 47.9858 32.85C48.0858 32.825 48.1858 32.8 48.2858 32.8C48.7858 32.8 49.0858 32.4 49.1858 31.9C49.2038 31.73 49.2857 31.57 49.4167 31.46C49.5467 31.35 49.7148 31.29 49.8858 31.3C49.9408 31.29 49.9958 31.2999 50.0467 31.3099C50.062 31.3154 50.0769 31.3238 50.0914 31.3319C50.1035 31.3387 50.1153 31.3454 50.1268 31.35C50.1488 31.36 50.1678 31.38 50.1858 31.4C50.3688 31.51 50.5738 31.58 50.7858 31.6C50.9028 31.6 51.0208 31.58 51.1258 31.53C51.2308 31.47 51.3198 31.4 51.3858 31.3C51.8338 30.84 52.2358 30.34 52.5858 29.8C52.6628 29.71 52.7208 29.62 52.7568 29.51C52.7838 29.43 52.7977 29.35 52.8007 29.27C52.8017 29.24 52.8008 29.2101 52.7978 29.1801C52.7888 29.0601 52.7558 28.95 52.7028 28.85C52.6488 28.75 52.5747 28.67 52.4857 28.6C52.4347 28.57 52.3908 28.53 52.3548 28.48C52.3188 28.44 52.2918 28.39 52.2738 28.34C52.2358 28.23 52.2408 28.11 52.2858 28C52.3498 27.8 52.4138 27.65 52.5308 27.54C52.5958 27.48 52.6778 27.43 52.7858 27.4C52.9328 27.35 53.1037 27.2299 53.2277 27.0699C53.3577 26.9099 53.4368 26.7 53.3858 26.5C53.3558 26.12 53.2998 25.74 53.2198 25.37C53.1568 25.08 53.0787 24.78 52.9857 24.5C52.9477 24.32 52.8458 24.16 52.6988 24.05C52.5518 23.94 52.3698 23.88 52.1858 23.9H51.8858C51.7688 23.9 51.6528 23.8799 51.5478 23.8199C51.5068 23.7999 51.4668 23.78 51.4308 23.75C51.3758 23.71 51.3268 23.66 51.2858 23.6C51.2228 23.51 51.1797 23.4099 51.1627 23.3099C51.1457 23.2099 51.1528 23.1 51.1858 23C51.2348 22.89 51.2588 22.77 51.2588 22.66C51.2598 22.56 51.2428 22.46 51.2088 22.37C51.1338 22.16 50.9828 21.99 50.7858 21.9L50.3047 21.65L50.2348 21.61L50.1927 21.59C49.8387 21.4 49.5118 21.23 49.1858 21.1C49.0688 21.02 48.9268 20.98 48.7858 21C48.6178 20.99 48.4498 21.03 48.3068 21.12C48.1638 21.21 48.0517 21.34 47.9857 21.5C47.9267 21.6 47.8387 21.69 47.7317 21.74C47.6247 21.79 47.5048 21.81 47.3858 21.8C47.2008 21.79 47.0228 21.72 46.8858 21.6L46.8558 21.53C46.8463 21.5123 46.8369 21.4981 46.8271 21.4833C46.8202 21.4729 46.8131 21.4623 46.8058 21.45C46.7878 21.42 46.7678 21.39 46.7468 21.37C46.6838 21.29 46.6088 21.22 46.5238 21.17C46.3648 21.06 46.1777 21 45.9857 21H45.9857C45.8856 21 45.6858 21 45.6858 20.9C45.1678 21.09 44.6658 21.32 44.1858 21.6C44.0618 21.64 43.9478 21.7099 43.8538 21.8099C43.7588 21.8999 43.6858 22.01 43.6388 22.13C43.5908 22.26 43.5708 22.39 43.5788 22.52L43.5868 22.6L43.5988 22.66C43.6168 22.74 43.6458 22.82 43.6858 22.9C43.7288 22.94 43.7538 22.9999 43.7518 23.0699C43.7498 23.1699 43.7008 23.28 43.5858 23.4L43.5857 23.4001C43.3857 23.6001 43.1857 23.8 42.9857 23.8H42.6858C42.4778 23.79 42.2728 23.85 42.1078 23.98C41.9428 24.11 41.8288 24.29 41.7858 24.5C41.7466 24.6956 41.6922 24.8912 41.6345 25.0987C41.5446 25.4217 41.4467 25.7738 41.3858 26.2C41.3248 26.45 41.3628 26.7199 41.4938 26.9399L41.5467 27.02C41.5747 27.06 41.6058 27.1 41.6388 27.13C41.6541 27.1471 41.6698 27.1609 41.686 27.1751C41.6983 27.186 41.7108 27.197 41.7238 27.21C41.8288 27.29 41.9518 27.36 42.0858 27.4C42.1878 27.44 42.2768 27.51 42.3468 27.6C42.3787 27.6376 42.4054 27.684 42.4276 27.7227L42.4318 27.73C42.4558 27.79 42.4747 27.84 42.4857 27.9C42.5237 28 42.5337 28.11 42.5157 28.21C42.4987 28.32 42.4538 28.42 42.3858 28.5C42.2818 28.56 42.1928 28.65 42.1258 28.76C42.0578 28.86 42.0128 28.98 41.9938 29.1C41.9838 29.17 41.9808 29.2499 41.9868 29.3199L42.0008 29.41L42.0157 29.47C42.0487 29.59 42.1068 29.7 42.1858 29.8C42.5278 30.28 42.8958 30.75 43.2858 31.2C43.3618 31.32 43.4648 31.41 43.5868 31.48C43.7088 31.55 43.8457 31.59 43.9857 31.6C44.1337 31.58 44.2788 31.55 44.4148 31.49C44.4738 31.46 44.5308 31.43 44.5858 31.4C44.6258 31.36 44.6728 31.3299 44.7248 31.3099C44.7768 31.2999 44.8318 31.29 44.8858 31.3C45.1858 31.3 45.5858 31.6 45.5858 31.9C45.5798 32.12 45.6588 32.34 45.8078 32.51C45.9568 32.67 46.1628 32.78 46.3858 32.8ZM44.9857 26.9C44.9937 26.26 45.2488 25.66 45.6978 25.21C46.1458 24.76 46.7518 24.5 47.3858 24.5C47.5168 24.49 47.6478 24.5 47.7758 24.52L47.9368 24.55C48.0638 24.58 48.1877 24.62 48.3087 24.67C48.6017 24.79 48.8688 24.9699 49.0918 25.1899L49.1858 25.29L49.2787 25.4L49.3288 25.47C49.3691 25.5184 49.4063 25.58 49.4417 25.6387C49.4501 25.6527 49.4585 25.6666 49.4668 25.6801C49.5218 25.7701 49.5697 25.87 49.6107 25.98C49.6567 26.09 49.6928 26.1999 49.7208 26.3199C49.7378 26.3799 49.7508 26.45 49.7608 26.52C49.7788 26.65 49.7878 26.77 49.7858 26.9C49.7948 27.09 49.7768 27.29 49.7338 27.48C49.7068 27.6 49.6698 27.7099 49.6228 27.8199C49.5028 28.1199 49.3188 28.38 49.0858 28.6C48.6128 29.01 48.0148 29.26 47.3858 29.3C47.3148 29.3 47.2427 29.3 47.1717 29.29C47.0817 29.28 46.9928 29.27 46.9048 29.25C46.7548 29.23 46.6067 29.18 46.4637 29.12C46.1717 29 45.9068 28.82 45.6858 28.6C45.2708 28.12 45.0247 27.53 44.9857 26.9ZM78.8148 17.17C78.0638 16.42 77.0467 16 75.9857 16H59.9857C59.6547 16 59.3277 16.04 59.0117 16.12C58.3157 16.29 57.6728 16.65 57.1568 17.17C56.4068 17.92 55.9857 18.94 55.9857 20V52C55.9857 53.06 56.4068 54.08 57.1568 54.83C57.2728 54.94 57.3937 55.05 57.5207 55.15C57.8078 55.37 58.1218 55.5499 58.4548 55.6899C58.9358 55.8899 59.4547 56 59.9857 56H75.9857C76.1077 56 76.2298 55.99 76.3498 55.98C76.5468 55.96 76.7397 55.93 76.9297 55.88C77.6377 55.71 78.2908 55.35 78.8148 54.83C79.5648 54.08 79.9857 53.06 79.9857 52V20C79.9857 19.54 79.9067 19.09 79.7578 18.67C79.5607 18.11 79.2408 17.6 78.8148 17.17ZM70.9278 50.61C70.9748 50.73 70.9947 50.86 70.9857 51V53L70.9868 53.1C70.9837 53.2 70.9638 53.3 70.9278 53.39C70.8808 53.52 70.8068 53.63 70.7128 53.72C70.6178 53.82 70.5038 53.8899 70.3788 53.9399C70.2538 53.9899 70.1197 54.01 69.9857 54H65.9857C65.8517 54.01 65.7178 53.9899 65.5928 53.9399C65.4678 53.8899 65.3538 53.82 65.2588 53.72C65.1968 53.66 65.1447 53.59 65.1017 53.52L65.0677 53.45L65.0438 53.39C64.9968 53.26 64.9767 53.13 64.9857 53V51C64.9767 50.86 64.9968 50.73 65.0438 50.61C65.0668 50.54 65.0958 50.4801 65.1308 50.4301C65.1678 50.3701 65.2108 50.32 65.2588 50.27C65.3538 50.18 65.4678 50.1 65.5928 50.05C65.7178 50.01 65.8517 49.99 65.9857 50H69.9857C70.1197 49.99 70.2538 50.01 70.3788 50.05C70.5038 50.1 70.6178 50.18 70.7128 50.27C70.8068 50.37 70.8808 50.48 70.9278 50.61ZM77.9857 22V46C77.9857 46.53 77.7747 47.04 77.3997 47.41C77.0247 47.79 76.5157 48 75.9857 48H59.9857C59.4557 48 58.9467 47.79 58.5717 47.41C58.1967 47.04 57.9857 46.53 57.9857 46V22C57.9857 21.47 58.1967 20.96 58.5717 20.58C58.7397 20.42 58.9358 20.2801 59.1478 20.1801C59.2658 20.1301 59.3898 20.08 59.5178 20.05C59.6698 20.02 59.8267 20 59.9857 20H75.9857C76.1357 20 76.2838 20.01 76.4278 20.05C76.5718 20.08 76.7118 20.1299 76.8448 20.1899C77.0488 20.2899 77.2367 20.42 77.3997 20.58C77.7747 20.96 77.9857 21.47 77.9857 22ZM67.1858 38.9C67.3748 38.98 67.5808 39.01 67.7858 39L68.1858 39.2H68.4857C68.5797 39.15 68.6808 39.12 68.7848 39.1C68.8508 39.09 68.9187 39.09 68.9857 39.1C69.1757 39.06 69.3487 38.9699 69.4767 38.8199C69.6037 38.6799 69.6778 38.49 69.6858 38.3C69.7008 38.15 69.7728 38.0201 69.8838 37.9301C69.9968 37.8301 70.1408 37.7901 70.2858 37.8H70.3278H70.328C70.3408 37.8 70.3418 37.8 70.3548 37.8199C70.3577 37.8219 70.3613 37.8246 70.3657 37.828C70.3842 37.8421 70.4181 37.8678 70.4857 37.9C70.5393 37.9268 70.5857 37.9536 70.6288 37.9784C70.7465 38.0464 70.8393 38.1 70.9857 38.1C71.1807 38.05 71.3567 37.9501 71.4857 37.8C71.8427 37.3801 72.1767 36.95 72.4857 36.5C72.5347 36.43 72.5718 36.35 72.5958 36.27C72.6218 36.17 72.6308 36.08 72.6218 35.98C72.6118 35.88 72.5838 35.79 72.5388 35.7C72.4998 35.63 72.4478 35.56 72.3858 35.5C72.1858 35.4 72.1858 35.2 72.1858 35C72.2048 34.89 72.2508 34.78 72.3208 34.7C72.3908 34.61 72.4827 34.54 72.5858 34.5C72.7858 34.5 73.0858 34.1 73.0858 33.8C73.0797 33.7697 73.0736 33.7394 73.0676 33.709C73.0378 33.5594 73.008 33.4097 72.9748 33.26C72.9018 32.92 72.8148 32.55 72.6858 32.1C72.6468 31.94 72.5548 31.81 72.4268 31.72C72.2988 31.63 72.1427 31.59 71.9857 31.6H71.7858L71.7148 31.59C71.6758 31.59 71.6377 31.5799 71.6017 31.5699L71.5398 31.54L71.4928 31.52C71.4711 31.5077 71.4507 31.4915 71.4313 31.4762C71.4194 31.4667 71.4078 31.4576 71.3968 31.45C71.3518 31.4 71.3138 31.35 71.2858 31.3C71.2681 31.2646 71.2503 31.2323 71.2337 31.2021C71.1566 31.0615 71.1035 30.9646 71.1858 30.8C71.2388 30.71 71.2738 30.62 71.2868 30.52C71.2958 30.46 71.2958 30.4 71.2888 30.34C71.2838 30.3 71.2758 30.27 71.2648 30.23C71.2548 30.19 71.2417 30.16 71.2267 30.13C71.1987 30.07 71.1638 30.02 71.1218 29.97C71.0568 29.9 70.9758 29.84 70.8858 29.8L69.4857 29.1C69.4457 29.06 69.3988 29.03 69.3468 29.01C69.3188 29 69.2898 29 69.2598 29C69.2348 28.99 69.2108 28.99 69.1858 29C69.0288 28.99 68.8718 29.02 68.7308 29.09C68.5898 29.16 68.4708 29.26 68.3858 29.4C68.2488 29.52 68.0708 29.59 67.8858 29.6C67.8298 29.6 67.7748 29.5899 67.7218 29.5699L67.6628 29.54C67.6247 29.52 67.5888 29.5 67.5568 29.47C67.5401 29.4571 67.5242 29.4402 67.5094 29.4244C67.5012 29.4156 67.4933 29.4072 67.4857 29.4C67.4547 29.32 67.4108 29.2401 67.3578 29.1801L67.3098 29.13C67.2787 29.1 67.2457 29.07 67.2097 29.04C67.1397 28.99 67.0627 28.9601 66.9818 28.9301C66.9187 28.9101 66.8528 28.9 66.7858 28.9C66.6448 28.88 66.5038 28.92 66.3858 29L65.1858 29.6C65.1358 29.62 65.0888 29.6501 65.0448 29.6801C65.0157 29.6994 64.9884 29.7229 64.9624 29.7452C64.9481 29.7575 64.9342 29.7694 64.9207 29.78C64.8457 29.86 64.7878 29.9599 64.7508 30.0599C64.7138 30.1599 64.6968 30.27 64.7038 30.38C64.7098 30.49 64.7368 30.6 64.7858 30.7L64.7888 30.75C64.7898 30.78 64.7868 30.82 64.7798 30.86C64.7658 30.95 64.7338 31.03 64.6858 31.1C64.5568 31.25 64.3808 31.36 64.1858 31.4H63.9857C63.8867 31.4 63.7907 31.42 63.7017 31.46C63.6397 31.49 63.5817 31.5299 63.5287 31.5699C63.4017 31.6799 63.3158 31.83 63.2858 32L63.2707 32.0601C63.2206 32.2604 63.1697 32.4636 63.1188 32.7C63.0748 32.9 63.0297 33.13 62.9857 33.4C62.9487 33.5 62.9368 33.61 62.9478 33.73C62.9598 33.84 62.9948 33.94 63.0518 34.04C63.0683 34.0676 63.0863 34.0905 63.1057 34.1151C63.1144 34.1262 63.1235 34.1376 63.1327 34.15C63.1757 34.2 63.2247 34.24 63.2787 34.28C63.3707 34.34 63.4757 34.38 63.5858 34.4C63.6698 34.43 63.7427 34.48 63.7967 34.55C63.8498 34.62 63.8808 34.71 63.8858 34.8C63.9118 34.97 63.8768 35.15 63.7858 35.3C63.6438 35.49 63.5467 35.68 63.5157 35.85C63.4807 36.05 63.5278 36.24 63.6858 36.4L64.5858 37.6C64.6507 37.69 64.7408 37.77 64.8458 37.83C64.9108 37.86 64.9797 37.88 65.0508 37.89C65.0947 37.9 65.1408 37.9 65.1858 37.9C65.3858 37.9 65.5858 37.7999 65.6858 37.7C65.7428 37.6399 65.7678 37.62 65.7968 37.61L65.8248 37.6H65.8858C65.9678 37.6 66.0488 37.62 66.1228 37.66C66.1748 37.68 66.2247 37.71 66.2697 37.75C66.3337 37.8 66.3858 37.8699 66.4248 37.9399C66.4518 37.9899 66.4727 38.04 66.4857 38.1C66.4957 38.29 66.5697 38.47 66.6967 38.62C66.8237 38.76 66.9968 38.86 67.1858 38.9ZM66.5717 32.48C66.9467 32.11 67.4557 31.9 67.9857 31.9C68.2347 31.9 68.4798 31.94 68.7078 32.03C68.9648 32.13 69.2007 32.28 69.3997 32.48C69.7757 32.86 69.9857 33.37 69.9857 33.9C69.9727 34.42 69.7578 34.93 69.3858 35.3C69.0138 35.67 68.5117 35.88 67.9857 35.9C67.7267 35.89 67.4728 35.84 67.2388 35.74C66.9968 35.63 66.7747 35.49 66.5858 35.3C66.2138 34.93 65.9987 34.42 65.9857 33.9C65.9857 33.63 66.0377 33.37 66.1367 33.13C66.2367 32.89 66.3837 32.67 66.5717 32.48Z" fill="black"/>
</svg>
