<svg width="90" height="60" viewBox="0 0 90 60" fill="none" xmlns="http://www.w3.org/2000/svg">
<path fill-rule="evenodd" clip-rule="evenodd" d="M80.9987 37.0199C81.6737 37.4459 82.2517 38.0249 82.6627 38.7359L89.1657 49.9998C89.9667 51.3868 90.1797 53.0038 89.7647 54.5518C89.3497 56.0998 88.3567 57.3938 86.9697 58.1948L85.2377 59.1948C84.3257 59.7218 83.2887 59.9998 82.2387 59.9998H72.2438C70.1058 59.9998 68.1138 58.8498 67.0448 56.9988L64.4618 52.5258L64.4038 52.9938C63.9038 56.9878 60.4908 59.9998 56.4658 59.9998H3.99999C1.79099 59.9998 0 58.2088 0 55.9998C0 54.8228 0.508999 53.7648 1.318 53.0328C1.477 52.4478 1.69799 51.3558 1.84699 49.6518C1.87599 49.3128 1.99999 43.9898 1.99999 43.9898C1.99999 43.5948 2.03999 41.8049 2.13799 41.2709C2.50899 39.2389 3.62299 37.4589 5.27998 36.2489C5.72598 35.8799 7.32098 34.3479 7.99997 33.4269C7.84097 32.6039 7.52398 31.3899 7.21698 30.2149C6.45998 27.3119 5.99998 25.4439 5.99998 23.9999C5.99998 19.3599 8.16998 12 13.992 12C15.62 12 16.9539 12.586 18.0439 13.514C21.6649 5.51698 29.7059 0 38.9999 0H48.9958C58.0978 0 66.2528 5.43998 69.9238 13.559H73.8988C75.2387 13.559 76.5207 14.012 77.5557 14.8049C78.3647 14.595 79.1967 14.489 80.0387 14.489C83.5857 14.489 86.8877 16.3919 88.6567 19.4569C90.9767 23.4749 90.2367 28.4999 86.8567 31.6739L86.8147 31.7129L80.9987 37.0199ZM21.8325 49.9991H5.83249C5.52349 53.5281 4.82049 55.9991 4.00049 55.9991H20.0005C20.8205 55.9991 21.5235 53.5281 21.8325 49.9991ZM52.3165 35.4861L67.9045 26.4861C68.8615 25.9341 69.1885 24.7111 68.6365 23.7541L65.6365 18.5581C65.0845 17.6011 63.8615 17.2741 62.9045 17.8261L47.3165 26.8261C46.3595 27.3781 46.0315 28.6011 46.5835 29.5581L49.5835 34.7541C50.1365 35.7111 51.3595 36.0381 52.3165 35.4861ZM64.0065 43.7351L70.5095 54.9981C71.0615 55.9551 72.2845 56.2831 73.2415 55.7301L74.9735 54.7301C75.9295 54.1781 76.2575 52.9551 75.7055 51.9981L69.2025 40.7351C68.9265 40.2571 68.3145 40.0931 67.8365 40.3691L64.3725 42.3691C63.8945 42.6451 63.7305 43.2571 64.0065 43.7351ZM75.1975 21.4551C73.7485 18.9471 70.7355 17.8971 68.0955 18.8171L69.1315 20.6111C70.7845 20.2141 72.5725 20.9091 73.4645 22.4551C74.3855 24.0491 74.0925 26.0421 72.7635 27.2901L65.8875 33.5651C64.0495 35.2131 63.4565 37.8361 64.3105 40.0951L66.0845 39.0711C65.6795 37.6481 66.0895 36.0711 67.2295 35.0471L74.1226 28.7571C76.1416 26.8611 76.5845 23.8581 75.1975 21.4551ZM44.2425 31.0021L44.2025 30.9331C42.8925 28.6651 43.6725 25.7541 45.9415 24.4451L46.7135 23.9981H26.2655C25.0625 23.9981 24.1325 25.0531 24.2815 26.2461L24.2505 25.9981H22.0005V22.9981C22.0005 13.6191 29.6205 5.99805 39.0005 5.99805C46.9845 5.99805 53.6635 11.5161 55.4895 18.9321L57.2935 17.8901C55.0605 9.88605 47.7305 3.99805 39.0005 3.99805C28.8405 3.99805 20.5405 11.9781 20.0205 21.9981C20.0105 22.3291 20.0005 28.9981 20.0005 28.9981C20.0005 29.5581 20.4505 29.9981 21.0005 29.9981C21.5605 29.9981 22.0005 29.5581 22.0005 28.9981V27.9981H24.5005L24.8805 30.9981V31.0021H44.2425ZM52.2025 38.4111C51.9115 38.4671 51.6165 38.5051 51.3185 38.5051C49.6255 38.5051 48.0485 37.5951 47.2025 36.1301L45.3975 33.0031H25.1315L27.5635 52.4941C27.8135 54.4961 29.5145 55.9991 31.5325 55.9991H46.4705C48.4865 55.9991 50.1885 54.4971 50.4395 52.4961L52.2025 38.4111ZM6.07248 41.9881H21.9285C21.7415 40.9661 21.1705 40.0561 20.3305 39.4551C19.9075 39.1511 17.8035 37.1861 16.7745 35.7891C16.1135 34.8901 15.8615 33.7611 16.0735 32.6651C16.2569 31.7169 16.5816 30.4725 16.9128 29.2032C17.4482 27.1513 18.0005 25.0345 18.0005 23.9991C18.0005 21.2961 16.7375 15.9991 13.9915 15.9991C11.2465 15.9991 10.0005 21.2981 10.0005 23.9991C10.0005 25.0348 10.5528 27.1526 11.088 29.205C11.4188 30.4737 11.7431 31.7173 11.9265 32.6651C12.1385 33.7611 11.8875 34.8901 11.2265 35.7891C10.1975 37.1861 8.09347 39.1511 7.67047 39.4551C6.83047 40.0561 6.25948 40.9661 6.07248 41.9881ZM12.5005 23.9991C12.5005 23.1701 13.1715 22.4991 14.0005 22.4991C14.8285 22.4991 15.5005 23.1701 15.5005 23.9991C15.5005 24.8271 14.8285 25.4981 14.0005 25.4981C13.1715 25.4981 12.5005 24.8271 12.5005 23.9991ZM6.00049 43.9891V47.9981H22.0005V43.9891H6.00049Z" fill="black"/>
</svg>
