<svg width="72" height="60" viewBox="0 0 72 60" fill="none" xmlns="http://www.w3.org/2000/svg">
<path fill-rule="evenodd" clip-rule="evenodd" d="M24.4951 0.998952C25.2484 1.39024 26.0006 1.92027 26.6605 2.59433C28.352 0.887205 30.7929 -0.0993061 33.2146 0.0552328C33.547 0.0343087 33.881 0.0339424 34.2147 0.0552333C34.547 0.0343089 34.881 0.0339423 35.2147 0.0552332C35.547 0.0343091 35.881 0.0339424 36.2146 0.0552327C36.547 0.0343089 36.881 0.0339424 37.2146 0.0552327C37.547 0.0343088 37.881 0.0339425 38.2146 0.0552329C38.547 0.0343091 38.881 0.0339425 39.2146 0.0552327C39.547 0.0343088 39.881 0.0339424 40.2146 0.0552328C40.547 0.034309 40.881 0.0339425 41.2146 0.0552327C41.547 0.0343088 41.881 0.0339424 42.2146 0.0552329C42.733 0.0225965 43.2555 0.0399739 43.7742 0.111537C47.4126 0.579919 50.3285 3.18454 51.1688 6.73271L51.1741 6.75513C51.8545 9.70351 50.9448 12.5983 48.9919 14.6486C49.0762 14.6539 49.1599 14.6617 49.2431 14.6722C49.4079 14.6515 49.5748 14.6409 49.7432 14.6409C49.9115 14.6409 50.0784 14.6515 50.2431 14.6722C50.4079 14.6515 50.5748 14.6409 50.7432 14.6409C50.9115 14.6409 51.0784 14.6515 51.2431 14.6722C51.4079 14.6515 51.5748 14.6409 51.7432 14.6409C51.9115 14.6409 52.0784 14.6515 52.2431 14.6722C52.4079 14.6515 52.5748 14.6409 52.7432 14.6409C52.9115 14.6409 53.0784 14.6515 53.2431 14.6722C53.4079 14.6515 53.5748 14.6409 53.7432 14.6409C53.9115 14.6409 54.0784 14.6515 54.2431 14.6722C54.4079 14.6515 54.5748 14.6409 54.7432 14.6409C54.9115 14.6409 55.0784 14.6515 55.2431 14.6722C55.4079 14.6515 55.5748 14.6409 55.7432 14.6409C57.059 14.6409 58.2907 15.2881 59.0372 16.3717C59.8042 17.4851 60.5732 18.5766 61.356 19.6877L61.3614 19.6954L61.362 19.6962C62.1393 20.7995 62.931 21.9232 63.7241 23.0744C64.0828 23.5951 64.3061 24.1821 64.391 24.7861C64.951 25.4744 65.2867 26.3524 65.2867 27.3089V36.261H67.7877C69.9968 36.261 71.7877 38.0519 71.7877 40.261V51.2979C71.7877 53.507 69.9968 55.2979 67.7877 55.2979H48.8751C48.4224 56.0382 47.8622 56.7455 47.1802 57.4031L47.1586 57.4237C45.2369 59.2494 42.7991 60.0877 40.4031 59.9523C40.07 59.9711 39.7361 59.9711 39.4031 59.9523C39.07 59.9711 38.7361 59.9711 38.4031 59.9523C38.07 59.9711 37.7361 59.9711 37.4031 59.9523C37.0699 59.9711 36.7361 59.9711 36.4031 59.9523C36.0699 59.9711 35.7361 59.9711 35.4031 59.9523C35.0699 59.9711 34.7361 59.9711 34.4031 59.9523C34.0699 59.9711 33.7361 59.9711 33.4031 59.9523C33.0699 59.9711 32.7361 59.9711 32.4031 59.9523C32.0699 59.9711 31.7362 59.9711 31.4031 59.9523C29.7811 60.044 28.1428 59.6889 26.6609 58.8912C25.2533 59.6616 23.6768 60.0517 22.0568 59.9946C21.9936 59.9924 21.9306 59.9895 21.8676 59.9859C21.599 60.0012 21.3285 60.0042 21.0568 59.9946C20.9936 59.9924 20.9306 59.9895 20.8676 59.9859C20.599 60.0012 20.3285 60.0042 20.0568 59.9946C19.9936 59.9924 19.9306 59.9895 19.8676 59.9859C19.599 60.0012 19.3285 60.0042 19.0568 59.9946C18.9936 59.9924 18.9306 59.9895 18.8676 59.9859C18.599 60.0012 18.3285 60.0042 18.0568 59.9946C17.9936 59.9924 17.9306 59.9895 17.8676 59.9859C17.599 60.0012 17.3285 60.0042 17.0568 59.9946C16.9936 59.9924 16.9306 59.9895 16.8676 59.9859C16.599 60.0012 16.3285 60.0042 16.0568 59.9946C15.9936 59.9924 15.9306 59.9895 15.8676 59.9859C15.599 60.0012 15.3285 60.0042 15.0568 59.9946C14.9936 59.9924 14.9306 59.9895 14.8676 59.9859C14.599 60.0012 14.3285 60.0042 14.0568 59.9946C13.9936 59.9924 13.9306 59.9895 13.8676 59.9859C13.599 60.0012 13.3285 60.0042 13.0568 59.9946C12.9936 59.9924 12.9306 59.9895 12.8676 59.9859C12.599 60.0012 12.3285 60.0042 12.0568 59.9946C9.37944 59.9003 6.90121 58.5957 5.16327 56.4026C5.1465 56.3814 5.12994 56.3601 5.1136 56.3386C3.60021 54.3473 2.78636 51.9247 2.78636 49.181C2.78636 49.1393 2.78701 49.0977 2.78831 49.056C2.81474 48.2101 2.93471 47.3362 3.17222 46.4644C1.05965 44.9298 -0.210938 42.3495 0.0282403 39.6286C0.425859 34.4017 2.74194 30.1501 6.86608 27.2401C5.60923 25.121 4.88834 22.6664 4.71008 19.9628L4.7094 19.9523C4.60784 18.3476 4.70352 16.7809 5.01481 15.2773C4.022 14.4739 3.27749 13.4639 2.77591 12.4453C2.05497 10.9812 1.67501 9.17823 1.98431 7.34869C2.63235 3.40993 5.65774 0.607265 9.44619 0.066058C9.48329 0.0607584 9.52046 0.0559805 9.55769 0.0517254C10.0323 -0.00251672 10.5052 -0.0128962 10.9709 0.0154222C11.3066 -0.00528127 11.6405 -0.00466667 11.9709 0.0154222C12.3066 -0.00528128 12.6405 -0.00466668 12.9709 0.0154222C13.3066 -0.00528127 13.6405 -0.00466668 13.9709 0.0154222C14.3066 -0.00528127 14.6405 -0.00466668 14.9709 0.0154222C15.3066 -0.00528128 15.6405 -0.00466667 15.9709 0.0154222C16.3066 -0.00528128 16.6405 -0.00466668 16.9709 0.0154222C17.3066 -0.00528128 17.6405 -0.00466668 17.9709 0.0154222C18.3066 -0.00528127 18.6405 -0.00466668 18.9709 0.0154222C19.3066 -0.00528113 19.6405 -0.00466626 19.9709 0.0154228C21.5916 -0.084543 23.1734 0.312482 24.4951 0.998952ZM8.19784 12.5931C6.63554 11.8372 5.62761 9.77092 5.92999 8.00704C6.28277 5.83999 7.89546 4.32809 10.0121 4.02571C11.776 3.82413 13.7919 4.83206 14.4974 6.39435C11.6752 7.75506 9.55854 9.82132 8.19784 12.5931ZM33.245 4.07628C31.4811 3.8243 29.5157 4.88263 28.7597 6.44492C31.5819 7.75523 33.6986 9.82149 35.1097 12.6941C36.8736 11.5854 37.7303 9.6199 37.2768 7.65444C36.8232 5.73937 35.2609 4.32826 33.245 4.07628ZM22.9643 19.7995H21.654C21.4206 19.7995 21.1871 19.7862 20.9605 19.7732C20.7469 19.761 20.5393 19.7491 20.3437 19.7491C20.1421 19.7995 19.8901 19.9003 19.8397 20.0011C19.7893 20.1523 19.8901 20.4043 20.0413 20.5051C20.4445 20.8579 20.8981 21.1603 21.3516 21.4626C21.5028 21.513 21.7548 21.5634 21.8556 21.4626C22.3092 21.1603 22.7627 20.8579 23.2163 20.5051C23.3675 20.4043 23.4683 20.2027 23.4179 20.0515C23.3675 19.9507 23.1155 19.7995 22.9643 19.7995ZM21.5528 6.79798C24.6774 6.84837 27.4996 7.45313 29.969 9.3178C33.4464 11.9888 34.8575 15.6174 34.5551 19.9011C34.1015 26.0495 29.5658 30.2324 23.4174 30.8371C20.6456 31.0891 17.9746 30.8371 15.4548 29.678C11.2215 27.7125 9.00403 24.2856 8.70165 19.6995C8.44967 15.7182 9.70958 12.2912 12.8846 9.67058C15.4044 7.55392 18.4282 6.84837 21.5528 6.79798ZM27.2476 21.9673C27.1972 24.588 24.4254 26.0999 22.5607 26.1503V23.4792C22.5607 23.328 22.7119 23.1265 22.8631 23.0257C23.0479 22.8913 23.2384 22.7568 23.4288 22.6224C23.8095 22.3536 24.1902 22.0849 24.5262 21.8162C25.2821 21.2114 25.5341 20.2035 25.1813 19.2963C24.8789 18.4396 24.0726 17.8852 23.1151 17.8852H20.1417C19.0833 17.8852 18.3274 18.4396 17.9746 19.3971C17.6722 20.3546 17.9746 21.3122 18.781 21.9169C19.1396 22.2038 19.5237 22.4652 19.897 22.7192L19.8972 22.7193L19.8972 22.7193L19.8972 22.7193L19.8972 22.7193L19.8972 22.7194L19.8973 22.7194L19.8973 22.7194L19.8973 22.7194L19.8973 22.7194L19.8974 22.7194C20.0486 22.8223 20.198 22.924 20.3433 23.0257C20.3769 23.0593 20.4216 23.0929 20.4664 23.1265C20.556 23.1937 20.6456 23.2609 20.6456 23.328V26.0495C18.2266 25.9991 16.2611 24.2352 16.0091 22.0177C15.9588 21.413 15.5556 21.0602 15.0516 21.1106C14.5476 21.161 14.1949 21.5642 14.1949 22.1185C14.1949 23.1769 14.5476 24.1848 15.2028 25.0415C18.0754 29.0229 25.0805 29.0733 28.0035 25.0919C28.6587 24.1848 29.0619 23.1769 29.0619 22.0681C29.0619 21.5138 28.7091 21.1106 28.2051 21.1106C27.7012 21.0602 27.2476 21.413 27.2476 21.9673ZM16.9667 17.0285C16.9667 16.5245 16.5635 16.1213 16.0595 16.1213C15.5556 16.1213 15.102 16.5245 15.1524 17.0789C15.1524 17.5828 15.606 17.986 16.1099 17.986C16.5635 17.9356 16.9667 17.482 16.9667 17.0285ZM28.1043 17.0285C28.1043 16.5245 27.7012 16.1213 27.1972 16.1213C26.6932 16.1213 26.29 16.5245 26.2397 17.0285C26.2397 17.5324 26.6428 17.986 27.1468 17.986C27.7012 17.9356 28.1043 17.5324 28.1043 17.0285ZM24.2741 53.4144C21.8551 47.9716 25.0301 42.0248 29.9689 41.1681C29.9185 40.5129 29.8681 39.9082 29.7169 39.3034C29.2634 36.7836 28.3562 34.4653 26.6932 32.5503C26.4412 32.2983 26.2396 32.1975 25.8868 32.2983C23.0142 33.0038 20.1416 32.9534 17.269 32.2983C16.8658 32.1975 16.6642 32.2479 16.4123 32.5503C15.3035 33.8606 14.4972 35.2717 13.9932 36.8844C13.5397 38.2955 13.2877 39.7066 13.2373 41.2185C16.0595 41.7224 17.9242 43.3855 18.9825 45.9053C20.0912 48.4252 19.9904 50.945 18.8817 53.4144C20.3936 54.372 22.9638 54.372 24.2741 53.4144ZM8.80245 44.5444C7.39135 45.9051 6.83699 47.5682 6.78659 49.1808C6.78659 51.0959 7.34095 52.6582 8.29849 53.9181C10.4151 56.5891 13.9429 56.6899 16.2107 54.2205C18.6802 51.5495 18.4786 46.913 15.858 44.4436C13.7917 42.5285 10.8183 42.5789 8.80245 44.5444ZM34.4039 54.5236C35.815 53.1629 36.4197 51.4494 36.4701 49.5847C36.4701 48.224 36.1677 47.0145 35.5126 45.9058C33.7487 42.7308 29.969 42.0252 27.4491 44.3939C24.6269 47.0145 24.6269 51.9534 27.4491 54.574C29.465 56.4387 32.388 56.4387 34.4039 54.5236ZM14.0855 32.7282L14.0856 32.7282C14.3117 32.3306 14.5359 31.9364 14.7494 31.5423C13.7919 30.9376 12.7335 30.232 11.6752 29.5265C11.3728 29.3249 11.1713 29.3249 10.8689 29.4761C6.63557 31.6935 4.36772 35.2213 4.01495 39.9585C3.86376 41.5712 4.87169 43.1335 6.38358 43.6879C6.73636 43.8391 6.93795 43.7383 7.18993 43.4863C8.19786 42.3776 9.45778 41.6216 10.9193 41.3192C11.3728 41.2185 11.4232 41.0673 11.4736 40.6641C11.6248 38.7994 11.9776 36.9851 12.7336 35.2717C13.1412 34.3883 13.6176 33.5508 14.0855 32.7282ZM29.1233 31.1644C28.8982 31.2898 28.6746 31.4142 28.4575 31.5419C28.621 31.8096 28.789 32.0728 28.9574 32.3369C29.3599 32.9678 29.7653 33.6032 30.1206 34.3138C31.1789 36.3296 31.6325 38.4967 31.8341 40.7645C31.8341 40.9661 31.9852 41.2181 32.1364 41.2685C33.7491 41.6212 35.1098 42.4276 36.2186 43.6371C36.3194 43.7379 36.5209 43.7883 36.6721 43.7379C38.0328 43.4355 39.2927 41.7724 39.2424 40.3613C38.9904 35.7752 37.0249 32.2475 33.0436 29.8789C32.2876 29.4253 31.7837 29.2741 31.0277 29.9293C30.4633 30.4184 29.7866 30.7952 29.1233 31.1644ZM52.6935 45.9358C52.5483 45.6511 52.3992 45.3589 52.2443 45.049L50.9843 47.5688H53.5042C53.2389 47.0051 52.9736 46.485 52.694 45.9368L52.6935 45.9358ZM46.7007 51.2977V40.2609H57.7879V51.2977H46.7007ZM54.9153 49.4834C55.772 49.4834 56.1752 48.8283 55.8224 48.0723C54.9657 46.2581 54.0586 44.4438 53.101 42.6799C52.9498 42.3775 52.5467 42.1255 52.1939 42.1255C51.8915 42.1255 51.4883 42.4279 51.3875 42.6799C50.4804 44.4438 49.5733 46.2077 48.7165 48.0219C48.3133 48.8283 48.7165 49.4834 49.674 49.4834H54.9153ZM47.6076 32.8019C47.6076 33.8098 46.8013 34.6665 45.7934 34.6665C44.7854 34.6665 43.9287 33.8602 43.9287 32.8523C43.9287 31.7939 44.735 30.9372 45.7934 30.9876C46.7509 30.9372 47.6076 31.7939 47.6076 32.8019ZM40.9052 38.3456H51.2869V27.3087H40.1997C40.1997 27.8545 40.2029 28.3938 40.206 28.9292C40.2155 30.5194 40.2247 32.0754 40.1493 33.6587C40.0767 34.8199 40.3438 35.9289 40.6119 37.0421L40.6119 37.0421C40.7162 37.4749 40.8206 37.9082 40.9052 38.3456ZM42.0643 32.8019C42.0643 30.7861 43.677 29.0726 45.7433 29.0726C47.7591 29.0726 49.4726 30.7357 49.4726 32.7515C49.4726 34.8178 47.8095 36.4809 45.7433 36.4809C43.7274 36.4809 42.0643 34.8178 42.0643 32.8019ZM38.1836 51.2973H44.7855C44.7855 47.568 44.7855 43.889 44.8359 40.2101H41.2074L40.905 42.0244H41.9633C42.6689 42.0748 43.0216 42.3771 43.0216 43.0827V48.4247C43.0216 49.1303 42.6689 49.4831 41.9633 49.4831H38.3851C38.2844 50.1382 38.234 50.6926 38.1836 51.2973ZM48.0863 21.9914C47.3054 20.8829 46.5243 19.7744 45.7434 18.6407C45.1677 19.4764 44.5921 20.2983 44.0189 21.1167C43.0367 22.5191 42.0616 23.9115 41.1069 25.3435H50.4303C49.6491 24.2096 48.8675 23.1001 48.0863 21.9914ZM38.184 47.6187H41.0566V43.839C40.9009 43.8531 40.7452 43.8594 40.5928 43.8654C40.2028 43.881 39.8347 43.8956 39.5447 44.0406C39.0989 44.2954 38.6729 44.6308 38.2419 44.9703L38.2418 44.9703C37.9908 45.168 37.7381 45.3671 37.4785 45.5525C37.68 46.2075 37.932 46.9131 38.1839 47.6185L38.184 47.6187Z" fill="black"/>
</svg>
