<svg width="70" height="60" viewBox="0 0 70 60" fill="none" xmlns="http://www.w3.org/2000/svg">
<path fill-rule="evenodd" clip-rule="evenodd" d="M68.8488 31.6539C68.8488 34.0109 68.5508 36.3349 67.9608 38.5909C69.2258 39.5159 69.9858 40.9709 69.9988 42.5789C70.0148 44.5289 68.9248 46.2728 67.1548 47.1278L60.0028 50.5848C59.3928 50.8798 58.7308 51.0698 58.0578 51.1538L58.0578 51.1544C58.0518 51.4082 58.0458 51.663 57.9998 51.9148C57.7548 53.2638 56.9518 54.4658 55.7968 55.2118C54.2368 56.2198 52.5638 57.0878 50.8228 57.7928C47.2068 59.2578 43.3718 59.9998 39.4239 59.9998H29.4239C25.4759 59.9998 21.6409 59.2578 18.0249 57.7928C14.5869 56.4008 11.492 54.4168 8.82197 51.8938C8.17197 52.1838 7.46797 52.3348 6.75098 52.3348C5.34998 52.3348 3.99799 51.7528 3.03999 50.7368C2.10199 49.7398 1.60899 48.3858 1.68999 47.0208L2.14499 39.3589C2.18299 38.7179 2.32499 38.1069 2.54899 37.5359C1.16199 36.7209 0.186001 35.2809 0.0670011 33.5929C0.0220013 32.9509 0 32.2989 0 31.6539C0 27.8089 0.786994 24.0759 2.33999 20.5609C3.83298 17.1799 5.96598 14.149 8.67997 11.55C11.381 8.96397 14.5249 6.93298 18.0249 5.51498C19.1749 5.04998 20.3559 4.65498 21.5549 4.33398C21.6949 3.33199 22.1389 2.38299 22.8359 1.631C23.7959 0.593999 25.1589 0 26.5759 0H36.5759C37.5319 0 38.4669 0.27 39.2799 0.778999L47.1488 5.70798C47.3978 5.86398 47.6238 6.04598 47.8388 6.23898C48.0108 6.14498 48.1898 6.05898 48.3788 5.98898C48.9458 5.78098 49.5388 5.67598 50.1408 5.67598C50.8868 5.67598 51.6068 5.83598 52.2818 6.15198C55.1998 7.51597 57.8528 9.33297 60.1688 11.55C62.8818 14.149 65.0148 17.1799 66.5088 20.5609C68.0618 24.0769 68.8488 27.8089 68.8488 31.6539ZM4.05702 33.3125C4.09702 33.8785 4.63402 34.2956 5.22502 34.2425L5.45802 34.2215C6.30802 33.8245 7.25802 33.5965 8.26302 33.5965C8.74402 33.5965 9.21902 33.6675 9.68702 33.7705C10.068 33.5915 10.313 33.2055 10.286 32.7735C10.263 32.4025 10.25 32.0285 10.25 31.6535C10.25 26.7485 12.245 22.1385 15.866 18.6715C18.397 16.2475 21.511 14.5865 24.905 13.8055C25.555 13.6565 26.195 14.0805 26.244 14.7185L26.344 16.0255C26.408 16.8675 27.456 17.2735 28.116 16.7105L35.151 10.7085C35.674 10.2625 35.612 9.4635 35.0251 9.0965L27.156 4.16751C26.418 3.70551 25.445 4.25251 25.51 5.09351L25.628 6.64551C25.668 7.16751 25.284 7.6215 24.746 7.7175C22.959 8.0355 21.215 8.5375 19.526 9.2215C16.498 10.4485 13.78 12.2025 11.446 14.4375C9.11202 16.6725 7.27902 19.2765 5.99802 22.1755C4.67102 25.1795 3.99902 28.3675 3.99902 31.6535C3.99902 32.2095 4.01802 32.7625 4.05702 33.3125ZM55.3981 41.7005L53.9331 41.0205C53.4411 40.7925 53.2231 40.2495 53.4051 39.7565C54.3631 37.1615 54.8491 34.4415 54.8491 31.6525C54.8491 28.3675 54.1761 25.1785 52.8491 22.1765C51.5681 19.2765 49.7361 16.6735 47.4021 14.4385C45.3981 12.5195 43.11 10.9545 40.586 9.77351C40.317 9.6475 40.0191 9.64751 39.7581 9.74351C39.8241 11.2715 39.1901 12.7235 37.99 13.7485L37.3571 14.2875C37.3601 14.6655 37.584 15.0255 37.964 15.2075C41.2451 16.7725 44.078 19.2605 46.103 22.5385C46.933 23.8825 47.5611 25.3415 47.9631 26.8555C48.8711 30.2855 48.7841 33.7035 47.8241 36.8395C47.6361 37.4535 46.9281 37.7705 46.3261 37.4915L45.0961 36.9205C44.3011 36.5515 43.4091 37.2155 43.5871 38.0425L45.2121 45.5755C45.4961 46.8905 47.0091 47.5875 48.2621 46.9815L55.4141 43.5256C56.2011 43.1455 56.1911 42.0685 55.3981 41.7005ZM43.881 50.4276L43.698 50.1806C42.532 49.4136 41.6451 48.2925 41.2121 46.9545C40.8601 46.7315 40.389 46.7245 40.013 46.9645C36.9 48.9475 33.247 50.0126 29.424 50.0126C24.302 50.0126 19.488 48.1025 15.866 44.6355C15.747 44.5205 15.629 44.4056 15.514 44.2886C15.061 43.8316 15.146 43.0945 15.691 42.7405L16.822 42.0075C17.552 41.5335 17.397 40.4645 16.559 40.1975L8.93702 37.7766C7.60501 37.3526 6.21602 38.2545 6.13602 39.5945L5.68302 47.2556C5.63302 48.0976 6.61502 48.6296 7.34502 48.1566L8.68402 47.2865C9.14003 46.9915 9.74802 47.0826 10.106 47.4826C10.532 47.9586 10.978 48.4205 11.446 48.8685C13.78 51.1025 16.498 52.8585 19.526 54.0845C22.662 55.3545 25.992 55.9986 29.424 55.9986C32.854 55.9986 36.184 55.3545 39.321 54.0845C40.837 53.4705 42.2751 52.7236 43.6261 51.8506C44.1151 51.5356 44.222 50.8876 43.881 50.4276Z" fill="black"/>
</svg>
